<?xml version="1.0" encoding="UTF-8" standalone="no"?>
<svg
   xmlns:dc="http://purl.org/dc/elements/1.1/"
   xmlns:cc="http://creativecommons.org/ns#"
   xmlns:rdf="http://www.w3.org/1999/02/22-rdf-syntax-ns#"
   xmlns:svg="http://www.w3.org/2000/svg"
   xmlns="http://www.w3.org/2000/svg"
   xmlns:sodipodi="http://sodipodi.sourceforge.net/DTD/sodipodi-0.dtd"
   xmlns:inkscape="http://www.inkscape.org/namespaces/inkscape"
   version="1.1"
   id="svg4690"
   xml:space="preserve"
   width="158.66667"
   height="130.66667"
   viewBox="0 0 158.66667 130.66667"
   sodipodi:docname="2020-1208-1920-crop.pdf"><metadata
     id="metadata4696"><rdf:RDF><cc:Work
         rdf:about=""><dc:format>image/svg+xml</dc:format><dc:type
           rdf:resource="http://purl.org/dc/dcmitype/StillImage" /></cc:Work></rdf:RDF></metadata><defs
     id="defs4694"><clipPath
       clipPathUnits="userSpaceOnUse"
       id="clipPath4708"><path
         d="M 0,0 H 308 V 250 H 0 Z"
         id="path4706" /></clipPath><clipPath
       clipPathUnits="userSpaceOnUse"
       id="clipPath4718"><path
         d="M 0,0 H 308 V 250 H 0 Z"
         id="path4716" /></clipPath><clipPath
       clipPathUnits="userSpaceOnUse"
       id="clipPath4730"><path
         d="M 0,0 V 250 H 308 V 0 Z"
         id="path4728" /></clipPath><clipPath
       clipPathUnits="userSpaceOnUse"
       id="clipPath4740"><path
         d="M 0,0 H 544 V 441 H 0 Z"
         id="path4738" /></clipPath></defs><sodipodi:namedview
     pagecolor="#ffffff"
     bordercolor="#666666"
     borderopacity="1"
     objecttolerance="10"
     gridtolerance="10"
     guidetolerance="10"
     inkscape:pageopacity="0"
     inkscape:pageshadow="2"
     inkscape:window-width="640"
     inkscape:window-height="480"
     id="namedview4692" /><g
     id="g4698"
     inkscape:groupmode="layer"
     inkscape:label="2020-1208-1920-crop"
     transform="matrix(1.3333333,0,0,-1.3333333,0,130.66667)"><g
       id="g4700"
       transform="translate(-71,-95)"><g
         id="g4702"><g
           id="g4704"
           clip-path="url(#clipPath4708)"><g
             id="g4710"
             transform="matrix(0.84,0,0,-0.84,24.64,230)"><g
               id="g4712"><g
                 id="g4714"
                 clip-path="url(#clipPath4718)"><g
                   id="g4720"><g
                     id="g4722" /></g><g
                   id="g4724"><g
                     id="g4726"
                     clip-path="url(#clipPath4730)"><g
                       id="g4732"
                       transform="scale(0.56693)" /></g></g><g
                   id="g4734"
                   transform="scale(0.56693)"><g
                     id="g4736"
                     clip-path="url(#clipPath4740)"><path
                       d="M 0,0 H 544 V 441 H 0 Z"
                       style="fill:#ffffff;fill-opacity:1;fill-rule:nonzero;stroke:none"
                       id="path4742" /><path
                       d="M 110.76,268.16 110.16,79.562 H 99 l 0.602,199.758 244.868,1.08 v -11.16 z"
                       style="fill:#808080;fill-opacity:0.74902;fill-rule:evenodd;stroke:none"
                       id="path4744" /><path
                       d="M 110.76,268.16 110.16,79.562"
                       style="fill:none;stroke:#808080;stroke-width:2;stroke-linecap:round;stroke-linejoin:round;stroke-miterlimit:10;stroke-dasharray:none;stroke-opacity:0"
                       id="path4746" /><path
                       d="M 110.16,79.562 H 99"
                       style="fill:none;stroke:#808080;stroke-width:2;stroke-linecap:round;stroke-linejoin:round;stroke-miterlimit:10;stroke-dasharray:none;stroke-opacity:0"
                       id="path4748" /><path
                       d="M 99,79.562 99.602,279.32"
                       style="fill:none;stroke:#808080;stroke-width:2;stroke-linecap:round;stroke-linejoin:round;stroke-miterlimit:10;stroke-dasharray:none;stroke-opacity:0"
                       id="path4750" /><path
                       d="M 99.602,279.32 344.47,280.4"
                       style="fill:none;stroke:#808080;stroke-width:2;stroke-linecap:round;stroke-linejoin:round;stroke-miterlimit:10;stroke-dasharray:none;stroke-opacity:0"
                       id="path4752" /><path
                       d="M 344.47,280.4 V 269.24"
                       style="fill:none;stroke:#808080;stroke-width:2;stroke-linecap:round;stroke-linejoin:round;stroke-miterlimit:10;stroke-dasharray:none;stroke-opacity:0"
                       id="path4754" /><path
                       d="M 344.47,269.24 110.76,268.16"
                       style="fill:none;stroke:#808080;stroke-width:2;stroke-linecap:round;stroke-linejoin:round;stroke-miterlimit:10;stroke-dasharray:none;stroke-opacity:0"
                       id="path4756" /><path
                       d="m 110.16,79.562 0.6,188.598"
                       style="fill:none;stroke:#000000;stroke-width:2.5;stroke-linecap:round;stroke-linejoin:round;stroke-miterlimit:10;stroke-dasharray:none;stroke-opacity:0.69804"
                       id="path4758" /><path
                       d="m 110.76,268.16 233.71,1.08"
                       style="fill:none;stroke:#000000;stroke-width:2.5;stroke-linecap:round;stroke-linejoin:round;stroke-miterlimit:10;stroke-dasharray:none;stroke-opacity:0.69804"
                       id="path4760" /><path
                       d="M 310.99,113.03 H 110.16"
                       style="fill:none;stroke:#000000;stroke-width:1.5;stroke-linecap:round;stroke-linejoin:round;stroke-miterlimit:10;stroke-dasharray:none;stroke-opacity:0.69804"
                       id="path4762" /><path
                       d="M 310.99,113.03 V 269.24"
                       style="fill:none;stroke:#000000;stroke-width:1.5;stroke-linecap:round;stroke-linejoin:round;stroke-miterlimit:10;stroke-dasharray:none;stroke-opacity:0.69804"
                       id="path4764" /><path
                       d="M 244.05,179.98 H 110.16"
                       style="fill:none;stroke:#000000;stroke-width:1.5;stroke-linecap:butt;stroke-linejoin:round;stroke-miterlimit:10;stroke-dasharray:5.5, 4;stroke-dashoffset:0;stroke-opacity:0.69804"
                       id="path4766" /><g
                       id="g4768"
                       transform="scale(19)"><g
                         id="g4770"
                         transform="matrix(0.01,0,0,0.01,8.2105,8.7994)"><path
                           d="m 37.297,-37.797 c 0.333,-2.271 1.37,-3.672 3.109,-4.203 0.334,-0.135 0.698,-0.203 1.094,-0.203 1.729,0 2.698,0.901 2.906,2.703 0,0.396 -0.234,1.531 -0.703,3.406 l -3.609,14 c -1,4.198 -1.729,7.198 -2.188,9 -0.875,3.4586 -1.312,5.9221 -1.312,7.3909 0,3.0729 1,4.6093 3,4.6093 2.541,0 4.677,-2.6666 6.406,-8 0.333,-1.1352 0.734,-2.6042 1.203,-4.4062 0.531,-1.135 0.995,-1.734 1.391,-1.797 0.802,0 1.203,0.333 1.203,1 0,1 -0.599,3.333 -1.797,7.0001 -0.396,1.1354 -0.797,2.099 -1.203,2.8907 -1.865,3.66662 -4.328,5.5 -7.391,5.5 -3.739,0 -6.442,-1.59901 -8.109,-4.7969 -0.469,-0.8021 -0.802,-1.7031 -1,-2.7031 -4.198,5 -8.531,7.5 -13,7.5 -5,0 -8.698,-2.2657 -11.0939,-6.7969 C 4.7344,-8.3698 4,-11.438 4,-14.906 c 0,-7.198 2.5,-13.865 7.5,-20 4.667,-5.594 9.734,-8.656 15.203,-9.188 0.469,-0.073 0.932,-0.109 1.391,-0.109 4.073,0 7.14,2.135 9.203,6.406 z m -6.5,25.891 v 0 l 5,-19.594 c 0.198,-1 0.297,-1.568 0.297,-1.703 0,-1.396 -0.599,-3.094 -1.797,-5.094 -1.469,-2.469 -3.5,-3.703 -6.094,-3.703 -3.469,0 -6.771,2.266 -9.906,6.797 -0.594,0.864 -1.162,1.797 -1.703,2.797 -1.927,3.875 -3.558,9.375 -4.891,16.5 -0.406,2.271 -0.609,4.073 -0.609,5.406 0,4.5312 1.271,7.4635 3.812,8.7969 0.729,0.4062 1.594,0.6093 2.594,0.6093 3.729,0 7.495,-2.3697 11.297,-7.1093 0.937,-1.0625 1.573,-2.1619 1.906,-3.2969 v -0.094 c 0.063,-0.135 0.094,-0.239 0.094,-0.312 z"
                           style="fill:#000000;fill-opacity:1;fill-rule:nonzero;stroke:none"
                           id="path4772" /><g
                           id="g4774"
                           transform="translate(69.57)"><path
                             d="M 11,-34.406 C 11,-37 10.5,-38.599 9.5,-39.203 8.6979,-39.672 7.2656,-39.938 5.2031,-40 h -2 v -3.094 l 14.0939,-1.109 v 10.5 c 3.135,-7 8.068,-10.5 14.797,-10.5 7.802,0 12.239,3.265 13.312,9.797 2,-4.532 5.13,-7.532 9.391,-9 1.604,-0.532 3.307,-0.797 5.109,-0.797 5,0 8.5,1.234 10.5,3.703 1.792,2.062 2.792,4.896 3,8.5 0.063,1.271 0.094,3.536 0.094,6.797 v 19.1092 c 0.062,1.5938 1.031,2.5261 2.906,2.7969 0.792,0.1354 2.422,0.2031 4.891,0.2031 L 81.297,0 C 74.495,-0.19792 70.76,-0.29688 70.094,-0.29688 69.562,-0.29688 65.797,-0.19792 58.797,0 v -3.0938 c 3.937,0 6.239,-0.302 6.906,-0.9062 l 0.203,-0.2031 c 0.459,-0.5313 0.688,-1.6615 0.688,-3.3907 V -30.906 c 0,-6.594 -1.896,-10.224 -5.688,-10.891 C 60.365,-41.932 59.797,-42 59.203,-42 55.13,-42 51.729,-40.234 49,-36.703 46.802,-33.839 45.703,-30.271 45.703,-26 v 18.4062 c 0,2.2605 0.531,3.5938 1.594,4 0.739,0.3334 2.807,0.5 6.203,0.5 L 53.5,0 C 46.698,-0.19792 42.964,-0.29688 42.297,-0.29688 41.766,-0.29688 38,-0.19792 31,0 v -3.0938 c 3.938,0 6.24,-0.302 6.906,-0.9062 l 0.188,-0.2031 c 0.468,-0.5313 0.703,-1.6615 0.703,-3.3907 V -30.906 c 0,-6.594 -1.901,-10.224 -5.703,-10.891 C 32.562,-41.932 32,-42 31.406,-42 c -4.073,0 -7.474,1.766 -10.203,5.297 -2.198,2.864 -3.297,6.432 -3.297,10.703 v 18.4062 c 0,2.2605 0.532,3.5938 1.594,4 0.729,0.3334 2.797,0.5 6.203,0.5 V 0 C 18.901,-0.19792 15.167,-0.29688 14.5,-0.29688 13.969,-0.29688 10.203,-0.19792 3.2031,0 v -3.0938 c 3.9271,0 6.224,-0.302 6.8909,-0.9062 l 0.203,-0.2031 C 10.766,-4.7344 11,-5.8646 11,-7.5938 Z"
                             style="fill:#000000;fill-opacity:1;fill-rule:nonzero;stroke:none"
                             id="path4776" /><g
                             id="g4778"
                             transform="matrix(5.2632,0,0,5.2632,-890.62,-879.94)"><path
                               d="m 244.05,179.98 v 89.26"
                               style="fill:none;stroke:#000000;stroke-width:1.5;stroke-linecap:butt;stroke-linejoin:round;stroke-miterlimit:10;stroke-dasharray:5.5, 4;stroke-dashoffset:0;stroke-opacity:0.69804"
                               id="path4780" /><g
                               id="g4782"
                               transform="scale(19)"><g
                                 id="g4784"
                                 transform="matrix(0.01,0,0,0.01,13.263,12.433)"><path
                                   d="m 2.7969,-16.5 v -3.094 L 33.5,-66.5 c 0.531,-0.802 1.198,-1.203 2,-1.203 0.938,0 1.469,0.37 1.594,1.109 v 1.5 45.5 h 10 v 3.094 h -10 v 8.7031 c 0,2.0625 0.401,3.3281 1.203,3.7969 0.937,0.6042 3.073,0.9062 6.406,0.9062 h 2.094 V 0 c -2.729,-0.19792 -7.261,-0.29688 -13.594,-0.29688 -6.271,0 -10.771,0.09896 -13.5,0.29688 v -3.0938 h 2.094 c 4.135,0 6.536,-0.5677 7.203,-1.7031 0.271,-0.4687 0.406,-1.4687 0.406,-3 V -16.5 Z M 30,-19.594 V -56.906 L 5.5938,-19.594 Z"
                                   style="fill:#000000;fill-opacity:1;fill-rule:nonzero;stroke:none"
                                   id="path4786" /><g
                                   id="g4788"
                                   transform="translate(66.7)"><path
                                   d="M 11,-34.406 C 11,-37 10.5,-38.599 9.5,-39.203 8.6979,-39.672 7.2656,-39.938 5.2031,-40 h -2 v -3.094 l 14.0939,-1.109 v 10.5 c 3.135,-7 8.068,-10.5 14.797,-10.5 7.802,0 12.239,3.265 13.312,9.797 2,-4.532 5.13,-7.532 9.391,-9 1.604,-0.532 3.307,-0.797 5.109,-0.797 5,0 8.5,1.234 10.5,3.703 1.792,2.062 2.792,4.896 3,8.5 0.063,1.271 0.094,3.536 0.094,6.797 v 19.1092 c 0.062,1.5938 1.031,2.5261 2.906,2.7969 0.792,0.1354 2.422,0.2031 4.891,0.2031 L 81.297,0 C 74.495,-0.19792 70.76,-0.29688 70.094,-0.29688 69.562,-0.29688 65.797,-0.19792 58.797,0 v -3.0938 c 3.937,0 6.239,-0.302 6.906,-0.9062 l 0.203,-0.2031 c 0.459,-0.5313 0.688,-1.6615 0.688,-3.3907 V -30.906 c 0,-6.594 -1.896,-10.224 -5.688,-10.891 C 60.365,-41.932 59.797,-42 59.203,-42 55.13,-42 51.729,-40.234 49,-36.703 46.802,-33.839 45.703,-30.271 45.703,-26 v 18.4062 c 0,2.2605 0.531,3.5938 1.594,4 0.739,0.3334 2.807,0.5 6.203,0.5 L 53.5,0 C 46.698,-0.19792 42.964,-0.29688 42.297,-0.29688 41.766,-0.29688 38,-0.19792 31,0 v -3.0938 c 3.938,0 6.24,-0.302 6.906,-0.9062 l 0.188,-0.2031 c 0.468,-0.5313 0.703,-1.6615 0.703,-3.3907 V -30.906 c 0,-6.594 -1.901,-10.224 -5.703,-10.891 C 32.562,-41.932 32,-42 31.406,-42 c -4.073,0 -7.474,1.766 -10.203,5.297 -2.198,2.864 -3.297,6.432 -3.297,10.703 v 18.4062 c 0,2.2605 0.532,3.5938 1.594,4 0.729,0.3334 2.797,0.5 6.203,0.5 V 0 C 18.901,-0.19792 15.167,-0.29688 14.5,-0.29688 13.969,-0.29688 10.203,-0.19792 3.2031,0 v -3.0938 c 3.9271,0 6.224,-0.302 6.8909,-0.9062 l 0.203,-0.2031 C 10.766,-4.7344 11,-5.8646 11,-7.5938 Z"
                                   style="fill:#000000;fill-opacity:1;fill-rule:nonzero;stroke:none"
                                   id="path4790" /><g
                                   id="g4792"
                                   transform="matrix(5.2632,0,0,5.2632,-1393,-1243.3)"><path
                                   d="m 113.76,268.16 c 0,1.66 -1.34,3 -3,3 -1.66,0 -3,-1.34 -3,-3 0,-1.66 1.34,-3 3,-3 1.66,0 3,1.34 3,3 z"
                                   style="fill:#0000ff;fill-opacity:1;fill-rule:nonzero;stroke:none"
                                   id="path4794" /><g
                                   id="g4796"
                                   transform="scale(19)"><g
                                   id="g4798"
                                   transform="matrix(0.01,0,0,0.01,6.2632,13.315)"><path
                                   d="M 16,-7.7969 29.406,-61.5 c 0.261,-1.062 0.391,-1.698 0.391,-1.906 0,-0.792 -0.531,-1.292 -1.594,-1.5 H 28.094 28 c -0.198,0 -0.5,-0.032 -0.906,-0.094 -1.125,-0.135 -2.391,-0.203 -3.797,-0.203 -1.729,0 -2.662,-0.365 -2.797,-1.094 0,-1.198 0.5,-1.864 1.5,-2 h 0.094 0.109 1.203 H 57 c 7.667,0 13.135,2.266 16.406,6.797 1.459,2.135 2.188,4.469 2.188,7 0,5.396 -3,10.094 -9,14.094 -0.063,0 -0.125,0.036 -0.188,0.109 -3.541,2.261 -7.442,3.792 -11.703,4.594 6.802,0.802 11.469,3.469 14,8 1,1.864 1.5,3.901 1.5,6.109 0,4.865 -2.333,9.427 -7,13.6878 l -0.109,0.1093 C 57.365,-2.599 50.531,0 42.594,0 H 6.9062 C 5.2396,0 4.3385,-0.36458 4.2031,-1.0938 c 0,-1.2083 0.5,-1.875 1.5,-2 h 1.2031 c 4.3338,0 6.9328,-0.4687 7.7968,-1.4062 0.396,-0.4688 0.797,-1.401 1.203,-2.7969 0,-0.0729 0.032,-0.2396 0.094,-0.5 z M 31.094,-36.594 h 14.609 c 6.594,0 12.026,-2.401 16.297,-7.203 3,-3.406 4.5,-7.109 4.5,-11.109 0,-4.865 -2,-8.032 -6,-9.5 -1.396,-0.532 -3.031,-0.797 -4.906,-0.797 H 42.703 c -2.406,0 -3.875,0.333 -4.406,1 v 0 0.109 H 38.203 V -64 c -0.271,0.396 -0.573,1.26 -0.906,2.594 z m -4.5,33.5002 h 13.609 c 6.396,0 11.693,-2.401 15.891,-7.2032 3.208,-3.739 4.812,-7.875 4.812,-12.406 0,-4.865 -1.734,-8.297 -5.203,-10.297 -1.739,-0.938 -3.838,-1.406 -6.297,-1.406 H 30.5 L 23.594,-6.5 c -0.334,1.1979 -0.5,1.9635 -0.5,2.2969 0,0.5312 0.302,0.8646 0.906,1 v 0 0 h 0.406 c 0.396,0.0729 1.125,0.1093 2.188,0.1093 z"
                                   style="fill:#0000ff;fill-opacity:1;fill-rule:nonzero;stroke:none"
                                   id="path4800" /><g
                                   id="g4802"
                                   transform="matrix(5.2632,0,0,5.2632,-626.32,-1331.5)"><path
                                   d="m 313.99,113.03 c 0,1.66 -1.34,3 -3,3 -1.65,0 -3,-1.34 -3,-3 0,-1.65 1.35,-3 3,-3 1.66,0 3,1.35 3,3 z"
                                   style="fill:#0000ff;fill-opacity:1;fill-rule:nonzero;stroke:none"
                                   id="path4804" /><g
                                   id="g4806"
                                   transform="matrix(0.19,0,0,0.19,318.991,97.9773)"><path
                                   d="m 15.906,-7.7969 v 0 L 29.297,-61.5 c 0.271,-1.062 0.406,-1.698 0.406,-1.906 0,-0.792 -0.536,-1.292 -1.609,-1.5 H 28 v 0 C 27.865,-64.969 27.698,-65 27.5,-65 c -1.604,-0.135 -3.036,-0.203 -4.297,-0.203 -1.739,0 -2.672,-0.266 -2.797,-0.797 -0.073,-0.135 -0.109,-0.271 -0.109,-0.406 0,-1.125 0.568,-1.755 1.703,-1.891 v 0 h 1.297 33.609 c 8.667,0 15.13,3.365 19.391,10.094 2.739,4.271 4.109,9.338 4.109,15.203 0,9.667 -3.37,18.698 -10.109,27.094 C 63.901,-8.1042 56.37,-3.1354 47.703,-1 45.099,-0.33333 42.5,0 39.906,0 H 6.7969 C 5.1302,0 4.2292,-0.26562 4.0938,-0.79688 4.0312,-0.86979 4,-1.0052 4,-1.2031 4,-2.3385 4.5312,-2.9688 5.5938,-3.0938 h 1.2031 c 4.3331,0 6.9321,-0.4687 7.7971,-1.4062 0.406,-0.4688 0.807,-1.401 1.203,-2.7969 0,-0.0729 0.036,-0.2396 0.109,-0.5 z M 37.5,-61.406 23.797,-6.5 c -0.333,1.1979 -0.5,1.9635 -0.5,2.2969 0,0.5312 0.302,0.8646 0.906,1 v 0 0 h 0.391 c 0.406,0.0729 1.14,0.1093 2.203,0.1093 h 11.297 c 8.271,0 15.406,-3.1041 21.406,-9.3122 0.604,-0.667 1.172,-1.334 1.703,-2 5.333,-6.927 8.698,-15.99 10.094,-27.188 0.271,-2.073 0.406,-3.776 0.406,-5.109 0,-8.927 -3.5,-14.662 -10.5,-17.203 -2.271,-0.865 -4.807,-1.297 -7.609,-1.297 H 42.906 c -2.406,0 -3.875,0.333 -4.406,1 v 0 0.109 H 38.406 V -64 c -0.271,0.396 -0.573,1.26 -0.906,2.594 z"
                                   style="fill:#0000ff;fill-opacity:1;fill-rule:nonzero;stroke:none"
                                   id="path4808" /><g
                                   id="g4810"
                                   transform="matrix(5.2632,0,0,5.2632,-1678.9,-515.67)"><path
                                   d="m 313.99,269.24 c 0,1.66 -1.34,3 -3,3 -1.65,0 -3,-1.34 -3,-3 0,-1.66 1.35,-3 3,-3 1.66,0 3,1.34 3,3 z"
                                   style="fill:#0000ff;fill-opacity:1;fill-rule:nonzero;stroke:none"
                                   id="path4812" /><g
                                   id="g4814"
                                   transform="matrix(0.19,0,0,0.19,318.991,253.973)"><path
                                   d="M 76,-69.5 69.703,-44 c -0.333,1.198 -0.667,1.833 -1,1.906 L 68.594,-42 h -0.688 c -1,0 -1.5,-0.333 -1.5,-1 l 0.297,-4.906 v -0.188 c 0,-8.271 -2.599,-13.974 -7.797,-17.109 l -0.109,-0.094 c -2.333,-1.406 -5.068,-2.109 -8.203,-2.109 -7.063,0 -13.761,2.635 -20.094,7.906 -1.604,1.271 -3.036,2.672 -4.297,4.203 -6.333,7.396 -10.234,16.797 -11.703,28.203 -0.271,2.063 -0.406,3.86 -0.406,5.391 0,9.333 3.536,15.6353 10.609,18.9061 2.729,1.2604 5.729,1.89065 9,1.89065 6.261,0 12.391,-2.43225 18.391,-7.29685 C 56.76,-12.13 60.13,-17.396 62.203,-24 c 0.136,-0.667 0.568,-1 1.297,-1 0.802,0 1.203,0.333 1.203,1 0,1.198 -0.765,3.333 -2.297,6.406 -2.073,4.198 -4.974,7.9273 -8.703,11.1878 -6.604,5.73953 -13.807,8.6093 -21.609,8.6093 -8.532,0 -15.365,-2.93227 -20.5,-8.7969 C 7.1979,-11.594 5,-17.797 5,-25.203 c 0,-9.927 3.6354,-19.224 10.906,-27.891 6.729,-8.073 14.693,-13.406 23.891,-16 3.406,-0.937 6.739,-1.406 10,-1.406 7.271,0 12.807,2.969 16.609,8.906 l 7,-7.703 c 0.792,-0.802 1.292,-1.203 1.5,-1.203 0.729,0 1.094,0.333 1.094,1 z"
                                   style="fill:#0000ff;fill-opacity:1;fill-rule:nonzero;stroke:none"
                                   id="path4816" /><g
                                   id="g4818"
                                   transform="matrix(5.2632,0,0,5.2632,-1678.9,-1336.7)"><path
                                   d="m 113.16,113.03 c 0,1.66 -1.35,3 -3,3 -1.66,0 -3,-1.34 -3,-3 0,-1.65 1.34,-3 3,-3 1.65,0 3,1.35 3,3 z"
                                   style="fill:#0000ff;fill-opacity:1;fill-rule:nonzero;stroke:none"
                                   id="path4820" /><g
                                   id="g4822"
                                   transform="matrix(0.19,0,0,0.19,117.9995,97.9773)"><path
                                   d="m 17.906,-11.5 34.797,-58.406 c 0.667,-1.063 1.531,-1.625 2.594,-1.688 1,0 1.568,0.334 1.703,1 0.062,0.198 0.13,0.662 0.203,1.391 l 6.094,62.4999 c 0.198,1.6666 0.599,2.6666 1.203,3 h 0.094 v 0 0 0 0.1093 c 0.802,0.3334 2.536,0.5 5.203,0.5 1.469,0 2.234,0.3646 2.297,1.0938 0,1.33333 -0.599,2 -1.797,2 L 59.094,-0.29688 H 59 L 46.594,0 H 46.5 c -0.938,0 -1.406,-0.36458 -1.406,-1.0938 0.541,-1.2708 1.344,-1.9374 2.406,-2 4.802,0 7.203,-1.1041 7.203,-3.3124 0,0.0729 -0.536,-5.4898 -1.609,-16.6878 H 28 l -7.594,12.797 C 19.469,-8.6302 19,-7.3958 19,-6.5938 c 0,2.0626 1.568,3.2292 4.703,3.5 1.063,0 1.594,0.3959 1.594,1.1876 C 25.297,-0.63542 24.667,0 23.406,0 L 13.797,-0.29688 H 13.406 L 5,0 H 4.7969 C 3.9323,0 3.5,-0.36458 3.5,-1.0938 3.5,-2.3021 4,-2.9375 5,-3 V -3.0938 H 5.5938 C 9.8021,-3.3646 13.24,-5.1667 15.906,-8.5 c 0.667,-0.8646 1.334,-1.865 2,-3 z m 12,-14.703 h 22.891 l -3.203,-33 z"
                                   style="fill:#0000ff;fill-opacity:1;fill-rule:nonzero;stroke:none"
                                   id="path4824" /><g
                                   id="g4826"
                                   transform="matrix(5.2632,0,0,5.2632,-621.05,-515.67)"><path
                                   d="m 247.05,179.98 c 0,1.66 -1.34,3 -3,3 -1.66,0 -3,-1.34 -3,-3 0,-1.66 1.34,-3 3,-3 1.66,0 3,1.34 3,3 z"
                                   style="fill:#ff0000;fill-opacity:1;fill-rule:nonzero;stroke:none"
                                   id="path4828" /><g
                                   id="g4830"
                                   transform="scale(19)"><g
                                   id="g4832"
                                   transform="matrix(0.01,0,0,0.01,13.158,8.9988)"><path
                                   d="m 30.297,-31.594 v 0 l -6.203,25.0002 -0.297,1.6876 c 0,1.1354 1.536,1.7395 4.609,1.8124 v 0 0 h 1.891 c 1.739,0 2.672,0.3646 2.797,1.0938 0,1.33333 -0.667,2 -2,2 L 24.703,-0.20312 H 24.594 L 18.406,-0.29688 H 18.203 L 5.5938,0 H 5.5 C 4.5,0 4,-0.40104 4,-1.2031 4,-2.3385 4.5312,-2.9688 5.5938,-3.0938 h 1.2031 c 4.3331,0 6.9321,-0.4687 7.7971,-1.4062 0.406,-0.4688 0.807,-1.401 1.203,-2.7969 0,-0.0729 0.036,-0.2396 0.109,-0.5 L 29.297,-61.5 c 0.271,-1.062 0.406,-1.698 0.406,-1.906 0,-0.792 -0.536,-1.292 -1.609,-1.5 H 28 v 0 C 27.865,-64.969 27.698,-65 27.5,-65 c -1.604,-0.135 -3.036,-0.203 -4.297,-0.203 -1.739,0 -2.672,-0.266 -2.797,-0.797 -0.073,-0.135 -0.109,-0.271 -0.109,-0.406 0,-1.125 0.568,-1.755 1.703,-1.891 v 0 h 1.297 32.406 c 8.063,0 13.828,2.464 17.297,7.391 1.604,2.333 2.406,4.901 2.406,7.703 0,5.406 -2.771,10.307 -8.312,14.703 -5.865,4.604 -12.464,6.906 -19.797,6.906 z m 7.203,-29.812 -6.797,27.203 h 14.094 c 6.333,0 11.469,-1.766 15.406,-5.297 2.729,-2.531 4.594,-6.766 5.594,-12.703 v -0.094 c 0.198,-1.271 0.297,-2.37 0.297,-3.297 0,-6.406 -4.532,-9.609 -13.594,-9.609 h -9.594 c -2.406,0 -3.875,0.333 -4.406,1 v 0 0.109 H 38.406 V -64 c -0.271,0.396 -0.573,1.26 -0.906,2.594 z"
                                   style="fill:#ff0000;fill-opacity:1;fill-rule:nonzero;stroke:none"
                                   id="path4834" /><g
                                   id="g4836"
                                   transform="matrix(5.2632,0,0,5.2632,-1315.8,-899.88)" /></g></g></g></g></g></g></g></g></g></g></g></g></g></g></g></g></g></g></g></g></g><g
                   id="g4838"
                   transform="scale(0.56693)" /></g></g></g></g></g></g></g></svg>
