<?xml version="1.0" encoding="UTF-8" standalone="no"?>
<svg
   xmlns:dc="http://purl.org/dc/elements/1.1/"
   xmlns:cc="http://creativecommons.org/ns#"
   xmlns:rdf="http://www.w3.org/1999/02/22-rdf-syntax-ns#"
   xmlns:svg="http://www.w3.org/2000/svg"
   xmlns="http://www.w3.org/2000/svg"
   xmlns:sodipodi="http://sodipodi.sourceforge.net/DTD/sodipodi-0.dtd"
   xmlns:inkscape="http://www.inkscape.org/namespaces/inkscape"
   version="1.1"
   id="svg3168"
   xml:space="preserve"
   width="132"
   height="104"
   viewBox="0 0 132 104"
   sodipodi:docname="2020-1206-0940-crop.pdf"><metadata
     id="metadata3174"><rdf:RDF><cc:Work
         rdf:about=""><dc:format>image/svg+xml</dc:format><dc:type
           rdf:resource="http://purl.org/dc/dcmitype/StillImage" /></cc:Work></rdf:RDF></metadata><defs
     id="defs3172"><clipPath
       clipPathUnits="userSpaceOnUse"
       id="clipPath3186"><path
         d="M 0,0 H 272 V 183 H 0 Z"
         id="path3184" /></clipPath><clipPath
       clipPathUnits="userSpaceOnUse"
       id="clipPath3196"><path
         d="M 0,0 H 272 V 183 H 0 Z"
         id="path3194" /></clipPath><clipPath
       clipPathUnits="userSpaceOnUse"
       id="clipPath3208"><path
         d="M 0,0 V 183 H 272 V 0 Z"
         id="path3206" /></clipPath><clipPath
       clipPathUnits="userSpaceOnUse"
       id="clipPath3218"><path
         d="M 0,0 H 481 V 324 H 0 Z"
         id="path3216" /></clipPath></defs><sodipodi:namedview
     pagecolor="#ffffff"
     bordercolor="#666666"
     borderopacity="1"
     objecttolerance="10"
     gridtolerance="10"
     guidetolerance="10"
     inkscape:pageopacity="0"
     inkscape:pageshadow="2"
     inkscape:window-width="640"
     inkscape:window-height="480"
     id="namedview3170" /><g
     id="g3176"
     inkscape:groupmode="layer"
     inkscape:label="2020-1206-0940-crop"
     transform="matrix(1.3333333,0,0,-1.3333333,0,104)"><g
       id="g3178"
       transform="translate(-84,-54)"><g
         id="g3180"><g
           id="g3182"
           clip-path="url(#clipPath3186)"><g
             id="g3188"
             transform="matrix(0.78142,0,0,-0.78142,29.727,163)"><g
               id="g3190"><g
                 id="g3192"
                 clip-path="url(#clipPath3196)"><g
                   id="g3198"><g
                     id="g3200" /></g><g
                   id="g3202"><g
                     id="g3204"
                     clip-path="url(#clipPath3208)"><g
                       id="g3210"
                       transform="scale(0.56693)" /></g></g><g
                   id="g3212"
                   transform="scale(0.56693)"><g
                     id="g3214"
                     clip-path="url(#clipPath3218)"><path
                       d="M 0,0 H 481 V 324 H 0 Z"
                       style="fill:#ffffff;fill-opacity:1;fill-rule:nonzero;stroke:none"
                       id="path3220" /><path
                       d="m 225.04,167 c 0,25.43 -20.61,46.04 -46.04,46.04 -25.43,0 -46.04,-20.61 -46.04,-46.04 0,-25.43 20.61,-46.04 46.04,-46.04 25.43,0 46.04,20.61 46.04,46.04 z"
                       style="fill:#006633;fill-opacity:0.24706;fill-rule:nonzero;stroke:none"
                       id="path3222" /><path
                       d="m 225.04,167 c 0,25.43 -20.61,46.04 -46.04,46.04 -25.43,0 -46.04,-20.61 -46.04,-46.04 0,-25.43 20.61,-46.04 46.04,-46.04 25.43,0 46.04,20.61 46.04,46.04 z"
                       style="fill:none;stroke:#006633;stroke-width:1.5;stroke-linecap:round;stroke-linejoin:round;stroke-miterlimit:10;stroke-dasharray:none;stroke-opacity:1"
                       id="path3224" /><g
                       id="g3226"
                       transform="scale(19)"><g
                         id="g3228"
                         transform="matrix(0.01,0,0,0.01,8.9474,9.1041)"><path
                           d="m 17.906,-11.5 34.797,-58.406 c 0.667,-1.063 1.531,-1.625 2.594,-1.688 1,0 1.568,0.334 1.703,1 0.062,0.198 0.13,0.662 0.203,1.391 l 6.094,62.4999 c 0.198,1.6666 0.599,2.6666 1.203,3 h 0.094 v 0 0 0 0.1093 c 0.802,0.3334 2.536,0.5 5.203,0.5 1.469,0 2.234,0.3646 2.297,1.0938 0,1.33333 -0.599,2 -1.797,2 L 59.094,-0.29688 H 59 L 46.594,0 H 46.5 c -0.938,0 -1.406,-0.36458 -1.406,-1.0938 0.541,-1.2708 1.344,-1.9374 2.406,-2 4.802,0 7.203,-1.1041 7.203,-3.3124 0,0.0729 -0.536,-5.4898 -1.609,-16.6878 H 28 l -7.594,12.797 C 19.469,-8.6302 19,-7.3958 19,-6.5938 c 0,2.0626 1.568,3.2292 4.703,3.5 1.063,0 1.594,0.3959 1.594,1.1876 C 25.297,-0.63542 24.667,0 23.406,0 L 13.797,-0.29688 H 13.406 L 5,0 H 4.7969 C 3.9323,0 3.5,-0.36458 3.5,-1.0938 3.5,-2.3021 4,-2.9375 5,-3 V -3.0938 H 5.5938 C 9.8021,-3.3646 13.24,-5.1667 15.906,-8.5 c 0.667,-0.8646 1.334,-1.865 2,-3 z m 12,-14.703 h 22.891 l -3.203,-33 z"
                           style="fill:#006633;fill-opacity:1;fill-rule:nonzero;stroke:none"
                           id="path3230" /><g
                           id="g3232"
                           transform="matrix(5.2632,0,0,5.2632,-894.74,-910.41)"><path
                             d="m 329.32,191 c 0,17.3 -14.02,31.32 -31.32,31.32 -17.3,0 -31.32,-14.02 -31.32,-31.32 0,-17.3 14.02,-31.32 31.32,-31.32 17.3,0 31.32,14.02 31.32,31.32 z"
                             style="fill:#0000ff;fill-opacity:0.24706;fill-rule:nonzero;stroke:none"
                             id="path3234" /><path
                             d="m 329.32,191 c 0,17.3 -14.02,31.32 -31.32,31.32 -17.3,0 -31.32,-14.02 -31.32,-31.32 0,-17.3 14.02,-31.32 31.32,-31.32 17.3,0 31.32,14.02 31.32,31.32 z"
                             style="fill:none;stroke:#0000ff;stroke-width:1.5;stroke-linecap:round;stroke-linejoin:round;stroke-miterlimit:10;stroke-dasharray:none;stroke-opacity:0.69804"
                             id="path3236" /><g
                             id="g3238"
                             transform="scale(19)"><g
                               id="g3240"
                               transform="matrix(0.01,0,0,0.01,15.158,10.42)"><path
                                 d="M 16,-7.7969 29.406,-61.5 c 0.261,-1.062 0.391,-1.698 0.391,-1.906 0,-0.792 -0.531,-1.292 -1.594,-1.5 H 28.094 28 c -0.198,0 -0.5,-0.032 -0.906,-0.094 -1.125,-0.135 -2.391,-0.203 -3.797,-0.203 -1.729,0 -2.662,-0.365 -2.797,-1.094 0,-1.198 0.5,-1.864 1.5,-2 h 0.094 0.109 1.203 H 57 c 7.667,0 13.135,2.266 16.406,6.797 1.459,2.135 2.188,4.469 2.188,7 0,5.396 -3,10.094 -9,14.094 -0.063,0 -0.125,0.036 -0.188,0.109 -3.541,2.261 -7.442,3.792 -11.703,4.594 6.802,0.802 11.469,3.469 14,8 1,1.864 1.5,3.901 1.5,6.109 0,4.865 -2.333,9.427 -7,13.6878 l -0.109,0.1093 C 57.365,-2.599 50.531,0 42.594,0 H 6.9062 C 5.2396,0 4.3385,-0.36458 4.2031,-1.0938 c 0,-1.2083 0.5,-1.875 1.5,-2 h 1.2031 c 4.3338,0 6.9328,-0.4687 7.7968,-1.4062 0.396,-0.4688 0.797,-1.401 1.203,-2.7969 0,-0.0729 0.032,-0.2396 0.094,-0.5 z M 31.094,-36.594 h 14.609 c 6.594,0 12.026,-2.401 16.297,-7.203 3,-3.406 4.5,-7.109 4.5,-11.109 0,-4.865 -2,-8.032 -6,-9.5 -1.396,-0.532 -3.031,-0.797 -4.906,-0.797 H 42.703 c -2.406,0 -3.875,0.333 -4.406,1 v 0 0.109 H 38.203 V -64 c -0.271,0.396 -0.573,1.26 -0.906,2.594 z m -4.5,33.5002 h 13.609 c 6.396,0 11.693,-2.401 15.891,-7.2032 3.208,-3.739 4.812,-7.875 4.812,-12.406 0,-4.865 -1.734,-8.297 -5.203,-10.297 -1.739,-0.938 -3.838,-1.406 -6.297,-1.406 H 30.5 L 23.594,-6.5 c -0.334,1.1979 -0.5,1.9635 -0.5,2.2969 0,0.5312 0.302,0.8646 0.906,1 v 0 0 h 0.406 c 0.396,0.0729 1.125,0.1093 2.188,0.1093 z"
                                 style="fill:#0000ff;fill-opacity:1;fill-rule:nonzero;stroke:none"
                                 id="path3242" /><g
                                 id="g3244"
                                 transform="matrix(5.2632,0,0,5.2632,-1515.8,-1042)"><path
                                   d="M 123.57,98.646 V 245.06"
                                   style="fill:none;stroke:#000000;stroke-width:1.5;stroke-linecap:round;stroke-linejoin:round;stroke-miterlimit:10;stroke-dasharray:none;stroke-opacity:0.69804"
                                   id="path3246" /><path
                                   d="M 343.18,245.06 H 123.57"
                                   style="fill:none;stroke:#000000;stroke-width:1.5;stroke-linecap:round;stroke-linejoin:round;stroke-miterlimit:10;stroke-dasharray:none;stroke-opacity:0.69804"
                                   id="path3248" /><path
                                   d="M 343.18,245.06 V 98.646"
                                   style="fill:none;stroke:#000000;stroke-width:1.5;stroke-linecap:round;stroke-linejoin:round;stroke-miterlimit:10;stroke-dasharray:none;stroke-opacity:0.69804"
                                   id="path3250" /><path
                                   d="M 343.18,98.646 H 123.57"
                                   style="fill:none;stroke:#000000;stroke-width:1.5;stroke-linecap:round;stroke-linejoin:round;stroke-miterlimit:10;stroke-dasharray:none;stroke-opacity:0.69804"
                                   id="path3252" /><g
                                   id="g3254"
                                   transform="scale(19)"><g
                                   id="g3256"
                                   transform="matrix(0.01,0,0,0.01,12.526,4.3672)"><path
                                   d="m 63.5,-57.797 -8.906,35.5 c -1.792,7.261 -5.724,13.3282 -11.797,18.2032 -5.261,4.19797 -10.761,6.2969 -16.5,6.2969 -6.594,0 -11.761,-2.302058 -15.5,-6.9062 C 8.0677,-8.0365 6.7031,-12.135 6.7031,-17 c 0,-2 0.2344,-3.932 0.7031,-5.797 L 13.5,-47.5 l 2.203,-8.797 c 1.136,-4.333 1.703,-6.703 1.703,-7.109 0,-0.792 -0.536,-1.292 -1.609,-1.5 h -0.094 -0.109 c -0.198,0 -0.495,-0.032 -0.891,-0.094 -1.135,-0.135 -2.401,-0.203 -3.797,-0.203 -1.7393,0 -2.6768,-0.365 -2.8122,-1.094 0,-1.333 0.6354,-2 1.9062,-2 L 22.797,-68 h 0.109 l 12.688,-0.297 h 0.109 c 0.927,0 1.391,0.365 1.391,1.094 0,1.135 -0.464,1.771 -1.391,1.906 h -0.109 v 0 0 l -0.094,0.094 h -1.797 c -4.073,0 -6.505,0.536 -7.297,1.609 -0.333,0.459 -0.703,1.459 -1.109,3 l -9.703,38.891 c -0.729,2.937 -1.094,5.536 -1.094,7.797 0,5.9372 2.266,9.906 6.797,11.906 1.667,0.7292 3.469,1.09375 5.406,1.09375 5.865,0 11.328,-2.43225 16.391,-7.29685 4.208,-4.0629 7.041,-8.9949 8.5,-14.7969 l 9,-35.703 c 0.208,-0.594 0.312,-1.292 0.312,-2.094 0,-2.864 -2.271,-4.333 -6.812,-4.406 -1.198,0 -1.797,-0.365 -1.797,-1.094 0,-1.333 0.599,-2 1.797,-2 L 64.406,-68 H 64.5 l 9.906,-0.297 h 0.297 c 0.865,0 1.297,0.365 1.297,1.094 0,1.333 -0.568,2 -1.703,2 -5.261,0.198 -8.594,1.797 -10,4.797 -0.261,0.739 -0.526,1.609 -0.797,2.609 z"
                                   style="fill:#000000;fill-opacity:1;fill-rule:nonzero;stroke:none"
                                   id="path3258" /><g
                                   id="g3260"
                                   transform="matrix(5.2632,0,0,5.2632,-1252.6,-436.72)"><path
                                   d="M 275,98.646 217,245.06"
                                   style="fill:none;stroke:#000000;stroke-width:1.5;stroke-linecap:round;stroke-linejoin:round;stroke-miterlimit:10;stroke-dasharray:none;stroke-opacity:0.69804"
                                   id="path3262" /><g
                                   id="g3264"
                                   transform="scale(19)"><g
                                   id="g3266"
                                   transform="matrix(0.01,0,0,0.01,12.105,6.7883)"><path
                                   d="M 76,-69.5 69.703,-44 c -0.333,1.198 -0.667,1.833 -1,1.906 L 68.594,-42 h -0.688 c -1,0 -1.5,-0.333 -1.5,-1 l 0.297,-4.906 v -0.188 c 0,-8.271 -2.599,-13.974 -7.797,-17.109 l -0.109,-0.094 c -2.333,-1.406 -5.068,-2.109 -8.203,-2.109 -7.063,0 -13.761,2.635 -20.094,7.906 -1.604,1.271 -3.036,2.672 -4.297,4.203 -6.333,7.396 -10.234,16.797 -11.703,28.203 -0.271,2.063 -0.406,3.86 -0.406,5.391 0,9.333 3.536,15.6353 10.609,18.9061 2.729,1.2604 5.729,1.89065 9,1.89065 6.261,0 12.391,-2.43225 18.391,-7.29685 C 56.76,-12.13 60.13,-17.396 62.203,-24 c 0.136,-0.667 0.568,-1 1.297,-1 0.802,0 1.203,0.333 1.203,1 0,1.198 -0.765,3.333 -2.297,6.406 -2.073,4.198 -4.974,7.9273 -8.703,11.1878 -6.604,5.73953 -13.807,8.6093 -21.609,8.6093 -8.532,0 -15.365,-2.93227 -20.5,-8.7969 C 7.1979,-11.594 5,-17.797 5,-25.203 c 0,-9.927 3.6354,-19.224 10.906,-27.891 6.729,-8.073 14.693,-13.406 23.891,-16 3.406,-0.937 6.739,-1.406 10,-1.406 7.271,0 12.807,2.969 16.609,8.906 l 7,-7.703 c 0.792,-0.802 1.292,-1.203 1.5,-1.203 0.729,0 1.094,0.333 1.094,1 z"
                                   style="fill:#000000;fill-opacity:1;fill-rule:nonzero;stroke:none"
                                   id="path3268" /><g
                                   id="g3270"
                                   transform="matrix(1.000008,0,0,1.000008,289.512,3.67546)"><path
                                   d="m 44.406,-21.797 v 9.594 C 44.406,-5.6719 40.771,-1.3021 33.5,0.90625 30.833,1.7708 28,2.2031 25,2.2031 c -6.729,0 -11.896,-1.66664 -15.5,-5 C 6.8958,-5.2656 5.5938,-8.401 5.5938,-12.203 v -58.094 c 0,-6.531 3.6354,-10.901 10.9062,-13.109 2.667,-0.865 5.5,-1.297 8.5,-1.297 6.729,0 11.896,1.667 15.5,5 2.604,2.469 3.906,5.604 3.906,9.406 v 9.594 c 0,3.406 -1.333,5.109 -4,5.109 -2.666,0 -4,-1.87 -4,-5.609 v -8.391 c 0,-2 -0.5,-3.437 -1.5,-4.312 -0.604,-0.532 -1.375,-0.995 -2.312,-1.391 -2.261,-0.937 -4.792,-1.406 -7.594,-1.406 -3.198,0 -5.896,0.536 -8.094,1.609 -2.073,1.063 -3.177,2.526 -3.312,4.391 v 1.109 56.688 c 0,2 0.5,3.4372 1.5,4.3122 L 15.203,-8.5 c 0.531,0.4688 1.266,0.901 2.203,1.2969 2.261,0.9375 4.792,1.4062 7.594,1.4062 3.198,0 5.896,-0.5364 8.094,-1.6093 2.073,-1.0626 3.177,-2.5261 3.312,-4.3908 v -1.109 -8.391 c 0,-3.739 1.334,-5.609 4,-5.609 2.667,0 4,1.703 4,5.109 z"
                                   style="fill:#000000;fill-opacity:1;fill-rule:nonzero;stroke:none"
                                   id="path3272" /><g
                                   id="g3274"
                                   transform="matrix(0.7,0,0,0.7,50,15)"><path
                                   d="m 63.5,-57.797 -8.906,35.5 c -1.792,7.261 -5.724,13.3282 -11.797,18.2032 -5.261,4.19797 -10.761,6.2969 -16.5,6.2969 -6.594,0 -11.761,-2.302058 -15.5,-6.9062 C 8.0677,-8.0365 6.7031,-12.135 6.7031,-17 c 0,-2 0.2344,-3.932 0.7031,-5.797 L 13.5,-47.5 l 2.203,-8.797 c 1.136,-4.333 1.703,-6.703 1.703,-7.109 0,-0.792 -0.536,-1.292 -1.609,-1.5 h -0.094 -0.109 c -0.198,0 -0.495,-0.032 -0.891,-0.094 -1.135,-0.135 -2.401,-0.203 -3.797,-0.203 -1.7393,0 -2.6768,-0.365 -2.8122,-1.094 0,-1.333 0.6354,-2 1.9062,-2 L 22.797,-68 h 0.109 l 12.688,-0.297 h 0.109 c 0.927,0 1.391,0.365 1.391,1.094 0,1.135 -0.464,1.771 -1.391,1.906 h -0.109 v 0 0 l -0.094,0.094 h -1.797 c -4.073,0 -6.505,0.536 -7.297,1.609 -0.333,0.459 -0.703,1.459 -1.109,3 l -9.703,38.891 c -0.729,2.937 -1.094,5.536 -1.094,7.797 0,5.9372 2.266,9.906 6.797,11.906 1.667,0.7292 3.469,1.09375 5.406,1.09375 5.865,0 11.328,-2.43225 16.391,-7.29685 4.208,-4.0629 7.041,-8.9949 8.5,-14.7969 l 9,-35.703 c 0.208,-0.594 0.312,-1.292 0.312,-2.094 0,-2.864 -2.271,-4.333 -6.812,-4.406 -1.198,0 -1.797,-0.365 -1.797,-1.094 0,-1.333 0.599,-2 1.797,-2 L 64.406,-68 H 64.5 l 9.906,-0.297 h 0.297 c 0.865,0 1.297,0.365 1.297,1.094 0,1.333 -0.568,2 -1.703,2 -5.261,0.198 -8.594,1.797 -10,4.797 -0.261,0.739 -0.526,1.609 -0.797,2.609 z"
                                   style="fill:#000000;fill-opacity:1;fill-rule:nonzero;stroke:none"
                                   id="path3276" /><g
                                   id="g3278"
                                   transform="matrix(1.4286,0,0,1.4286,79.17444,-21.4105)"><path
                                   d="M 76,-69.5 69.703,-44 c -0.333,1.198 -0.667,1.833 -1,1.906 L 68.594,-42 h -0.688 c -1,0 -1.5,-0.333 -1.5,-1 l 0.297,-4.906 v -0.188 c 0,-8.271 -2.599,-13.974 -7.797,-17.109 l -0.109,-0.094 c -2.333,-1.406 -5.068,-2.109 -8.203,-2.109 -7.063,0 -13.761,2.635 -20.094,7.906 -1.604,1.271 -3.036,2.672 -4.297,4.203 -6.333,7.396 -10.234,16.797 -11.703,28.203 -0.271,2.063 -0.406,3.86 -0.406,5.391 0,9.333 3.536,15.6353 10.609,18.9061 2.729,1.2604 5.729,1.89065 9,1.89065 6.261,0 12.391,-2.43225 18.391,-7.29685 C 56.76,-12.13 60.13,-17.396 62.203,-24 c 0.136,-0.667 0.568,-1 1.297,-1 0.802,0 1.203,0.333 1.203,1 0,1.198 -0.765,3.333 -2.297,6.406 -2.073,4.198 -4.974,7.9273 -8.703,11.1878 -6.604,5.73953 -13.807,8.6093 -21.609,8.6093 -8.532,0 -15.365,-2.93227 -20.5,-8.7969 C 7.1979,-11.594 5,-17.797 5,-25.203 c 0,-9.927 3.6354,-19.224 10.906,-27.891 6.729,-8.073 14.693,-13.406 23.891,-16 3.406,-0.937 6.739,-1.406 10,-1.406 7.271,0 12.807,2.969 16.609,8.906 l 7,-7.703 c 0.792,-0.802 1.292,-1.203 1.5,-1.203 0.729,0 1.094,0.333 1.094,1 z"
                                   style="fill:#000000;fill-opacity:1;fill-rule:nonzero;stroke:none"
                                   id="path3280" /><g
                                   id="g3282"
                                   transform="matrix(5.2632,0,0,5.2632,-1605.4,-682.5)" /></g></g></g></g></g></g></g></g></g></g></g></g></g></g></g></g><g
                   id="g3284"
                   transform="scale(0.56693)" /></g></g></g></g></g></g></g></svg>
