<?xml version="1.0" encoding="UTF-8" standalone="no"?>
<svg
   xmlns:dc="http://purl.org/dc/elements/1.1/"
   xmlns:cc="http://creativecommons.org/ns#"
   xmlns:rdf="http://www.w3.org/1999/02/22-rdf-syntax-ns#"
   xmlns:svg="http://www.w3.org/2000/svg"
   xmlns="http://www.w3.org/2000/svg"
   xmlns:sodipodi="http://sodipodi.sourceforge.net/DTD/sodipodi-0.dtd"
   xmlns:inkscape="http://www.inkscape.org/namespaces/inkscape"
   version="1.1"
   id="svg9866"
   xml:space="preserve"
   width="184"
   height="130.66667"
   viewBox="0 0 184 130.66667"
   sodipodi:docname="2020-1227-1100-crop.pdf"><metadata
     id="metadata9872"><rdf:RDF><cc:Work
         rdf:about=""><dc:format>image/svg+xml</dc:format><dc:type
           rdf:resource="http://purl.org/dc/dcmitype/StillImage" /></cc:Work></rdf:RDF></metadata><defs
     id="defs9870"><clipPath
       clipPathUnits="userSpaceOnUse"
       id="clipPath9884"><path
         d="M 0,0 H 194 V 137 H 0 Z"
         id="path9882" /></clipPath><clipPath
       clipPathUnits="userSpaceOnUse"
       id="clipPath9894"><path
         d="M 0,0 H 194 V 137 H 0 Z"
         id="path9892" /></clipPath><clipPath
       clipPathUnits="userSpaceOnUse"
       id="clipPath9906"><path
         d="M 0,0 V 137 H 194 V 0 Z"
         id="path9904" /></clipPath><clipPath
       clipPathUnits="userSpaceOnUse"
       id="clipPath9916"><path
         d="M 0,0 H 343 V 243 H 0 Z"
         id="path9914" /></clipPath></defs><sodipodi:namedview
     pagecolor="#ffffff"
     bordercolor="#666666"
     borderopacity="1"
     objecttolerance="10"
     gridtolerance="10"
     guidetolerance="10"
     inkscape:pageopacity="0"
     inkscape:pageshadow="2"
     inkscape:window-width="640"
     inkscape:window-height="480"
     id="namedview9868" /><g
     id="g9874"
     inkscape:groupmode="layer"
     inkscape:label="2020-1227-1100-crop"
     transform="matrix(1.3333333,0,0,-1.3333333,0,130.66667)"><g
       id="g9876"
       transform="translate(-28,-19)"><g
         id="g9878"><g
           id="g9880"
           clip-path="url(#clipPath9884)"><g
             id="g9886"
             transform="matrix(0.70803,0,0,-0.70803,28.321,117)"><g
               id="g9888"><g
                 id="g9890"
                 clip-path="url(#clipPath9894)"><g
                   id="g9896"><g
                     id="g9898" /></g><g
                   id="g9900"><g
                     id="g9902"
                     clip-path="url(#clipPath9906)"><g
                       id="g9908"
                       transform="scale(0.56693)" /></g></g><g
                   id="g9910"
                   transform="scale(0.56693)"><g
                     id="g9912"
                     clip-path="url(#clipPath9916)"><path
                       d="M 0,0 H 343 V 243 H 0 Z"
                       style="fill:#ffffff;fill-opacity:1;fill-rule:nonzero;stroke:none"
                       id="path9918" /><path
                       d="M 170.7,2 V 243"
                       style="fill:none;stroke:#000000;stroke-width:1;stroke-linecap:butt;stroke-linejoin:miter;stroke-miterlimit:10;stroke-dasharray:none;stroke-opacity:1"
                       id="path9920" /><path
                       d="m 170.7,1 -4,4"
                       style="fill:none;stroke:#000000;stroke-width:1;stroke-linecap:butt;stroke-linejoin:miter;stroke-miterlimit:10;stroke-dasharray:none;stroke-opacity:1"
                       id="path9922" /><path
                       d="m 170.7,1 4,4"
                       style="fill:none;stroke:#000000;stroke-width:1;stroke-linecap:butt;stroke-linejoin:miter;stroke-miterlimit:10;stroke-dasharray:none;stroke-opacity:1"
                       id="path9924" /><path
                       d="m 325.12,119 3.04,-4.31 -2.82,-3.99 h 1.77 l 1.27,1.94 c 0.23,0.38 0.43,0.69 0.57,0.94 0.23,-0.35 0.45,-0.65 0.64,-0.92 l 1.39,-1.96 h 1.69 l -2.87,3.91 3.09,4.39 h -1.73 l -1.71,-2.58 -0.45,-0.7 -2.17,3.28 z"
                       style="fill:#000000;fill-opacity:1;fill-rule:nonzero;stroke:none"
                       id="path9926" /><path
                       d="M 0,123.98 H 341"
                       style="fill:none;stroke:#000000;stroke-width:1;stroke-linecap:butt;stroke-linejoin:miter;stroke-miterlimit:10;stroke-dasharray:none;stroke-opacity:1"
                       id="path9928" /><path
                       d="m 342,123.98 -4,-4"
                       style="fill:none;stroke:#000000;stroke-width:1;stroke-linecap:butt;stroke-linejoin:miter;stroke-miterlimit:10;stroke-dasharray:none;stroke-opacity:1"
                       id="path9930" /><path
                       d="m 342,123.98 -4,4"
                       style="fill:none;stroke:#000000;stroke-width:1;stroke-linecap:butt;stroke-linejoin:miter;stroke-miterlimit:10;stroke-dasharray:none;stroke-opacity:1"
                       id="path9932" /><path
                       d="m 176,24.203 -0.16,-1.328 c 0.31,0.083 0.57,0.125 0.8,0.125 0.31,0 0.56,-0.052 0.75,-0.156 0.19,-0.104 0.34,-0.25 0.47,-0.438 0.08,-0.135 0.22,-0.484 0.42,-1.047 0.03,-0.073 0.07,-0.187 0.13,-0.343 l -3.14,-8.313 h 1.51 l 1.72,4.797 c 0.23,0.615 0.43,1.255 0.61,1.922 0.16,-0.646 0.35,-1.276 0.58,-1.891 l 1.76,-4.828 h 1.41 l -3.16,8.438 c -0.33,0.916 -0.59,1.547 -0.78,1.89 -0.25,0.459 -0.53,0.797 -0.86,1.016 -0.32,0.219 -0.71,0.328 -1.15,0.328 -0.27,0 -0.58,-0.057 -0.91,-0.172 z"
                       style="fill:#000000;fill-opacity:1;fill-rule:nonzero;stroke:none"
                       id="path9934" /><path
                       d="m 48.234,249.44 2.68,-1.91 2.68,-1.89 2.679,-1.86 2.68,-1.83 2.68,-1.8 2.679,-1.78 2.68,-1.74 2.68,-1.72 2.68,-1.7 2.679,-1.67 2.68,-1.64 2.68,-1.62 2.679,-1.59 2.68,-1.57 2.68,-1.55 2.679,-1.52 2.68,-1.5 2.68,-1.47 2.679,-1.46 2.682,-1.43 2.68,-1.41 2.68,-1.38 2.68,-1.37 2.68,-1.34 2.68,-1.33 2.68,-1.3 2.68,-1.29 2.68,-1.26 2.68,-1.25 2.67,-1.22 2.68,-1.21 2.68,-1.19 2.68,-1.17 2.68,-1.16 2.68,-1.13 2.68,-1.12 2.68,-1.1 2.68,-1.09 2.68,-1.06 2.68,-1.05 2.68,-1.04 2.68,-1.02 2.68,-1 2.68,-0.99 2.68,-0.98 1.34,-0.48 0.5,-0.18 M 170.7,61.899 v 0.002 l 0.8,0.283 2.68,0.944 2.68,0.93 2.68,0.915 2.68,0.902 2.68,0.887 2.68,0.874 2.68,0.861 2.68,0.848 2.68,0.834 2.68,0.822 2.68,0.81 2.68,0.797 2.68,0.785 2.68,0.773 2.68,0.761 2.68,0.749 2.67,0.738 2.68,0.727 2.68,0.715 2.68,0.705 2.68,0.694 2.68,0.683 2.68,0.673 2.68,0.662 2.68,0.653 2.68,0.642 2.68,0.633 2.68,0.623 2.68,0.614 2.68,0.604 2.68,0.595 2.68,0.585 2.68,0.577 2.68,0.568 2.68,0.56 2.68,0.55 2.68,0.543 2.68,0.534 2.68,0.526 2.68,0.518 2.68,0.51 2.68,0.502 2.68,0.494 2.68,0.487 2.68,0.48 2.68,0.472 2.68,0.465 2.67,0.458 2.68,0.451 2.68,0.444 2.68,0.437 2.68,0.431 2.68,0.424 2.68,0.417 2.68,0.411 2.68,0.405 2.68,0.399 2.68,0.392 2.68,0.387 2.68,0.38 2.68,0.375 2.68,0.371 2.68,0.36 2.68,0.36"
                       style="fill:none;stroke:#0000ff;stroke-width:1.5;stroke-linecap:round;stroke-linejoin:round;stroke-miterlimit:10;stroke-dasharray:none;stroke-opacity:1"
                       id="path9936" /><path
                       d="m 42.875,-5.4091 2.68,1.9767 2.679,1.9466 2.68,1.91681 2.68,1.88749 2.679,1.8587 2.68,1.8303 2.68,1.8024 2.679,1.7748 2.68,1.7473 2.68,1.721 2.68,1.695 2.679,1.669 2.68,1.643 2.68,1.618 2.679,1.594 2.68,1.569 m 0,0 2.68,1.545 2.679,1.522 2.68,1.498 2.68,1.475 2.679,1.453 2.682,1.431 2.68,1.409 2.68,1.387 2.68,1.366 2.68,1.345 2.68,1.325 2.68,1.305 2.68,1.284 2.68,1.265 2.68,1.245 2.67,1.227 m 0,0 2.68,1.208 2.68,1.189 2.68,1.171 2.68,1.154 2.68,1.135 2.68,1.119 2.68,1.101 2.68,1.084 m 0,0 2.68,1.068 2.68,1.052 2.68,1.035 2.68,1.02 m 0,0 2.68,1.004 2.68,0.988 m 0,0 2.68,0.974 m 0,0 1.88,0.673"
                       style="fill:none;stroke:#ff5500;stroke-width:1.5;stroke-linecap:butt;stroke-linejoin:round;stroke-miterlimit:10;stroke-dasharray:5.5, 4;stroke-dashoffset:0;stroke-opacity:1"
                       id="path9938" /><path
                       d="m 173.7,61.898 c 0,1.657 -1.35,3 -3,3 -1.66,0 -3,-1.343 -3,-3 0,-1.657 1.34,-3 3,-3 1.65,0 3,1.343 3,3 z"
                       style="fill:#ffffff;fill-opacity:1;fill-rule:nonzero;stroke:none"
                       id="path9940" /><path
                       d="m 173.7,61.898 c 0,1.657 -1.35,3 -3,3 -1.66,0 -3,-1.343 -3,-3 0,-1.657 1.34,-3 3,-3 1.65,0 3,1.343 3,3 z"
                       style="fill:none;stroke:#000000;stroke-width:1;stroke-linecap:round;stroke-linejoin:round;stroke-miterlimit:10;stroke-dasharray:none;stroke-opacity:1"
                       id="path9942" /><path
                       d="m 174.97,56 4.41,-11.453 h 1.64 L 185.7,56 h -1.73 l -1.33,-3.469 h -4.8 L 176.59,56 Z m 3.31,-4.703 h 3.89 l -1.2,-3.172 c -0.37,-0.969 -0.64,-1.76 -0.81,-2.375 -0.15,0.729 -0.35,1.458 -0.61,2.188 z"
                       style="fill:#ffffff;fill-opacity:1;fill-rule:nonzero;stroke:none"
                       id="path9944" /><path
                       d="m 173.7,186.06 c 0,1.66 -1.35,3 -3,3 -1.66,0 -3,-1.34 -3,-3 0,-1.66 1.34,-3 3,-3 1.65,0 3,1.34 3,3 z"
                       style="fill:#ffffff;fill-opacity:1;fill-rule:nonzero;stroke:none"
                       id="path9946" /><path
                       d="m 173.7,186.06 c 0,1.66 -1.35,3 -3,3 -1.66,0 -3,-1.34 -3,-3 0,-1.66 1.34,-3 3,-3 1.65,0 3,1.34 3,3 z"
                       style="fill:none;stroke:#000000;stroke-width:1;stroke-linecap:round;stroke-linejoin:round;stroke-miterlimit:10;stroke-dasharray:none;stroke-opacity:1"
                       id="path9948" /><path
                       d="m 176.17,180 v -11.45 h 4.3 c 0.87,0 1.58,0.11 2.11,0.34 0.53,0.23 0.94,0.59 1.24,1.07 0.3,0.49 0.45,0.99 0.45,1.51 0,0.49 -0.14,0.95 -0.4,1.38 -0.27,0.43 -0.67,0.79 -1.2,1.06 0.69,0.19 1.22,0.54 1.6,1.03 0.37,0.49 0.56,1.07 0.56,1.73 0,0.54 -0.12,1.04 -0.35,1.5 -0.22,0.46 -0.51,0.81 -0.84,1.06 -0.33,0.25 -0.75,0.44 -1.25,0.57 -0.5,0.13 -1.11,0.2 -1.84,0.2 z m 1.52,-6.64 h 2.48 c 0.67,0 1.15,-0.05 1.44,-0.14 0.38,-0.12 0.68,-0.31 0.87,-0.57 0.2,-0.27 0.3,-0.6 0.3,-0.99 0,-0.39 -0.09,-0.73 -0.27,-1.01 -0.18,-0.29 -0.44,-0.49 -0.78,-0.6 -0.34,-0.1 -0.92,-0.16 -1.75,-0.16 h -2.29 z m 0,5.28 h 2.86 c 0.49,0 0.83,-0.02 1.03,-0.05 0.34,-0.06 0.63,-0.16 0.87,-0.31 0.23,-0.14 0.42,-0.36 0.57,-0.64 0.15,-0.28 0.23,-0.6 0.23,-0.97 0,-0.43 -0.11,-0.79 -0.33,-1.11 -0.22,-0.31 -0.52,-0.53 -0.9,-0.66 -0.39,-0.13 -0.95,-0.2 -1.68,-0.2 h -2.65 z"
                       style="fill:#ffffff;fill-opacity:1;fill-rule:nonzero;stroke:none"
                       id="path9950" /><g
                       id="g9952"
                       transform="scale(19)"><g
                         id="g9954"
                         transform="matrix(0.01,0,0,0.01,11.263,3.2885)"><path
                           d="M 48.594,-38.094 39,0.09375 C 37.396,6.6354 33.828,11.938 28.297,16 24.234,19 20,20.5 15.594,20.5 11.135,20.5 7.9688,18.969 6.0938,15.906 5.3646,14.635 5,13.266 5,11.797 5,8.401 6.3646,6.3021 9.0938,5.5 9.6354,5.3646 10.135,5.2969 10.594,5.2969 c 2.135,0 3.338,0.9323 3.609,2.7969 0.063,0.2083 0.094,0.4427 0.094,0.7031 0,1.5311 -0.667,2.9011 -2,4.1091 -0.927,0.792 -2.3595,1.188 -4.297,1.188 1.1979,2.802 3.729,4.203 7.594,4.203 4.135,0 7.802,-2.099 11,-6.297 2.604,-3.4688 4.672,-8.1667 6.203,-14.0938 0.073,-0.2708 0.172,-0.7083 0.297,-1.3124 -3,2.99995 -6.365,4.5 -10.094,4.5 -5.333,0 -8.969,-1.96359 -10.906,-5.8907 -0.865,-1.7396 -1.297,-3.7396 -1.297,-6.0001 0,-3.667 1.765,-10.234 5.297,-19.703 0.135,-0.396 0.302,-0.828 0.5,-1.297 1.135,-3.073 1.703,-5.406 1.703,-7 0,-2.135 -0.833,-3.203 -2.5,-3.203 -3.667,0 -6.6668,3.031 -9.0001,9.094 v 0.109 c -0.3959,1 -0.7604,2.068 -1.0938,3.203 -0.7396,1.125 -1.276,1.724 -1.6093,1.797 -0.7917,0 -1.1876,-0.333 -1.1876,-1 0,-1.198 0.698,-3.297 2.0938,-6.297 2.9375,-6.073 6.635,-9.109 11.094,-9.109 3.541,0 6.01,1.5 7.406,4.5 0.531,1.135 0.797,2.37 0.797,3.703 0,1.396 -0.667,3.797 -2,7.203 -3.396,8.802 -5.094,15.333 -5.094,19.5939 0,5.4062 2.068,8.1093 6.203,8.1093 3.865,0 7.229,-2.0677 10.094,-6.2031 0.667,-1 1.068,-1.7656 1.203,-2.2969 l 4.5,-18.0002 c 0.469,-2.208 1.136,-4.875 2,-8 0.667,-2.875 1.13,-4.677 1.391,-5.406 0.875,-1.396 2.041,-2.094 3.5,-2.094 1.666,0.334 2.635,1.229 2.906,2.688 0,0.604 -0.135,1.375 -0.406,2.312 z"
                           style="fill:#0000ff;fill-opacity:1;fill-rule:nonzero;stroke:none"
                           id="path9956" /><g
                           id="g9958"
                           transform="translate(80.4)"><path
                             d="M 68.703,-32.703 H 9 c -2.1354,0 -3.2708,-0.667 -3.4062,-2 0,-1.333 1.1041,-2 3.3124,-2 H 68.797 c 2.135,0 3.234,0.667 3.297,2 0,1.333 -1.13,2 -3.391,2 z m 0.094,19.406 H 8.9062 c -2.1354,0 -3.2395,-0.667 -3.3124,-2 0,-1.333 1.1354,-2 3.4062,-2 h 59.703 c 2.136,0 3.266,0.667 3.391,2 0,1.333 -1.099,2 -3.297,2 z"
                             style="fill:#0000ff;fill-opacity:1;fill-rule:nonzero;stroke:none"
                             id="path9960" /><g
                             id="g9962"
                             transform="translate(111.9,-67.65)"><path
                               d="M 33.406,-30.203 30,-16.5 c -1.135,4.531 -1.703,7.4635 -1.703,8.7969 0,3.4687 1.234,5.5677 3.703,6.2969 0.531,0.2083 1.13,0.3124 1.797,0.3124 3.333,0 6.37,-1.6666 9.109,-5 1.792,-2.1354 3.188,-4.8382 4.188,-8.1092 0.208,-0.729 0.646,-1.094 1.312,-1.094 0.792,0 1.188,0.333 1.188,1 0,1.667 -1.032,4.068 -3.094,7.2032 -3.604,5.4584 -7.906,8.1876 -12.906,8.1876 -4.532,0 -7.828,-1.89588 -9.891,-5.6876 -0.406,-0.6041 -0.708,-1.2395 -0.906,-1.9062 -1.594,3.1979 -3.792,5.4323 -6.594,6.70312 -1.271,0.59376 -2.573,0.89068 -3.906,0.89068 -4.0001,0 -6.797,-1.166717 -8.3908,-3.5 -0.6666,-0.8646 -1,-1.8959 -1,-3.0938 0,-2.4688 1.0626,-4.2031 3.1876,-5.203 0.7395,-0.396 1.5104,-0.594 2.3124,-0.594 1.9998,0 3.1978,0.833 3.5938,2.5001 0.062,0.3334 0.094,0.6667 0.094,1 0,2.2604 -1.13,3.9271 -3.3909,5 -0.4062,0.1979 -0.8385,0.3281 -1.2969,0.3907 1.3959,0.875 3.0628,1.3124 4.9998,1.3124 3.532,0 6.328,-2.3697 8.391,-7.1093 0.406,-1 0.776,-2.0989 1.109,-3.2969 3.594,-13.604 5.391,-21.536 5.391,-23.797 -0.396,-4.135 -2.193,-6.37 -5.391,-6.703 -3.468,0 -6.635,1.766 -9.5,5.297 v 0.109 c 0,0.063 -0.036,0.094 -0.109,0.094 -1,1.333 -1.901,2.865 -2.7032,4.594 -0.3334,0.802 -0.6303,1.604 -0.8907,2.406 L 8.5,-28.906 c -0.1354,0.739 -0.5677,1.109 -1.2969,1.109 -0.8021,0 -1.2031,-0.333 -1.2031,-1 0,-1.667 1.0677,-4.068 3.2031,-7.203 3.5939,-5.469 7.8909,-8.203 12.8909,-8.203 5.135,0 8.739,2.536 10.812,7.609 2.125,-4.135 4.959,-6.604 8.5,-7.406 0.667,-0.135 1.334,-0.203 2,-0.203 3.927,0 6.693,1.099 8.297,3.297 0.667,0.937 1,2.041 1,3.312 0,2.729 -1.234,4.563 -3.703,5.5 -0.604,0.198 -1.172,0.297 -1.703,0.297 -2.063,0 -3.297,-0.901 -3.703,-2.703 -0.063,-0.271 -0.094,-0.536 -0.094,-0.797 0,-2 0.969,-3.568 2.906,-4.703 0.594,-0.333 1.224,-0.568 1.891,-0.703 -1.396,-0.865 -3.063,-1.297 -5,-1.297 -4.531,0 -7.729,3.531 -9.594,10.594 -0.135,0.406 -0.234,0.807 -0.297,1.203 z"
                               style="fill:#0000ff;fill-opacity:1;fill-rule:nonzero;stroke:none"
                               id="path9964" /><g
                               id="g9966"
                               transform="translate(57.2)"><path
                                 d="m 37.297,-37.797 c 0.333,-2.271 1.37,-3.672 3.109,-4.203 0.334,-0.135 0.698,-0.203 1.094,-0.203 1.729,0 2.698,0.901 2.906,2.703 0,0.396 -0.234,1.531 -0.703,3.406 l -3.609,14 c -1,4.198 -1.729,7.198 -2.188,9 -0.875,3.4586 -1.312,5.9221 -1.312,7.3909 0,3.0729 1,4.6093 3,4.6093 2.541,0 4.677,-2.6666 6.406,-8 0.333,-1.1352 0.734,-2.6042 1.203,-4.4062 0.531,-1.135 0.995,-1.734 1.391,-1.797 0.802,0 1.203,0.333 1.203,1 0,1 -0.599,3.333 -1.797,7.0001 -0.396,1.1354 -0.797,2.099 -1.203,2.8907 -1.865,3.66662 -4.328,5.5 -7.391,5.5 -3.739,0 -6.442,-1.59901 -8.109,-4.7969 -0.469,-0.8021 -0.802,-1.7031 -1,-2.7031 -4.198,5 -8.531,7.5 -13,7.5 -5,0 -8.698,-2.2657 -11.0939,-6.7969 C 4.7344,-8.3698 4,-11.438 4,-14.906 c 0,-7.198 2.5,-13.865 7.5,-20 4.667,-5.594 9.734,-8.656 15.203,-9.188 0.469,-0.073 0.932,-0.109 1.391,-0.109 4.073,0 7.14,2.135 9.203,6.406 z m -6.5,25.891 v 0 l 5,-19.594 c 0.198,-1 0.297,-1.568 0.297,-1.703 0,-1.396 -0.599,-3.094 -1.797,-5.094 -1.469,-2.469 -3.5,-3.703 -6.094,-3.703 -3.469,0 -6.771,2.266 -9.906,6.797 -0.594,0.864 -1.162,1.797 -1.703,2.797 -1.927,3.875 -3.558,9.375 -4.891,16.5 -0.406,2.271 -0.609,4.073 -0.609,5.406 0,4.5312 1.271,7.4635 3.812,8.7969 0.729,0.4062 1.594,0.6093 2.594,0.6093 3.729,0 7.495,-2.3697 11.297,-7.1093 0.937,-1.0625 1.573,-2.1619 1.906,-3.2969 v -0.094 c 0.063,-0.135 0.094,-0.239 0.094,-0.312 z"
                                 style="fill:#0000ff;fill-opacity:1;fill-rule:nonzero;stroke:none"
                                 id="path9968" /><g
                                 id="g9970"
                                 transform="matrix(0.7,0,0,0.7,52.9,-36.29)"><path
                                   d="M 33.406,-30.203 30,-16.5 c -1.135,4.531 -1.703,7.4635 -1.703,8.7969 0,3.4687 1.234,5.5677 3.703,6.2969 0.531,0.2083 1.13,0.3124 1.797,0.3124 3.333,0 6.37,-1.6666 9.109,-5 1.792,-2.1354 3.188,-4.8382 4.188,-8.1092 0.208,-0.729 0.646,-1.094 1.312,-1.094 0.792,0 1.188,0.333 1.188,1 0,1.667 -1.032,4.068 -3.094,7.2032 -3.604,5.4584 -7.906,8.1876 -12.906,8.1876 -4.532,0 -7.828,-1.89588 -9.891,-5.6876 -0.406,-0.6041 -0.708,-1.2395 -0.906,-1.9062 -1.594,3.1979 -3.792,5.4323 -6.594,6.70312 -1.271,0.59376 -2.573,0.89068 -3.906,0.89068 -4.0001,0 -6.797,-1.166717 -8.3908,-3.5 -0.6666,-0.8646 -1,-1.8959 -1,-3.0938 0,-2.4688 1.0626,-4.2031 3.1876,-5.203 0.7395,-0.396 1.5104,-0.594 2.3124,-0.594 1.9998,0 3.1978,0.833 3.5938,2.5001 0.062,0.3334 0.094,0.6667 0.094,1 0,2.2604 -1.13,3.9271 -3.3909,5 -0.4062,0.1979 -0.8385,0.3281 -1.2969,0.3907 1.3959,0.875 3.0628,1.3124 4.9998,1.3124 3.532,0 6.328,-2.3697 8.391,-7.1093 0.406,-1 0.776,-2.0989 1.109,-3.2969 3.594,-13.604 5.391,-21.536 5.391,-23.797 -0.396,-4.135 -2.193,-6.37 -5.391,-6.703 -3.468,0 -6.635,1.766 -9.5,5.297 v 0.109 c 0,0.063 -0.036,0.094 -0.109,0.094 -1,1.333 -1.901,2.865 -2.7032,4.594 -0.3334,0.802 -0.6303,1.604 -0.8907,2.406 L 8.5,-28.906 c -0.1354,0.739 -0.5677,1.109 -1.2969,1.109 -0.8021,0 -1.2031,-0.333 -1.2031,-1 0,-1.667 1.0677,-4.068 3.2031,-7.203 3.5939,-5.469 7.8909,-8.203 12.8909,-8.203 5.135,0 8.739,2.536 10.812,7.609 2.125,-4.135 4.959,-6.604 8.5,-7.406 0.667,-0.135 1.334,-0.203 2,-0.203 3.927,0 6.693,1.099 8.297,3.297 0.667,0.937 1,2.041 1,3.312 0,2.729 -1.234,4.563 -3.703,5.5 -0.604,0.198 -1.172,0.297 -1.703,0.297 -2.063,0 -3.297,-0.901 -3.703,-2.703 -0.063,-0.271 -0.094,-0.536 -0.094,-0.797 0,-2 0.969,-3.568 2.906,-4.703 0.594,-0.333 1.224,-0.568 1.891,-0.703 -1.396,-0.865 -3.063,-1.297 -5,-1.297 -4.531,0 -7.729,3.531 -9.594,10.594 -0.135,0.406 -0.234,0.807 -0.297,1.203 z"
                                   style="fill:#0000ff;fill-opacity:1;fill-rule:nonzero;stroke:none"
                                   id="path9972" /><g
                                   id="g9974"
                                   transform="matrix(142.86,0,0,142.86,-2040.9,-321.3)"><path
                                   d="m 13.186,3.0185 h 1.527 v 0.04 h -1.527 z"
                                   style="fill:#0000ff;fill-opacity:1;fill-rule:nonzero;stroke:none"
                                   id="path9976" /><g
                                   id="g9978"
                                   transform="matrix(0.01,0,0,0.01,13.385,3.9744)"><path
                                   d="m 15.906,-71.703 v 93.406 c 0,2.136 -0.666,3.235 -2,3.297 -1.333,0 -2,-1.099 -2,-3.297 v -93.406 c 0,-2.136 0.667,-3.235 2,-3.297 1.334,0 2,1.099 2,3.297 z"
                                   style="fill:#0000ff;fill-opacity:1;fill-rule:nonzero;stroke:none"
                                   id="path9980" /><g
                                   id="g9982"
                                   transform="translate(27.8)"><path
                                   d="M 33.406,-30.203 30,-16.5 c -1.135,4.531 -1.703,7.4635 -1.703,8.7969 0,3.4687 1.234,5.5677 3.703,6.2969 0.531,0.2083 1.13,0.3124 1.797,0.3124 3.333,0 6.37,-1.6666 9.109,-5 1.792,-2.1354 3.188,-4.8382 4.188,-8.1092 0.208,-0.729 0.646,-1.094 1.312,-1.094 0.792,0 1.188,0.333 1.188,1 0,1.667 -1.032,4.068 -3.094,7.2032 -3.604,5.4584 -7.906,8.1876 -12.906,8.1876 -4.532,0 -7.828,-1.89588 -9.891,-5.6876 -0.406,-0.6041 -0.708,-1.2395 -0.906,-1.9062 -1.594,3.1979 -3.792,5.4323 -6.594,6.70312 -1.271,0.59376 -2.573,0.89068 -3.906,0.89068 -4.0001,0 -6.797,-1.166717 -8.3908,-3.5 -0.6666,-0.8646 -1,-1.8959 -1,-3.0938 0,-2.4688 1.0626,-4.2031 3.1876,-5.203 0.7395,-0.396 1.5104,-0.594 2.3124,-0.594 1.9998,0 3.1978,0.833 3.5938,2.5001 0.062,0.3334 0.094,0.6667 0.094,1 0,2.2604 -1.13,3.9271 -3.3909,5 -0.4062,0.1979 -0.8385,0.3281 -1.2969,0.3907 1.3959,0.875 3.0628,1.3124 4.9998,1.3124 3.532,0 6.328,-2.3697 8.391,-7.1093 0.406,-1 0.776,-2.0989 1.109,-3.2969 3.594,-13.604 5.391,-21.536 5.391,-23.797 -0.396,-4.135 -2.193,-6.37 -5.391,-6.703 -3.468,0 -6.635,1.766 -9.5,5.297 v 0.109 c 0,0.063 -0.036,0.094 -0.109,0.094 -1,1.333 -1.901,2.865 -2.7032,4.594 -0.3334,0.802 -0.6303,1.604 -0.8907,2.406 L 8.5,-28.906 c -0.1354,0.739 -0.5677,1.109 -1.2969,1.109 -0.8021,0 -1.2031,-0.333 -1.2031,-1 0,-1.667 1.0677,-4.068 3.2031,-7.203 3.5939,-5.469 7.8909,-8.203 12.8909,-8.203 5.135,0 8.739,2.536 10.812,7.609 2.125,-4.135 4.959,-6.604 8.5,-7.406 0.667,-0.135 1.334,-0.203 2,-0.203 3.927,0 6.693,1.099 8.297,3.297 0.667,0.937 1,2.041 1,3.312 0,2.729 -1.234,4.563 -3.703,5.5 -0.604,0.198 -1.172,0.297 -1.703,0.297 -2.063,0 -3.297,-0.901 -3.703,-2.703 -0.063,-0.271 -0.094,-0.536 -0.094,-0.797 0,-2 0.969,-3.568 2.906,-4.703 0.594,-0.333 1.224,-0.568 1.891,-0.703 -1.396,-0.865 -3.063,-1.297 -5,-1.297 -4.531,0 -7.729,3.531 -9.594,10.594 -0.135,0.406 -0.234,0.807 -0.297,1.203 z"
                                   style="fill:#0000ff;fill-opacity:1;fill-rule:nonzero;stroke:none"
                                   id="path9984" /><g
                                   id="g9986"
                                   transform="translate(57.2)"><path
                                   d="m 15.906,-71.703 v 93.406 c 0,2.136 -0.666,3.235 -2,3.297 -1.333,0 -2,-1.099 -2,-3.297 v -93.406 c 0,-2.136 0.667,-3.235 2,-3.297 1.334,0 2,1.099 2,3.297 z"
                                   style="fill:#0000ff;fill-opacity:1;fill-rule:nonzero;stroke:none"
                                   id="path9988" /><g
                                   id="g9990"
                                   transform="matrix(5.2632,0,0,5.2632,-1423.5,-397.44)"><path
                                   d="m 173.7,123.98 c 0,1.66 -1.35,3 -3,3 -1.66,0 -3,-1.34 -3,-3 0,-1.66 1.34,-3 3,-3 1.65,0 3,1.34 3,3 z"
                                   style="fill:#000000;fill-opacity:1;fill-rule:nonzero;stroke:none"
                                   id="path9992" /><g
                                   id="g9994"
                                   transform="scale(19)"><g
                                   id="g9996"
                                   transform="matrix(0.01,0,0,0.01,7.8947,7.6304)"><path
                                   d="m 74,-43.594 v 0 C 74,-33.26 70.333,-23.698 63,-14.906 56.396,-6.9062 48.661,-1.6354 39.797,0.90625 36.661,1.7708 33.562,2.2031 30.5,2.2031 22.167,2.2031 15.599,-0.72917 10.797,-6.5938 6.8698,-11.396 4.9062,-17.365 4.9062,-24.5 c 0,-10 3.5626,-19.469 10.6878,-28.406 6.604,-8.063 14.338,-13.427 23.203,-16.094 3.271,-1 6.505,-1.5 9.703,-1.5 8.469,0 15.104,3.068 19.906,9.203 3.729,4.802 5.594,10.703 5.594,17.703 z M 31.094,-0.40625 v 0 c 6.271,0 12.307,-2.79685 18.109,-8.39065 1.198,-1.1354 2.297,-2.3381 3.297,-3.6091 6.531,-8.125 10.562,-17.823 12.094,-29.094 0.333,-2.198 0.5,-4.198 0.5,-6 0,-9.135 -3.063,-15.333 -9.188,-18.594 -0.073,0 -0.14,-0.036 -0.203,-0.109 C 53.297,-67.401 50.698,-68 47.906,-68 c -6.271,0 -12.338,2.698 -18.203,8.094 -2.406,2.135 -4.542,4.635 -6.406,7.5 -5.063,7.666 -8.026,16.833 -8.891,27.5 -0.135,1.208 -0.203,2.276 -0.203,3.203 0,8.531 2.568,14.6665 7.703,18.4061 2.667,1.9271 5.729,2.89065 9.188,2.89065 z"
                                   style="fill:#000000;fill-opacity:1;fill-rule:nonzero;stroke:none"
                                   id="path9998" /><g
                                   id="g10000"
                                   transform="matrix(1.000008,0,0,1.000008,26.326526,-351.26671)"><path
                                   d="m 29.406,-64 v 56.0938 c 0,2 0.396,3.2708 1.188,3.8124 1.135,0.6667 3.838,1 8.109,1 h 3.203 V 0 C 39.573,-0.19792 34.172,-0.29688 25.703,-0.29688 17.234,-0.29688 11.833,-0.19792 9.5,0 v -3.0938 h 3.203 c 5.136,0 8.068,-0.6041 8.797,-1.8124 L 21.594,-5 C 21.865,-5.5312 22,-6.5 22,-7.9062 V -59.703 c -3.469,1.739 -7.833,2.609 -13.0938,2.609 v -3.109 c 7.9998,0 14.0628,-2.13 18.1878,-6.391 1.271,0 2.005,0.229 2.203,0.688 v 0 0.109 c 0.073,0.198 0.109,0.797 0.109,1.797 z"
                                   style="fill:#000000;fill-opacity:1;fill-rule:nonzero;stroke:none"
                                   id="path10002" /><g
                                   id="g10004"
                                   transform="matrix(1.000008,0,0,1.000008,147.37771,589.43801)"><path
                                   d="m 66.094,-23 h -54.5 c -2.1252,0 -3.2242,-0.667 -3.2971,-2 0,-1.333 1.0989,-2 3.2971,-2 h 54.5 c 2.135,0 3.239,0.667 3.312,2 0,1.333 -1.104,2 -3.312,2 z"
                                   style="fill:#000000;fill-opacity:1;fill-rule:nonzero;stroke:none"
                                   id="path10006" /><g
                                   id="g10008"
                                   transform="translate(77.84)"><path
                                   d="m 29.406,-64 v 56.0938 c 0,2 0.396,3.2708 1.188,3.8124 1.135,0.6667 3.838,1 8.109,1 h 3.203 V 0 C 39.573,-0.19792 34.172,-0.29688 25.703,-0.29688 17.234,-0.29688 11.833,-0.19792 9.5,0 v -3.0938 h 3.203 c 5.136,0 8.068,-0.6041 8.797,-1.8124 L 21.594,-5 C 21.865,-5.5312 22,-6.5 22,-7.9062 V -59.703 c -3.469,1.739 -7.833,2.609 -13.0938,2.609 v -3.109 c 7.9998,0 14.0628,-2.13 18.1878,-6.391 1.271,0 2.005,0.229 2.203,0.688 v 0 0.109 c 0.073,0.198 0.109,0.797 0.109,1.797 z"
                                   style="fill:#000000;fill-opacity:1;fill-rule:nonzero;stroke:none"
                                   id="path10010" /><g
                                   id="g10012"
                                   transform="matrix(5.2632,0,0,5.2632,-1041,-1001.2)" /></g></g></g></g></g></g></g></g></g></g></g></g></g></g></g></g></g></g><g
                   id="g10014"
                   transform="scale(0.56693)" /></g></g></g></g></g></g></g></svg>
