<?xml version="1.0" encoding="UTF-8" standalone="no"?>
<svg
   xmlns:dc="http://purl.org/dc/elements/1.1/"
   xmlns:cc="http://creativecommons.org/ns#"
   xmlns:rdf="http://www.w3.org/1999/02/22-rdf-syntax-ns#"
   xmlns:svg="http://www.w3.org/2000/svg"
   xmlns="http://www.w3.org/2000/svg"
   xmlns:sodipodi="http://sodipodi.sourceforge.net/DTD/sodipodi-0.dtd"
   xmlns:inkscape="http://www.inkscape.org/namespaces/inkscape"
   version="1.1"
   id="svg10886"
   xml:space="preserve"
   width="132"
   height="125.33333"
   viewBox="0 0 132 125.33333"
   sodipodi:docname="2020-1227-1330-crop.pdf"><metadata
     id="metadata10892"><rdf:RDF><cc:Work
         rdf:about=""><dc:format>image/svg+xml</dc:format><dc:type
           rdf:resource="http://purl.org/dc/dcmitype/StillImage" /></cc:Work></rdf:RDF></metadata><defs
     id="defs10890"><clipPath
       clipPathUnits="userSpaceOnUse"
       id="clipPath10904"><path
         d="M 0,0 H 141 V 133 H 0 Z"
         id="path10902" /></clipPath><clipPath
       clipPathUnits="userSpaceOnUse"
       id="clipPath10914"><path
         d="M 0,0 H 141 V 133 H 0 Z"
         id="path10912" /></clipPath><clipPath
       clipPathUnits="userSpaceOnUse"
       id="clipPath10926"><path
         d="M 0,0 V 133 H 141 V 0 Z"
         id="path10924" /></clipPath><clipPath
       clipPathUnits="userSpaceOnUse"
       id="clipPath10936"><path
         d="M 0,0 H 249 V 236 H 0 Z"
         id="path10934" /></clipPath></defs><sodipodi:namedview
     pagecolor="#ffffff"
     bordercolor="#666666"
     borderopacity="1"
     objecttolerance="10"
     gridtolerance="10"
     guidetolerance="10"
     inkscape:pageopacity="0"
     inkscape:pageshadow="2"
     inkscape:window-width="640"
     inkscape:window-height="480"
     id="namedview10888" /><g
     id="g10894"
     inkscape:groupmode="layer"
     inkscape:label="2020-1227-1330-crop"
     transform="matrix(1.3333333,0,0,-1.3333333,0,125.33333)"><g
       id="g10896"
       transform="translate(-21,-19)"><g
         id="g10898"><g
           id="g10900"
           clip-path="url(#clipPath10904)"><g
             id="g10906"
             transform="matrix(0.69925,0,0,-0.69925,21.203,113)"><g
               id="g10908"><g
                 id="g10910"
                 clip-path="url(#clipPath10914)"><g
                   id="g10916"><g
                     id="g10918" /></g><g
                   id="g10920"><g
                     id="g10922"
                     clip-path="url(#clipPath10926)"><g
                       id="g10928"
                       transform="scale(0.56693)" /></g></g><g
                   id="g10930"
                   transform="scale(0.56693)"><g
                     id="g10932"
                     clip-path="url(#clipPath10936)"><path
                       d="M 0,0 H 249 V 236 H 0 Z"
                       style="fill:#ffffff;fill-opacity:1;fill-rule:nonzero;stroke:none"
                       id="path10938" /><path
                       d="M 118.79,2 V 236"
                       style="fill:none;stroke:#000000;stroke-width:1;stroke-linecap:butt;stroke-linejoin:miter;stroke-miterlimit:10;stroke-dasharray:none;stroke-opacity:1"
                       id="path10940" /><path
                       d="m 118.79,1 -4,4"
                       style="fill:none;stroke:#000000;stroke-width:1;stroke-linecap:butt;stroke-linejoin:miter;stroke-miterlimit:10;stroke-dasharray:none;stroke-opacity:1"
                       id="path10942" /><path
                       d="m 118.79,1 4,4"
                       style="fill:none;stroke:#000000;stroke-width:1;stroke-linecap:butt;stroke-linejoin:miter;stroke-miterlimit:10;stroke-dasharray:none;stroke-opacity:1"
                       id="path10944" /><path
                       d="m 231.12,120 3.04,-4.31 -2.82,-3.99 h 1.77 l 1.27,1.94 c 0.23,0.38 0.43,0.69 0.57,0.94 0.23,-0.35 0.45,-0.65 0.64,-0.92 l 1.39,-1.96 h 1.69 l -2.87,3.91 3.09,4.39 h -1.73 l -1.71,-2.58 -0.45,-0.7 -2.17,3.28 z"
                       style="fill:#000000;fill-opacity:1;fill-rule:nonzero;stroke:none"
                       id="path10946" /><path
                       d="M 0,124.71 H 247"
                       style="fill:none;stroke:#000000;stroke-width:1;stroke-linecap:butt;stroke-linejoin:miter;stroke-miterlimit:10;stroke-dasharray:none;stroke-opacity:1"
                       id="path10948" /><path
                       d="m 248,124.71 -4,-4"
                       style="fill:none;stroke:#000000;stroke-width:1;stroke-linecap:butt;stroke-linejoin:miter;stroke-miterlimit:10;stroke-dasharray:none;stroke-opacity:1"
                       id="path10950" /><path
                       d="m 248,124.71 -4,4"
                       style="fill:none;stroke:#000000;stroke-width:1;stroke-linecap:butt;stroke-linejoin:miter;stroke-miterlimit:10;stroke-dasharray:none;stroke-opacity:1"
                       id="path10952" /><path
                       d="m 124,24.203 -0.16,-1.328 c 0.31,0.083 0.57,0.125 0.8,0.125 0.31,0 0.56,-0.052 0.75,-0.156 0.19,-0.104 0.34,-0.25 0.47,-0.438 0.08,-0.135 0.22,-0.484 0.42,-1.047 0.03,-0.073 0.07,-0.187 0.13,-0.343 l -3.14,-8.313 h 1.51 l 1.72,4.797 c 0.23,0.615 0.43,1.255 0.61,1.922 0.16,-0.646 0.35,-1.276 0.58,-1.891 l 1.76,-4.828 h 1.41 l -3.16,8.438 c -0.33,0.916 -0.59,1.547 -0.78,1.89 -0.25,0.459 -0.53,0.797 -0.86,1.016 -0.32,0.219 -0.71,0.328 -1.15,0.328 -0.27,0 -0.58,-0.057 -0.91,-0.172 z"
                       style="fill:#000000;fill-opacity:1;fill-rule:nonzero;stroke:none"
                       id="path10954" /><path
                       d="m 206.58,124.71 c 0,48.49 -39.3,87.79 -87.79,87.79 -48.49,0 -87.798,-39.3 -87.798,-87.79 0,-48.492 39.308,-87.8 87.798,-87.8 48.49,0 87.79,39.308 87.79,87.8 z"
                       style="fill:none;stroke:#000000;stroke-width:2.5;stroke-linecap:round;stroke-linejoin:round;stroke-miterlimit:10;stroke-dasharray:none;stroke-opacity:0.69804"
                       id="path10956" /><path
                       d="M 194.82,80.809 V 124.71"
                       style="fill:none;stroke:#0000ff;stroke-width:1.5;stroke-linecap:round;stroke-linejoin:round;stroke-miterlimit:10;stroke-dasharray:none;stroke-opacity:1"
                       id="path10958" /><path
                       d="M 194.82,80.809 118.79,124.71"
                       style="fill:none;stroke:#000000;stroke-width:1.5;stroke-linecap:round;stroke-linejoin:round;stroke-miterlimit:10;stroke-dasharray:none;stroke-opacity:1"
                       id="path10960" /><path
                       d="M 194.82,124.71 H 118.79"
                       style="fill:none;stroke:#ff0000;stroke-width:1.5;stroke-linecap:round;stroke-linejoin:round;stroke-miterlimit:10;stroke-dasharray:none;stroke-opacity:1"
                       id="path10962" /><path
                       d="m 162.69,48.673 -43.9,76.037"
                       style="fill:none;stroke:#000000;stroke-width:1.5;stroke-linecap:round;stroke-linejoin:round;stroke-miterlimit:10;stroke-dasharray:none;stroke-opacity:1"
                       id="path10964" /><path
                       d="M 162.69,48.673 V 124.71"
                       style="fill:none;stroke:#0000ff;stroke-width:1.5;stroke-linecap:round;stroke-linejoin:round;stroke-miterlimit:10;stroke-dasharray:none;stroke-opacity:1"
                       id="path10966" /><path
                       d="m 118.79,124.71 h 43.9"
                       style="fill:none;stroke:#ff0000;stroke-width:1.5;stroke-linecap:round;stroke-linejoin:round;stroke-miterlimit:10;stroke-dasharray:none;stroke-opacity:1"
                       id="path10968" /><path
                       d="m 165.69,48.673 c 0,1.657 -1.35,3 -3,3 -1.66,0 -3,-1.343 -3,-3 0,-1.657 1.34,-3 3,-3 1.65,0 3,1.343 3,3 z"
                       style="fill:#444444;fill-opacity:1;fill-rule:nonzero;stroke:none"
                       id="path10970" /><g
                       id="g10972"
                       transform="scale(19)"><g
                         id="g10974"
                         transform="matrix(0.01,0,0,0.01,9.4313,1.5889)"><path
                           d="m 26.5,-37.297 v 0 l -5.594,22.094 c -1.135,4.271 -2.036,7.5363 -2.703,9.7968 -1.073,3.2708 -2.073,5.23953 -3,5.9062 v 0.09375 c -0.604,0.33333 -1.271,0.50005 -2,0.50005 -1.531,0 -2.463,-0.66672 -2.797,-2.00005 C 10.333,-1.1042 10.297,-1.3333 10.297,-1.5938 10.297,-2.1979 10.562,-3 11.094,-4 17.365,-17.531 21.635,-28.63 23.906,-37.297 h -5.703 c -5.198,0 -9.4322,2.568 -12.703,7.703 -0.6042,0.792 -1.1354,1.188 -1.5938,1.188 -0.802,0 -1.2031,-0.334 -1.2031,-1 0,-0.729 1.1979,-2.729 3.5938,-6 0.4687,-0.532 0.901,-1.063 1.2969,-1.594 0.2083,-0.271 0.4427,-0.536 0.7031,-0.797 0.1354,-0.198 0.3021,-0.401 0.5,-0.609 2.9371,-3.125 6.4061,-4.688 10.4061,-4.688 h 33.5 c 2.261,0 3.557,0.5 3.891,1.5 v 0.094 c 0.073,0.198 0.109,0.464 0.109,0.797 0,2.271 -1.635,3.406 -4.906,3.406 H 40.406 c -1.208,5.667 -1.812,10.964 -1.812,15.891 0,6.208 0.968,11.7081 2.906,16.4998 0.396,0.9374 0.594,1.6718 0.594,2.2031 0,1.5312 -0.834,2.666642 -2.5,3.40622 C 39.062,0.96354 38.531,1.0938 38,1.0938 c -1.333,0 -2.333,-0.93234 -3,-2.7969 -0.198,-0.5938 -0.396,-1.3281 -0.594,-2.2031 -0.541,-2.2605 -0.812,-4.7917 -0.812,-7.5938 0,-4.396 0.901,-10.76 2.703,-19.094 l 1.5,-6.703 z"
                           style="fill:#444444;fill-opacity:1;fill-rule:nonzero;stroke:none"
                           id="path10976" /><g
                           id="g10978"
                           transform="matrix(100,0,0,100,-943.13,-158.89)"><path
                             d="m 9.4313,1.9954 h 0.6057 v 0.04 H 9.4313 Z"
                             style="fill:#444444;fill-opacity:1;fill-rule:nonzero;stroke:none"
                             id="path10980" /><g
                             id="g10982"
                             transform="matrix(0.01,0,0,0.01,9.4843,2.9514)"><path
                               d="m 29,-35.203 v 0 c 6.667,1.333 11.469,4.599 14.406,9.797 1.532,2.604 2.297,5.375 2.297,8.312 0,5.667 -2.333,10.4325 -7,14.2971 -4.073,3.33336 -8.838,5 -14.297,5 C 17.802,2.2031 12.5,0.23438 8.5,-3.7031 5.6354,-6.5052 4.2031,-9.7708 4.2031,-13.5 c 0,-3.135 1.4011,-5 4.2031,-5.594 0.4584,-0.135 0.9219,-0.203 1.3907,-0.203 2.5311,0 4.2341,1.068 5.1091,3.203 0.261,0.865 0.427,1.662 0.5,2.391 0,2.667 -1.203,4.4009 -3.609,5.203 -0.927,0.3333 -1.9272,0.4323 -3.0001,0.2969 2.4691,4.1354 6.7341,6.6041 12.7971,7.40622 0.875,0.13542 1.708,0.20313 2.5,0.20313 4.271,0 7.406,-2.10415 9.406,-6.31245 1.271,-2.6667 1.906,-6.0628 1.906,-10.1878 0,-8.875 -2.666,-14.208 -8,-16 -1.208,-0.406 -2.51,-0.609 -3.906,-0.609 h -4.406 c -1.459,0 -2.255,-0.365 -2.391,-1.094 0,-0.667 0.5,-1.068 1.5,-1.203 1,0 2.297,-0.099 3.891,-0.297 3.406,-0.135 6.073,-1.437 8,-3.906 v -0.094 l 0.109,-0.109 0.094,-0.094 h 0.109 l 0.594,-1 c 1.865,-3.135 2.797,-6.938 2.797,-11.406 0,-6.198 -2.401,-9.828 -7.203,-10.891 -0.792,-0.198 -1.589,-0.297 -2.391,-0.297 -4.667,0 -8.469,1.334 -11.406,4 -0.729,0.667 -1.359,1.396 -1.891,2.188 4.125,0 6.188,1.666 6.188,5 0,2.406 -1.032,4.01 -3.094,4.812 -0.604,0.198 -1.271,0.297 -2,0.297 -2.6042,0 -4.2396,-1.167 -4.9062,-3.5 v 0 -0.109 C 6.9688,-51.938 6.9062,-52.469 6.9062,-53 c 0,-4.469 2.198,-8.036 6.5938,-10.703 3.198,-1.927 6.896,-2.891 11.094,-2.891 6.073,0 10.974,1.797 14.703,5.391 L 39.5,-61 c 2.333,2.396 3.5,5.13 3.5,8.203 0,5.531 -2.365,10.162 -7.094,13.891 -2.073,1.604 -4.375,2.838 -6.906,3.703 z"
                               style="fill:#444444;fill-opacity:1;fill-rule:nonzero;stroke:none"
                               id="path10984" /><g
                               id="g10986"
                               transform="matrix(5.2632,0,0,5.2632,-948.43,-295.14)"><path
                                 d="m 197.82,80.809 c 0,1.656 -1.34,3 -3,3 -1.66,0 -3,-1.344 -3,-3 0,-1.657 1.34,-3 3,-3 1.66,0 3,1.343 3,3 z"
                                 style="fill:#444444;fill-opacity:1;fill-rule:nonzero;stroke:none"
                                 id="path10988" /><g
                                 id="g10990"
                                 transform="matrix(0.19,0,0,0.19,205.2,61.1895)"><path
                                   d="m 26.5,-37.297 v 0 l -5.594,22.094 c -1.135,4.271 -2.036,7.5363 -2.703,9.7968 -1.073,3.2708 -2.073,5.23953 -3,5.9062 v 0.09375 c -0.604,0.33333 -1.271,0.50005 -2,0.50005 -1.531,0 -2.463,-0.66672 -2.797,-2.00005 C 10.333,-1.1042 10.297,-1.3333 10.297,-1.5938 10.297,-2.1979 10.562,-3 11.094,-4 17.365,-17.531 21.635,-28.63 23.906,-37.297 h -5.703 c -5.198,0 -9.4322,2.568 -12.703,7.703 -0.6042,0.792 -1.1354,1.188 -1.5938,1.188 -0.802,0 -1.2031,-0.334 -1.2031,-1 0,-0.729 1.1979,-2.729 3.5938,-6 0.4687,-0.532 0.901,-1.063 1.2969,-1.594 0.2083,-0.271 0.4427,-0.536 0.7031,-0.797 0.1354,-0.198 0.3021,-0.401 0.5,-0.609 2.9371,-3.125 6.4061,-4.688 10.4061,-4.688 h 33.5 c 2.261,0 3.557,0.5 3.891,1.5 v 0.094 c 0.073,0.198 0.109,0.464 0.109,0.797 0,2.271 -1.635,3.406 -4.906,3.406 H 40.406 c -1.208,5.667 -1.812,10.964 -1.812,15.891 0,6.208 0.968,11.7081 2.906,16.4998 0.396,0.9374 0.594,1.6718 0.594,2.2031 0,1.5312 -0.834,2.666642 -2.5,3.40622 C 39.062,0.96354 38.531,1.0938 38,1.0938 c -1.333,0 -2.333,-0.93234 -3,-2.7969 -0.198,-0.5938 -0.396,-1.3281 -0.594,-2.2031 -0.541,-2.2605 -0.812,-4.7917 -0.812,-7.5938 0,-4.396 0.901,-10.76 2.703,-19.094 l 1.5,-6.703 z"
                                   style="fill:#444444;fill-opacity:1;fill-rule:nonzero;stroke:none"
                                   id="path10992" /><g
                                   id="g10994"
                                   transform="matrix(100,0,0,100,-1080,-322.05)"><path
                                   d="m 10.8,3.627 h 0.606 v 0.04 H 10.8 Z"
                                   style="fill:#444444;fill-opacity:1;fill-rule:nonzero;stroke:none"
                                   id="path10996" /><g
                                   id="g10998"
                                   transform="matrix(0.01,0,0,0.01,10.853,4.5829)"><path
                                   d="m 13.203,-32.797 v 0 c 2.729,-6.604 6.896,-9.906 12.5,-9.906 6.136,0 11.167,2.536 15.094,7.609 2.198,2.729 3.667,5.927 4.406,9.594 0.333,1.667 0.5,3.365 0.5,5.094 0,7.406 -2.568,13.3435 -7.703,17.8122 -3.729,3.19797 -8.031,4.7969 -12.906,4.7969 -6.792,0 -12.089,-3.2343 -15.8909,-9.7031 -3.3333,-5.802 -5,-13.833 -5,-24.094 0,-11.541 3.2657,-20.708 9.7969,-27.5 4.865,-5 10.365,-7.5 16.5,-7.5 5.802,0 9.703,2.032 11.703,6.094 0.667,1.396 1,2.964 1,4.703 0,2.667 -1.234,4.235 -3.703,4.703 -0.333,0.063 -0.635,0.094 -0.906,0.094 -2.125,0 -3.558,-0.932 -4.297,-2.797 -0.198,-0.531 -0.297,-1.13 -0.297,-1.797 0,-3 1.833,-4.5 5.5,-4.5 -1.729,-2.666 -4.661,-4 -8.797,-4 -4.667,0 -8.599,2.099 -11.797,6.297 -3.802,5 -5.703,12.531 -5.703,22.594 z m 11.891,32.20325 v 0 c 4.468,0 7.771,-2.16665 9.906,-6.50005 1.135,-2.4062 1.703,-6.8752 1.703,-13.4062 0,-6.667 -0.599,-11.234 -1.797,-13.703 -2.073,-4.136 -5.177,-6.203 -9.312,-6.203 -5.261,0 -8.891,3.135 -10.891,9.406 -0.864,2.604 -1.297,5.406 -1.297,8.406 0,6.532 0.599,11.365 1.797,14.5002 1.261,3.0626 3.224,5.2605 5.891,6.5938 1.271,0.60417 2.604,0.90625 4,0.90625 z"
                                   style="fill:#444444;fill-opacity:1;fill-rule:nonzero;stroke:none"
                                   id="path11000" /><g
                                   id="g11002"
                                   transform="matrix(5.2632,0,0,5.2632,-1085.3,-458.29)"><path
                                   d="m 165.69,124.71 c 0,1.65 -1.35,3 -3,3 -1.66,0 -3,-1.35 -3,-3 0,-1.66 1.34,-3 3,-3 1.65,0 3,1.34 3,3 z"
                                   style="fill:#444444;fill-opacity:1;fill-rule:nonzero;stroke:none"
                                   id="path11004" /><path
                                   d="m 197.82,124.71 c 0,1.65 -1.34,3 -3,3 -1.66,0 -3,-1.35 -3,-3 0,-1.66 1.34,-3 3,-3 1.66,0 3,1.34 3,3 z"
                                   style="fill:#444444;fill-opacity:1;fill-rule:nonzero;stroke:none"
                                   id="path11006" /><path
                                   d="m 121.79,124.71 c 0,1.65 -1.35,3 -3,3 -1.66,0 -3,-1.35 -3,-3 0,-1.66 1.34,-3 3,-3 1.65,0 3,1.34 3,3 z"
                                   style="fill:#000000;fill-opacity:1;fill-rule:nonzero;stroke:none"
                                   id="path11008" /><g
                                   id="g11010"
                                   transform="scale(19)"><g
                                   id="g11012"
                                   transform="matrix(0.01,0,0,0.01,5.0526,7.6304)"><path
                                   d="m 74,-43.594 v 0 C 74,-33.26 70.333,-23.698 63,-14.906 56.396,-6.9062 48.661,-1.6354 39.797,0.90625 36.661,1.7708 33.562,2.2031 30.5,2.2031 22.167,2.2031 15.599,-0.72917 10.797,-6.5938 6.8698,-11.396 4.9062,-17.365 4.9062,-24.5 c 0,-10 3.5626,-19.469 10.6878,-28.406 6.604,-8.063 14.338,-13.427 23.203,-16.094 3.271,-1 6.505,-1.5 9.703,-1.5 8.469,0 15.104,3.068 19.906,9.203 3.729,4.802 5.594,10.703 5.594,17.703 z M 31.094,-0.40625 v 0 c 6.271,0 12.307,-2.79685 18.109,-8.39065 1.198,-1.1354 2.297,-2.3381 3.297,-3.6091 6.531,-8.125 10.562,-17.823 12.094,-29.094 0.333,-2.198 0.5,-4.198 0.5,-6 0,-9.135 -3.063,-15.333 -9.188,-18.594 -0.073,0 -0.14,-0.036 -0.203,-0.109 C 53.297,-67.401 50.698,-68 47.906,-68 c -6.271,0 -12.338,2.698 -18.203,8.094 -2.406,2.135 -4.542,4.635 -6.406,7.5 -5.063,7.666 -8.026,16.833 -8.891,27.5 -0.135,1.208 -0.203,2.276 -0.203,3.203 0,8.531 2.568,14.6665 7.703,18.4061 2.667,1.9271 5.729,2.89065 9.188,2.89065 z"
                                   style="fill:#000000;fill-opacity:1;fill-rule:nonzero;stroke:none"
                                   id="path11014" /><g
                                   id="g11016"
                                   transform="matrix(5.2632,0,0,5.2632,-505.26,-763.04)"><path
                                   d="m 209.58,124.71 c 0,1.65 -1.34,3 -3,3 -1.65,0 -3,-1.35 -3,-3 0,-1.66 1.35,-3 3,-3 1.66,0 3,1.34 3,3 z"
                                   style="fill:#000000;fill-opacity:1;fill-rule:nonzero;stroke:none"
                                   id="path11018" /><g
                                   id="g11020"
                                   transform="matrix(0.19,0,0,0.19,210.007,145.236)"><path
                                   d="m 29.406,-64 v 56.0938 c 0,2 0.396,3.2708 1.188,3.8124 1.135,0.6667 3.838,1 8.109,1 h 3.203 V 0 C 39.573,-0.19792 34.172,-0.29688 25.703,-0.29688 17.234,-0.29688 11.833,-0.19792 9.5,0 v -3.0938 h 3.203 c 5.136,0 8.068,-0.6041 8.797,-1.8124 L 21.594,-5 C 21.865,-5.5312 22,-6.5 22,-7.9062 V -59.703 c -3.469,1.739 -7.833,2.609 -13.0938,2.609 v -3.109 c 7.9998,0 14.0628,-2.13 18.1878,-6.391 1.271,0 2.005,0.229 2.203,0.688 v 0 0.109 c 0.073,0.198 0.109,0.797 0.109,1.797 z"
                                   style="fill:#000000;fill-opacity:1;fill-rule:nonzero;stroke:none"
                                   id="path11022" /><g
                                   id="g11024"
                                   transform="matrix(5.2632,0,0,5.2632,-1105.3,-764.4)" /></g></g></g></g></g></g></g></g></g></g></g></g></g></g></g><g
                   id="g11026"
                   transform="scale(0.56693)" /></g></g></g></g></g></g></g></svg>
