<?xml version="1.0" encoding="UTF-8" standalone="no"?>
<svg
   xmlns:dc="http://purl.org/dc/elements/1.1/"
   xmlns:cc="http://creativecommons.org/ns#"
   xmlns:rdf="http://www.w3.org/1999/02/22-rdf-syntax-ns#"
   xmlns:svg="http://www.w3.org/2000/svg"
   xmlns="http://www.w3.org/2000/svg"
   xmlns:sodipodi="http://sodipodi.sourceforge.net/DTD/sodipodi-0.dtd"
   xmlns:inkscape="http://www.inkscape.org/namespaces/inkscape"
   version="1.1"
   id="svg166"
   xml:space="preserve"
   width="190.66667"
   height="42.666668"
   viewBox="0 0 190.66667 42.666668"
   sodipodi:docname="2020-1009-2110-crop.pdf"><metadata
     id="metadata172"><rdf:RDF><cc:Work
         rdf:about=""><dc:format>image/svg+xml</dc:format><dc:type
           rdf:resource="http://purl.org/dc/dcmitype/StillImage" /></cc:Work></rdf:RDF></metadata><defs
     id="defs170"><clipPath
       clipPathUnits="userSpaceOnUse"
       id="clipPath184"><path
         d="M 0,0 H 181 V 316 H 0 Z"
         id="path182" /></clipPath><clipPath
       clipPathUnits="userSpaceOnUse"
       id="clipPath194"><path
         d="M 0,0 H 181 V 316 H 0 Z"
         id="path192" /></clipPath><clipPath
       clipPathUnits="userSpaceOnUse"
       id="clipPath206"><path
         d="M 0,0 V 316 H 181 V 0 Z"
         id="path204" /></clipPath><clipPath
       clipPathUnits="userSpaceOnUse"
       id="clipPath216"><path
         d="M 0,0 H 321 V 559 H 0 Z"
         id="path214" /></clipPath></defs><sodipodi:namedview
     pagecolor="#ffffff"
     bordercolor="#666666"
     borderopacity="1"
     objecttolerance="10"
     gridtolerance="10"
     guidetolerance="10"
     inkscape:pageopacity="0"
     inkscape:pageshadow="2"
     inkscape:window-width="640"
     inkscape:window-height="480"
     id="namedview168" /><g
     id="g174"
     inkscape:groupmode="layer"
     inkscape:label="2020-1009-2110-crop"
     transform="matrix(1.3333333,0,0,-1.3333333,0,42.666667)"><g
       id="g176"
       transform="translate(-19,-129)"><g
         id="g178"><g
           id="g180"
           clip-path="url(#clipPath184)"><g
             id="g186"
             transform="matrix(0.77901,0,0,-0.77901,20,281.08)"><g
               id="g188"><g
                 id="g190"
                 clip-path="url(#clipPath194)"><g
                   id="g196"><g
                     id="g198" /></g><g
                   id="g200"><g
                     id="g202"
                     clip-path="url(#clipPath206)"><g
                       id="g208"
                       transform="scale(0.56693)" /></g></g><g
                   id="g210"
                   transform="scale(0.56693)"><g
                     id="g212"
                     clip-path="url(#clipPath216)"><path
                       d="M 0,0 H 321 V 559 H 0 Z"
                       style="fill:#ffffff;fill-opacity:1;fill-rule:nonzero;stroke:none"
                       id="path218" /><path
                       d="M 0,308 H 319"
                       style="fill:none;stroke:#000000;stroke-width:1;stroke-linecap:butt;stroke-linejoin:miter;stroke-miterlimit:10;stroke-dasharray:none;stroke-opacity:1"
                       id="path220" /><path
                       d="m 320,308 -4,-4"
                       style="fill:none;stroke:#000000;stroke-width:1;stroke-linecap:butt;stroke-linejoin:miter;stroke-miterlimit:10;stroke-dasharray:none;stroke-opacity:1"
                       id="path222" /><path
                       d="m 320,308 -4,4"
                       style="fill:none;stroke:#000000;stroke-width:1;stroke-linecap:butt;stroke-linejoin:miter;stroke-miterlimit:10;stroke-dasharray:none;stroke-opacity:1"
                       id="path224" /><path
                       d="M 40,308 V 293"
                       style="fill:none;stroke:#000000;stroke-width:2.5;stroke-linecap:round;stroke-linejoin:round;stroke-miterlimit:10;stroke-dasharray:none;stroke-opacity:0.69804"
                       id="path226" /><path
                       d="M 160,308 V 293"
                       style="fill:none;stroke:#000000;stroke-width:2.5;stroke-linecap:round;stroke-linejoin:round;stroke-miterlimit:10;stroke-dasharray:none;stroke-opacity:0.69804"
                       id="path228" /><path
                       d="M 232,308 V 293"
                       style="fill:none;stroke:#000000;stroke-width:2.5;stroke-linecap:round;stroke-linejoin:round;stroke-miterlimit:10;stroke-dasharray:none;stroke-opacity:0.69804"
                       id="path230" /><path
                       d="M 160,293 H 57"
                       style="fill:none;stroke:#000000;stroke-width:2.5;stroke-linecap:round;stroke-linejoin:round;stroke-miterlimit:10;stroke-dasharray:none;stroke-opacity:0.69804"
                       id="path232" /><path
                       d="m 40,293 17,-4.25 v 8.5 z"
                       style="fill:#000000;fill-opacity:0.69804;fill-rule:evenodd;stroke:none"
                       id="path234" /><g
                       id="g236"
                       transform="scale(19)"><g
                         id="g238"
                         transform="matrix(0.01,0,0,0.01,4.7368,14.846)"><path
                           d="m 66.094,-23 h -54.5 c -2.1252,0 -3.2242,-0.667 -3.2971,-2 0,-1.333 1.0989,-2 3.2971,-2 h 54.5 c 2.135,0 3.239,0.667 3.312,2 0,1.333 -1.104,2 -3.312,2 z"
                           style="fill:#000000;fill-opacity:1;fill-rule:nonzero;stroke:none"
                           id="path240" /><g
                           id="g242"
                           transform="translate(77.8)"><path
                             d="m 37.297,-37.797 c 0.333,-2.271 1.37,-3.672 3.109,-4.203 0.334,-0.135 0.698,-0.203 1.094,-0.203 1.729,0 2.698,0.901 2.906,2.703 0,0.396 -0.234,1.531 -0.703,3.406 l -3.609,14 c -1,4.198 -1.729,7.198 -2.188,9 -0.875,3.4586 -1.312,5.9221 -1.312,7.3909 0,3.0729 1,4.6093 3,4.6093 2.541,0 4.677,-2.6666 6.406,-8 0.333,-1.1352 0.734,-2.6042 1.203,-4.4062 0.531,-1.135 0.995,-1.734 1.391,-1.797 0.802,0 1.203,0.333 1.203,1 0,1 -0.599,3.333 -1.797,7.0001 -0.396,1.1354 -0.797,2.099 -1.203,2.8907 -1.865,3.66662 -4.328,5.5 -7.391,5.5 -3.739,0 -6.442,-1.59901 -8.109,-4.7969 -0.469,-0.8021 -0.802,-1.7031 -1,-2.7031 -4.198,5 -8.531,7.5 -13,7.5 -5,0 -8.698,-2.2657 -11.0939,-6.7969 C 4.7344,-8.3698 4,-11.438 4,-14.906 c 0,-7.198 2.5,-13.865 7.5,-20 4.667,-5.594 9.734,-8.656 15.203,-9.188 0.469,-0.073 0.932,-0.109 1.391,-0.109 4.073,0 7.14,2.135 9.203,6.406 z m -6.5,25.891 v 0 l 5,-19.594 c 0.198,-1 0.297,-1.568 0.297,-1.703 0,-1.396 -0.599,-3.094 -1.797,-5.094 -1.469,-2.469 -3.5,-3.703 -6.094,-3.703 -3.469,0 -6.771,2.266 -9.906,6.797 -0.594,0.864 -1.162,1.797 -1.703,2.797 -1.927,3.875 -3.558,9.375 -4.891,16.5 -0.406,2.271 -0.609,4.073 -0.609,5.406 0,4.5312 1.271,7.4635 3.812,8.7969 0.729,0.4062 1.594,0.6093 2.594,0.6093 3.729,0 7.495,-2.3697 11.297,-7.1093 0.937,-1.0625 1.573,-2.1619 1.906,-3.2969 v -0.094 c 0.063,-0.135 0.094,-0.239 0.094,-0.312 z"
                             style="fill:#000000;fill-opacity:1;fill-rule:nonzero;stroke:none"
                             id="path244" /><g
                             id="g246"
                             transform="matrix(5.2632,0,0,5.2632,-551.48,-1484.6)"><path
                               d="m 160,293 h 55"
                               style="fill:none;stroke:#000000;stroke-width:2.5;stroke-linecap:round;stroke-linejoin:round;stroke-miterlimit:10;stroke-dasharray:none;stroke-opacity:0.69804"
                               id="path248" /><path
                               d="m 232,293 -17,4.25 v -8.5 z"
                               style="fill:#000000;fill-opacity:0.69804;fill-rule:evenodd;stroke:none"
                               id="path250" /><g
                               id="g252"
                               transform="scale(19)"><g
                                 id="g254"
                                 transform="matrix(0.01,0,0,0.01,10.158,14.799)"><path
                                   d="m 37.297,-37.797 c 0.333,-2.271 1.37,-3.672 3.109,-4.203 0.334,-0.135 0.698,-0.203 1.094,-0.203 1.729,0 2.698,0.901 2.906,2.703 0,0.396 -0.234,1.531 -0.703,3.406 l -3.609,14 c -1,4.198 -1.729,7.198 -2.188,9 -0.875,3.4586 -1.312,5.9221 -1.312,7.3909 0,3.0729 1,4.6093 3,4.6093 2.541,0 4.677,-2.6666 6.406,-8 0.333,-1.1352 0.734,-2.6042 1.203,-4.4062 0.531,-1.135 0.995,-1.734 1.391,-1.797 0.802,0 1.203,0.333 1.203,1 0,1 -0.599,3.333 -1.797,7.0001 -0.396,1.1354 -0.797,2.099 -1.203,2.8907 -1.865,3.66662 -4.328,5.5 -7.391,5.5 -3.739,0 -6.442,-1.59901 -8.109,-4.7969 -0.469,-0.8021 -0.802,-1.7031 -1,-2.7031 -4.198,5 -8.531,7.5 -13,7.5 -5,0 -8.698,-2.2657 -11.0939,-6.7969 C 4.7344,-8.3698 4,-11.438 4,-14.906 c 0,-7.198 2.5,-13.865 7.5,-20 4.667,-5.594 9.734,-8.656 15.203,-9.188 0.469,-0.073 0.932,-0.109 1.391,-0.109 4.073,0 7.14,2.135 9.203,6.406 z m -6.5,25.891 v 0 l 5,-19.594 c 0.198,-1 0.297,-1.568 0.297,-1.703 0,-1.396 -0.599,-3.094 -1.797,-5.094 -1.469,-2.469 -3.5,-3.703 -6.094,-3.703 -3.469,0 -6.771,2.266 -9.906,6.797 -0.594,0.864 -1.162,1.797 -1.703,2.797 -1.927,3.875 -3.558,9.375 -4.891,16.5 -0.406,2.271 -0.609,4.073 -0.609,5.406 0,4.5312 1.271,7.4635 3.812,8.7969 0.729,0.4062 1.594,0.6093 2.594,0.6093 3.729,0 7.495,-2.3697 11.297,-7.1093 0.937,-1.0625 1.573,-2.1619 1.906,-3.2969 v -0.094 c 0.063,-0.135 0.094,-0.239 0.094,-0.312 z"
                                   style="fill:#000000;fill-opacity:1;fill-rule:nonzero;stroke:none"
                                   id="path256" /><g
                                   id="g258"
                                   transform="matrix(5.2632,0,0,5.2632,-1015.8,-1479.9)"><path
                                   d="m 163,308 c 0,1.66 -1.34,3 -3,3 -1.66,0 -3,-1.34 -3,-3 0,-1.66 1.34,-3 3,-3 1.66,0 3,1.34 3,3 z"
                                   style="fill:#000000;fill-opacity:1;fill-rule:nonzero;stroke:none"
                                   id="path260" /><path
                                   d="m 163,308 c 0,1.66 -1.34,3 -3,3 -1.66,0 -3,-1.34 -3,-3 0,-1.66 1.34,-3 3,-3 1.66,0 3,1.34 3,3 z"
                                   style="fill:none;stroke:#000000;stroke-width:1;stroke-linecap:round;stroke-linejoin:round;stroke-miterlimit:10;stroke-dasharray:none;stroke-opacity:1"
                                   id="path262" /><g
                                   id="g264"
                                   transform="matrix(0.19,0,0,0.19,148.9999,337.972)"><path
                                   d="m 74,-43.594 v 0 C 74,-33.26 70.333,-23.698 63,-14.906 56.396,-6.9062 48.661,-1.6354 39.797,0.90625 36.661,1.7708 33.562,2.2031 30.5,2.2031 22.167,2.2031 15.599,-0.72917 10.797,-6.5938 6.8698,-11.396 4.9062,-17.365 4.9062,-24.5 c 0,-10 3.5626,-19.469 10.6878,-28.406 6.604,-8.063 14.338,-13.427 23.203,-16.094 3.271,-1 6.505,-1.5 9.703,-1.5 8.469,0 15.104,3.068 19.906,9.203 3.729,4.802 5.594,10.703 5.594,17.703 z M 31.094,-0.40625 v 0 c 6.271,0 12.307,-2.79685 18.109,-8.39065 1.198,-1.1354 2.297,-2.3381 3.297,-3.6091 6.531,-8.125 10.562,-17.823 12.094,-29.094 0.333,-2.198 0.5,-4.198 0.5,-6 0,-9.135 -3.063,-15.333 -9.188,-18.594 -0.073,0 -0.14,-0.036 -0.203,-0.109 C 53.297,-67.401 50.698,-68 47.906,-68 c -6.271,0 -12.338,2.698 -18.203,8.094 -2.406,2.135 -4.542,4.635 -6.406,7.5 -5.063,7.666 -8.026,16.833 -8.891,27.5 -0.135,1.208 -0.203,2.276 -0.203,3.203 0,8.531 2.568,14.6665 7.703,18.4061 2.667,1.9271 5.729,2.89065 9.188,2.89065 z"
                                   style="fill:#000000;fill-opacity:1;fill-rule:nonzero;stroke:none"
                                   id="path266" /><g
                                   id="g268"
                                   transform="matrix(5.2632,0,0,5.2632,-784.21,-1778.8)"><path
                                   d="m 235,308 c 0,1.66 -1.34,3 -3,3 -1.66,0 -3,-1.34 -3,-3 0,-1.66 1.34,-3 3,-3 1.66,0 3,1.34 3,3 z"
                                   style="fill:#0000ff;fill-opacity:1;fill-rule:nonzero;stroke:none"
                                   id="path270" /><path
                                   d="m 235,308 c 0,1.66 -1.34,3 -3,3 -1.66,0 -3,-1.34 -3,-3 0,-1.66 1.34,-3 3,-3 1.66,0 3,1.34 3,3 z"
                                   style="fill:none;stroke:#000000;stroke-width:1;stroke-linecap:round;stroke-linejoin:round;stroke-miterlimit:10;stroke-dasharray:none;stroke-opacity:1"
                                   id="path272" /><g
                                   id="g274"
                                   transform="scale(19)"><g
                                   id="g276"
                                   transform="matrix(0.01,0,0,0.01,12,17.592)"><path
                                   d="m 37.297,-37.797 c 0.333,-2.271 1.37,-3.672 3.109,-4.203 0.334,-0.135 0.698,-0.203 1.094,-0.203 1.729,0 2.698,0.901 2.906,2.703 0,0.396 -0.234,1.531 -0.703,3.406 l -3.609,14 c -1,4.198 -1.729,7.198 -2.188,9 -0.875,3.4586 -1.312,5.9221 -1.312,7.3909 0,3.0729 1,4.6093 3,4.6093 2.541,0 4.677,-2.6666 6.406,-8 0.333,-1.1352 0.734,-2.6042 1.203,-4.4062 0.531,-1.135 0.995,-1.734 1.391,-1.797 0.802,0 1.203,0.333 1.203,1 0,1 -0.599,3.333 -1.797,7.0001 -0.396,1.1354 -0.797,2.099 -1.203,2.8907 -1.865,3.66662 -4.328,5.5 -7.391,5.5 -3.739,0 -6.442,-1.59901 -8.109,-4.7969 -0.469,-0.8021 -0.802,-1.7031 -1,-2.7031 -4.198,5 -8.531,7.5 -13,7.5 -5,0 -8.698,-2.2657 -11.0939,-6.7969 C 4.7344,-8.3698 4,-11.438 4,-14.906 c 0,-7.198 2.5,-13.865 7.5,-20 4.667,-5.594 9.734,-8.656 15.203,-9.188 0.469,-0.073 0.932,-0.109 1.391,-0.109 4.073,0 7.14,2.135 9.203,6.406 z m -6.5,25.891 v 0 l 5,-19.594 c 0.198,-1 0.297,-1.568 0.297,-1.703 0,-1.396 -0.599,-3.094 -1.797,-5.094 -1.469,-2.469 -3.5,-3.703 -6.094,-3.703 -3.469,0 -6.771,2.266 -9.906,6.797 -0.594,0.864 -1.162,1.797 -1.703,2.797 -1.927,3.875 -3.558,9.375 -4.891,16.5 -0.406,2.271 -0.609,4.073 -0.609,5.406 0,4.5312 1.271,7.4635 3.812,8.7969 0.729,0.4062 1.594,0.6093 2.594,0.6093 3.729,0 7.495,-2.3697 11.297,-7.1093 0.937,-1.0625 1.573,-2.1619 1.906,-3.2969 v -0.094 c 0.063,-0.135 0.094,-0.239 0.094,-0.312 z"
                                   style="fill:#0000ff;fill-opacity:1;fill-rule:nonzero;stroke:none"
                                   id="path278" /><g
                                   id="g280"
                                   transform="translate(52.9)"><path
                                   d="m 33.094,24 v 0 c 0,0.667 -0.334,1 -1,1 -0.792,0 -2.558,-1.365 -5.297,-4.094 C 22.661,16.771 19.229,11.87 16.5,6.2031 12.104,-2.8698 9.9062,-13.271 9.9062,-25 c 0,-11.271 2.0988,-21.438 6.2968,-30.5 3.469,-7.396 7.87,-13.328 13.203,-17.797 1.396,-1.135 2.292,-1.703 2.688,-1.703 0.666,0 1,0.333 1,1 0,0.333 -0.433,0.901 -1.297,1.703 C 21.068,-61.37 15.703,-45.604 15.703,-25 c 0,20.5312 5.235,36.13 15.703,46.797 1.125,1.135 1.688,1.87 1.688,2.203 z"
                                   style="fill:#0000ff;fill-opacity:1;fill-rule:nonzero;stroke:none"
                                   id="path282" /><g
                                   id="g284"
                                   transform="translate(38.9)"><path
                                   d="m 37.297,-37.797 c 0.333,-2.271 1.37,-3.672 3.109,-4.203 0.334,-0.135 0.698,-0.203 1.094,-0.203 1.729,0 2.698,0.901 2.906,2.703 0,0.396 -0.234,1.531 -0.703,3.406 l -3.609,14 c -1,4.198 -1.729,7.198 -2.188,9 -0.875,3.4586 -1.312,5.9221 -1.312,7.3909 0,3.0729 1,4.6093 3,4.6093 2.541,0 4.677,-2.6666 6.406,-8 0.333,-1.1352 0.734,-2.6042 1.203,-4.4062 0.531,-1.135 0.995,-1.734 1.391,-1.797 0.802,0 1.203,0.333 1.203,1 0,1 -0.599,3.333 -1.797,7.0001 -0.396,1.1354 -0.797,2.099 -1.203,2.8907 -1.865,3.66662 -4.328,5.5 -7.391,5.5 -3.739,0 -6.442,-1.59901 -8.109,-4.7969 -0.469,-0.8021 -0.802,-1.7031 -1,-2.7031 -4.198,5 -8.531,7.5 -13,7.5 -5,0 -8.698,-2.2657 -11.0939,-6.7969 C 4.7344,-8.3698 4,-11.438 4,-14.906 c 0,-7.198 2.5,-13.865 7.5,-20 4.667,-5.594 9.734,-8.656 15.203,-9.188 0.469,-0.073 0.932,-0.109 1.391,-0.109 4.073,0 7.14,2.135 9.203,6.406 z m -6.5,25.891 v 0 l 5,-19.594 c 0.198,-1 0.297,-1.568 0.297,-1.703 0,-1.396 -0.599,-3.094 -1.797,-5.094 -1.469,-2.469 -3.5,-3.703 -6.094,-3.703 -3.469,0 -6.771,2.266 -9.906,6.797 -0.594,0.864 -1.162,1.797 -1.703,2.797 -1.927,3.875 -3.558,9.375 -4.891,16.5 -0.406,2.271 -0.609,4.073 -0.609,5.406 0,4.5312 1.271,7.4635 3.812,8.7969 0.729,0.4062 1.594,0.6093 2.594,0.6093 3.729,0 7.495,-2.3697 11.297,-7.1093 0.937,-1.0625 1.573,-2.1619 1.906,-3.2969 v -0.094 c 0.063,-0.135 0.094,-0.239 0.094,-0.312 z"
                                   style="fill:#0000ff;fill-opacity:1;fill-rule:nonzero;stroke:none"
                                   id="path286" /><g
                                   id="g288"
                                   transform="translate(80.7)"><path
                                   d="M 67.5,-22.797 12.094,3.2969 C 11.229,3.7656 10.63,4 10.297,4 9.2344,4 8.6042,3.5 8.4062,2.5 8.3333,2.3021 8.2969,2.1354 8.2969,2 c 0,-0.8021 0.6354,-1.53646 1.9061,-2.20312 L 62.703,-25 10.203,-49.797 C 8.9323,-50.464 8.2969,-51.198 8.2969,-52 c 0,-1.062 0.5,-1.698 1.5,-1.906 C 9.9948,-53.969 10.161,-54 10.297,-54 c 0.333,0 0.932,0.234 1.797,0.703 L 67.5,-27.203 c 1.271,0.604 1.906,1.338 1.906,2.203 0,0.865 -0.635,1.599 -1.906,2.203 z"
                                   style="fill:#0000ff;fill-opacity:1;fill-rule:nonzero;stroke:none"
                                   id="path290" /><g
                                   id="g292"
                                   transform="translate(105.6)"><path
                                   d="m 46,-32 c 0,9.729 -1.234,17.26 -3.703,22.5938 C 38.37,-1.9375 32.573,1.9323 24.906,2.2031 18.833,2.2031 13.964,-0.19792 10.297,-5 9.5677,-5.8646 8.9375,-6.8333 8.4062,-7.9062 c -3,-5.5318 -4.5,-13.5628 -4.5,-24.0938 0,-9.802 1.2292,-17.37 3.6876,-22.703 3.3332,-7.469 8.7342,-11.432 16.2032,-11.891 H 25 c 5.938,0 10.771,2.365 14.5,7.094 v 0.094 c 0.938,1.208 1.771,2.541 2.5,4 2.667,5.666 4,13.468 4,23.406 z M 24.906,0 v 0 c 4.198,0 7.427,-2.0312 9.688,-6.0938 0.937,-1.802 1.604,-3.9372 2,-6.4062 0.739,-4.271 1.109,-11.172 1.109,-20.703 0,-9.261 -0.333,-15.761 -1,-19.5 -1.198,-6.333 -4.265,-10.13 -9.203,-11.391 -0.865,-0.208 -1.729,-0.312 -2.594,-0.312 -4.666,0 -8.067,2.333 -10.203,7 -0.739,1.604 -1.307,3.541 -1.703,5.812 -0.531,3.594 -0.797,9.724 -0.797,18.391 0,10.073 0.365,17.109 1.094,21.109 1.198,6.3961 4.13,10.2919 8.797,11.68775 C 23.031,-0.13542 23.969,0 24.906,0 Z"
                                   style="fill:#0000ff;fill-opacity:1;fill-rule:nonzero;stroke:none"
                                   id="path294" /><g
                                   id="g296"
                                   transform="translate(50)"><path
                                   d="m 28.906,-25 v 0 c 0,11.271 -2.104,21.4375 -6.312,30.5 C 19.135,12.896 14.74,18.828 9.4062,23.297 8,24.432 7.099,25 6.7031,25 c -0.6666,0 -1,-0.333 -1,-1 C 5.7031,23.667 6.1354,23.099 7,22.297 17.729,11.37 23.094,-4.3958 23.094,-25 c 0,-20.333 -5,-35.734 -15.0002,-46.203 l -0.5,-0.5 C 6.3333,-72.901 5.7031,-73.667 5.7031,-74 c 0,-0.667 0.3334,-1 1,-1 0.8021,0 2.5677,1.365 5.2969,4.094 4.135,4.135 7.568,9.036 10.297,14.703 4.406,9.073 6.609,19.474 6.609,31.203 z"
                                   style="fill:#0000ff;fill-opacity:1;fill-rule:nonzero;stroke:none"
                                   id="path298" /><g
                                   id="g300"
                                   transform="matrix(5.2632,0,0,5.2632,-1528.1,-1759.2)"><path
                                   d="m 43,308 c 0,1.66 -1.343,3 -3,3 -1.657,0 -3,-1.34 -3,-3 0,-1.66 1.343,-3 3,-3 1.657,0 3,1.34 3,3 z"
                                   style="fill:#0000ff;fill-opacity:1;fill-rule:nonzero;stroke:none"
                                   id="path302" /><path
                                   d="m 43,308 c 0,1.66 -1.343,3 -3,3 -1.657,0 -3,-1.34 -3,-3 0,-1.66 1.343,-3 3,-3 1.657,0 3,1.34 3,3 z"
                                   style="fill:none;stroke:#000000;stroke-width:1;stroke-linecap:round;stroke-linejoin:round;stroke-miterlimit:10;stroke-dasharray:none;stroke-opacity:1"
                                   id="path304" /><g
                                   id="g306"
                                   transform="scale(19)"><g
                                   id="g308"
                                   transform="matrix(0.01,0,0,0.01,1.8947,17.803)"><path
                                   d="m 37.297,-37.797 c 0.333,-2.271 1.37,-3.672 3.109,-4.203 0.334,-0.135 0.698,-0.203 1.094,-0.203 1.729,0 2.698,0.901 2.906,2.703 0,0.396 -0.234,1.531 -0.703,3.406 l -3.609,14 c -1,4.198 -1.729,7.198 -2.188,9 -0.875,3.4586 -1.312,5.9221 -1.312,7.3909 0,3.0729 1,4.6093 3,4.6093 2.541,0 4.677,-2.6666 6.406,-8 0.333,-1.1352 0.734,-2.6042 1.203,-4.4062 0.531,-1.135 0.995,-1.734 1.391,-1.797 0.802,0 1.203,0.333 1.203,1 0,1 -0.599,3.333 -1.797,7.0001 -0.396,1.1354 -0.797,2.099 -1.203,2.8907 -1.865,3.66662 -4.328,5.5 -7.391,5.5 -3.739,0 -6.442,-1.59901 -8.109,-4.7969 -0.469,-0.8021 -0.802,-1.7031 -1,-2.7031 -4.198,5 -8.531,7.5 -13,7.5 -5,0 -8.698,-2.2657 -11.0939,-6.7969 C 4.7344,-8.3698 4,-11.438 4,-14.906 c 0,-7.198 2.5,-13.865 7.5,-20 4.667,-5.594 9.734,-8.656 15.203,-9.188 0.469,-0.073 0.932,-0.109 1.391,-0.109 4.073,0 7.14,2.135 9.203,6.406 z m -6.5,25.891 v 0 l 5,-19.594 c 0.198,-1 0.297,-1.568 0.297,-1.703 0,-1.396 -0.599,-3.094 -1.797,-5.094 -1.469,-2.469 -3.5,-3.703 -6.094,-3.703 -3.469,0 -6.771,2.266 -9.906,6.797 -0.594,0.864 -1.162,1.797 -1.703,2.797 -1.927,3.875 -3.558,9.375 -4.891,16.5 -0.406,2.271 -0.609,4.073 -0.609,5.406 0,4.5312 1.271,7.4635 3.812,8.7969 0.729,0.4062 1.594,0.6093 2.594,0.6093 3.729,0 7.495,-2.3697 11.297,-7.1093 0.937,-1.0625 1.573,-2.1619 1.906,-3.2969 v -0.094 c 0.063,-0.135 0.094,-0.239 0.094,-0.312 z"
                                   style="fill:#0000ff;fill-opacity:1;fill-rule:nonzero;stroke:none"
                                   id="path310" /><g
                                   id="g312"
                                   transform="translate(52.9)"><path
                                   d="m 33.094,24 v 0 c 0,0.667 -0.334,1 -1,1 -0.792,0 -2.558,-1.365 -5.297,-4.094 C 22.661,16.771 19.229,11.87 16.5,6.2031 12.104,-2.8698 9.9062,-13.271 9.9062,-25 c 0,-11.271 2.0988,-21.438 6.2968,-30.5 3.469,-7.396 7.87,-13.328 13.203,-17.797 1.396,-1.135 2.292,-1.703 2.688,-1.703 0.666,0 1,0.333 1,1 0,0.333 -0.433,0.901 -1.297,1.703 C 21.068,-61.37 15.703,-45.604 15.703,-25 c 0,20.5312 5.235,36.13 15.703,46.797 1.125,1.135 1.688,1.87 1.688,2.203 z"
                                   style="fill:#0000ff;fill-opacity:1;fill-rule:nonzero;stroke:none"
                                   id="path314" /><g
                                   id="g316"
                                   transform="translate(38.9)"><path
                                   d="m 37.297,-37.797 c 0.333,-2.271 1.37,-3.672 3.109,-4.203 0.334,-0.135 0.698,-0.203 1.094,-0.203 1.729,0 2.698,0.901 2.906,2.703 0,0.396 -0.234,1.531 -0.703,3.406 l -3.609,14 c -1,4.198 -1.729,7.198 -2.188,9 -0.875,3.4586 -1.312,5.9221 -1.312,7.3909 0,3.0729 1,4.6093 3,4.6093 2.541,0 4.677,-2.6666 6.406,-8 0.333,-1.1352 0.734,-2.6042 1.203,-4.4062 0.531,-1.135 0.995,-1.734 1.391,-1.797 0.802,0 1.203,0.333 1.203,1 0,1 -0.599,3.333 -1.797,7.0001 -0.396,1.1354 -0.797,2.099 -1.203,2.8907 -1.865,3.66662 -4.328,5.5 -7.391,5.5 -3.739,0 -6.442,-1.59901 -8.109,-4.7969 -0.469,-0.8021 -0.802,-1.7031 -1,-2.7031 -4.198,5 -8.531,7.5 -13,7.5 -5,0 -8.698,-2.2657 -11.0939,-6.7969 C 4.7344,-8.3698 4,-11.438 4,-14.906 c 0,-7.198 2.5,-13.865 7.5,-20 4.667,-5.594 9.734,-8.656 15.203,-9.188 0.469,-0.073 0.932,-0.109 1.391,-0.109 4.073,0 7.14,2.135 9.203,6.406 z m -6.5,25.891 v 0 l 5,-19.594 c 0.198,-1 0.297,-1.568 0.297,-1.703 0,-1.396 -0.599,-3.094 -1.797,-5.094 -1.469,-2.469 -3.5,-3.703 -6.094,-3.703 -3.469,0 -6.771,2.266 -9.906,6.797 -0.594,0.864 -1.162,1.797 -1.703,2.797 -1.927,3.875 -3.558,9.375 -4.891,16.5 -0.406,2.271 -0.609,4.073 -0.609,5.406 0,4.5312 1.271,7.4635 3.812,8.7969 0.729,0.4062 1.594,0.6093 2.594,0.6093 3.729,0 7.495,-2.3697 11.297,-7.1093 0.937,-1.0625 1.573,-2.1619 1.906,-3.2969 v -0.094 c 0.063,-0.135 0.094,-0.239 0.094,-0.312 z"
                                   style="fill:#0000ff;fill-opacity:1;fill-rule:nonzero;stroke:none"
                                   id="path318" /><g
                                   id="g320"
                                   transform="translate(80.68)"><path
                                   d="M 67.5,-49.797 15,-25 67.5,-0.20312 C 68.771,0.46354 69.406,1.1979 69.406,2 c 0,1.0625 -0.5,1.6979 -1.5,1.9062 C 67.698,3.9688 67.531,4 67.406,4 67.073,4 66.469,3.7656 65.594,3.2969 L 10.203,-22.797 C 8.9323,-23.401 8.2969,-24.135 8.2969,-25 c 0,-0.865 0.6354,-1.599 1.9061,-2.203 l 55.391,-26.094 c 0.875,-0.469 1.479,-0.703 1.812,-0.703 1.063,0 1.693,0.5 1.891,1.5 0.073,0.198 0.109,0.365 0.109,0.5 0,0.802 -0.635,1.536 -1.906,2.203 z"
                                   style="fill:#0000ff;fill-opacity:1;fill-rule:nonzero;stroke:none"
                                   id="path322" /><g
                                   id="g324"
                                   transform="translate(105.58)"><path
                                   d="m 46,-32 c 0,9.729 -1.234,17.26 -3.703,22.5938 C 38.37,-1.9375 32.573,1.9323 24.906,2.2031 18.833,2.2031 13.964,-0.19792 10.297,-5 9.5677,-5.8646 8.9375,-6.8333 8.4062,-7.9062 c -3,-5.5318 -4.5,-13.5628 -4.5,-24.0938 0,-9.802 1.2292,-17.37 3.6876,-22.703 3.3332,-7.469 8.7342,-11.432 16.2032,-11.891 H 25 c 5.938,0 10.771,2.365 14.5,7.094 v 0.094 c 0.938,1.208 1.771,2.541 2.5,4 2.667,5.666 4,13.468 4,23.406 z M 24.906,0 v 0 c 4.198,0 7.427,-2.0312 9.688,-6.0938 0.937,-1.802 1.604,-3.9372 2,-6.4062 0.739,-4.271 1.109,-11.172 1.109,-20.703 0,-9.261 -0.333,-15.761 -1,-19.5 -1.198,-6.333 -4.265,-10.13 -9.203,-11.391 -0.865,-0.208 -1.729,-0.312 -2.594,-0.312 -4.666,0 -8.067,2.333 -10.203,7 -0.739,1.604 -1.307,3.541 -1.703,5.812 -0.531,3.594 -0.797,9.724 -0.797,18.391 0,10.073 0.365,17.109 1.094,21.109 1.198,6.3961 4.13,10.2919 8.797,11.68775 C 23.031,-0.13542 23.969,0 24.906,0 Z"
                                   style="fill:#0000ff;fill-opacity:1;fill-rule:nonzero;stroke:none"
                                   id="path326" /><g
                                   id="g328"
                                   transform="translate(50)"><path
                                   d="m 28.906,-25 v 0 c 0,11.271 -2.104,21.4375 -6.312,30.5 C 19.135,12.896 14.74,18.828 9.4062,23.297 8,24.432 7.099,25 6.7031,25 c -0.6666,0 -1,-0.333 -1,-1 C 5.7031,23.667 6.1354,23.099 7,22.297 17.729,11.37 23.094,-4.3958 23.094,-25 c 0,-20.333 -5,-35.734 -15.0002,-46.203 l -0.5,-0.5 C 6.3333,-72.901 5.7031,-73.667 5.7031,-74 c 0,-0.667 0.3334,-1 1,-1 0.8021,0 2.5677,1.365 5.2969,4.094 4.135,4.135 7.568,9.036 10.297,14.703 4.406,9.073 6.609,19.474 6.609,31.203 z"
                                   style="fill:#0000ff;fill-opacity:1;fill-rule:nonzero;stroke:none"
                                   id="path330" /><g
                                   id="g332"
                                   transform="matrix(5.2632,0,0,5.2632,-517.53,-1780.3)"><path
                                   d="m 165,293 c 0,2.76 -2.24,5 -5,5 -2.76,0 -5,-2.24 -5,-5 0,-2.76 2.24,-5 5,-5 2.76,0 5,2.24 5,5 z"
                                   style="fill:#4d4dff;fill-opacity:1;fill-rule:nonzero;stroke:none"
                                   id="path334" /><path
                                   d="m 165,293 c 0,2.76 -2.24,5 -5,5 -2.76,0 -5,-2.24 -5,-5 0,-2.76 2.24,-5 5,-5 2.76,0 5,2.24 5,5 z"
                                   style="fill:none;stroke:#000000;stroke-width:1;stroke-linecap:round;stroke-linejoin:round;stroke-miterlimit:10;stroke-dasharray:none;stroke-opacity:1"
                                   id="path336" /><path
                                   d="m 236,293 c 0,2.21 -1.79,4 -4,4 -2.21,0 -4,-1.79 -4,-4 0,-2.21 1.79,-4 4,-4 2.21,0 4,1.79 4,4 z"
                                   style="fill:#444444;fill-opacity:1;fill-rule:nonzero;stroke:none"
                                   id="path338" /><path
                                   d="m 236,293 c 0,2.21 -1.79,4 -4,4 -2.21,0 -4,-1.79 -4,-4 0,-2.21 1.79,-4 4,-4 2.21,0 4,1.79 4,4 z"
                                   style="fill:none;stroke:#000000;stroke-width:1;stroke-linecap:round;stroke-linejoin:round;stroke-miterlimit:10;stroke-dasharray:none;stroke-opacity:1"
                                   id="path340" /><path
                                   d="m 44,293 c 0,2.21 -1.791,4 -4,4 -2.209,0 -4,-1.79 -4,-4 0,-2.21 1.791,-4 4,-4 2.209,0 4,1.79 4,4 z"
                                   style="fill:#444444;fill-opacity:1;fill-rule:nonzero;stroke:none"
                                   id="path342" /><path
                                   d="m 44,293 c 0,2.21 -1.791,4 -4,4 -2.209,0 -4,-1.79 -4,-4 0,-2.21 1.791,-4 4,-4 2.209,0 4,1.79 4,4 z"
                                   style="fill:none;stroke:#000000;stroke-width:1;stroke-linecap:round;stroke-linejoin:round;stroke-miterlimit:10;stroke-dasharray:none;stroke-opacity:1"
                                   id="path344" /></g></g></g></g></g></g></g></g></g></g></g></g></g></g></g></g></g></g></g></g></g></g></g></g></g></g></g><g
                   id="g346"
                   transform="scale(0.56693)" /></g></g></g></g></g></g></g></svg>
