<?xml version="1.0" encoding="UTF-8" standalone="no"?>
<svg
   xmlns:dc="http://purl.org/dc/elements/1.1/"
   xmlns:cc="http://creativecommons.org/ns#"
   xmlns:rdf="http://www.w3.org/1999/02/22-rdf-syntax-ns#"
   xmlns:svg="http://www.w3.org/2000/svg"
   xmlns="http://www.w3.org/2000/svg"
   xmlns:sodipodi="http://sodipodi.sourceforge.net/DTD/sodipodi-0.dtd"
   xmlns:inkscape="http://www.inkscape.org/namespaces/inkscape"
   version="1.1"
   id="svg9422"
   xml:space="preserve"
   width="125.33333"
   height="128"
   viewBox="0 0 125.33333 128"
   sodipodi:docname="2020-1225-1910-crop.pdf"><metadata
     id="metadata9428"><rdf:RDF><cc:Work
         rdf:about=""><dc:format>image/svg+xml</dc:format><dc:type
           rdf:resource="http://purl.org/dc/dcmitype/StillImage" /></cc:Work></rdf:RDF></metadata><defs
     id="defs9426"><clipPath
       clipPathUnits="userSpaceOnUse"
       id="clipPath9440"><path
         d="M 0,0 H 132 V 137 H 0 Z"
         id="path9438" /></clipPath><clipPath
       clipPathUnits="userSpaceOnUse"
       id="clipPath9450"><path
         d="M 0,0 H 132 V 137 H 0 Z"
         id="path9448" /></clipPath><clipPath
       clipPathUnits="userSpaceOnUse"
       id="clipPath9462"><path
         d="M 0,0 V 137 H 132 V 0 Z"
         id="path9460" /></clipPath><clipPath
       clipPathUnits="userSpaceOnUse"
       id="clipPath9472"><path
         d="M 0,0 H 234 V 243 H 0 Z"
         id="path9470" /></clipPath></defs><sodipodi:namedview
     pagecolor="#ffffff"
     bordercolor="#666666"
     borderopacity="1"
     objecttolerance="10"
     gridtolerance="10"
     guidetolerance="10"
     inkscape:pageopacity="0"
     inkscape:pageshadow="2"
     inkscape:window-width="640"
     inkscape:window-height="480"
     id="namedview9424" /><g
     id="g9430"
     inkscape:groupmode="layer"
     inkscape:label="2020-1225-1910-crop"
     transform="matrix(1.3333333,0,0,-1.3333333,0,128)"><g
       id="g9432"
       transform="translate(-19,-20)"><g
         id="g9434"><g
           id="g9436"
           clip-path="url(#clipPath9440)"><g
             id="g9442"
             transform="matrix(0.69697,0,0,-0.69697,20,116.24)"><g
               id="g9444"><g
                 id="g9446"
                 clip-path="url(#clipPath9450)"><g
                   id="g9452"><g
                     id="g9454" /></g><g
                   id="g9456"><g
                     id="g9458"
                     clip-path="url(#clipPath9462)"><g
                       id="g9464"
                       transform="scale(0.56693)" /></g></g><g
                   id="g9466"
                   transform="scale(0.56693)"><g
                     id="g9468"
                     clip-path="url(#clipPath9472)"><path
                       d="M 0,0 H 234 V 243 H 0 Z"
                       style="fill:#ffffff;fill-opacity:1;fill-rule:nonzero;stroke:none"
                       id="path9474" /><path
                       d="M 98.963,2 V 243"
                       style="fill:none;stroke:#000000;stroke-width:1;stroke-linecap:butt;stroke-linejoin:miter;stroke-miterlimit:10;stroke-dasharray:none;stroke-opacity:1"
                       id="path9476" /><path
                       d="m 98.963,1 -4,4"
                       style="fill:none;stroke:#000000;stroke-width:1;stroke-linecap:butt;stroke-linejoin:miter;stroke-miterlimit:10;stroke-dasharray:none;stroke-opacity:1"
                       id="path9478" /><path
                       d="m 98.963,1 3.997,4"
                       style="fill:none;stroke:#000000;stroke-width:1;stroke-linecap:butt;stroke-linejoin:miter;stroke-miterlimit:10;stroke-dasharray:none;stroke-opacity:1"
                       id="path9480" /><path
                       d="m 216.12,131 3.04,-4.31 -2.82,-3.99 h 1.77 l 1.27,1.94 c 0.23,0.38 0.43,0.69 0.57,0.94 0.23,-0.35 0.45,-0.65 0.64,-0.92 l 1.39,-1.96 h 1.69 l -2.87,3.91 3.09,4.39 h -1.73 l -1.71,-2.58 -0.45,-0.7 -2.17,3.28 z"
                       style="fill:#000000;fill-opacity:1;fill-rule:nonzero;stroke:none"
                       id="path9482" /><path
                       d="M 0,135.12 H 232"
                       style="fill:none;stroke:#000000;stroke-width:1;stroke-linecap:butt;stroke-linejoin:miter;stroke-miterlimit:10;stroke-dasharray:none;stroke-opacity:1"
                       id="path9484" /><path
                       d="m 233,135.12 -4,-4"
                       style="fill:none;stroke:#000000;stroke-width:1;stroke-linecap:butt;stroke-linejoin:miter;stroke-miterlimit:10;stroke-dasharray:none;stroke-opacity:1"
                       id="path9486" /><path
                       d="m 233,135.12 -4,4"
                       style="fill:none;stroke:#000000;stroke-width:1;stroke-linecap:butt;stroke-linejoin:miter;stroke-miterlimit:10;stroke-dasharray:none;stroke-opacity:1"
                       id="path9488" /><path
                       d="m 104,24.203 -0.16,-1.328 c 0.31,0.083 0.57,0.125 0.8,0.125 0.31,0 0.56,-0.052 0.75,-0.156 0.19,-0.104 0.34,-0.25 0.47,-0.438 0.08,-0.135 0.22,-0.484 0.42,-1.047 0.03,-0.073 0.07,-0.187 0.13,-0.343 l -3.14,-8.313 h 1.51 l 1.72,4.797 c 0.23,0.615 0.43,1.255 0.61,1.922 0.16,-0.646 0.35,-1.276 0.58,-1.891 l 1.76,-4.828 h 1.41 l -3.16,8.438 c -0.33,0.916 -0.59,1.547 -0.78,1.89 -0.25,0.459 -0.53,0.797 -0.86,1.016 -0.32,0.219 -0.71,0.328 -1.15,0.328 -0.27,0 -0.58,-0.057 -0.91,-0.172 z"
                       style="fill:#000000;fill-opacity:1;fill-rule:nonzero;stroke:none"
                       id="path9490" /><path
                       d="m 181.59,135.12 c 0,45.64 -36.99,82.63 -82.627,82.63 -45.636,0 -82.63,-36.99 -82.63,-82.63 0,-45.631 36.994,-82.626 82.63,-82.626 45.637,0 82.627,36.995 82.627,82.626 z"
                       style="fill:none;stroke:#000000;stroke-width:1.5;stroke-linecap:round;stroke-linejoin:round;stroke-miterlimit:10;stroke-dasharray:none;stroke-opacity:0.69804"
                       id="path9492" /><path
                       d="M 98.963,135.12 205,86"
                       style="fill:none;stroke:#000000;stroke-width:1.5;stroke-linecap:round;stroke-linejoin:round;stroke-miterlimit:10;stroke-dasharray:none;stroke-opacity:1"
                       id="path9494" /><path
                       d="M 98.963,135.12 148.09,29.087"
                       style="fill:none;stroke:#000000;stroke-width:1.5;stroke-linecap:round;stroke-linejoin:round;stroke-miterlimit:10;stroke-dasharray:none;stroke-opacity:1"
                       id="path9496" /><path
                       d="M 98.963,135.12 148.09,29.087"
                       style="fill:none;stroke:#000000;stroke-width:1.5;stroke-linecap:round;stroke-linejoin:round;stroke-miterlimit:10;stroke-dasharray:none;stroke-opacity:1"
                       id="path9498" /><path
                       d="m 173.94,100.39 v 34.73"
                       style="fill:none;stroke:#0000ff;stroke-width:1.5;stroke-linecap:round;stroke-linejoin:round;stroke-miterlimit:10;stroke-dasharray:none;stroke-opacity:1"
                       id="path9500" /><path
                       d="M 133.7,60.149 H 98.963"
                       style="fill:none;stroke:#ff0000;stroke-width:1.5;stroke-linecap:round;stroke-linejoin:round;stroke-miterlimit:10;stroke-dasharray:none;stroke-opacity:1"
                       id="path9502" /><path
                       d="M 98.963,60.149 V 135.12"
                       style="fill:none;stroke:#0000ff;stroke-width:1.5;stroke-linecap:round;stroke-linejoin:round;stroke-miterlimit:10;stroke-dasharray:none;stroke-opacity:1"
                       id="path9504" /><path
                       d="M 98.963,135.12 H 173.94"
                       style="fill:none;stroke:#ff0000;stroke-width:1.5;stroke-linecap:round;stroke-linejoin:round;stroke-miterlimit:10;stroke-dasharray:none;stroke-opacity:1"
                       id="path9506" /><path
                       d="m 101.96,135.12 c 0,1.66 -1.34,3 -2.997,3 -1.657,0 -3,-1.34 -3,-3 0,-1.65 1.343,-3 3,-3 1.657,0 2.997,1.35 2.997,3 z"
                       style="fill:#000000;fill-opacity:1;fill-rule:nonzero;stroke:none"
                       id="path9508" /><g
                       id="g9510"
                       transform="scale(19)"><g
                         id="g9512"
                         transform="matrix(0.01,0,0,0.01,4.0526,8.1567)"><path
                           d="m 74,-43.594 v 0 C 74,-33.26 70.333,-23.698 63,-14.906 56.396,-6.9062 48.661,-1.6354 39.797,0.90625 36.661,1.7708 33.562,2.2031 30.5,2.2031 22.167,2.2031 15.599,-0.72917 10.797,-6.5938 6.8698,-11.396 4.9062,-17.365 4.9062,-24.5 c 0,-10 3.5626,-19.469 10.6878,-28.406 6.604,-8.063 14.338,-13.427 23.203,-16.094 3.271,-1 6.505,-1.5 9.703,-1.5 8.469,0 15.104,3.068 19.906,9.203 3.729,4.802 5.594,10.703 5.594,17.703 z M 31.094,-0.40625 v 0 c 6.271,0 12.307,-2.79685 18.109,-8.39065 1.198,-1.1354 2.297,-2.3381 3.297,-3.6091 6.531,-8.125 10.562,-17.823 12.094,-29.094 0.333,-2.198 0.5,-4.198 0.5,-6 0,-9.135 -3.063,-15.333 -9.188,-18.594 -0.073,0 -0.14,-0.036 -0.203,-0.109 C 53.297,-67.401 50.698,-68 47.906,-68 c -6.271,0 -12.338,2.698 -18.203,8.094 -2.406,2.135 -4.542,4.635 -6.406,7.5 -5.063,7.666 -8.026,16.833 -8.891,27.5 -0.135,1.208 -0.203,2.276 -0.203,3.203 0,8.531 2.568,14.6665 7.703,18.4061 2.667,1.9271 5.729,2.89065 9.188,2.89065 z"
                           style="fill:#000000;fill-opacity:1;fill-rule:nonzero;stroke:none"
                           id="path9514" /><g
                           id="g9516"
                           transform="matrix(5.2632,0,0,5.2632,-405.26,-815.67)"><path
                             d="m 136.7,60.149 c 0,1.657 -1.35,3 -3,3 -1.66,0 -3,-1.343 -3,-3 0,-1.656 1.34,-3 3,-3 1.65,0 3,1.344 3,3 z"
                             style="fill:#000000;fill-opacity:1;fill-rule:nonzero;stroke:none"
                             id="path9518" /><path
                             d="m 176.94,100.39 c 0,1.66 -1.35,3 -3,3 -1.66,0 -3,-1.34 -3,-3 0,-1.657 1.34,-3 3,-3 1.65,0 3,1.343 3,3 z"
                             style="fill:#000000;fill-opacity:1;fill-rule:nonzero;stroke:none"
                             id="path9520" /><path
                             d="m 176.94,135.12 c 0,1.66 -1.35,3 -3,3 -1.66,0 -3,-1.34 -3,-3 0,-1.65 1.34,-3 3,-3 1.65,0 3,1.35 3,3 z"
                             style="fill:#000000;fill-opacity:1;fill-rule:nonzero;stroke:none"
                             id="path9522" /><path
                             d="m 101.96,60.149 c 0,1.657 -1.34,3 -2.997,3 -1.657,0 -3,-1.343 -3,-3 0,-1.656 1.343,-3 3,-3 1.657,0 2.997,1.344 2.997,3 z"
                             style="fill:#000000;fill-opacity:1;fill-rule:nonzero;stroke:none"
                             id="path9524" /><g
                             id="g9526"
                             transform="matrix(0.19,0,0,0.19,216.999,86.1897)"><path
                               d="m 47.703,-23.594 v 0 6.188 c 4.333,-5.396 7.599,-11.995 9.797,-19.797 0.667,-1.333 1.167,-2.031 1.5,-2.094 0.802,0 1.203,0.333 1.203,1 0,1.136 -0.765,3.667 -2.297,7.594 -2.271,5.739 -5.338,11.042 -9.203,15.906 -0.667,1.333 -1,2.5 -1,3.5 0,6.8022 1.034,10.2032 3.102,10.2032 2.067,0 3.731,-1.1666 4.992,-3.5 C 55.995,-5 56.198,-5.4688 56.406,-6 c 0.261,-0.6667 0.693,-1 1.297,-1 0.802,0 1.203,0.3333 1.203,1 0,1.2708 -0.833,2.7708 -2.5,4.5 -1.739,1.72917 -3.708,2.5938 -5.906,2.5938 -4.198,0 -7.099,-2.2969 -8.703,-6.8907 -0.136,-0.4687 -0.266,-0.9687 -0.391,-1.5 -7,5.5938 -14.036,8.3907 -21.109,8.3907 -6.261,0 -10.8595,-2.5 -13.797,-7.5 -1.6042,-2.7292 -2.4062,-5.8598 -2.4062,-9.3908 0,-6.802 2.6041,-13.104 7.8122,-18.906 5.125,-5.729 10.922,-8.859 17.391,-9.391 0.604,-0.073 1.172,-0.109 1.703,-0.109 5.604,0 9.938,2.203 13,6.609 0,0.063 0.031,0.094 0.094,0.094 2.406,3.531 3.609,8.167 3.609,13.906 z M 41,-9.9062 v 0 c -0.135,-1.1248 -0.203,-4.8538 -0.203,-11.1878 0,-8.208 -0.901,-13.812 -2.703,-16.812 -0.792,-1.334 -1.755,-2.334 -2.891,-3 L 35.094,-41 v 0 H 35 c -1.198,-0.667 -2.562,-1 -4.094,-1 -4.739,0 -9.01,2.667 -12.812,8 l -0.797,1.203 c -2.396,3.865 -4.162,9.266 -5.297,16.203 -0.333,1.865 -0.5,3.396 -0.5,4.594 0,5.6042 1.969,9.0729 5.906,10.4062 0.927,0.3334 1.959,0.5 3.094,0.5 6.938,0 13.771,-2.9374 20.5,-8.8124 z"
                               style="fill:#000000;fill-opacity:1;fill-rule:nonzero;stroke:none"
                               id="path9528" /><g
                               id="g9530"
                               transform="matrix(1.000008,0,0,1.000008,-304.2233,-378.9504)"><path
                                 d="m 26.5,-37.297 v 0 l -5.594,22.094 c -1.135,4.271 -2.036,7.5363 -2.703,9.7968 -1.073,3.2708 -2.073,5.23953 -3,5.9062 v 0.09375 c -0.604,0.33333 -1.271,0.50005 -2,0.50005 -1.531,0 -2.463,-0.66672 -2.797,-2.00005 C 10.333,-1.1042 10.297,-1.3333 10.297,-1.5938 10.297,-2.1979 10.562,-3 11.094,-4 17.365,-17.531 21.635,-28.63 23.906,-37.297 h -5.703 c -5.198,0 -9.4322,2.568 -12.703,7.703 -0.6042,0.792 -1.1354,1.188 -1.5938,1.188 -0.802,0 -1.2031,-0.334 -1.2031,-1 0,-0.729 1.1979,-2.729 3.5938,-6 0.4687,-0.532 0.901,-1.063 1.2969,-1.594 0.2083,-0.271 0.4427,-0.536 0.7031,-0.797 0.1354,-0.198 0.3021,-0.401 0.5,-0.609 2.9371,-3.125 6.4061,-4.688 10.4061,-4.688 h 33.5 c 2.261,0 3.557,0.5 3.891,1.5 v 0.094 c 0.073,0.198 0.109,0.464 0.109,0.797 0,2.271 -1.635,3.406 -4.906,3.406 H 40.406 c -1.208,5.667 -1.812,10.964 -1.812,15.891 0,6.208 0.968,11.7081 2.906,16.4998 0.396,0.9374 0.594,1.6718 0.594,2.2031 0,1.5312 -0.834,2.666642 -2.5,3.40622 C 39.062,0.96354 38.531,1.0938 38,1.0938 c -1.333,0 -2.333,-0.93234 -3,-2.7969 -0.198,-0.5938 -0.396,-1.3281 -0.594,-2.2031 -0.541,-2.2605 -0.812,-4.7917 -0.812,-7.5938 0,-4.396 0.901,-10.76 2.703,-19.094 l 1.5,-6.703 z"
                                 style="fill:#000000;fill-opacity:1;fill-rule:nonzero;stroke:none"
                                 id="path9532" /><g
                                 id="g9534"
                                 transform="matrix(100,0,0,100,-837.87,-74.679)"><path
                                   d="m 8.3787,1.1533 h 0.606 v 0.04 h -0.606 z"
                                   style="fill:#000000;fill-opacity:1;fill-rule:nonzero;stroke:none"
                                   id="path9536" /><g
                                   id="g9538"
                                   transform="matrix(0.01,0,0,0.01,8.4317,2.1092)"><path
                                   d="m 44.906,-17.406 v 0 L 42.094,0 H 5 c 0,-1.6667 0.1979,-2.7344 0.5938,-3.2031 l 0.5,-0.5 19.2032,-21.3909 c 7,-7.875 10.5,-15.245 10.5,-22.109 0,-5.927 -1.797,-10.427 -5.391,-13.5 l -0.109,-0.094 h -0.094 c -2.135,-1.802 -4.734,-2.703 -7.797,-2.703 -4.802,0 -8.635,2.068 -11.5,6.203 -0.802,1.198 -1.4685,2.531 -1.9998,4 0.198,-0.073 0.6303,-0.109 1.2968,-0.109 2.667,0 4.365,1.203 5.094,3.609 v 0.094 c 0.135,0.469 0.203,0.969 0.203,1.5 0,2.667 -1.266,4.37 -3.797,5.109 -0.531,0.125 -1,0.188 -1.406,0.188 -2.4689,0 -4.0991,-1.032 -4.8908,-3.094 C 5.1354,-46.729 5,-47.562 5,-48.5 c 0,-5.135 1.9688,-9.536 5.906,-13.203 3.532,-3.261 7.797,-4.891 12.797,-4.891 7.333,0 13.031,2.464 17.094,7.391 2.333,2.864 3.667,6.265 4,10.203 0.073,0.604 0.109,1.203 0.109,1.797 0,4.864 -1.833,9.5 -5.5,13.906 -1.937,2.261 -4.937,5.261 -9,9 l -6.109,5.391 -1,0.906 -10.594,10.2969 h 18 c 5.865,0 9.031,-0.2657 9.5,-0.7969 0.667,-0.9375 1.401,-3.906 2.203,-8.906 z"
                                   style="fill:#000000;fill-opacity:1;fill-rule:nonzero;stroke:none"
                                   id="path9540" /><g
                                   id="g9542"
                                   transform="translate(83.82,-68.59)"><path
                                   d="m 66.094,-23 h -54.5 c -2.1252,0 -3.2242,-0.667 -3.2971,-2 0,-1.333 1.0989,-2 3.2971,-2 h 54.5 c 2.135,0 3.239,0.667 3.312,2 0,1.333 -1.104,2 -3.312,2 z"
                                   style="fill:#000000;fill-opacity:1;fill-rule:nonzero;stroke:none"
                                   id="path9544" /><g
                                   id="g9546"
                                   transform="translate(100.01)"><path
                                   d="m 47.703,-23.594 v 0 6.188 c 4.333,-5.396 7.599,-11.995 9.797,-19.797 0.667,-1.333 1.167,-2.031 1.5,-2.094 0.802,0 1.203,0.333 1.203,1 0,1.136 -0.765,3.667 -2.297,7.594 -2.271,5.739 -5.338,11.042 -9.203,15.906 -0.667,1.333 -1,2.5 -1,3.5 0,6.8022 1.034,10.2032 3.102,10.2032 2.067,0 3.731,-1.1666 4.992,-3.5 C 55.995,-5 56.198,-5.4688 56.406,-6 c 0.261,-0.6667 0.693,-1 1.297,-1 0.802,0 1.203,0.3333 1.203,1 0,1.2708 -0.833,2.7708 -2.5,4.5 -1.739,1.72917 -3.708,2.5938 -5.906,2.5938 -4.198,0 -7.099,-2.2969 -8.703,-6.8907 -0.136,-0.4687 -0.266,-0.9687 -0.391,-1.5 -7,5.5938 -14.036,8.3907 -21.109,8.3907 -6.261,0 -10.8595,-2.5 -13.797,-7.5 -1.6042,-2.7292 -2.4062,-5.8598 -2.4062,-9.3908 0,-6.802 2.6041,-13.104 7.8122,-18.906 5.125,-5.729 10.922,-8.859 17.391,-9.391 0.604,-0.073 1.172,-0.109 1.703,-0.109 5.604,0 9.938,2.203 13,6.609 0,0.063 0.031,0.094 0.094,0.094 2.406,3.531 3.609,8.167 3.609,13.906 z M 41,-9.9062 v 0 c -0.135,-1.1248 -0.203,-4.8538 -0.203,-11.1878 0,-8.208 -0.901,-13.812 -2.703,-16.812 -0.792,-1.334 -1.755,-2.334 -2.891,-3 L 35.094,-41 v 0 H 35 c -1.198,-0.667 -2.562,-1 -4.094,-1 -4.739,0 -9.01,2.667 -12.812,8 l -0.797,1.203 c -2.396,3.865 -4.162,9.266 -5.297,16.203 -0.333,1.865 -0.5,3.396 -0.5,4.594 0,5.6042 1.969,9.0729 5.906,10.4062 0.927,0.3334 1.959,0.5 3.094,0.5 6.938,0 13.771,-2.9374 20.5,-8.8124 z"
                                   style="fill:#000000;fill-opacity:1;fill-rule:nonzero;stroke:none"
                                   id="path9548" /><g
                                   id="g9550"
                                   transform="matrix(5.2632,0,0,5.2632,-1027,-142.33)" /></g></g></g></g></g></g></g></g></g></g></g><g
                   id="g9552"
                   transform="scale(0.56693)" /></g></g></g></g></g></g></g></svg>
