<?xml version="1.0" encoding="UTF-8" standalone="no"?>
<svg
   xmlns:dc="http://purl.org/dc/elements/1.1/"
   xmlns:cc="http://creativecommons.org/ns#"
   xmlns:rdf="http://www.w3.org/1999/02/22-rdf-syntax-ns#"
   xmlns:svg="http://www.w3.org/2000/svg"
   xmlns="http://www.w3.org/2000/svg"
   xmlns:sodipodi="http://sodipodi.sourceforge.net/DTD/sodipodi-0.dtd"
   xmlns:inkscape="http://www.inkscape.org/namespaces/inkscape"
   version="1.1"
   id="svg798"
   xml:space="preserve"
   width="178.66667"
   height="121.33333"
   viewBox="0 0 178.66667 121.33333"
   sodipodi:docname="2020-1011-1010-crop.pdf"><metadata
     id="metadata804"><rdf:RDF><cc:Work
         rdf:about=""><dc:format>image/svg+xml</dc:format><dc:type
           rdf:resource="http://purl.org/dc/dcmitype/StillImage" /></cc:Work></rdf:RDF></metadata><defs
     id="defs802"><clipPath
       clipPathUnits="userSpaceOnUse"
       id="clipPath816"><path
         d="M 0,0 H 192 V 130 H 0 Z"
         id="path814" /></clipPath><clipPath
       clipPathUnits="userSpaceOnUse"
       id="clipPath826"><path
         d="M 0,0 H 192 V 130 H 0 Z"
         id="path824" /></clipPath><clipPath
       clipPathUnits="userSpaceOnUse"
       id="clipPath838"><path
         d="M 0,0 V 130 H 192 V 0 Z"
         id="path836" /></clipPath><clipPath
       clipPathUnits="userSpaceOnUse"
       id="clipPath848"><path
         d="M 0,0 H 309 V 210 H 0 Z"
         id="path846" /></clipPath></defs><sodipodi:namedview
     pagecolor="#ffffff"
     bordercolor="#666666"
     borderopacity="1"
     objecttolerance="10"
     gridtolerance="10"
     guidetolerance="10"
     inkscape:pageopacity="0"
     inkscape:pageshadow="2"
     inkscape:window-width="640"
     inkscape:window-height="480"
     id="namedview800" /><g
     id="g806"
     inkscape:groupmode="layer"
     inkscape:label="2020-1011-1010-crop"
     transform="matrix(1.3333333,0,0,-1.3333333,0,121.33333)"><g
       id="g808"
       transform="translate(-29,-19)"><g
         id="g810"><g
           id="g812"
           clip-path="url(#clipPath816)"><g
             id="g818"
             transform="matrix(0.69231,0,0,-0.69231,29.538,110)"><g
               id="g820"><g
                 id="g822"
                 clip-path="url(#clipPath826)"><g
                   id="g828"><g
                     id="g830" /></g><g
                   id="g832"><g
                     id="g834"
                     clip-path="url(#clipPath838)"><g
                       id="g840"
                       transform="scale(0.62362)" /></g></g><g
                   id="g842"
                   transform="scale(0.62362)"><g
                     id="g844"
                     clip-path="url(#clipPath848)"><path
                       d="M 0,0 H 309 V 210 H 0 Z"
                       style="fill:#ffffff;fill-opacity:1;fill-rule:nonzero;stroke:none"
                       id="path850" /><path
                       d="M 154.38,2 V 210"
                       style="fill:none;stroke:#000000;stroke-width:1;stroke-linecap:butt;stroke-linejoin:miter;stroke-miterlimit:10;stroke-dasharray:none;stroke-opacity:1"
                       id="path852" /><path
                       d="m 154.38,1 -4,4"
                       style="fill:none;stroke:#000000;stroke-width:1;stroke-linecap:butt;stroke-linejoin:miter;stroke-miterlimit:10;stroke-dasharray:none;stroke-opacity:1"
                       id="path854" /><path
                       d="m 154.38,1 4,4"
                       style="fill:none;stroke:#000000;stroke-width:1;stroke-linecap:butt;stroke-linejoin:miter;stroke-miterlimit:10;stroke-dasharray:none;stroke-opacity:1"
                       id="path856" /><path
                       d="m 291.12,118 3.04,-4.31 -2.82,-3.99 h 1.77 l 1.27,1.94 c 0.23,0.38 0.43,0.69 0.57,0.94 0.23,-0.35 0.45,-0.65 0.64,-0.92 l 1.39,-1.96 h 1.69 l -2.87,3.91 3.09,4.39 h -1.73 l -1.71,-2.58 -0.45,-0.7 -2.17,3.28 z"
                       style="fill:#000000;fill-opacity:1;fill-rule:nonzero;stroke:none"
                       id="path858" /><path
                       d="M 0,122.52 H 307"
                       style="fill:none;stroke:#000000;stroke-width:1;stroke-linecap:butt;stroke-linejoin:miter;stroke-miterlimit:10;stroke-dasharray:none;stroke-opacity:1"
                       id="path860" /><path
                       d="m 308,122.52 -4,-4"
                       style="fill:none;stroke:#000000;stroke-width:1;stroke-linecap:butt;stroke-linejoin:miter;stroke-miterlimit:10;stroke-dasharray:none;stroke-opacity:1"
                       id="path862" /><path
                       d="m 308,122.52 -4,4"
                       style="fill:none;stroke:#000000;stroke-width:1;stroke-linecap:butt;stroke-linejoin:miter;stroke-miterlimit:10;stroke-dasharray:none;stroke-opacity:1"
                       id="path864" /><path
                       d="m 160,24.203 -0.16,-1.328 c 0.31,0.083 0.57,0.125 0.8,0.125 0.31,0 0.56,-0.052 0.75,-0.156 0.19,-0.104 0.34,-0.25 0.47,-0.438 0.08,-0.135 0.22,-0.484 0.42,-1.047 0.03,-0.073 0.07,-0.187 0.13,-0.343 l -3.14,-8.313 h 1.51 l 1.72,4.797 c 0.23,0.615 0.43,1.255 0.61,1.922 0.16,-0.646 0.35,-1.276 0.58,-1.891 l 1.76,-4.828 h 1.41 l -3.16,8.438 c -0.33,0.916 -0.59,1.547 -0.78,1.89 -0.25,0.459 -0.53,0.797 -0.86,1.016 -0.32,0.219 -0.71,0.328 -1.15,0.328 -0.27,0 -0.58,-0.057 -0.91,-0.172 z"
                       style="fill:#000000;fill-opacity:1;fill-rule:nonzero;stroke:none"
                       id="path866" /><path
                       d="m 0,144.69 2.4141,-4.33 2.414,-4.53 2.4141,-4.68 2.414,-4.78 2.4138,-4.83 2.414,-4.81 2.414,-4.75 2.414,-4.63 2.415,-4.45 2.414,-4.239 2.414,-3.967 2.414,-3.653 2.414,-3.299 2.414,-2.906 2.414,-2.482 2.414,-2.029 2.414,-1.553 2.414,-1.06 1.207,-0.341 1.207,-0.214 2.414,-0.044 1.207,0.171 1.207,0.297 2.414,0.975 2.414,1.471 2.415,1.949 2.414,2.407 2.414,2.836 2.414,3.234 2.414,3.596 2.414,3.917 2.414,4.194 2.414,4.42 2.414,4.61 2.414,4.73 2.414,4.8 2.414,4.83 2.414,4.79 2.414,4.7 2.414,4.56 2.414,4.37 2.414,4.13 2.415,3.84 2.413,3.51 2.41,3.14 2.42,2.73 2.41,2.29 2.42,1.83 2.41,1.35 2.42,0.84 1.2,0.24 1.21,0.1 2.41,-0.17 1.21,-0.28 1.21,-0.41 2.41,-1.18 2.42,-1.68 2.41,-2.14 2.41,-2.6 2.42,-3 2.41,-3.4 2.42,-3.73 2.41,-4.04 2.41,-4.3 2.42,-4.51 2.41,-4.66 2.42,-4.77 2.41,-4.82 2.41,-4.82 2.42,-4.76 2.41,-4.65 2.42,-4.48 2.41,-4.276 2.41,-4.011 2.42,-3.704 2.41,-3.356 2.42,-2.969 2.41,-2.548 2.41,-2.1 2.42,-1.628 2.41,-1.136 1.21,-0.38 1.21,-0.253 2.41,-0.122 1.21,0.131 1.2,0.259 2.42,0.897 2.41,1.396 2.42,1.877 2.41,2.338 2.42,2.773 2.41,3.175 2.41,3.543 2.42,3.871 2.41,4.153 2.42,4.39 2.41,4.58 2.41,4.71 2.42,4.8 2.41,4.83 2.42,4.8 2.41,4.72 2.41,4.59 2.42,4.4 2.41,4.17 2.42,3.88 2.41,3.56 2.41,3.2 2.42,2.79 2.41,2.37 2.42,1.9 2.41,1.42 2.41,0.93 1.21,0.27 1.21,0.14 2.41,-0.09 1.21,-0.24 1.21,-0.37 2.41,-1.11 2.42,-1.6 2.41,-2.07 2.41,-2.53 2.42,-2.95 2.41,-3.33 2.42,-3.69 2.41,-4 2.41,-4.26 2.42,-4.47 2.41,-4.65 2.42,-4.75 2.41,-4.82 2.41,-4.82 2.42,-4.77 2.41,-4.67 2.42,-4.52 2.41,-4.307"
                       style="fill:none;stroke:#666666;stroke-width:2.5;stroke-linecap:butt;stroke-linejoin:round;stroke-miterlimit:10;stroke-dasharray:10.5, 8;stroke-dashoffset:0;stroke-opacity:0.69804"
                       id="path868" /><g
                       id="g870"
                       transform="scale(19)"><g
                         id="g872"
                         transform="matrix(0.01,0,0,0.01,0.84211,8.4342)"><path
                           d="M 48.594,-38.094 39,0.09375 C 37.396,6.6354 33.828,11.938 28.297,16 24.234,19 20,20.5 15.594,20.5 11.135,20.5 7.9688,18.969 6.0938,15.906 5.3646,14.635 5,13.266 5,11.797 5,8.401 6.3646,6.3021 9.0938,5.5 9.6354,5.3646 10.135,5.2969 10.594,5.2969 c 2.135,0 3.338,0.9323 3.609,2.7969 0.063,0.2083 0.094,0.4427 0.094,0.7031 0,1.5311 -0.667,2.9011 -2,4.1091 -0.927,0.792 -2.3595,1.188 -4.297,1.188 1.1979,2.802 3.729,4.203 7.594,4.203 4.135,0 7.802,-2.099 11,-6.297 2.604,-3.4688 4.672,-8.1667 6.203,-14.0938 0.073,-0.2708 0.172,-0.7083 0.297,-1.3124 -3,2.99995 -6.365,4.5 -10.094,4.5 -5.333,0 -8.969,-1.96359 -10.906,-5.8907 -0.865,-1.7396 -1.297,-3.7396 -1.297,-6.0001 0,-3.667 1.765,-10.234 5.297,-19.703 0.135,-0.396 0.302,-0.828 0.5,-1.297 1.135,-3.073 1.703,-5.406 1.703,-7 0,-2.135 -0.833,-3.203 -2.5,-3.203 -3.667,0 -6.6668,3.031 -9.0001,9.094 v 0.109 c -0.3959,1 -0.7604,2.068 -1.0938,3.203 -0.7396,1.125 -1.276,1.724 -1.6093,1.797 -0.7917,0 -1.1876,-0.333 -1.1876,-1 0,-1.198 0.698,-3.297 2.0938,-6.297 2.9375,-6.073 6.635,-9.109 11.094,-9.109 3.541,0 6.01,1.5 7.406,4.5 0.531,1.135 0.797,2.37 0.797,3.703 0,1.396 -0.667,3.797 -2,7.203 -3.396,8.802 -5.094,15.333 -5.094,19.5939 0,5.4062 2.068,8.1093 6.203,8.1093 3.865,0 7.229,-2.0677 10.094,-6.2031 0.667,-1 1.068,-1.7656 1.203,-2.2969 l 4.5,-18.0002 c 0.469,-2.208 1.136,-4.875 2,-8 0.667,-2.875 1.13,-4.677 1.391,-5.406 0.875,-1.396 2.041,-2.094 3.5,-2.094 1.666,0.334 2.635,1.229 2.906,2.688 0,0.604 -0.135,1.375 -0.406,2.312 z"
                           style="fill:#000000;fill-opacity:1;fill-rule:nonzero;stroke:none"
                           id="path874" /><g
                           id="g876"
                           transform="translate(80.379)"><path
                             d="M 68.703,-32.703 H 9 c -2.1354,0 -3.2708,-0.667 -3.4062,-2 0,-1.333 1.1041,-2 3.3124,-2 H 68.797 c 2.135,0 3.234,0.667 3.297,2 0,1.333 -1.13,2 -3.391,2 z m 0.094,19.406 H 8.9062 c -2.1354,0 -3.2395,-0.667 -3.3124,-2 0,-1.333 1.1354,-2 3.4062,-2 h 59.703 c 2.136,0 3.266,0.667 3.391,2 0,1.333 -1.099,2 -3.297,2 z"
                             style="fill:#000000;fill-opacity:1;fill-rule:nonzero;stroke:none"
                             id="path878" /><g
                             id="g880"
                             transform="translate(105.58)"><path
                               d="m 36.703,-40 v 0 l -6,31.7031 c -0.604,4.1354 -1.807,8.86982 -3.609,14.2031 -0.667,1.9271 -1.334,3.5573 -2,4.8908 -2.334,4.937 -5.229,8.005 -8.688,9.203 -0.875,0.333 -1.745,0.5 -2.609,0.5 -3.333,0 -5.797,-1.135 -7.3908,-3.406 -0.7395,-1 -1.1093,-2.167 -1.1093,-3.5 0,-2.667 1.1354,-4.5002 3.4062,-5.5002 0.6667,-0.3334 1.3649,-0.5 2.0939,-0.5 1.937,0 3.141,0.8333 3.609,2.5002 0.063,0.333 0.094,0.666 0.094,1 0,2.271 -1,3.875 -3,4.812 -0.729,0.334 -1.5625,0.532 -2.5,0.594 1.271,1.198 2.87,1.797 4.797,1.797 2.937,0 5.239,-3.266 6.906,-9.797 0.333,-1.5312 0.735,-3.5312 1.203,-6 L 22.5,-0.5 30,-40 h -6.594 c -1.666,0 -2.567,-0.266 -2.703,-0.797 h -0.109 v -0.406 c 0,-1.136 0.567,-1.766 1.703,-1.891 v 0 h 1.297 6.906 c 1.604,-8.333 2.703,-13.567 3.297,-15.703 2,-6.667 5.536,-10.5 10.609,-11.5 0.729,-0.135 1.427,-0.203 2.094,-0.203 3.469,0 6,1.135 7.594,3.406 v 0 c 0.739,1 1.109,2.167 1.109,3.5 0,2.667 -1.135,4.5 -3.406,5.5 -0.667,0.334 -1.365,0.5 -2.094,0.5 -1.937,0 -3.141,-0.833 -3.609,-2.5 -0.063,-0.333 -0.094,-0.666 -0.094,-1 0,-2.073 0.932,-3.609 2.797,-4.609 0.739,-0.469 1.609,-0.735 2.609,-0.797 -1.271,-1.198 -2.906,-1.797 -4.906,-1.797 -2.062,0 -3.63,1.13 -4.703,3.391 -0.469,0.937 -1.266,4.406 -2.391,10.406 l -2.109,11.406 h 8.297 c 1.666,0 2.567,0.365 2.703,1.094 0,1.198 -0.531,1.865 -1.594,2 h -0.109 -1.297 z"
                               style="fill:#000000;fill-opacity:1;fill-rule:nonzero;stroke:none"
                               id="path882" /><g
                               id="g884"
                               transform="translate(59.8)"><path
                                 d="m 33.094,24 v 0 c 0,0.667 -0.334,1 -1,1 -0.792,0 -2.558,-1.365 -5.297,-4.094 C 22.661,16.771 19.229,11.87 16.5,6.2031 12.104,-2.8698 9.9062,-13.271 9.9062,-25 c 0,-11.271 2.0988,-21.438 6.2968,-30.5 3.469,-7.396 7.87,-13.328 13.203,-17.797 1.396,-1.135 2.292,-1.703 2.688,-1.703 0.666,0 1,0.333 1,1 0,0.333 -0.433,0.901 -1.297,1.703 C 21.068,-61.37 15.703,-45.604 15.703,-25 c 0,20.5312 5.235,36.13 15.703,46.797 1.125,1.135 1.688,1.87 1.688,2.203 z"
                                 style="fill:#000000;fill-opacity:1;fill-rule:nonzero;stroke:none"
                                 id="path886" /><g
                                 id="g888"
                                 transform="translate(38.9)"><path
                                   d="M 33.406,-30.203 30,-16.5 c -1.135,4.531 -1.703,7.4635 -1.703,8.7969 0,3.4687 1.234,5.5677 3.703,6.2969 0.531,0.2083 1.13,0.3124 1.797,0.3124 3.333,0 6.37,-1.6666 9.109,-5 1.792,-2.1354 3.188,-4.8382 4.188,-8.1092 0.208,-0.729 0.646,-1.094 1.312,-1.094 0.792,0 1.188,0.333 1.188,1 0,1.667 -1.032,4.068 -3.094,7.2032 -3.604,5.4584 -7.906,8.1876 -12.906,8.1876 -4.532,0 -7.828,-1.89588 -9.891,-5.6876 -0.406,-0.6041 -0.708,-1.2395 -0.906,-1.9062 -1.594,3.1979 -3.792,5.4323 -6.594,6.70312 -1.271,0.59376 -2.573,0.89068 -3.906,0.89068 -4.0001,0 -6.797,-1.166717 -8.3908,-3.5 -0.6666,-0.8646 -1,-1.8959 -1,-3.0938 0,-2.4688 1.0626,-4.2031 3.1876,-5.203 0.7395,-0.396 1.5104,-0.594 2.3124,-0.594 1.9998,0 3.1978,0.833 3.5938,2.5001 0.062,0.3334 0.094,0.6667 0.094,1 0,2.2604 -1.13,3.9271 -3.3909,5 -0.4062,0.1979 -0.8385,0.3281 -1.2969,0.3907 1.3959,0.875 3.0628,1.3124 4.9998,1.3124 3.532,0 6.328,-2.3697 8.391,-7.1093 0.406,-1 0.776,-2.0989 1.109,-3.2969 3.594,-13.604 5.391,-21.536 5.391,-23.797 -0.396,-4.135 -2.193,-6.37 -5.391,-6.703 -3.468,0 -6.635,1.766 -9.5,5.297 v 0.109 c 0,0.063 -0.036,0.094 -0.109,0.094 -1,1.333 -1.901,2.865 -2.7032,4.594 -0.3334,0.802 -0.6303,1.604 -0.8907,2.406 L 8.5,-28.906 c -0.1354,0.739 -0.5677,1.109 -1.2969,1.109 -0.8021,0 -1.2031,-0.333 -1.2031,-1 0,-1.667 1.0677,-4.068 3.2031,-7.203 3.5939,-5.469 7.8909,-8.203 12.8909,-8.203 5.135,0 8.739,2.536 10.812,7.609 2.125,-4.135 4.959,-6.604 8.5,-7.406 0.667,-0.135 1.334,-0.203 2,-0.203 3.927,0 6.693,1.099 8.297,3.297 0.667,0.937 1,2.041 1,3.312 0,2.729 -1.234,4.563 -3.703,5.5 -0.604,0.198 -1.172,0.297 -1.703,0.297 -2.063,0 -3.297,-0.901 -3.703,-2.703 -0.063,-0.271 -0.094,-0.536 -0.094,-0.797 0,-2 0.969,-3.568 2.906,-4.703 0.594,-0.333 1.224,-0.568 1.891,-0.703 -1.396,-0.865 -3.063,-1.297 -5,-1.297 -4.531,0 -7.729,3.531 -9.594,10.594 -0.135,0.406 -0.234,0.807 -0.297,1.203 z"
                                   style="fill:#000000;fill-opacity:1;fill-rule:nonzero;stroke:none"
                                   id="path890" /><g
                                   id="g892"
                                   transform="translate(57.2)"><path
                                   d="m 28.906,-25 v 0 c 0,11.271 -2.104,21.4375 -6.312,30.5 C 19.135,12.896 14.74,18.828 9.4062,23.297 8,24.432 7.099,25 6.7031,25 c -0.6666,0 -1,-0.333 -1,-1 C 5.7031,23.667 6.1354,23.099 7,22.297 17.729,11.37 23.094,-4.3958 23.094,-25 c 0,-20.333 -5,-35.734 -15.0002,-46.203 l -0.5,-0.5 C 6.3333,-72.901 5.7031,-73.667 5.7031,-74 c 0,-0.667 0.3334,-1 1,-1 0.8021,0 2.5677,1.365 5.2969,4.094 4.135,4.135 7.568,9.036 10.297,14.703 4.406,9.073 6.609,19.474 6.609,31.203 z"
                                   style="fill:#000000;fill-opacity:1;fill-rule:nonzero;stroke:none"
                                   id="path894" /><g
                                   id="g896"
                                   transform="matrix(100,0,0,100,-426.07,-843.42)"><g
                                   id="g898"
                                   transform="scale(0.052632)"><path
                                   d="m 0,100.35 2.4141,4.34 2.414,4.53 2.4141,4.68 2.414,4.78 1.2068,2.41 0.604,1.21 0.603,-0.76 2.414,-4.81 2.414,-4.75 2.414,-4.63 2.415,-4.45 2.414,-4.239 2.414,-3.967 2.414,-3.653 2.414,-3.299 2.414,-2.906 2.414,-2.482 2.414,-2.029 2.414,-1.553 2.414,-1.06 1.207,-0.341 1.207,-0.214 2.414,-0.044 1.207,0.171 1.207,0.297 2.414,0.975 2.414,1.471 2.415,1.949 2.414,2.407 2.414,2.836 2.414,3.234 2.414,3.596 2.414,3.917 2.414,4.194 2.414,4.42 2.414,4.61 2.414,4.73 2.414,4.8 0.604,1.21 0.301,0.59 0.302,-0.61 1.207,-2.41 2.414,-4.79 2.414,-4.7 2.414,-4.57 2.414,-4.37 2.414,-4.124 2.415,-3.839 2.413,-3.508 2.41,-3.137 2.42,-2.73 2.41,-2.294 2.42,-1.83 2.41,-1.346 2.42,-0.847 1.2,-0.234 1.21,-0.105 2.41,0.173 1.21,0.279 1.21,0.405 2.41,1.186 2.42,1.676 2.41,2.146 2.41,2.592 2.42,3.009 2.41,3.392 2.42,3.737 2.41,4.039 2.41,4.3 2.42,4.5 2.41,4.67 2.42,4.76 2.41,4.34 0.3,-0.6 0.3,-0.6 0.61,-1.21 1.2,-2.41 2.42,-4.76 2.41,-4.65 2.42,-4.48 2.41,-4.276 2.41,-4.011 2.42,-3.704 2.41,-3.356 2.42,-2.969 2.41,-2.548 2.41,-2.1 2.42,-1.628 2.41,-1.136 1.21,-0.38 1.21,-0.253 2.41,-0.122 1.21,0.131 1.2,0.259 2.42,0.897 2.41,1.396 2.42,1.877 2.41,2.338 2.42,2.773 2.41,3.175 2.41,3.543 2.42,3.871 2.41,4.153 2.42,4.39 2.41,4.58 2.41,4.71 2.42,4.8 1.2,2.41 0.61,-0.94 0.6,-1.21 2.42,-4.8 2.41,-4.72 2.41,-4.59 2.42,-4.4 2.41,-4.169 2.42,-3.886 2.41,-3.562 2.41,-3.196 2.42,-2.795 2.41,-2.362 2.42,-1.902 2.41,-1.422 2.41,-0.924 1.21,-0.273 1.21,-0.144 2.41,0.094 1.21,0.24 1.21,0.366 2.41,1.11 2.42,1.602 2.41,2.075 2.41,2.526 2.42,2.947 2.41,3.336 2.42,3.686 2.41,3.996 2.41,4.257 2.42,4.48 2.41,4.64 2.42,4.76 2.41,4.81 0.6,-0.2 0.61,-1.21 1.2,-2.41 2.42,-4.77 2.41,-4.67 2.42,-4.52 2.41,-4.307"
                                   style="fill:none;stroke:#0033cc;stroke-width:2.5;stroke-linecap:round;stroke-linejoin:round;stroke-miterlimit:10;stroke-dasharray:none;stroke-opacity:0.69804"
                                   id="path900" /><g
                                   id="g902"
                                   transform="scale(19)"><g
                                   id="g904"
                                   transform="matrix(0.01,0,0,0.01,1.1053,3.0132)"><path
                                   d="M 48.594,-38.094 39,0.09375 C 37.396,6.6354 33.828,11.938 28.297,16 24.234,19 20,20.5 15.594,20.5 11.135,20.5 7.9688,18.969 6.0938,15.906 5.3646,14.635 5,13.266 5,11.797 5,8.401 6.3646,6.3021 9.0938,5.5 9.6354,5.3646 10.135,5.2969 10.594,5.2969 c 2.135,0 3.338,0.9323 3.609,2.7969 0.063,0.2083 0.094,0.4427 0.094,0.7031 0,1.5311 -0.667,2.9011 -2,4.1091 -0.927,0.792 -2.3595,1.188 -4.297,1.188 1.1979,2.802 3.729,4.203 7.594,4.203 4.135,0 7.802,-2.099 11,-6.297 2.604,-3.4688 4.672,-8.1667 6.203,-14.0938 0.073,-0.2708 0.172,-0.7083 0.297,-1.3124 -3,2.99995 -6.365,4.5 -10.094,4.5 -5.333,0 -8.969,-1.96359 -10.906,-5.8907 -0.865,-1.7396 -1.297,-3.7396 -1.297,-6.0001 0,-3.667 1.765,-10.234 5.297,-19.703 0.135,-0.396 0.302,-0.828 0.5,-1.297 1.135,-3.073 1.703,-5.406 1.703,-7 0,-2.135 -0.833,-3.203 -2.5,-3.203 -3.667,0 -6.6668,3.031 -9.0001,9.094 v 0.109 c -0.3959,1 -0.7604,2.068 -1.0938,3.203 -0.7396,1.125 -1.276,1.724 -1.6093,1.797 -0.7917,0 -1.1876,-0.333 -1.1876,-1 0,-1.198 0.698,-3.297 2.0938,-6.297 2.9375,-6.073 6.635,-9.109 11.094,-9.109 3.541,0 6.01,1.5 7.406,4.5 0.531,1.135 0.797,2.37 0.797,3.703 0,1.396 -0.667,3.797 -2,7.203 -3.396,8.802 -5.094,15.333 -5.094,19.5939 0,5.4062 2.068,8.1093 6.203,8.1093 3.865,0 7.229,-2.0677 10.094,-6.2031 0.667,-1 1.068,-1.7656 1.203,-2.2969 l 4.5,-18.0002 c 0.469,-2.208 1.136,-4.875 2,-8 0.667,-2.875 1.13,-4.677 1.391,-5.406 0.875,-1.396 2.041,-2.094 3.5,-2.094 1.666,0.334 2.635,1.229 2.906,2.688 0,0.604 -0.135,1.375 -0.406,2.312 z"
                                   style="fill:#000000;fill-opacity:1;fill-rule:nonzero;stroke:none"
                                   id="path906" /><g
                                   id="g908"
                                   transform="translate(80.37)"><path
                                   d="M 68.703,-32.703 H 9 c -2.1354,0 -3.2708,-0.667 -3.4062,-2 0,-1.333 1.1041,-2 3.3124,-2 H 68.797 c 2.135,0 3.234,0.667 3.297,2 0,1.333 -1.13,2 -3.391,2 z m 0.094,19.406 H 8.9062 c -2.1354,0 -3.2395,-0.667 -3.3124,-2 0,-1.333 1.1354,-2 3.4062,-2 h 59.703 c 2.136,0 3.266,0.667 3.391,2 0,1.333 -1.099,2 -3.297,2 z"
                                   style="fill:#000000;fill-opacity:1;fill-rule:nonzero;stroke:none"
                                   id="path910" /><g
                                   id="g912"
                                   transform="translate(105.58)"><path
                                   d="m 15.906,-71.703 v 93.406 c 0,2.136 -0.666,3.235 -2,3.297 -1.333,0 -2,-1.099 -2,-3.297 v -93.406 c 0,-2.136 0.667,-3.235 2,-3.297 1.334,0 2,1.099 2,3.297 z"
                                   style="fill:#000000;fill-opacity:1;fill-rule:nonzero;stroke:none"
                                   id="path914" /><g
                                   id="g916"
                                   transform="translate(27.8)"><path
                                   d="m 36.703,-40 v 0 l -6,31.7031 c -0.604,4.1354 -1.807,8.86982 -3.609,14.2031 -0.667,1.9271 -1.334,3.5573 -2,4.8908 -2.334,4.937 -5.229,8.005 -8.688,9.203 -0.875,0.333 -1.745,0.5 -2.609,0.5 -3.333,0 -5.797,-1.135 -7.3908,-3.406 -0.7395,-1 -1.1093,-2.167 -1.1093,-3.5 0,-2.667 1.1354,-4.5002 3.4062,-5.5002 0.6667,-0.3334 1.3649,-0.5 2.0939,-0.5 1.937,0 3.141,0.8333 3.609,2.5002 0.063,0.333 0.094,0.666 0.094,1 0,2.271 -1,3.875 -3,4.812 -0.729,0.334 -1.5625,0.532 -2.5,0.594 1.271,1.198 2.87,1.797 4.797,1.797 2.937,0 5.239,-3.266 6.906,-9.797 0.333,-1.5312 0.735,-3.5312 1.203,-6 L 22.5,-0.5 30,-40 h -6.594 c -1.666,0 -2.567,-0.266 -2.703,-0.797 h -0.109 v -0.406 c 0,-1.136 0.567,-1.766 1.703,-1.891 v 0 h 1.297 6.906 c 1.604,-8.333 2.703,-13.567 3.297,-15.703 2,-6.667 5.536,-10.5 10.609,-11.5 0.729,-0.135 1.427,-0.203 2.094,-0.203 3.469,0 6,1.135 7.594,3.406 v 0 c 0.739,1 1.109,2.167 1.109,3.5 0,2.667 -1.135,4.5 -3.406,5.5 -0.667,0.334 -1.365,0.5 -2.094,0.5 -1.937,0 -3.141,-0.833 -3.609,-2.5 -0.063,-0.333 -0.094,-0.666 -0.094,-1 0,-2.073 0.932,-3.609 2.797,-4.609 0.739,-0.469 1.609,-0.735 2.609,-0.797 -1.271,-1.198 -2.906,-1.797 -4.906,-1.797 -2.062,0 -3.63,1.13 -4.703,3.391 -0.469,0.937 -1.266,4.406 -2.391,10.406 l -2.109,11.406 h 8.297 c 1.666,0 2.567,0.365 2.703,1.094 0,1.198 -0.531,1.865 -1.594,2 h -0.109 -1.297 z"
                                   style="fill:#000000;fill-opacity:1;fill-rule:nonzero;stroke:none"
                                   id="path918" /><g
                                   id="g920"
                                   transform="translate(59.8)"><path
                                   d="m 33.094,24 v 0 c 0,0.667 -0.334,1 -1,1 -0.792,0 -2.558,-1.365 -5.297,-4.094 C 22.661,16.771 19.229,11.87 16.5,6.2031 12.104,-2.8698 9.9062,-13.271 9.9062,-25 c 0,-11.271 2.0988,-21.438 6.2968,-30.5 3.469,-7.396 7.87,-13.328 13.203,-17.797 1.396,-1.135 2.292,-1.703 2.688,-1.703 0.666,0 1,0.333 1,1 0,0.333 -0.433,0.901 -1.297,1.703 C 21.068,-61.37 15.703,-45.604 15.703,-25 c 0,20.5312 5.235,36.13 15.703,46.797 1.125,1.135 1.688,1.87 1.688,2.203 z"
                                   style="fill:#000000;fill-opacity:1;fill-rule:nonzero;stroke:none"
                                   id="path922" /><g
                                   id="g924"
                                   transform="translate(38.9)"><path
                                   d="M 33.406,-30.203 30,-16.5 c -1.135,4.531 -1.703,7.4635 -1.703,8.7969 0,3.4687 1.234,5.5677 3.703,6.2969 0.531,0.2083 1.13,0.3124 1.797,0.3124 3.333,0 6.37,-1.6666 9.109,-5 1.792,-2.1354 3.188,-4.8382 4.188,-8.1092 0.208,-0.729 0.646,-1.094 1.312,-1.094 0.792,0 1.188,0.333 1.188,1 0,1.667 -1.032,4.068 -3.094,7.2032 -3.604,5.4584 -7.906,8.1876 -12.906,8.1876 -4.532,0 -7.828,-1.89588 -9.891,-5.6876 -0.406,-0.6041 -0.708,-1.2395 -0.906,-1.9062 -1.594,3.1979 -3.792,5.4323 -6.594,6.70312 -1.271,0.59376 -2.573,0.89068 -3.906,0.89068 -4.0001,0 -6.797,-1.166717 -8.3908,-3.5 -0.6666,-0.8646 -1,-1.8959 -1,-3.0938 0,-2.4688 1.0626,-4.2031 3.1876,-5.203 0.7395,-0.396 1.5104,-0.594 2.3124,-0.594 1.9998,0 3.1978,0.833 3.5938,2.5001 0.062,0.3334 0.094,0.6667 0.094,1 0,2.2604 -1.13,3.9271 -3.3909,5 -0.4062,0.1979 -0.8385,0.3281 -1.2969,0.3907 1.3959,0.875 3.0628,1.3124 4.9998,1.3124 3.532,0 6.328,-2.3697 8.391,-7.1093 0.406,-1 0.776,-2.0989 1.109,-3.2969 3.594,-13.604 5.391,-21.536 5.391,-23.797 -0.396,-4.135 -2.193,-6.37 -5.391,-6.703 -3.468,0 -6.635,1.766 -9.5,5.297 v 0.109 c 0,0.063 -0.036,0.094 -0.109,0.094 -1,1.333 -1.901,2.865 -2.7032,4.594 -0.3334,0.802 -0.6303,1.604 -0.8907,2.406 L 8.5,-28.906 c -0.1354,0.739 -0.5677,1.109 -1.2969,1.109 -0.8021,0 -1.2031,-0.333 -1.2031,-1 0,-1.667 1.0677,-4.068 3.2031,-7.203 3.5939,-5.469 7.8909,-8.203 12.8909,-8.203 5.135,0 8.739,2.536 10.812,7.609 2.125,-4.135 4.959,-6.604 8.5,-7.406 0.667,-0.135 1.334,-0.203 2,-0.203 3.927,0 6.693,1.099 8.297,3.297 0.667,0.937 1,2.041 1,3.312 0,2.729 -1.234,4.563 -3.703,5.5 -0.604,0.198 -1.172,0.297 -1.703,0.297 -2.063,0 -3.297,-0.901 -3.703,-2.703 -0.063,-0.271 -0.094,-0.536 -0.094,-0.797 0,-2 0.969,-3.568 2.906,-4.703 0.594,-0.333 1.224,-0.568 1.891,-0.703 -1.396,-0.865 -3.063,-1.297 -5,-1.297 -4.531,0 -7.729,3.531 -9.594,10.594 -0.135,0.406 -0.234,0.807 -0.297,1.203 z"
                                   style="fill:#000000;fill-opacity:1;fill-rule:nonzero;stroke:none"
                                   id="path926" /><g
                                   id="g928"
                                   transform="translate(57.2)"><path
                                   d="m 28.906,-25 v 0 c 0,11.271 -2.104,21.4375 -6.312,30.5 C 19.135,12.896 14.74,18.828 9.4062,23.297 8,24.432 7.099,25 6.7031,25 c -0.6666,0 -1,-0.333 -1,-1 C 5.7031,23.667 6.1354,23.099 7,22.297 17.729,11.37 23.094,-4.3958 23.094,-25 c 0,-20.333 -5,-35.734 -15.0002,-46.203 l -0.5,-0.5 C 6.3333,-72.901 5.7031,-73.667 5.7031,-74 c 0,-0.667 0.3334,-1 1,-1 0.8021,0 2.5677,1.365 5.2969,4.094 4.135,4.135 7.568,9.036 10.297,14.703 4.406,9.073 6.609,19.474 6.609,31.203 z"
                                   style="fill:#000000;fill-opacity:1;fill-rule:nonzero;stroke:none"
                                   id="path930" /><g
                                   id="g932"
                                   transform="translate(38.9)"><path
                                   d="m 15.906,-71.703 v 93.406 c 0,2.136 -0.666,3.235 -2,3.297 -1.333,0 -2,-1.099 -2,-3.297 v -93.406 c 0,-2.136 0.667,-3.235 2,-3.297 1.334,0 2,1.099 2,3.297 z"
                                   style="fill:#000000;fill-opacity:1;fill-rule:nonzero;stroke:none"
                                   id="path934" /><g
                                   id="g936"
                                   transform="matrix(100,0,0,100,-519.08,-301.32)"><g
                                   id="g938"
                                   transform="scale(0.052632)"><path
                                   d="m 157.38,122.52 c 0,1.66 -1.34,3 -3,3 -1.66,0 -3,-1.34 -3,-3 0,-1.65 1.34,-3 3,-3 1.66,0 3,1.35 3,3 z"
                                   style="fill:#000000;fill-opacity:1;fill-rule:nonzero;stroke:none"
                                   id="path940" /><path
                                   d="m 157.38,122.52 c 0,1.66 -1.34,3 -3,3 -1.66,0 -3,-1.34 -3,-3 0,-1.65 1.34,-3 3,-3 1.66,0 3,1.35 3,3 z"
                                   style="fill:none;stroke:#000000;stroke-width:1;stroke-linecap:round;stroke-linejoin:round;stroke-miterlimit:10;stroke-dasharray:none;stroke-opacity:1"
                                   id="path942" /><g
                                   id="g944"
                                   transform="scale(19)"><g
                                   id="g946"
                                   transform="matrix(0.01,0,0,0.01,8.3684,7.5251)"><path
                                   d="m 74,-43.594 v 0 C 74,-33.26 70.333,-23.698 63,-14.906 56.396,-6.9062 48.661,-1.6354 39.797,0.90625 36.661,1.7708 33.562,2.2031 30.5,2.2031 22.167,2.2031 15.599,-0.72917 10.797,-6.5938 6.8698,-11.396 4.9062,-17.365 4.9062,-24.5 c 0,-10 3.5626,-19.469 10.6878,-28.406 6.604,-8.063 14.338,-13.427 23.203,-16.094 3.271,-1 6.505,-1.5 9.703,-1.5 8.469,0 15.104,3.068 19.906,9.203 3.729,4.802 5.594,10.703 5.594,17.703 z M 31.094,-0.40625 v 0 c 6.271,0 12.307,-2.79685 18.109,-8.39065 1.198,-1.1354 2.297,-2.3381 3.297,-3.6091 6.531,-8.125 10.562,-17.823 12.094,-29.094 0.333,-2.198 0.5,-4.198 0.5,-6 0,-9.135 -3.063,-15.333 -9.188,-18.594 -0.073,0 -0.14,-0.036 -0.203,-0.109 C 53.297,-67.401 50.698,-68 47.906,-68 c -6.271,0 -12.338,2.698 -18.203,8.094 -2.406,2.135 -4.542,4.635 -6.406,7.5 -5.063,7.666 -8.026,16.833 -8.891,27.5 -0.135,1.208 -0.203,2.276 -0.203,3.203 0,8.531 2.568,14.6665 7.703,18.4061 2.667,1.9271 5.729,2.89065 9.188,2.89065 z"
                                   style="fill:#000000;fill-opacity:1;fill-rule:nonzero;stroke:none"
                                   id="path948" /><g
                                   id="g950"
                                   transform="matrix(5.2632,0,0,5.2632,-836.84,-752.51)" /></g></g></g></g></g></g></g></g></g></g></g></g></g></g></g></g></g></g></g></g></g></g></g></g><g
                   id="g952"
                   transform="scale(0.62362)" /></g></g></g></g></g></g></g></svg>
