<?xml version="1.0" encoding="UTF-8" standalone="no"?>
<svg
   xmlns:dc="http://purl.org/dc/elements/1.1/"
   xmlns:cc="http://creativecommons.org/ns#"
   xmlns:rdf="http://www.w3.org/1999/02/22-rdf-syntax-ns#"
   xmlns:svg="http://www.w3.org/2000/svg"
   xmlns="http://www.w3.org/2000/svg"
   xmlns:sodipodi="http://sodipodi.sourceforge.net/DTD/sodipodi-0.dtd"
   xmlns:inkscape="http://www.inkscape.org/namespaces/inkscape"
   version="1.1"
   id="svg494"
   xml:space="preserve"
   width="168"
   height="145.33333"
   viewBox="0 0 168 145.33333"
   sodipodi:docname="2020-1009-2130-crop.pdf"><metadata
     id="metadata500"><rdf:RDF><cc:Work
         rdf:about=""><dc:format>image/svg+xml</dc:format><dc:type
           rdf:resource="http://purl.org/dc/dcmitype/StillImage" /></cc:Work></rdf:RDF></metadata><defs
     id="defs498"><clipPath
       clipPathUnits="userSpaceOnUse"
       id="clipPath512"><path
         d="M 0,0 H 172 V 148 H 0 Z"
         id="path510" /></clipPath><clipPath
       clipPathUnits="userSpaceOnUse"
       id="clipPath522"><path
         d="M 0,0 H 172 V 148 H 0 Z"
         id="path520" /></clipPath><clipPath
       clipPathUnits="userSpaceOnUse"
       id="clipPath534"><path
         d="M 0,0 V 148 H 172 V 0 Z"
         id="path532" /></clipPath><clipPath
       clipPathUnits="userSpaceOnUse"
       id="clipPath544"><path
         d="M 0,0 H 304 V 262 H 0 Z"
         id="path542" /></clipPath></defs><sodipodi:namedview
     pagecolor="#ffffff"
     bordercolor="#666666"
     borderopacity="1"
     objecttolerance="10"
     gridtolerance="10"
     guidetolerance="10"
     inkscape:pageopacity="0"
     inkscape:pageshadow="2"
     inkscape:window-width="640"
     inkscape:window-height="480"
     id="namedview496" /><g
     id="g502"
     inkscape:groupmode="layer"
     inkscape:label="2020-1009-2130-crop"
     transform="matrix(1.3333333,0,0,-1.3333333,0,145.33333)"><g
       id="g504"
       transform="translate(-23,-19)"><g
         id="g506"><g
           id="g508"
           clip-path="url(#clipPath512)"><g
             id="g514"
             transform="matrix(0.72973,0,0,-0.72973,23.243,128)"><g
               id="g516"><g
                 id="g518"
                 clip-path="url(#clipPath522)"><g
                   id="g524"><g
                     id="g526" /></g><g
                   id="g528"><g
                     id="g530"
                     clip-path="url(#clipPath534)"><g
                       id="g536"
                       transform="scale(0.56693)" /></g></g><g
                   id="g538"
                   transform="scale(0.56693)"><g
                     id="g540"
                     clip-path="url(#clipPath544)"><path
                       d="M 0,0 H 304 V 262 H 0 Z"
                       style="fill:#ffffff;fill-opacity:1;fill-rule:nonzero;stroke:none"
                       id="path546" /><path
                       d="M 73.6,2 V 262"
                       style="fill:none;stroke:#000000;stroke-width:1;stroke-linecap:butt;stroke-linejoin:miter;stroke-miterlimit:10;stroke-dasharray:none;stroke-opacity:1"
                       id="path548" /><path
                       d="m 73.6,1 -4,4"
                       style="fill:none;stroke:#000000;stroke-width:1;stroke-linecap:butt;stroke-linejoin:miter;stroke-miterlimit:10;stroke-dasharray:none;stroke-opacity:1"
                       id="path550" /><path
                       d="m 73.6,1 4,4"
                       style="fill:none;stroke:#000000;stroke-width:1;stroke-linecap:butt;stroke-linejoin:miter;stroke-miterlimit:10;stroke-dasharray:none;stroke-opacity:1"
                       id="path552" /><path
                       d="m 286.12,213 3.04,-4.31 -2.82,-3.99 h 1.77 l 1.27,1.94 c 0.23,0.38 0.43,0.69 0.57,0.94 0.23,-0.35 0.45,-0.65 0.64,-0.92 l 1.39,-1.96 h 1.69 l -2.87,3.91 3.09,4.39 h -1.73 l -1.71,-2.58 -0.45,-0.7 -2.17,3.28 z"
                       style="fill:#000000;fill-opacity:1;fill-rule:nonzero;stroke:none"
                       id="path554" /><path
                       d="M 0,217.2 H 302"
                       style="fill:none;stroke:#000000;stroke-width:1;stroke-linecap:butt;stroke-linejoin:miter;stroke-miterlimit:10;stroke-dasharray:none;stroke-opacity:1"
                       id="path556" /><path
                       d="m 303,217.2 -4,-4"
                       style="fill:none;stroke:#000000;stroke-width:1;stroke-linecap:butt;stroke-linejoin:miter;stroke-miterlimit:10;stroke-dasharray:none;stroke-opacity:1"
                       id="path558" /><path
                       d="m 303,217.2 -4,4"
                       style="fill:none;stroke:#000000;stroke-width:1;stroke-linecap:butt;stroke-linejoin:miter;stroke-miterlimit:10;stroke-dasharray:none;stroke-opacity:1"
                       id="path560" /><path
                       d="m 79,24.203 -0.156,-1.328 c 0.302,0.083 0.567,0.125 0.797,0.125 0.312,0 0.562,-0.052 0.75,-0.156 0.187,-0.104 0.343,-0.25 0.468,-0.438 0.084,-0.135 0.224,-0.484 0.422,-1.047 0.031,-0.073 0.073,-0.187 0.125,-0.343 l -3.14,-8.313 h 1.515 L 81.5,17.5 c 0.229,0.615 0.432,1.255 0.609,1.922 0.157,-0.646 0.349,-1.276 0.579,-1.891 l 1.765,-4.828 h 1.406 l -3.156,8.438 c -0.333,0.916 -0.594,1.547 -0.781,1.89 -0.25,0.459 -0.537,0.797 -0.86,1.016 -0.322,0.219 -0.708,0.328 -1.156,0.328 -0.271,0 -0.573,-0.057 -0.906,-0.172 z"
                       style="fill:#000000;fill-opacity:1;fill-rule:nonzero;stroke:none"
                       id="path562" /><path
                       d="m 123.6,167.2 100,-100"
                       style="fill:none;stroke:#ff0000;stroke-width:2.5;stroke-linecap:round;stroke-linejoin:round;stroke-miterlimit:10;stroke-dasharray:none;stroke-opacity:0.69804"
                       id="path564" /><path
                       d="m 123.6,167.2 h -50"
                       style="fill:none;stroke:#000000;stroke-width:2.5;stroke-linecap:butt;stroke-linejoin:round;stroke-miterlimit:10;stroke-dasharray:10.5, 8;stroke-dashoffset:0;stroke-opacity:0.69804"
                       id="path566" /><path
                       d="m 123.6,167.2 v 50"
                       style="fill:none;stroke:#000000;stroke-width:2.5;stroke-linecap:butt;stroke-linejoin:round;stroke-miterlimit:10;stroke-dasharray:10.5, 8;stroke-dashoffset:0;stroke-opacity:0.69804"
                       id="path568" /><path
                       d="M 223.6,67.2 H 73.6"
                       style="fill:none;stroke:#000000;stroke-width:2.5;stroke-linecap:butt;stroke-linejoin:round;stroke-miterlimit:10;stroke-dasharray:10.5, 8;stroke-dashoffset:0;stroke-opacity:0.69804"
                       id="path570" /><path
                       d="m 223.6,167.2 h -100"
                       style="fill:none;stroke:#0000ff;stroke-width:2.5;stroke-linecap:butt;stroke-linejoin:round;stroke-miterlimit:10;stroke-dasharray:10.5, 8;stroke-dashoffset:0;stroke-opacity:0.69804"
                       id="path572" /><path
                       d="m 123.6,217.2 h 100"
                       style="fill:none;stroke:#0000ff;stroke-width:2.5;stroke-linecap:round;stroke-linejoin:round;stroke-miterlimit:10;stroke-dasharray:none;stroke-opacity:0.69804"
                       id="path574" /><path
                       d="m 73.6,67.2 v 100"
                       style="fill:none;stroke:#0000ff;stroke-width:2.5;stroke-linecap:round;stroke-linejoin:round;stroke-miterlimit:10;stroke-dasharray:none;stroke-opacity:0.69804"
                       id="path576" /><path
                       d="M 223.6,167.2 V 67.2"
                       style="fill:none;stroke:#0000ff;stroke-width:2.5;stroke-linecap:butt;stroke-linejoin:round;stroke-miterlimit:10;stroke-dasharray:10.5, 8;stroke-dashoffset:0;stroke-opacity:0.69804"
                       id="path578" /><path
                       d="m 223.6,167.2 v 50"
                       style="fill:none;stroke:#000000;stroke-width:2.5;stroke-linecap:butt;stroke-linejoin:round;stroke-miterlimit:10;stroke-dasharray:10.5, 8;stroke-dashoffset:0;stroke-opacity:0.69804"
                       id="path580" /><path
                       d="m 127.6,167.2 c 0,2.21 -1.79,4 -4,4 -2.21,0 -4,-1.79 -4,-4 0,-2.21 1.79,-4 4,-4 2.21,0 4,1.79 4,4 z"
                       style="fill:#000000;fill-opacity:1;fill-rule:nonzero;stroke:none"
                       id="path582" /><path
                       d="m 127.6,167.2 c 0,2.21 -1.79,4 -4,4 -2.21,0 -4,-1.79 -4,-4 0,-2.21 1.79,-4 4,-4 2.21,0 4,1.79 4,4 z"
                       style="fill:none;stroke:#000000;stroke-width:1;stroke-linecap:round;stroke-linejoin:round;stroke-miterlimit:10;stroke-dasharray:none;stroke-opacity:1"
                       id="path584" /><g
                       id="g586"
                       transform="scale(19)"><g
                         id="g588"
                         transform="matrix(0.01,0,0,0.01,5.8421,7.8409)"><path
                           d="m 17.906,-11.5 34.797,-58.406 c 0.667,-1.063 1.531,-1.625 2.594,-1.688 1,0 1.568,0.334 1.703,1 0.062,0.198 0.13,0.662 0.203,1.391 l 6.094,62.4999 c 0.198,1.6666 0.599,2.6666 1.203,3 h 0.094 v 0 0 0 0.1093 c 0.802,0.3334 2.536,0.5 5.203,0.5 1.469,0 2.234,0.3646 2.297,1.0938 0,1.33333 -0.599,2 -1.797,2 L 59.094,-0.29688 H 59 L 46.594,0 H 46.5 c -0.938,0 -1.406,-0.36458 -1.406,-1.0938 0.541,-1.2708 1.344,-1.9374 2.406,-2 4.802,0 7.203,-1.1041 7.203,-3.3124 0,0.0729 -0.536,-5.4898 -1.609,-16.6878 H 28 l -7.594,12.797 C 19.469,-8.6302 19,-7.3958 19,-6.5938 c 0,2.0626 1.568,3.2292 4.703,3.5 1.063,0 1.594,0.3959 1.594,1.1876 C 25.297,-0.63542 24.667,0 23.406,0 L 13.797,-0.29688 H 13.406 L 5,0 H 4.7969 C 3.9323,0 3.5,-0.36458 3.5,-1.0938 3.5,-2.3021 4,-2.9375 5,-3 V -3.0938 H 5.5938 C 9.8021,-3.3646 13.24,-5.1667 15.906,-8.5 c 0.667,-0.8646 1.334,-1.865 2,-3 z m 12,-14.703 h 22.891 l -3.203,-33 z"
                           style="fill:#000000;fill-opacity:1;fill-rule:nonzero;stroke:none"
                           id="path590" /><g
                           id="g592"
                           transform="matrix(5.2632,0,0,5.2632,-584.21,-784.09)"><path
                             d="m 227.6,67.2 c 0,2.209 -1.79,4 -4,4 -2.21,0 -4,-1.791 -4,-4 0,-2.209 1.79,-4 4,-4 2.21,0 4,1.791 4,4 z"
                             style="fill:#000000;fill-opacity:1;fill-rule:nonzero;stroke:none"
                             id="path594" /><path
                             d="m 227.6,67.2 c 0,2.209 -1.79,4 -4,4 -2.21,0 -4,-1.791 -4,-4 0,-2.209 1.79,-4 4,-4 2.21,0 4,1.791 4,4 z"
                             style="fill:none;stroke:#000000;stroke-width:1;stroke-linecap:round;stroke-linejoin:round;stroke-miterlimit:10;stroke-dasharray:none;stroke-opacity:1"
                             id="path596" /><g
                             id="g598"
                             transform="matrix(0.19,0,0,0.19,231.002,55.9778)"><path
                               d="M 16,-7.7969 29.406,-61.5 c 0.261,-1.062 0.391,-1.698 0.391,-1.906 0,-0.792 -0.531,-1.292 -1.594,-1.5 H 28.094 28 c -0.198,0 -0.5,-0.032 -0.906,-0.094 -1.125,-0.135 -2.391,-0.203 -3.797,-0.203 -1.729,0 -2.662,-0.365 -2.797,-1.094 0,-1.198 0.5,-1.864 1.5,-2 h 0.094 0.109 1.203 H 57 c 7.667,0 13.135,2.266 16.406,6.797 1.459,2.135 2.188,4.469 2.188,7 0,5.396 -3,10.094 -9,14.094 -0.063,0 -0.125,0.036 -0.188,0.109 -3.541,2.261 -7.442,3.792 -11.703,4.594 6.802,0.802 11.469,3.469 14,8 1,1.864 1.5,3.901 1.5,6.109 0,4.865 -2.333,9.427 -7,13.6878 l -0.109,0.1093 C 57.365,-2.599 50.531,0 42.594,0 H 6.9062 C 5.2396,0 4.3385,-0.36458 4.2031,-1.0938 c 0,-1.2083 0.5,-1.875 1.5,-2 h 1.2031 c 4.3338,0 6.9328,-0.4687 7.7968,-1.4062 0.396,-0.4688 0.797,-1.401 1.203,-2.7969 0,-0.0729 0.032,-0.2396 0.094,-0.5 z M 31.094,-36.594 h 14.609 c 6.594,0 12.026,-2.401 16.297,-7.203 3,-3.406 4.5,-7.109 4.5,-11.109 0,-4.865 -2,-8.032 -6,-9.5 -1.396,-0.532 -3.031,-0.797 -4.906,-0.797 H 42.703 c -2.406,0 -3.875,0.333 -4.406,1 v 0 0.109 H 38.203 V -64 c -0.271,0.396 -0.573,1.26 -0.906,2.594 z m -4.5,33.5002 h 13.609 c 6.396,0 11.693,-2.401 15.891,-7.2032 3.208,-3.739 4.812,-7.875 4.812,-12.406 0,-4.865 -1.734,-8.297 -5.203,-10.297 -1.739,-0.938 -3.838,-1.406 -6.297,-1.406 H 30.5 L 23.594,-6.5 c -0.334,1.1979 -0.5,1.9635 -0.5,2.2969 0,0.5312 0.302,0.8646 0.906,1 v 0 0 h 0.406 c 0.396,0.0729 1.125,0.1093 2.188,0.1093 z"
                               style="fill:#000000;fill-opacity:1;fill-rule:nonzero;stroke:none"
                               id="path600" /><g
                               id="g602"
                               transform="matrix(5.2632,0,0,5.2632,-1215.8,-294.62)"><path
                                 d="m 127.6,217.2 c 0,2.21 -1.79,4 -4,4 -2.21,0 -4,-1.79 -4,-4 0,-2.21 1.79,-4 4,-4 2.21,0 4,1.79 4,4 z"
                                 style="fill:#000000;fill-opacity:1;fill-rule:nonzero;stroke:none"
                                 id="path604" /><path
                                 d="m 127.6,217.2 c 0,2.21 -1.79,4 -4,4 -2.21,0 -4,-1.79 -4,-4 0,-2.21 1.79,-4 4,-4 2.21,0 4,1.79 4,4 z"
                                 style="fill:none;stroke:#000000;stroke-width:1;stroke-linecap:round;stroke-linejoin:round;stroke-miterlimit:10;stroke-dasharray:none;stroke-opacity:1"
                                 id="path606" /><g
                                 id="g608"
                                 transform="matrix(0.19,0,0,0.19,114,242.972)"><path
                                   d="M 76,-69.5 69.703,-44 c -0.333,1.198 -0.667,1.833 -1,1.906 L 68.594,-42 h -0.688 c -1,0 -1.5,-0.333 -1.5,-1 l 0.297,-4.906 v -0.188 c 0,-8.271 -2.599,-13.974 -7.797,-17.109 l -0.109,-0.094 c -2.333,-1.406 -5.068,-2.109 -8.203,-2.109 -7.063,0 -13.761,2.635 -20.094,7.906 -1.604,1.271 -3.036,2.672 -4.297,4.203 -6.333,7.396 -10.234,16.797 -11.703,28.203 -0.271,2.063 -0.406,3.86 -0.406,5.391 0,9.333 3.536,15.6353 10.609,18.9061 2.729,1.2604 5.729,1.89065 9,1.89065 6.261,0 12.391,-2.43225 18.391,-7.29685 C 56.76,-12.13 60.13,-17.396 62.203,-24 c 0.136,-0.667 0.568,-1 1.297,-1 0.802,0 1.203,0.333 1.203,1 0,1.198 -0.765,3.333 -2.297,6.406 -2.073,4.198 -4.974,7.9273 -8.703,11.1878 -6.604,5.73953 -13.807,8.6093 -21.609,8.6093 -8.532,0 -15.365,-2.93227 -20.5,-8.7969 C 7.1979,-11.594 5,-17.797 5,-25.203 c 0,-9.927 3.6354,-19.224 10.906,-27.891 6.729,-8.073 14.693,-13.406 23.891,-16 3.406,-0.937 6.739,-1.406 10,-1.406 7.271,0 12.807,2.969 16.609,8.906 l 7,-7.703 c 0.792,-0.802 1.292,-1.203 1.5,-1.203 0.729,0 1.094,0.333 1.094,1 z"
                                   style="fill:#000000;fill-opacity:1;fill-rule:nonzero;stroke:none"
                                   id="path610" /><g
                                   id="g612"
                                   transform="matrix(5.2632,0,0,5.2632,-600,-1278.8)"><path
                                   d="m 227.6,217.2 c 0,2.21 -1.79,4 -4,4 -2.21,0 -4,-1.79 -4,-4 0,-2.21 1.79,-4 4,-4 2.21,0 4,1.79 4,4 z"
                                   style="fill:#000000;fill-opacity:1;fill-rule:nonzero;stroke:none"
                                   id="path614" /><path
                                   d="m 227.6,217.2 c 0,2.21 -1.79,4 -4,4 -2.21,0 -4,-1.79 -4,-4 0,-2.21 1.79,-4 4,-4 2.21,0 4,1.79 4,4 z"
                                   style="fill:none;stroke:#000000;stroke-width:1;stroke-linecap:round;stroke-linejoin:round;stroke-miterlimit:10;stroke-dasharray:none;stroke-opacity:1"
                                   id="path616" /><g
                                   id="g618"
                                   transform="matrix(0.19,0,0,0.19,215.992,241.984)"><path
                                   d="m 15.906,-7.7969 v 0 L 29.297,-61.5 c 0.271,-1.062 0.406,-1.698 0.406,-1.906 0,-0.792 -0.536,-1.292 -1.609,-1.5 H 28 v 0 C 27.865,-64.969 27.698,-65 27.5,-65 c -1.604,-0.135 -3.036,-0.203 -4.297,-0.203 -1.739,0 -2.672,-0.266 -2.797,-0.797 -0.073,-0.135 -0.109,-0.271 -0.109,-0.406 0,-1.125 0.568,-1.755 1.703,-1.891 v 0 h 1.297 33.609 c 8.667,0 15.13,3.365 19.391,10.094 2.739,4.271 4.109,9.338 4.109,15.203 0,9.667 -3.37,18.698 -10.109,27.094 C 63.901,-8.1042 56.37,-3.1354 47.703,-1 45.099,-0.33333 42.5,0 39.906,0 H 6.7969 C 5.1302,0 4.2292,-0.26562 4.0938,-0.79688 4.0312,-0.86979 4,-1.0052 4,-1.2031 4,-2.3385 4.5312,-2.9688 5.5938,-3.0938 h 1.2031 c 4.3331,0 6.9321,-0.4687 7.7971,-1.4062 0.406,-0.4688 0.807,-1.401 1.203,-2.7969 0,-0.0729 0.036,-0.2396 0.109,-0.5 z M 37.5,-61.406 23.797,-6.5 c -0.333,1.1979 -0.5,1.9635 -0.5,2.2969 0,0.5312 0.302,0.8646 0.906,1 v 0 0 h 0.391 c 0.406,0.0729 1.14,0.1093 2.203,0.1093 h 11.297 c 8.271,0 15.406,-3.1041 21.406,-9.3122 0.604,-0.667 1.172,-1.334 1.703,-2 5.333,-6.927 8.698,-15.99 10.094,-27.188 0.271,-2.073 0.406,-3.776 0.406,-5.109 0,-8.927 -3.5,-14.662 -10.5,-17.203 -2.271,-0.865 -4.807,-1.297 -7.609,-1.297 H 42.906 c -2.406,0 -3.875,0.333 -4.406,1 v 0 0.109 H 38.406 V -64 c -0.271,0.396 -0.573,1.26 -0.906,2.594 z"
                                   style="fill:#000000;fill-opacity:1;fill-rule:nonzero;stroke:none"
                                   id="path620" /><g
                                   id="g622"
                                   transform="matrix(5.2632,0,0,5.2632,-1136.8,-1273.6)"><path
                                   d="m 77.6,167.2 c 0,2.21 -1.791,4 -4,4 -2.209,0 -4,-1.79 -4,-4 0,-2.21 1.791,-4 4,-4 2.209,0 4,1.79 4,4 z"
                                   style="fill:#000000;fill-opacity:1;fill-rule:nonzero;stroke:none"
                                   id="path624" /><path
                                   d="m 77.6,167.2 c 0,2.21 -1.791,4 -4,4 -2.209,0 -4,-1.79 -4,-4 0,-2.21 1.791,-4 4,-4 2.209,0 4,1.79 4,4 z"
                                   style="fill:none;stroke:#000000;stroke-width:1;stroke-linecap:round;stroke-linejoin:round;stroke-miterlimit:10;stroke-dasharray:none;stroke-opacity:1"
                                   id="path626" /><g
                                   id="g628"
                                   transform="matrix(0.19,0,0,0.19,50.0004,171.9766)"><path
                                   d="m 70.797,-23.297 v 0 l -9.203,21.5939 c -0.396,0.93748 -0.86,1.47393 -1.391,1.60935 v 0 H 60.094 C 59.833,-0.03125 59.302,0 58.5,0 H 6.5938 C 4.9271,0 4.0312,-0.26562 3.9062,-0.79688 3.8333,-0.86979 3.7969,-1.0052 3.7969,-1.2031 c 0,-1.1354 0.5364,-1.7657 1.6093,-1.8907 h 1.1876 c 4.3332,0 6.9372,-0.4687 7.8122,-1.4062 0.396,-0.4688 0.792,-1.401 1.188,-2.7969 0,-0.0729 0.036,-0.2396 0.109,-0.5 L 28.906,-60.703 c 0.334,-1.198 0.5,-1.995 0.5,-2.391 0,-1.135 -1.536,-1.739 -4.609,-1.812 h -0.094 -1.797 c -1.739,0 -2.677,-0.365 -2.812,-1.094 0,-1.198 0.536,-1.865 1.609,-2 h 1.391 50.5 c 1.604,0 2.474,0.234 2.609,0.703 h 0.094 c 0.135,0.396 0.135,1.063 0,2 l -2,17.297 c -0.469,1.531 -0.932,2.365 -1.391,2.5 -0.802,0 -1.203,-0.401 -1.203,-1.203 l 0.094,-1.703 V -48.5 c 0.271,-1.802 0.406,-3.568 0.406,-5.297 0,-4.667 -1.302,-7.734 -3.906,-9.203 C 66.099,-64.271 62.333,-64.906 57,-64.906 H 42.906 c -2.468,0 -3.937,0.37 -4.406,1.109 h -0.094 v 0.094 c -0.208,0.271 -0.375,0.672 -0.5,1.203 v 0.094 l -0.109,0.109 c -0.063,0.261 -0.162,0.693 -0.297,1.297 l -6,24.094 h 9.406 c 5.063,0 8.427,-1 10.094,-3 1.062,-1.261 2.062,-3.558 3,-6.891 0.271,-1.135 0.74,-1.734 1.406,-1.797 0.792,0 1.188,0.365 1.188,1.094 l -5.688,23.406 c -0.333,1.261 -0.833,1.927 -1.5,2 -0.875,0 -1.312,-0.37 -1.312,-1.109 0,-0.261 0.104,-0.625 0.312,-1.094 0.459,-2 0.688,-3.635 0.688,-4.906 0,-1.802 -0.5,-2.969 -1.5,-3.5 -1.261,-0.729 -3.594,-1.094 -7,-1.094 H 30.703 L 23.906,-6.5 c -0.333,1.1979 -0.5,1.9635 -0.5,2.2969 0,0.5312 0.297,0.8646 0.891,1 v 0 0 h 0.406 c 0.396,0.0729 1.13,0.1093 2.203,0.1093 H 41.5 c 8.135,0 14.135,-1.8697 18,-5.6093 2.531,-2.3959 5.297,-6.8959 8.297,-13.4999 0.271,-0.729 0.604,-1.526 1,-2.391 0.271,-0.802 0.703,-1.203 1.297,-1.203 0.802,0 1.203,0.365 1.203,1.094 0,0.073 -0.167,0.542 -0.5,1.406 z"
                                   style="fill:#000000;fill-opacity:1;fill-rule:nonzero;stroke:none"
                                   id="path630" /><g
                                   id="g632"
                                   transform="matrix(5.2632,0,0,5.2632,-263.16,-905.14)"><path
                                   d="m 77.6,67.2 c 0,2.209 -1.791,4 -4,4 -2.209,0 -4,-1.791 -4,-4 0,-2.209 1.791,-4 4,-4 2.209,0 4,1.791 4,4 z"
                                   style="fill:#000000;fill-opacity:1;fill-rule:nonzero;stroke:none"
                                   id="path634" /><path
                                   d="m 77.6,67.2 c 0,2.209 -1.791,4 -4,4 -2.209,0 -4,-1.791 -4,-4 0,-2.209 1.791,-4 4,-4 2.209,0 4,1.791 4,4 z"
                                   style="fill:none;stroke:#000000;stroke-width:1;stroke-linecap:round;stroke-linejoin:round;stroke-miterlimit:10;stroke-dasharray:none;stroke-opacity:1"
                                   id="path636" /><g
                                   id="g638"
                                   transform="matrix(0.19,0,0,0.19,50.9998,70.9764)"><path
                                   d="m 30.297,-32.5 -6.203,24.9062 c -0.261,1 -0.391,1.7657 -0.391,2.2969 0,0.9271 0.432,1.4948 1.297,1.7031 0.469,0.125 1.104,0.224 1.906,0.2969 1.667,0.1354 3.396,0.2031 5.188,0.2031 1.666,0 2.604,0.0313 2.812,0.0938 l 0.5,0.7031 C 35.469,-2.1615 35.5,-2.0312 35.5,-1.9062 35.5,-0.63542 34.802,0 33.406,0 L 18.594,-0.29688 H 18.5 L 5.4062,0 H 5.2969 c -1,0 -1.5,-0.40104 -1.5,-1.2031 0,-1.1354 0.5364,-1.7657 1.6093,-1.8907 h 1.1876 c 4.3332,0 6.9372,-0.4687 7.8122,-1.4062 0.396,-0.4688 0.792,-1.401 1.188,-2.7969 0,-0.0729 0.036,-0.2396 0.109,-0.5 L 28.906,-60.703 c 0.334,-1.198 0.5,-1.995 0.5,-2.391 0,-1.135 -1.536,-1.739 -4.609,-1.812 h -0.094 -1.797 c -1.739,0 -2.677,-0.365 -2.812,-1.094 0,-1.198 0.536,-1.865 1.609,-2 h 1.391 49 c 1.604,0 2.474,0.234 2.609,0.703 h 0.094 c 0.135,0.396 0.135,1.063 0,2 l -2,17.297 c -0.469,1.531 -0.932,2.365 -1.391,2.5 -0.802,0 -1.203,-0.401 -1.203,-1.203 0,-0.333 0.068,-0.932 0.203,-1.797 0.198,-1.802 0.297,-3.604 0.297,-5.406 0,-4.459 -1.135,-7.422 -3.406,-8.891 l -0.094,-0.109 c -2.135,-1.334 -5.838,-2 -11.109,-2 H 42.906 c -2.468,0 -3.937,0.37 -4.406,1.109 h -0.094 v 0.094 c -0.208,0.271 -0.375,0.672 -0.5,1.203 v 0.094 l -0.109,0.109 c -0.063,0.261 -0.162,0.693 -0.297,1.297 l -6.406,25.406 h 9.109 c 4.865,0 8.13,-0.901 9.797,-2.703 l 0.094,-0.109 c 1.135,-1.261 2.135,-3.526 3,-6.797 0.333,-1.261 0.833,-1.958 1.5,-2.094 0.739,0 1.14,0.365 1.203,1.094 0,0.333 -0.099,0.87 -0.297,1.609 L 50,-22.906 c -0.667,1.333 -1.167,2.036 -1.5,2.109 -0.802,0 -1.203,-0.401 -1.203,-1.203 0,-0.271 0.099,-0.635 0.297,-1.094 0.468,-2 0.703,-3.635 0.703,-4.906 0,-1.938 -0.735,-3.203 -2.203,-3.797 v 0 C 44.833,-32.266 42.802,-32.5 40,-32.5 Z"
                                   style="fill:#000000;fill-opacity:1;fill-rule:nonzero;stroke:none"
                                   id="path640" /><g
                                   id="g642"
                                   transform="matrix(5.2632,0,0,5.2632,-268.42,-373.56)"><path
                                   d="m 227.6,167.2 c 0,2.21 -1.79,4 -4,4 -2.21,0 -4,-1.79 -4,-4 0,-2.21 1.79,-4 4,-4 2.21,0 4,1.79 4,4 z"
                                   style="fill:#444444;fill-opacity:1;fill-rule:nonzero;stroke:none"
                                   id="path644" /><path
                                   d="m 227.6,167.2 c 0,2.21 -1.79,4 -4,4 -2.21,0 -4,-1.79 -4,-4 0,-2.21 1.79,-4 4,-4 2.21,0 4,1.79 4,4 z"
                                   style="fill:none;stroke:#000000;stroke-width:1;stroke-linecap:round;stroke-linejoin:round;stroke-miterlimit:10;stroke-dasharray:none;stroke-opacity:1"
                                   id="path646" /><g
                                   id="g648"
                                   transform="scale(19)"><g
                                   id="g650"
                                   transform="matrix(0.01,0,0,0.01,12.421,8.9988)"><path
                                   d="M 76,-69.5 69.703,-44 c -0.333,1.198 -0.667,1.833 -1,1.906 L 68.594,-42 h -0.688 c -1,0 -1.5,-0.333 -1.5,-1 l 0.297,-4.906 v -0.188 c 0,-8.271 -2.599,-13.974 -7.797,-17.109 l -0.109,-0.094 c -2.333,-1.406 -5.068,-2.109 -8.203,-2.109 -7.125,0 -13.891,2.703 -20.297,8.109 -1.802,1.469 -3.37,3.068 -4.703,4.797 -6.396,7.865 -10.162,17.531 -11.297,29 -0.136,1.396 -0.203,2.594 -0.203,3.594 0,9.135 3.468,15.406 10.406,18.8122 2.938,1.4584 6.172,2.18755 9.703,2.18755 5.667,0 10.365,-1.43225 14.094,-4.29685 2.667,-2 4.401,-4.599 5.203,-7.7969 1.396,-5.198 2.094,-8.232 2.094,-9.102 0,-0.869 -0.5,-1.434 -1.5,-1.695 C 53.76,-23.87 53.229,-23.938 52.5,-24 c -1.531,-0.135 -3.297,-0.203 -5.297,-0.203 -1.802,0 -2.771,-0.198 -2.906,-0.594 -0.063,-0.073 -0.094,-0.239 -0.094,-0.5 0,-1.333 0.698,-2 2.094,-2 L 60.203,-27 h 0.094 l 10.406,-0.297 h 0.094 c 0.864,0 1.297,0.365 1.297,1.094 0,1.333 -0.532,2 -1.594,2 -3.062,0.073 -4.896,0.406 -5.5,1 -0.396,0.469 -0.865,1.734 -1.406,3.797 0,-0.125 -0.334,1.177 -1,3.906 -0.125,0.469 -0.224,0.87 -0.297,1.203 l -1.891,7.7032 c -0.937,3.8646 -1.505,5.89588 -1.703,6.0938 0,0.27083 -0.234,0.40625 -0.703,0.40625 -0.729,0 -1.865,-1.27085 -3.406,-3.81245 -0.459,-0.8646 -0.823,-1.6615 -1.094,-2.3907 -2.271,2.5313 -4.839,4.4323 -7.703,5.70315 l -1,0.39063 C 40.932,1.401 36.766,2.2031 32.297,2.2031 c -9,0 -16.068,-3.13539 -21.203,-9.4062 C 7.0312,-12.13 5,-18.13 5,-25.203 c 0,-9.927 3.6354,-19.224 10.906,-27.891 6.729,-8.073 14.693,-13.406 23.891,-16 3.406,-0.937 6.739,-1.406 10,-1.406 7.271,0 12.807,2.969 16.609,8.906 l 7,-7.703 c 0.792,-0.802 1.292,-1.203 1.5,-1.203 0.729,0 1.094,0.333 1.094,1 z"
                                   style="fill:#444444;fill-opacity:1;fill-rule:nonzero;stroke:none"
                                   id="path652" /><g
                                   id="g654"
                                   transform="matrix(5.2632,0,0,5.2632,-1242.1,-899.88)"><path
                                   d="m 76.6,217.2 c 0,1.66 -1.343,3 -3,3 -1.657,0 -3,-1.34 -3,-3 0,-1.66 1.343,-3 3,-3 1.657,0 3,1.34 3,3 z"
                                   style="fill:#000000;fill-opacity:1;fill-rule:nonzero;stroke:none"
                                   id="path656" /><path
                                   d="m 76.6,217.2 c 0,1.66 -1.343,3 -3,3 -1.657,0 -3,-1.34 -3,-3 0,-1.66 1.343,-3 3,-3 1.657,0 3,1.34 3,3 z"
                                   style="fill:none;stroke:#000000;stroke-width:1;stroke-linecap:round;stroke-linejoin:round;stroke-miterlimit:10;stroke-dasharray:none;stroke-opacity:1"
                                   id="path658" /><g
                                   id="g660"
                                   transform="scale(19)"><g
                                   id="g662"
                                   transform="matrix(0.01,0,0,0.01,2.6842,12.946)"><path
                                   d="m 74,-43.594 v 0 C 74,-33.26 70.333,-23.698 63,-14.906 56.396,-6.9062 48.661,-1.6354 39.797,0.90625 36.661,1.7708 33.562,2.2031 30.5,2.2031 22.167,2.2031 15.599,-0.72917 10.797,-6.5938 6.8698,-11.396 4.9062,-17.365 4.9062,-24.5 c 0,-10 3.5626,-19.469 10.6878,-28.406 6.604,-8.063 14.338,-13.427 23.203,-16.094 3.271,-1 6.505,-1.5 9.703,-1.5 8.469,0 15.104,3.068 19.906,9.203 3.729,4.802 5.594,10.703 5.594,17.703 z M 31.094,-0.40625 v 0 c 6.271,0 12.307,-2.79685 18.109,-8.39065 1.198,-1.1354 2.297,-2.3381 3.297,-3.6091 6.531,-8.125 10.562,-17.823 12.094,-29.094 0.333,-2.198 0.5,-4.198 0.5,-6 0,-9.135 -3.063,-15.333 -9.188,-18.594 -0.073,0 -0.14,-0.036 -0.203,-0.109 C 53.297,-67.401 50.698,-68 47.906,-68 c -6.271,0 -12.338,2.698 -18.203,8.094 -2.406,2.135 -4.542,4.635 -6.406,7.5 -5.063,7.666 -8.026,16.833 -8.891,27.5 -0.135,1.208 -0.203,2.276 -0.203,3.203 0,8.531 2.568,14.6665 7.703,18.4061 2.667,1.9271 5.729,2.89065 9.188,2.89065 z"
                                   style="fill:#000000;fill-opacity:1;fill-rule:nonzero;stroke:none"
                                   id="path664" /><g
                                   id="g666"
                                   transform="matrix(5.2632,0,0,5.2632,-268.42,-1294.6)" /></g></g></g></g></g></g></g></g></g></g></g></g></g></g></g></g></g></g></g></g><g
                   id="g668"
                   transform="scale(0.56693)" /></g></g></g></g></g></g></g></svg>
