<?xml version="1.0" encoding="UTF-8" standalone="no"?>
<svg
   xmlns:dc="http://purl.org/dc/elements/1.1/"
   xmlns:cc="http://creativecommons.org/ns#"
   xmlns:rdf="http://www.w3.org/1999/02/22-rdf-syntax-ns#"
   xmlns:svg="http://www.w3.org/2000/svg"
   xmlns="http://www.w3.org/2000/svg"
   xmlns:sodipodi="http://sodipodi.sourceforge.net/DTD/sodipodi-0.dtd"
   xmlns:inkscape="http://www.inkscape.org/namespaces/inkscape"
   version="1.1"
   id="svg2"
   xml:space="preserve"
   width="225.33333"
   height="177.33333"
   viewBox="0 0 225.33333 177.33333"
   sodipodi:docname="2020-1007-1710-crop.pdf"><metadata
     id="metadata8"><rdf:RDF><cc:Work
         rdf:about=""><dc:format>image/svg+xml</dc:format><dc:type
           rdf:resource="http://purl.org/dc/dcmitype/StillImage" /></cc:Work></rdf:RDF></metadata><defs
     id="defs6"><clipPath
       clipPathUnits="userSpaceOnUse"
       id="clipPath20"><path
         d="M 0,0 H 219 V 171 H 0 Z"
         id="path18" /></clipPath><clipPath
       clipPathUnits="userSpaceOnUse"
       id="clipPath30"><path
         d="M 0,0 H 219 V 171 H 0 Z"
         id="path28" /></clipPath><clipPath
       clipPathUnits="userSpaceOnUse"
       id="clipPath42"><path
         d="M 0,0 V 171 H 219 V 0 Z"
         id="path40" /></clipPath><clipPath
       clipPathUnits="userSpaceOnUse"
       id="clipPath52"><path
         d="M 0,0 H 378 V 294 H 0 Z"
         id="path50" /></clipPath></defs><sodipodi:namedview
     pagecolor="#ffffff"
     bordercolor="#666666"
     borderopacity="1"
     objecttolerance="10"
     gridtolerance="10"
     guidetolerance="10"
     inkscape:pageopacity="0"
     inkscape:pageshadow="2"
     inkscape:window-width="640"
     inkscape:window-height="480"
     id="namedview4" /><g
     id="g10"
     inkscape:groupmode="layer"
     inkscape:label="2020-1007-1710-crop"
     transform="matrix(1.3333333,0,0,-1.3333333,0,177.33333)"><g
       id="g12"
       transform="translate(-25,-19)"><g
         id="g14"><g
           id="g16"
           clip-path="url(#clipPath20)"><g
             id="g22"
             transform="matrix(0.76608,0,0,-0.76608,25.614,151)"><g
               id="g24"><g
                 id="g26"
                 clip-path="url(#clipPath30)"><g
                   id="g32"><g
                     id="g34" /></g><g
                   id="g36"><g
                     id="g38"
                     clip-path="url(#clipPath42)"><g
                       id="g44"
                       transform="scale(0.58185)" /></g></g><g
                   id="g46"
                   transform="scale(0.58185)"><g
                     id="g48"
                     clip-path="url(#clipPath52)"><path
                       d="M 0,0 H 378 V 294 H 0 Z"
                       style="fill:#ffffff;fill-opacity:1;fill-rule:nonzero;stroke:none"
                       id="path54" /><path
                       d="M 161.73,2 V 294"
                       style="fill:none;stroke:#000000;stroke-width:1;stroke-linecap:butt;stroke-linejoin:miter;stroke-miterlimit:10;stroke-dasharray:none;stroke-opacity:1"
                       id="path56" /><path
                       d="m 161.73,1 -4,4"
                       style="fill:none;stroke:#000000;stroke-width:1;stroke-linecap:butt;stroke-linejoin:miter;stroke-miterlimit:10;stroke-dasharray:none;stroke-opacity:1"
                       id="path58" /><path
                       d="m 161.73,1 4,4"
                       style="fill:none;stroke:#000000;stroke-width:1;stroke-linecap:butt;stroke-linejoin:miter;stroke-miterlimit:10;stroke-dasharray:none;stroke-opacity:1"
                       id="path60" /><path
                       d="M 0,264.72 H 376"
                       style="fill:none;stroke:#000000;stroke-width:1;stroke-linecap:butt;stroke-linejoin:miter;stroke-miterlimit:10;stroke-dasharray:none;stroke-opacity:1"
                       id="path62" /><path
                       d="m 377,264.72 -4,-4"
                       style="fill:none;stroke:#000000;stroke-width:1;stroke-linecap:butt;stroke-linejoin:miter;stroke-miterlimit:10;stroke-dasharray:none;stroke-opacity:1"
                       id="path64" /><path
                       d="m 377,264.72 -4,4"
                       style="fill:none;stroke:#000000;stroke-width:1;stroke-linecap:butt;stroke-linejoin:miter;stroke-miterlimit:10;stroke-dasharray:none;stroke-opacity:1"
                       id="path66" /><path
                       d="m 62.797,275.92 v -0.56 h 4.5 v 0.56 z M 75.469,280 h -1.047 v -6.72 c -0.261,0.24 -0.596,0.48 -1.008,0.73 -0.411,0.24 -0.779,0.42 -1.102,0.54 v -1.02 c 0.584,-0.28 1.097,-0.62 1.54,-1.01 0.442,-0.39 0.757,-0.77 0.945,-1.14 h 0.672 z"
                       style="fill:#000000;fill-opacity:1;fill-rule:nonzero;stroke:none"
                       id="path68" /><path
                       d="m 64.29,264.72 v 3"
                       style="fill:none;stroke:#000000;stroke-width:1;stroke-linecap:butt;stroke-linejoin:miter;stroke-miterlimit:10;stroke-dasharray:none;stroke-opacity:1"
                       id="path70" /><path
                       d="m 161.73,264.72 v 3"
                       style="fill:none;stroke:#000000;stroke-width:1;stroke-linecap:butt;stroke-linejoin:miter;stroke-miterlimit:10;stroke-dasharray:none;stroke-opacity:1"
                       id="path72" /><path
                       d="m 261.47,280 h -1.05 v -6.72 c -0.26,0.24 -0.59,0.48 -1.01,0.73 -0.41,0.24 -0.77,0.42 -1.1,0.54 v -1.02 c 0.59,-0.28 1.1,-0.62 1.54,-1.01 0.44,-0.39 0.76,-0.77 0.95,-1.14 h 0.67 z"
                       style="fill:#000000;fill-opacity:1;fill-rule:nonzero;stroke:none"
                       id="path74" /><path
                       d="m 259.16,264.72 v 3"
                       style="fill:none;stroke:#000000;stroke-width:1;stroke-linecap:butt;stroke-linejoin:miter;stroke-miterlimit:10;stroke-dasharray:none;stroke-opacity:1"
                       id="path76" /><path
                       d="M 360.05,278.98 V 280 h -5.69 c 0,-0.25 0.04,-0.49 0.12,-0.73 0.15,-0.39 0.38,-0.77 0.7,-1.15 0.32,-0.37 0.78,-0.8 1.38,-1.29 0.94,-0.77 1.57,-1.38 1.9,-1.83 0.33,-0.45 0.49,-0.87 0.49,-1.27 0,-0.41 -0.15,-0.76 -0.45,-1.05 -0.3,-0.29 -0.69,-0.43 -1.17,-0.43 -0.51,0 -0.92,0.15 -1.22,0.45 -0.3,0.31 -0.46,0.73 -0.47,1.27 l -1.08,-0.11 c 0.08,-0.81 0.35,-1.43 0.84,-1.85 0.48,-0.42 1.14,-0.63 1.96,-0.63 0.82,0 1.47,0.22 1.95,0.68 0.48,0.46 0.72,1.03 0.72,1.71 0,0.34 -0.07,0.68 -0.21,1 -0.14,0.33 -0.37,0.68 -0.7,1.05 -0.33,0.37 -0.87,0.87 -1.62,1.51 -0.64,0.53 -1.04,0.89 -1.23,1.08 -0.18,0.2 -0.33,0.39 -0.44,0.57 z"
                       style="fill:#000000;fill-opacity:1;fill-rule:nonzero;stroke:none"
                       id="path78" /><path
                       d="m 356.6,264.72 v 3"
                       style="fill:none;stroke:#000000;stroke-width:1;stroke-linecap:butt;stroke-linejoin:miter;stroke-miterlimit:10;stroke-dasharray:none;stroke-opacity:1"
                       id="path80" /><path
                       d="m 158.73,167.28 h 3"
                       style="fill:none;stroke:#000000;stroke-width:1;stroke-linecap:butt;stroke-linejoin:miter;stroke-miterlimit:10;stroke-dasharray:none;stroke-opacity:1"
                       id="path82" /><path
                       d="m 158.73,69.847 h 3"
                       style="fill:none;stroke:#000000;stroke-width:1;stroke-linecap:butt;stroke-linejoin:miter;stroke-miterlimit:10;stroke-dasharray:none;stroke-opacity:1"
                       id="path84" /><path
                       d="m 152.47,172 h -1.05 v -6.72 c -0.26,0.24 -0.59,0.48 -1.01,0.73 -0.41,0.24 -0.77,0.42 -1.1,0.54 v -1.02 c 0.59,-0.28 1.1,-0.62 1.54,-1.01 0.44,-0.39 0.76,-0.77 0.95,-1.14 h 0.67 z"
                       style="fill:#000000;fill-opacity:1;fill-rule:nonzero;stroke:none"
                       id="path86" /><path
                       d="M 154.05,72.984 V 74 h -5.69 c 0,-0.25 0.04,-0.495 0.12,-0.734 0.15,-0.386 0.38,-0.766 0.7,-1.141 0.32,-0.375 0.78,-0.807 1.38,-1.297 0.94,-0.771 1.57,-1.38 1.9,-1.828 0.33,-0.448 0.49,-0.87 0.49,-1.266 0,-0.416 -0.15,-0.768 -0.45,-1.054 -0.3,-0.287 -0.69,-0.43 -1.17,-0.43 -0.51,0 -0.92,0.151 -1.22,0.453 -0.3,0.302 -0.46,0.724 -0.47,1.266 l -1.08,-0.11 c 0.08,-0.812 0.35,-1.429 0.84,-1.851 0.48,-0.422 1.14,-0.633 1.96,-0.633 0.82,0 1.47,0.229 1.95,0.687 0.48,0.459 0.72,1.027 0.72,1.704 0,0.343 -0.07,0.679 -0.21,1.007 -0.14,0.329 -0.37,0.678 -0.7,1.047 -0.33,0.37 -0.87,0.873 -1.62,1.508 -0.64,0.531 -1.04,0.893 -1.23,1.086 -0.18,0.193 -0.33,0.383 -0.44,0.57 z"
                       style="fill:#000000;fill-opacity:1;fill-rule:nonzero;stroke:none"
                       id="path88" /><path
                       d="m 148.5,275.77 c 0,-1.03 0.1,-1.85 0.31,-2.47 0.21,-0.62 0.52,-1.09 0.93,-1.42 0.41,-0.34 0.93,-0.5 1.56,-0.5 0.46,0 0.86,0.09 1.21,0.28 0.35,0.18 0.64,0.45 0.87,0.8 0.22,0.35 0.4,0.77 0.53,1.27 0.12,0.5 0.18,1.18 0.18,2.04 0,1.01 -0.1,1.82 -0.3,2.43 -0.2,0.62 -0.51,1.09 -0.92,1.43 -0.41,0.34 -0.94,0.51 -1.57,0.51 -0.83,0 -1.48,-0.3 -1.96,-0.89 -0.56,-0.71 -0.84,-1.87 -0.84,-3.48 z m 1.08,0 c 0,1.4 0.16,2.34 0.5,2.81 0.33,0.47 0.74,0.7 1.22,0.7 0.49,0 0.9,-0.23 1.22,-0.7 0.33,-0.47 0.5,-1.41 0.5,-2.81 0,-1.42 -0.17,-2.36 -0.5,-2.82 -0.32,-0.47 -0.74,-0.7 -1.24,-0.7 -0.48,0 -0.86,0.2 -1.16,0.61 -0.36,0.52 -0.54,1.49 -0.54,2.91 z"
                       style="fill:#000000;fill-opacity:1;fill-rule:nonzero;stroke:none"
                       id="path90" /><path
                       d="m 64.29,-222.46 c 129.91,519.66 259.83,519.66 389.74,0"
                       style="fill:none;stroke:#000000;stroke-width:2.5;stroke-linecap:round;stroke-linejoin:round;stroke-miterlimit:10;stroke-dasharray:none;stroke-opacity:0.69804"
                       id="path92" /><path
                       d="M 259.16,299 V -5"
                       style="fill:none;stroke:#000000;stroke-width:2.5;stroke-linecap:butt;stroke-linejoin:round;stroke-miterlimit:10;stroke-dasharray:10.5, 8;stroke-dashoffset:0;stroke-opacity:0.69804"
                       id="path94" /><path
                       d="m 42,264.72 h 97.44"
                       style="fill:none;stroke:#000000;stroke-width:3;stroke-linecap:round;stroke-linejoin:round;stroke-miterlimit:10;stroke-dasharray:none;stroke-opacity:0.69804"
                       id="path96" /><path
                       d="m 190.96,264.72 h 97.43"
                       style="fill:none;stroke:#000000;stroke-width:2.5;stroke-linecap:round;stroke-linejoin:round;stroke-miterlimit:10;stroke-dasharray:none;stroke-opacity:0.69804"
                       id="path98" /><path
                       d="m 45,264.72 c 0,1.66 -1.343,3 -3,3 -1.657,0 -3,-1.34 -3,-3 0,-1.66 1.343,-3 3,-3 1.657,0 3,1.34 3,3 z"
                       style="fill:#0000ff;fill-opacity:1;fill-rule:nonzero;stroke:none"
                       id="path100" /><path
                       d="m 45,264.72 c 0,1.66 -1.343,3 -3,3 -1.657,0 -3,-1.34 -3,-3 0,-1.66 1.343,-3 3,-3 1.657,0 3,1.34 3,3 z"
                       style="fill:none;stroke:#000000;stroke-width:1;stroke-linecap:round;stroke-linejoin:round;stroke-miterlimit:10;stroke-dasharray:none;stroke-opacity:1"
                       id="path102" /><g
                       id="g104"
                       transform="scale(19)"><g
                         id="g106"
                         transform="matrix(0.01,0,0,0.01,2,13.141)"><path
                           d="m 20.594,-40 -7.391,29.5 c -0.406,1.6667 -0.609,3.2656 -0.609,4.7969 0,3.0729 1.036,4.6093 3.109,4.6093 4.396,0 8.261,-3.2343 11.594,-9.7032 l 1.406,-3.109 c 0.396,-0.865 0.896,-1.328 1.5,-1.391 0.802,0 1.203,0.333 1.203,1 0,0.865 -0.87,2.766 -2.609,5.7032 -3.865,6.4584 -8.297,9.6876 -13.297,9.6876 -3.865,0 -6.599,-1.59901 -8.2031,-4.7969 -0.6667,-1.3334 -1,-2.7969 -1,-4.3907 C 6.2969,-9.3646 8.3333,-18 12.406,-34 l 1.5,-6 H 5.0938 c -1.6667,0 -2.5626,-0.266 -2.6876,-0.797 H 2.2969 v -0.406 c 0,-1.136 0.5364,-1.766 1.6093,-1.891 H 5.2969 14.703 L 18.594,-59 c 0.604,-2.333 1.937,-3.531 4,-3.594 1.739,0 2.708,0.896 2.906,2.688 0,0.406 -1.365,6.01 -4.094,16.812 h 8.797 c 1.729,0 2.662,0.365 2.797,1.094 0,1.198 -0.531,1.865 -1.594,2 H 31.297 30 Z"
                           style="fill:#0000ff;fill-opacity:1;fill-rule:nonzero;stroke:none"
                           id="path108" /><g
                           id="g110"
                           transform="matrix(5.2632,0,0,5.2632,-200,-1314.1)"><path
                             d="m 142.44,264.72 c 0,1.66 -1.35,3 -3,3 -1.66,0 -3,-1.34 -3,-3 0,-1.66 1.34,-3 3,-3 1.65,0 3,1.34 3,3 z"
                             style="fill:#0000ff;fill-opacity:1;fill-rule:nonzero;stroke:none"
                             id="path112" /><path
                             d="m 142.44,264.72 c 0,1.66 -1.35,3 -3,3 -1.66,0 -3,-1.34 -3,-3 0,-1.66 1.34,-3 3,-3 1.65,0 3,1.34 3,3 z"
                             style="fill:none;stroke:#000000;stroke-width:1;stroke-linecap:round;stroke-linejoin:round;stroke-miterlimit:10;stroke-dasharray:none;stroke-opacity:1"
                             id="path114" /><g
                             id="g116"
                             transform="scale(19)"><g
                               id="g118"
                               transform="matrix(0.01,0,0,0.01,6.1053,13.17)"><path
                                 d="m 20.594,-40 -7.391,29.5 c -0.406,1.6667 -0.609,3.2656 -0.609,4.7969 0,3.0729 1.036,4.6093 3.109,4.6093 4.396,0 8.261,-3.2343 11.594,-9.7032 l 1.406,-3.109 c 0.396,-0.865 0.896,-1.328 1.5,-1.391 0.802,0 1.203,0.333 1.203,1 0,0.865 -0.87,2.766 -2.609,5.7032 -3.865,6.4584 -8.297,9.6876 -13.297,9.6876 -3.865,0 -6.599,-1.59901 -8.2031,-4.7969 -0.6667,-1.3334 -1,-2.7969 -1,-4.3907 C 6.2969,-9.3646 8.3333,-18 12.406,-34 l 1.5,-6 H 5.0938 c -1.6667,0 -2.5626,-0.266 -2.6876,-0.797 H 2.2969 v -0.406 c 0,-1.136 0.5364,-1.766 1.6093,-1.891 H 5.2969 14.703 L 18.594,-59 c 0.604,-2.333 1.937,-3.531 4,-3.594 1.739,0 2.708,0.896 2.906,2.688 0,0.406 -1.365,6.01 -4.094,16.812 h 8.797 c 1.729,0 2.662,0.365 2.797,1.094 0,1.198 -0.531,1.865 -1.594,2 H 31.297 30 Z"
                                 style="fill:#0000ff;fill-opacity:1;fill-rule:nonzero;stroke:none"
                                 id="path120" /><g
                                 id="g122"
                                 transform="translate(58.32)"><path
                                   d="M 40.906,-23 V 5 c 0,2.1354 -0.666,3.2344 -2,3.2969 -1.333,0 -2,-1.099 -2,-3.2969 V -23 H 8.9062 c -2.1354,0 -3.2395,-0.667 -3.3124,-2 0,-1.333 1.1041,-2 3.3124,-2 H 36.906 v -28 c 0,-2.135 0.667,-3.234 2,-3.297 1.334,0 2,1.099 2,3.297 v 28 h 27.891 c 2.135,0 3.234,0.667 3.297,2 0,1.333 -1.099,2 -3.297,2 z"
                                   style="fill:#0000ff;fill-opacity:1;fill-rule:nonzero;stroke:none"
                                   id="path124" /><g
                                   id="g126"
                                   transform="translate(100.02)"><path
                                   d="m 29.406,-64 v 56.0938 c 0,2 0.396,3.2708 1.188,3.8124 1.135,0.6667 3.838,1 8.109,1 h 3.203 V 0 C 39.573,-0.19792 34.172,-0.29688 25.703,-0.29688 17.234,-0.29688 11.833,-0.19792 9.5,0 v -3.0938 h 3.203 c 5.136,0 8.068,-0.6041 8.797,-1.8124 L 21.594,-5 C 21.865,-5.5312 22,-6.5 22,-7.9062 V -59.703 c -3.469,1.739 -7.833,2.609 -13.0938,2.609 v -3.109 c 7.9998,0 14.0628,-2.13 18.1878,-6.391 1.271,0 2.005,0.229 2.203,0.688 v 0 0.109 c 0.073,0.198 0.109,0.797 0.109,1.797 z"
                                   style="fill:#0000ff;fill-opacity:1;fill-rule:nonzero;stroke:none"
                                   id="path128" /><g
                                   id="g130"
                                   transform="matrix(5.2632,0,0,5.2632,-768.87,-1317)"><path
                                   d="m 193.96,264.72 c 0,1.66 -1.35,3 -3,3 -1.66,0 -3,-1.34 -3,-3 0,-1.66 1.34,-3 3,-3 1.65,0 3,1.34 3,3 z"
                                   style="fill:#0000ff;fill-opacity:1;fill-rule:nonzero;stroke:none"
                                   id="path132" /><path
                                   d="m 193.96,264.72 c 0,1.66 -1.35,3 -3,3 -1.66,0 -3,-1.34 -3,-3 0,-1.66 1.34,-3 3,-3 1.65,0 3,1.34 3,3 z"
                                   style="fill:none;stroke:#000000;stroke-width:1;stroke-linecap:round;stroke-linejoin:round;stroke-miterlimit:10;stroke-dasharray:none;stroke-opacity:1"
                                   id="path134" /><g
                                   id="g136"
                                   transform="scale(19)"><g
                                   id="g138"
                                   transform="matrix(0.01,0,0,0.01,10.474,13.089)"><path
                                   d="m 20.594,-40 -7.391,29.5 c -0.406,1.6667 -0.609,3.2656 -0.609,4.7969 0,3.0729 1.036,4.6093 3.109,4.6093 4.396,0 8.261,-3.2343 11.594,-9.7032 l 1.406,-3.109 c 0.396,-0.865 0.896,-1.328 1.5,-1.391 0.802,0 1.203,0.333 1.203,1 0,0.865 -0.87,2.766 -2.609,5.7032 -3.865,6.4584 -8.297,9.6876 -13.297,9.6876 -3.865,0 -6.599,-1.59901 -8.2031,-4.7969 -0.6667,-1.3334 -1,-2.7969 -1,-4.3907 C 6.2969,-9.3646 8.3333,-18 12.406,-34 l 1.5,-6 H 5.0938 c -1.6667,0 -2.5626,-0.266 -2.6876,-0.797 H 2.2969 v -0.406 c 0,-1.136 0.5364,-1.766 1.6093,-1.891 H 5.2969 14.703 L 18.594,-59 c 0.604,-2.333 1.937,-3.531 4,-3.594 1.739,0 2.708,0.896 2.906,2.688 0,0.406 -1.365,6.01 -4.094,16.812 h 8.797 c 1.729,0 2.662,0.365 2.797,1.094 0,1.198 -0.531,1.865 -1.594,2 H 31.297 30 Z"
                                   style="fill:#0000ff;fill-opacity:1;fill-rule:nonzero;stroke:none"
                                   id="path140" /><g
                                   id="g142"
                                   transform="matrix(5.2632,0,0,5.2632,-1047.4,-1308.9)"><path
                                   d="m 291.39,264.72 c 0,1.66 -1.34,3 -3,3 -1.65,0 -3,-1.34 -3,-3 0,-1.66 1.35,-3 3,-3 1.66,0 3,1.34 3,3 z"
                                   style="fill:#0000ff;fill-opacity:1;fill-rule:nonzero;stroke:none"
                                   id="path144" /><path
                                   d="m 291.39,264.72 c 0,1.66 -1.34,3 -3,3 -1.65,0 -3,-1.34 -3,-3 0,-1.66 1.35,-3 3,-3 1.66,0 3,1.34 3,3 z"
                                   style="fill:none;stroke:#000000;stroke-width:1;stroke-linecap:round;stroke-linejoin:round;stroke-miterlimit:10;stroke-dasharray:none;stroke-opacity:1"
                                   id="path146" /><g
                                   id="g148"
                                   transform="scale(19)"><g
                                   id="g150"
                                   transform="matrix(0.01,0,0,0.01,15.579,13.118)"><path
                                   d="m 20.594,-40 -7.391,29.5 c -0.406,1.6667 -0.609,3.2656 -0.609,4.7969 0,3.0729 1.036,4.6093 3.109,4.6093 4.396,0 8.261,-3.2343 11.594,-9.7032 l 1.406,-3.109 c 0.396,-0.865 0.896,-1.328 1.5,-1.391 0.802,0 1.203,0.333 1.203,1 0,0.865 -0.87,2.766 -2.609,5.7032 -3.865,6.4584 -8.297,9.6876 -13.297,9.6876 -3.865,0 -6.599,-1.59901 -8.2031,-4.7969 -0.6667,-1.3334 -1,-2.7969 -1,-4.3907 C 6.2969,-9.3646 8.3333,-18 12.406,-34 l 1.5,-6 H 5.0938 c -1.6667,0 -2.5626,-0.266 -2.6876,-0.797 H 2.2969 v -0.406 c 0,-1.136 0.5364,-1.766 1.6093,-1.891 H 5.2969 14.703 L 18.594,-59 c 0.604,-2.333 1.937,-3.531 4,-3.594 1.739,0 2.708,0.896 2.906,2.688 0,0.406 -1.365,6.01 -4.094,16.812 h 8.797 c 1.729,0 2.662,0.365 2.797,1.094 0,1.198 -0.531,1.865 -1.594,2 H 31.297 30 Z"
                                   style="fill:#0000ff;fill-opacity:1;fill-rule:nonzero;stroke:none"
                                   id="path152" /><g
                                   id="g154"
                                   transform="translate(58.3)"><path
                                   d="M 40.906,-23 V 5 c 0,2.1354 -0.666,3.2344 -2,3.2969 -1.333,0 -2,-1.099 -2,-3.2969 V -23 H 8.9062 c -2.1354,0 -3.2395,-0.667 -3.3124,-2 0,-1.333 1.1041,-2 3.3124,-2 H 36.906 v -28 c 0,-2.135 0.667,-3.234 2,-3.297 1.334,0 2,1.099 2,3.297 v 28 h 27.891 c 2.135,0 3.234,0.667 3.297,2 0,1.333 -1.099,2 -3.297,2 z"
                                   style="fill:#0000ff;fill-opacity:1;fill-rule:nonzero;stroke:none"
                                   id="path156" /><g
                                   id="g158"
                                   transform="translate(100)"><path
                                   d="m 29.406,-64 v 56.0938 c 0,2 0.396,3.2708 1.188,3.8124 1.135,0.6667 3.838,1 8.109,1 h 3.203 V 0 C 39.573,-0.19792 34.172,-0.29688 25.703,-0.29688 17.234,-0.29688 11.833,-0.19792 9.5,0 v -3.0938 h 3.203 c 5.136,0 8.068,-0.6041 8.797,-1.8124 L 21.594,-5 C 21.865,-5.5312 22,-6.5 22,-7.9062 V -59.703 c -3.469,1.739 -7.833,2.609 -13.0938,2.609 v -3.109 c 7.9998,0 14.0628,-2.13 18.1878,-6.391 1.271,0 2.005,0.229 2.203,0.688 v 0 0.109 c 0.073,0.198 0.109,0.797 0.109,1.797 z"
                                   style="fill:#0000ff;fill-opacity:1;fill-rule:nonzero;stroke:none"
                                   id="path160" /><g
                                   id="g162"
                                   transform="matrix(5.2632,0,0,5.2632,-1716.2,-1311.8)" /></g></g></g></g></g></g></g></g></g></g></g></g></g></g></g></g></g><g
                   id="g164"
                   transform="scale(0.58185)" /></g></g></g></g></g></g></g></svg>
