<?xml version="1.0" encoding="UTF-8" standalone="no"?>
<svg
   xmlns:dc="http://purl.org/dc/elements/1.1/"
   xmlns:cc="http://creativecommons.org/ns#"
   xmlns:rdf="http://www.w3.org/1999/02/22-rdf-syntax-ns#"
   xmlns:svg="http://www.w3.org/2000/svg"
   xmlns="http://www.w3.org/2000/svg"
   xmlns:sodipodi="http://sodipodi.sourceforge.net/DTD/sodipodi-0.dtd"
   xmlns:inkscape="http://www.inkscape.org/namespaces/inkscape"
   version="1.1"
   id="svg1500"
   xml:space="preserve"
   width="318.66666"
   height="270.66666"
   viewBox="0 0 318.66666 270.66666"
   sodipodi:docname="2020-1115-1100-crop.pdf"><metadata
     id="metadata1506"><rdf:RDF><cc:Work
         rdf:about=""><dc:format>image/svg+xml</dc:format><dc:type
           rdf:resource="http://purl.org/dc/dcmitype/StillImage" /></cc:Work></rdf:RDF></metadata><defs
     id="defs1504"><clipPath
       clipPathUnits="userSpaceOnUse"
       id="clipPath1518"><path
         d="M 0,0 H 285 V 241 H 0 Z"
         id="path1516" /></clipPath><clipPath
       clipPathUnits="userSpaceOnUse"
       id="clipPath1528"><path
         d="M 0,0 H 285 V 241 H 0 Z"
         id="path1526" /></clipPath><clipPath
       clipPathUnits="userSpaceOnUse"
       id="clipPath1540"><path
         d="M 0,0 V 241 H 285 V 0 Z"
         id="path1538" /></clipPath><clipPath
       clipPathUnits="userSpaceOnUse"
       id="clipPath1550"><path
         d="M 0,0 H 503 V 426 H 0 Z"
         id="path1548" /></clipPath></defs><sodipodi:namedview
     pagecolor="#ffffff"
     bordercolor="#666666"
     borderopacity="1"
     objecttolerance="10"
     gridtolerance="10"
     guidetolerance="10"
     inkscape:pageopacity="0"
     inkscape:pageshadow="2"
     inkscape:window-width="640"
     inkscape:window-height="480"
     id="namedview1502" /><g
     id="g1508"
     inkscape:groupmode="layer"
     inkscape:label="2020-1115-1100-crop"
     transform="matrix(1.3333333,0,0,-1.3333333,0,270.66667)"><g
       id="g1510"
       transform="translate(-23,-19)"><g
         id="g1512"><g
           id="g1514"
           clip-path="url(#clipPath1518)"><g
             id="g1520"
             transform="matrix(0.83402,0,0,-0.83402,23.651,221)"><g
               id="g1522"><g
                 id="g1524"
                 clip-path="url(#clipPath1528)"><g
                   id="g1530"><g
                     id="g1532" /></g><g
                   id="g1534"><g
                     id="g1536"
                     clip-path="url(#clipPath1540)"><g
                       id="g1542"
                       transform="scale(0.56693)" /></g></g><g
                   id="g1544"
                   transform="scale(0.56693)"><g
                     id="g1546"
                     clip-path="url(#clipPath1550)"><path
                       d="M 0,0 H 503 V 426 H 0 Z"
                       style="fill:#ffffff;fill-opacity:1;fill-rule:nonzero;stroke:none"
                       id="path1552" /><path
                       d="M 253,2 V 426"
                       style="fill:none;stroke:#000000;stroke-width:1;stroke-linecap:butt;stroke-linejoin:miter;stroke-miterlimit:10;stroke-dasharray:none;stroke-opacity:1"
                       id="path1554" /><path
                       d="m 253,1 -4,4"
                       style="fill:none;stroke:#000000;stroke-width:1;stroke-linecap:butt;stroke-linejoin:miter;stroke-miterlimit:10;stroke-dasharray:none;stroke-opacity:1"
                       id="path1556" /><path
                       d="m 253,1 4,4"
                       style="fill:none;stroke:#000000;stroke-width:1;stroke-linecap:butt;stroke-linejoin:miter;stroke-miterlimit:10;stroke-dasharray:none;stroke-opacity:1"
                       id="path1558" /><path
                       d="m 485.12,223 3.04,-4.31 -2.82,-3.99 h 1.77 l 1.27,1.94 c 0.23,0.38 0.43,0.69 0.57,0.94 0.23,-0.35 0.45,-0.65 0.64,-0.92 l 1.39,-1.96 h 1.69 l -2.87,3.91 3.09,4.39 h -1.73 l -1.71,-2.58 -0.45,-0.7 -2.17,3.28 z"
                       style="fill:#000000;fill-opacity:1;fill-rule:nonzero;stroke:none"
                       id="path1560" /><path
                       d="M 0,227 H 501"
                       style="fill:none;stroke:#000000;stroke-width:1;stroke-linecap:butt;stroke-linejoin:miter;stroke-miterlimit:10;stroke-dasharray:none;stroke-opacity:1"
                       id="path1562" /><path
                       d="m 502,227 -4,-4"
                       style="fill:none;stroke:#000000;stroke-width:1;stroke-linecap:butt;stroke-linejoin:miter;stroke-miterlimit:10;stroke-dasharray:none;stroke-opacity:1"
                       id="path1564" /><path
                       d="m 502,227 -4,4"
                       style="fill:none;stroke:#000000;stroke-width:1;stroke-linecap:butt;stroke-linejoin:miter;stroke-miterlimit:10;stroke-dasharray:none;stroke-opacity:1"
                       id="path1566" /><path
                       d="m 259,24.203 -0.16,-1.328 c 0.31,0.083 0.57,0.125 0.8,0.125 0.31,0 0.56,-0.052 0.75,-0.156 0.19,-0.104 0.34,-0.25 0.47,-0.438 0.08,-0.135 0.22,-0.484 0.42,-1.047 0.03,-0.073 0.07,-0.187 0.13,-0.343 l -3.14,-8.313 h 1.51 l 1.72,4.797 c 0.23,0.615 0.43,1.255 0.61,1.922 0.16,-0.646 0.35,-1.276 0.58,-1.891 l 1.76,-4.828 h 1.41 l -3.16,8.438 c -0.33,0.916 -0.59,1.547 -0.78,1.89 -0.25,0.459 -0.53,0.797 -0.86,1.016 -0.32,0.219 -0.71,0.328 -1.15,0.328 -0.27,0 -0.58,-0.057 -0.91,-0.172 z"
                       style="fill:#000000;fill-opacity:1;fill-rule:nonzero;stroke:none"
                       id="path1568" /><path
                       d="m 58.945,433.94 3.93,-3.67 3.93,-3.65 3.929,-3.64 3.93,-3.63 3.93,-3.61 3.929,-3.6 3.93,-3.58 3.93,-3.57 3.929,-3.55 3.93,-3.53 3.928,-3.51 3.93,-3.48 3.93,-3.46 3.93,-3.44 3.93,-3.41 3.93,-3.37 3.93,-3.34 3.93,-3.31 3.93,-3.26 3.93,-3.22 3.93,-3.16 3.93,-3.11 3.93,-3.05 3.93,-2.98 3.93,-2.9 3.93,-2.82 3.93,-2.71 3.93,-2.6 3.93,-2.47 3.93,-2.32 3.93,-2.15 3.93,-1.93 3.92,-1.7 3.93,-1.4 3.93,-1.06 3.93,-0.62 3.93,-0.09 3.93,0.58 1.97,0.61 1.96,0.85 1.97,1.13 1.96,1.47 3.93,4.16 1.97,2.85 1.96,3.5 3.93,9.58 1.97,6.51 1.96,8.08 0.98,4.78 0.99,5.36 0.98,6.05 0.98,6.86 0.98,7.8 0.99,8.94 0.49,4.96 0.49,5.34 0.49,5.75 0.49,6.21 0.49,6.73 m 24.07,-441.2101 0.49,8.7711 0.49,8.029 0.5,7.371 0.49,6.789 0.49,6.267 0.49,5.8 0.49,5.38 0.49,5.001 0.98,9.001 0.99,7.858 0.98,6.902 0.98,6.091 0.98,5.401 1.97,9.097 1.96,7.289 1.97,5.893 3.93,8.69 3.93,5.76 1.96,2.08 1.97,1.66 3.93,2.3 1.96,0.73 1.97,0.5 3.93,0.41 3.93,-0.23 3.93,-0.73 3.93,-1.15 3.92,-1.48 3.93,-1.75 3.93,-1.99 3.93,-2.19 3.93,-2.36 3.93,-2.5 3.93,-2.63 3.93,-2.74 3.93,-2.83 3.93,-2.93 3.93,-2.992 3.93,-3.064 3.93,-3.125 3.93,-3.179 3.93,-3.228 3.93,-3.273 3.93,-3.313 3.93,-3.349 3.93,-3.383 3.93,-3.414 3.93,-3.442 3.93,-3.468 3.93,-3.491 3.93,-3.514 3.93,-3.535 3.93,-3.553 3.93,-3.571 3.93,-3.587 3.93,-3.603 3.93,-3.617 3.93,-3.631 3.92,-3.643 3.93,-3.655 3.93,-3.666 3.93,-3.676 3.93,-3.687 3.93,-3.695 3.93,-3.7042 3.93,-3.71241 3.93,-3.72029 3.93,-3.7276"
                       style="fill:none;stroke:#006400;stroke-width:2.5;stroke-linecap:round;stroke-linejoin:round;stroke-miterlimit:10;stroke-dasharray:none;stroke-opacity:0.69804"
                       id="path1570" /><path
                       d="M 49,431 485,-5"
                       style="fill:none;stroke:#000000;stroke-width:1.5;stroke-linecap:butt;stroke-linejoin:round;stroke-miterlimit:10;stroke-dasharray:9.5, 8;stroke-dashoffset:0;stroke-opacity:0.69804"
                       id="path1572" /><path
                       d="M 303,227 V 127"
                       style="fill:none;stroke:#000000;stroke-width:1.5;stroke-linecap:butt;stroke-linejoin:round;stroke-miterlimit:10;stroke-dasharray:9.5, 8;stroke-dashoffset:0;stroke-opacity:0.69804"
                       id="path1574" /><path
                       d="m 253,127 h 50"
                       style="fill:none;stroke:#000000;stroke-width:1.5;stroke-linecap:butt;stroke-linejoin:round;stroke-miterlimit:10;stroke-dasharray:9.5, 8;stroke-dashoffset:0;stroke-opacity:0.69804"
                       id="path1576" /><path
                       d="m 256,227 c 0,1.66 -1.34,3 -3,3 -1.66,0 -3,-1.34 -3,-3 0,-1.66 1.34,-3 3,-3 1.66,0 3,1.34 3,3 z"
                       style="fill:#000000;fill-opacity:1;fill-rule:nonzero;stroke:none"
                       id="path1578" /><path
                       d="m 256,227 c 0,1.66 -1.34,3 -3,3 -1.66,0 -3,-1.34 -3,-3 0,-1.66 1.34,-3 3,-3 1.66,0 3,1.34 3,3 z"
                       style="fill:none;stroke:#000000;stroke-width:1;stroke-linecap:round;stroke-linejoin:round;stroke-miterlimit:10;stroke-dasharray:none;stroke-opacity:1"
                       id="path1580" /><g
                       id="g1582"
                       transform="scale(19)"><g
                         id="g1584"
                         transform="matrix(0.01,0,0,0.01,12.368,13.736)"><path
                           d="m 74,-43.594 v 0 C 74,-33.26 70.333,-23.698 63,-14.906 56.396,-6.9062 48.661,-1.6354 39.797,0.90625 36.661,1.7708 33.562,2.2031 30.5,2.2031 22.167,2.2031 15.599,-0.72917 10.797,-6.5938 6.8698,-11.396 4.9062,-17.365 4.9062,-24.5 c 0,-10 3.5626,-19.469 10.6878,-28.406 6.604,-8.063 14.338,-13.427 23.203,-16.094 3.271,-1 6.505,-1.5 9.703,-1.5 8.469,0 15.104,3.068 19.906,9.203 3.729,4.802 5.594,10.703 5.594,17.703 z M 31.094,-0.40625 v 0 c 6.271,0 12.307,-2.79685 18.109,-8.39065 1.198,-1.1354 2.297,-2.3381 3.297,-3.6091 6.531,-8.125 10.562,-17.823 12.094,-29.094 0.333,-2.198 0.5,-4.198 0.5,-6 0,-9.135 -3.063,-15.333 -9.188,-18.594 -0.073,0 -0.14,-0.036 -0.203,-0.109 C 53.297,-67.401 50.698,-68 47.906,-68 c -6.271,0 -12.338,2.698 -18.203,8.094 -2.406,2.135 -4.542,4.635 -6.406,7.5 -5.063,7.666 -8.026,16.833 -8.891,27.5 -0.135,1.208 -0.203,2.276 -0.203,3.203 0,8.531 2.568,14.6665 7.703,18.4061 2.667,1.9271 5.729,2.89065 9.188,2.89065 z"
                           style="fill:#000000;fill-opacity:1;fill-rule:nonzero;stroke:none"
                           id="path1586" /><g
                           id="g1588"
                           transform="matrix(5.2632,0,0,5.2632,-1236.8,-1373.6)"><path
                             d="m 306,127 c 0,1.66 -1.34,3 -3,3 -1.66,0 -3,-1.34 -3,-3 0,-1.66 1.34,-3 3,-3 1.66,0 3,1.34 3,3 z"
                             style="fill:#0000ff;fill-opacity:1;fill-rule:nonzero;stroke:none"
                             id="path1590" /><path
                             d="m 306,127 c 0,1.66 -1.34,3 -3,3 -1.66,0 -3,-1.34 -3,-3 0,-1.66 1.34,-3 3,-3 1.66,0 3,1.34 3,3 z"
                             style="fill:none;stroke:#000000;stroke-width:1;stroke-linecap:round;stroke-linejoin:round;stroke-miterlimit:10;stroke-dasharray:none;stroke-opacity:1"
                             id="path1592" /><g
                             id="g1594"
                             transform="scale(19)"><g
                               id="g1596"
                               transform="matrix(0.01,0,0,0.01,15.211,5.6974)"><path
                                 d="m 33.094,24 v 0 c 0,0.667 -0.334,1 -1,1 -0.792,0 -2.558,-1.365 -5.297,-4.094 C 22.661,16.771 19.229,11.87 16.5,6.2031 12.104,-2.8698 9.9062,-13.271 9.9062,-25 c 0,-11.271 2.0988,-21.438 6.2968,-30.5 3.469,-7.396 7.87,-13.328 13.203,-17.797 1.396,-1.135 2.292,-1.703 2.688,-1.703 0.666,0 1,0.333 1,1 0,0.333 -0.433,0.901 -1.297,1.703 C 21.068,-61.37 15.703,-45.604 15.703,-25 c 0,20.5312 5.235,36.13 15.703,46.797 1.125,1.135 1.688,1.87 1.688,2.203 z"
                                 style="fill:#0000ff;fill-opacity:1;fill-rule:nonzero;stroke:none"
                                 id="path1598" /><g
                                 id="g1600"
                                 transform="translate(38.9)"><path
                                   d="m 29.406,-64 v 56.0938 c 0,2 0.396,3.2708 1.188,3.8124 1.135,0.6667 3.838,1 8.109,1 h 3.203 V 0 C 39.573,-0.19792 34.172,-0.29688 25.703,-0.29688 17.234,-0.29688 11.833,-0.19792 9.5,0 v -3.0938 h 3.203 c 5.136,0 8.068,-0.6041 8.797,-1.8124 L 21.594,-5 C 21.865,-5.5312 22,-6.5 22,-7.9062 V -59.703 c -3.469,1.739 -7.833,2.609 -13.0938,2.609 v -3.109 c 7.9998,0 14.0628,-2.13 18.1878,-6.391 1.271,0 2.005,0.229 2.203,0.688 v 0 0.109 c 0.073,0.198 0.109,0.797 0.109,1.797 z"
                                   style="fill:#0000ff;fill-opacity:1;fill-rule:nonzero;stroke:none"
                                   id="path1602" /><g
                                   id="g1604"
                                   transform="translate(50)"><path
                                   d="m 20.297,-0.09375 v 0 C 20.297,6.3646 18.198,12.031 14,16.906 c -1.135,1.334 -2.068,2.13 -2.797,2.391 -0.667,0 -1,-0.365 -1,-1.094 0,-0.333 0.365,-0.87 1.094,-1.609 4,-4 6.234,-8.8961 6.703,-14.6878 0.062,-0.6666 0.094,-1.33328 0.094,-1.99995 0,-1.00005 -0.063,-1.50005 -0.188,-1.50005 -0.073,0 -0.239,0.099 -0.5,0.2969 C 16.469,-0.43229 15.302,0 13.906,0 11.438,0 9.8021,-1.1354 9,-3.4062 8.7292,-4 8.5938,-4.6302 8.5938,-5.2969 c 0,-2.4062 1.0364,-4.0416 3.1092,-4.9061 0.667,-0.261 1.401,-0.391 2.203,-0.391 2.927,0 4.891,1.9325 5.891,5.7971 0.333,1.3959 0.5,2.9636 0.5,4.70315 z"
                                   style="fill:#0000ff;fill-opacity:1;fill-rule:nonzero;stroke:none"
                                   id="path1606" /><g
                                   id="g1608"
                                   transform="translate(44.4)"><path
                                   d="m 44.906,-17.406 v 0 L 42.094,0 H 5 c 0,-1.6667 0.1979,-2.7344 0.5938,-3.2031 l 0.5,-0.5 19.2032,-21.3909 c 7,-7.875 10.5,-15.245 10.5,-22.109 0,-5.927 -1.797,-10.427 -5.391,-13.5 l -0.109,-0.094 h -0.094 c -2.135,-1.802 -4.734,-2.703 -7.797,-2.703 -4.802,0 -8.635,2.068 -11.5,6.203 -0.802,1.198 -1.4685,2.531 -1.9998,4 0.198,-0.073 0.6303,-0.109 1.2968,-0.109 2.667,0 4.365,1.203 5.094,3.609 v 0.094 c 0.135,0.469 0.203,0.969 0.203,1.5 0,2.667 -1.266,4.37 -3.797,5.109 -0.531,0.125 -1,0.188 -1.406,0.188 -2.4689,0 -4.0991,-1.032 -4.8908,-3.094 C 5.1354,-46.729 5,-47.562 5,-48.5 c 0,-5.135 1.9688,-9.536 5.906,-13.203 3.532,-3.261 7.797,-4.891 12.797,-4.891 7.333,0 13.031,2.464 17.094,7.391 2.333,2.864 3.667,6.265 4,10.203 0.073,0.604 0.109,1.203 0.109,1.797 0,4.864 -1.833,9.5 -5.5,13.906 -1.937,2.261 -4.937,5.261 -9,9 l -6.109,5.391 -1,0.906 -10.594,10.2969 h 18 c 5.865,0 9.031,-0.2657 9.5,-0.7969 0.667,-0.9375 1.401,-3.906 2.203,-8.906 z"
                                   style="fill:#0000ff;fill-opacity:1;fill-rule:nonzero;stroke:none"
                                   id="path1610" /><g
                                   id="g1612"
                                   transform="translate(50)"><path
                                   d="m 28.906,-25 v 0 c 0,11.271 -2.104,21.4375 -6.312,30.5 C 19.135,12.896 14.74,18.828 9.4062,23.297 8,24.432 7.099,25 6.7031,25 c -0.6666,0 -1,-0.333 -1,-1 C 5.7031,23.667 6.1354,23.099 7,22.297 17.729,11.37 23.094,-4.3958 23.094,-25 c 0,-20.333 -5,-35.734 -15.0002,-46.203 l -0.5,-0.5 C 6.3333,-72.901 5.7031,-73.667 5.7031,-74 c 0,-0.667 0.3334,-1 1,-1 0.8021,0 2.5677,1.365 5.2969,4.094 4.135,4.135 7.568,9.036 10.297,14.703 4.406,9.073 6.609,19.474 6.609,31.203 z"
                                   style="fill:#0000ff;fill-opacity:1;fill-rule:nonzero;stroke:none"
                                   id="path1614" /><g
                                   id="g1616"
                                   transform="matrix(5.2632,0,0,5.2632,-1704.4,-569.74)"><path
                                   d="m 306,227 c 0,1.66 -1.34,3 -3,3 -1.66,0 -3,-1.34 -3,-3 0,-1.66 1.34,-3 3,-3 1.66,0 3,1.34 3,3 z"
                                   style="fill:#0000ff;fill-opacity:1;fill-rule:nonzero;stroke:none"
                                   id="path1618" /><path
                                   d="m 306,227 c 0,1.66 -1.34,3 -3,3 -1.66,0 -3,-1.34 -3,-3 0,-1.66 1.34,-3 3,-3 1.66,0 3,1.34 3,3 z"
                                   style="fill:none;stroke:#000000;stroke-width:1;stroke-linecap:round;stroke-linejoin:round;stroke-miterlimit:10;stroke-dasharray:none;stroke-opacity:1"
                                   id="path1620" /><g
                                   id="g1622"
                                   transform="scale(19)"><g
                                   id="g1624"
                                   transform="matrix(0.01,0,0,0.01,15.737,13.17)"><path
                                   d="m 29.406,-64 v 56.0938 c 0,2 0.396,3.2708 1.188,3.8124 1.135,0.6667 3.838,1 8.109,1 h 3.203 V 0 C 39.573,-0.19792 34.172,-0.29688 25.703,-0.29688 17.234,-0.29688 11.833,-0.19792 9.5,0 v -3.0938 h 3.203 c 5.136,0 8.068,-0.6041 8.797,-1.8124 L 21.594,-5 C 21.865,-5.5312 22,-6.5 22,-7.9062 V -59.703 c -3.469,1.739 -7.833,2.609 -13.0938,2.609 v -3.109 c 7.9998,0 14.0628,-2.13 18.1878,-6.391 1.271,0 2.005,0.229 2.203,0.688 v 0 0.109 c 0.073,0.198 0.109,0.797 0.109,1.797 z"
                                   style="fill:#0000ff;fill-opacity:1;fill-rule:nonzero;stroke:none"
                                   id="path1626" /><g
                                   id="g1628"
                                   transform="matrix(5.2632,0,0,5.2632,-1573.7,-1317)"><path
                                   d="m 256,127 c 0,1.66 -1.34,3 -3,3 -1.66,0 -3,-1.34 -3,-3 0,-1.66 1.34,-3 3,-3 1.66,0 3,1.34 3,3 z"
                                   style="fill:#0000ff;fill-opacity:1;fill-rule:nonzero;stroke:none"
                                   id="path1630" /><path
                                   d="m 256,127 c 0,1.66 -1.34,3 -3,3 -1.66,0 -3,-1.34 -3,-3 0,-1.66 1.34,-3 3,-3 1.66,0 3,1.34 3,3 z"
                                   style="fill:none;stroke:#000000;stroke-width:1;stroke-linecap:round;stroke-linejoin:round;stroke-miterlimit:10;stroke-dasharray:none;stroke-opacity:1"
                                   id="path1632" /><g
                                   id="g1634"
                                   transform="scale(19)"><g
                                   id="g1636"
                                   transform="matrix(0.01,0,0,0.01,12.316,6.9072)"><path
                                   d="m 44.906,-17.406 v 0 L 42.094,0 H 5 c 0,-1.6667 0.1979,-2.7344 0.5938,-3.2031 l 0.5,-0.5 19.2032,-21.3909 c 7,-7.875 10.5,-15.245 10.5,-22.109 0,-5.927 -1.797,-10.427 -5.391,-13.5 l -0.109,-0.094 h -0.094 c -2.135,-1.802 -4.734,-2.703 -7.797,-2.703 -4.802,0 -8.635,2.068 -11.5,6.203 -0.802,1.198 -1.4685,2.531 -1.9998,4 0.198,-0.073 0.6303,-0.109 1.2968,-0.109 2.667,0 4.365,1.203 5.094,3.609 v 0.094 c 0.135,0.469 0.203,0.969 0.203,1.5 0,2.667 -1.266,4.37 -3.797,5.109 -0.531,0.125 -1,0.188 -1.406,0.188 -2.4689,0 -4.0991,-1.032 -4.8908,-3.094 C 5.1354,-46.729 5,-47.562 5,-48.5 c 0,-5.135 1.9688,-9.536 5.906,-13.203 3.532,-3.261 7.797,-4.891 12.797,-4.891 7.333,0 13.031,2.464 17.094,7.391 2.333,2.864 3.667,6.265 4,10.203 0.073,0.604 0.109,1.203 0.109,1.797 0,4.864 -1.833,9.5 -5.5,13.906 -1.937,2.261 -4.937,5.261 -9,9 l -6.109,5.391 -1,0.906 -10.594,10.2969 h 18 c 5.865,0 9.031,-0.2657 9.5,-0.7969 0.667,-0.9375 1.401,-3.906 2.203,-8.906 z"
                                   style="fill:#0000ff;fill-opacity:1;fill-rule:nonzero;stroke:none"
                                   id="path1638" /><g
                                   id="g1640"
                                   transform="matrix(5.2632,0,0,5.2632,-1231.6,-690.72)"><path
                                   d="m 206,327 c 0,1.66 -1.34,3 -3,3 -1.66,0 -3,-1.34 -3,-3 0,-1.66 1.34,-3 3,-3 1.66,0 3,1.34 3,3 z"
                                   style="fill:#0000ff;fill-opacity:1;fill-rule:nonzero;stroke:none"
                                   id="path1642" /><path
                                   d="m 206,327 c 0,1.66 -1.34,3 -3,3 -1.66,0 -3,-1.34 -3,-3 0,-1.66 1.34,-3 3,-3 1.66,0 3,1.34 3,3 z"
                                   style="fill:none;stroke:#000000;stroke-width:1;stroke-linecap:round;stroke-linejoin:round;stroke-miterlimit:10;stroke-dasharray:none;stroke-opacity:1"
                                   id="path1644" /><g
                                   id="g1646"
                                   transform="scale(19)"><g
                                   id="g1648"
                                   transform="matrix(0.01,0,0,0.01,8.1579,19.434)"><path
                                   d="m 33.094,24 v 0 c 0,0.667 -0.334,1 -1,1 -0.792,0 -2.558,-1.365 -5.297,-4.094 C 22.661,16.771 19.229,11.87 16.5,6.2031 12.104,-2.8698 9.9062,-13.271 9.9062,-25 c 0,-11.271 2.0988,-21.438 6.2968,-30.5 3.469,-7.396 7.87,-13.328 13.203,-17.797 1.396,-1.135 2.292,-1.703 2.688,-1.703 0.666,0 1,0.333 1,1 0,0.333 -0.433,0.901 -1.297,1.703 C 21.068,-61.37 15.703,-45.604 15.703,-25 c 0,20.5312 5.235,36.13 15.703,46.797 1.125,1.135 1.688,1.87 1.688,2.203 z"
                                   style="fill:#0000ff;fill-opacity:1;fill-rule:nonzero;stroke:none"
                                   id="path1650" /><g
                                   id="g1652"
                                   transform="translate(38.9)"><path
                                   d="m 66.094,-23 h -54.5 c -2.1252,0 -3.2242,-0.667 -3.2971,-2 0,-1.333 1.0989,-2 3.2971,-2 h 54.5 c 2.135,0 3.239,0.667 3.312,2 0,1.333 -1.104,2 -3.312,2 z"
                                   style="fill:#0000ff;fill-opacity:1;fill-rule:nonzero;stroke:none"
                                   id="path1654" /><g
                                   id="g1656"
                                   transform="translate(77.8)"><path
                                   d="m 29.406,-64 v 56.0938 c 0,2 0.396,3.2708 1.188,3.8124 1.135,0.6667 3.838,1 8.109,1 h 3.203 V 0 C 39.573,-0.19792 34.172,-0.29688 25.703,-0.29688 17.234,-0.29688 11.833,-0.19792 9.5,0 v -3.0938 h 3.203 c 5.136,0 8.068,-0.6041 8.797,-1.8124 L 21.594,-5 C 21.865,-5.5312 22,-6.5 22,-7.9062 V -59.703 c -3.469,1.739 -7.833,2.609 -13.0938,2.609 v -3.109 c 7.9998,0 14.0628,-2.13 18.1878,-6.391 1.271,0 2.005,0.229 2.203,0.688 v 0 0.109 c 0.073,0.198 0.109,0.797 0.109,1.797 z"
                                   style="fill:#0000ff;fill-opacity:1;fill-rule:nonzero;stroke:none"
                                   id="path1658" /><g
                                   id="g1660"
                                   transform="translate(50)"><path
                                   d="m 20.297,-0.09375 v 0 C 20.297,6.3646 18.198,12.031 14,16.906 c -1.135,1.334 -2.068,2.13 -2.797,2.391 -0.667,0 -1,-0.365 -1,-1.094 0,-0.333 0.365,-0.87 1.094,-1.609 4,-4 6.234,-8.8961 6.703,-14.6878 0.062,-0.6666 0.094,-1.33328 0.094,-1.99995 0,-1.00005 -0.063,-1.50005 -0.188,-1.50005 -0.073,0 -0.239,0.099 -0.5,0.2969 C 16.469,-0.43229 15.302,0 13.906,0 11.438,0 9.8021,-1.1354 9,-3.4062 8.7292,-4 8.5938,-4.6302 8.5938,-5.2969 c 0,-2.4062 1.0364,-4.0416 3.1092,-4.9061 0.667,-0.261 1.401,-0.391 2.203,-0.391 2.927,0 4.891,1.9325 5.891,5.7971 0.333,1.3959 0.5,2.9636 0.5,4.70315 z"
                                   style="fill:#0000ff;fill-opacity:1;fill-rule:nonzero;stroke:none"
                                   id="path1662" /><g
                                   id="g1664"
                                   transform="translate(44.51)"><path
                                   d="m 66.094,-23 h -54.5 c -2.1252,0 -3.2242,-0.667 -3.2971,-2 0,-1.333 1.0989,-2 3.2971,-2 h 54.5 c 2.135,0 3.239,0.667 3.312,2 0,1.333 -1.104,2 -3.312,2 z"
                                   style="fill:#0000ff;fill-opacity:1;fill-rule:nonzero;stroke:none"
                                   id="path1666" /><g
                                   id="g1668"
                                   transform="translate(77.8)"><path
                                   d="m 44.906,-17.406 v 0 L 42.094,0 H 5 c 0,-1.6667 0.1979,-2.7344 0.5938,-3.2031 l 0.5,-0.5 19.2032,-21.3909 c 7,-7.875 10.5,-15.245 10.5,-22.109 0,-5.927 -1.797,-10.427 -5.391,-13.5 l -0.109,-0.094 h -0.094 c -2.135,-1.802 -4.734,-2.703 -7.797,-2.703 -4.802,0 -8.635,2.068 -11.5,6.203 -0.802,1.198 -1.4685,2.531 -1.9998,4 0.198,-0.073 0.6303,-0.109 1.2968,-0.109 2.667,0 4.365,1.203 5.094,3.609 v 0.094 c 0.135,0.469 0.203,0.969 0.203,1.5 0,2.667 -1.266,4.37 -3.797,5.109 -0.531,0.125 -1,0.188 -1.406,0.188 -2.4689,0 -4.0991,-1.032 -4.8908,-3.094 C 5.1354,-46.729 5,-47.562 5,-48.5 c 0,-5.135 1.9688,-9.536 5.906,-13.203 3.532,-3.261 7.797,-4.891 12.797,-4.891 7.333,0 13.031,2.464 17.094,7.391 2.333,2.864 3.667,6.265 4,10.203 0.073,0.604 0.109,1.203 0.109,1.797 0,4.864 -1.833,9.5 -5.5,13.906 -1.937,2.261 -4.937,5.261 -9,9 l -6.109,5.391 -1,0.906 -10.594,10.2969 h 18 c 5.865,0 9.031,-0.2657 9.5,-0.7969 0.667,-0.9375 1.401,-3.906 2.203,-8.906 z"
                                   style="fill:#0000ff;fill-opacity:1;fill-rule:nonzero;stroke:none"
                                   id="path1670" /><g
                                   id="g1672"
                                   transform="translate(50)"><path
                                   d="m 28.906,-25 v 0 c 0,11.271 -2.104,21.4375 -6.312,30.5 C 19.135,12.896 14.74,18.828 9.4062,23.297 8,24.432 7.099,25 6.7031,25 c -0.6666,0 -1,-0.333 -1,-1 C 5.7031,23.667 6.1354,23.099 7,22.297 17.729,11.37 23.094,-4.3958 23.094,-25 c 0,-20.333 -5,-35.734 -15.0002,-46.203 l -0.5,-0.5 C 6.3333,-72.901 5.7031,-73.667 5.7031,-74 c 0,-0.667 0.3334,-1 1,-1 0.8021,0 2.5677,1.365 5.2969,4.094 4.135,4.135 7.568,9.036 10.297,14.703 4.406,9.073 6.609,19.474 6.609,31.203 z"
                                   style="fill:#0000ff;fill-opacity:1;fill-rule:nonzero;stroke:none"
                                   id="path1674" /><g
                                   id="g1676"
                                   transform="matrix(5.2632,0,0,5.2632,-1154.8,-1943.4)"><g
                                   id="g1678"
                                   transform="scale(19)"><g
                                   id="g1680"
                                   transform="matrix(0.01,0,0,0.01,19.632,7.5889)"><path
                                   d="M 48.594,-38.094 39,0.09375 C 37.396,6.6354 33.828,11.938 28.297,16 24.234,19 20,20.5 15.594,20.5 11.135,20.5 7.9688,18.969 6.0938,15.906 5.3646,14.635 5,13.266 5,11.797 5,8.401 6.3646,6.3021 9.0938,5.5 9.6354,5.3646 10.135,5.2969 10.594,5.2969 c 2.135,0 3.338,0.9323 3.609,2.7969 0.063,0.2083 0.094,0.4427 0.094,0.7031 0,1.5311 -0.667,2.9011 -2,4.1091 -0.927,0.792 -2.3595,1.188 -4.297,1.188 1.1979,2.802 3.729,4.203 7.594,4.203 4.135,0 7.802,-2.099 11,-6.297 2.604,-3.4688 4.672,-8.1667 6.203,-14.0938 0.073,-0.2708 0.172,-0.7083 0.297,-1.3124 -3,2.99995 -6.365,4.5 -10.094,4.5 -5.333,0 -8.969,-1.96359 -10.906,-5.8907 -0.865,-1.7396 -1.297,-3.7396 -1.297,-6.0001 0,-3.667 1.765,-10.234 5.297,-19.703 0.135,-0.396 0.302,-0.828 0.5,-1.297 1.135,-3.073 1.703,-5.406 1.703,-7 0,-2.135 -0.833,-3.203 -2.5,-3.203 -3.667,0 -6.6668,3.031 -9.0001,9.094 v 0.109 c -0.3959,1 -0.7604,2.068 -1.0938,3.203 -0.7396,1.125 -1.276,1.724 -1.6093,1.797 -0.7917,0 -1.1876,-0.333 -1.1876,-1 0,-1.198 0.698,-3.297 2.0938,-6.297 2.9375,-6.073 6.635,-9.109 11.094,-9.109 3.541,0 6.01,1.5 7.406,4.5 0.531,1.135 0.797,2.37 0.797,3.703 0,1.396 -0.667,3.797 -2,7.203 -3.396,8.802 -5.094,15.333 -5.094,19.5939 0,5.4062 2.068,8.1093 6.203,8.1093 3.865,0 7.229,-2.0677 10.094,-6.2031 0.667,-1 1.068,-1.7656 1.203,-2.2969 l 4.5,-18.0002 c 0.469,-2.208 1.136,-4.875 2,-8 0.667,-2.875 1.13,-4.677 1.391,-5.406 0.875,-1.396 2.041,-2.094 3.5,-2.094 1.666,0.334 2.635,1.229 2.906,2.688 0,0.604 -0.135,1.375 -0.406,2.312 z"
                                   style="fill:#000000;fill-opacity:1;fill-rule:nonzero;stroke:none"
                                   id="path1682" /><g
                                   id="g1684"
                                   transform="translate(80.3)"><path
                                   d="M 68.703,-32.703 H 9 c -2.1354,0 -3.2708,-0.667 -3.4062,-2 0,-1.333 1.1041,-2 3.3124,-2 H 68.797 c 2.135,0 3.234,0.667 3.297,2 0,1.333 -1.13,2 -3.391,2 z m 0.094,19.406 H 8.9062 c -2.1354,0 -3.2395,-0.667 -3.3124,-2 0,-1.333 1.1354,-2 3.4062,-2 h 59.703 c 2.136,0 3.266,0.667 3.391,2 0,1.333 -1.099,2 -3.297,2 z"
                                   style="fill:#000000;fill-opacity:1;fill-rule:nonzero;stroke:none"
                                   id="path1686" /><g
                                   id="g1688"
                                   transform="translate(105.6)"><path
                                   d="M 33.406,-30.203 30,-16.5 c -1.135,4.531 -1.703,7.4635 -1.703,8.7969 0,3.4687 1.234,5.5677 3.703,6.2969 0.531,0.2083 1.13,0.3124 1.797,0.3124 3.333,0 6.37,-1.6666 9.109,-5 1.792,-2.1354 3.188,-4.8382 4.188,-8.1092 0.208,-0.729 0.646,-1.094 1.312,-1.094 0.792,0 1.188,0.333 1.188,1 0,1.667 -1.032,4.068 -3.094,7.2032 -3.604,5.4584 -7.906,8.1876 -12.906,8.1876 -4.532,0 -7.828,-1.89588 -9.891,-5.6876 -0.406,-0.6041 -0.708,-1.2395 -0.906,-1.9062 -1.594,3.1979 -3.792,5.4323 -6.594,6.70312 -1.271,0.59376 -2.573,0.89068 -3.906,0.89068 -4.0001,0 -6.797,-1.166717 -8.3908,-3.5 -0.6666,-0.8646 -1,-1.8959 -1,-3.0938 0,-2.4688 1.0626,-4.2031 3.1876,-5.203 0.7395,-0.396 1.5104,-0.594 2.3124,-0.594 1.9998,0 3.1978,0.833 3.5938,2.5001 0.062,0.3334 0.094,0.6667 0.094,1 0,2.2604 -1.13,3.9271 -3.3909,5 -0.4062,0.1979 -0.8385,0.3281 -1.2969,0.3907 1.3959,0.875 3.0628,1.3124 4.9998,1.3124 3.532,0 6.328,-2.3697 8.391,-7.1093 0.406,-1 0.776,-2.0989 1.109,-3.2969 3.594,-13.604 5.391,-21.536 5.391,-23.797 -0.396,-4.135 -2.193,-6.37 -5.391,-6.703 -3.468,0 -6.635,1.766 -9.5,5.297 v 0.109 c 0,0.063 -0.036,0.094 -0.109,0.094 -1,1.333 -1.901,2.865 -2.7032,4.594 -0.3334,0.802 -0.6303,1.604 -0.8907,2.406 L 8.5,-28.906 c -0.1354,0.739 -0.5677,1.109 -1.2969,1.109 -0.8021,0 -1.2031,-0.333 -1.2031,-1 0,-1.667 1.0677,-4.068 3.2031,-7.203 3.5939,-5.469 7.8909,-8.203 12.8909,-8.203 5.135,0 8.739,2.536 10.812,7.609 2.125,-4.135 4.959,-6.604 8.5,-7.406 0.667,-0.135 1.334,-0.203 2,-0.203 3.927,0 6.693,1.099 8.297,3.297 0.667,0.937 1,2.041 1,3.312 0,2.729 -1.234,4.563 -3.703,5.5 -0.604,0.198 -1.172,0.297 -1.703,0.297 -2.063,0 -3.297,-0.901 -3.703,-2.703 -0.063,-0.271 -0.094,-0.536 -0.094,-0.797 0,-2 0.969,-3.568 2.906,-4.703 0.594,-0.333 1.224,-0.568 1.891,-0.703 -1.396,-0.865 -3.063,-1.297 -5,-1.297 -4.531,0 -7.729,3.531 -9.594,10.594 -0.135,0.406 -0.234,0.807 -0.297,1.203 z"
                                   style="fill:#000000;fill-opacity:1;fill-rule:nonzero;stroke:none"
                                   id="path1690" /><g
                                   id="g1692"
                                   transform="matrix(1.000008,0,0,1.000008,-701.68842,-553.14835)"><path
                                   d="M 48.594,-38.094 39,0.09375 C 37.396,6.6354 33.828,11.938 28.297,16 24.234,19 20,20.5 15.594,20.5 11.135,20.5 7.9688,18.969 6.0938,15.906 5.3646,14.635 5,13.266 5,11.797 5,8.401 6.3646,6.3021 9.0938,5.5 9.6354,5.3646 10.135,5.2969 10.594,5.2969 c 2.135,0 3.338,0.9323 3.609,2.7969 0.063,0.2083 0.094,0.4427 0.094,0.7031 0,1.5311 -0.667,2.9011 -2,4.1091 -0.927,0.792 -2.3595,1.188 -4.297,1.188 1.1979,2.802 3.729,4.203 7.594,4.203 4.135,0 7.802,-2.099 11,-6.297 2.604,-3.4688 4.672,-8.1667 6.203,-14.0938 0.073,-0.2708 0.172,-0.7083 0.297,-1.3124 -3,2.99995 -6.365,4.5 -10.094,4.5 -5.333,0 -8.969,-1.96359 -10.906,-5.8907 -0.865,-1.7396 -1.297,-3.7396 -1.297,-6.0001 0,-3.667 1.765,-10.234 5.297,-19.703 0.135,-0.396 0.302,-0.828 0.5,-1.297 1.135,-3.073 1.703,-5.406 1.703,-7 0,-2.135 -0.833,-3.203 -2.5,-3.203 -3.667,0 -6.6668,3.031 -9.0001,9.094 v 0.109 c -0.3959,1 -0.7604,2.068 -1.0938,3.203 -0.7396,1.125 -1.276,1.724 -1.6093,1.797 -0.7917,0 -1.1876,-0.333 -1.1876,-1 0,-1.198 0.698,-3.297 2.0938,-6.297 2.9375,-6.073 6.635,-9.109 11.094,-9.109 3.541,0 6.01,1.5 7.406,4.5 0.531,1.135 0.797,2.37 0.797,3.703 0,1.396 -0.667,3.797 -2,7.203 -3.396,8.802 -5.094,15.333 -5.094,19.5939 0,5.4062 2.068,8.1093 6.203,8.1093 3.865,0 7.229,-2.0677 10.094,-6.2031 0.667,-1 1.068,-1.7656 1.203,-2.2969 l 4.5,-18.0002 c 0.469,-2.208 1.136,-4.875 2,-8 0.667,-2.875 1.13,-4.677 1.391,-5.406 0.875,-1.396 2.041,-2.094 3.5,-2.094 1.666,0.334 2.635,1.229 2.906,2.688 0,0.604 -0.135,1.375 -0.406,2.312 z"
                                   style="fill:#000000;fill-opacity:1;fill-rule:nonzero;stroke:none"
                                   id="path1694" /><g
                                   id="g1696"
                                   transform="translate(80.3)"><path
                                   d="M 68.703,-32.703 H 9 c -2.1354,0 -3.2708,-0.667 -3.4062,-2 0,-1.333 1.1041,-2 3.3124,-2 H 68.797 c 2.135,0 3.234,0.667 3.297,2 0,1.333 -1.13,2 -3.391,2 z m 0.094,19.406 H 8.9062 c -2.1354,0 -3.2395,-0.667 -3.3124,-2 0,-1.333 1.1354,-2 3.4062,-2 h 59.703 c 2.136,0 3.266,0.667 3.391,2 0,1.333 -1.099,2 -3.297,2 z"
                                   style="fill:#000000;fill-opacity:1;fill-rule:nonzero;stroke:none"
                                   id="path1698" /><g
                                   id="g1700"
                                   transform="translate(105.6)"><path
                                   d="M 33.406,-30.203 30,-16.5 c -1.135,4.531 -1.703,7.4635 -1.703,8.7969 0,3.4687 1.234,5.5677 3.703,6.2969 0.531,0.2083 1.13,0.3124 1.797,0.3124 3.333,0 6.37,-1.6666 9.109,-5 1.792,-2.1354 3.188,-4.8382 4.188,-8.1092 0.208,-0.729 0.646,-1.094 1.312,-1.094 0.792,0 1.188,0.333 1.188,1 0,1.667 -1.032,4.068 -3.094,7.2032 -3.604,5.4584 -7.906,8.1876 -12.906,8.1876 -4.532,0 -7.828,-1.89588 -9.891,-5.6876 -0.406,-0.6041 -0.708,-1.2395 -0.906,-1.9062 -1.594,3.1979 -3.792,5.4323 -6.594,6.70312 -1.271,0.59376 -2.573,0.89068 -3.906,0.89068 -4.0001,0 -6.797,-1.166717 -8.3908,-3.5 -0.6666,-0.8646 -1,-1.8959 -1,-3.0938 0,-2.4688 1.0626,-4.2031 3.1876,-5.203 0.7395,-0.396 1.5104,-0.594 2.3124,-0.594 1.9998,0 3.1978,0.833 3.5938,2.5001 0.062,0.3334 0.094,0.6667 0.094,1 0,2.2604 -1.13,3.9271 -3.3909,5 -0.4062,0.1979 -0.8385,0.3281 -1.2969,0.3907 1.3959,0.875 3.0628,1.3124 4.9998,1.3124 3.532,0 6.328,-2.3697 8.391,-7.1093 0.406,-1 0.776,-2.0989 1.109,-3.2969 3.594,-13.604 5.391,-21.536 5.391,-23.797 -0.396,-4.135 -2.193,-6.37 -5.391,-6.703 -3.468,0 -6.635,1.766 -9.5,5.297 v 0.109 c 0,0.063 -0.036,0.094 -0.109,0.094 -1,1.333 -1.901,2.865 -2.7032,4.594 -0.3334,0.802 -0.6303,1.604 -0.8907,2.406 L 8.5,-28.906 c -0.1354,0.739 -0.5677,1.109 -1.2969,1.109 -0.8021,0 -1.2031,-0.333 -1.2031,-1 0,-1.667 1.0677,-4.068 3.2031,-7.203 3.5939,-5.469 7.8909,-8.203 12.8909,-8.203 5.135,0 8.739,2.536 10.812,7.609 2.125,-4.135 4.959,-6.604 8.5,-7.406 0.667,-0.135 1.334,-0.203 2,-0.203 3.927,0 6.693,1.099 8.297,3.297 0.667,0.937 1,2.041 1,3.312 0,2.729 -1.234,4.563 -3.703,5.5 -0.604,0.198 -1.172,0.297 -1.703,0.297 -2.063,0 -3.297,-0.901 -3.703,-2.703 -0.063,-0.271 -0.094,-0.536 -0.094,-0.797 0,-2 0.969,-3.568 2.906,-4.703 0.594,-0.333 1.224,-0.568 1.891,-0.703 -1.396,-0.865 -3.063,-1.297 -5,-1.297 -4.531,0 -7.729,3.531 -9.594,10.594 -0.135,0.406 -0.234,0.807 -0.297,1.203 z"
                                   style="fill:#000000;fill-opacity:1;fill-rule:nonzero;stroke:none"
                                   id="path1702" /><g
                                   id="g1704"
                                   transform="translate(79.4)"><path
                                   d="M 40.906,-23 V 5 c 0,2.1354 -0.666,3.2344 -2,3.2969 -1.333,0 -2,-1.099 -2,-3.2969 V -23 H 8.9062 c -2.1354,0 -3.2395,-0.667 -3.3124,-2 0,-1.333 1.1041,-2 3.3124,-2 H 36.906 v -28 c 0,-2.135 0.667,-3.234 2,-3.297 1.334,0 2,1.099 2,3.297 v 28 h 27.891 c 2.135,0 3.234,0.667 3.297,2 0,1.333 -1.099,2 -3.297,2 z"
                                   style="fill:#000000;fill-opacity:1;fill-rule:nonzero;stroke:none"
                                   id="path1706" /><g
                                   id="g1708"
                                   transform="translate(110,-67.66)"><path
                                   d="m 29.406,-64 v 56.0938 c 0,2 0.396,3.2708 1.188,3.8124 1.135,0.6667 3.838,1 8.109,1 h 3.203 V 0 C 39.573,-0.19792 34.172,-0.29688 25.703,-0.29688 17.234,-0.29688 11.833,-0.19792 9.5,0 v -3.0938 h 3.203 c 5.136,0 8.068,-0.6041 8.797,-1.8124 L 21.594,-5 C 21.865,-5.5312 22,-6.5 22,-7.9062 V -59.703 c -3.469,1.739 -7.833,2.609 -13.0938,2.609 v -3.109 c 7.9998,0 14.0628,-2.13 18.1878,-6.391 1.271,0 2.005,0.229 2.203,0.688 v 0 0.109 c 0.073,0.198 0.109,0.797 0.109,1.797 z"
                                   style="fill:#000000;fill-opacity:1;fill-rule:nonzero;stroke:none"
                                   id="path1710" /><g
                                   id="g1712"
                                   transform="matrix(100,0,0,100,-1822.7,-138.08)"><path
                                   d="m 18.191,1.7874 h 0.572 v 0.0399 h -0.572 z"
                                   style="fill:#000000;fill-opacity:1;fill-rule:nonzero;stroke:none"
                                   id="path1714" /><g
                                   id="g1716"
                                   transform="matrix(0.01,0,0,0.01,18.191,2.7433)"><path
                                   d="M 33.406,-30.203 30,-16.5 c -1.135,4.531 -1.703,7.4635 -1.703,8.7969 0,3.4687 1.234,5.5677 3.703,6.2969 0.531,0.2083 1.13,0.3124 1.797,0.3124 3.333,0 6.37,-1.6666 9.109,-5 1.792,-2.1354 3.188,-4.8382 4.188,-8.1092 0.208,-0.729 0.646,-1.094 1.312,-1.094 0.792,0 1.188,0.333 1.188,1 0,1.667 -1.032,4.068 -3.094,7.2032 -3.604,5.4584 -7.906,8.1876 -12.906,8.1876 -4.532,0 -7.828,-1.89588 -9.891,-5.6876 -0.406,-0.6041 -0.708,-1.2395 -0.906,-1.9062 -1.594,3.1979 -3.792,5.4323 -6.594,6.70312 -1.271,0.59376 -2.573,0.89068 -3.906,0.89068 -4.0001,0 -6.797,-1.166717 -8.3908,-3.5 -0.6666,-0.8646 -1,-1.8959 -1,-3.0938 0,-2.4688 1.0626,-4.2031 3.1876,-5.203 0.7395,-0.396 1.5104,-0.594 2.3124,-0.594 1.9998,0 3.1978,0.833 3.5938,2.5001 0.062,0.3334 0.094,0.6667 0.094,1 0,2.2604 -1.13,3.9271 -3.3909,5 -0.4062,0.1979 -0.8385,0.3281 -1.2969,0.3907 1.3959,0.875 3.0628,1.3124 4.9998,1.3124 3.532,0 6.328,-2.3697 8.391,-7.1093 0.406,-1 0.776,-2.0989 1.109,-3.2969 3.594,-13.604 5.391,-21.536 5.391,-23.797 -0.396,-4.135 -2.193,-6.37 -5.391,-6.703 -3.468,0 -6.635,1.766 -9.5,5.297 v 0.109 c 0,0.063 -0.036,0.094 -0.109,0.094 -1,1.333 -1.901,2.865 -2.7032,4.594 -0.3334,0.802 -0.6303,1.604 -0.8907,2.406 L 8.5,-28.906 c -0.1354,0.739 -0.5677,1.109 -1.2969,1.109 -0.8021,0 -1.2031,-0.333 -1.2031,-1 0,-1.667 1.0677,-4.068 3.2031,-7.203 3.5939,-5.469 7.8909,-8.203 12.8909,-8.203 5.135,0 8.739,2.536 10.812,7.609 2.125,-4.135 4.959,-6.604 8.5,-7.406 0.667,-0.135 1.334,-0.203 2,-0.203 3.927,0 6.693,1.099 8.297,3.297 0.667,0.937 1,2.041 1,3.312 0,2.729 -1.234,4.563 -3.703,5.5 -0.604,0.198 -1.172,0.297 -1.703,0.297 -2.063,0 -3.297,-0.901 -3.703,-2.703 -0.063,-0.271 -0.094,-0.536 -0.094,-0.797 0,-2 0.969,-3.568 2.906,-4.703 0.594,-0.333 1.224,-0.568 1.891,-0.703 -1.396,-0.865 -3.063,-1.297 -5,-1.297 -4.531,0 -7.729,3.531 -9.594,10.594 -0.135,0.406 -0.234,0.807 -0.297,1.203 z"
                                   style="fill:#000000;fill-opacity:1;fill-rule:nonzero;stroke:none"
                                   id="path1718" /><g
                                   id="g1720"
                                   transform="translate(113.4,-68.59)"><path
                                   d="m 33.094,24 v 0 c 0,0.667 -0.334,1 -1,1 -0.792,0 -2.558,-1.365 -5.297,-4.094 C 22.661,16.771 19.229,11.87 16.5,6.2031 12.104,-2.8698 9.9062,-13.271 9.9062,-25 c 0,-11.271 2.0988,-21.438 6.2968,-30.5 3.469,-7.396 7.87,-13.328 13.203,-17.797 1.396,-1.135 2.292,-1.703 2.688,-1.703 0.666,0 1,0.333 1,1 0,0.333 -0.433,0.901 -1.297,1.703 C 21.068,-61.37 15.703,-45.604 15.703,-25 c 0,20.5312 5.235,36.13 15.703,46.797 1.125,1.135 1.688,1.87 1.688,2.203 z"
                                   style="fill:#000000;fill-opacity:1;fill-rule:nonzero;stroke:none"
                                   id="path1722" /><g
                                   id="g1724"
                                   transform="translate(38.9)"><path
                                   d="M 33.406,-30.203 30,-16.5 c -1.135,4.531 -1.703,7.4635 -1.703,8.7969 0,3.4687 1.234,5.5677 3.703,6.2969 0.531,0.2083 1.13,0.3124 1.797,0.3124 3.333,0 6.37,-1.6666 9.109,-5 1.792,-2.1354 3.188,-4.8382 4.188,-8.1092 0.208,-0.729 0.646,-1.094 1.312,-1.094 0.792,0 1.188,0.333 1.188,1 0,1.667 -1.032,4.068 -3.094,7.2032 -3.604,5.4584 -7.906,8.1876 -12.906,8.1876 -4.532,0 -7.828,-1.89588 -9.891,-5.6876 -0.406,-0.6041 -0.708,-1.2395 -0.906,-1.9062 -1.594,3.1979 -3.792,5.4323 -6.594,6.70312 -1.271,0.59376 -2.573,0.89068 -3.906,0.89068 -4.0001,0 -6.797,-1.166717 -8.3908,-3.5 -0.6666,-0.8646 -1,-1.8959 -1,-3.0938 0,-2.4688 1.0626,-4.2031 3.1876,-5.203 0.7395,-0.396 1.5104,-0.594 2.3124,-0.594 1.9998,0 3.1978,0.833 3.5938,2.5001 0.062,0.3334 0.094,0.6667 0.094,1 0,2.2604 -1.13,3.9271 -3.3909,5 -0.4062,0.1979 -0.8385,0.3281 -1.2969,0.3907 1.3959,0.875 3.0628,1.3124 4.9998,1.3124 3.532,0 6.328,-2.3697 8.391,-7.1093 0.406,-1 0.776,-2.0989 1.109,-3.2969 3.594,-13.604 5.391,-21.536 5.391,-23.797 -0.396,-4.135 -2.193,-6.37 -5.391,-6.703 -3.468,0 -6.635,1.766 -9.5,5.297 v 0.109 c 0,0.063 -0.036,0.094 -0.109,0.094 -1,1.333 -1.901,2.865 -2.7032,4.594 -0.3334,0.802 -0.6303,1.604 -0.8907,2.406 L 8.5,-28.906 c -0.1354,0.739 -0.5677,1.109 -1.2969,1.109 -0.8021,0 -1.2031,-0.333 -1.2031,-1 0,-1.667 1.0677,-4.068 3.2031,-7.203 3.5939,-5.469 7.8909,-8.203 12.8909,-8.203 5.135,0 8.739,2.536 10.812,7.609 2.125,-4.135 4.959,-6.604 8.5,-7.406 0.667,-0.135 1.334,-0.203 2,-0.203 3.927,0 6.693,1.099 8.297,3.297 0.667,0.937 1,2.041 1,3.312 0,2.729 -1.234,4.563 -3.703,5.5 -0.604,0.198 -1.172,0.297 -1.703,0.297 -2.063,0 -3.297,-0.901 -3.703,-2.703 -0.063,-0.271 -0.094,-0.536 -0.094,-0.797 0,-2 0.969,-3.568 2.906,-4.703 0.594,-0.333 1.224,-0.568 1.891,-0.703 -1.396,-0.865 -3.063,-1.297 -5,-1.297 -4.531,0 -7.729,3.531 -9.594,10.594 -0.135,0.406 -0.234,0.807 -0.297,1.203 z"
                                   style="fill:#000000;fill-opacity:1;fill-rule:nonzero;stroke:none"
                                   id="path1726" /><g
                                   id="g1728"
                                   transform="translate(57.2)"><path
                                   d="m 63.094,-67.797 -45,87.594 c -0.594,1.198 -1.323,1.797 -2.188,1.797 -1.073,0 -1.739,-0.667 -2,-2 0,-0.261 0.229,-0.86 0.688,-1.797 l 45,-87.594 c 0.604,-1.198 1.338,-1.797 2.203,-1.797 1.073,0 1.739,0.667 2,2 0,0.261 -0.235,0.86 -0.703,1.797 z"
                                   style="fill:#000000;fill-opacity:1;fill-rule:nonzero;stroke:none"
                                   id="path1730" /><g
                                   id="g1732"><path
                                   d="M 68.703,-32.703 H 9 c -2.1354,0 -3.2708,-0.667 -3.4062,-2 0,-1.333 1.1041,-2 3.3124,-2 H 68.797 c 2.135,0 3.234,0.667 3.297,2 0,1.333 -1.13,2 -3.391,2 z m 0.094,19.406 H 8.9062 c -2.1354,0 -3.2395,-0.667 -3.3124,-2 0,-1.333 1.1354,-2 3.4062,-2 h 59.703 c 2.136,0 3.266,0.667 3.391,2 0,1.333 -1.099,2 -3.297,2 z"
                                   style="fill:#000000;fill-opacity:1;fill-rule:nonzero;stroke:none"
                                   id="path1734" /><g
                                   id="g1736"
                                   transform="translate(77.8)"><path
                                   d="m 46,-32 c 0,9.729 -1.234,17.26 -3.703,22.5938 C 38.37,-1.9375 32.573,1.9323 24.906,2.2031 18.833,2.2031 13.964,-0.19792 10.297,-5 9.5677,-5.8646 8.9375,-6.8333 8.4062,-7.9062 c -3,-5.5318 -4.5,-13.5628 -4.5,-24.0938 0,-9.802 1.2292,-17.37 3.6876,-22.703 3.3332,-7.469 8.7342,-11.432 16.2032,-11.891 H 25 c 5.938,0 10.771,2.365 14.5,7.094 v 0.094 c 0.938,1.208 1.771,2.541 2.5,4 2.667,5.666 4,13.468 4,23.406 z M 24.906,0 v 0 c 4.198,0 7.427,-2.0312 9.688,-6.0938 0.937,-1.802 1.604,-3.9372 2,-6.4062 0.739,-4.271 1.109,-11.172 1.109,-20.703 0,-9.261 -0.333,-15.761 -1,-19.5 -1.198,-6.333 -4.265,-10.13 -9.203,-11.391 -0.865,-0.208 -1.729,-0.312 -2.594,-0.312 -4.666,0 -8.067,2.333 -10.203,7 -0.739,1.604 -1.307,3.541 -1.703,5.812 -0.531,3.594 -0.797,9.724 -0.797,18.391 0,10.073 0.365,17.109 1.094,21.109 1.198,6.3961 4.13,10.2919 8.797,11.68775 C 23.031,-0.13542 23.969,0 24.906,0 Z"
                                   style="fill:#000000;fill-opacity:1;fill-rule:nonzero;stroke:none"
                                   id="path1738" /><g
                                   id="g1740"
                                   transform="translate(50)"><path
                                   d="m 28.906,-25 v 0 c 0,11.271 -2.104,21.4375 -6.312,30.5 C 19.135,12.896 14.74,18.828 9.4062,23.297 8,24.432 7.099,25 6.7031,25 c -0.6666,0 -1,-0.333 -1,-1 C 5.7031,23.667 6.1354,23.099 7,22.297 17.729,11.37 23.094,-4.3958 23.094,-25 c 0,-20.333 -5,-35.734 -15.0002,-46.203 l -0.5,-0.5 C 6.3333,-72.901 5.7031,-73.667 5.7031,-74 c 0,-0.667 0.3334,-1 1,-1 0.8021,0 2.5677,1.365 5.2969,4.094 4.135,4.135 7.568,9.036 10.297,14.703 4.406,9.073 6.609,19.474 6.609,31.203 z"
                                   style="fill:#000000;fill-opacity:1;fill-rule:nonzero;stroke:none"
                                   id="path1742" /><g
                                   id="g1744"
                                   transform="matrix(5.2632,0,0,5.2632,-2156.4,-205.74)" /></g></g></g></g></g></g></g></g></g></g></g></g></g></g></g></g></g></g></g></g></g></g></g></g></g></g></g></g></g></g></g></g></g></g></g></g></g></g></g></g></g></g></g></g><g
                   id="g1746"
                   transform="scale(0.56693)" /></g></g></g></g></g></g></g></svg>
