<?xml version="1.0" encoding="UTF-8" standalone="no"?>
<svg
   xmlns:dc="http://purl.org/dc/elements/1.1/"
   xmlns:cc="http://creativecommons.org/ns#"
   xmlns:rdf="http://www.w3.org/1999/02/22-rdf-syntax-ns#"
   xmlns:svg="http://www.w3.org/2000/svg"
   xmlns="http://www.w3.org/2000/svg"
   xmlns:sodipodi="http://sodipodi.sourceforge.net/DTD/sodipodi-0.dtd"
   xmlns:inkscape="http://www.inkscape.org/namespaces/inkscape"
   version="1.1"
   id="svg9302"
   xml:space="preserve"
   width="130.66667"
   height="129.33333"
   viewBox="0 0 130.66667 129.33333"
   sodipodi:docname="2020-1225-1900-crop.pdf"><metadata
     id="metadata9308"><rdf:RDF><cc:Work
         rdf:about=""><dc:format>image/svg+xml</dc:format><dc:type
           rdf:resource="http://purl.org/dc/dcmitype/StillImage" /></cc:Work></rdf:RDF></metadata><defs
     id="defs9306"><clipPath
       clipPathUnits="userSpaceOnUse"
       id="clipPath9320"><path
         d="M 0,0 H 136 V 137 H 0 Z"
         id="path9318" /></clipPath><clipPath
       clipPathUnits="userSpaceOnUse"
       id="clipPath9330"><path
         d="M 0,0 H 136 V 137 H 0 Z"
         id="path9328" /></clipPath><clipPath
       clipPathUnits="userSpaceOnUse"
       id="clipPath9342"><path
         d="M 0,0 V 137 H 136 V 0 Z"
         id="path9340" /></clipPath><clipPath
       clipPathUnits="userSpaceOnUse"
       id="clipPath9352"><path
         d="M 0,0 H 241 V 243 H 0 Z"
         id="path9350" /></clipPath></defs><sodipodi:namedview
     pagecolor="#ffffff"
     bordercolor="#666666"
     borderopacity="1"
     objecttolerance="10"
     gridtolerance="10"
     guidetolerance="10"
     inkscape:pageopacity="0"
     inkscape:pageshadow="2"
     inkscape:window-width="640"
     inkscape:window-height="480"
     id="namedview9304" /><g
     id="g9310"
     inkscape:groupmode="layer"
     inkscape:label="2020-1225-1900-crop"
     transform="matrix(1.3333333,0,0,-1.3333333,0,129.33333)"><g
       id="g9312"
       transform="translate(-19,-20)"><g
         id="g9314"><g
           id="g9316"
           clip-path="url(#clipPath9320)"><g
             id="g9322"
             transform="matrix(0.70588,0,0,-0.70588,20,116.85)"><g
               id="g9324"><g
                 id="g9326"
                 clip-path="url(#clipPath9330)"><g
                   id="g9332"><g
                     id="g9334" /></g><g
                   id="g9336"><g
                     id="g9338"
                     clip-path="url(#clipPath9342)"><g
                       id="g9344"
                       transform="scale(0.56693)" /></g></g><g
                   id="g9346"
                   transform="scale(0.56693)"><g
                     id="g9348"
                     clip-path="url(#clipPath9352)"><path
                       d="M 0,0 H 241 V 243 H 0 Z"
                       style="fill:#ffffff;fill-opacity:1;fill-rule:nonzero;stroke:none"
                       id="path9354" /><path
                       d="M 106.96,2 V 243"
                       style="fill:none;stroke:#000000;stroke-width:1;stroke-linecap:butt;stroke-linejoin:miter;stroke-miterlimit:10;stroke-dasharray:none;stroke-opacity:1"
                       id="path9356" /><path
                       d="m 106.96,1 -4,4"
                       style="fill:none;stroke:#000000;stroke-width:1;stroke-linecap:butt;stroke-linejoin:miter;stroke-miterlimit:10;stroke-dasharray:none;stroke-opacity:1"
                       id="path9358" /><path
                       d="m 106.96,1 4,4"
                       style="fill:none;stroke:#000000;stroke-width:1;stroke-linecap:butt;stroke-linejoin:miter;stroke-miterlimit:10;stroke-dasharray:none;stroke-opacity:1"
                       id="path9360" /><path
                       d="m 223.12,130 3.04,-4.31 -2.82,-3.99 h 1.77 l 1.27,1.94 c 0.23,0.38 0.43,0.69 0.57,0.94 0.23,-0.35 0.45,-0.65 0.64,-0.92 l 1.39,-1.96 h 1.69 l -2.87,3.91 3.09,4.39 h -1.73 l -1.71,-2.58 -0.45,-0.7 -2.17,3.28 z"
                       style="fill:#000000;fill-opacity:1;fill-rule:nonzero;stroke:none"
                       id="path9362" /><path
                       d="M 0,134.12 H 239"
                       style="fill:none;stroke:#000000;stroke-width:1;stroke-linecap:butt;stroke-linejoin:miter;stroke-miterlimit:10;stroke-dasharray:none;stroke-opacity:1"
                       id="path9364" /><path
                       d="m 240,134.12 -4,-4"
                       style="fill:none;stroke:#000000;stroke-width:1;stroke-linecap:butt;stroke-linejoin:miter;stroke-miterlimit:10;stroke-dasharray:none;stroke-opacity:1"
                       id="path9366" /><path
                       d="m 240,134.12 -4,4"
                       style="fill:none;stroke:#000000;stroke-width:1;stroke-linecap:butt;stroke-linejoin:miter;stroke-miterlimit:10;stroke-dasharray:none;stroke-opacity:1"
                       id="path9368" /><path
                       d="m 112,24.203 -0.16,-1.328 c 0.31,0.083 0.57,0.125 0.8,0.125 0.31,0 0.56,-0.052 0.75,-0.156 0.19,-0.104 0.34,-0.25 0.47,-0.438 0.08,-0.135 0.22,-0.484 0.42,-1.047 0.03,-0.073 0.07,-0.187 0.13,-0.343 l -3.14,-8.313 h 1.51 l 1.72,4.797 c 0.23,0.615 0.43,1.255 0.61,1.922 0.16,-0.646 0.35,-1.276 0.58,-1.891 l 1.76,-4.828 h 1.41 l -3.16,8.438 c -0.33,0.916 -0.59,1.547 -0.78,1.89 -0.25,0.459 -0.53,0.797 -0.86,1.016 -0.32,0.219 -0.71,0.328 -1.15,0.328 -0.27,0 -0.58,-0.057 -0.91,-0.172 z"
                       style="fill:#000000;fill-opacity:1;fill-rule:nonzero;stroke:none"
                       id="path9370" /><path
                       d="m 189.59,134.12 c 0,45.64 -36.99,82.63 -82.63,82.63 -45.633,0 -82.627,-36.99 -82.627,-82.63 0,-45.631 36.994,-82.626 82.627,-82.626 45.64,0 82.63,36.995 82.63,82.626 z"
                       style="fill:none;stroke:#000000;stroke-width:1.5;stroke-linecap:round;stroke-linejoin:round;stroke-miterlimit:10;stroke-dasharray:none;stroke-opacity:0.69804"
                       id="path9372" /><path
                       d="M 106.96,134.12 213,85"
                       style="fill:none;stroke:#000000;stroke-width:1.5;stroke-linecap:round;stroke-linejoin:round;stroke-miterlimit:10;stroke-dasharray:none;stroke-opacity:1"
                       id="path9374" /><path
                       d="M 106.96,134.12 213,183.25"
                       style="fill:none;stroke:#000000;stroke-width:1.5;stroke-linecap:round;stroke-linejoin:round;stroke-miterlimit:10;stroke-dasharray:none;stroke-opacity:1"
                       id="path9376" /><path
                       d="M 106.96,134.12 213,183.25"
                       style="fill:none;stroke:#000000;stroke-width:1.5;stroke-linecap:round;stroke-linejoin:round;stroke-miterlimit:10;stroke-dasharray:none;stroke-opacity:1"
                       id="path9378" /><path
                       d="m 181.94,99.39 v 34.73"
                       style="fill:none;stroke:#0000ff;stroke-width:1.5;stroke-linecap:round;stroke-linejoin:round;stroke-miterlimit:10;stroke-dasharray:none;stroke-opacity:1"
                       id="path9380" /><path
                       d="M 181.94,168.86 V 134.12"
                       style="fill:none;stroke:#0000ff;stroke-width:1.5;stroke-linecap:round;stroke-linejoin:round;stroke-miterlimit:10;stroke-dasharray:none;stroke-opacity:1"
                       id="path9382" /><path
                       d="M 181.94,134.12 H 106.96"
                       style="fill:none;stroke:#ff0000;stroke-width:1.5;stroke-linecap:round;stroke-linejoin:round;stroke-miterlimit:10;stroke-dasharray:none;stroke-opacity:1"
                       id="path9384" /><path
                       d="m 106.96,134.12 h 74.98"
                       style="fill:none;stroke:#ff0000;stroke-width:1.5;stroke-linecap:round;stroke-linejoin:round;stroke-miterlimit:10;stroke-dasharray:none;stroke-opacity:1"
                       id="path9386" /><path
                       d="m 109.96,134.12 c 0,1.66 -1.34,3 -3,3 -1.65,0 -3,-1.34 -3,-3 0,-1.65 1.35,-3 3,-3 1.66,0 3,1.35 3,3 z"
                       style="fill:#000000;fill-opacity:1;fill-rule:nonzero;stroke:none"
                       id="path9388" /><g
                       id="g9390"
                       transform="scale(19)"><g
                         id="g9392"
                         transform="matrix(0.01,0,0,0.01,4.4737,8.1041)"><path
                           d="m 74,-43.594 v 0 C 74,-33.26 70.333,-23.698 63,-14.906 56.396,-6.9062 48.661,-1.6354 39.797,0.90625 36.661,1.7708 33.562,2.2031 30.5,2.2031 22.167,2.2031 15.599,-0.72917 10.797,-6.5938 6.8698,-11.396 4.9062,-17.365 4.9062,-24.5 c 0,-10 3.5626,-19.469 10.6878,-28.406 6.604,-8.063 14.338,-13.427 23.203,-16.094 3.271,-1 6.505,-1.5 9.703,-1.5 8.469,0 15.104,3.068 19.906,9.203 3.729,4.802 5.594,10.703 5.594,17.703 z M 31.094,-0.40625 v 0 c 6.271,0 12.307,-2.79685 18.109,-8.39065 1.198,-1.1354 2.297,-2.3381 3.297,-3.6091 6.531,-8.125 10.562,-17.823 12.094,-29.094 0.333,-2.198 0.5,-4.198 0.5,-6 0,-9.135 -3.063,-15.333 -9.188,-18.594 -0.073,0 -0.14,-0.036 -0.203,-0.109 C 53.297,-67.401 50.698,-68 47.906,-68 c -6.271,0 -12.338,2.698 -18.203,8.094 -2.406,2.135 -4.542,4.635 -6.406,7.5 -5.063,7.666 -8.026,16.833 -8.891,27.5 -0.135,1.208 -0.203,2.276 -0.203,3.203 0,8.531 2.568,14.6665 7.703,18.4061 2.667,1.9271 5.729,2.89065 9.188,2.89065 z"
                           style="fill:#000000;fill-opacity:1;fill-rule:nonzero;stroke:none"
                           id="path9394" /><g
                           id="g9396"
                           transform="matrix(5.2632,0,0,5.2632,-447.37,-810.41)"><path
                             d="m 184.94,168.86 c 0,1.66 -1.35,3 -3,3 -1.66,0 -3,-1.34 -3,-3 0,-1.66 1.34,-3 3,-3 1.65,0 3,1.34 3,3 z"
                             style="fill:#000000;fill-opacity:1;fill-rule:nonzero;stroke:none"
                             id="path9398" /><path
                             d="m 184.94,99.39 c 0,1.66 -1.35,3 -3,3 -1.66,0 -3,-1.34 -3,-3 0,-1.657 1.34,-3 3,-3 1.65,0 3,1.343 3,3 z"
                             style="fill:#000000;fill-opacity:1;fill-rule:nonzero;stroke:none"
                             id="path9400" /><path
                             d="m 184.94,134.12 c 0,1.66 -1.35,3 -3,3 -1.66,0 -3,-1.34 -3,-3 0,-1.65 1.34,-3 3,-3 1.65,0 3,1.35 3,3 z"
                             style="fill:#000000;fill-opacity:1;fill-rule:nonzero;stroke:none"
                             id="path9402" /><path
                             d="m 184.94,134.12 c 0,1.66 -1.35,3 -3,3 -1.66,0 -3,-1.34 -3,-3 0,-1.65 1.34,-3 3,-3 1.65,0 3,1.35 3,3 z"
                             style="fill:#000000;fill-opacity:1;fill-rule:nonzero;stroke:none"
                             id="path9404" /><g
                             id="g9406"
                             transform="matrix(0.19,0,0,0.19,224.998,85.1884)"><path
                               d="m 47.703,-23.594 v 0 6.188 c 4.333,-5.396 7.599,-11.995 9.797,-19.797 0.667,-1.333 1.167,-2.031 1.5,-2.094 0.802,0 1.203,0.333 1.203,1 0,1.136 -0.765,3.667 -2.297,7.594 -2.271,5.739 -5.338,11.042 -9.203,15.906 -0.667,1.333 -1,2.5 -1,3.5 0,6.8022 1.034,10.2032 3.102,10.2032 2.067,0 3.731,-1.1666 4.992,-3.5 C 55.995,-5 56.198,-5.4688 56.406,-6 c 0.261,-0.6667 0.693,-1 1.297,-1 0.802,0 1.203,0.3333 1.203,1 0,1.2708 -0.833,2.7708 -2.5,4.5 -1.739,1.72917 -3.708,2.5938 -5.906,2.5938 -4.198,0 -7.099,-2.2969 -8.703,-6.8907 -0.136,-0.4687 -0.266,-0.9687 -0.391,-1.5 -7,5.5938 -14.036,8.3907 -21.109,8.3907 -6.261,0 -10.8595,-2.5 -13.797,-7.5 -1.6042,-2.7292 -2.4062,-5.8598 -2.4062,-9.3908 0,-6.802 2.6041,-13.104 7.8122,-18.906 5.125,-5.729 10.922,-8.859 17.391,-9.391 0.604,-0.073 1.172,-0.109 1.703,-0.109 5.604,0 9.938,2.203 13,6.609 0,0.063 0.031,0.094 0.094,0.094 2.406,3.531 3.609,8.167 3.609,13.906 z M 41,-9.9062 v 0 c -0.135,-1.1248 -0.203,-4.8538 -0.203,-11.1878 0,-8.208 -0.901,-13.812 -2.703,-16.812 -0.792,-1.334 -1.755,-2.334 -2.891,-3 L 35.094,-41 v 0 H 35 c -1.198,-0.667 -2.562,-1 -4.094,-1 -4.739,0 -9.01,2.667 -12.812,8 l -0.797,1.203 c -2.396,3.865 -4.162,9.266 -5.297,16.203 -0.333,1.865 -0.5,3.396 -0.5,4.594 0,5.6042 1.969,9.0729 5.906,10.4062 0.927,0.3334 1.959,0.5 3.094,0.5 6.938,0 13.771,-2.9374 20.5,-8.8124 z"
                               style="fill:#000000;fill-opacity:1;fill-rule:nonzero;stroke:none"
                               id="path9408" /><g
                               id="g9410"
                               transform="matrix(1.000008,0,0,1.000008,-89.491242,615.24851)"><path
                                 d="m 66.094,-23 h -54.5 c -2.1252,0 -3.2242,-0.667 -3.2971,-2 0,-1.333 1.0989,-2 3.2971,-2 h 54.5 c 2.135,0 3.239,0.667 3.312,2 0,1.333 -1.104,2 -3.312,2 z"
                                 style="fill:#000000;fill-opacity:1;fill-rule:nonzero;stroke:none"
                                 id="path9412" /><g
                                 id="g9414"
                                 transform="translate(77.8)"><path
                                   d="m 47.703,-23.594 v 0 6.188 c 4.333,-5.396 7.599,-11.995 9.797,-19.797 0.667,-1.333 1.167,-2.031 1.5,-2.094 0.802,0 1.203,0.333 1.203,1 0,1.136 -0.765,3.667 -2.297,7.594 -2.271,5.739 -5.338,11.042 -9.203,15.906 -0.667,1.333 -1,2.5 -1,3.5 0,6.8022 1.034,10.2032 3.102,10.2032 2.067,0 3.731,-1.1666 4.992,-3.5 C 55.995,-5 56.198,-5.4688 56.406,-6 c 0.261,-0.6667 0.693,-1 1.297,-1 0.802,0 1.203,0.3333 1.203,1 0,1.2708 -0.833,2.7708 -2.5,4.5 -1.739,1.72917 -3.708,2.5938 -5.906,2.5938 -4.198,0 -7.099,-2.2969 -8.703,-6.8907 -0.136,-0.4687 -0.266,-0.9687 -0.391,-1.5 -7,5.5938 -14.036,8.3907 -21.109,8.3907 -6.261,0 -10.8595,-2.5 -13.797,-7.5 -1.6042,-2.7292 -2.4062,-5.8598 -2.4062,-9.3908 0,-6.802 2.6041,-13.104 7.8122,-18.906 5.125,-5.729 10.922,-8.859 17.391,-9.391 0.604,-0.073 1.172,-0.109 1.703,-0.109 5.604,0 9.938,2.203 13,6.609 0,0.063 0.031,0.094 0.094,0.094 2.406,3.531 3.609,8.167 3.609,13.906 z M 41,-9.9062 v 0 c -0.135,-1.1248 -0.203,-4.8538 -0.203,-11.1878 0,-8.208 -0.901,-13.812 -2.703,-16.812 -0.792,-1.334 -1.755,-2.334 -2.891,-3 L 35.094,-41 v 0 H 35 c -1.198,-0.667 -2.562,-1 -4.094,-1 -4.739,0 -9.01,2.667 -12.812,8 l -0.797,1.203 c -2.396,3.865 -4.162,9.266 -5.297,16.203 -0.333,1.865 -0.5,3.396 -0.5,4.594 0,5.6042 1.969,9.0729 5.906,10.4062 0.927,0.3334 1.959,0.5 3.094,0.5 6.938,0 13.771,-2.9374 20.5,-8.8124 z"
                                   style="fill:#000000;fill-opacity:1;fill-rule:nonzero;stroke:none"
                                   id="path9416" /><g
                                   id="g9418"
                                   transform="matrix(5.2632,0,0,5.2632,-1172.5,-1063.6)" /></g></g></g></g></g></g></g></g><g
                   id="g9420"
                   transform="scale(0.56693)" /></g></g></g></g></g></g></g></svg>
