<?xml version="1.0" encoding="UTF-8" standalone="no"?>
<svg
   xmlns:dc="http://purl.org/dc/elements/1.1/"
   xmlns:cc="http://creativecommons.org/ns#"
   xmlns:rdf="http://www.w3.org/1999/02/22-rdf-syntax-ns#"
   xmlns:svg="http://www.w3.org/2000/svg"
   xmlns="http://www.w3.org/2000/svg"
   xmlns:sodipodi="http://sodipodi.sourceforge.net/DTD/sodipodi-0.dtd"
   xmlns:inkscape="http://www.inkscape.org/namespaces/inkscape"
   version="1.1"
   id="svg9678"
   xml:space="preserve"
   width="146.66667"
   height="130.66667"
   viewBox="0 0 146.66667 130.66667"
   sodipodi:docname="2020-1225-1930-crop.pdf"><metadata
     id="metadata9684"><rdf:RDF><cc:Work
         rdf:about=""><dc:format>image/svg+xml</dc:format><dc:type
           rdf:resource="http://purl.org/dc/dcmitype/StillImage" /></cc:Work></rdf:RDF></metadata><defs
     id="defs9682"><clipPath
       clipPathUnits="userSpaceOnUse"
       id="clipPath9696"><path
         d="M 0,0 H 154 V 137 H 0 Z"
         id="path9694" /></clipPath><clipPath
       clipPathUnits="userSpaceOnUse"
       id="clipPath9706"><path
         d="M 0,0 H 154 V 137 H 0 Z"
         id="path9704" /></clipPath><clipPath
       clipPathUnits="userSpaceOnUse"
       id="clipPath9718"><path
         d="M 0,0 V 137 H 154 V 0 Z"
         id="path9716" /></clipPath><clipPath
       clipPathUnits="userSpaceOnUse"
       id="clipPath9728"><path
         d="M 0,0 H 273 V 243 H 0 Z"
         id="path9726" /></clipPath></defs><sodipodi:namedview
     pagecolor="#ffffff"
     bordercolor="#666666"
     borderopacity="1"
     objecttolerance="10"
     gridtolerance="10"
     guidetolerance="10"
     inkscape:pageopacity="0"
     inkscape:pageshadow="2"
     inkscape:window-width="640"
     inkscape:window-height="480"
     id="namedview9680" /><g
     id="g9686"
     inkscape:groupmode="layer"
     inkscape:label="2020-1225-1930-crop"
     transform="matrix(1.3333333,0,0,-1.3333333,0,130.66667)"><g
       id="g9688"
       transform="translate(-22,-19)"><g
         id="g9690"><g
           id="g9692"
           clip-path="url(#clipPath9696)"><g
             id="g9698"
             transform="matrix(0.70803,0,0,-0.70803,22.482,117)"><g
               id="g9700"><g
                 id="g9702"
                 clip-path="url(#clipPath9706)"><g
                   id="g9708"><g
                     id="g9710" /></g><g
                   id="g9712"><g
                     id="g9714"
                     clip-path="url(#clipPath9718)"><g
                       id="g9720"
                       transform="scale(0.56693)" /></g></g><g
                   id="g9722"
                   transform="scale(0.56693)"><g
                     id="g9724"
                     clip-path="url(#clipPath9728)"><path
                       d="M 0,0 H 273 V 243 H 0 Z"
                       style="fill:#ffffff;fill-opacity:1;fill-rule:nonzero;stroke:none"
                       id="path9730" /><path
                       d="M 129.26,2 V 243"
                       style="fill:none;stroke:#000000;stroke-width:1;stroke-linecap:butt;stroke-linejoin:miter;stroke-miterlimit:10;stroke-dasharray:none;stroke-opacity:1"
                       id="path9732" /><path
                       d="m 129.26,1 -4,4"
                       style="fill:none;stroke:#000000;stroke-width:1;stroke-linecap:butt;stroke-linejoin:miter;stroke-miterlimit:10;stroke-dasharray:none;stroke-opacity:1"
                       id="path9734" /><path
                       d="m 129.26,1 4,4"
                       style="fill:none;stroke:#000000;stroke-width:1;stroke-linecap:butt;stroke-linejoin:miter;stroke-miterlimit:10;stroke-dasharray:none;stroke-opacity:1"
                       id="path9736" /><path
                       d="m 255.12,120 3.04,-4.31 -2.82,-3.99 h 1.77 l 1.27,1.94 c 0.23,0.38 0.43,0.69 0.57,0.94 0.23,-0.35 0.45,-0.65 0.64,-0.92 l 1.39,-1.96 h 1.69 l -2.87,3.91 3.09,4.39 h -1.73 l -1.71,-2.58 -0.45,-0.7 -2.17,3.28 z"
                       style="fill:#000000;fill-opacity:1;fill-rule:nonzero;stroke:none"
                       id="path9738" /><path
                       d="M 0,124.72 H 271"
                       style="fill:none;stroke:#000000;stroke-width:1;stroke-linecap:butt;stroke-linejoin:miter;stroke-miterlimit:10;stroke-dasharray:none;stroke-opacity:1"
                       id="path9740" /><path
                       d="m 272,124.72 -4,-4"
                       style="fill:none;stroke:#000000;stroke-width:1;stroke-linecap:butt;stroke-linejoin:miter;stroke-miterlimit:10;stroke-dasharray:none;stroke-opacity:1"
                       id="path9742" /><path
                       d="m 272,124.72 -4,4"
                       style="fill:none;stroke:#000000;stroke-width:1;stroke-linecap:butt;stroke-linejoin:miter;stroke-miterlimit:10;stroke-dasharray:none;stroke-opacity:1"
                       id="path9744" /><path
                       d="m 135,24.203 -0.16,-1.328 c 0.31,0.083 0.57,0.125 0.8,0.125 0.31,0 0.56,-0.052 0.75,-0.156 0.19,-0.104 0.34,-0.25 0.47,-0.438 0.08,-0.135 0.22,-0.484 0.42,-1.047 0.03,-0.073 0.07,-0.187 0.13,-0.343 l -3.14,-8.313 h 1.51 l 1.72,4.797 c 0.23,0.615 0.43,1.255 0.61,1.922 0.16,-0.646 0.35,-1.276 0.58,-1.891 l 1.76,-4.828 h 1.41 l -3.16,8.438 c -0.33,0.916 -0.59,1.547 -0.78,1.89 -0.25,0.459 -0.53,0.797 -0.86,1.016 -0.32,0.219 -0.71,0.328 -1.15,0.328 -0.27,0 -0.58,-0.057 -0.91,-0.172 z"
                       style="fill:#000000;fill-opacity:1;fill-rule:nonzero;stroke:none"
                       id="path9746" /><path
                       d="m 211.89,124.72 c 0,45.64 -36.99,82.63 -82.63,82.63 -45.633,0 -82.627,-36.99 -82.627,-82.63 0,-45.631 36.994,-82.626 82.627,-82.626 45.64,0 82.63,36.995 82.63,82.626 z"
                       style="fill:none;stroke:#000000;stroke-width:1.5;stroke-linecap:round;stroke-linejoin:round;stroke-miterlimit:10;stroke-dasharray:none;stroke-opacity:0.69804"
                       id="path9748" /><path
                       d="M 129.26,124.72 235.3,75.6"
                       style="fill:none;stroke:#000000;stroke-width:1.5;stroke-linecap:round;stroke-linejoin:round;stroke-miterlimit:10;stroke-dasharray:none;stroke-opacity:1"
                       id="path9750" /><path
                       d="M 129.26,124.72 80.138,18.687"
                       style="fill:none;stroke:#000000;stroke-width:1.5;stroke-linecap:round;stroke-linejoin:round;stroke-miterlimit:10;stroke-dasharray:none;stroke-opacity:1"
                       id="path9752" /><path
                       d="M 129.26,124.72 80.138,18.687"
                       style="fill:none;stroke:#000000;stroke-width:1.5;stroke-linecap:round;stroke-linejoin:round;stroke-miterlimit:10;stroke-dasharray:none;stroke-opacity:1"
                       id="path9754" /><path
                       d="m 204.24,89.99 v 34.73"
                       style="fill:none;stroke:#0000ff;stroke-width:1.5;stroke-linecap:round;stroke-linejoin:round;stroke-miterlimit:10;stroke-dasharray:none;stroke-opacity:1"
                       id="path9756" /><path
                       d="M 94.529,49.749 H 129.26"
                       style="fill:none;stroke:#0000ff;stroke-width:1.5;stroke-linecap:round;stroke-linejoin:round;stroke-miterlimit:10;stroke-dasharray:none;stroke-opacity:1"
                       id="path9758" /><path
                       d="M 129.26,49.749 V 124.72"
                       style="fill:none;stroke:#ff0000;stroke-width:1.5;stroke-linecap:round;stroke-linejoin:round;stroke-miterlimit:10;stroke-dasharray:none;stroke-opacity:1"
                       id="path9760" /><path
                       d="m 129.26,124.72 h 74.98"
                       style="fill:none;stroke:#ff0000;stroke-width:1.5;stroke-linecap:round;stroke-linejoin:round;stroke-miterlimit:10;stroke-dasharray:none;stroke-opacity:1"
                       id="path9762" /><path
                       d="M 129.26,124.72 23.226,173.85"
                       style="fill:none;stroke:#000000;stroke-width:2.5;stroke-linecap:round;stroke-linejoin:round;stroke-miterlimit:10;stroke-dasharray:none;stroke-opacity:0.69804"
                       id="path9764" /><path
                       d="m 129.26,124.72 49.13,106.04"
                       style="fill:none;stroke:#000000;stroke-width:2.5;stroke-linecap:round;stroke-linejoin:round;stroke-miterlimit:10;stroke-dasharray:none;stroke-opacity:0.69804"
                       id="path9766" /><path
                       d="m 54.288,124.72 v 34.74"
                       style="fill:none;stroke:#0000ff;stroke-width:2.5;stroke-linecap:round;stroke-linejoin:round;stroke-miterlimit:10;stroke-dasharray:none;stroke-opacity:0.69804"
                       id="path9768" /><path
                       d="M 129.26,199.7 H 164"
                       style="fill:none;stroke:#0000ff;stroke-width:2.5;stroke-linecap:round;stroke-linejoin:round;stroke-miterlimit:10;stroke-dasharray:none;stroke-opacity:0.69804"
                       id="path9770" /><path
                       d="M 54.288,124.72 H 129.26"
                       style="fill:none;stroke:#ff0000;stroke-width:2.5;stroke-linecap:round;stroke-linejoin:round;stroke-miterlimit:10;stroke-dasharray:none;stroke-opacity:0.69804"
                       id="path9772" /><path
                       d="M 129.26,199.7 V 124.72"
                       style="fill:none;stroke:#ff0000;stroke-width:2.5;stroke-linecap:round;stroke-linejoin:round;stroke-miterlimit:10;stroke-dasharray:none;stroke-opacity:0.69804"
                       id="path9774" /><path
                       d="m 132.26,124.72 c 0,1.66 -1.34,3 -3,3 -1.65,0 -3,-1.34 -3,-3 0,-1.65 1.35,-3 3,-3 1.66,0 3,1.35 3,3 z"
                       style="fill:#000000;fill-opacity:1;fill-rule:nonzero;stroke:none"
                       id="path9776" /><g
                       id="g9778"
                       transform="scale(19)"><g
                         id="g9780"
                         transform="matrix(0.01,0,0,0.01,5.7368,7.8409)"><path
                           d="m 74,-43.594 v 0 C 74,-33.26 70.333,-23.698 63,-14.906 56.396,-6.9062 48.661,-1.6354 39.797,0.90625 36.661,1.7708 33.562,2.2031 30.5,2.2031 22.167,2.2031 15.599,-0.72917 10.797,-6.5938 6.8698,-11.396 4.9062,-17.365 4.9062,-24.5 c 0,-10 3.5626,-19.469 10.6878,-28.406 6.604,-8.063 14.338,-13.427 23.203,-16.094 3.271,-1 6.505,-1.5 9.703,-1.5 8.469,0 15.104,3.068 19.906,9.203 3.729,4.802 5.594,10.703 5.594,17.703 z M 31.094,-0.40625 v 0 c 6.271,0 12.307,-2.79685 18.109,-8.39065 1.198,-1.1354 2.297,-2.3381 3.297,-3.6091 6.531,-8.125 10.562,-17.823 12.094,-29.094 0.333,-2.198 0.5,-4.198 0.5,-6 0,-9.135 -3.063,-15.333 -9.188,-18.594 -0.073,0 -0.14,-0.036 -0.203,-0.109 C 53.297,-67.401 50.698,-68 47.906,-68 c -6.271,0 -12.338,2.698 -18.203,8.094 -2.406,2.135 -4.542,4.635 -6.406,7.5 -5.063,7.666 -8.026,16.833 -8.891,27.5 -0.135,1.208 -0.203,2.276 -0.203,3.203 0,8.531 2.568,14.6665 7.703,18.4061 2.667,1.9271 5.729,2.89065 9.188,2.89065 z"
                           style="fill:#000000;fill-opacity:1;fill-rule:nonzero;stroke:none"
                           id="path9782" /><g
                           id="g9784"
                           transform="matrix(5.2632,0,0,5.2632,-573.68,-784.09)"><path
                             d="m 97.529,49.749 c 0,1.657 -1.344,3 -3,3 -1.657,0 -3,-1.343 -3,-3 0,-1.656 1.343,-3 3,-3 1.656,0 3,1.344 3,3 z"
                             style="fill:#000000;fill-opacity:1;fill-rule:nonzero;stroke:none"
                             id="path9786" /><path
                             d="m 207.24,89.99 c 0,1.657 -1.35,3 -3,3 -1.66,0 -3,-1.343 -3,-3 0,-1.657 1.34,-3 3,-3 1.65,0 3,1.343 3,3 z"
                             style="fill:#000000;fill-opacity:1;fill-rule:nonzero;stroke:none"
                             id="path9788" /><path
                             d="m 207.24,124.72 c 0,1.66 -1.35,3 -3,3 -1.66,0 -3,-1.34 -3,-3 0,-1.65 1.34,-3 3,-3 1.65,0 3,1.35 3,3 z"
                             style="fill:#000000;fill-opacity:1;fill-rule:nonzero;stroke:none"
                             id="path9790" /><path
                             d="m 132.26,49.749 c 0,1.657 -1.34,3 -3,3 -1.65,0 -3,-1.343 -3,-3 0,-1.656 1.35,-3 3,-3 1.66,0 3,1.344 3,3 z"
                             style="fill:#000000;fill-opacity:1;fill-rule:nonzero;stroke:none"
                             id="path9792" /><path
                             d="m 57.288,159.46 c 0,1.66 -1.343,3 -3,3 -1.657,0 -3,-1.34 -3,-3 0,-1.66 1.343,-3 3,-3 1.657,0 3,1.34 3,3 z"
                             style="fill:#000000;fill-opacity:1;fill-rule:nonzero;stroke:none"
                             id="path9794" /><path
                             d="m 167,199.7 c 0,1.66 -1.35,3 -3,3 -1.66,0 -3,-1.34 -3,-3 0,-1.66 1.34,-3 3,-3 1.65,0 3,1.34 3,3 z"
                             style="fill:#000000;fill-opacity:1;fill-rule:nonzero;stroke:none"
                             id="path9796" /><path
                             d="m 57.288,124.72 c 0,1.66 -1.343,3 -3,3 -1.657,0 -3,-1.34 -3,-3 0,-1.65 1.343,-3 3,-3 1.657,0 3,1.35 3,3 z"
                             style="fill:#000000;fill-opacity:1;fill-rule:nonzero;stroke:none"
                             id="path9798" /><path
                             d="m 132.26,199.7 c 0,1.66 -1.34,3 -3,3 -1.65,0 -3,-1.34 -3,-3 0,-1.66 1.35,-3 3,-3 1.66,0 3,1.34 3,3 z"
                             style="fill:#000000;fill-opacity:1;fill-rule:nonzero;stroke:none"
                             id="path9800" /><g
                             id="g9802"
                             transform="matrix(0.19,0,0,0.19,242.003,72.1886)"><path
                               d="m 47.703,-23.594 v 0 6.188 c 4.333,-5.396 7.599,-11.995 9.797,-19.797 0.667,-1.333 1.167,-2.031 1.5,-2.094 0.802,0 1.203,0.333 1.203,1 0,1.136 -0.765,3.667 -2.297,7.594 -2.271,5.739 -5.338,11.042 -9.203,15.906 -0.667,1.333 -1,2.5 -1,3.5 0,6.8022 1.034,10.2032 3.102,10.2032 2.067,0 3.731,-1.1666 4.992,-3.5 C 55.995,-5 56.198,-5.4688 56.406,-6 c 0.261,-0.6667 0.693,-1 1.297,-1 0.802,0 1.203,0.3333 1.203,1 0,1.2708 -0.833,2.7708 -2.5,4.5 -1.739,1.72917 -3.708,2.5938 -5.906,2.5938 -4.198,0 -7.099,-2.2969 -8.703,-6.8907 -0.136,-0.4687 -0.266,-0.9687 -0.391,-1.5 -7,5.5938 -14.036,8.3907 -21.109,8.3907 -6.261,0 -10.8595,-2.5 -13.797,-7.5 -1.6042,-2.7292 -2.4062,-5.8598 -2.4062,-9.3908 0,-6.802 2.6041,-13.104 7.8122,-18.906 5.125,-5.729 10.922,-8.859 17.391,-9.391 0.604,-0.073 1.172,-0.109 1.703,-0.109 5.604,0 9.938,2.203 13,6.609 0,0.063 0.031,0.094 0.094,0.094 2.406,3.531 3.609,8.167 3.609,13.906 z M 41,-9.9062 v 0 c -0.135,-1.1248 -0.203,-4.8538 -0.203,-11.1878 0,-8.208 -0.901,-13.812 -2.703,-16.812 -0.792,-1.334 -1.755,-2.334 -2.891,-3 L 35.094,-41 v 0 H 35 c -1.198,-0.667 -2.562,-1 -4.094,-1 -4.739,0 -9.01,2.667 -12.812,8 l -0.797,1.203 c -2.396,3.865 -4.162,9.266 -5.297,16.203 -0.333,1.865 -0.5,3.396 -0.5,4.594 0,5.6042 1.969,9.0729 5.906,10.4062 0.927,0.3334 1.959,0.5 3.094,0.5 6.938,0 13.771,-2.9374 20.5,-8.8124 z"
                               style="fill:#000000;fill-opacity:1;fill-rule:nonzero;stroke:none"
                               id="path9804" /><g
                               id="g9806"
                               transform="matrix(1.000008,0,0,1.000008,-1146.359,-299.99736)"><path
                                 d="m 26.5,-37.297 v 0 l -5.594,22.094 c -1.135,4.271 -2.036,7.5363 -2.703,9.7968 -1.073,3.2708 -2.073,5.23953 -3,5.9062 v 0.09375 c -0.604,0.33333 -1.271,0.50005 -2,0.50005 -1.531,0 -2.463,-0.66672 -2.797,-2.00005 C 10.333,-1.1042 10.297,-1.3333 10.297,-1.5938 10.297,-2.1979 10.562,-3 11.094,-4 17.365,-17.531 21.635,-28.63 23.906,-37.297 h -5.703 c -5.198,0 -9.4322,2.568 -12.703,7.703 -0.6042,0.792 -1.1354,1.188 -1.5938,1.188 -0.802,0 -1.2031,-0.334 -1.2031,-1 0,-0.729 1.1979,-2.729 3.5938,-6 0.4687,-0.532 0.901,-1.063 1.2969,-1.594 0.2083,-0.271 0.4427,-0.536 0.7031,-0.797 0.1354,-0.198 0.3021,-0.401 0.5,-0.609 2.9371,-3.125 6.4061,-4.688 10.4061,-4.688 h 33.5 c 2.261,0 3.557,0.5 3.891,1.5 v 0.094 c 0.073,0.198 0.109,0.464 0.109,0.797 0,2.271 -1.635,3.406 -4.906,3.406 H 40.406 c -1.208,5.667 -1.812,10.964 -1.812,15.891 0,6.208 0.968,11.7081 2.906,16.4998 0.396,0.9374 0.594,1.6718 0.594,2.2031 0,1.5312 -0.834,2.666642 -2.5,3.40622 C 39.062,0.96354 38.531,1.0938 38,1.0938 c -1.333,0 -2.333,-0.93234 -3,-2.7969 -0.198,-0.5938 -0.396,-1.3281 -0.594,-2.2031 -0.541,-2.2605 -0.812,-4.7917 -0.812,-7.5938 0,-4.396 0.901,-10.76 2.703,-19.094 l 1.5,-6.703 z"
                                 style="fill:#000000;fill-opacity:1;fill-rule:nonzero;stroke:none"
                                 id="path9808" /><g
                                 id="g9810"
                                 transform="matrix(100,0,0,100,-127.34,-79.942)"><path
                                   d="m 1.2734,1.2059 h 0.606 v 0.04 h -0.606 z"
                                   style="fill:#000000;fill-opacity:1;fill-rule:nonzero;stroke:none"
                                   id="path9812" /><g
                                   id="g9814"
                                   transform="matrix(0.01,0,0,0.01,1.3264,2.1619)"><path
                                   d="m 44.906,-17.406 v 0 L 42.094,0 H 5 c 0,-1.6667 0.1979,-2.7344 0.5938,-3.2031 l 0.5,-0.5 19.2032,-21.3909 c 7,-7.875 10.5,-15.245 10.5,-22.109 0,-5.927 -1.797,-10.427 -5.391,-13.5 l -0.109,-0.094 h -0.094 c -2.135,-1.802 -4.734,-2.703 -7.797,-2.703 -4.802,0 -8.635,2.068 -11.5,6.203 -0.802,1.198 -1.4685,2.531 -1.9998,4 0.198,-0.073 0.6303,-0.109 1.2968,-0.109 2.667,0 4.365,1.203 5.094,3.609 v 0.094 c 0.135,0.469 0.203,0.969 0.203,1.5 0,2.667 -1.266,4.37 -3.797,5.109 -0.531,0.125 -1,0.188 -1.406,0.188 -2.4689,0 -4.0991,-1.032 -4.8908,-3.094 C 5.1354,-46.729 5,-47.562 5,-48.5 c 0,-5.135 1.9688,-9.536 5.906,-13.203 3.532,-3.261 7.797,-4.891 12.797,-4.891 7.333,0 13.031,2.464 17.094,7.391 2.333,2.864 3.667,6.265 4,10.203 0.073,0.604 0.109,1.203 0.109,1.797 0,4.864 -1.833,9.5 -5.5,13.906 -1.937,2.261 -4.937,5.261 -9,9 l -6.109,5.391 -1,0.906 -10.594,10.2969 h 18 c 5.865,0 9.031,-0.2657 9.5,-0.7969 0.667,-0.9375 1.401,-3.906 2.203,-8.906 z"
                                   style="fill:#000000;fill-opacity:1;fill-rule:nonzero;stroke:none"
                                   id="path9816" /><g
                                   id="g9818"
                                   transform="translate(83.82,-68.6)"><path
                                   d="M 40.906,-23 V 5 c 0,2.1354 -0.666,3.2344 -2,3.2969 -1.333,0 -2,-1.099 -2,-3.2969 V -23 H 8.9062 c -2.1354,0 -3.2395,-0.667 -3.3124,-2 0,-1.333 1.1041,-2 3.3124,-2 H 36.906 v -28 c 0,-2.135 0.667,-3.234 2,-3.297 1.334,0 2,1.099 2,3.297 v 28 h 27.891 c 2.135,0 3.234,0.667 3.297,2 0,1.333 -1.099,2 -3.297,2 z"
                                   style="fill:#000000;fill-opacity:1;fill-rule:nonzero;stroke:none"
                                   id="path9820" /><g
                                   id="g9822"
                                   transform="translate(100.02)"><path
                                   d="m 47.703,-23.594 v 0 6.188 c 4.333,-5.396 7.599,-11.995 9.797,-19.797 0.667,-1.333 1.167,-2.031 1.5,-2.094 0.802,0 1.203,0.333 1.203,1 0,1.136 -0.765,3.667 -2.297,7.594 -2.271,5.739 -5.338,11.042 -9.203,15.906 -0.667,1.333 -1,2.5 -1,3.5 0,6.8022 1.034,10.2032 3.102,10.2032 2.067,0 3.731,-1.1666 4.992,-3.5 C 55.995,-5 56.198,-5.4688 56.406,-6 c 0.261,-0.6667 0.693,-1 1.297,-1 0.802,0 1.203,0.3333 1.203,1 0,1.2708 -0.833,2.7708 -2.5,4.5 -1.739,1.72917 -3.708,2.5938 -5.906,2.5938 -4.198,0 -7.099,-2.2969 -8.703,-6.8907 -0.136,-0.4687 -0.266,-0.9687 -0.391,-1.5 -7,5.5938 -14.036,8.3907 -21.109,8.3907 -6.261,0 -10.8595,-2.5 -13.797,-7.5 -1.6042,-2.7292 -2.4062,-5.8598 -2.4062,-9.3908 0,-6.802 2.6041,-13.104 7.8122,-18.906 5.125,-5.729 10.922,-8.859 17.391,-9.391 0.604,-0.073 1.172,-0.109 1.703,-0.109 5.604,0 9.938,2.203 13,6.609 0,0.063 0.031,0.094 0.094,0.094 2.406,3.531 3.609,8.167 3.609,13.906 z M 41,-9.9062 v 0 c -0.135,-1.1248 -0.203,-4.8538 -0.203,-11.1878 0,-8.208 -0.901,-13.812 -2.703,-16.812 -0.792,-1.334 -1.755,-2.334 -2.891,-3 L 35.094,-41 v 0 H 35 c -1.198,-0.667 -2.562,-1 -4.094,-1 -4.739,0 -9.01,2.667 -12.812,8 l -0.797,1.203 c -2.396,3.865 -4.162,9.266 -5.297,16.203 -0.333,1.865 -0.5,3.396 -0.5,4.594 0,5.6042 1.969,9.0729 5.906,10.4062 0.927,0.3334 1.959,0.5 3.094,0.5 6.938,0 13.771,-2.9374 20.5,-8.8124 z"
                                   style="fill:#000000;fill-opacity:1;fill-rule:nonzero;stroke:none"
                                   id="path9824" /><g
                                   id="g9826"
                                   transform="matrix(1.000008,0,0,1.000008,-279.63771,879.11821)"><path
                                   d="m 26.5,-37.297 v 0 l -5.594,22.094 c -1.135,4.271 -2.036,7.5363 -2.703,9.7968 -1.073,3.2708 -2.073,5.23953 -3,5.9062 v 0.09375 c -0.604,0.33333 -1.271,0.50005 -2,0.50005 -1.531,0 -2.463,-0.66672 -2.797,-2.00005 C 10.333,-1.1042 10.297,-1.3333 10.297,-1.5938 10.297,-2.1979 10.562,-3 11.094,-4 17.365,-17.531 21.635,-28.63 23.906,-37.297 h -5.703 c -5.198,0 -9.4322,2.568 -12.703,7.703 -0.6042,0.792 -1.1354,1.188 -1.5938,1.188 -0.802,0 -1.2031,-0.334 -1.2031,-1 0,-0.729 1.1979,-2.729 3.5938,-6 0.4687,-0.532 0.901,-1.063 1.2969,-1.594 0.2083,-0.271 0.4427,-0.536 0.7031,-0.797 0.1354,-0.198 0.3021,-0.401 0.5,-0.609 2.9371,-3.125 6.4061,-4.688 10.4061,-4.688 h 33.5 c 2.261,0 3.557,0.5 3.891,1.5 v 0.094 c 0.073,0.198 0.109,0.464 0.109,0.797 0,2.271 -1.635,3.406 -4.906,3.406 H 40.406 c -1.208,5.667 -1.812,10.964 -1.812,15.891 0,6.208 0.968,11.7081 2.906,16.4998 0.396,0.9374 0.594,1.6718 0.594,2.2031 0,1.5312 -0.834,2.666642 -2.5,3.40622 C 39.062,0.96354 38.531,1.0938 38,1.0938 c -1.333,0 -2.333,-0.93234 -3,-2.7969 -0.198,-0.5938 -0.396,-1.3281 -0.594,-2.2031 -0.541,-2.2605 -0.812,-4.7917 -0.812,-7.5938 0,-4.396 0.901,-10.76 2.703,-19.094 l 1.5,-6.703 z"
                                   style="fill:#000000;fill-opacity:1;fill-rule:nonzero;stroke:none"
                                   id="path9828" /><g
                                   id="g9830"
                                   transform="translate(82.818)"><path
                                   d="M 40.906,-23 V 5 c 0,2.1354 -0.666,3.2344 -2,3.2969 -1.333,0 -2,-1.099 -2,-3.2969 V -23 H 8.9062 c -2.1354,0 -3.2395,-0.667 -3.3124,-2 0,-1.333 1.1041,-2 3.3124,-2 H 36.906 v -28 c 0,-2.135 0.667,-3.234 2,-3.297 1.334,0 2,1.099 2,3.297 v 28 h 27.891 c 2.135,0 3.234,0.667 3.297,2 0,1.333 -1.099,2 -3.297,2 z"
                                   style="fill:#000000;fill-opacity:1;fill-rule:nonzero;stroke:none"
                                   id="path9832" /><g
                                   id="g9834"
                                   transform="translate(100.03)"><path
                                   d="m 47.703,-23.594 v 0 6.188 c 4.333,-5.396 7.599,-11.995 9.797,-19.797 0.667,-1.333 1.167,-2.031 1.5,-2.094 0.802,0 1.203,0.333 1.203,1 0,1.136 -0.765,3.667 -2.297,7.594 -2.271,5.739 -5.338,11.042 -9.203,15.906 -0.667,1.333 -1,2.5 -1,3.5 0,6.8022 1.034,10.2032 3.102,10.2032 2.067,0 3.731,-1.1666 4.992,-3.5 C 55.995,-5 56.198,-5.4688 56.406,-6 c 0.261,-0.6667 0.693,-1 1.297,-1 0.802,0 1.203,0.3333 1.203,1 0,1.2708 -0.833,2.7708 -2.5,4.5 -1.739,1.72917 -3.708,2.5938 -5.906,2.5938 -4.198,0 -7.099,-2.2969 -8.703,-6.8907 -0.136,-0.4687 -0.266,-0.9687 -0.391,-1.5 -7,5.5938 -14.036,8.3907 -21.109,8.3907 -6.261,0 -10.8595,-2.5 -13.797,-7.5 -1.6042,-2.7292 -2.4062,-5.8598 -2.4062,-9.3908 0,-6.802 2.6041,-13.104 7.8122,-18.906 5.125,-5.729 10.922,-8.859 17.391,-9.391 0.604,-0.073 1.172,-0.109 1.703,-0.109 5.604,0 9.938,2.203 13,6.609 0,0.063 0.031,0.094 0.094,0.094 2.406,3.531 3.609,8.167 3.609,13.906 z M 41,-9.9062 v 0 c -0.135,-1.1248 -0.203,-4.8538 -0.203,-11.1878 0,-8.208 -0.901,-13.812 -2.703,-16.812 -0.792,-1.334 -1.755,-2.334 -2.891,-3 L 35.094,-41 v 0 H 35 c -1.198,-0.667 -2.562,-1 -4.094,-1 -4.739,0 -9.01,2.667 -12.812,8 l -0.797,1.203 c -2.396,3.865 -4.162,9.266 -5.297,16.203 -0.333,1.865 -0.5,3.396 -0.5,4.594 0,5.6042 1.969,9.0729 5.906,10.4062 0.927,0.3334 1.959,0.5 3.094,0.5 6.938,0 13.771,-2.9374 20.5,-8.8124 z"
                                   style="fill:#000000;fill-opacity:1;fill-rule:nonzero;stroke:none"
                                   id="path9836" /><g
                                   id="g9838"
                                   transform="matrix(1.000008,0,0,1.000008,786.61805,74.50881)"><path
                                   d="m 29,-35.203 v 0 c 6.667,1.333 11.469,4.599 14.406,9.797 1.532,2.604 2.297,5.375 2.297,8.312 0,5.667 -2.333,10.4325 -7,14.2971 -4.073,3.33336 -8.838,5 -14.297,5 C 17.802,2.2031 12.5,0.23438 8.5,-3.7031 5.6354,-6.5052 4.2031,-9.7708 4.2031,-13.5 c 0,-3.135 1.4011,-5 4.2031,-5.594 0.4584,-0.135 0.9219,-0.203 1.3907,-0.203 2.5311,0 4.2341,1.068 5.1091,3.203 0.261,0.865 0.427,1.662 0.5,2.391 0,2.667 -1.203,4.4009 -3.609,5.203 -0.927,0.3333 -1.9272,0.4323 -3.0001,0.2969 2.4691,4.1354 6.7341,6.6041 12.7971,7.40622 0.875,0.13542 1.708,0.20313 2.5,0.20313 4.271,0 7.406,-2.10415 9.406,-6.31245 1.271,-2.6667 1.906,-6.0628 1.906,-10.1878 0,-8.875 -2.666,-14.208 -8,-16 -1.208,-0.406 -2.51,-0.609 -3.906,-0.609 h -4.406 c -1.459,0 -2.255,-0.365 -2.391,-1.094 0,-0.667 0.5,-1.068 1.5,-1.203 1,0 2.297,-0.099 3.891,-0.297 3.406,-0.135 6.073,-1.437 8,-3.906 v -0.094 l 0.109,-0.109 0.094,-0.094 h 0.109 l 0.594,-1 c 1.865,-3.135 2.797,-6.938 2.797,-11.406 0,-6.198 -2.401,-9.828 -7.203,-10.891 -0.792,-0.198 -1.589,-0.297 -2.391,-0.297 -4.667,0 -8.469,1.334 -11.406,4 -0.729,0.667 -1.359,1.396 -1.891,2.188 4.125,0 6.188,1.666 6.188,5 0,2.406 -1.032,4.01 -3.094,4.812 -0.604,0.198 -1.271,0.297 -2,0.297 -2.6042,0 -4.2396,-1.167 -4.9062,-3.5 v 0 -0.109 C 6.9688,-51.938 6.9062,-52.469 6.9062,-53 c 0,-4.469 2.198,-8.036 6.5938,-10.703 3.198,-1.927 6.896,-2.891 11.094,-2.891 6.073,0 10.974,1.797 14.703,5.391 L 39.5,-61 c 2.333,2.396 3.5,5.13 3.5,8.203 0,5.531 -2.365,10.162 -7.094,13.891 -2.073,1.604 -4.375,2.838 -6.906,3.703 z"
                                   style="fill:#000000;fill-opacity:1;fill-rule:nonzero;stroke:none"
                                   id="path9840" /><g
                                   id="g9842"
                                   transform="translate(50)"><path
                                   d="m 26.5,-37.297 v 0 l -5.594,22.094 c -1.135,4.271 -2.036,7.5363 -2.703,9.7968 -1.073,3.2708 -2.073,5.23953 -3,5.9062 v 0.09375 c -0.604,0.33333 -1.271,0.50005 -2,0.50005 -1.531,0 -2.463,-0.66672 -2.797,-2.00005 C 10.333,-1.1042 10.297,-1.3333 10.297,-1.5938 10.297,-2.1979 10.562,-3 11.094,-4 17.365,-17.531 21.635,-28.63 23.906,-37.297 h -5.703 c -5.198,0 -9.4322,2.568 -12.703,7.703 -0.6042,0.792 -1.1354,1.188 -1.5938,1.188 -0.802,0 -1.2031,-0.334 -1.2031,-1 0,-0.729 1.1979,-2.729 3.5938,-6 0.4687,-0.532 0.901,-1.063 1.2969,-1.594 0.2083,-0.271 0.4427,-0.536 0.7031,-0.797 0.1354,-0.198 0.3021,-0.401 0.5,-0.609 2.9371,-3.125 6.4061,-4.688 10.4061,-4.688 h 33.5 c 2.261,0 3.557,0.5 3.891,1.5 v 0.094 c 0.073,0.198 0.109,0.464 0.109,0.797 0,2.271 -1.635,3.406 -4.906,3.406 H 40.406 c -1.208,5.667 -1.812,10.964 -1.812,15.891 0,6.208 0.968,11.7081 2.906,16.4998 0.396,0.9374 0.594,1.6718 0.594,2.2031 0,1.5312 -0.834,2.666642 -2.5,3.40622 C 39.062,0.96354 38.531,1.0938 38,1.0938 c -1.333,0 -2.333,-0.93234 -3,-2.7969 -0.198,-0.5938 -0.396,-1.3281 -0.594,-2.2031 -0.541,-2.2605 -0.812,-4.7917 -0.812,-7.5938 0,-4.396 0.901,-10.76 2.703,-19.094 l 1.5,-6.703 z"
                                   style="fill:#000000;fill-opacity:1;fill-rule:nonzero;stroke:none"
                                   id="path9844" /><g
                                   id="g9846"
                                   transform="matrix(100,0,0,100,-1056.3,-1101.2)"><path
                                   d="m 10.063,11.419 h 1.106 v 0.04 h -1.106 z"
                                   style="fill:#000000;fill-opacity:1;fill-rule:nonzero;stroke:none"
                                   id="path9848" /><g
                                   id="g9850"
                                   transform="matrix(0.01,0,0,0.01,10.366,12.375)"><path
                                   d="m 44.906,-17.406 v 0 L 42.094,0 H 5 c 0,-1.6667 0.1979,-2.7344 0.5938,-3.2031 l 0.5,-0.5 19.2032,-21.3909 c 7,-7.875 10.5,-15.245 10.5,-22.109 0,-5.927 -1.797,-10.427 -5.391,-13.5 l -0.109,-0.094 h -0.094 c -2.135,-1.802 -4.734,-2.703 -7.797,-2.703 -4.802,0 -8.635,2.068 -11.5,6.203 -0.802,1.198 -1.4685,2.531 -1.9998,4 0.198,-0.073 0.6303,-0.109 1.2968,-0.109 2.667,0 4.365,1.203 5.094,3.609 v 0.094 c 0.135,0.469 0.203,0.969 0.203,1.5 0,2.667 -1.266,4.37 -3.797,5.109 -0.531,0.125 -1,0.188 -1.406,0.188 -2.4689,0 -4.0991,-1.032 -4.8908,-3.094 C 5.1354,-46.729 5,-47.562 5,-48.5 c 0,-5.135 1.9688,-9.536 5.906,-13.203 3.532,-3.261 7.797,-4.891 12.797,-4.891 7.333,0 13.031,2.464 17.094,7.391 2.333,2.864 3.667,6.265 4,10.203 0.073,0.604 0.109,1.203 0.109,1.797 0,4.864 -1.833,9.5 -5.5,13.906 -1.937,2.261 -4.937,5.261 -9,9 l -6.109,5.391 -1,0.906 -10.594,10.2969 h 18 c 5.865,0 9.031,-0.2657 9.5,-0.7969 0.667,-0.9375 1.401,-3.906 2.203,-8.906 z"
                                   style="fill:#000000;fill-opacity:1;fill-rule:nonzero;stroke:none"
                                   id="path9852" /><g
                                   id="g9854"
                                   transform="translate(108.8,-68.6)"><path
                                   d="M 40.906,-23 V 5 c 0,2.1354 -0.666,3.2344 -2,3.2969 -1.333,0 -2,-1.099 -2,-3.2969 V -23 H 8.9062 c -2.1354,0 -3.2395,-0.667 -3.3124,-2 0,-1.333 1.1041,-2 3.3124,-2 H 36.906 v -28 c 0,-2.135 0.667,-3.234 2,-3.297 1.334,0 2,1.099 2,3.297 v 28 h 27.891 c 2.135,0 3.234,0.667 3.297,2 0,1.333 -1.099,2 -3.297,2 z"
                                   style="fill:#000000;fill-opacity:1;fill-rule:nonzero;stroke:none"
                                   id="path9856" /><g
                                   id="g9858"
                                   transform="translate(100)"><path
                                   d="m 47.703,-23.594 v 0 6.188 c 4.333,-5.396 7.599,-11.995 9.797,-19.797 0.667,-1.333 1.167,-2.031 1.5,-2.094 0.802,0 1.203,0.333 1.203,1 0,1.136 -0.765,3.667 -2.297,7.594 -2.271,5.739 -5.338,11.042 -9.203,15.906 -0.667,1.333 -1,2.5 -1,3.5 0,6.8022 1.034,10.2032 3.102,10.2032 2.067,0 3.731,-1.1666 4.992,-3.5 C 55.995,-5 56.198,-5.4688 56.406,-6 c 0.261,-0.6667 0.693,-1 1.297,-1 0.802,0 1.203,0.3333 1.203,1 0,1.2708 -0.833,2.7708 -2.5,4.5 -1.739,1.72917 -3.708,2.5938 -5.906,2.5938 -4.198,0 -7.099,-2.2969 -8.703,-6.8907 -0.136,-0.4687 -0.266,-0.9687 -0.391,-1.5 -7,5.5938 -14.036,8.3907 -21.109,8.3907 -6.261,0 -10.8595,-2.5 -13.797,-7.5 -1.6042,-2.7292 -2.4062,-5.8598 -2.4062,-9.3908 0,-6.802 2.6041,-13.104 7.8122,-18.906 5.125,-5.729 10.922,-8.859 17.391,-9.391 0.604,-0.073 1.172,-0.109 1.703,-0.109 5.604,0 9.938,2.203 13,6.609 0,0.063 0.031,0.094 0.094,0.094 2.406,3.531 3.609,8.167 3.609,13.906 z M 41,-9.9062 v 0 c -0.135,-1.1248 -0.203,-4.8538 -0.203,-11.1878 0,-8.208 -0.901,-13.812 -2.703,-16.812 -0.792,-1.334 -1.755,-2.334 -2.891,-3 L 35.094,-41 v 0 H 35 c -1.198,-0.667 -2.562,-1 -4.094,-1 -4.739,0 -9.01,2.667 -12.812,8 l -0.797,1.203 c -2.396,3.865 -4.162,9.266 -5.297,16.203 -0.333,1.865 -0.5,3.396 -0.5,4.594 0,5.6042 1.969,9.0729 5.906,10.4062 0.927,0.3334 1.959,0.5 3.094,0.5 6.938,0 13.771,-2.9374 20.5,-8.8124 z"
                                   style="fill:#000000;fill-opacity:1;fill-rule:nonzero;stroke:none"
                                   id="path9860" /><g
                                   id="g9862"
                                   transform="matrix(5.2632,0,0,5.2632,-1245.4,-1168.9)" /></g></g></g></g></g></g></g></g></g></g></g></g></g></g></g></g></g></g></g></g><g
                   id="g9864"
                   transform="scale(0.56693)" /></g></g></g></g></g></g></g></svg>
