<?xml version="1.0" encoding="UTF-8" standalone="no"?>
<svg
   xmlns:dc="http://purl.org/dc/elements/1.1/"
   xmlns:cc="http://creativecommons.org/ns#"
   xmlns:rdf="http://www.w3.org/1999/02/22-rdf-syntax-ns#"
   xmlns:svg="http://www.w3.org/2000/svg"
   xmlns="http://www.w3.org/2000/svg"
   xmlns:sodipodi="http://sodipodi.sourceforge.net/DTD/sodipodi-0.dtd"
   xmlns:inkscape="http://www.inkscape.org/namespaces/inkscape"
   version="1.1"
   id="svg6694"
   xml:space="preserve"
   width="130.66667"
   height="101.33333"
   viewBox="0 0 130.66667 101.33333"
   sodipodi:docname="2020-1215-1940-crop.pdf"><metadata
     id="metadata6700"><rdf:RDF><cc:Work
         rdf:about=""><dc:format>image/svg+xml</dc:format><dc:type
           rdf:resource="http://purl.org/dc/dcmitype/StillImage" /></cc:Work></rdf:RDF></metadata><defs
     id="defs6698"><clipPath
       clipPathUnits="userSpaceOnUse"
       id="clipPath6712"><path
         d="M 0,0 H 150 V 115 H 0 Z"
         id="path6710" /></clipPath><clipPath
       clipPathUnits="userSpaceOnUse"
       id="clipPath6722"><path
         d="M 0,0 H 150 V 115 H 0 Z"
         id="path6720" /></clipPath><clipPath
       clipPathUnits="userSpaceOnUse"
       id="clipPath6734"><path
         d="M 0,0 V 115 H 150 V 0 Z"
         id="path6732" /></clipPath><clipPath
       clipPathUnits="userSpaceOnUse"
       id="clipPath6744"><path
         d="M 0,0 H 266 V 204 H 0 Z"
         id="path6742" /></clipPath></defs><sodipodi:namedview
     pagecolor="#ffffff"
     bordercolor="#666666"
     borderopacity="1"
     objecttolerance="10"
     gridtolerance="10"
     guidetolerance="10"
     inkscape:pageopacity="0"
     inkscape:pageshadow="2"
     inkscape:window-width="640"
     inkscape:window-height="480"
     id="namedview6696" /><g
     id="g6702"
     inkscape:groupmode="layer"
     inkscape:label="2020-1215-1940-crop"
     transform="matrix(1.3333333,0,0,-1.3333333,0,101.33333)"><g
       id="g6704"
       transform="translate(-26,-19)"><g
         id="g6706"><g
           id="g6708"
           clip-path="url(#clipPath6712)"><g
             id="g6714"
             transform="matrix(0.65217,0,0,-0.65217,26.087,95)"><g
               id="g6716"><g
                 id="g6718"
                 clip-path="url(#clipPath6722)"><g
                   id="g6724"><g
                     id="g6726" /></g><g
                   id="g6728"><g
                     id="g6730"
                     clip-path="url(#clipPath6734)"><g
                       id="g6736"
                       transform="scale(0.56693)" /></g></g><g
                   id="g6738"
                   transform="scale(0.56693)"><g
                     id="g6740"
                     clip-path="url(#clipPath6744)"><path
                       d="M 0,0 H 266 V 204 H 0 Z"
                       style="fill:#ffffff;fill-opacity:1;fill-rule:nonzero;stroke:none"
                       id="path6746" /><path
                       d="M 126.12,2 V 204"
                       style="fill:none;stroke:#000000;stroke-width:1;stroke-linecap:butt;stroke-linejoin:miter;stroke-miterlimit:10;stroke-dasharray:none;stroke-opacity:1"
                       id="path6748" /><path
                       d="m 126.12,1 -4,4"
                       style="fill:none;stroke:#000000;stroke-width:1;stroke-linecap:butt;stroke-linejoin:miter;stroke-miterlimit:10;stroke-dasharray:none;stroke-opacity:1"
                       id="path6750" /><path
                       d="m 126.12,1 4,4"
                       style="fill:none;stroke:#000000;stroke-width:1;stroke-linecap:butt;stroke-linejoin:miter;stroke-miterlimit:10;stroke-dasharray:none;stroke-opacity:1"
                       id="path6752" /><path
                       d="m 248.12,120 3.04,-4.31 -2.82,-3.99 h 1.77 l 1.27,1.94 c 0.23,0.38 0.43,0.69 0.57,0.94 0.23,-0.35 0.45,-0.65 0.64,-0.92 l 1.39,-1.96 h 1.69 l -2.87,3.91 3.09,4.39 h -1.73 l -1.71,-2.58 -0.45,-0.7 -2.17,3.28 z"
                       style="fill:#000000;fill-opacity:1;fill-rule:nonzero;stroke:none"
                       id="path6754" /><path
                       d="M 0,124.45 H 264"
                       style="fill:none;stroke:#000000;stroke-width:1;stroke-linecap:butt;stroke-linejoin:miter;stroke-miterlimit:10;stroke-dasharray:none;stroke-opacity:1"
                       id="path6756" /><path
                       d="m 265,124.45 -4,-4"
                       style="fill:none;stroke:#000000;stroke-width:1;stroke-linecap:butt;stroke-linejoin:miter;stroke-miterlimit:10;stroke-dasharray:none;stroke-opacity:1"
                       id="path6758" /><path
                       d="m 265,124.45 -4,4"
                       style="fill:none;stroke:#000000;stroke-width:1;stroke-linecap:butt;stroke-linejoin:miter;stroke-miterlimit:10;stroke-dasharray:none;stroke-opacity:1"
                       id="path6760" /><path
                       d="m 132,24.203 -0.16,-1.328 c 0.31,0.083 0.57,0.125 0.8,0.125 0.31,0 0.56,-0.052 0.75,-0.156 0.19,-0.104 0.34,-0.25 0.47,-0.438 0.08,-0.135 0.22,-0.484 0.42,-1.047 0.03,-0.073 0.07,-0.187 0.13,-0.343 l -3.14,-8.313 h 1.51 l 1.72,4.797 c 0.23,0.615 0.43,1.255 0.61,1.922 0.16,-0.646 0.35,-1.276 0.58,-1.891 l 1.76,-4.828 h 1.41 l -3.16,8.438 c -0.33,0.916 -0.59,1.547 -0.78,1.89 -0.25,0.459 -0.53,0.797 -0.86,1.016 -0.32,0.219 -0.71,0.328 -1.15,0.328 -0.27,0 -0.58,-0.057 -0.91,-0.172 z"
                       style="fill:#000000;fill-opacity:1;fill-rule:nonzero;stroke:none"
                       id="path6762" /><path
                       d="m 15.811,179.6 0.814,-0.41 m 0,0 2.078,-1.03 2.078,-1.04 2.078,-1.04 2.079,-1.04 2.078,-1.04 2.078,-1.04 2.078,-1.04 2.078,-1.04 m 0,0 2.078,-1.04 2.078,-1.04 2.078,-1.04 2.078,-1.03 2.079,-1.04 2.078,-1.04 2.078,-1.04 2.078,-1.04 2.078,-1.04 2.078,-1.04 2.078,-1.04 2.079,-1.04 2.078,-1.04 2.078,-1.03 2.078,-1.04 2.078,-1.04 m 0,0 2.078,-1.04 2.078,-1.04 2.078,-1.04 2.078,-1.04 2.079,-1.04 2.078,-1.04 2.078,-1.04 2.078,-1.04 2.078,-1.03 2.078,-1.04 2.078,-1.04 2.079,-1.04 2.078,-1.04 2.078,-1.04 2.078,-1.04 2.078,-1.04 2.08,-1.04 2.08,-1.04 2.07,-1.04 2.08,-1.03 2.08,-1.04 2.08,-1.04 2.08,-1.04 2.08,-1.04 2.07,-1.04 2.08,-1.04 2.08,-1.04 2.08,-1.04 1.04,-0.52 0.52,-0.44 0.52,-1.04 2.07,-4.03 2.08,-3.87 2.08,-3.71 m 0,0 2.08,-3.56 2.08,-3.41 2.07,-3.24 2.08,-3.093 2.08,-2.933 2.08,-2.777 2.08,-2.619 2.07,-2.464 2.08,-2.307 2.08,-2.15 2.08,-1.993 2.08,-1.837 2.08,-1.68 2.07,-1.524 2.08,-1.367 2.08,-1.211 2.08,-1.054 2.08,-0.897 2.07,-0.741 2.08,-0.584 2.08,-0.428 2.08,-0.27 2.08,-0.115 2.08,0.042 2.07,0.199 2.08,0.356 2.08,0.512 2.08,0.668 2.08,0.826 2.07,0.982 2.08,1.138 2.08,1.295 m 0,0 2.08,1.452 2.08,1.608 2.07,1.765 2.08,1.921 2.08,2.078 2.08,2.235 2.08,2.391 2.07,2.548 2.08,2.705 2.08,2.861 2.08,3.017 2.08,3.175 2.08,3.33 2.07,3.49 2.08,3.64 2.08,3.8 m 0,0 2.08,3.96 m 0,0 1.6,3.16"
                       style="fill:none;stroke:#0000ff;stroke-width:1.5;stroke-linecap:round;stroke-linejoin:round;stroke-miterlimit:10;stroke-dasharray:none;stroke-opacity:1"
                       id="path6764" /><path
                       d="M 15.811,179.6 V 124.45"
                       style="fill:none;stroke:#000000;stroke-width:1.5;stroke-linecap:butt;stroke-linejoin:round;stroke-miterlimit:10;stroke-dasharray:5.5, 4;stroke-dashoffset:0;stroke-opacity:1"
                       id="path6766" /><path
                       d="M 181.28,69.292 H 126.12"
                       style="fill:none;stroke:#000000;stroke-width:1.5;stroke-linecap:butt;stroke-linejoin:round;stroke-miterlimit:10;stroke-dasharray:5.5, 4;stroke-dashoffset:0;stroke-opacity:1"
                       id="path6768" /><path
                       d="M 181.28,69.292 V 124.45"
                       style="fill:none;stroke:#000000;stroke-width:1.5;stroke-linecap:butt;stroke-linejoin:round;stroke-miterlimit:10;stroke-dasharray:5.5, 4;stroke-dashoffset:0;stroke-opacity:1"
                       id="path6770" /><path
                       d="m 18.811,179.6 c 0,1.66 -1.343,3 -3,3 -1.657,0 -3,-1.34 -3,-3 0,-1.66 1.343,-3 3,-3 1.657,0 3,1.34 3,3 z"
                       style="fill:#000000;fill-opacity:1;fill-rule:nonzero;stroke:none"
                       id="path6772" /><g
                       id="g6774"
                       transform="scale(19)"><g
                         id="g6776"
                         transform="matrix(0.01,0,0,0.01,0.84211,10.104)"><path
                           d="m 17.906,-11.5 34.797,-58.406 c 0.667,-1.063 1.531,-1.625 2.594,-1.688 1,0 1.568,0.334 1.703,1 0.062,0.198 0.13,0.662 0.203,1.391 l 6.094,62.4999 c 0.198,1.6666 0.599,2.6666 1.203,3 h 0.094 v 0 0 0 0.1093 c 0.802,0.3334 2.536,0.5 5.203,0.5 1.469,0 2.234,0.3646 2.297,1.0938 0,1.33333 -0.599,2 -1.797,2 L 59.094,-0.29688 H 59 L 46.594,0 H 46.5 c -0.938,0 -1.406,-0.36458 -1.406,-1.0938 0.541,-1.2708 1.344,-1.9374 2.406,-2 4.802,0 7.203,-1.1041 7.203,-3.3124 0,0.0729 -0.536,-5.4898 -1.609,-16.6878 H 28 l -7.594,12.797 C 19.469,-8.6302 19,-7.3958 19,-6.5938 c 0,2.0626 1.568,3.2292 4.703,3.5 1.063,0 1.594,0.3959 1.594,1.1876 C 25.297,-0.63542 24.667,0 23.406,0 L 13.797,-0.29688 H 13.406 L 5,0 H 4.7969 C 3.9323,0 3.5,-0.36458 3.5,-1.0938 3.5,-2.3021 4,-2.9375 5,-3 V -3.0938 H 5.5938 C 9.8021,-3.3646 13.24,-5.1667 15.906,-8.5 c 0.667,-0.8646 1.334,-1.865 2,-3 z m 12,-14.703 h 22.891 l -3.203,-33 z"
                           style="fill:#000000;fill-opacity:1;fill-rule:nonzero;stroke:none"
                           id="path6778" /><g
                           id="g6780"
                           transform="matrix(5.2632,0,0,5.2632,-84.211,-1010.4)"><path
                             d="m 129.12,124.45 c 0,1.65 -1.34,3 -3,3 -1.66,0 -3,-1.35 -3,-3 0,-1.66 1.34,-3 3,-3 1.66,0 3,1.34 3,3 z"
                             style="fill:#000000;fill-opacity:1;fill-rule:nonzero;stroke:none"
                             id="path6782" /><g
                             id="g6784"
                             transform="matrix(0.19,0,0,0.19,101.0002,116.9773)"><path
                               d="M 16,-7.7969 29.406,-61.5 c 0.261,-1.062 0.391,-1.698 0.391,-1.906 0,-0.792 -0.531,-1.292 -1.594,-1.5 H 28.094 28 c -0.198,0 -0.5,-0.032 -0.906,-0.094 -1.125,-0.135 -2.391,-0.203 -3.797,-0.203 -1.729,0 -2.662,-0.365 -2.797,-1.094 0,-1.198 0.5,-1.864 1.5,-2 h 0.094 0.109 1.203 H 57 c 7.667,0 13.135,2.266 16.406,6.797 1.459,2.135 2.188,4.469 2.188,7 0,5.396 -3,10.094 -9,14.094 -0.063,0 -0.125,0.036 -0.188,0.109 -3.541,2.261 -7.442,3.792 -11.703,4.594 6.802,0.802 11.469,3.469 14,8 1,1.864 1.5,3.901 1.5,6.109 0,4.865 -2.333,9.427 -7,13.6878 l -0.109,0.1093 C 57.365,-2.599 50.531,0 42.594,0 H 6.9062 C 5.2396,0 4.3385,-0.36458 4.2031,-1.0938 c 0,-1.2083 0.5,-1.875 1.5,-2 h 1.2031 c 4.3338,0 6.9328,-0.4687 7.7968,-1.4062 0.396,-0.4688 0.797,-1.401 1.203,-2.7969 0,-0.0729 0.032,-0.2396 0.094,-0.5 z M 31.094,-36.594 h 14.609 c 6.594,0 12.026,-2.401 16.297,-7.203 3,-3.406 4.5,-7.109 4.5,-11.109 0,-4.865 -2,-8.032 -6,-9.5 -1.396,-0.532 -3.031,-0.797 -4.906,-0.797 H 42.703 c -2.406,0 -3.875,0.333 -4.406,1 v 0 0.109 H 38.203 V -64 c -0.271,0.396 -0.573,1.26 -0.906,2.594 z m -4.5,33.5002 h 13.609 c 6.396,0 11.693,-2.401 15.891,-7.2032 3.208,-3.739 4.812,-7.875 4.812,-12.406 0,-4.865 -1.734,-8.297 -5.203,-10.297 -1.739,-0.938 -3.838,-1.406 -6.297,-1.406 H 30.5 L 23.594,-6.5 c -0.334,1.1979 -0.5,1.9635 -0.5,2.2969 0,0.5312 0.302,0.8646 0.906,1 v 0 0 h 0.406 c 0.396,0.0729 1.125,0.1093 2.188,0.1093 z"
                               style="fill:#000000;fill-opacity:1;fill-rule:nonzero;stroke:none"
                               id="path6786" /><g
                               id="g6788"
                               transform="matrix(5.2632,0,0,5.2632,-531.58,-615.67)"><path
                                 d="m 184.28,69.292 c 0,1.657 -1.35,3 -3,3 -1.66,0 -3,-1.343 -3,-3 0,-1.657 1.34,-3 3,-3 1.65,0 3,1.343 3,3 z"
                                 style="fill:#000000;fill-opacity:1;fill-rule:nonzero;stroke:none"
                                 id="path6790" /><g
                                 id="g6792"
                                 transform="matrix(0.19,0,0,0.19,171.9994,57.9766)"><path
                                   d="M 76,-69.5 69.703,-44 c -0.333,1.198 -0.667,1.833 -1,1.906 L 68.594,-42 h -0.688 c -1,0 -1.5,-0.333 -1.5,-1 l 0.297,-4.906 v -0.188 c 0,-8.271 -2.599,-13.974 -7.797,-17.109 l -0.109,-0.094 c -2.333,-1.406 -5.068,-2.109 -8.203,-2.109 -7.063,0 -13.761,2.635 -20.094,7.906 -1.604,1.271 -3.036,2.672 -4.297,4.203 -6.333,7.396 -10.234,16.797 -11.703,28.203 -0.271,2.063 -0.406,3.86 -0.406,5.391 0,9.333 3.536,15.6353 10.609,18.9061 2.729,1.2604 5.729,1.89065 9,1.89065 6.261,0 12.391,-2.43225 18.391,-7.29685 C 56.76,-12.13 60.13,-17.396 62.203,-24 c 0.136,-0.667 0.568,-1 1.297,-1 0.802,0 1.203,0.333 1.203,1 0,1.198 -0.765,3.333 -2.297,6.406 -2.073,4.198 -4.974,7.9273 -8.703,11.1878 -6.604,5.73953 -13.807,8.6093 -21.609,8.6093 -8.532,0 -15.365,-2.93227 -20.5,-8.7969 C 7.1979,-11.594 5,-17.797 5,-25.203 c 0,-9.927 3.6354,-19.224 10.906,-27.891 6.729,-8.073 14.693,-13.406 23.891,-16 3.406,-0.937 6.739,-1.406 10,-1.406 7.271,0 12.807,2.969 16.609,8.906 l 7,-7.703 c 0.792,-0.802 1.292,-1.203 1.5,-1.203 0.729,0 1.094,0.333 1.094,1 z"
                                   style="fill:#000000;fill-opacity:1;fill-rule:nonzero;stroke:none"
                                   id="path6794" /><g
                                   id="g6796"
                                   transform="matrix(5.2632,0,0,5.2632,-905.26,-305.14)"><path
                                   d="m 239.43,124.45 c 0,1.65 -1.34,3 -3,3 -1.66,0 -3,-1.35 -3,-3 0,-1.66 1.34,-3 3,-3 1.66,0 3,1.34 3,3 z"
                                   style="fill:#000000;fill-opacity:1;fill-rule:nonzero;stroke:none"
                                   id="path6798" /><g
                                   id="g6800"
                                   transform="matrix(0.19,0,0,0.19,224.998,148.9771)"><path
                                   d="m 15.906,-7.7969 v 0 L 29.297,-61.5 c 0.271,-1.062 0.406,-1.698 0.406,-1.906 0,-0.792 -0.536,-1.292 -1.609,-1.5 H 28 v 0 C 27.865,-64.969 27.698,-65 27.5,-65 c -1.604,-0.135 -3.036,-0.203 -4.297,-0.203 -1.739,0 -2.672,-0.266 -2.797,-0.797 -0.073,-0.135 -0.109,-0.271 -0.109,-0.406 0,-1.125 0.568,-1.755 1.703,-1.891 v 0 h 1.297 33.609 c 8.667,0 15.13,3.365 19.391,10.094 2.739,4.271 4.109,9.338 4.109,15.203 0,9.667 -3.37,18.698 -10.109,27.094 C 63.901,-8.1042 56.37,-3.1354 47.703,-1 45.099,-0.33333 42.5,0 39.906,0 H 6.7969 C 5.1302,0 4.2292,-0.26562 4.0938,-0.79688 4.0312,-0.86979 4,-1.0052 4,-1.2031 4,-2.3385 4.5312,-2.9688 5.5938,-3.0938 h 1.2031 c 4.3331,0 6.9321,-0.4687 7.7971,-1.4062 0.406,-0.4688 0.807,-1.401 1.203,-2.7969 0,-0.0729 0.036,-0.2396 0.109,-0.5 z M 37.5,-61.406 23.797,-6.5 c -0.333,1.1979 -0.5,1.9635 -0.5,2.2969 0,0.5312 0.302,0.8646 0.906,1 v 0 0 h 0.391 c 0.406,0.0729 1.14,0.1093 2.203,0.1093 h 11.297 c 8.271,0 15.406,-3.1041 21.406,-9.3122 0.604,-0.667 1.172,-1.334 1.703,-2 5.333,-6.927 8.698,-15.99 10.094,-27.188 0.271,-2.073 0.406,-3.776 0.406,-5.109 0,-8.927 -3.5,-14.662 -10.5,-17.203 -2.271,-0.865 -4.807,-1.297 -7.609,-1.297 H 42.906 c -2.406,0 -3.875,0.333 -4.406,1 v 0 0.109 H 38.406 V -64 c -0.271,0.396 -0.573,1.26 -0.906,2.594 z"
                                   style="fill:#000000;fill-opacity:1;fill-rule:nonzero;stroke:none"
                                   id="path6802" /><g
                                   id="g6804"
                                   transform="matrix(5.2632,0,0,5.2632,-1184.2,-784.09)"><path
                                   d="m 18.811,124.45 c 0,1.65 -1.343,3 -3,3 -1.657,0 -3,-1.35 -3,-3 0,-1.66 1.343,-3 3,-3 1.657,0 3,1.34 3,3 z"
                                   style="fill:#000000;fill-opacity:1;fill-rule:nonzero;stroke:none"
                                   id="path6806" /><g
                                   id="g6808"
                                   transform="matrix(0.19,0,0,0.19,6.99998,111.2355)"><path
                                   d="m 66.094,-23 h -54.5 c -2.1252,0 -3.2242,-0.667 -3.2971,-2 0,-1.333 1.0989,-2 3.2971,-2 h 54.5 c 2.135,0 3.239,0.667 3.312,2 0,1.333 -1.104,2 -3.312,2 z"
                                   style="fill:#000000;fill-opacity:1;fill-rule:nonzero;stroke:none"
                                   id="path6810" /><g
                                   id="g6812"
                                   transform="translate(77.798)"><path
                                   d="m 44.906,-17.406 v 0 L 42.094,0 H 5 c 0,-1.6667 0.1979,-2.7344 0.5938,-3.2031 l 0.5,-0.5 19.2032,-21.3909 c 7,-7.875 10.5,-15.245 10.5,-22.109 0,-5.927 -1.797,-10.427 -5.391,-13.5 l -0.109,-0.094 h -0.094 c -2.135,-1.802 -4.734,-2.703 -7.797,-2.703 -4.802,0 -8.635,2.068 -11.5,6.203 -0.802,1.198 -1.4685,2.531 -1.9998,4 0.198,-0.073 0.6303,-0.109 1.2968,-0.109 2.667,0 4.365,1.203 5.094,3.609 v 0.094 c 0.135,0.469 0.203,0.969 0.203,1.5 0,2.667 -1.266,4.37 -3.797,5.109 -0.531,0.125 -1,0.188 -1.406,0.188 -2.4689,0 -4.0991,-1.032 -4.8908,-3.094 C 5.1354,-46.729 5,-47.562 5,-48.5 c 0,-5.135 1.9688,-9.536 5.906,-13.203 3.532,-3.261 7.797,-4.891 12.797,-4.891 7.333,0 13.031,2.464 17.094,7.391 2.333,2.864 3.667,6.265 4,10.203 0.073,0.604 0.109,1.203 0.109,1.797 0,4.864 -1.833,9.5 -5.5,13.906 -1.937,2.261 -4.937,5.261 -9,9 l -6.109,5.391 -1,0.906 -10.594,10.2969 h 18 c 5.865,0 9.031,-0.2657 9.5,-0.7969 0.667,-0.9375 1.401,-3.906 2.203,-8.906 z"
                                   style="fill:#000000;fill-opacity:1;fill-rule:nonzero;stroke:none"
                                   id="path6814" /><g
                                   id="g6816"
                                   transform="matrix(5.2632,0,0,5.2632,-114.64,-585.45)"><path
                                   d="m 184.28,124.45 c 0,1.65 -1.35,3 -3,3 -1.66,0 -3,-1.35 -3,-3 0,-1.66 1.34,-3 3,-3 1.65,0 3,1.34 3,3 z"
                                   style="fill:#000000;fill-opacity:1;fill-rule:nonzero;stroke:none"
                                   id="path6818" /><g
                                   id="g6820"
                                   transform="matrix(0.19,0,0,0.19,176.0008,150.2368)"><path
                                   d="m 29.406,-64 v 56.0938 c 0,2 0.396,3.2708 1.188,3.8124 1.135,0.6667 3.838,1 8.109,1 h 3.203 V 0 C 39.573,-0.19792 34.172,-0.29688 25.703,-0.29688 17.234,-0.29688 11.833,-0.19792 9.5,0 v -3.0938 h 3.203 c 5.136,0 8.068,-0.6041 8.797,-1.8124 L 21.594,-5 C 21.865,-5.5312 22,-6.5 22,-7.9062 V -59.703 c -3.469,1.739 -7.833,2.609 -13.0938,2.609 v -3.109 c 7.9998,0 14.0628,-2.13 18.1878,-6.391 1.271,0 2.005,0.229 2.203,0.688 v 0 0.109 c 0.073,0.198 0.109,0.797 0.109,1.797 z"
                                   style="fill:#000000;fill-opacity:1;fill-rule:nonzero;stroke:none"
                                   id="path6822" /><g
                                   id="g6824"
                                   transform="matrix(5.2632,0,0,5.2632,-926.32,-790.72)"><path
                                   d="m 129.12,69.292 c 0,1.657 -1.34,3 -3,3 -1.66,0 -3,-1.343 -3,-3 0,-1.657 1.34,-3 3,-3 1.66,0 3,1.343 3,3 z"
                                   style="fill:#000000;fill-opacity:1;fill-rule:nonzero;stroke:none"
                                   id="path6826" /><g
                                   id="g6828"
                                   transform="matrix(0.19,0,0,0.19,107.0004,72.2361)"><path
                                   d="m 29.406,-64 v 56.0938 c 0,2 0.396,3.2708 1.188,3.8124 1.135,0.6667 3.838,1 8.109,1 h 3.203 V 0 C 39.573,-0.19792 34.172,-0.29688 25.703,-0.29688 17.234,-0.29688 11.833,-0.19792 9.5,0 v -3.0938 h 3.203 c 5.136,0 8.068,-0.6041 8.797,-1.8124 L 21.594,-5 C 21.865,-5.5312 22,-6.5 22,-7.9062 V -59.703 c -3.469,1.739 -7.833,2.609 -13.0938,2.609 v -3.109 c 7.9998,0 14.0628,-2.13 18.1878,-6.391 1.271,0 2.005,0.229 2.203,0.688 v 0 0.109 c 0.073,0.198 0.109,0.797 0.109,1.797 z"
                                   style="fill:#000000;fill-opacity:1;fill-rule:nonzero;stroke:none"
                                   id="path6830" /><g
                                   id="g6832"
                                   transform="matrix(5.2632,0,0,5.2632,-563.16,-380.19)"><g
                                   id="g6834"
                                   transform="scale(19)"><g
                                   id="g6836"
                                   transform="matrix(0.01,0,0,0.01,2.5263,2.4868)"><path
                                   d="m 36.703,-40 v 0 l -6,31.7031 c -0.604,4.1354 -1.807,8.86982 -3.609,14.2031 -0.667,1.9271 -1.334,3.5573 -2,4.8908 -2.334,4.937 -5.229,8.005 -8.688,9.203 -0.875,0.333 -1.745,0.5 -2.609,0.5 -3.333,0 -5.797,-1.135 -7.3908,-3.406 -0.7395,-1 -1.1093,-2.167 -1.1093,-3.5 0,-2.667 1.1354,-4.5002 3.4062,-5.5002 0.6667,-0.3334 1.3649,-0.5 2.0939,-0.5 1.937,0 3.141,0.8333 3.609,2.5002 0.063,0.333 0.094,0.666 0.094,1 0,2.271 -1,3.875 -3,4.812 -0.729,0.334 -1.5625,0.532 -2.5,0.594 1.271,1.198 2.87,1.797 4.797,1.797 2.937,0 5.239,-3.266 6.906,-9.797 0.333,-1.5312 0.735,-3.5312 1.203,-6 L 22.5,-0.5 30,-40 h -6.594 c -1.666,0 -2.567,-0.266 -2.703,-0.797 h -0.109 v -0.406 c 0,-1.136 0.567,-1.766 1.703,-1.891 v 0 h 1.297 6.906 c 1.604,-8.333 2.703,-13.567 3.297,-15.703 2,-6.667 5.536,-10.5 10.609,-11.5 0.729,-0.135 1.427,-0.203 2.094,-0.203 3.469,0 6,1.135 7.594,3.406 v 0 c 0.739,1 1.109,2.167 1.109,3.5 0,2.667 -1.135,4.5 -3.406,5.5 -0.667,0.334 -1.365,0.5 -2.094,0.5 -1.937,0 -3.141,-0.833 -3.609,-2.5 -0.063,-0.333 -0.094,-0.666 -0.094,-1 0,-2.073 0.932,-3.609 2.797,-4.609 0.739,-0.469 1.609,-0.735 2.609,-0.797 -1.271,-1.198 -2.906,-1.797 -4.906,-1.797 -2.062,0 -3.63,1.13 -4.703,3.391 -0.469,0.937 -1.266,4.406 -2.391,10.406 l -2.109,11.406 h 8.297 c 1.666,0 2.567,0.365 2.703,1.094 0,1.198 -0.531,1.865 -1.594,2 h -0.109 -1.297 z"
                                   style="fill:#0000ff;fill-opacity:1;fill-rule:nonzero;stroke:none"
                                   id="path6838" /><g
                                   id="g6840"
                                   transform="translate(59.8)"><path
                                   d="m 33.094,24 v 0 c 0,0.667 -0.334,1 -1,1 -0.792,0 -2.558,-1.365 -5.297,-4.094 C 22.661,16.771 19.229,11.87 16.5,6.2031 12.104,-2.8698 9.9062,-13.271 9.9062,-25 c 0,-11.271 2.0988,-21.438 6.2968,-30.5 3.469,-7.396 7.87,-13.328 13.203,-17.797 1.396,-1.135 2.292,-1.703 2.688,-1.703 0.666,0 1,0.333 1,1 0,0.333 -0.433,0.901 -1.297,1.703 C 21.068,-61.37 15.703,-45.604 15.703,-25 c 0,20.5312 5.235,36.13 15.703,46.797 1.125,1.135 1.688,1.87 1.688,2.203 z"
                                   style="fill:#0000ff;fill-opacity:1;fill-rule:nonzero;stroke:none"
                                   id="path6842" /><g
                                   id="g6844"
                                   transform="translate(38.9)"><path
                                   d="M 33.406,-30.203 30,-16.5 c -1.135,4.531 -1.703,7.4635 -1.703,8.7969 0,3.4687 1.234,5.5677 3.703,6.2969 0.531,0.2083 1.13,0.3124 1.797,0.3124 3.333,0 6.37,-1.6666 9.109,-5 1.792,-2.1354 3.188,-4.8382 4.188,-8.1092 0.208,-0.729 0.646,-1.094 1.312,-1.094 0.792,0 1.188,0.333 1.188,1 0,1.667 -1.032,4.068 -3.094,7.2032 -3.604,5.4584 -7.906,8.1876 -12.906,8.1876 -4.532,0 -7.828,-1.89588 -9.891,-5.6876 -0.406,-0.6041 -0.708,-1.2395 -0.906,-1.9062 -1.594,3.1979 -3.792,5.4323 -6.594,6.70312 -1.271,0.59376 -2.573,0.89068 -3.906,0.89068 -4.0001,0 -6.797,-1.166717 -8.3908,-3.5 -0.6666,-0.8646 -1,-1.8959 -1,-3.0938 0,-2.4688 1.0626,-4.2031 3.1876,-5.203 0.7395,-0.396 1.5104,-0.594 2.3124,-0.594 1.9998,0 3.1978,0.833 3.5938,2.5001 0.062,0.3334 0.094,0.6667 0.094,1 0,2.2604 -1.13,3.9271 -3.3909,5 -0.4062,0.1979 -0.8385,0.3281 -1.2969,0.3907 1.3959,0.875 3.0628,1.3124 4.9998,1.3124 3.532,0 6.328,-2.3697 8.391,-7.1093 0.406,-1 0.776,-2.0989 1.109,-3.2969 3.594,-13.604 5.391,-21.536 5.391,-23.797 -0.396,-4.135 -2.193,-6.37 -5.391,-6.703 -3.468,0 -6.635,1.766 -9.5,5.297 v 0.109 c 0,0.063 -0.036,0.094 -0.109,0.094 -1,1.333 -1.901,2.865 -2.7032,4.594 -0.3334,0.802 -0.6303,1.604 -0.8907,2.406 L 8.5,-28.906 c -0.1354,0.739 -0.5677,1.109 -1.2969,1.109 -0.8021,0 -1.2031,-0.333 -1.2031,-1 0,-1.667 1.0677,-4.068 3.2031,-7.203 3.5939,-5.469 7.8909,-8.203 12.8909,-8.203 5.135,0 8.739,2.536 10.812,7.609 2.125,-4.135 4.959,-6.604 8.5,-7.406 0.667,-0.135 1.334,-0.203 2,-0.203 3.927,0 6.693,1.099 8.297,3.297 0.667,0.937 1,2.041 1,3.312 0,2.729 -1.234,4.563 -3.703,5.5 -0.604,0.198 -1.172,0.297 -1.703,0.297 -2.063,0 -3.297,-0.901 -3.703,-2.703 -0.063,-0.271 -0.094,-0.536 -0.094,-0.797 0,-2 0.969,-3.568 2.906,-4.703 0.594,-0.333 1.224,-0.568 1.891,-0.703 -1.396,-0.865 -3.063,-1.297 -5,-1.297 -4.531,0 -7.729,3.531 -9.594,10.594 -0.135,0.406 -0.234,0.807 -0.297,1.203 z"
                                   style="fill:#0000ff;fill-opacity:1;fill-rule:nonzero;stroke:none"
                                   id="path6846" /><g
                                   id="g6848"
                                   transform="translate(57.2)"><path
                                   d="m 28.906,-25 v 0 c 0,11.271 -2.104,21.4375 -6.312,30.5 C 19.135,12.896 14.74,18.828 9.4062,23.297 8,24.432 7.099,25 6.7031,25 c -0.6666,0 -1,-0.333 -1,-1 C 5.7031,23.667 6.1354,23.099 7,22.297 17.729,11.37 23.094,-4.3958 23.094,-25 c 0,-20.333 -5,-35.734 -15.0002,-46.203 l -0.5,-0.5 C 6.3333,-72.901 5.7031,-73.667 5.7031,-74 c 0,-0.667 0.3334,-1 1,-1 0.8021,0 2.5677,1.365 5.2969,4.094 4.135,4.135 7.568,9.036 10.297,14.703 4.406,9.073 6.609,19.474 6.609,31.203 z"
                                   style="fill:#0000ff;fill-opacity:1;fill-rule:nonzero;stroke:none"
                                   id="path6850" /><g
                                   id="g6852"
                                   transform="matrix(5.2632,0,0,5.2632,-408.53,-248.68)" /></g></g></g></g></g></g></g></g></g></g></g></g></g></g></g></g></g></g></g></g></g></g></g><g
                   id="g6854"
                   transform="scale(0.56693)" /></g></g></g></g></g></g></g></svg>
