<?xml version="1.0" encoding="UTF-8" standalone="no"?>
<svg
   xmlns:dc="http://purl.org/dc/elements/1.1/"
   xmlns:cc="http://creativecommons.org/ns#"
   xmlns:rdf="http://www.w3.org/1999/02/22-rdf-syntax-ns#"
   xmlns:svg="http://www.w3.org/2000/svg"
   xmlns="http://www.w3.org/2000/svg"
   xmlns:sodipodi="http://sodipodi.sourceforge.net/DTD/sodipodi-0.dtd"
   xmlns:inkscape="http://www.inkscape.org/namespaces/inkscape"
   version="1.1"
   id="svg8230"
   xml:space="preserve"
   width="197.33333"
   height="164"
   viewBox="0 0 197.33333 164"
   sodipodi:docname="2020-1220-0930-crop.pdf"><metadata
     id="metadata8236"><rdf:RDF><cc:Work
         rdf:about=""><dc:format>image/svg+xml</dc:format><dc:type
           rdf:resource="http://purl.org/dc/dcmitype/StillImage" /></cc:Work></rdf:RDF></metadata><defs
     id="defs8234"><clipPath
       clipPathUnits="userSpaceOnUse"
       id="clipPath8248"><path
         d="M 0,0 H 194 V 162 H 0 Z"
         id="path8246" /></clipPath><clipPath
       clipPathUnits="userSpaceOnUse"
       id="clipPath8258"><path
         d="M 0,0 H 194 V 162 H 0 Z"
         id="path8256" /></clipPath><clipPath
       clipPathUnits="userSpaceOnUse"
       id="clipPath8270"><path
         d="M 0,0 V 162 H 194 V 0 Z"
         id="path8268" /></clipPath><clipPath
       clipPathUnits="userSpaceOnUse"
       id="clipPath8280"><path
         d="M 0,0 H 343 V 287 H 0 Z"
         id="path8278" /></clipPath></defs><sodipodi:namedview
     pagecolor="#ffffff"
     bordercolor="#666666"
     borderopacity="1"
     objecttolerance="10"
     gridtolerance="10"
     guidetolerance="10"
     inkscape:pageopacity="0"
     inkscape:pageshadow="2"
     inkscape:window-width="640"
     inkscape:window-height="480"
     id="namedview8232" /><g
     id="g8238"
     inkscape:groupmode="layer"
     inkscape:label="2020-1220-0930-crop"
     transform="matrix(1.3333333,0,0,-1.3333333,0,164)"><g
       id="g8240"
       transform="translate(-23,-19)"><g
         id="g8242"><g
           id="g8244"
           clip-path="url(#clipPath8248)"><g
             id="g8250"
             transform="matrix(0.75309,0,0,-0.75309,23.951,142)"><g
               id="g8252"><g
                 id="g8254"
                 clip-path="url(#clipPath8258)"><g
                   id="g8260"><g
                     id="g8262" /></g><g
                   id="g8264"><g
                     id="g8266"
                     clip-path="url(#clipPath8270)"><g
                       id="g8272"
                       transform="scale(0.56693)" /></g></g><g
                   id="g8274"
                   transform="scale(0.56693)"><g
                     id="g8276"
                     clip-path="url(#clipPath8280)"><path
                       d="M 0,0 H 343 V 287 H 0 Z"
                       style="fill:#ffffff;fill-opacity:1;fill-rule:nonzero;stroke:none"
                       id="path8282" /><path
                       d="M 172.79,2 V 287"
                       style="fill:none;stroke:#000000;stroke-width:1;stroke-linecap:butt;stroke-linejoin:miter;stroke-miterlimit:10;stroke-dasharray:none;stroke-opacity:1"
                       id="path8284" /><path
                       d="m 172.79,1 -4,4"
                       style="fill:none;stroke:#000000;stroke-width:1;stroke-linecap:butt;stroke-linejoin:miter;stroke-miterlimit:10;stroke-dasharray:none;stroke-opacity:1"
                       id="path8286" /><path
                       d="m 172.79,1 4,4"
                       style="fill:none;stroke:#000000;stroke-width:1;stroke-linecap:butt;stroke-linejoin:miter;stroke-miterlimit:10;stroke-dasharray:none;stroke-opacity:1"
                       id="path8288" /><path
                       d="m 325.12,131 3.04,-4.31 -2.82,-3.99 h 1.77 l 1.27,1.94 c 0.23,0.38 0.43,0.69 0.57,0.94 0.23,-0.35 0.45,-0.65 0.64,-0.92 l 1.39,-1.96 h 1.69 l -2.87,3.91 3.09,4.39 h -1.73 l -1.71,-2.58 -0.45,-0.7 -2.17,3.28 z"
                       style="fill:#000000;fill-opacity:1;fill-rule:nonzero;stroke:none"
                       id="path8290" /><path
                       d="M 0,135.71 H 341"
                       style="fill:none;stroke:#000000;stroke-width:1;stroke-linecap:butt;stroke-linejoin:miter;stroke-miterlimit:10;stroke-dasharray:none;stroke-opacity:1"
                       id="path8292" /><path
                       d="m 342,135.71 -4,-4"
                       style="fill:none;stroke:#000000;stroke-width:1;stroke-linecap:butt;stroke-linejoin:miter;stroke-miterlimit:10;stroke-dasharray:none;stroke-opacity:1"
                       id="path8294" /><path
                       d="m 342,135.71 -4,4"
                       style="fill:none;stroke:#000000;stroke-width:1;stroke-linecap:butt;stroke-linejoin:miter;stroke-miterlimit:10;stroke-dasharray:none;stroke-opacity:1"
                       id="path8296" /><path
                       d="m 178,24.203 -0.16,-1.328 c 0.31,0.083 0.57,0.125 0.8,0.125 0.31,0 0.56,-0.052 0.75,-0.156 0.19,-0.104 0.34,-0.25 0.47,-0.438 0.08,-0.135 0.22,-0.484 0.42,-1.047 0.03,-0.073 0.07,-0.187 0.13,-0.343 l -3.14,-8.313 h 1.51 l 1.72,4.797 c 0.23,0.615 0.43,1.255 0.61,1.922 0.16,-0.646 0.35,-1.276 0.58,-1.891 l 1.76,-4.828 h 1.41 l -3.16,8.438 c -0.33,0.916 -0.59,1.547 -0.78,1.89 -0.25,0.459 -0.53,0.797 -0.86,1.016 -0.32,0.219 -0.71,0.328 -1.15,0.328 -0.27,0 -0.58,-0.057 -0.91,-0.172 z"
                       style="fill:#000000;fill-opacity:1;fill-rule:nonzero;stroke:none"
                       id="path8298" /><path
                       d="M 172.79,135.71 280.32,73.625"
                       style="fill:none;stroke:#0000ff;stroke-width:2;stroke-linecap:round;stroke-linejoin:round;stroke-miterlimit:10;stroke-dasharray:none;stroke-opacity:1"
                       id="path8300" /><path
                       d="M 172.79,135.71 234.87,28.179"
                       style="fill:none;stroke:#0000ff;stroke-width:2;stroke-linecap:round;stroke-linejoin:round;stroke-miterlimit:10;stroke-dasharray:none;stroke-opacity:1"
                       id="path8302" /><path
                       d="M 172.79,135.71 110.71,28.179"
                       style="fill:none;stroke:#0000ff;stroke-width:2;stroke-linecap:round;stroke-linejoin:round;stroke-miterlimit:10;stroke-dasharray:none;stroke-opacity:1"
                       id="path8304" /><path
                       d="M 172.79,135.71 65.26,73.625"
                       style="fill:none;stroke:#0000ff;stroke-width:2;stroke-linecap:round;stroke-linejoin:round;stroke-miterlimit:10;stroke-dasharray:none;stroke-opacity:1"
                       id="path8306" /><path
                       d="M 172.79,135.71 65.26,197.79"
                       style="fill:none;stroke:#0000ff;stroke-width:2;stroke-linecap:round;stroke-linejoin:round;stroke-miterlimit:10;stroke-dasharray:none;stroke-opacity:1"
                       id="path8308" /><path
                       d="M 172.79,135.71 110.71,243.23"
                       style="fill:none;stroke:#0000ff;stroke-width:2;stroke-linecap:round;stroke-linejoin:round;stroke-miterlimit:10;stroke-dasharray:none;stroke-opacity:1"
                       id="path8310" /><path
                       d="m 172.79,135.71 62.08,107.52"
                       style="fill:none;stroke:#0000ff;stroke-width:2;stroke-linecap:round;stroke-linejoin:round;stroke-miterlimit:10;stroke-dasharray:none;stroke-opacity:1"
                       id="path8312" /><path
                       d="m 172.79,135.71 107.53,62.08"
                       style="fill:none;stroke:#0000ff;stroke-width:2;stroke-linecap:round;stroke-linejoin:round;stroke-miterlimit:10;stroke-dasharray:none;stroke-opacity:1"
                       id="path8314" /><path
                       d="m 175.79,135.71 c 0,1.65 -1.35,3 -3,3 -1.66,0 -3,-1.35 -3,-3 0,-1.66 1.34,-3 3,-3 1.65,0 3,1.34 3,3 z"
                       style="fill:#000000;fill-opacity:1;fill-rule:nonzero;stroke:none"
                       id="path8316" /><g
                       id="g8318"
                       transform="scale(19)"><g
                         id="g8320"
                         transform="matrix(0.01,0,0,0.01,13.947,5.3707)"><path
                           d="m 29,-35.203 v 0 c 6.667,1.333 11.469,4.599 14.406,9.797 1.532,2.604 2.297,5.375 2.297,8.312 0,5.667 -2.333,10.4325 -7,14.2971 -4.073,3.33336 -8.838,5 -14.297,5 C 17.802,2.2031 12.5,0.23438 8.5,-3.7031 5.6354,-6.5052 4.2031,-9.7708 4.2031,-13.5 c 0,-3.135 1.4011,-5 4.2031,-5.594 0.4584,-0.135 0.9219,-0.203 1.3907,-0.203 2.5311,0 4.2341,1.068 5.1091,3.203 0.261,0.865 0.427,1.662 0.5,2.391 0,2.667 -1.203,4.4009 -3.609,5.203 -0.927,0.3333 -1.9272,0.4323 -3.0001,0.2969 2.4691,4.1354 6.7341,6.6041 12.7971,7.40622 0.875,0.13542 1.708,0.20313 2.5,0.20313 4.271,0 7.406,-2.10415 9.406,-6.31245 1.271,-2.6667 1.906,-6.0628 1.906,-10.1878 0,-8.875 -2.666,-14.208 -8,-16 -1.208,-0.406 -2.51,-0.609 -3.906,-0.609 h -4.406 c -1.459,0 -2.255,-0.365 -2.391,-1.094 0,-0.667 0.5,-1.068 1.5,-1.203 1,0 2.297,-0.099 3.891,-0.297 3.406,-0.135 6.073,-1.437 8,-3.906 v -0.094 l 0.109,-0.109 0.094,-0.094 h 0.109 l 0.594,-1 c 1.865,-3.135 2.797,-6.938 2.797,-11.406 0,-6.198 -2.401,-9.828 -7.203,-10.891 -0.792,-0.198 -1.589,-0.297 -2.391,-0.297 -4.667,0 -8.469,1.334 -11.406,4 -0.729,0.667 -1.359,1.396 -1.891,2.188 4.125,0 6.188,1.666 6.188,5 0,2.406 -1.032,4.01 -3.094,4.812 -0.604,0.198 -1.271,0.297 -2,0.297 -2.6042,0 -4.2396,-1.167 -4.9062,-3.5 v 0 -0.109 C 6.9688,-51.938 6.9062,-52.469 6.9062,-53 c 0,-4.469 2.198,-8.036 6.5938,-10.703 3.198,-1.927 6.896,-2.891 11.094,-2.891 6.073,0 10.974,1.797 14.703,5.391 L 39.5,-61 c 2.333,2.396 3.5,5.13 3.5,8.203 0,5.531 -2.365,10.162 -7.094,13.891 -2.073,1.604 -4.375,2.838 -6.906,3.703 z"
                           style="fill:#ff0000;fill-opacity:1;fill-rule:nonzero;stroke:none"
                           id="path8322" /><g
                           id="g8324"
                           transform="translate(50)"><path
                             d="m 46,-32 c 0,9.729 -1.234,17.26 -3.703,22.5938 C 38.37,-1.9375 32.573,1.9323 24.906,2.2031 18.833,2.2031 13.964,-0.19792 10.297,-5 9.5677,-5.8646 8.9375,-6.8333 8.4062,-7.9062 c -3,-5.5318 -4.5,-13.5628 -4.5,-24.0938 0,-9.802 1.2292,-17.37 3.6876,-22.703 3.3332,-7.469 8.7342,-11.432 16.2032,-11.891 H 25 c 5.938,0 10.771,2.365 14.5,7.094 v 0.094 c 0.938,1.208 1.771,2.541 2.5,4 2.667,5.666 4,13.468 4,23.406 z M 24.906,0 v 0 c 4.198,0 7.427,-2.0312 9.688,-6.0938 0.937,-1.802 1.604,-3.9372 2,-6.4062 0.739,-4.271 1.109,-11.172 1.109,-20.703 0,-9.261 -0.333,-15.761 -1,-19.5 -1.198,-6.333 -4.265,-10.13 -9.203,-11.391 -0.865,-0.208 -1.729,-0.312 -2.594,-0.312 -4.666,0 -8.067,2.333 -10.203,7 -0.739,1.604 -1.307,3.541 -1.703,5.812 -0.531,3.594 -0.797,9.724 -0.797,18.391 0,10.073 0.365,17.109 1.094,21.109 1.198,6.3961 4.13,10.2919 8.797,11.68775 C 23.031,-0.13542 23.969,0 24.906,0 Z"
                             style="fill:#ff0000;fill-opacity:1;fill-rule:nonzero;stroke:none"
                             id="path8326" /><g
                             id="g8328"
                             transform="matrix(0.7,0,0,0.7,50,-41.29)"><path
                               d="m 44.297,-25 v 0 c 0,5.938 -2.235,10.839 -6.703,14.703 -3.667,3.1355 -7.896,4.7032 -12.688,4.7032 -5.875,0 -10.745,-2.2708 -14.609,-6.8122 C 7.1615,-16.073 5.5938,-20.271 5.5938,-25 c 0,-5.938 2.2343,-10.839 6.7032,-14.703 3.667,-3.136 7.901,-4.703 12.703,-4.703 5.865,0 10.729,2.271 14.594,6.812 3.135,3.667 4.703,7.865 4.703,12.594 z M 25,-9.5938 v 0 c 5,0 9.031,-2.0002 12.094,-6.0002 2.135,-2.802 3.203,-5.937 3.203,-9.406 0,-5.062 -2,-9.13 -6,-12.203 -2.729,-2.136 -5.828,-3.203 -9.297,-3.203 -5.135,0 -9.271,2.067 -12.406,6.203 -2,2.739 -3.0002,5.807 -3.0002,9.203 0,5 1.9682,9.031 5.9062,12.094 2.802,2.208 5.969,3.3122 9.5,3.3122 z"
                               style="fill:#ff0000;fill-opacity:1;fill-rule:nonzero;stroke:none"
                               id="path8330" /><g
                               id="g8332"
                               transform="matrix(1.4286,0,0,1.4286,93.45886,59.008202)"><path
                                 d="M 68.703,-32.703 H 9 c -2.1354,0 -3.2708,-0.667 -3.4062,-2 0,-1.333 1.1041,-2 3.3124,-2 H 68.797 c 2.135,0 3.234,0.667 3.297,2 0,1.333 -1.13,2 -3.391,2 z m 0.094,19.406 H 8.9062 c -2.1354,0 -3.2395,-0.667 -3.3124,-2 0,-1.333 1.1354,-2 3.4062,-2 h 59.703 c 2.136,0 3.266,0.667 3.391,2 0,1.333 -1.099,2 -3.297,2 z"
                                 style="fill:#ff0000;fill-opacity:1;fill-rule:nonzero;stroke:none"
                                 id="path8334" /><g
                                 id="g8336"
                                 transform="translate(111.9,-67.65)"><path
                                   d="m 26.5,-37.297 v 0 l -5.594,22.094 c -1.135,4.271 -2.036,7.5363 -2.703,9.7968 -1.073,3.2708 -2.073,5.23953 -3,5.9062 v 0.09375 c -0.604,0.33333 -1.271,0.50005 -2,0.50005 -1.531,0 -2.463,-0.66672 -2.797,-2.00005 C 10.333,-1.1042 10.297,-1.3333 10.297,-1.5938 10.297,-2.1979 10.562,-3 11.094,-4 17.365,-17.531 21.635,-28.63 23.906,-37.297 h -5.703 c -5.198,0 -9.4322,2.568 -12.703,7.703 -0.6042,0.792 -1.1354,1.188 -1.5938,1.188 -0.802,0 -1.2031,-0.334 -1.2031,-1 0,-0.729 1.1979,-2.729 3.5938,-6 0.4687,-0.532 0.901,-1.063 1.2969,-1.594 0.2083,-0.271 0.4427,-0.536 0.7031,-0.797 0.1354,-0.198 0.3021,-0.401 0.5,-0.609 2.9371,-3.125 6.4061,-4.688 10.4061,-4.688 h 33.5 c 2.261,0 3.557,0.5 3.891,1.5 v 0.094 c 0.073,0.198 0.109,0.464 0.109,0.797 0,2.271 -1.635,3.406 -4.906,3.406 H 40.406 c -1.208,5.667 -1.812,10.964 -1.812,15.891 0,6.208 0.968,11.7081 2.906,16.4998 0.396,0.9374 0.594,1.6718 0.594,2.2031 0,1.5312 -0.834,2.666642 -2.5,3.40622 C 39.062,0.96354 38.531,1.0938 38,1.0938 c -1.333,0 -2.333,-0.93234 -3,-2.7969 -0.198,-0.5938 -0.396,-1.3281 -0.594,-2.2031 -0.541,-2.2605 -0.812,-4.7917 -0.812,-7.5938 0,-4.396 0.901,-10.76 2.703,-19.094 l 1.5,-6.703 z"
                                   style="fill:#ff0000;fill-opacity:1;fill-rule:nonzero;stroke:none"
                                   id="path8338" /><g
                                   id="g8340"
                                   transform="matrix(100,0,0,100,-1672,-469.42)"><path
                                   d="m 16.72,5.1007 h 0.606 v 0.04 H 16.72 Z"
                                   style="fill:#ff0000;fill-opacity:1;fill-rule:nonzero;stroke:none"
                                   id="path8342" /><g
                                   id="g8344"
                                   transform="matrix(0.01,0,0,0.01,16.773,6.0566)"><path
                                   d="m 13.203,-32.797 v 0 c 2.729,-6.604 6.896,-9.906 12.5,-9.906 6.136,0 11.167,2.536 15.094,7.609 2.198,2.729 3.667,5.927 4.406,9.594 0.333,1.667 0.5,3.365 0.5,5.094 0,7.406 -2.568,13.3435 -7.703,17.8122 -3.729,3.19797 -8.031,4.7969 -12.906,4.7969 -6.792,0 -12.089,-3.2343 -15.8909,-9.7031 -3.3333,-5.802 -5,-13.833 -5,-24.094 0,-11.541 3.2657,-20.708 9.7969,-27.5 4.865,-5 10.365,-7.5 16.5,-7.5 5.802,0 9.703,2.032 11.703,6.094 0.667,1.396 1,2.964 1,4.703 0,2.667 -1.234,4.235 -3.703,4.703 -0.333,0.063 -0.635,0.094 -0.906,0.094 -2.125,0 -3.558,-0.932 -4.297,-2.797 -0.198,-0.531 -0.297,-1.13 -0.297,-1.797 0,-3 1.833,-4.5 5.5,-4.5 -1.729,-2.666 -4.661,-4 -8.797,-4 -4.667,0 -8.599,2.099 -11.797,6.297 -3.802,5 -5.703,12.531 -5.703,22.594 z m 11.891,32.20325 v 0 c 4.468,0 7.771,-2.16665 9.906,-6.50005 1.135,-2.4062 1.703,-6.8752 1.703,-13.4062 0,-6.667 -0.599,-11.234 -1.797,-13.703 -2.073,-4.136 -5.177,-6.203 -9.312,-6.203 -5.261,0 -8.891,3.135 -10.891,9.406 -0.864,2.604 -1.297,5.406 -1.297,8.406 0,6.532 0.599,11.365 1.797,14.5002 1.261,3.0626 3.224,5.2605 5.891,6.5938 1.271,0.60417 2.604,0.90625 4,0.90625 z"
                                   style="fill:#ff0000;fill-opacity:1;fill-rule:nonzero;stroke:none"
                                   id="path8346" /><g
                                   id="g8348"
                                   transform="matrix(1.000008,0,0,1.000008,-645.69175,805.35129)"><path
                                   d="m 29,-35.203 v 0 c 6.667,1.333 11.469,4.599 14.406,9.797 1.532,2.604 2.297,5.375 2.297,8.312 0,5.667 -2.333,10.4325 -7,14.2971 -4.073,3.33336 -8.838,5 -14.297,5 C 17.802,2.2031 12.5,0.23438 8.5,-3.7031 5.6354,-6.5052 4.2031,-9.7708 4.2031,-13.5 c 0,-3.135 1.4011,-5 4.2031,-5.594 0.4584,-0.135 0.9219,-0.203 1.3907,-0.203 2.5311,0 4.2341,1.068 5.1091,3.203 0.261,0.865 0.427,1.662 0.5,2.391 0,2.667 -1.203,4.4009 -3.609,5.203 -0.927,0.3333 -1.9272,0.4323 -3.0001,0.2969 2.4691,4.1354 6.7341,6.6041 12.7971,7.40622 0.875,0.13542 1.708,0.20313 2.5,0.20313 4.271,0 7.406,-2.10415 9.406,-6.31245 1.271,-2.6667 1.906,-6.0628 1.906,-10.1878 0,-8.875 -2.666,-14.208 -8,-16 -1.208,-0.406 -2.51,-0.609 -3.906,-0.609 h -4.406 c -1.459,0 -2.255,-0.365 -2.391,-1.094 0,-0.667 0.5,-1.068 1.5,-1.203 1,0 2.297,-0.099 3.891,-0.297 3.406,-0.135 6.073,-1.437 8,-3.906 v -0.094 l 0.109,-0.109 0.094,-0.094 h 0.109 l 0.594,-1 c 1.865,-3.135 2.797,-6.938 2.797,-11.406 0,-6.198 -2.401,-9.828 -7.203,-10.891 -0.792,-0.198 -1.589,-0.297 -2.391,-0.297 -4.667,0 -8.469,1.334 -11.406,4 -0.729,0.667 -1.359,1.396 -1.891,2.188 4.125,0 6.188,1.666 6.188,5 0,2.406 -1.032,4.01 -3.094,4.812 -0.604,0.198 -1.271,0.297 -2,0.297 -2.6042,0 -4.2396,-1.167 -4.9062,-3.5 v 0 -0.109 C 6.9688,-51.938 6.9062,-52.469 6.9062,-53 c 0,-4.469 2.198,-8.036 6.5938,-10.703 3.198,-1.927 6.896,-2.891 11.094,-2.891 6.073,0 10.974,1.797 14.703,5.391 L 39.5,-61 c 2.333,2.396 3.5,5.13 3.5,8.203 0,5.531 -2.365,10.162 -7.094,13.891 -2.073,1.604 -4.375,2.838 -6.906,3.703 z"
                                   style="fill:#ff0000;fill-opacity:1;fill-rule:nonzero;stroke:none"
                                   id="path8350" /><g
                                   id="g8352"
                                   transform="translate(50)"><path
                                   d="m 46,-32 c 0,9.729 -1.234,17.26 -3.703,22.5938 C 38.37,-1.9375 32.573,1.9323 24.906,2.2031 18.833,2.2031 13.964,-0.19792 10.297,-5 9.5677,-5.8646 8.9375,-6.8333 8.4062,-7.9062 c -3,-5.5318 -4.5,-13.5628 -4.5,-24.0938 0,-9.802 1.2292,-17.37 3.6876,-22.703 3.3332,-7.469 8.7342,-11.432 16.2032,-11.891 H 25 c 5.938,0 10.771,2.365 14.5,7.094 v 0.094 c 0.938,1.208 1.771,2.541 2.5,4 2.667,5.666 4,13.468 4,23.406 z M 24.906,0 v 0 c 4.198,0 7.427,-2.0312 9.688,-6.0938 0.937,-1.802 1.604,-3.9372 2,-6.4062 0.739,-4.271 1.109,-11.172 1.109,-20.703 0,-9.261 -0.333,-15.761 -1,-19.5 -1.198,-6.333 -4.265,-10.13 -9.203,-11.391 -0.865,-0.208 -1.729,-0.312 -2.594,-0.312 -4.666,0 -8.067,2.333 -10.203,7 -0.739,1.604 -1.307,3.541 -1.703,5.812 -0.531,3.594 -0.797,9.724 -0.797,18.391 0,10.073 0.365,17.109 1.094,21.109 1.198,6.3961 4.13,10.2919 8.797,11.68775 C 23.031,-0.13542 23.969,0 24.906,0 Z"
                                   style="fill:#ff0000;fill-opacity:1;fill-rule:nonzero;stroke:none"
                                   id="path8354" /><g
                                   id="g8356"
                                   transform="translate(50)"><path
                                   d="m 46,-32 c 0,9.729 -1.234,17.26 -3.703,22.5938 C 38.37,-1.9375 32.573,1.9323 24.906,2.2031 18.833,2.2031 13.964,-0.19792 10.297,-5 9.5677,-5.8646 8.9375,-6.8333 8.4062,-7.9062 c -3,-5.5318 -4.5,-13.5628 -4.5,-24.0938 0,-9.802 1.2292,-17.37 3.6876,-22.703 3.3332,-7.469 8.7342,-11.432 16.2032,-11.891 H 25 c 5.938,0 10.771,2.365 14.5,7.094 v 0.094 c 0.938,1.208 1.771,2.541 2.5,4 2.667,5.666 4,13.468 4,23.406 z M 24.906,0 v 0 c 4.198,0 7.427,-2.0312 9.688,-6.0938 0.937,-1.802 1.604,-3.9372 2,-6.4062 0.739,-4.271 1.109,-11.172 1.109,-20.703 0,-9.261 -0.333,-15.761 -1,-19.5 -1.198,-6.333 -4.265,-10.13 -9.203,-11.391 -0.865,-0.208 -1.729,-0.312 -2.594,-0.312 -4.666,0 -8.067,2.333 -10.203,7 -0.739,1.604 -1.307,3.541 -1.703,5.812 -0.531,3.594 -0.797,9.724 -0.797,18.391 0,10.073 0.365,17.109 1.094,21.109 1.198,6.3961 4.13,10.2919 8.797,11.68775 C 23.031,-0.13542 23.969,0 24.906,0 Z"
                                   style="fill:#ff0000;fill-opacity:1;fill-rule:nonzero;stroke:none"
                                   id="path8358" /><g
                                   id="g8360"
                                   transform="matrix(0.7,0,0,0.7,50,-41.3)"><path
                                   d="m 44.297,-25 v 0 c 0,5.938 -2.235,10.839 -6.703,14.703 -3.667,3.1355 -7.896,4.7032 -12.688,4.7032 -5.875,0 -10.745,-2.2708 -14.609,-6.8122 C 7.1615,-16.073 5.5938,-20.271 5.5938,-25 c 0,-5.938 2.2343,-10.839 6.7032,-14.703 3.667,-3.136 7.901,-4.703 12.703,-4.703 5.865,0 10.729,2.271 14.594,6.812 3.135,3.667 4.703,7.865 4.703,12.594 z M 25,-9.5938 v 0 c 5,0 9.031,-2.0002 12.094,-6.0002 2.135,-2.802 3.203,-5.937 3.203,-9.406 0,-5.062 -2,-9.13 -6,-12.203 -2.729,-2.136 -5.828,-3.203 -9.297,-3.203 -5.135,0 -9.271,2.067 -12.406,6.203 -2,2.739 -3.0002,5.807 -3.0002,9.203 0,5 1.9682,9.031 5.9062,12.094 2.802,2.208 5.969,3.3122 9.5,3.3122 z"
                                   style="fill:#ff0000;fill-opacity:1;fill-rule:nonzero;stroke:none"
                                   id="path8362" /><g
                                   id="g8364"
                                   transform="matrix(1.4286,0,0,1.4286,93.4642,59.0546)"><path
                                   d="M 68.703,-32.703 H 9 c -2.1354,0 -3.2708,-0.667 -3.4062,-2 0,-1.333 1.1041,-2 3.3124,-2 H 68.797 c 2.135,0 3.234,0.667 3.297,2 0,1.333 -1.13,2 -3.391,2 z m 0.094,19.406 H 8.9062 c -2.1354,0 -3.2395,-0.667 -3.3124,-2 0,-1.333 1.1354,-2 3.4062,-2 h 59.703 c 2.136,0 3.266,0.667 3.391,2 0,1.333 -1.099,2 -3.297,2 z"
                                   style="fill:#ff0000;fill-opacity:1;fill-rule:nonzero;stroke:none"
                                   id="path8366" /><g
                                   id="g8368"
                                   transform="translate(111.8,-67.7)"><path
                                   d="m 44.906,-20.094 v 0 c 0,6.865 -2.567,12.5315 -7.703,17.0002 C 33.068,0.4375 28.365,2.2031 23.094,2.2031 16.969,2.2031 12.104,-0.36458 8.5,-5.5 6.1667,-8.7708 5,-12.302 5,-16.094 c 0,-3.073 1.3646,-4.807 4.0938,-5.203 0.2708,-0.073 0.5416,-0.109 0.8124,-0.109 2.4588,0 4.0578,1.104 4.7968,3.312 0.136,0.532 0.203,1.063 0.203,1.594 0,2.135 -0.937,3.604 -2.812,4.406 -0.667,0.334 -1.396,0.5 -2.1878,0.5 -0.7395,0 -1.3072,-0.067 -1.7031,-0.203 1.1979,4.198 3.7659,7.3282 7.7029,9.3908 2.198,1.2083 4.532,1.81245 7,1.81245 4.459,0 8.021,-2.16665 10.688,-6.50005 C 35.198,-9.8958 36,-14.464 36,-20.797 c 0,-5.604 -0.599,-9.807 -1.797,-12.609 -1.864,-4.261 -4.698,-6.391 -8.5,-6.391 -5.406,0 -9.708,2.333 -12.906,7 -0.396,0.594 -0.828,0.891 -1.297,0.891 -0.865,0 -1.333,-0.464 -1.406,-1.391 V -34.5 -64.094 c 0,-1.541 0.333,-2.344 1,-2.406 0.271,0 0.672,0.099 1.203,0.297 4.198,1.864 8.63,2.797 13.297,2.797 4.802,0 9.338,-0.964 13.609,-2.891 0.333,-0.198 0.599,-0.297 0.797,-0.297 0.667,0 1,0.365 1,1.094 0,0.865 -1.068,2.266 -3.203,4.203 -4.531,4.136 -9.896,6.203 -16.094,6.203 -2.802,0 -5.635,-0.437 -8.5,-1.312 v 19.5 C 16.672,-40.302 20.906,-42 25.906,-42 c 5.865,0 10.698,2.568 14.5,7.703 3,4.063 4.5,8.797 4.5,14.203 z"
                                   style="fill:#ff0000;fill-opacity:1;fill-rule:nonzero;stroke:none"
                                   id="path8370" /><g
                                   id="g8372"
                                   transform="translate(50)"><path
                                   d="m 26.5,-37.297 v 0 l -5.594,22.094 c -1.135,4.271 -2.036,7.5363 -2.703,9.7968 -1.073,3.2708 -2.073,5.23953 -3,5.9062 v 0.09375 c -0.604,0.33333 -1.271,0.50005 -2,0.50005 -1.531,0 -2.463,-0.66672 -2.797,-2.00005 C 10.333,-1.1042 10.297,-1.3333 10.297,-1.5938 10.297,-2.1979 10.562,-3 11.094,-4 17.365,-17.531 21.635,-28.63 23.906,-37.297 h -5.703 c -5.198,0 -9.4322,2.568 -12.703,7.703 -0.6042,0.792 -1.1354,1.188 -1.5938,1.188 -0.802,0 -1.2031,-0.334 -1.2031,-1 0,-0.729 1.1979,-2.729 3.5938,-6 0.4687,-0.532 0.901,-1.063 1.2969,-1.594 0.2083,-0.271 0.4427,-0.536 0.7031,-0.797 0.1354,-0.198 0.3021,-0.401 0.5,-0.609 2.9371,-3.125 6.4061,-4.688 10.4061,-4.688 h 33.5 c 2.261,0 3.557,0.5 3.891,1.5 v 0.094 c 0.073,0.198 0.109,0.464 0.109,0.797 0,2.271 -1.635,3.406 -4.906,3.406 H 40.406 c -1.208,5.667 -1.812,10.964 -1.812,15.891 0,6.208 0.968,11.7081 2.906,16.4998 0.396,0.9374 0.594,1.6718 0.594,2.2031 0,1.5312 -0.834,2.666642 -2.5,3.40622 C 39.062,0.96354 38.531,1.0938 38,1.0938 c -1.333,0 -2.333,-0.93234 -3,-2.7969 -0.198,-0.5938 -0.396,-1.3281 -0.594,-2.2031 -0.541,-2.2605 -0.812,-4.7917 -0.812,-7.5938 0,-4.396 0.901,-10.76 2.703,-19.094 l 1.5,-6.703 z"
                                   style="fill:#ff0000;fill-opacity:1;fill-rule:nonzero;stroke:none"
                                   id="path8374" /><g
                                   id="g8376"
                                   transform="matrix(100,0,0,100,-1408.8,-1343.3)"><path
                                   d="m 13.588,13.84 h 1.106 v 0.04 h -1.106 z"
                                   style="fill:#ff0000;fill-opacity:1;fill-rule:nonzero;stroke:none"
                                   id="path8378" /><g
                                   id="g8380"
                                   transform="matrix(0.01,0,0,0.01,13.891,14.796)"><path
                                   d="m 29,-35.203 v 0 c 6.667,1.333 11.469,4.599 14.406,9.797 1.532,2.604 2.297,5.375 2.297,8.312 0,5.667 -2.333,10.4325 -7,14.2971 -4.073,3.33336 -8.838,5 -14.297,5 C 17.802,2.2031 12.5,0.23438 8.5,-3.7031 5.6354,-6.5052 4.2031,-9.7708 4.2031,-13.5 c 0,-3.135 1.4011,-5 4.2031,-5.594 0.4584,-0.135 0.9219,-0.203 1.3907,-0.203 2.5311,0 4.2341,1.068 5.1091,3.203 0.261,0.865 0.427,1.662 0.5,2.391 0,2.667 -1.203,4.4009 -3.609,5.203 -0.927,0.3333 -1.9272,0.4323 -3.0001,0.2969 2.4691,4.1354 6.7341,6.6041 12.7971,7.40622 0.875,0.13542 1.708,0.20313 2.5,0.20313 4.271,0 7.406,-2.10415 9.406,-6.31245 1.271,-2.6667 1.906,-6.0628 1.906,-10.1878 0,-8.875 -2.666,-14.208 -8,-16 -1.208,-0.406 -2.51,-0.609 -3.906,-0.609 h -4.406 c -1.459,0 -2.255,-0.365 -2.391,-1.094 0,-0.667 0.5,-1.068 1.5,-1.203 1,0 2.297,-0.099 3.891,-0.297 3.406,-0.135 6.073,-1.437 8,-3.906 v -0.094 l 0.109,-0.109 0.094,-0.094 h 0.109 l 0.594,-1 c 1.865,-3.135 2.797,-6.938 2.797,-11.406 0,-6.198 -2.401,-9.828 -7.203,-10.891 -0.792,-0.198 -1.589,-0.297 -2.391,-0.297 -4.667,0 -8.469,1.334 -11.406,4 -0.729,0.667 -1.359,1.396 -1.891,2.188 4.125,0 6.188,1.666 6.188,5 0,2.406 -1.032,4.01 -3.094,4.812 -0.604,0.198 -1.271,0.297 -2,0.297 -2.6042,0 -4.2396,-1.167 -4.9062,-3.5 v 0 -0.109 C 6.9688,-51.938 6.9062,-52.469 6.9062,-53 c 0,-4.469 2.198,-8.036 6.5938,-10.703 3.198,-1.927 6.896,-2.891 11.094,-2.891 6.073,0 10.974,1.797 14.703,5.391 L 39.5,-61 c 2.333,2.396 3.5,5.13 3.5,8.203 0,5.531 -2.365,10.162 -7.094,13.891 -2.073,1.604 -4.375,2.838 -6.906,3.703 z"
                                   style="fill:#ff0000;fill-opacity:1;fill-rule:nonzero;stroke:none"
                                   id="path8382" /><g
                                   id="g8384"
                                   transform="matrix(1.000008,0,0,1.000008,-1041.7272,-68.588712)"><path
                                   d="m 44.906,-17.406 v 0 L 42.094,0 H 5 c 0,-1.6667 0.1979,-2.7344 0.5938,-3.2031 l 0.5,-0.5 19.2032,-21.3909 c 7,-7.875 10.5,-15.245 10.5,-22.109 0,-5.927 -1.797,-10.427 -5.391,-13.5 l -0.109,-0.094 h -0.094 c -2.135,-1.802 -4.734,-2.703 -7.797,-2.703 -4.802,0 -8.635,2.068 -11.5,6.203 -0.802,1.198 -1.4685,2.531 -1.9998,4 0.198,-0.073 0.6303,-0.109 1.2968,-0.109 2.667,0 4.365,1.203 5.094,3.609 v 0.094 c 0.135,0.469 0.203,0.969 0.203,1.5 0,2.667 -1.266,4.37 -3.797,5.109 -0.531,0.125 -1,0.188 -1.406,0.188 -2.4689,0 -4.0991,-1.032 -4.8908,-3.094 C 5.1354,-46.729 5,-47.562 5,-48.5 c 0,-5.135 1.9688,-9.536 5.906,-13.203 3.532,-3.261 7.797,-4.891 12.797,-4.891 7.333,0 13.031,2.464 17.094,7.391 2.333,2.864 3.667,6.265 4,10.203 0.073,0.604 0.109,1.203 0.109,1.797 0,4.864 -1.833,9.5 -5.5,13.906 -1.937,2.261 -4.937,5.261 -9,9 l -6.109,5.391 -1,0.906 -10.594,10.2969 h 18 c 5.865,0 9.031,-0.2657 9.5,-0.7969 0.667,-0.9375 1.401,-3.906 2.203,-8.906 z"
                                   style="fill:#ff0000;fill-opacity:1;fill-rule:nonzero;stroke:none"
                                   id="path8386" /><g
                                   id="g8388"
                                   transform="translate(50)"><path
                                   d="m 2.7969,-16.5 v -3.094 L 33.5,-66.5 c 0.531,-0.802 1.198,-1.203 2,-1.203 0.938,0 1.469,0.37 1.594,1.109 v 1.5 45.5 h 10 v 3.094 h -10 v 8.7031 c 0,2.0625 0.401,3.3281 1.203,3.7969 0.937,0.6042 3.073,0.9062 6.406,0.9062 h 2.094 V 0 c -2.729,-0.19792 -7.261,-0.29688 -13.594,-0.29688 -6.271,0 -10.771,0.09896 -13.5,0.29688 v -3.0938 h 2.094 c 4.135,0 6.536,-0.5677 7.203,-1.7031 0.271,-0.4687 0.406,-1.4687 0.406,-3 V -16.5 Z M 30,-19.594 V -56.906 L 5.5938,-19.594 Z"
                                   style="fill:#ff0000;fill-opacity:1;fill-rule:nonzero;stroke:none"
                                   id="path8390" /><g
                                   id="g8392"
                                   transform="translate(50)"><path
                                   d="m 46,-32 c 0,9.729 -1.234,17.26 -3.703,22.5938 C 38.37,-1.9375 32.573,1.9323 24.906,2.2031 18.833,2.2031 13.964,-0.19792 10.297,-5 9.5677,-5.8646 8.9375,-6.8333 8.4062,-7.9062 c -3,-5.5318 -4.5,-13.5628 -4.5,-24.0938 0,-9.802 1.2292,-17.37 3.6876,-22.703 3.3332,-7.469 8.7342,-11.432 16.2032,-11.891 H 25 c 5.938,0 10.771,2.365 14.5,7.094 v 0.094 c 0.938,1.208 1.771,2.541 2.5,4 2.667,5.666 4,13.468 4,23.406 z M 24.906,0 v 0 c 4.198,0 7.427,-2.0312 9.688,-6.0938 0.937,-1.802 1.604,-3.9372 2,-6.4062 0.739,-4.271 1.109,-11.172 1.109,-20.703 0,-9.261 -0.333,-15.761 -1,-19.5 -1.198,-6.333 -4.265,-10.13 -9.203,-11.391 -0.865,-0.208 -1.729,-0.312 -2.594,-0.312 -4.666,0 -8.067,2.333 -10.203,7 -0.739,1.604 -1.307,3.541 -1.703,5.812 -0.531,3.594 -0.797,9.724 -0.797,18.391 0,10.073 0.365,17.109 1.094,21.109 1.198,6.3961 4.13,10.2919 8.797,11.68775 C 23.031,-0.13542 23.969,0 24.906,0 Z"
                                   style="fill:#ff0000;fill-opacity:1;fill-rule:nonzero;stroke:none"
                                   id="path8394" /><g
                                   id="g8396"
                                   transform="matrix(0.7,0,0,0.7,50,-41.3)"><path
                                   d="m 44.297,-25 v 0 c 0,5.938 -2.235,10.839 -6.703,14.703 -3.667,3.1355 -7.896,4.7032 -12.688,4.7032 -5.875,0 -10.745,-2.2708 -14.609,-6.8122 C 7.1615,-16.073 5.5938,-20.271 5.5938,-25 c 0,-5.938 2.2343,-10.839 6.7032,-14.703 3.667,-3.136 7.901,-4.703 12.703,-4.703 5.865,0 10.729,2.271 14.594,6.812 3.135,3.667 4.703,7.865 4.703,12.594 z M 25,-9.5938 v 0 c 5,0 9.031,-2.0002 12.094,-6.0002 2.135,-2.802 3.203,-5.937 3.203,-9.406 0,-5.062 -2,-9.13 -6,-12.203 -2.729,-2.136 -5.828,-3.203 -9.297,-3.203 -5.135,0 -9.271,2.067 -12.406,6.203 -2,2.739 -3.0002,5.807 -3.0002,9.203 0,5 1.9682,9.031 5.9062,12.094 2.802,2.208 5.969,3.3122 9.5,3.3122 z"
                                   style="fill:#ff0000;fill-opacity:1;fill-rule:nonzero;stroke:none"
                                   id="path8398" /><g
                                   id="g8400"
                                   transform="matrix(1.4286,0,0,1.4286,93.443222,59.0546)"><path
                                   d="M 68.703,-32.703 H 9 c -2.1354,0 -3.2708,-0.667 -3.4062,-2 0,-1.333 1.1041,-2 3.3124,-2 H 68.797 c 2.135,0 3.234,0.667 3.297,2 0,1.333 -1.13,2 -3.391,2 z m 0.094,19.406 H 8.9062 c -2.1354,0 -3.2395,-0.667 -3.3124,-2 0,-1.333 1.1354,-2 3.4062,-2 h 59.703 c 2.136,0 3.266,0.667 3.391,2 0,1.333 -1.099,2 -3.297,2 z"
                                   style="fill:#ff0000;fill-opacity:1;fill-rule:nonzero;stroke:none"
                                   id="path8402" /><g
                                   id="g8404"
                                   transform="translate(111.87,-67.7)"><path
                                   d="m 2.7969,-16.5 v -3.094 L 33.5,-66.5 c 0.531,-0.802 1.198,-1.203 2,-1.203 0.938,0 1.469,0.37 1.594,1.109 v 1.5 45.5 h 10 v 3.094 h -10 v 8.7031 c 0,2.0625 0.401,3.3281 1.203,3.7969 0.937,0.6042 3.073,0.9062 6.406,0.9062 h 2.094 V 0 c -2.729,-0.19792 -7.261,-0.29688 -13.594,-0.29688 -6.271,0 -10.771,0.09896 -13.5,0.29688 v -3.0938 h 2.094 c 4.135,0 6.536,-0.5677 7.203,-1.7031 0.271,-0.4687 0.406,-1.4687 0.406,-3 V -16.5 Z M 30,-19.594 V -56.906 L 5.5938,-19.594 Z"
                                   style="fill:#ff0000;fill-opacity:1;fill-rule:nonzero;stroke:none"
                                   id="path8406" /><g
                                   id="g8408"
                                   transform="translate(50)"><path
                                   d="m 26.5,-37.297 v 0 l -5.594,22.094 c -1.135,4.271 -2.036,7.5363 -2.703,9.7968 -1.073,3.2708 -2.073,5.23953 -3,5.9062 v 0.09375 c -0.604,0.33333 -1.271,0.50005 -2,0.50005 -1.531,0 -2.463,-0.66672 -2.797,-2.00005 C 10.333,-1.1042 10.297,-1.3333 10.297,-1.5938 10.297,-2.1979 10.562,-3 11.094,-4 17.365,-17.531 21.635,-28.63 23.906,-37.297 h -5.703 c -5.198,0 -9.4322,2.568 -12.703,7.703 -0.6042,0.792 -1.1354,1.188 -1.5938,1.188 -0.802,0 -1.2031,-0.334 -1.2031,-1 0,-0.729 1.1979,-2.729 3.5938,-6 0.4687,-0.532 0.901,-1.063 1.2969,-1.594 0.2083,-0.271 0.4427,-0.536 0.7031,-0.797 0.1354,-0.198 0.3021,-0.401 0.5,-0.609 2.9371,-3.125 6.4061,-4.688 10.4061,-4.688 h 33.5 c 2.261,0 3.557,0.5 3.891,1.5 v 0.094 c 0.073,0.198 0.109,0.464 0.109,0.797 0,2.271 -1.635,3.406 -4.906,3.406 H 40.406 c -1.208,5.667 -1.812,10.964 -1.812,15.891 0,6.208 0.968,11.7081 2.906,16.4998 0.396,0.9374 0.594,1.6718 0.594,2.2031 0,1.5312 -0.834,2.666642 -2.5,3.40622 C 39.062,0.96354 38.531,1.0938 38,1.0938 c -1.333,0 -2.333,-0.93234 -3,-2.7969 -0.198,-0.5938 -0.396,-1.3281 -0.594,-2.2031 -0.541,-2.2605 -0.812,-4.7917 -0.812,-7.5938 0,-4.396 0.901,-10.76 2.703,-19.094 l 1.5,-6.703 z"
                                   style="fill:#ff0000;fill-opacity:1;fill-rule:nonzero;stroke:none"
                                   id="path8410" /><g
                                   id="g8412"
                                   transform="matrix(100,0,0,100,-724.64,-1343.3)"><path
                                   d="m 6.7464,13.84 h 1.106 v 0.04 h -1.106 z"
                                   style="fill:#ff0000;fill-opacity:1;fill-rule:nonzero;stroke:none"
                                   id="path8414" /><g
                                   id="g8416"
                                   transform="matrix(0.01,0,0,0.01,7.0494,14.796)"><path
                                   d="m 29,-35.203 v 0 c 6.667,1.333 11.469,4.599 14.406,9.797 1.532,2.604 2.297,5.375 2.297,8.312 0,5.667 -2.333,10.4325 -7,14.2971 -4.073,3.33336 -8.838,5 -14.297,5 C 17.802,2.2031 12.5,0.23438 8.5,-3.7031 5.6354,-6.5052 4.2031,-9.7708 4.2031,-13.5 c 0,-3.135 1.4011,-5 4.2031,-5.594 0.4584,-0.135 0.9219,-0.203 1.3907,-0.203 2.5311,0 4.2341,1.068 5.1091,3.203 0.261,0.865 0.427,1.662 0.5,2.391 0,2.667 -1.203,4.4009 -3.609,5.203 -0.927,0.3333 -1.9272,0.4323 -3.0001,0.2969 2.4691,4.1354 6.7341,6.6041 12.7971,7.40622 0.875,0.13542 1.708,0.20313 2.5,0.20313 4.271,0 7.406,-2.10415 9.406,-6.31245 1.271,-2.6667 1.906,-6.0628 1.906,-10.1878 0,-8.875 -2.666,-14.208 -8,-16 -1.208,-0.406 -2.51,-0.609 -3.906,-0.609 h -4.406 c -1.459,0 -2.255,-0.365 -2.391,-1.094 0,-0.667 0.5,-1.068 1.5,-1.203 1,0 2.297,-0.099 3.891,-0.297 3.406,-0.135 6.073,-1.437 8,-3.906 v -0.094 l 0.109,-0.109 0.094,-0.094 h 0.109 l 0.594,-1 c 1.865,-3.135 2.797,-6.938 2.797,-11.406 0,-6.198 -2.401,-9.828 -7.203,-10.891 -0.792,-0.198 -1.589,-0.297 -2.391,-0.297 -4.667,0 -8.469,1.334 -11.406,4 -0.729,0.667 -1.359,1.396 -1.891,2.188 4.125,0 6.188,1.666 6.188,5 0,2.406 -1.032,4.01 -3.094,4.812 -0.604,0.198 -1.271,0.297 -2,0.297 -2.6042,0 -4.2396,-1.167 -4.9062,-3.5 v 0 -0.109 C 6.9688,-51.938 6.9062,-52.469 6.9062,-53 c 0,-4.469 2.198,-8.036 6.5938,-10.703 3.198,-1.927 6.896,-2.891 11.094,-2.891 6.073,0 10.974,1.797 14.703,5.391 L 39.5,-61 c 2.333,2.396 3.5,5.13 3.5,8.203 0,5.531 -2.365,10.162 -7.094,13.891 -2.073,1.604 -4.375,2.838 -6.906,3.703 z"
                                   style="fill:#ff0000;fill-opacity:1;fill-rule:nonzero;stroke:none"
                                   id="path8418" /><g
                                   id="g8420"
                                   transform="matrix(1.000008,0,0,1.000008,-610.20224,-305.39061)"><path
                                   d="m 44.906,-17.406 v 0 L 42.094,0 H 5 c 0,-1.6667 0.1979,-2.7344 0.5938,-3.2031 l 0.5,-0.5 19.2032,-21.3909 c 7,-7.875 10.5,-15.245 10.5,-22.109 0,-5.927 -1.797,-10.427 -5.391,-13.5 l -0.109,-0.094 h -0.094 c -2.135,-1.802 -4.734,-2.703 -7.797,-2.703 -4.802,0 -8.635,2.068 -11.5,6.203 -0.802,1.198 -1.4685,2.531 -1.9998,4 0.198,-0.073 0.6303,-0.109 1.2968,-0.109 2.667,0 4.365,1.203 5.094,3.609 v 0.094 c 0.135,0.469 0.203,0.969 0.203,1.5 0,2.667 -1.266,4.37 -3.797,5.109 -0.531,0.125 -1,0.188 -1.406,0.188 -2.4689,0 -4.0991,-1.032 -4.8908,-3.094 C 5.1354,-46.729 5,-47.562 5,-48.5 c 0,-5.135 1.9688,-9.536 5.906,-13.203 3.532,-3.261 7.797,-4.891 12.797,-4.891 7.333,0 13.031,2.464 17.094,7.391 2.333,2.864 3.667,6.265 4,10.203 0.073,0.604 0.109,1.203 0.109,1.797 0,4.864 -1.833,9.5 -5.5,13.906 -1.937,2.261 -4.937,5.261 -9,9 l -6.109,5.391 -1,0.906 -10.594,10.2969 h 18 c 5.865,0 9.031,-0.2657 9.5,-0.7969 0.667,-0.9375 1.401,-3.906 2.203,-8.906 z"
                                   style="fill:#ff0000;fill-opacity:1;fill-rule:nonzero;stroke:none"
                                   id="path8422" /><g
                                   id="g8424"
                                   transform="translate(50.003)"><path
                                   d="m 29.406,-64 v 56.0938 c 0,2 0.396,3.2708 1.188,3.8124 1.135,0.6667 3.838,1 8.109,1 h 3.203 V 0 C 39.573,-0.19792 34.172,-0.29688 25.703,-0.29688 17.234,-0.29688 11.833,-0.19792 9.5,0 v -3.0938 h 3.203 c 5.136,0 8.068,-0.6041 8.797,-1.8124 L 21.594,-5 C 21.865,-5.5312 22,-6.5 22,-7.9062 V -59.703 c -3.469,1.739 -7.833,2.609 -13.0938,2.609 v -3.109 c 7.9998,0 14.0628,-2.13 18.1878,-6.391 1.271,0 2.005,0.229 2.203,0.688 v 0 0.109 c 0.073,0.198 0.109,0.797 0.109,1.797 z"
                                   style="fill:#ff0000;fill-opacity:1;fill-rule:nonzero;stroke:none"
                                   id="path8426" /><g
                                   id="g8428"
                                   transform="translate(50)"><path
                                   d="m 46,-32 c 0,9.729 -1.234,17.26 -3.703,22.5938 C 38.37,-1.9375 32.573,1.9323 24.906,2.2031 18.833,2.2031 13.964,-0.19792 10.297,-5 9.5677,-5.8646 8.9375,-6.8333 8.4062,-7.9062 c -3,-5.5318 -4.5,-13.5628 -4.5,-24.0938 0,-9.802 1.2292,-17.37 3.6876,-22.703 3.3332,-7.469 8.7342,-11.432 16.2032,-11.891 H 25 c 5.938,0 10.771,2.365 14.5,7.094 v 0.094 c 0.938,1.208 1.771,2.541 2.5,4 2.667,5.666 4,13.468 4,23.406 z M 24.906,0 v 0 c 4.198,0 7.427,-2.0312 9.688,-6.0938 0.937,-1.802 1.604,-3.9372 2,-6.4062 0.739,-4.271 1.109,-11.172 1.109,-20.703 0,-9.261 -0.333,-15.761 -1,-19.5 -1.198,-6.333 -4.265,-10.13 -9.203,-11.391 -0.865,-0.208 -1.729,-0.312 -2.594,-0.312 -4.666,0 -8.067,2.333 -10.203,7 -0.739,1.604 -1.307,3.541 -1.703,5.812 -0.531,3.594 -0.797,9.724 -0.797,18.391 0,10.073 0.365,17.109 1.094,21.109 1.198,6.3961 4.13,10.2919 8.797,11.68775 C 23.031,-0.13542 23.969,0 24.906,0 Z"
                                   style="fill:#ff0000;fill-opacity:1;fill-rule:nonzero;stroke:none"
                                   id="path8430" /><g
                                   id="g8432"
                                   transform="matrix(0.7,0,0,0.7,50,-41.3)"><path
                                   d="m 44.297,-25 v 0 c 0,5.938 -2.235,10.839 -6.703,14.703 -3.667,3.1355 -7.896,4.7032 -12.688,4.7032 -5.875,0 -10.745,-2.2708 -14.609,-6.8122 C 7.1615,-16.073 5.5938,-20.271 5.5938,-25 c 0,-5.938 2.2343,-10.839 6.7032,-14.703 3.667,-3.136 7.901,-4.703 12.703,-4.703 5.865,0 10.729,2.271 14.594,6.812 3.135,3.667 4.703,7.865 4.703,12.594 z M 25,-9.5938 v 0 c 5,0 9.031,-2.0002 12.094,-6.0002 2.135,-2.802 3.203,-5.937 3.203,-9.406 0,-5.062 -2,-9.13 -6,-12.203 -2.729,-2.136 -5.828,-3.203 -9.297,-3.203 -5.135,0 -9.271,2.067 -12.406,6.203 -2,2.739 -3.0002,5.807 -3.0002,9.203 0,5 1.9682,9.031 5.9062,12.094 2.802,2.208 5.969,3.3122 9.5,3.3122 z"
                                   style="fill:#ff0000;fill-opacity:1;fill-rule:nonzero;stroke:none"
                                   id="path8434" /><g
                                   id="g8436"
                                   transform="matrix(1.4286,0,0,1.4286,93.446004,59.06212)"><path
                                   d="M 68.703,-32.703 H 9 c -2.1354,0 -3.2708,-0.667 -3.4062,-2 0,-1.333 1.1041,-2 3.3124,-2 H 68.797 c 2.135,0 3.234,0.667 3.297,2 0,1.333 -1.13,2 -3.391,2 z m 0.094,19.406 H 8.9062 c -2.1354,0 -3.2395,-0.667 -3.3124,-2 0,-1.333 1.1354,-2 3.4062,-2 h 59.703 c 2.136,0 3.266,0.667 3.391,2 0,1.333 -1.099,2 -3.297,2 z"
                                   style="fill:#ff0000;fill-opacity:1;fill-rule:nonzero;stroke:none"
                                   id="path8438" /><g
                                   id="g8440"
                                   transform="translate(111.87,-67.7)"><path
                                   d="m 47.594,-60.906 -13.5,19 c -2.865,4 -4.927,9.703 -6.188,17.109 -0.739,4.927 -1.109,10.391 -1.109,16.3908 v 5.1093 c 0,3.66669 -1.531,5.5 -4.594,5.5 -3.073,0 -4.609,-1.83331 -4.609,-5.5 0,-11.1351 3.234,-22.3021 9.703,-33.5001 l 2.609,-4.109 11.188,-15.797 H 20.406 c -6.073,0 -9.344,0.203 -9.812,0.609 C 9.9271,-55.5 9.0938,-52.469 8.0938,-47 h -2.5 l 3.3124,-20.594 h 2.4998 c 0.261,1.125 0.86,1.891 1.797,2.297 h 0.094 v 0 c 1.739,0.594 5.375,0.891 10.906,0.891 H 48.5 c 0,1.541 -0.302,2.708 -0.906,3.5 z"
                                   style="fill:#ff0000;fill-opacity:1;fill-rule:nonzero;stroke:none"
                                   id="path8442" /><g
                                   id="g8444"
                                   transform="translate(50)"><path
                                   d="m 26.5,-37.297 v 0 l -5.594,22.094 c -1.135,4.271 -2.036,7.5363 -2.703,9.7968 -1.073,3.2708 -2.073,5.23953 -3,5.9062 v 0.09375 c -0.604,0.33333 -1.271,0.50005 -2,0.50005 -1.531,0 -2.463,-0.66672 -2.797,-2.00005 C 10.333,-1.1042 10.297,-1.3333 10.297,-1.5938 10.297,-2.1979 10.562,-3 11.094,-4 17.365,-17.531 21.635,-28.63 23.906,-37.297 h -5.703 c -5.198,0 -9.4322,2.568 -12.703,7.703 -0.6042,0.792 -1.1354,1.188 -1.5938,1.188 -0.802,0 -1.2031,-0.334 -1.2031,-1 0,-0.729 1.1979,-2.729 3.5938,-6 0.4687,-0.532 0.901,-1.063 1.2969,-1.594 0.2083,-0.271 0.4427,-0.536 0.7031,-0.797 0.1354,-0.198 0.3021,-0.401 0.5,-0.609 2.9371,-3.125 6.4061,-4.688 10.4061,-4.688 h 33.5 c 2.261,0 3.557,0.5 3.891,1.5 v 0.094 c 0.073,0.198 0.109,0.464 0.109,0.797 0,2.271 -1.635,3.406 -4.906,3.406 H 40.406 c -1.208,5.667 -1.812,10.964 -1.812,15.891 0,6.208 0.968,11.7081 2.906,16.4998 0.396,0.9374 0.594,1.6718 0.594,2.2031 0,1.5312 -0.834,2.666642 -2.5,3.40622 C 39.062,0.96354 38.531,1.0938 38,1.0938 c -1.333,0 -2.333,-0.93234 -3,-2.7969 -0.198,-0.5938 -0.396,-1.3281 -0.594,-2.2031 -0.541,-2.2605 -0.812,-4.7917 -0.812,-7.5938 0,-4.396 0.901,-10.76 2.703,-19.094 l 1.5,-6.703 z"
                                   style="fill:#ff0000;fill-opacity:1;fill-rule:nonzero;stroke:none"
                                   id="path8446" /><g
                                   id="g8448"
                                   transform="matrix(100,0,0,100,-472.01,-1106.5)"><path
                                   d="m 4.2201,11.472 h 1.106 v 0.04 h -1.106 z"
                                   style="fill:#ff0000;fill-opacity:1;fill-rule:nonzero;stroke:none"
                                   id="path8450" /><g
                                   id="g8452"
                                   transform="matrix(0.01,0,0,0.01,4.5231,12.428)"><path
                                   d="m 13.203,-32.797 v 0 c 2.729,-6.604 6.896,-9.906 12.5,-9.906 6.136,0 11.167,2.536 15.094,7.609 2.198,2.729 3.667,5.927 4.406,9.594 0.333,1.667 0.5,3.365 0.5,5.094 0,7.406 -2.568,13.3435 -7.703,17.8122 -3.729,3.19797 -8.031,4.7969 -12.906,4.7969 -6.792,0 -12.089,-3.2343 -15.8909,-9.7031 -3.3333,-5.802 -5,-13.833 -5,-24.094 0,-11.541 3.2657,-20.708 9.7969,-27.5 4.865,-5 10.365,-7.5 16.5,-7.5 5.802,0 9.703,2.032 11.703,6.094 0.667,1.396 1,2.964 1,4.703 0,2.667 -1.234,4.235 -3.703,4.703 -0.333,0.063 -0.635,0.094 -0.906,0.094 -2.125,0 -3.558,-0.932 -4.297,-2.797 -0.198,-0.531 -0.297,-1.13 -0.297,-1.797 0,-3 1.833,-4.5 5.5,-4.5 -1.729,-2.666 -4.661,-4 -8.797,-4 -4.667,0 -8.599,2.099 -11.797,6.297 -3.802,5 -5.703,12.531 -5.703,22.594 z m 11.891,32.20325 v 0 c 4.468,0 7.771,-2.16665 9.906,-6.50005 1.135,-2.4062 1.703,-6.8752 1.703,-13.4062 0,-6.667 -0.599,-11.234 -1.797,-13.703 -2.073,-4.136 -5.177,-6.203 -9.312,-6.203 -5.261,0 -8.891,3.135 -10.891,9.406 -0.864,2.604 -1.297,5.406 -1.297,8.406 0,6.532 0.599,11.365 1.797,14.5002 1.261,3.0626 3.224,5.2605 5.891,6.5938 1.271,0.60417 2.604,0.90625 4,0.90625 z"
                                   style="fill:#ff0000;fill-opacity:1;fill-rule:nonzero;stroke:none"
                                   id="path8454" /><g
                                   id="g8456"
                                   transform="matrix(1.000008,0,0,1.000008,-431.25683,-642.3252)"><path
                                   d="m 29.406,-64 v 56.0938 c 0,2 0.396,3.2708 1.188,3.8124 1.135,0.6667 3.838,1 8.109,1 h 3.203 V 0 C 39.573,-0.19792 34.172,-0.29688 25.703,-0.29688 17.234,-0.29688 11.833,-0.19792 9.5,0 v -3.0938 h 3.203 c 5.136,0 8.068,-0.6041 8.797,-1.8124 L 21.594,-5 C 21.865,-5.5312 22,-6.5 22,-7.9062 V -59.703 c -3.469,1.739 -7.833,2.609 -13.0938,2.609 v -3.109 c 7.9998,0 14.0628,-2.13 18.1878,-6.391 1.271,0 2.005,0.229 2.203,0.688 v 0 0.109 c 0.073,0.198 0.109,0.797 0.109,1.797 z"
                                   style="fill:#ff0000;fill-opacity:1;fill-rule:nonzero;stroke:none"
                                   id="path8458" /><g
                                   id="g8460"
                                   transform="translate(50)"><path
                                   d="m 44.906,-20.094 v 0 c 0,6.865 -2.567,12.5315 -7.703,17.0002 C 33.068,0.4375 28.365,2.2031 23.094,2.2031 16.969,2.2031 12.104,-0.36458 8.5,-5.5 6.1667,-8.7708 5,-12.302 5,-16.094 c 0,-3.073 1.3646,-4.807 4.0938,-5.203 0.2708,-0.073 0.5416,-0.109 0.8124,-0.109 2.4588,0 4.0578,1.104 4.7968,3.312 0.136,0.532 0.203,1.063 0.203,1.594 0,2.135 -0.937,3.604 -2.812,4.406 -0.667,0.334 -1.396,0.5 -2.1878,0.5 -0.7395,0 -1.3072,-0.067 -1.7031,-0.203 1.1979,4.198 3.7659,7.3282 7.7029,9.3908 2.198,1.2083 4.532,1.81245 7,1.81245 4.459,0 8.021,-2.16665 10.688,-6.50005 C 35.198,-9.8958 36,-14.464 36,-20.797 c 0,-5.604 -0.599,-9.807 -1.797,-12.609 -1.864,-4.261 -4.698,-6.391 -8.5,-6.391 -5.406,0 -9.708,2.333 -12.906,7 -0.396,0.594 -0.828,0.891 -1.297,0.891 -0.865,0 -1.333,-0.464 -1.406,-1.391 V -34.5 -64.094 c 0,-1.541 0.333,-2.344 1,-2.406 0.271,0 0.672,0.099 1.203,0.297 4.198,1.864 8.63,2.797 13.297,2.797 4.802,0 9.338,-0.964 13.609,-2.891 0.333,-0.198 0.599,-0.297 0.797,-0.297 0.667,0 1,0.365 1,1.094 0,0.865 -1.068,2.266 -3.203,4.203 -4.531,4.136 -9.896,6.203 -16.094,6.203 -2.802,0 -5.635,-0.437 -8.5,-1.312 v 19.5 C 16.672,-40.302 20.906,-42 25.906,-42 c 5.865,0 10.698,2.568 14.5,7.703 3,4.063 4.5,8.797 4.5,14.203 z"
                                   style="fill:#ff0000;fill-opacity:1;fill-rule:nonzero;stroke:none"
                                   id="path8462" /><g
                                   id="g8464"
                                   transform="translate(49.997)"><path
                                   d="m 46,-32 c 0,9.729 -1.234,17.26 -3.703,22.5938 C 38.37,-1.9375 32.573,1.9323 24.906,2.2031 18.833,2.2031 13.964,-0.19792 10.297,-5 9.5677,-5.8646 8.9375,-6.8333 8.4062,-7.9062 c -3,-5.5318 -4.5,-13.5628 -4.5,-24.0938 0,-9.802 1.2292,-17.37 3.6876,-22.703 3.3332,-7.469 8.7342,-11.432 16.2032,-11.891 H 25 c 5.938,0 10.771,2.365 14.5,7.094 v 0.094 c 0.938,1.208 1.771,2.541 2.5,4 2.667,5.666 4,13.468 4,23.406 z M 24.906,0 v 0 c 4.198,0 7.427,-2.0312 9.688,-6.0938 0.937,-1.802 1.604,-3.9372 2,-6.4062 0.739,-4.271 1.109,-11.172 1.109,-20.703 0,-9.261 -0.333,-15.761 -1,-19.5 -1.198,-6.333 -4.265,-10.13 -9.203,-11.391 -0.865,-0.208 -1.729,-0.312 -2.594,-0.312 -4.666,0 -8.067,2.333 -10.203,7 -0.739,1.604 -1.307,3.541 -1.703,5.812 -0.531,3.594 -0.797,9.724 -0.797,18.391 0,10.073 0.365,17.109 1.094,21.109 1.198,6.3961 4.13,10.2919 8.797,11.68775 C 23.031,-0.13542 23.969,0 24.906,0 Z"
                                   style="fill:#ff0000;fill-opacity:1;fill-rule:nonzero;stroke:none"
                                   id="path8466" /><g
                                   id="g8468"
                                   transform="matrix(0.7,0,0,0.7,50,-41.29)"><path
                                   d="m 44.297,-25 v 0 c 0,5.938 -2.235,10.839 -6.703,14.703 -3.667,3.1355 -7.896,4.7032 -12.688,4.7032 -5.875,0 -10.745,-2.2708 -14.609,-6.8122 C 7.1615,-16.073 5.5938,-20.271 5.5938,-25 c 0,-5.938 2.2343,-10.839 6.7032,-14.703 3.667,-3.136 7.901,-4.703 12.703,-4.703 5.865,0 10.729,2.271 14.594,6.812 3.135,3.667 4.703,7.865 4.703,12.594 z M 25,-9.5938 v 0 c 5,0 9.031,-2.0002 12.094,-6.0002 2.135,-2.802 3.203,-5.937 3.203,-9.406 0,-5.062 -2,-9.13 -6,-12.203 -2.729,-2.136 -5.828,-3.203 -9.297,-3.203 -5.135,0 -9.271,2.067 -12.406,6.203 -2,2.739 -3.0002,5.807 -3.0002,9.203 0,5 1.9682,9.031 5.9062,12.094 2.802,2.208 5.969,3.3122 9.5,3.3122 z"
                                   style="fill:#ff0000;fill-opacity:1;fill-rule:nonzero;stroke:none"
                                   id="path8470" /><g
                                   id="g8472"
                                   transform="matrix(1.4286,0,0,1.4286,93.43247,59.001442)"><path
                                   d="M 68.703,-32.703 H 9 c -2.1354,0 -3.2708,-0.667 -3.4062,-2 0,-1.333 1.1041,-2 3.3124,-2 H 68.797 c 2.135,0 3.234,0.667 3.297,2 0,1.333 -1.13,2 -3.391,2 z m 0.094,19.406 H 8.9062 c -2.1354,0 -3.2395,-0.667 -3.3124,-2 0,-1.333 1.1354,-2 3.4062,-2 h 59.703 c 2.136,0 3.266,0.667 3.391,2 0,1.333 -1.099,2 -3.297,2 z"
                                   style="fill:#ff0000;fill-opacity:1;fill-rule:nonzero;stroke:none"
                                   id="path8474" /><g
                                   id="g8476"
                                   transform="translate(111.87,-67.65)"><path
                                   d="m 44.906,-20.094 v 0 c 0,6.865 -2.567,12.5315 -7.703,17.0002 C 33.068,0.4375 28.365,2.2031 23.094,2.2031 16.969,2.2031 12.104,-0.36458 8.5,-5.5 6.1667,-8.7708 5,-12.302 5,-16.094 c 0,-3.073 1.3646,-4.807 4.0938,-5.203 0.2708,-0.073 0.5416,-0.109 0.8124,-0.109 2.4588,0 4.0578,1.104 4.7968,3.312 0.136,0.532 0.203,1.063 0.203,1.594 0,2.135 -0.937,3.604 -2.812,4.406 -0.667,0.334 -1.396,0.5 -2.1878,0.5 -0.7395,0 -1.3072,-0.067 -1.7031,-0.203 1.1979,4.198 3.7659,7.3282 7.7029,9.3908 2.198,1.2083 4.532,1.81245 7,1.81245 4.459,0 8.021,-2.16665 10.688,-6.50005 C 35.198,-9.8958 36,-14.464 36,-20.797 c 0,-5.604 -0.599,-9.807 -1.797,-12.609 -1.864,-4.261 -4.698,-6.391 -8.5,-6.391 -5.406,0 -9.708,2.333 -12.906,7 -0.396,0.594 -0.828,0.891 -1.297,0.891 -0.865,0 -1.333,-0.464 -1.406,-1.391 V -34.5 -64.094 c 0,-1.541 0.333,-2.344 1,-2.406 0.271,0 0.672,0.099 1.203,0.297 4.198,1.864 8.63,2.797 13.297,2.797 4.802,0 9.338,-0.964 13.609,-2.891 0.333,-0.198 0.599,-0.297 0.797,-0.297 0.667,0 1,0.365 1,1.094 0,0.865 -1.068,2.266 -3.203,4.203 -4.531,4.136 -9.896,6.203 -16.094,6.203 -2.802,0 -5.635,-0.437 -8.5,-1.312 v 19.5 C 16.672,-40.302 20.906,-42 25.906,-42 c 5.865,0 10.698,2.568 14.5,7.703 3,4.063 4.5,8.797 4.5,14.203 z"
                                   style="fill:#ff0000;fill-opacity:1;fill-rule:nonzero;stroke:none"
                                   id="path8478" /><g
                                   id="g8480"
                                   transform="translate(50)"><path
                                   d="m 26.5,-37.297 v 0 l -5.594,22.094 c -1.135,4.271 -2.036,7.5363 -2.703,9.7968 -1.073,3.2708 -2.073,5.23953 -3,5.9062 v 0.09375 c -0.604,0.33333 -1.271,0.50005 -2,0.50005 -1.531,0 -2.463,-0.66672 -2.797,-2.00005 C 10.333,-1.1042 10.297,-1.3333 10.297,-1.5938 10.297,-2.1979 10.562,-3 11.094,-4 17.365,-17.531 21.635,-28.63 23.906,-37.297 h -5.703 c -5.198,0 -9.4322,2.568 -12.703,7.703 -0.6042,0.792 -1.1354,1.188 -1.5938,1.188 -0.802,0 -1.2031,-0.334 -1.2031,-1 0,-0.729 1.1979,-2.729 3.5938,-6 0.4687,-0.532 0.901,-1.063 1.2969,-1.594 0.2083,-0.271 0.4427,-0.536 0.7031,-0.797 0.1354,-0.198 0.3021,-0.401 0.5,-0.609 2.9371,-3.125 6.4061,-4.688 10.4061,-4.688 h 33.5 c 2.261,0 3.557,0.5 3.891,1.5 v 0.094 c 0.073,0.198 0.109,0.464 0.109,0.797 0,2.271 -1.635,3.406 -4.906,3.406 H 40.406 c -1.208,5.667 -1.812,10.964 -1.812,15.891 0,6.208 0.968,11.7081 2.906,16.4998 0.396,0.9374 0.594,1.6718 0.594,2.2031 0,1.5312 -0.834,2.666642 -2.5,3.40622 C 39.062,0.96354 38.531,1.0938 38,1.0938 c -1.333,0 -2.333,-0.93234 -3,-2.7969 -0.198,-0.5938 -0.396,-1.3281 -0.594,-2.2031 -0.541,-2.2605 -0.812,-4.7917 -0.812,-7.5938 0,-4.396 0.901,-10.76 2.703,-19.094 l 1.5,-6.703 z"
                                   style="fill:#ff0000;fill-opacity:1;fill-rule:nonzero;stroke:none"
                                   id="path8482" /><g
                                   id="g8484"
                                   transform="matrix(100,0,0,100,-398.32,-532.82)"><path
                                   d="m 3.4832,5.7347 h 1.106 v 0.04 h -1.106 z"
                                   style="fill:#ff0000;fill-opacity:1;fill-rule:nonzero;stroke:none"
                                   id="path8486" /><g
                                   id="g8488"
                                   transform="matrix(0.01,0,0,0.01,3.7862,6.6907)"><path
                                   d="m 13.203,-32.797 v 0 c 2.729,-6.604 6.896,-9.906 12.5,-9.906 6.136,0 11.167,2.536 15.094,7.609 2.198,2.729 3.667,5.927 4.406,9.594 0.333,1.667 0.5,3.365 0.5,5.094 0,7.406 -2.568,13.3435 -7.703,17.8122 -3.729,3.19797 -8.031,4.7969 -12.906,4.7969 -6.792,0 -12.089,-3.2343 -15.8909,-9.7031 -3.3333,-5.802 -5,-13.833 -5,-24.094 0,-11.541 3.2657,-20.708 9.7969,-27.5 4.865,-5 10.365,-7.5 16.5,-7.5 5.802,0 9.703,2.032 11.703,6.094 0.667,1.396 1,2.964 1,4.703 0,2.667 -1.234,4.235 -3.703,4.703 -0.333,0.063 -0.635,0.094 -0.906,0.094 -2.125,0 -3.558,-0.932 -4.297,-2.797 -0.198,-0.531 -0.297,-1.13 -0.297,-1.797 0,-3 1.833,-4.5 5.5,-4.5 -1.729,-2.666 -4.661,-4 -8.797,-4 -4.667,0 -8.599,2.099 -11.797,6.297 -3.802,5 -5.703,12.531 -5.703,22.594 z m 11.891,32.20325 v 0 c 4.468,0 7.771,-2.16665 9.906,-6.50005 1.135,-2.4062 1.703,-6.8752 1.703,-13.4062 0,-6.667 -0.599,-11.234 -1.797,-13.703 -2.073,-4.136 -5.177,-6.203 -9.312,-6.203 -5.261,0 -8.891,3.135 -10.891,9.406 -0.864,2.604 -1.297,5.406 -1.297,8.406 0,6.532 0.599,11.365 1.797,14.5002 1.261,3.0626 3.224,5.2605 5.891,6.5938 1.271,0.60417 2.604,0.90625 4,0.90625 z"
                                   style="fill:#ff0000;fill-opacity:1;fill-rule:nonzero;stroke:none"
                                   id="path8490" /><g
                                   id="g8492"
                                   transform="matrix(1.000008,0,0,1.000008,-257.56903,-468.5984)"><path
                                   d="m 29.406,-64 v 56.0938 c 0,2 0.396,3.2708 1.188,3.8124 1.135,0.6667 3.838,1 8.109,1 h 3.203 V 0 C 39.573,-0.19792 34.172,-0.29688 25.703,-0.29688 17.234,-0.29688 11.833,-0.19792 9.5,0 v -3.0938 h 3.203 c 5.136,0 8.068,-0.6041 8.797,-1.8124 L 21.594,-5 C 21.865,-5.5312 22,-6.5 22,-7.9062 V -59.703 c -3.469,1.739 -7.833,2.609 -13.0938,2.609 v -3.109 c 7.9998,0 14.0628,-2.13 18.1878,-6.391 1.271,0 2.005,0.229 2.203,0.688 v 0 0.109 c 0.073,0.198 0.109,0.797 0.109,1.797 z"
                                   style="fill:#ff0000;fill-opacity:1;fill-rule:nonzero;stroke:none"
                                   id="path8494" /><g
                                   id="g8496"
                                   transform="translate(50)"><path
                                   d="m 44.906,-17.406 v 0 L 42.094,0 H 5 c 0,-1.6667 0.1979,-2.7344 0.5938,-3.2031 l 0.5,-0.5 19.2032,-21.3909 c 7,-7.875 10.5,-15.245 10.5,-22.109 0,-5.927 -1.797,-10.427 -5.391,-13.5 l -0.109,-0.094 h -0.094 c -2.135,-1.802 -4.734,-2.703 -7.797,-2.703 -4.802,0 -8.635,2.068 -11.5,6.203 -0.802,1.198 -1.4685,2.531 -1.9998,4 0.198,-0.073 0.6303,-0.109 1.2968,-0.109 2.667,0 4.365,1.203 5.094,3.609 v 0.094 c 0.135,0.469 0.203,0.969 0.203,1.5 0,2.667 -1.266,4.37 -3.797,5.109 -0.531,0.125 -1,0.188 -1.406,0.188 -2.4689,0 -4.0991,-1.032 -4.8908,-3.094 C 5.1354,-46.729 5,-47.562 5,-48.5 c 0,-5.135 1.9688,-9.536 5.906,-13.203 3.532,-3.261 7.797,-4.891 12.797,-4.891 7.333,0 13.031,2.464 17.094,7.391 2.333,2.864 3.667,6.265 4,10.203 0.073,0.604 0.109,1.203 0.109,1.797 0,4.864 -1.833,9.5 -5.5,13.906 -1.937,2.261 -4.937,5.261 -9,9 l -6.109,5.391 -1,0.906 -10.594,10.2969 h 18 c 5.865,0 9.031,-0.2657 9.5,-0.7969 0.667,-0.9375 1.401,-3.906 2.203,-8.906 z"
                                   style="fill:#ff0000;fill-opacity:1;fill-rule:nonzero;stroke:none"
                                   id="path8498" /><g
                                   id="g8500"
                                   transform="translate(50)"><path
                                   d="m 46,-32 c 0,9.729 -1.234,17.26 -3.703,22.5938 C 38.37,-1.9375 32.573,1.9323 24.906,2.2031 18.833,2.2031 13.964,-0.19792 10.297,-5 9.5677,-5.8646 8.9375,-6.8333 8.4062,-7.9062 c -3,-5.5318 -4.5,-13.5628 -4.5,-24.0938 0,-9.802 1.2292,-17.37 3.6876,-22.703 3.3332,-7.469 8.7342,-11.432 16.2032,-11.891 H 25 c 5.938,0 10.771,2.365 14.5,7.094 v 0.094 c 0.938,1.208 1.771,2.541 2.5,4 2.667,5.666 4,13.468 4,23.406 z M 24.906,0 v 0 c 4.198,0 7.427,-2.0312 9.688,-6.0938 0.937,-1.802 1.604,-3.9372 2,-6.4062 0.739,-4.271 1.109,-11.172 1.109,-20.703 0,-9.261 -0.333,-15.761 -1,-19.5 -1.198,-6.333 -4.265,-10.13 -9.203,-11.391 -0.865,-0.208 -1.729,-0.312 -2.594,-0.312 -4.666,0 -8.067,2.333 -10.203,7 -0.739,1.604 -1.307,3.541 -1.703,5.812 -0.531,3.594 -0.797,9.724 -0.797,18.391 0,10.073 0.365,17.109 1.094,21.109 1.198,6.3961 4.13,10.2919 8.797,11.68775 C 23.031,-0.13542 23.969,0 24.906,0 Z"
                                   style="fill:#ff0000;fill-opacity:1;fill-rule:nonzero;stroke:none"
                                   id="path8502" /><g
                                   id="g8504"
                                   transform="matrix(0.7,0,0,0.7,50,-41.29)"><path
                                   d="m 44.297,-25 v 0 c 0,5.938 -2.235,10.839 -6.703,14.703 -3.667,3.1355 -7.896,4.7032 -12.688,4.7032 -5.875,0 -10.745,-2.2708 -14.609,-6.8122 C 7.1615,-16.073 5.5938,-20.271 5.5938,-25 c 0,-5.938 2.2343,-10.839 6.7032,-14.703 3.667,-3.136 7.901,-4.703 12.703,-4.703 5.865,0 10.729,2.271 14.594,6.812 3.135,3.667 4.703,7.865 4.703,12.594 z M 25,-9.5938 v 0 c 5,0 9.031,-2.0002 12.094,-6.0002 2.135,-2.802 3.203,-5.937 3.203,-9.406 0,-5.062 -2,-9.13 -6,-12.203 -2.729,-2.136 -5.828,-3.203 -9.297,-3.203 -5.135,0 -9.271,2.067 -12.406,6.203 -2,2.739 -3.0002,5.807 -3.0002,9.203 0,5 1.9682,9.031 5.9062,12.094 2.802,2.208 5.969,3.3122 9.5,3.3122 z"
                                   style="fill:#ff0000;fill-opacity:1;fill-rule:nonzero;stroke:none"
                                   id="path8506" /><g
                                   id="g8508"
                                   transform="matrix(1.4286,0,0,1.4286,93.43247,58.991442)"><path
                                   d="M 68.703,-32.703 H 9 c -2.1354,0 -3.2708,-0.667 -3.4062,-2 0,-1.333 1.1041,-2 3.3124,-2 H 68.797 c 2.135,0 3.234,0.667 3.297,2 0,1.333 -1.13,2 -3.391,2 z m 0.094,19.406 H 8.9062 c -2.1354,0 -3.2395,-0.667 -3.3124,-2 0,-1.333 1.1354,-2 3.4062,-2 h 59.703 c 2.136,0 3.266,0.667 3.391,2 0,1.333 -1.099,2 -3.297,2 z"
                                   style="fill:#ff0000;fill-opacity:1;fill-rule:nonzero;stroke:none"
                                   id="path8510" /><g
                                   id="g8512"
                                   transform="translate(111.87,-67.65)"><path
                                   d="m 44.906,-17.406 v 0 L 42.094,0 H 5 c 0,-1.6667 0.1979,-2.7344 0.5938,-3.2031 l 0.5,-0.5 19.2032,-21.3909 c 7,-7.875 10.5,-15.245 10.5,-22.109 0,-5.927 -1.797,-10.427 -5.391,-13.5 l -0.109,-0.094 h -0.094 c -2.135,-1.802 -4.734,-2.703 -7.797,-2.703 -4.802,0 -8.635,2.068 -11.5,6.203 -0.802,1.198 -1.4685,2.531 -1.9998,4 0.198,-0.073 0.6303,-0.109 1.2968,-0.109 2.667,0 4.365,1.203 5.094,3.609 v 0.094 c 0.135,0.469 0.203,0.969 0.203,1.5 0,2.667 -1.266,4.37 -3.797,5.109 -0.531,0.125 -1,0.188 -1.406,0.188 -2.4689,0 -4.0991,-1.032 -4.8908,-3.094 C 5.1354,-46.729 5,-47.562 5,-48.5 c 0,-5.135 1.9688,-9.536 5.906,-13.203 3.532,-3.261 7.797,-4.891 12.797,-4.891 7.333,0 13.031,2.464 17.094,7.391 2.333,2.864 3.667,6.265 4,10.203 0.073,0.604 0.109,1.203 0.109,1.797 0,4.864 -1.833,9.5 -5.5,13.906 -1.937,2.261 -4.937,5.261 -9,9 l -6.109,5.391 -1,0.906 -10.594,10.2969 h 18 c 5.865,0 9.031,-0.2657 9.5,-0.7969 0.667,-0.9375 1.401,-3.906 2.203,-8.906 z"
                                   style="fill:#ff0000;fill-opacity:1;fill-rule:nonzero;stroke:none"
                                   id="path8514" /><g
                                   id="g8516"
                                   transform="translate(50)"><path
                                   d="m 26.5,-37.297 v 0 l -5.594,22.094 c -1.135,4.271 -2.036,7.5363 -2.703,9.7968 -1.073,3.2708 -2.073,5.23953 -3,5.9062 v 0.09375 c -0.604,0.33333 -1.271,0.50005 -2,0.50005 -1.531,0 -2.463,-0.66672 -2.797,-2.00005 C 10.333,-1.1042 10.297,-1.3333 10.297,-1.5938 10.297,-2.1979 10.562,-3 11.094,-4 17.365,-17.531 21.635,-28.63 23.906,-37.297 h -5.703 c -5.198,0 -9.4322,2.568 -12.703,7.703 -0.6042,0.792 -1.1354,1.188 -1.5938,1.188 -0.802,0 -1.2031,-0.334 -1.2031,-1 0,-0.729 1.1979,-2.729 3.5938,-6 0.4687,-0.532 0.901,-1.063 1.2969,-1.594 0.2083,-0.271 0.4427,-0.536 0.7031,-0.797 0.1354,-0.198 0.3021,-0.401 0.5,-0.609 2.9371,-3.125 6.4061,-4.688 10.4061,-4.688 h 33.5 c 2.261,0 3.557,0.5 3.891,1.5 v 0.094 c 0.073,0.198 0.109,0.464 0.109,0.797 0,2.271 -1.635,3.406 -4.906,3.406 H 40.406 c -1.208,5.667 -1.812,10.964 -1.812,15.891 0,6.208 0.968,11.7081 2.906,16.4998 0.396,0.9374 0.594,1.6718 0.594,2.2031 0,1.5312 -0.834,2.666642 -2.5,3.40622 C 39.062,0.96354 38.531,1.0938 38,1.0938 c -1.333,0 -2.333,-0.93234 -3,-2.7969 -0.198,-0.5938 -0.396,-1.3281 -0.594,-2.2031 -0.541,-2.2605 -0.812,-4.7917 -0.812,-7.5938 0,-4.396 0.901,-10.76 2.703,-19.094 l 1.5,-6.703 z"
                                   style="fill:#ff0000;fill-opacity:1;fill-rule:nonzero;stroke:none"
                                   id="path8518" /><g
                                   id="g8520"
                                   transform="matrix(100,0,0,100,-498.32,-132.82)"><path
                                   d="m 4.4832,1.7347 h 1.106 v 0.04 h -1.106 z"
                                   style="fill:#ff0000;fill-opacity:1;fill-rule:nonzero;stroke:none"
                                   id="path8522" /><g
                                   id="g8524"
                                   transform="matrix(0.01,0,0,0.01,4.7862,2.6907)"><path
                                   d="m 29,-35.203 v 0 c 6.667,1.333 11.469,4.599 14.406,9.797 1.532,2.604 2.297,5.375 2.297,8.312 0,5.667 -2.333,10.4325 -7,14.2971 -4.073,3.33336 -8.838,5 -14.297,5 C 17.802,2.2031 12.5,0.23438 8.5,-3.7031 5.6354,-6.5052 4.2031,-9.7708 4.2031,-13.5 c 0,-3.135 1.4011,-5 4.2031,-5.594 0.4584,-0.135 0.9219,-0.203 1.3907,-0.203 2.5311,0 4.2341,1.068 5.1091,3.203 0.261,0.865 0.427,1.662 0.5,2.391 0,2.667 -1.203,4.4009 -3.609,5.203 -0.927,0.3333 -1.9272,0.4323 -3.0001,0.2969 2.4691,4.1354 6.7341,6.6041 12.7971,7.40622 0.875,0.13542 1.708,0.20313 2.5,0.20313 4.271,0 7.406,-2.10415 9.406,-6.31245 1.271,-2.6667 1.906,-6.0628 1.906,-10.1878 0,-8.875 -2.666,-14.208 -8,-16 -1.208,-0.406 -2.51,-0.609 -3.906,-0.609 h -4.406 c -1.459,0 -2.255,-0.365 -2.391,-1.094 0,-0.667 0.5,-1.068 1.5,-1.203 1,0 2.297,-0.099 3.891,-0.297 3.406,-0.135 6.073,-1.437 8,-3.906 v -0.094 l 0.109,-0.109 0.094,-0.094 h 0.109 l 0.594,-1 c 1.865,-3.135 2.797,-6.938 2.797,-11.406 0,-6.198 -2.401,-9.828 -7.203,-10.891 -0.792,-0.198 -1.589,-0.297 -2.391,-0.297 -4.667,0 -8.469,1.334 -11.406,4 -0.729,0.667 -1.359,1.396 -1.891,2.188 4.125,0 6.188,1.666 6.188,5 0,2.406 -1.032,4.01 -3.094,4.812 -0.604,0.198 -1.271,0.297 -2,0.297 -2.6042,0 -4.2396,-1.167 -4.9062,-3.5 v 0 -0.109 C 6.9688,-51.938 6.9062,-52.469 6.9062,-53 c 0,-4.469 2.198,-8.036 6.5938,-10.703 3.198,-1.927 6.896,-2.891 11.094,-2.891 6.073,0 10.974,1.797 14.703,5.391 L 39.5,-61 c 2.333,2.396 3.5,5.13 3.5,8.203 0,5.531 -2.365,10.162 -7.094,13.891 -2.073,1.604 -4.375,2.838 -6.906,3.703 z"
                                   style="fill:#ff0000;fill-opacity:1;fill-rule:nonzero;stroke:none"
                                   id="path8526" /><g
                                   id="g8528"
                                   transform="matrix(1.000008,0,0,1.000008,795.09019,-58.318314)"><path
                                   d="m 13.203,-32.797 v 0 c 2.729,-6.604 6.896,-9.906 12.5,-9.906 6.136,0 11.167,2.536 15.094,7.609 2.198,2.729 3.667,5.927 4.406,9.594 0.333,1.667 0.5,3.365 0.5,5.094 0,7.406 -2.568,13.3435 -7.703,17.8122 -3.729,3.19797 -8.031,4.7969 -12.906,4.7969 -6.792,0 -12.089,-3.2343 -15.8909,-9.7031 -3.3333,-5.802 -5,-13.833 -5,-24.094 0,-11.541 3.2657,-20.708 9.7969,-27.5 4.865,-5 10.365,-7.5 16.5,-7.5 5.802,0 9.703,2.032 11.703,6.094 0.667,1.396 1,2.964 1,4.703 0,2.667 -1.234,4.235 -3.703,4.703 -0.333,0.063 -0.635,0.094 -0.906,0.094 -2.125,0 -3.558,-0.932 -4.297,-2.797 -0.198,-0.531 -0.297,-1.13 -0.297,-1.797 0,-3 1.833,-4.5 5.5,-4.5 -1.729,-2.666 -4.661,-4 -8.797,-4 -4.667,0 -8.599,2.099 -11.797,6.297 -3.802,5 -5.703,12.531 -5.703,22.594 z m 11.891,32.20325 v 0 c 4.468,0 7.771,-2.16665 9.906,-6.50005 1.135,-2.4062 1.703,-6.8752 1.703,-13.4062 0,-6.667 -0.599,-11.234 -1.797,-13.703 -2.073,-4.136 -5.177,-6.203 -9.312,-6.203 -5.261,0 -8.891,3.135 -10.891,9.406 -0.864,2.604 -1.297,5.406 -1.297,8.406 0,6.532 0.599,11.365 1.797,14.5002 1.261,3.0626 3.224,5.2605 5.891,6.5938 1.271,0.60417 2.604,0.90625 4,0.90625 z"
                                   style="fill:#ff0000;fill-opacity:1;fill-rule:nonzero;stroke:none"
                                   id="path8530" /><g
                                   id="g8532"
                                   transform="translate(50)"><path
                                   d="m 46,-32 c 0,9.729 -1.234,17.26 -3.703,22.5938 C 38.37,-1.9375 32.573,1.9323 24.906,2.2031 18.833,2.2031 13.964,-0.19792 10.297,-5 9.5677,-5.8646 8.9375,-6.8333 8.4062,-7.9062 c -3,-5.5318 -4.5,-13.5628 -4.5,-24.0938 0,-9.802 1.2292,-17.37 3.6876,-22.703 3.3332,-7.469 8.7342,-11.432 16.2032,-11.891 H 25 c 5.938,0 10.771,2.365 14.5,7.094 v 0.094 c 0.938,1.208 1.771,2.541 2.5,4 2.667,5.666 4,13.468 4,23.406 z M 24.906,0 v 0 c 4.198,0 7.427,-2.0312 9.688,-6.0938 0.937,-1.802 1.604,-3.9372 2,-6.4062 0.739,-4.271 1.109,-11.172 1.109,-20.703 0,-9.261 -0.333,-15.761 -1,-19.5 -1.198,-6.333 -4.265,-10.13 -9.203,-11.391 -0.865,-0.208 -1.729,-0.312 -2.594,-0.312 -4.666,0 -8.067,2.333 -10.203,7 -0.739,1.604 -1.307,3.541 -1.703,5.812 -0.531,3.594 -0.797,9.724 -0.797,18.391 0,10.073 0.365,17.109 1.094,21.109 1.198,6.3961 4.13,10.2919 8.797,11.68775 C 23.031,-0.13542 23.969,0 24.906,0 Z"
                                   style="fill:#ff0000;fill-opacity:1;fill-rule:nonzero;stroke:none"
                                   id="path8534" /><g
                                   id="g8536"
                                   transform="matrix(0.7,0,0,0.7,50,-41.29)"><path
                                   d="m 44.297,-25 v 0 c 0,5.938 -2.235,10.839 -6.703,14.703 -3.667,3.1355 -7.896,4.7032 -12.688,4.7032 -5.875,0 -10.745,-2.2708 -14.609,-6.8122 C 7.1615,-16.073 5.5938,-20.271 5.5938,-25 c 0,-5.938 2.2343,-10.839 6.7032,-14.703 3.667,-3.136 7.901,-4.703 12.703,-4.703 5.865,0 10.729,2.271 14.594,6.812 3.135,3.667 4.703,7.865 4.703,12.594 z M 25,-9.5938 v 0 c 5,0 9.031,-2.0002 12.094,-6.0002 2.135,-2.802 3.203,-5.937 3.203,-9.406 0,-5.062 -2,-9.13 -6,-12.203 -2.729,-2.136 -5.828,-3.203 -9.297,-3.203 -5.135,0 -9.271,2.067 -12.406,6.203 -2,2.739 -3.0002,5.807 -3.0002,9.203 0,5 1.9682,9.031 5.9062,12.094 2.802,2.208 5.969,3.3122 9.5,3.3122 z"
                                   style="fill:#ff0000;fill-opacity:1;fill-rule:nonzero;stroke:none"
                                   id="path8538" /><g
                                   id="g8540"
                                   transform="matrix(1.4286,0,0,1.4286,93.49826,58.98745)"><path
                                   d="M 68.703,-32.703 H 9 c -2.1354,0 -3.2708,-0.667 -3.4062,-2 0,-1.333 1.1041,-2 3.3124,-2 H 68.797 c 2.135,0 3.234,0.667 3.297,2 0,1.333 -1.13,2 -3.391,2 z m 0.094,19.406 H 8.9062 c -2.1354,0 -3.2395,-0.667 -3.3124,-2 0,-1.333 1.1354,-2 3.4062,-2 h 59.703 c 2.136,0 3.266,0.667 3.391,2 0,1.333 -1.099,2 -3.297,2 z"
                                   style="fill:#ff0000;fill-opacity:1;fill-rule:nonzero;stroke:none"
                                   id="path8542" /><g
                                   id="g8544"
                                   transform="translate(111.9,-67.65)"><path
                                   d="m 26.5,-37.297 v 0 l -5.594,22.094 c -1.135,4.271 -2.036,7.5363 -2.703,9.7968 -1.073,3.2708 -2.073,5.23953 -3,5.9062 v 0.09375 c -0.604,0.33333 -1.271,0.50005 -2,0.50005 -1.531,0 -2.463,-0.66672 -2.797,-2.00005 C 10.333,-1.1042 10.297,-1.3333 10.297,-1.5938 10.297,-2.1979 10.562,-3 11.094,-4 17.365,-17.531 21.635,-28.63 23.906,-37.297 h -5.703 c -5.198,0 -9.4322,2.568 -12.703,7.703 -0.6042,0.792 -1.1354,1.188 -1.5938,1.188 -0.802,0 -1.2031,-0.334 -1.2031,-1 0,-0.729 1.1979,-2.729 3.5938,-6 0.4687,-0.532 0.901,-1.063 1.2969,-1.594 0.2083,-0.271 0.4427,-0.536 0.7031,-0.797 0.1354,-0.198 0.3021,-0.401 0.5,-0.609 2.9371,-3.125 6.4061,-4.688 10.4061,-4.688 h 33.5 c 2.261,0 3.557,0.5 3.891,1.5 v 0.094 c 0.073,0.198 0.109,0.464 0.109,0.797 0,2.271 -1.635,3.406 -4.906,3.406 H 40.406 c -1.208,5.667 -1.812,10.964 -1.812,15.891 0,6.208 0.968,11.7081 2.906,16.4998 0.396,0.9374 0.594,1.6718 0.594,2.2031 0,1.5312 -0.834,2.666642 -2.5,3.40622 C 39.062,0.96354 38.531,1.0938 38,1.0938 c -1.333,0 -2.333,-0.93234 -3,-2.7969 -0.198,-0.5938 -0.396,-1.3281 -0.594,-2.2031 -0.541,-2.2605 -0.812,-4.7917 -0.812,-7.5938 0,-4.396 0.901,-10.76 2.703,-19.094 l 1.5,-6.703 z"
                                   style="fill:#ff0000;fill-opacity:1;fill-rule:nonzero;stroke:none"
                                   id="path8546" /><g
                                   id="g8548"
                                   transform="matrix(100,0,0,100,-1551,-143.1)"><path
                                   d="m 15.51,1.8375 h 0.606 v 0.04 H 15.51 Z"
                                   style="fill:#ff0000;fill-opacity:1;fill-rule:nonzero;stroke:none"
                                   id="path8550" /><g
                                   id="g8552"
                                   transform="matrix(0.01,0,0,0.01,15.563,2.7935)"><path
                                   d="m 29,-35.203 v 0 c 6.667,1.333 11.469,4.599 14.406,9.797 1.532,2.604 2.297,5.375 2.297,8.312 0,5.667 -2.333,10.4325 -7,14.2971 -4.073,3.33336 -8.838,5 -14.297,5 C 17.802,2.2031 12.5,0.23438 8.5,-3.7031 5.6354,-6.5052 4.2031,-9.7708 4.2031,-13.5 c 0,-3.135 1.4011,-5 4.2031,-5.594 0.4584,-0.135 0.9219,-0.203 1.3907,-0.203 2.5311,0 4.2341,1.068 5.1091,3.203 0.261,0.865 0.427,1.662 0.5,2.391 0,2.667 -1.203,4.4009 -3.609,5.203 -0.927,0.3333 -1.9272,0.4323 -3.0001,0.2969 2.4691,4.1354 6.7341,6.6041 12.7971,7.40622 0.875,0.13542 1.708,0.20313 2.5,0.20313 4.271,0 7.406,-2.10415 9.406,-6.31245 1.271,-2.6667 1.906,-6.0628 1.906,-10.1878 0,-8.875 -2.666,-14.208 -8,-16 -1.208,-0.406 -2.51,-0.609 -3.906,-0.609 h -4.406 c -1.459,0 -2.255,-0.365 -2.391,-1.094 0,-0.667 0.5,-1.068 1.5,-1.203 1,0 2.297,-0.099 3.891,-0.297 3.406,-0.135 6.073,-1.437 8,-3.906 v -0.094 l 0.109,-0.109 0.094,-0.094 h 0.109 l 0.594,-1 c 1.865,-3.135 2.797,-6.938 2.797,-11.406 0,-6.198 -2.401,-9.828 -7.203,-10.891 -0.792,-0.198 -1.589,-0.297 -2.391,-0.297 -4.667,0 -8.469,1.334 -11.406,4 -0.729,0.667 -1.359,1.396 -1.891,2.188 4.125,0 6.188,1.666 6.188,5 0,2.406 -1.032,4.01 -3.094,4.812 -0.604,0.198 -1.271,0.297 -2,0.297 -2.6042,0 -4.2396,-1.167 -4.9062,-3.5 v 0 -0.109 C 6.9688,-51.938 6.9062,-52.469 6.9062,-53 c 0,-4.469 2.198,-8.036 6.5938,-10.703 3.198,-1.927 6.896,-2.891 11.094,-2.891 6.073,0 10.974,1.797 14.703,5.391 L 39.5,-61 c 2.333,2.396 3.5,5.13 3.5,8.203 0,5.531 -2.365,10.162 -7.094,13.891 -2.073,1.604 -4.375,2.838 -6.906,3.703 z"
                                   style="fill:#ff0000;fill-opacity:1;fill-rule:nonzero;stroke:none"
                                   id="path8554" /><g
                                   id="g8556"
                                   transform="matrix(1.000008,0,0,1.000008,-282.58981,884.25931)"><path
                                   d="m 29,-35.203 v 0 c 6.667,1.333 11.469,4.599 14.406,9.797 1.532,2.604 2.297,5.375 2.297,8.312 0,5.667 -2.333,10.4325 -7,14.2971 -4.073,3.33336 -8.838,5 -14.297,5 C 17.802,2.2031 12.5,0.23438 8.5,-3.7031 5.6354,-6.5052 4.2031,-9.7708 4.2031,-13.5 c 0,-3.135 1.4011,-5 4.2031,-5.594 0.4584,-0.135 0.9219,-0.203 1.3907,-0.203 2.5311,0 4.2341,1.068 5.1091,3.203 0.261,0.865 0.427,1.662 0.5,2.391 0,2.667 -1.203,4.4009 -3.609,5.203 -0.927,0.3333 -1.9272,0.4323 -3.0001,0.2969 2.4691,4.1354 6.7341,6.6041 12.7971,7.40622 0.875,0.13542 1.708,0.20313 2.5,0.20313 4.271,0 7.406,-2.10415 9.406,-6.31245 1.271,-2.6667 1.906,-6.0628 1.906,-10.1878 0,-8.875 -2.666,-14.208 -8,-16 -1.208,-0.406 -2.51,-0.609 -3.906,-0.609 h -4.406 c -1.459,0 -2.255,-0.365 -2.391,-1.094 0,-0.667 0.5,-1.068 1.5,-1.203 1,0 2.297,-0.099 3.891,-0.297 3.406,-0.135 6.073,-1.437 8,-3.906 v -0.094 l 0.109,-0.109 0.094,-0.094 h 0.109 l 0.594,-1 c 1.865,-3.135 2.797,-6.938 2.797,-11.406 0,-6.198 -2.401,-9.828 -7.203,-10.891 -0.792,-0.198 -1.589,-0.297 -2.391,-0.297 -4.667,0 -8.469,1.334 -11.406,4 -0.729,0.667 -1.359,1.396 -1.891,2.188 4.125,0 6.188,1.666 6.188,5 0,2.406 -1.032,4.01 -3.094,4.812 -0.604,0.198 -1.271,0.297 -2,0.297 -2.6042,0 -4.2396,-1.167 -4.9062,-3.5 v 0 -0.109 C 6.9688,-51.938 6.9062,-52.469 6.9062,-53 c 0,-4.469 2.198,-8.036 6.5938,-10.703 3.198,-1.927 6.896,-2.891 11.094,-2.891 6.073,0 10.974,1.797 14.703,5.391 L 39.5,-61 c 2.333,2.396 3.5,5.13 3.5,8.203 0,5.531 -2.365,10.162 -7.094,13.891 -2.073,1.604 -4.375,2.838 -6.906,3.703 z"
                                   style="fill:#ff0000;fill-opacity:1;fill-rule:nonzero;stroke:none"
                                   id="path8558" /><g
                                   id="g8560"
                                   transform="translate(50)"><path
                                   d="m 29,-35.203 v 0 c 6.667,1.333 11.469,4.599 14.406,9.797 1.532,2.604 2.297,5.375 2.297,8.312 0,5.667 -2.333,10.4325 -7,14.2971 -4.073,3.33336 -8.838,5 -14.297,5 C 17.802,2.2031 12.5,0.23438 8.5,-3.7031 5.6354,-6.5052 4.2031,-9.7708 4.2031,-13.5 c 0,-3.135 1.4011,-5 4.2031,-5.594 0.4584,-0.135 0.9219,-0.203 1.3907,-0.203 2.5311,0 4.2341,1.068 5.1091,3.203 0.261,0.865 0.427,1.662 0.5,2.391 0,2.667 -1.203,4.4009 -3.609,5.203 -0.927,0.3333 -1.9272,0.4323 -3.0001,0.2969 2.4691,4.1354 6.7341,6.6041 12.7971,7.40622 0.875,0.13542 1.708,0.20313 2.5,0.20313 4.271,0 7.406,-2.10415 9.406,-6.31245 1.271,-2.6667 1.906,-6.0628 1.906,-10.1878 0,-8.875 -2.666,-14.208 -8,-16 -1.208,-0.406 -2.51,-0.609 -3.906,-0.609 h -4.406 c -1.459,0 -2.255,-0.365 -2.391,-1.094 0,-0.667 0.5,-1.068 1.5,-1.203 1,0 2.297,-0.099 3.891,-0.297 3.406,-0.135 6.073,-1.437 8,-3.906 v -0.094 l 0.109,-0.109 0.094,-0.094 h 0.109 l 0.594,-1 c 1.865,-3.135 2.797,-6.938 2.797,-11.406 0,-6.198 -2.401,-9.828 -7.203,-10.891 -0.792,-0.198 -1.589,-0.297 -2.391,-0.297 -4.667,0 -8.469,1.334 -11.406,4 -0.729,0.667 -1.359,1.396 -1.891,2.188 4.125,0 6.188,1.666 6.188,5 0,2.406 -1.032,4.01 -3.094,4.812 -0.604,0.198 -1.271,0.297 -2,0.297 -2.6042,0 -4.2396,-1.167 -4.9062,-3.5 v 0 -0.109 C 6.9688,-51.938 6.9062,-52.469 6.9062,-53 c 0,-4.469 2.198,-8.036 6.5938,-10.703 3.198,-1.927 6.896,-2.891 11.094,-2.891 6.073,0 10.974,1.797 14.703,5.391 L 39.5,-61 c 2.333,2.396 3.5,5.13 3.5,8.203 0,5.531 -2.365,10.162 -7.094,13.891 -2.073,1.604 -4.375,2.838 -6.906,3.703 z"
                                   style="fill:#ff0000;fill-opacity:1;fill-rule:nonzero;stroke:none"
                                   id="path8562" /><g
                                   id="g8564"
                                   transform="translate(50)"><path
                                   d="m 46,-32 c 0,9.729 -1.234,17.26 -3.703,22.5938 C 38.37,-1.9375 32.573,1.9323 24.906,2.2031 18.833,2.2031 13.964,-0.19792 10.297,-5 9.5677,-5.8646 8.9375,-6.8333 8.4062,-7.9062 c -3,-5.5318 -4.5,-13.5628 -4.5,-24.0938 0,-9.802 1.2292,-17.37 3.6876,-22.703 3.3332,-7.469 8.7342,-11.432 16.2032,-11.891 H 25 c 5.938,0 10.771,2.365 14.5,7.094 v 0.094 c 0.938,1.208 1.771,2.541 2.5,4 2.667,5.666 4,13.468 4,23.406 z M 24.906,0 v 0 c 4.198,0 7.427,-2.0312 9.688,-6.0938 0.937,-1.802 1.604,-3.9372 2,-6.4062 0.739,-4.271 1.109,-11.172 1.109,-20.703 0,-9.261 -0.333,-15.761 -1,-19.5 -1.198,-6.333 -4.265,-10.13 -9.203,-11.391 -0.865,-0.208 -1.729,-0.312 -2.594,-0.312 -4.666,0 -8.067,2.333 -10.203,7 -0.739,1.604 -1.307,3.541 -1.703,5.812 -0.531,3.594 -0.797,9.724 -0.797,18.391 0,10.073 0.365,17.109 1.094,21.109 1.198,6.3961 4.13,10.2919 8.797,11.68775 C 23.031,-0.13542 23.969,0 24.906,0 Z"
                                   style="fill:#ff0000;fill-opacity:1;fill-rule:nonzero;stroke:none"
                                   id="path8566" /><g
                                   id="g8568"
                                   transform="matrix(0.7,0,0,0.7,50,-41.3)"><path
                                   d="m 44.297,-25 v 0 c 0,5.938 -2.235,10.839 -6.703,14.703 -3.667,3.1355 -7.896,4.7032 -12.688,4.7032 -5.875,0 -10.745,-2.2708 -14.609,-6.8122 C 7.1615,-16.073 5.5938,-20.271 5.5938,-25 c 0,-5.938 2.2343,-10.839 6.7032,-14.703 3.667,-3.136 7.901,-4.703 12.703,-4.703 5.865,0 10.729,2.271 14.594,6.812 3.135,3.667 4.703,7.865 4.703,12.594 z M 25,-9.5938 v 0 c 5,0 9.031,-2.0002 12.094,-6.0002 2.135,-2.802 3.203,-5.937 3.203,-9.406 0,-5.062 -2,-9.13 -6,-12.203 -2.729,-2.136 -5.828,-3.203 -9.297,-3.203 -5.135,0 -9.271,2.067 -12.406,6.203 -2,2.739 -3.0002,5.807 -3.0002,9.203 0,5 1.9682,9.031 5.9062,12.094 2.802,2.208 5.969,3.3122 9.5,3.3122 z"
                                   style="fill:#ff0000;fill-opacity:1;fill-rule:nonzero;stroke:none"
                                   id="path8570" /><g
                                   id="g8572"
                                   transform="matrix(1.4286,0,0,1.4286,93.52826,59.01896)"><path
                                   d="M 68.703,-32.703 H 9 c -2.1354,0 -3.2708,-0.667 -3.4062,-2 0,-1.333 1.1041,-2 3.3124,-2 H 68.797 c 2.135,0 3.234,0.667 3.297,2 0,1.333 -1.13,2 -3.391,2 z m 0.094,19.406 H 8.9062 c -2.1354,0 -3.2395,-0.667 -3.3124,-2 0,-1.333 1.1354,-2 3.4062,-2 h 59.703 c 2.136,0 3.266,0.667 3.391,2 0,1.333 -1.099,2 -3.297,2 z"
                                   style="fill:#ff0000;fill-opacity:1;fill-rule:nonzero;stroke:none"
                                   id="path8574" /><g
                                   id="g8576"
                                   transform="translate(111.9,-67.6)"><path
                                   d="m 29.406,-64 v 56.0938 c 0,2 0.396,3.2708 1.188,3.8124 1.135,0.6667 3.838,1 8.109,1 h 3.203 V 0 C 39.573,-0.19792 34.172,-0.29688 25.703,-0.29688 17.234,-0.29688 11.833,-0.19792 9.5,0 v -3.0938 h 3.203 c 5.136,0 8.068,-0.6041 8.797,-1.8124 L 21.594,-5 C 21.865,-5.5312 22,-6.5 22,-7.9062 V -59.703 c -3.469,1.739 -7.833,2.609 -13.0938,2.609 v -3.109 c 7.9998,0 14.0628,-2.13 18.1878,-6.391 1.271,0 2.005,0.229 2.203,0.688 v 0 0.109 c 0.073,0.198 0.109,0.797 0.109,1.797 z"
                                   style="fill:#ff0000;fill-opacity:1;fill-rule:nonzero;stroke:none"
                                   id="path8578" /><g
                                   id="g8580"
                                   transform="translate(50)"><path
                                   d="m 29.406,-64 v 56.0938 c 0,2 0.396,3.2708 1.188,3.8124 1.135,0.6667 3.838,1 8.109,1 h 3.203 V 0 C 39.573,-0.19792 34.172,-0.29688 25.703,-0.29688 17.234,-0.29688 11.833,-0.19792 9.5,0 v -3.0938 h 3.203 c 5.136,0 8.068,-0.6041 8.797,-1.8124 L 21.594,-5 C 21.865,-5.5312 22,-6.5 22,-7.9062 V -59.703 c -3.469,1.739 -7.833,2.609 -13.0938,2.609 v -3.109 c 7.9998,0 14.0628,-2.13 18.1878,-6.391 1.271,0 2.005,0.229 2.203,0.688 v 0 0.109 c 0.073,0.198 0.109,0.797 0.109,1.797 z"
                                   style="fill:#ff0000;fill-opacity:1;fill-rule:nonzero;stroke:none"
                                   id="path8582" /><g
                                   id="g8584"
                                   transform="translate(50)"><path
                                   d="m 26.5,-37.297 v 0 l -5.594,22.094 c -1.135,4.271 -2.036,7.5363 -2.703,9.7968 -1.073,3.2708 -2.073,5.23953 -3,5.9062 v 0.09375 c -0.604,0.33333 -1.271,0.50005 -2,0.50005 -1.531,0 -2.463,-0.66672 -2.797,-2.00005 C 10.333,-1.1042 10.297,-1.3333 10.297,-1.5938 10.297,-2.1979 10.562,-3 11.094,-4 17.365,-17.531 21.635,-28.63 23.906,-37.297 h -5.703 c -5.198,0 -9.4322,2.568 -12.703,7.703 -0.6042,0.792 -1.1354,1.188 -1.5938,1.188 -0.802,0 -1.2031,-0.334 -1.2031,-1 0,-0.729 1.1979,-2.729 3.5938,-6 0.4687,-0.532 0.901,-1.063 1.2969,-1.594 0.2083,-0.271 0.4427,-0.536 0.7031,-0.797 0.1354,-0.198 0.3021,-0.401 0.5,-0.609 2.9371,-3.125 6.4061,-4.688 10.4061,-4.688 h 33.5 c 2.261,0 3.557,0.5 3.891,1.5 v 0.094 c 0.073,0.198 0.109,0.464 0.109,0.797 0,2.271 -1.635,3.406 -4.906,3.406 H 40.406 c -1.208,5.667 -1.812,10.964 -1.812,15.891 0,6.208 0.968,11.7081 2.906,16.4998 0.396,0.9374 0.594,1.6718 0.594,2.2031 0,1.5312 -0.834,2.666642 -2.5,3.40622 C 39.062,0.96354 38.531,1.0938 38,1.0938 c -1.333,0 -2.333,-0.93234 -3,-2.7969 -0.198,-0.5938 -0.396,-1.3281 -0.594,-2.2031 -0.541,-2.2605 -0.812,-4.7917 -0.812,-7.5938 0,-4.396 0.901,-10.76 2.703,-19.094 l 1.5,-6.703 z"
                                   style="fill:#ff0000;fill-opacity:1;fill-rule:nonzero;stroke:none"
                                   id="path8586" /><g
                                   id="g8588"
                                   transform="matrix(100,0,0,100,-1701,-1096)"><path
                                   d="m 16.01,11.366 h 1.606 v 0.04 H 16.01 Z"
                                   style="fill:#ff0000;fill-opacity:1;fill-rule:nonzero;stroke:none"
                                   id="path8590" /><g
                                   id="g8592"
                                   transform="matrix(0.01,0,0,0.01,16.563,12.322)"><path
                                   d="m 13.203,-32.797 v 0 c 2.729,-6.604 6.896,-9.906 12.5,-9.906 6.136,0 11.167,2.536 15.094,7.609 2.198,2.729 3.667,5.927 4.406,9.594 0.333,1.667 0.5,3.365 0.5,5.094 0,7.406 -2.568,13.3435 -7.703,17.8122 -3.729,3.19797 -8.031,4.7969 -12.906,4.7969 -6.792,0 -12.089,-3.2343 -15.8909,-9.7031 -3.3333,-5.802 -5,-13.833 -5,-24.094 0,-11.541 3.2657,-20.708 9.7969,-27.5 4.865,-5 10.365,-7.5 16.5,-7.5 5.802,0 9.703,2.032 11.703,6.094 0.667,1.396 1,2.964 1,4.703 0,2.667 -1.234,4.235 -3.703,4.703 -0.333,0.063 -0.635,0.094 -0.906,0.094 -2.125,0 -3.558,-0.932 -4.297,-2.797 -0.198,-0.531 -0.297,-1.13 -0.297,-1.797 0,-3 1.833,-4.5 5.5,-4.5 -1.729,-2.666 -4.661,-4 -8.797,-4 -4.667,0 -8.599,2.099 -11.797,6.297 -3.802,5 -5.703,12.531 -5.703,22.594 z m 11.891,32.20325 v 0 c 4.468,0 7.771,-2.16665 9.906,-6.50005 1.135,-2.4062 1.703,-6.8752 1.703,-13.4062 0,-6.667 -0.599,-11.234 -1.797,-13.703 -2.073,-4.136 -5.177,-6.203 -9.312,-6.203 -5.261,0 -8.891,3.135 -10.891,9.406 -0.864,2.604 -1.297,5.406 -1.297,8.406 0,6.532 0.599,11.365 1.797,14.5002 1.261,3.0626 3.224,5.2605 5.891,6.5938 1.271,0.60417 2.604,0.90625 4,0.90625 z"
                                   style="fill:#ff0000;fill-opacity:1;fill-rule:nonzero;stroke:none"
                                   id="path8594" /><g
                                   id="g8596"
                                   transform="matrix(5.2632,0,0,5.2632,-1656.3,-1232.2)" /></g></g></g></g></g></g></g></g></g></g></g></g></g></g></g></g></g></g></g></g></g></g></g></g></g></g></g></g></g></g></g></g></g></g></g></g></g></g></g></g></g></g></g></g></g></g></g></g></g></g></g></g></g></g></g></g></g></g></g></g></g></g></g></g></g></g></g></g></g></g></g></g><g
                   id="g8598"
                   transform="scale(0.56693)" /></g></g></g></g></g></g></g></svg>
