<?xml version="1.0" encoding="UTF-8" standalone="no"?>
<svg
   xmlns:dc="http://purl.org/dc/elements/1.1/"
   xmlns:cc="http://creativecommons.org/ns#"
   xmlns:rdf="http://www.w3.org/1999/02/22-rdf-syntax-ns#"
   xmlns:svg="http://www.w3.org/2000/svg"
   xmlns="http://www.w3.org/2000/svg"
   xmlns:sodipodi="http://sodipodi.sourceforge.net/DTD/sodipodi-0.dtd"
   xmlns:inkscape="http://www.inkscape.org/namespaces/inkscape"
   version="1.1"
   id="svg6286"
   xml:space="preserve"
   width="192"
   height="149.33333"
   viewBox="0 0 192 149.33333"
   sodipodi:docname="2020-1215-1910-crop.pdf"><metadata
     id="metadata6292"><rdf:RDF><cc:Work
         rdf:about=""><dc:format>image/svg+xml</dc:format><dc:type
           rdf:resource="http://purl.org/dc/dcmitype/StillImage" /></cc:Work></rdf:RDF></metadata><defs
     id="defs6290"><clipPath
       clipPathUnits="userSpaceOnUse"
       id="clipPath6304"><path
         d="M 0,0 H 194 V 150 H 0 Z"
         id="path6302" /></clipPath><clipPath
       clipPathUnits="userSpaceOnUse"
       id="clipPath6314"><path
         d="M 0,0 H 194 V 150 H 0 Z"
         id="path6312" /></clipPath><clipPath
       clipPathUnits="userSpaceOnUse"
       id="clipPath6326"><path
         d="M 0,0 V 150 H 194 V 0 Z"
         id="path6324" /></clipPath><clipPath
       clipPathUnits="userSpaceOnUse"
       id="clipPath6336"><path
         d="M 0,0 H 343 V 266 H 0 Z"
         id="path6334" /></clipPath></defs><sodipodi:namedview
     pagecolor="#ffffff"
     bordercolor="#666666"
     borderopacity="1"
     objecttolerance="10"
     gridtolerance="10"
     guidetolerance="10"
     inkscape:pageopacity="0"
     inkscape:pageshadow="2"
     inkscape:window-width="640"
     inkscape:window-height="480"
     id="namedview6288" /><g
     id="g6294"
     inkscape:groupmode="layer"
     inkscape:label="2020-1215-1910-crop"
     transform="matrix(1.3333333,0,0,-1.3333333,0,149.33333)"><g
       id="g6296"
       transform="translate(-25,-19)"><g
         id="g6298"><g
           id="g6300"
           clip-path="url(#clipPath6304)"><g
             id="g6306"
             transform="matrix(0.73333,0,0,-0.73333,25.867,130)"><g
               id="g6308"><g
                 id="g6310"
                 clip-path="url(#clipPath6314)"><g
                   id="g6316"><g
                     id="g6318" /></g><g
                   id="g6320"><g
                     id="g6322"
                     clip-path="url(#clipPath6326)"><g
                       id="g6328"
                       transform="scale(0.56693)" /></g></g><g
                   id="g6330"
                   transform="scale(0.56693)"><g
                     id="g6332"
                     clip-path="url(#clipPath6336)"><path
                       d="M 0,0 H 343 V 266 H 0 Z"
                       style="fill:#ffffff;fill-opacity:1;fill-rule:nonzero;stroke:none"
                       id="path6338" /><path
                       d="m 325.12,190 3.04,-4.31 -2.82,-3.99 h 1.77 l 1.27,1.94 c 0.23,0.38 0.43,0.69 0.57,0.94 0.23,-0.35 0.45,-0.65 0.64,-0.92 l 1.39,-1.96 h 1.69 l -2.87,3.91 3.09,4.39 h -1.73 l -1.71,-2.58 -0.45,-0.7 -2.17,3.28 z"
                       style="fill:#000000;fill-opacity:1;fill-rule:nonzero;stroke:none"
                       id="path6340" /><path
                       d="M 0,194.71 H 341"
                       style="fill:none;stroke:#000000;stroke-width:1;stroke-linecap:butt;stroke-linejoin:miter;stroke-miterlimit:10;stroke-dasharray:none;stroke-opacity:1"
                       id="path6342" /><path
                       d="m 342,194.71 -4,-4"
                       style="fill:none;stroke:#000000;stroke-width:1;stroke-linecap:butt;stroke-linejoin:miter;stroke-miterlimit:10;stroke-dasharray:none;stroke-opacity:1"
                       id="path6344" /><path
                       d="m 342,194.71 -4,4"
                       style="fill:none;stroke:#000000;stroke-width:1;stroke-linecap:butt;stroke-linejoin:miter;stroke-miterlimit:10;stroke-dasharray:none;stroke-opacity:1"
                       id="path6346" /><path
                       d="m 61.633,273.81 1.34,-5.79 1.339,-5.58 1.34,-5.38 1.34,-5.17 2.68,-9.78 2.68,-9.03 2.679,-8.3 2.68,-7.62 2.68,-6.95 2.679,-6.33 2.68,-5.72 2.68,-5.15 2.679,-4.61 2.68,-4.11 2.68,-3.62 2.679,-3.17 2.682,-2.75 2.68,-2.36 2.68,-1.99 2.68,-1.67 2.68,-1.37 2.68,-1.09 2.68,-0.86 2.68,-0.64 2.68,-0.46 2.68,-0.31 2.67,-0.19 2.68,-0.1 2.68,-0.04 h 2.68 l 2.68,-0.01 2.68,-0.03 2.68,-0.09 2.68,-0.18 2.68,-0.3 2.68,-0.45 2.68,-0.62 2.68,-0.84 2.68,-1.07 2.68,-1.34 2.68,-1.64 2.68,-1.96 2.68,-2.33 2.68,-2.71 2.68,-3.13 2.68,-3.58 2.68,-4.05 2.68,-4.57 2.68,-5.1 2.68,-5.67 2.68,-6.27 2.68,-6.89 2.68,-7.55 2.68,-8.244 2.68,-8.958 2.68,-9.705 1.34,-5.143 1.34,-5.34 1.34,-5.543 1.34,-5.748 1.34,-5.957 1.34,-6.17 1.33,-6.387 1.34,-6.608 1.34,-6.832 1.34,-7.06 1.34,-7.2924 1.34,-7.52758 1.34,-7.76682"
                       style="fill:none;stroke:#006400;stroke-width:1.5;stroke-linecap:round;stroke-linejoin:round;stroke-miterlimit:10;stroke-dasharray:none;stroke-opacity:1"
                       id="path6348" /><path
                       d="m 80.391,272.29 2.679,-6.32 2.68,-5.73 2.68,-5.15 2.679,-4.61 2.68,-4.1 2.68,-3.63 2.679,-3.17 2.682,-2.75 2.68,-2.36 2.68,-1.99 2.68,-1.67 2.68,-1.37 2.68,-1.09 2.68,-0.86 2.68,-0.64 2.68,-0.46 2.68,-0.31 2.67,-0.19 2.68,-0.1 2.68,-0.04 h 2.68 l 2.68,-0.01 2.68,-0.03 2.68,-0.09 2.68,-0.18 2.68,-0.3 2.68,-0.45 2.68,-0.62 2.68,-0.83 2.68,-1.08 2.68,-1.34 2.68,-1.63 2.68,-1.97 2.68,-2.32 2.68,-2.72 2.68,-3.13 2.68,-3.58 2.68,-4.05 2.68,-4.57 2.68,-5.1 2.68,-5.67 2.68,-6.26 2.68,-6.9 2.68,-7.55 2.68,-8.24 2.68,-8.96 2.68,-9.71 1.34,-5.14 1.34,-5.34 1.34,-5.54 1.34,-5.75 1.34,-5.96 1.34,-6.17 1.33,-6.384 1.34,-6.608 1.34,-6.832 1.34,-7.06 1.34,-7.292 1.34,-7.528 1.34,-7.767 1.34,-8.009 1.34,-8.257 1.34,-8.507 1.34,-8.762 1.34,-9.019 1.34,-9.2816 1.34,-9.5468"
                       style="fill:none;stroke:#0000ff;stroke-width:1.5;stroke-linecap:butt;stroke-linejoin:round;stroke-miterlimit:10;stroke-dasharray:9.5, 4, 1.5, 4;stroke-dashoffset:0;stroke-opacity:1"
                       id="path6350" /><path
                       d="m 49.574,273.71 1.34,-7.82 1.34,-7.57 1.34,-7.33 1.34,-7.11 1.339,-6.87 1.34,-6.65 1.34,-6.43 1.34,-6.21 1.34,-5.99 1.34,-5.79 1.339,-5.58 1.34,-5.38 1.34,-5.18 2.68,-9.77 2.68,-9.03 2.679,-8.3 2.68,-7.62 2.68,-6.95 2.679,-6.33 2.68,-5.72 2.68,-5.15 2.679,-4.62 2.68,-4.1 2.68,-3.62 2.679,-3.17 2.682,-2.75 2.68,-2.36 2.68,-2 2.68,-1.66 2.68,-1.37 2.68,-1.09 2.68,-0.86 2.68,-0.64 2.68,-0.46 2.68,-0.31 2.67,-0.19 2.68,-0.1 2.68,-0.04 2.68,-0.01 h 2.68 l 2.68,-0.03 2.68,-0.09 2.68,-0.18 2.68,-0.3 2.68,-0.45 2.68,-0.624 2.68,-0.833 2.68,-1.072 2.68,-1.34 2.68,-1.638 2.68,-1.966 2.68,-2.324 2.68,-2.713 2.68,-3.13 2.68,-3.578 2.68,-4.057 2.68,-4.564 2.68,-5.101 2.68,-5.67 2.68,-6.267 2.68,-6.895 2.68,-7.553 2.68,-8.24 2.68,-8.958 2.68,-9.706 1.34,-5.1421 1.34,-5.3404 1.34,-5.5424 1.34,-5.7479"
                       style="fill:none;stroke:#cc0000;stroke-width:1.5;stroke-linecap:butt;stroke-linejoin:round;stroke-miterlimit:10;stroke-dasharray:5.5, 4;stroke-dashoffset:0;stroke-opacity:1"
                       id="path6352" /><path
                       d="M 136.79,163.67 V 115.58"
                       style="fill:none;stroke:#000000;stroke-width:1;stroke-linecap:round;stroke-linejoin:round;stroke-miterlimit:10;stroke-dasharray:none;stroke-opacity:1"
                       id="path6354" /><path
                       d="m 136.79,101.58 3.5,14 h -7 z"
                       style="fill:#000000;fill-opacity:1;fill-rule:evenodd;stroke:none"
                       id="path6356" /><path
                       d="m 136.79,163.67 v 48.08"
                       style="fill:none;stroke:#000000;stroke-width:1;stroke-linecap:round;stroke-linejoin:round;stroke-miterlimit:10;stroke-dasharray:none;stroke-opacity:1"
                       id="path6358" /><path
                       d="m 136.79,225.75 -3.5,-14 h 7 z"
                       style="fill:#000000;fill-opacity:1;fill-rule:evenodd;stroke:none"
                       id="path6360" /><path
                       d="m 140.79,163.67 c 0,2.21 -1.79,4 -4,4 -2.21,0 -4,-1.79 -4,-4 0,-2.21 1.79,-4 4,-4 2.21,0 4,1.79 4,4 z"
                       style="fill:#006400;fill-opacity:1;fill-rule:nonzero;stroke:none"
                       id="path6362" /><path
                       d="m 140.79,101.58 c 0,2.21 -1.79,4 -4,4 -2.21,0 -4,-1.79 -4,-4 0,-2.204 1.79,-3.995 4,-3.995 2.21,0 4,1.791 4,3.995 z"
                       style="fill:#ff0000;fill-opacity:1;fill-rule:nonzero;stroke:none"
                       id="path6364" /><path
                       d="m 140.79,225.75 c 0,2.21 -1.79,4 -4,4 -2.21,0 -4,-1.79 -4,-4 0,-2.21 1.79,-4 4,-4 2.21,0 4,1.79 4,4 z"
                       style="fill:#0000ff;fill-opacity:1;fill-rule:nonzero;stroke:none"
                       id="path6366" /><g
                       id="g6368"
                       transform="scale(19)"><g
                         id="g6370"
                         transform="matrix(0.01,0,0,0.01,7.6842,6.8026)"><path
                           d="m 36.703,-40 v 0 l -6,31.7031 c -0.604,4.1354 -1.807,8.86982 -3.609,14.2031 -0.667,1.9271 -1.334,3.5573 -2,4.8908 -2.334,4.937 -5.229,8.005 -8.688,9.203 -0.875,0.333 -1.745,0.5 -2.609,0.5 -3.333,0 -5.797,-1.135 -7.3908,-3.406 -0.7395,-1 -1.1093,-2.167 -1.1093,-3.5 0,-2.667 1.1354,-4.5002 3.4062,-5.5002 0.6667,-0.3334 1.3649,-0.5 2.0939,-0.5 1.937,0 3.141,0.8333 3.609,2.5002 0.063,0.333 0.094,0.666 0.094,1 0,2.271 -1,3.875 -3,4.812 -0.729,0.334 -1.5625,0.532 -2.5,0.594 1.271,1.198 2.87,1.797 4.797,1.797 2.937,0 5.239,-3.266 6.906,-9.797 0.333,-1.5312 0.735,-3.5312 1.203,-6 L 22.5,-0.5 30,-40 h -6.594 c -1.666,0 -2.567,-0.266 -2.703,-0.797 h -0.109 v -0.406 c 0,-1.136 0.567,-1.766 1.703,-1.891 v 0 h 1.297 6.906 c 1.604,-8.333 2.703,-13.567 3.297,-15.703 2,-6.667 5.536,-10.5 10.609,-11.5 0.729,-0.135 1.427,-0.203 2.094,-0.203 3.469,0 6,1.135 7.594,3.406 v 0 c 0.739,1 1.109,2.167 1.109,3.5 0,2.667 -1.135,4.5 -3.406,5.5 -0.667,0.334 -1.365,0.5 -2.094,0.5 -1.937,0 -3.141,-0.833 -3.609,-2.5 -0.063,-0.333 -0.094,-0.666 -0.094,-1 0,-2.073 0.932,-3.609 2.797,-4.609 0.739,-0.469 1.609,-0.735 2.609,-0.797 -1.271,-1.198 -2.906,-1.797 -4.906,-1.797 -2.062,0 -3.63,1.13 -4.703,3.391 -0.469,0.937 -1.266,4.406 -2.391,10.406 l -2.109,11.406 h 8.297 c 1.666,0 2.567,0.365 2.703,1.094 0,1.198 -0.531,1.865 -1.594,2 h -0.109 -1.297 z"
                           style="fill:#006400;fill-opacity:1;fill-rule:nonzero;stroke:none"
                           id="path6372" /><g
                           id="g6374"
                           transform="translate(59.8)"><path
                             d="m 33.094,24 v 0 c 0,0.667 -0.334,1 -1,1 -0.792,0 -2.558,-1.365 -5.297,-4.094 C 22.661,16.771 19.229,11.87 16.5,6.2031 12.104,-2.8698 9.9062,-13.271 9.9062,-25 c 0,-11.271 2.0988,-21.438 6.2968,-30.5 3.469,-7.396 7.87,-13.328 13.203,-17.797 1.396,-1.135 2.292,-1.703 2.688,-1.703 0.666,0 1,0.333 1,1 0,0.333 -0.433,0.901 -1.297,1.703 C 21.068,-61.37 15.703,-45.604 15.703,-25 c 0,20.5312 5.235,36.13 15.703,46.797 1.125,1.135 1.688,1.87 1.688,2.203 z"
                             style="fill:#006400;fill-opacity:1;fill-rule:nonzero;stroke:none"
                             id="path6376" /><g
                             id="g6378"
                             transform="translate(38.9)"><path
                               d="M 33.406,-30.203 30,-16.5 c -1.135,4.531 -1.703,7.4635 -1.703,8.7969 0,3.4687 1.234,5.5677 3.703,6.2969 0.531,0.2083 1.13,0.3124 1.797,0.3124 3.333,0 6.37,-1.6666 9.109,-5 1.792,-2.1354 3.188,-4.8382 4.188,-8.1092 0.208,-0.729 0.646,-1.094 1.312,-1.094 0.792,0 1.188,0.333 1.188,1 0,1.667 -1.032,4.068 -3.094,7.2032 -3.604,5.4584 -7.906,8.1876 -12.906,8.1876 -4.532,0 -7.828,-1.89588 -9.891,-5.6876 -0.406,-0.6041 -0.708,-1.2395 -0.906,-1.9062 -1.594,3.1979 -3.792,5.4323 -6.594,6.70312 -1.271,0.59376 -2.573,0.89068 -3.906,0.89068 -4.0001,0 -6.797,-1.166717 -8.3908,-3.5 -0.6666,-0.8646 -1,-1.8959 -1,-3.0938 0,-2.4688 1.0626,-4.2031 3.1876,-5.203 0.7395,-0.396 1.5104,-0.594 2.3124,-0.594 1.9998,0 3.1978,0.833 3.5938,2.5001 0.062,0.3334 0.094,0.6667 0.094,1 0,2.2604 -1.13,3.9271 -3.3909,5 -0.4062,0.1979 -0.8385,0.3281 -1.2969,0.3907 1.3959,0.875 3.0628,1.3124 4.9998,1.3124 3.532,0 6.328,-2.3697 8.391,-7.1093 0.406,-1 0.776,-2.0989 1.109,-3.2969 3.594,-13.604 5.391,-21.536 5.391,-23.797 -0.396,-4.135 -2.193,-6.37 -5.391,-6.703 -3.468,0 -6.635,1.766 -9.5,5.297 v 0.109 c 0,0.063 -0.036,0.094 -0.109,0.094 -1,1.333 -1.901,2.865 -2.7032,4.594 -0.3334,0.802 -0.6303,1.604 -0.8907,2.406 L 8.5,-28.906 c -0.1354,0.739 -0.5677,1.109 -1.2969,1.109 -0.8021,0 -1.2031,-0.333 -1.2031,-1 0,-1.667 1.0677,-4.068 3.2031,-7.203 3.5939,-5.469 7.8909,-8.203 12.8909,-8.203 5.135,0 8.739,2.536 10.812,7.609 2.125,-4.135 4.959,-6.604 8.5,-7.406 0.667,-0.135 1.334,-0.203 2,-0.203 3.927,0 6.693,1.099 8.297,3.297 0.667,0.937 1,2.041 1,3.312 0,2.729 -1.234,4.563 -3.703,5.5 -0.604,0.198 -1.172,0.297 -1.703,0.297 -2.063,0 -3.297,-0.901 -3.703,-2.703 -0.063,-0.271 -0.094,-0.536 -0.094,-0.797 0,-2 0.969,-3.568 2.906,-4.703 0.594,-0.333 1.224,-0.568 1.891,-0.703 -1.396,-0.865 -3.063,-1.297 -5,-1.297 -4.531,0 -7.729,3.531 -9.594,10.594 -0.135,0.406 -0.234,0.807 -0.297,1.203 z"
                               style="fill:#006400;fill-opacity:1;fill-rule:nonzero;stroke:none"
                               id="path6380" /><g
                               id="g6382"
                               transform="translate(57.2)"><path
                                 d="m 28.906,-25 v 0 c 0,11.271 -2.104,21.4375 -6.312,30.5 C 19.135,12.896 14.74,18.828 9.4062,23.297 8,24.432 7.099,25 6.7031,25 c -0.6666,0 -1,-0.333 -1,-1 C 5.7031,23.667 6.1354,23.099 7,22.297 17.729,11.37 23.094,-4.3958 23.094,-25 c 0,-20.333 -5,-35.734 -15.0002,-46.203 l -0.5,-0.5 C 6.3333,-72.901 5.7031,-73.667 5.7031,-74 c 0,-0.667 0.3334,-1 1,-1 0.8021,0 2.5677,1.365 5.2969,4.094 4.135,4.135 7.568,9.036 10.297,14.703 4.406,9.073 6.609,19.474 6.609,31.203 z"
                                 style="fill:#006400;fill-opacity:1;fill-rule:nonzero;stroke:none"
                                 id="path6384" /><g
                                 id="g6386"
                                 transform="matrix(5.2632,0,0,5.2632,-924.32,-680.26)"><g
                                   id="g6388"
                                   transform="scale(19)"><g
                                   id="g6390"
                                   transform="matrix(0.01,0,0,0.01,11.053,8.6447)"><path
                                   d="m 36.703,-40 v 0 l -6,31.7031 c -0.604,4.1354 -1.807,8.86982 -3.609,14.2031 -0.667,1.9271 -1.334,3.5573 -2,4.8908 -2.334,4.937 -5.229,8.005 -8.688,9.203 -0.875,0.333 -1.745,0.5 -2.609,0.5 -3.333,0 -5.797,-1.135 -7.3908,-3.406 -0.7395,-1 -1.1093,-2.167 -1.1093,-3.5 0,-2.667 1.1354,-4.5002 3.4062,-5.5002 0.6667,-0.3334 1.3649,-0.5 2.0939,-0.5 1.937,0 3.141,0.8333 3.609,2.5002 0.063,0.333 0.094,0.666 0.094,1 0,2.271 -1,3.875 -3,4.812 -0.729,0.334 -1.5625,0.532 -2.5,0.594 1.271,1.198 2.87,1.797 4.797,1.797 2.937,0 5.239,-3.266 6.906,-9.797 0.333,-1.5312 0.735,-3.5312 1.203,-6 L 22.5,-0.5 30,-40 h -6.594 c -1.666,0 -2.567,-0.266 -2.703,-0.797 h -0.109 v -0.406 c 0,-1.136 0.567,-1.766 1.703,-1.891 v 0 h 1.297 6.906 c 1.604,-8.333 2.703,-13.567 3.297,-15.703 2,-6.667 5.536,-10.5 10.609,-11.5 0.729,-0.135 1.427,-0.203 2.094,-0.203 3.469,0 6,1.135 7.594,3.406 v 0 c 0.739,1 1.109,2.167 1.109,3.5 0,2.667 -1.135,4.5 -3.406,5.5 -0.667,0.334 -1.365,0.5 -2.094,0.5 -1.937,0 -3.141,-0.833 -3.609,-2.5 -0.063,-0.333 -0.094,-0.666 -0.094,-1 0,-2.073 0.932,-3.609 2.797,-4.609 0.739,-0.469 1.609,-0.735 2.609,-0.797 -1.271,-1.198 -2.906,-1.797 -4.906,-1.797 -2.062,0 -3.63,1.13 -4.703,3.391 -0.469,0.937 -1.266,4.406 -2.391,10.406 l -2.109,11.406 h 8.297 c 1.666,0 2.567,0.365 2.703,1.094 0,1.198 -0.531,1.865 -1.594,2 h -0.109 -1.297 z"
                                   style="fill:#0000ff;fill-opacity:1;fill-rule:nonzero;stroke:none"
                                   id="path6392" /><g
                                   id="g6394"
                                   transform="translate(59.8)"><path
                                   d="m 33.094,24 v 0 c 0,0.667 -0.334,1 -1,1 -0.792,0 -2.558,-1.365 -5.297,-4.094 C 22.661,16.771 19.229,11.87 16.5,6.2031 12.104,-2.8698 9.9062,-13.271 9.9062,-25 c 0,-11.271 2.0988,-21.438 6.2968,-30.5 3.469,-7.396 7.87,-13.328 13.203,-17.797 1.396,-1.135 2.292,-1.703 2.688,-1.703 0.666,0 1,0.333 1,1 0,0.333 -0.433,0.901 -1.297,1.703 C 21.068,-61.37 15.703,-45.604 15.703,-25 c 0,20.5312 5.235,36.13 15.703,46.797 1.125,1.135 1.688,1.87 1.688,2.203 z"
                                   style="fill:#0000ff;fill-opacity:1;fill-rule:nonzero;stroke:none"
                                   id="path6396" /><g
                                   id="g6398"
                                   transform="translate(38.9)"><path
                                   d="M 33.406,-30.203 30,-16.5 c -1.135,4.531 -1.703,7.4635 -1.703,8.7969 0,3.4687 1.234,5.5677 3.703,6.2969 0.531,0.2083 1.13,0.3124 1.797,0.3124 3.333,0 6.37,-1.6666 9.109,-5 1.792,-2.1354 3.188,-4.8382 4.188,-8.1092 0.208,-0.729 0.646,-1.094 1.312,-1.094 0.792,0 1.188,0.333 1.188,1 0,1.667 -1.032,4.068 -3.094,7.2032 -3.604,5.4584 -7.906,8.1876 -12.906,8.1876 -4.532,0 -7.828,-1.89588 -9.891,-5.6876 -0.406,-0.6041 -0.708,-1.2395 -0.906,-1.9062 -1.594,3.1979 -3.792,5.4323 -6.594,6.70312 -1.271,0.59376 -2.573,0.89068 -3.906,0.89068 -4.0001,0 -6.797,-1.166717 -8.3908,-3.5 -0.6666,-0.8646 -1,-1.8959 -1,-3.0938 0,-2.4688 1.0626,-4.2031 3.1876,-5.203 0.7395,-0.396 1.5104,-0.594 2.3124,-0.594 1.9998,0 3.1978,0.833 3.5938,2.5001 0.062,0.3334 0.094,0.6667 0.094,1 0,2.2604 -1.13,3.9271 -3.3909,5 -0.4062,0.1979 -0.8385,0.3281 -1.2969,0.3907 1.3959,0.875 3.0628,1.3124 4.9998,1.3124 3.532,0 6.328,-2.3697 8.391,-7.1093 0.406,-1 0.776,-2.0989 1.109,-3.2969 3.594,-13.604 5.391,-21.536 5.391,-23.797 -0.396,-4.135 -2.193,-6.37 -5.391,-6.703 -3.468,0 -6.635,1.766 -9.5,5.297 v 0.109 c 0,0.063 -0.036,0.094 -0.109,0.094 -1,1.333 -1.901,2.865 -2.7032,4.594 -0.3334,0.802 -0.6303,1.604 -0.8907,2.406 L 8.5,-28.906 c -0.1354,0.739 -0.5677,1.109 -1.2969,1.109 -0.8021,0 -1.2031,-0.333 -1.2031,-1 0,-1.667 1.0677,-4.068 3.2031,-7.203 3.5939,-5.469 7.8909,-8.203 12.8909,-8.203 5.135,0 8.739,2.536 10.812,7.609 2.125,-4.135 4.959,-6.604 8.5,-7.406 0.667,-0.135 1.334,-0.203 2,-0.203 3.927,0 6.693,1.099 8.297,3.297 0.667,0.937 1,2.041 1,3.312 0,2.729 -1.234,4.563 -3.703,5.5 -0.604,0.198 -1.172,0.297 -1.703,0.297 -2.063,0 -3.297,-0.901 -3.703,-2.703 -0.063,-0.271 -0.094,-0.536 -0.094,-0.797 0,-2 0.969,-3.568 2.906,-4.703 0.594,-0.333 1.224,-0.568 1.891,-0.703 -1.396,-0.865 -3.063,-1.297 -5,-1.297 -4.531,0 -7.729,3.531 -9.594,10.594 -0.135,0.406 -0.234,0.807 -0.297,1.203 z"
                                   style="fill:#0000ff;fill-opacity:1;fill-rule:nonzero;stroke:none"
                                   id="path6400" /><g
                                   id="g6402"
                                   transform="translate(57.2)"><path
                                   d="m 28.906,-25 v 0 c 0,11.271 -2.104,21.4375 -6.312,30.5 C 19.135,12.896 14.74,18.828 9.4062,23.297 8,24.432 7.099,25 6.7031,25 c -0.6666,0 -1,-0.333 -1,-1 C 5.7031,23.667 6.1354,23.099 7,22.297 17.729,11.37 23.094,-4.3958 23.094,-25 c 0,-20.333 -5,-35.734 -15.0002,-46.203 l -0.5,-0.5 C 6.3333,-72.901 5.7031,-73.667 5.7031,-74 c 0,-0.667 0.3334,-1 1,-1 0.8021,0 2.5677,1.365 5.2969,4.094 4.135,4.135 7.568,9.036 10.297,14.703 4.406,9.073 6.609,19.474 6.609,31.203 z"
                                   style="fill:#0000ff;fill-opacity:1;fill-rule:nonzero;stroke:none"
                                   id="path6404" /><g
                                   id="g6406"
                                   transform="translate(55.5)"><path
                                   d="m 66.094,-23 h -54.5 c -2.1252,0 -3.2242,-0.667 -3.2971,-2 0,-1.333 1.0989,-2 3.2971,-2 h 54.5 c 2.135,0 3.239,0.667 3.312,2 0,1.333 -1.104,2 -3.312,2 z"
                                   style="fill:#0000ff;fill-opacity:1;fill-rule:nonzero;stroke:none"
                                   id="path6408" /><g
                                   id="g6410"
                                   transform="translate(100.1)"><path
                                   d="m 37.297,-37.797 c 0.333,-2.271 1.37,-3.672 3.109,-4.203 0.334,-0.135 0.698,-0.203 1.094,-0.203 1.729,0 2.698,0.901 2.906,2.703 0,0.396 -0.234,1.531 -0.703,3.406 l -3.609,14 c -1,4.198 -1.729,7.198 -2.188,9 -0.875,3.4586 -1.312,5.9221 -1.312,7.3909 0,3.0729 1,4.6093 3,4.6093 2.541,0 4.677,-2.6666 6.406,-8 0.333,-1.1352 0.734,-2.6042 1.203,-4.4062 0.531,-1.135 0.995,-1.734 1.391,-1.797 0.802,0 1.203,0.333 1.203,1 0,1 -0.599,3.333 -1.797,7.0001 -0.396,1.1354 -0.797,2.099 -1.203,2.8907 -1.865,3.66662 -4.328,5.5 -7.391,5.5 -3.739,0 -6.442,-1.59901 -8.109,-4.7969 -0.469,-0.8021 -0.802,-1.7031 -1,-2.7031 -4.198,5 -8.531,7.5 -13,7.5 -5,0 -8.698,-2.2657 -11.0939,-6.7969 C 4.7344,-8.3698 4,-11.438 4,-14.906 c 0,-7.198 2.5,-13.865 7.5,-20 4.667,-5.594 9.734,-8.656 15.203,-9.188 0.469,-0.073 0.932,-0.109 1.391,-0.109 4.073,0 7.14,2.135 9.203,6.406 z m -6.5,25.891 v 0 l 5,-19.594 c 0.198,-1 0.297,-1.568 0.297,-1.703 0,-1.396 -0.599,-3.094 -1.797,-5.094 -1.469,-2.469 -3.5,-3.703 -6.094,-3.703 -3.469,0 -6.771,2.266 -9.906,6.797 -0.594,0.864 -1.162,1.797 -1.703,2.797 -1.927,3.875 -3.558,9.375 -4.891,16.5 -0.406,2.271 -0.609,4.073 -0.609,5.406 0,4.5312 1.271,7.4635 3.812,8.7969 0.729,0.4062 1.594,0.6093 2.594,0.6093 3.729,0 7.495,-2.3697 11.297,-7.1093 0.937,-1.0625 1.573,-2.1619 1.906,-3.2969 v -0.094 c 0.063,-0.135 0.094,-0.239 0.094,-0.312 z"
                                   style="fill:#0000ff;fill-opacity:1;fill-rule:nonzero;stroke:none"
                                   id="path6412" /><g
                                   id="g6414"
                                   transform="matrix(5.2632,0,0,5.2632,-1416.8,-864.47)"><g
                                   id="g6416"
                                   transform="scale(19)"><g
                                   id="g6418"
                                   transform="matrix(0.01,0,0,0.01,3.2105,4.8026)"><path
                                   d="m 36.703,-40 v 0 l -6,31.7031 c -0.604,4.1354 -1.807,8.86982 -3.609,14.2031 -0.667,1.9271 -1.334,3.5573 -2,4.8908 -2.334,4.937 -5.229,8.005 -8.688,9.203 -0.875,0.333 -1.745,0.5 -2.609,0.5 -3.333,0 -5.797,-1.135 -7.3908,-3.406 -0.7395,-1 -1.1093,-2.167 -1.1093,-3.5 0,-2.667 1.1354,-4.5002 3.4062,-5.5002 0.6667,-0.3334 1.3649,-0.5 2.0939,-0.5 1.937,0 3.141,0.8333 3.609,2.5002 0.063,0.333 0.094,0.666 0.094,1 0,2.271 -1,3.875 -3,4.812 -0.729,0.334 -1.5625,0.532 -2.5,0.594 1.271,1.198 2.87,1.797 4.797,1.797 2.937,0 5.239,-3.266 6.906,-9.797 0.333,-1.5312 0.735,-3.5312 1.203,-6 L 22.5,-0.5 30,-40 h -6.594 c -1.666,0 -2.567,-0.266 -2.703,-0.797 h -0.109 v -0.406 c 0,-1.136 0.567,-1.766 1.703,-1.891 v 0 h 1.297 6.906 c 1.604,-8.333 2.703,-13.567 3.297,-15.703 2,-6.667 5.536,-10.5 10.609,-11.5 0.729,-0.135 1.427,-0.203 2.094,-0.203 3.469,0 6,1.135 7.594,3.406 v 0 c 0.739,1 1.109,2.167 1.109,3.5 0,2.667 -1.135,4.5 -3.406,5.5 -0.667,0.334 -1.365,0.5 -2.094,0.5 -1.937,0 -3.141,-0.833 -3.609,-2.5 -0.063,-0.333 -0.094,-0.666 -0.094,-1 0,-2.073 0.932,-3.609 2.797,-4.609 0.739,-0.469 1.609,-0.735 2.609,-0.797 -1.271,-1.198 -2.906,-1.797 -4.906,-1.797 -2.062,0 -3.63,1.13 -4.703,3.391 -0.469,0.937 -1.266,4.406 -2.391,10.406 l -2.109,11.406 h 8.297 c 1.666,0 2.567,0.365 2.703,1.094 0,1.198 -0.531,1.865 -1.594,2 h -0.109 -1.297 z"
                                   style="fill:#ff0000;fill-opacity:1;fill-rule:nonzero;stroke:none"
                                   id="path6420" /><g
                                   id="g6422"
                                   transform="translate(59.8)"><path
                                   d="m 33.094,24 v 0 c 0,0.667 -0.334,1 -1,1 -0.792,0 -2.558,-1.365 -5.297,-4.094 C 22.661,16.771 19.229,11.87 16.5,6.2031 12.104,-2.8698 9.9062,-13.271 9.9062,-25 c 0,-11.271 2.0988,-21.438 6.2968,-30.5 3.469,-7.396 7.87,-13.328 13.203,-17.797 1.396,-1.135 2.292,-1.703 2.688,-1.703 0.666,0 1,0.333 1,1 0,0.333 -0.433,0.901 -1.297,1.703 C 21.068,-61.37 15.703,-45.604 15.703,-25 c 0,20.5312 5.235,36.13 15.703,46.797 1.125,1.135 1.688,1.87 1.688,2.203 z"
                                   style="fill:#ff0000;fill-opacity:1;fill-rule:nonzero;stroke:none"
                                   id="path6424" /><g
                                   id="g6426"
                                   transform="translate(38.9)"><path
                                   d="M 33.406,-30.203 30,-16.5 c -1.135,4.531 -1.703,7.4635 -1.703,8.7969 0,3.4687 1.234,5.5677 3.703,6.2969 0.531,0.2083 1.13,0.3124 1.797,0.3124 3.333,0 6.37,-1.6666 9.109,-5 1.792,-2.1354 3.188,-4.8382 4.188,-8.1092 0.208,-0.729 0.646,-1.094 1.312,-1.094 0.792,0 1.188,0.333 1.188,1 0,1.667 -1.032,4.068 -3.094,7.2032 -3.604,5.4584 -7.906,8.1876 -12.906,8.1876 -4.532,0 -7.828,-1.89588 -9.891,-5.6876 -0.406,-0.6041 -0.708,-1.2395 -0.906,-1.9062 -1.594,3.1979 -3.792,5.4323 -6.594,6.70312 -1.271,0.59376 -2.573,0.89068 -3.906,0.89068 -4.0001,0 -6.797,-1.166717 -8.3908,-3.5 -0.6666,-0.8646 -1,-1.8959 -1,-3.0938 0,-2.4688 1.0626,-4.2031 3.1876,-5.203 0.7395,-0.396 1.5104,-0.594 2.3124,-0.594 1.9998,0 3.1978,0.833 3.5938,2.5001 0.062,0.3334 0.094,0.6667 0.094,1 0,2.2604 -1.13,3.9271 -3.3909,5 -0.4062,0.1979 -0.8385,0.3281 -1.2969,0.3907 1.3959,0.875 3.0628,1.3124 4.9998,1.3124 3.532,0 6.328,-2.3697 8.391,-7.1093 0.406,-1 0.776,-2.0989 1.109,-3.2969 3.594,-13.604 5.391,-21.536 5.391,-23.797 -0.396,-4.135 -2.193,-6.37 -5.391,-6.703 -3.468,0 -6.635,1.766 -9.5,5.297 v 0.109 c 0,0.063 -0.036,0.094 -0.109,0.094 -1,1.333 -1.901,2.865 -2.7032,4.594 -0.3334,0.802 -0.6303,1.604 -0.8907,2.406 L 8.5,-28.906 c -0.1354,0.739 -0.5677,1.109 -1.2969,1.109 -0.8021,0 -1.2031,-0.333 -1.2031,-1 0,-1.667 1.0677,-4.068 3.2031,-7.203 3.5939,-5.469 7.8909,-8.203 12.8909,-8.203 5.135,0 8.739,2.536 10.812,7.609 2.125,-4.135 4.959,-6.604 8.5,-7.406 0.667,-0.135 1.334,-0.203 2,-0.203 3.927,0 6.693,1.099 8.297,3.297 0.667,0.937 1,2.041 1,3.312 0,2.729 -1.234,4.563 -3.703,5.5 -0.604,0.198 -1.172,0.297 -1.703,0.297 -2.063,0 -3.297,-0.901 -3.703,-2.703 -0.063,-0.271 -0.094,-0.536 -0.094,-0.797 0,-2 0.969,-3.568 2.906,-4.703 0.594,-0.333 1.224,-0.568 1.891,-0.703 -1.396,-0.865 -3.063,-1.297 -5,-1.297 -4.531,0 -7.729,3.531 -9.594,10.594 -0.135,0.406 -0.234,0.807 -0.297,1.203 z"
                                   style="fill:#ff0000;fill-opacity:1;fill-rule:nonzero;stroke:none"
                                   id="path6428" /><g
                                   id="g6430"
                                   transform="translate(57.2)"><path
                                   d="m 28.906,-25 v 0 c 0,11.271 -2.104,21.4375 -6.312,30.5 C 19.135,12.896 14.74,18.828 9.4062,23.297 8,24.432 7.099,25 6.7031,25 c -0.6666,0 -1,-0.333 -1,-1 C 5.7031,23.667 6.1354,23.099 7,22.297 17.729,11.37 23.094,-4.3958 23.094,-25 c 0,-20.333 -5,-35.734 -15.0002,-46.203 l -0.5,-0.5 C 6.3333,-72.901 5.7031,-73.667 5.7031,-74 c 0,-0.667 0.3334,-1 1,-1 0.8021,0 2.5677,1.365 5.2969,4.094 4.135,4.135 7.568,9.036 10.297,14.703 4.406,9.073 6.609,19.474 6.609,31.203 z"
                                   style="fill:#ff0000;fill-opacity:1;fill-rule:nonzero;stroke:none"
                                   id="path6432" /><g
                                   id="g6434"
                                   transform="translate(55.57)"><path
                                   d="M 40.906,-23 V 5 c 0,2.1354 -0.666,3.2344 -2,3.2969 -1.333,0 -2,-1.099 -2,-3.2969 V -23 H 8.9062 c -2.1354,0 -3.2395,-0.667 -3.3124,-2 0,-1.333 1.1041,-2 3.3124,-2 H 36.906 v -28 c 0,-2.135 0.667,-3.234 2,-3.297 1.334,0 2,1.099 2,3.297 v 28 h 27.891 c 2.135,0 3.234,0.667 3.297,2 0,1.333 -1.099,2 -3.297,2 z"
                                   style="fill:#ff0000;fill-opacity:1;fill-rule:nonzero;stroke:none"
                                   id="path6436" /><g
                                   id="g6438"
                                   transform="translate(100.02)"><path
                                   d="m 37.297,-37.797 c 0.333,-2.271 1.37,-3.672 3.109,-4.203 0.334,-0.135 0.698,-0.203 1.094,-0.203 1.729,0 2.698,0.901 2.906,2.703 0,0.396 -0.234,1.531 -0.703,3.406 l -3.609,14 c -1,4.198 -1.729,7.198 -2.188,9 -0.875,3.4586 -1.312,5.9221 -1.312,7.3909 0,3.0729 1,4.6093 3,4.6093 2.541,0 4.677,-2.6666 6.406,-8 0.333,-1.1352 0.734,-2.6042 1.203,-4.4062 0.531,-1.135 0.995,-1.734 1.391,-1.797 0.802,0 1.203,0.333 1.203,1 0,1 -0.599,3.333 -1.797,7.0001 -0.396,1.1354 -0.797,2.099 -1.203,2.8907 -1.865,3.66662 -4.328,5.5 -7.391,5.5 -3.739,0 -6.442,-1.59901 -8.109,-4.7969 -0.469,-0.8021 -0.802,-1.7031 -1,-2.7031 -4.198,5 -8.531,7.5 -13,7.5 -5,0 -8.698,-2.2657 -11.0939,-6.7969 C 4.7344,-8.3698 4,-11.438 4,-14.906 c 0,-7.198 2.5,-13.865 7.5,-20 4.667,-5.594 9.734,-8.656 15.203,-9.188 0.469,-0.073 0.932,-0.109 1.391,-0.109 4.073,0 7.14,2.135 9.203,6.406 z m -6.5,25.891 v 0 l 5,-19.594 c 0.198,-1 0.297,-1.568 0.297,-1.703 0,-1.396 -0.599,-3.094 -1.797,-5.094 -1.469,-2.469 -3.5,-3.703 -6.094,-3.703 -3.469,0 -6.771,2.266 -9.906,6.797 -0.594,0.864 -1.162,1.797 -1.703,2.797 -1.927,3.875 -3.558,9.375 -4.891,16.5 -0.406,2.271 -0.609,4.073 -0.609,5.406 0,4.5312 1.271,7.4635 3.812,8.7969 0.729,0.4062 1.594,0.6093 2.594,0.6093 3.729,0 7.495,-2.3697 11.297,-7.1093 0.937,-1.0625 1.573,-2.1619 1.906,-3.2969 v -0.094 c 0.063,-0.135 0.094,-0.239 0.094,-0.312 z"
                                   style="fill:#ff0000;fill-opacity:1;fill-rule:nonzero;stroke:none"
                                   id="path6440" /><g
                                   id="g6442"
                                   transform="matrix(5.2632,0,0,5.2632,-632.54,-480.26)" /></g></g></g></g></g></g></g></g></g></g></g></g></g></g></g></g></g></g></g></g></g></g></g><g
                   id="g6444"
                   transform="scale(0.56693)" /></g></g></g></g></g></g></g></svg>
