<?xml version="1.0" encoding="UTF-8" standalone="no"?>
<svg
   xmlns:dc="http://purl.org/dc/elements/1.1/"
   xmlns:cc="http://creativecommons.org/ns#"
   xmlns:rdf="http://www.w3.org/1999/02/22-rdf-syntax-ns#"
   xmlns:svg="http://www.w3.org/2000/svg"
   xmlns="http://www.w3.org/2000/svg"
   xmlns:sodipodi="http://sodipodi.sourceforge.net/DTD/sodipodi-0.dtd"
   xmlns:inkscape="http://www.inkscape.org/namespaces/inkscape"
   version="1.1"
   id="svg348"
   xml:space="preserve"
   width="190.66667"
   height="40"
   viewBox="0 0 190.66667 40"
   sodipodi:docname="2020-1009-2120-crop.pdf"><metadata
     id="metadata354"><rdf:RDF><cc:Work
         rdf:about=""><dc:format>image/svg+xml</dc:format><dc:type
           rdf:resource="http://purl.org/dc/dcmitype/StillImage" /></cc:Work></rdf:RDF></metadata><defs
     id="defs352"><clipPath
       clipPathUnits="userSpaceOnUse"
       id="clipPath366"><path
         d="M 0,0 H 181 V 316 H 0 Z"
         id="path364" /></clipPath><clipPath
       clipPathUnits="userSpaceOnUse"
       id="clipPath376"><path
         d="M 0,0 H 181 V 316 H 0 Z"
         id="path374" /></clipPath><clipPath
       clipPathUnits="userSpaceOnUse"
       id="clipPath388"><path
         d="M 0,0 V 316 H 181 V 0 Z"
         id="path386" /></clipPath><clipPath
       clipPathUnits="userSpaceOnUse"
       id="clipPath398"><path
         d="M 0,0 H 321 V 559 H 0 Z"
         id="path396" /></clipPath></defs><sodipodi:namedview
     pagecolor="#ffffff"
     bordercolor="#666666"
     borderopacity="1"
     objecttolerance="10"
     gridtolerance="10"
     guidetolerance="10"
     inkscape:pageopacity="0"
     inkscape:pageshadow="2"
     inkscape:window-width="640"
     inkscape:window-height="480"
     id="namedview350" /><g
     id="g356"
     inkscape:groupmode="layer"
     inkscape:label="2020-1009-2120-crop"
     transform="matrix(1.3333333,0,0,-1.3333333,0,40)"><g
       id="g358"
       transform="translate(-19,-133)"><g
         id="g360"><g
           id="g362"
           clip-path="url(#clipPath366)"><g
             id="g368"
             transform="matrix(0.77901,0,0,-0.77901,20,281.08)"><g
               id="g370"><g
                 id="g372"
                 clip-path="url(#clipPath376)"><g
                   id="g378"><g
                     id="g380" /></g><g
                   id="g382"><g
                     id="g384"
                     clip-path="url(#clipPath388)"><g
                       id="g390"
                       transform="scale(0.56693)" /></g></g><g
                   id="g392"
                   transform="scale(0.56693)"><g
                     id="g394"
                     clip-path="url(#clipPath398)"><path
                       d="M 0,0 H 321 V 559 H 0 Z"
                       style="fill:#ffffff;fill-opacity:1;fill-rule:nonzero;stroke:none"
                       id="path400" /><path
                       d="M 0,308 H 319"
                       style="fill:none;stroke:#000000;stroke-width:1;stroke-linecap:butt;stroke-linejoin:miter;stroke-miterlimit:10;stroke-dasharray:none;stroke-opacity:1"
                       id="path402" /><path
                       d="m 320,308 -4,-4"
                       style="fill:none;stroke:#000000;stroke-width:1;stroke-linecap:butt;stroke-linejoin:miter;stroke-miterlimit:10;stroke-dasharray:none;stroke-opacity:1"
                       id="path404" /><path
                       d="m 320,308 -4,4"
                       style="fill:none;stroke:#000000;stroke-width:1;stroke-linecap:butt;stroke-linejoin:miter;stroke-miterlimit:10;stroke-dasharray:none;stroke-opacity:1"
                       id="path406" /><path
                       d="M 40,308 V 293"
                       style="fill:none;stroke:#000000;stroke-width:2.5;stroke-linecap:round;stroke-linejoin:round;stroke-miterlimit:10;stroke-dasharray:none;stroke-opacity:0.69804"
                       id="path408" /><path
                       d="M 232,308 V 293"
                       style="fill:none;stroke:#000000;stroke-width:2.5;stroke-linecap:round;stroke-linejoin:round;stroke-miterlimit:10;stroke-dasharray:none;stroke-opacity:0.69804"
                       id="path410" /><path
                       d="M 160,293 H 57"
                       style="fill:none;stroke:#000000;stroke-width:2.5;stroke-linecap:round;stroke-linejoin:round;stroke-miterlimit:10;stroke-dasharray:none;stroke-opacity:0.69804"
                       id="path412" /><path
                       d="m 40,293 17,-4.25 v 8.5 z"
                       style="fill:#000000;fill-opacity:0.69804;fill-rule:evenodd;stroke:none"
                       id="path414" /><g
                       id="g416"
                       transform="scale(19)"><g
                         id="g418"
                         transform="matrix(0.01,0,0,0.01,5.6316,14.855)"><path
                           d="m 15.906,-71.703 v 93.406 c 0,2.136 -0.666,3.235 -2,3.297 -1.333,0 -2,-1.099 -2,-3.297 v -93.406 c 0,-2.136 0.667,-3.235 2,-3.297 1.334,0 2,1.099 2,3.297 z"
                           style="fill:#000000;fill-opacity:1;fill-rule:nonzero;stroke:none"
                           id="path420" /><g
                           id="g422"
                           transform="translate(27.8)"><path
                             d="M 33.406,-30.203 30,-16.5 c -1.135,4.531 -1.703,7.4635 -1.703,8.7969 0,3.4687 1.234,5.5677 3.703,6.2969 0.531,0.2083 1.13,0.3124 1.797,0.3124 3.333,0 6.37,-1.6666 9.109,-5 1.792,-2.1354 3.188,-4.8382 4.188,-8.1092 0.208,-0.729 0.646,-1.094 1.312,-1.094 0.792,0 1.188,0.333 1.188,1 0,1.667 -1.032,4.068 -3.094,7.2032 -3.604,5.4584 -7.906,8.1876 -12.906,8.1876 -4.532,0 -7.828,-1.89588 -9.891,-5.6876 -0.406,-0.6041 -0.708,-1.2395 -0.906,-1.9062 -1.594,3.1979 -3.792,5.4323 -6.594,6.70312 -1.271,0.59376 -2.573,0.89068 -3.906,0.89068 -4.0001,0 -6.797,-1.166717 -8.3908,-3.5 -0.6666,-0.8646 -1,-1.8959 -1,-3.0938 0,-2.4688 1.0626,-4.2031 3.1876,-5.203 0.7395,-0.396 1.5104,-0.594 2.3124,-0.594 1.9998,0 3.1978,0.833 3.5938,2.5001 0.062,0.3334 0.094,0.6667 0.094,1 0,2.2604 -1.13,3.9271 -3.3909,5 -0.4062,0.1979 -0.8385,0.3281 -1.2969,0.3907 1.3959,0.875 3.0628,1.3124 4.9998,1.3124 3.532,0 6.328,-2.3697 8.391,-7.1093 0.406,-1 0.776,-2.0989 1.109,-3.2969 3.594,-13.604 5.391,-21.536 5.391,-23.797 -0.396,-4.135 -2.193,-6.37 -5.391,-6.703 -3.468,0 -6.635,1.766 -9.5,5.297 v 0.109 c 0,0.063 -0.036,0.094 -0.109,0.094 -1,1.333 -1.901,2.865 -2.7032,4.594 -0.3334,0.802 -0.6303,1.604 -0.8907,2.406 L 8.5,-28.906 c -0.1354,0.739 -0.5677,1.109 -1.2969,1.109 -0.8021,0 -1.2031,-0.333 -1.2031,-1 0,-1.667 1.0677,-4.068 3.2031,-7.203 3.5939,-5.469 7.8909,-8.203 12.8909,-8.203 5.135,0 8.739,2.536 10.812,7.609 2.125,-4.135 4.959,-6.604 8.5,-7.406 0.667,-0.135 1.334,-0.203 2,-0.203 3.927,0 6.693,1.099 8.297,3.297 0.667,0.937 1,2.041 1,3.312 0,2.729 -1.234,4.563 -3.703,5.5 -0.604,0.198 -1.172,0.297 -1.703,0.297 -2.063,0 -3.297,-0.901 -3.703,-2.703 -0.063,-0.271 -0.094,-0.536 -0.094,-0.797 0,-2 0.969,-3.568 2.906,-4.703 0.594,-0.333 1.224,-0.568 1.891,-0.703 -1.396,-0.865 -3.063,-1.297 -5,-1.297 -4.531,0 -7.729,3.531 -9.594,10.594 -0.135,0.406 -0.234,0.807 -0.297,1.203 z"
                             style="fill:#000000;fill-opacity:1;fill-rule:nonzero;stroke:none"
                             id="path424" /><g
                             id="g426"
                             transform="matrix(0.7,0,0,0.7,57.2,15)"><path
                               d="m 29.406,-64 v 56.0938 c 0,2 0.396,3.2708 1.188,3.8124 1.135,0.6667 3.838,1 8.109,1 h 3.203 V 0 C 39.573,-0.19792 34.172,-0.29688 25.703,-0.29688 17.234,-0.29688 11.833,-0.19792 9.5,0 v -3.0938 h 3.203 c 5.136,0 8.068,-0.6041 8.797,-1.8124 L 21.594,-5 C 21.865,-5.5312 22,-6.5 22,-7.9062 V -59.703 c -3.469,1.739 -7.833,2.609 -13.0938,2.609 v -3.109 c 7.9998,0 14.0628,-2.13 18.1878,-6.391 1.271,0 2.005,0.229 2.203,0.688 v 0 0.109 c 0.073,0.198 0.109,0.797 0.109,1.797 z"
                               style="fill:#000000;fill-opacity:1;fill-rule:nonzero;stroke:none"
                               id="path428" /><g
                               id="g430"
                               transform="matrix(1.4286,0,0,1.4286,81.765868,-21.4147)"><path
                                 d="m 66.094,-23 h -54.5 c -2.1252,0 -3.2242,-0.667 -3.2971,-2 0,-1.333 1.0989,-2 3.2971,-2 h 54.5 c 2.135,0 3.239,0.667 3.312,2 0,1.333 -1.104,2 -3.312,2 z"
                                 style="fill:#000000;fill-opacity:1;fill-rule:nonzero;stroke:none"
                                 id="path432" /><g
                                 id="g434"
                                 transform="translate(100.02)"><path
                                   d="M 33.406,-30.203 30,-16.5 c -1.135,4.531 -1.703,7.4635 -1.703,8.7969 0,3.4687 1.234,5.5677 3.703,6.2969 0.531,0.2083 1.13,0.3124 1.797,0.3124 3.333,0 6.37,-1.6666 9.109,-5 1.792,-2.1354 3.188,-4.8382 4.188,-8.1092 0.208,-0.729 0.646,-1.094 1.312,-1.094 0.792,0 1.188,0.333 1.188,1 0,1.667 -1.032,4.068 -3.094,7.2032 -3.604,5.4584 -7.906,8.1876 -12.906,8.1876 -4.532,0 -7.828,-1.89588 -9.891,-5.6876 -0.406,-0.6041 -0.708,-1.2395 -0.906,-1.9062 -1.594,3.1979 -3.792,5.4323 -6.594,6.70312 -1.271,0.59376 -2.573,0.89068 -3.906,0.89068 -4.0001,0 -6.797,-1.166717 -8.3908,-3.5 -0.6666,-0.8646 -1,-1.8959 -1,-3.0938 0,-2.4688 1.0626,-4.2031 3.1876,-5.203 0.7395,-0.396 1.5104,-0.594 2.3124,-0.594 1.9998,0 3.1978,0.833 3.5938,2.5001 0.062,0.3334 0.094,0.6667 0.094,1 0,2.2604 -1.13,3.9271 -3.3909,5 -0.4062,0.1979 -0.8385,0.3281 -1.2969,0.3907 1.3959,0.875 3.0628,1.3124 4.9998,1.3124 3.532,0 6.328,-2.3697 8.391,-7.1093 0.406,-1 0.776,-2.0989 1.109,-3.2969 3.594,-13.604 5.391,-21.536 5.391,-23.797 -0.396,-4.135 -2.193,-6.37 -5.391,-6.703 -3.468,0 -6.635,1.766 -9.5,5.297 v 0.109 c 0,0.063 -0.036,0.094 -0.109,0.094 -1,1.333 -1.901,2.865 -2.7032,4.594 -0.3334,0.802 -0.6303,1.604 -0.8907,2.406 L 8.5,-28.906 c -0.1354,0.739 -0.5677,1.109 -1.2969,1.109 -0.8021,0 -1.2031,-0.333 -1.2031,-1 0,-1.667 1.0677,-4.068 3.2031,-7.203 3.5939,-5.469 7.8909,-8.203 12.8909,-8.203 5.135,0 8.739,2.536 10.812,7.609 2.125,-4.135 4.959,-6.604 8.5,-7.406 0.667,-0.135 1.334,-0.203 2,-0.203 3.927,0 6.693,1.099 8.297,3.297 0.667,0.937 1,2.041 1,3.312 0,2.729 -1.234,4.563 -3.703,5.5 -0.604,0.198 -1.172,0.297 -1.703,0.297 -2.063,0 -3.297,-0.901 -3.703,-2.703 -0.063,-0.271 -0.094,-0.536 -0.094,-0.797 0,-2 0.969,-3.568 2.906,-4.703 0.594,-0.333 1.224,-0.568 1.891,-0.703 -1.396,-0.865 -3.063,-1.297 -5,-1.297 -4.531,0 -7.729,3.531 -9.594,10.594 -0.135,0.406 -0.234,0.807 -0.297,1.203 z"
                                   style="fill:#000000;fill-opacity:1;fill-rule:nonzero;stroke:none"
                                   id="path436" /><g
                                   id="g438"
                                   transform="matrix(0.7,0,0,0.7,57.2,15)"><path
                                   d="m 44.906,-17.406 v 0 L 42.094,0 H 5 c 0,-1.6667 0.1979,-2.7344 0.5938,-3.2031 l 0.5,-0.5 19.2032,-21.3909 c 7,-7.875 10.5,-15.245 10.5,-22.109 0,-5.927 -1.797,-10.427 -5.391,-13.5 l -0.109,-0.094 h -0.094 c -2.135,-1.802 -4.734,-2.703 -7.797,-2.703 -4.802,0 -8.635,2.068 -11.5,6.203 -0.802,1.198 -1.4685,2.531 -1.9998,4 0.198,-0.073 0.6303,-0.109 1.2968,-0.109 2.667,0 4.365,1.203 5.094,3.609 v 0.094 c 0.135,0.469 0.203,0.969 0.203,1.5 0,2.667 -1.266,4.37 -3.797,5.109 -0.531,0.125 -1,0.188 -1.406,0.188 -2.4689,0 -4.0991,-1.032 -4.8908,-3.094 C 5.1354,-46.729 5,-47.562 5,-48.5 c 0,-5.135 1.9688,-9.536 5.906,-13.203 3.532,-3.261 7.797,-4.891 12.797,-4.891 7.333,0 13.031,2.464 17.094,7.391 2.333,2.864 3.667,6.265 4,10.203 0.073,0.604 0.109,1.203 0.109,1.797 0,4.864 -1.833,9.5 -5.5,13.906 -1.937,2.261 -4.937,5.261 -9,9 l -6.109,5.391 -1,0.906 -10.594,10.2969 h 18 c 5.865,0 9.031,-0.2657 9.5,-0.7969 0.667,-0.9375 1.401,-3.906 2.203,-8.906 z"
                                   style="fill:#000000;fill-opacity:1;fill-rule:nonzero;stroke:none"
                                   id="path440" /><g
                                   id="g442"
                                   transform="matrix(1.4286,0,0,1.4286,50.01136,-21.4147)"><path
                                   d="m 15.906,-71.703 v 93.406 c 0,2.136 -0.666,3.235 -2,3.297 -1.333,0 -2,-1.099 -2,-3.297 v -93.406 c 0,-2.136 0.667,-3.235 2,-3.297 1.334,0 2,1.099 2,3.297 z"
                                   style="fill:#000000;fill-opacity:1;fill-rule:nonzero;stroke:none"
                                   id="path444" /><g
                                   id="g446"
                                   transform="matrix(5.2632,0,0,5.2632,-897.6,-1485.5)"><path
                                   d="m 160,293 h 55"
                                   style="fill:none;stroke:#000000;stroke-width:2.5;stroke-linecap:round;stroke-linejoin:round;stroke-miterlimit:10;stroke-dasharray:none;stroke-opacity:0.69804"
                                   id="path448" /><path
                                   d="m 232,293 -17,4.25 v -8.5 z"
                                   style="fill:#000000;fill-opacity:0.69804;fill-rule:evenodd;stroke:none"
                                   id="path450" /><path
                                   d="m 235,308 c 0,1.66 -1.34,3 -3,3 -1.66,0 -3,-1.34 -3,-3 0,-1.66 1.34,-3 3,-3 1.66,0 3,1.34 3,3 z"
                                   style="fill:#0000ff;fill-opacity:1;fill-rule:nonzero;stroke:none"
                                   id="path452" /><path
                                   d="m 235,308 c 0,1.66 -1.34,3 -3,3 -1.66,0 -3,-1.34 -3,-3 0,-1.66 1.34,-3 3,-3 1.66,0 3,1.34 3,3 z"
                                   style="fill:none;stroke:#000000;stroke-width:1;stroke-linecap:round;stroke-linejoin:round;stroke-miterlimit:10;stroke-dasharray:none;stroke-opacity:1"
                                   id="path454" /><g
                                   id="g456"
                                   transform="scale(19)"><g
                                   id="g458"
                                   transform="matrix(0.01,0,0,0.01,12,17.273)"><path
                                   d="M 33.406,-30.203 30,-16.5 c -1.135,4.531 -1.703,7.4635 -1.703,8.7969 0,3.4687 1.234,5.5677 3.703,6.2969 0.531,0.2083 1.13,0.3124 1.797,0.3124 3.333,0 6.37,-1.6666 9.109,-5 1.792,-2.1354 3.188,-4.8382 4.188,-8.1092 0.208,-0.729 0.646,-1.094 1.312,-1.094 0.792,0 1.188,0.333 1.188,1 0,1.667 -1.032,4.068 -3.094,7.2032 -3.604,5.4584 -7.906,8.1876 -12.906,8.1876 -4.532,0 -7.828,-1.89588 -9.891,-5.6876 -0.406,-0.6041 -0.708,-1.2395 -0.906,-1.9062 -1.594,3.1979 -3.792,5.4323 -6.594,6.70312 -1.271,0.59376 -2.573,0.89068 -3.906,0.89068 -4.0001,0 -6.797,-1.166717 -8.3908,-3.5 -0.6666,-0.8646 -1,-1.8959 -1,-3.0938 0,-2.4688 1.0626,-4.2031 3.1876,-5.203 0.7395,-0.396 1.5104,-0.594 2.3124,-0.594 1.9998,0 3.1978,0.833 3.5938,2.5001 0.062,0.3334 0.094,0.6667 0.094,1 0,2.2604 -1.13,3.9271 -3.3909,5 -0.4062,0.1979 -0.8385,0.3281 -1.2969,0.3907 1.3959,0.875 3.0628,1.3124 4.9998,1.3124 3.532,0 6.328,-2.3697 8.391,-7.1093 0.406,-1 0.776,-2.0989 1.109,-3.2969 3.594,-13.604 5.391,-21.536 5.391,-23.797 -0.396,-4.135 -2.193,-6.37 -5.391,-6.703 -3.468,0 -6.635,1.766 -9.5,5.297 v 0.109 c 0,0.063 -0.036,0.094 -0.109,0.094 -1,1.333 -1.901,2.865 -2.7032,4.594 -0.3334,0.802 -0.6303,1.604 -0.8907,2.406 L 8.5,-28.906 c -0.1354,0.739 -0.5677,1.109 -1.2969,1.109 -0.8021,0 -1.2031,-0.333 -1.2031,-1 0,-1.667 1.0677,-4.068 3.2031,-7.203 3.5939,-5.469 7.8909,-8.203 12.8909,-8.203 5.135,0 8.739,2.536 10.812,7.609 2.125,-4.135 4.959,-6.604 8.5,-7.406 0.667,-0.135 1.334,-0.203 2,-0.203 3.927,0 6.693,1.099 8.297,3.297 0.667,0.937 1,2.041 1,3.312 0,2.729 -1.234,4.563 -3.703,5.5 -0.604,0.198 -1.172,0.297 -1.703,0.297 -2.063,0 -3.297,-0.901 -3.703,-2.703 -0.063,-0.271 -0.094,-0.536 -0.094,-0.797 0,-2 0.969,-3.568 2.906,-4.703 0.594,-0.333 1.224,-0.568 1.891,-0.703 -1.396,-0.865 -3.063,-1.297 -5,-1.297 -4.531,0 -7.729,3.531 -9.594,10.594 -0.135,0.406 -0.234,0.807 -0.297,1.203 z"
                                   style="fill:#0000ff;fill-opacity:1;fill-rule:nonzero;stroke:none"
                                   id="path460" /><g
                                   id="g462"
                                   transform="matrix(0.7,0,0,0.7,57.2,15)"><path
                                   d="m 44.906,-17.406 v 0 L 42.094,0 H 5 c 0,-1.6667 0.1979,-2.7344 0.5938,-3.2031 l 0.5,-0.5 19.2032,-21.3909 c 7,-7.875 10.5,-15.245 10.5,-22.109 0,-5.927 -1.797,-10.427 -5.391,-13.5 l -0.109,-0.094 h -0.094 c -2.135,-1.802 -4.734,-2.703 -7.797,-2.703 -4.802,0 -8.635,2.068 -11.5,6.203 -0.802,1.198 -1.4685,2.531 -1.9998,4 0.198,-0.073 0.6303,-0.109 1.2968,-0.109 2.667,0 4.365,1.203 5.094,3.609 v 0.094 c 0.135,0.469 0.203,0.969 0.203,1.5 0,2.667 -1.266,4.37 -3.797,5.109 -0.531,0.125 -1,0.188 -1.406,0.188 -2.4689,0 -4.0991,-1.032 -4.8908,-3.094 C 5.1354,-46.729 5,-47.562 5,-48.5 c 0,-5.135 1.9688,-9.536 5.906,-13.203 3.532,-3.261 7.797,-4.891 12.797,-4.891 7.333,0 13.031,2.464 17.094,7.391 2.333,2.864 3.667,6.265 4,10.203 0.073,0.604 0.109,1.203 0.109,1.797 0,4.864 -1.833,9.5 -5.5,13.906 -1.937,2.261 -4.937,5.261 -9,9 l -6.109,5.391 -1,0.906 -10.594,10.2969 h 18 c 5.865,0 9.031,-0.2657 9.5,-0.7969 0.667,-0.9375 1.401,-3.906 2.203,-8.906 z"
                                   style="fill:#0000ff;fill-opacity:1;fill-rule:nonzero;stroke:none"
                                   id="path464" /><g
                                   id="g466"
                                   transform="matrix(7.5190075,0,0,7.5190075,-1796,-2489)"><path
                                   d="m 43,308 c 0,1.66 -1.343,3 -3,3 -1.657,0 -3,-1.34 -3,-3 0,-1.66 1.343,-3 3,-3 1.657,0 3,1.34 3,3 z"
                                   style="fill:#0000ff;fill-opacity:1;fill-rule:nonzero;stroke:none"
                                   id="path468" /><path
                                   d="m 43,308 c 0,1.66 -1.343,3 -3,3 -1.657,0 -3,-1.34 -3,-3 0,-1.66 1.343,-3 3,-3 1.657,0 3,1.34 3,3 z"
                                   style="fill:none;stroke:#000000;stroke-width:1;stroke-linecap:round;stroke-linejoin:round;stroke-miterlimit:10;stroke-dasharray:none;stroke-opacity:1"
                                   id="path470" /><g
                                   id="g472"
                                   transform="scale(19)"><g
                                   id="g474"
                                   transform="matrix(0.01,0,0,0.01,1.8947,17.484)"><path
                                   d="M 33.406,-30.203 30,-16.5 c -1.135,4.531 -1.703,7.4635 -1.703,8.7969 0,3.4687 1.234,5.5677 3.703,6.2969 0.531,0.2083 1.13,0.3124 1.797,0.3124 3.333,0 6.37,-1.6666 9.109,-5 1.792,-2.1354 3.188,-4.8382 4.188,-8.1092 0.208,-0.729 0.646,-1.094 1.312,-1.094 0.792,0 1.188,0.333 1.188,1 0,1.667 -1.032,4.068 -3.094,7.2032 -3.604,5.4584 -7.906,8.1876 -12.906,8.1876 -4.532,0 -7.828,-1.89588 -9.891,-5.6876 -0.406,-0.6041 -0.708,-1.2395 -0.906,-1.9062 -1.594,3.1979 -3.792,5.4323 -6.594,6.70312 -1.271,0.59376 -2.573,0.89068 -3.906,0.89068 -4.0001,0 -6.797,-1.166717 -8.3908,-3.5 -0.6666,-0.8646 -1,-1.8959 -1,-3.0938 0,-2.4688 1.0626,-4.2031 3.1876,-5.203 0.7395,-0.396 1.5104,-0.594 2.3124,-0.594 1.9998,0 3.1978,0.833 3.5938,2.5001 0.062,0.3334 0.094,0.6667 0.094,1 0,2.2604 -1.13,3.9271 -3.3909,5 -0.4062,0.1979 -0.8385,0.3281 -1.2969,0.3907 1.3959,0.875 3.0628,1.3124 4.9998,1.3124 3.532,0 6.328,-2.3697 8.391,-7.1093 0.406,-1 0.776,-2.0989 1.109,-3.2969 3.594,-13.604 5.391,-21.536 5.391,-23.797 -0.396,-4.135 -2.193,-6.37 -5.391,-6.703 -3.468,0 -6.635,1.766 -9.5,5.297 v 0.109 c 0,0.063 -0.036,0.094 -0.109,0.094 -1,1.333 -1.901,2.865 -2.7032,4.594 -0.3334,0.802 -0.6303,1.604 -0.8907,2.406 L 8.5,-28.906 c -0.1354,0.739 -0.5677,1.109 -1.2969,1.109 -0.8021,0 -1.2031,-0.333 -1.2031,-1 0,-1.667 1.0677,-4.068 3.2031,-7.203 3.5939,-5.469 7.8909,-8.203 12.8909,-8.203 5.135,0 8.739,2.536 10.812,7.609 2.125,-4.135 4.959,-6.604 8.5,-7.406 0.667,-0.135 1.334,-0.203 2,-0.203 3.927,0 6.693,1.099 8.297,3.297 0.667,0.937 1,2.041 1,3.312 0,2.729 -1.234,4.563 -3.703,5.5 -0.604,0.198 -1.172,0.297 -1.703,0.297 -2.063,0 -3.297,-0.901 -3.703,-2.703 -0.063,-0.271 -0.094,-0.536 -0.094,-0.797 0,-2 0.969,-3.568 2.906,-4.703 0.594,-0.333 1.224,-0.568 1.891,-0.703 -1.396,-0.865 -3.063,-1.297 -5,-1.297 -4.531,0 -7.729,3.531 -9.594,10.594 -0.135,0.406 -0.234,0.807 -0.297,1.203 z"
                                   style="fill:#0000ff;fill-opacity:1;fill-rule:nonzero;stroke:none"
                                   id="path476" /><g
                                   id="g478"
                                   transform="matrix(0.7,0,0,0.7,57.2,15)"><path
                                   d="m 29.406,-64 v 56.0938 c 0,2 0.396,3.2708 1.188,3.8124 1.135,0.6667 3.838,1 8.109,1 h 3.203 V 0 C 39.573,-0.19792 34.172,-0.29688 25.703,-0.29688 17.234,-0.29688 11.833,-0.19792 9.5,0 v -3.0938 h 3.203 c 5.136,0 8.068,-0.6041 8.797,-1.8124 L 21.594,-5 C 21.865,-5.5312 22,-6.5 22,-7.9062 V -59.703 c -3.469,1.739 -7.833,2.609 -13.0938,2.609 v -3.109 c 7.9998,0 14.0628,-2.13 18.1878,-6.391 1.271,0 2.005,0.229 2.203,0.688 v 0 0.109 c 0.073,0.198 0.109,0.797 0.109,1.797 z"
                                   style="fill:#0000ff;fill-opacity:1;fill-rule:nonzero;stroke:none"
                                   id="path480" /><g
                                   id="g482"
                                   transform="matrix(7.5190075,0,0,7.5190075,-352.39,-2519.1)"><path
                                   d="m 236,293 c 0,2.21 -1.79,4 -4,4 -2.21,0 -4,-1.79 -4,-4 0,-2.21 1.79,-4 4,-4 2.21,0 4,1.79 4,4 z"
                                   style="fill:#444444;fill-opacity:1;fill-rule:nonzero;stroke:none"
                                   id="path484" /><path
                                   d="m 236,293 c 0,2.21 -1.79,4 -4,4 -2.21,0 -4,-1.79 -4,-4 0,-2.21 1.79,-4 4,-4 2.21,0 4,1.79 4,4 z"
                                   style="fill:none;stroke:#000000;stroke-width:1;stroke-linecap:round;stroke-linejoin:round;stroke-miterlimit:10;stroke-dasharray:none;stroke-opacity:1"
                                   id="path486" /><path
                                   d="m 44,293 c 0,2.21 -1.791,4 -4,4 -2.209,0 -4,-1.79 -4,-4 0,-2.21 1.791,-4 4,-4 2.209,0 4,1.79 4,4 z"
                                   style="fill:#444444;fill-opacity:1;fill-rule:nonzero;stroke:none"
                                   id="path488" /><path
                                   d="m 44,293 c 0,2.21 -1.791,4 -4,4 -2.209,0 -4,-1.79 -4,-4 0,-2.21 1.791,-4 4,-4 2.209,0 4,1.79 4,4 z"
                                   style="fill:none;stroke:#000000;stroke-width:1;stroke-linecap:round;stroke-linejoin:round;stroke-miterlimit:10;stroke-dasharray:none;stroke-opacity:1"
                                   id="path490" /></g></g></g></g></g></g></g></g></g></g></g></g></g></g></g></g></g></g></g><g
                   id="g492"
                   transform="scale(0.56693)" /></g></g></g></g></g></g></g></svg>
