<?xml version="1.0" encoding="UTF-8" standalone="no"?>
<svg
   xmlns:dc="http://purl.org/dc/elements/1.1/"
   xmlns:cc="http://creativecommons.org/ns#"
   xmlns:rdf="http://www.w3.org/1999/02/22-rdf-syntax-ns#"
   xmlns:svg="http://www.w3.org/2000/svg"
   xmlns="http://www.w3.org/2000/svg"
   xmlns:sodipodi="http://sodipodi.sourceforge.net/DTD/sodipodi-0.dtd"
   xmlns:inkscape="http://www.inkscape.org/namespaces/inkscape"
   version="1.1"
   id="svg5390"
   xml:space="preserve"
   width="245.33333"
   height="150.66667"
   viewBox="0 0 245.33333 150.66667"
   sodipodi:docname="2020-1214-1910-crop.pdf"><metadata
     id="metadata5396"><rdf:RDF><cc:Work
         rdf:about=""><dc:format>image/svg+xml</dc:format><dc:type
           rdf:resource="http://purl.org/dc/dcmitype/StillImage" /></cc:Work></rdf:RDF></metadata><defs
     id="defs5394"><clipPath
       clipPathUnits="userSpaceOnUse"
       id="clipPath5408"><path
         d="M 0,0 H 248 V 151 H 0 Z"
         id="path5406" /></clipPath><clipPath
       clipPathUnits="userSpaceOnUse"
       id="clipPath5418"><path
         d="M 0,0 H 248 V 151 H 0 Z"
         id="path5416" /></clipPath><clipPath
       clipPathUnits="userSpaceOnUse"
       id="clipPath5430"><path
         d="M 0,0 V 151 H 248 V 0 Z"
         id="path5428" /></clipPath><clipPath
       clipPathUnits="userSpaceOnUse"
       id="clipPath5440"><path
         d="M 0,0 H 365 V 222 H 0 Z"
         id="path5438" /></clipPath></defs><sodipodi:namedview
     pagecolor="#ffffff"
     bordercolor="#666666"
     borderopacity="1"
     objecttolerance="10"
     gridtolerance="10"
     guidetolerance="10"
     inkscape:pageopacity="0"
     inkscape:pageshadow="2"
     inkscape:window-width="640"
     inkscape:window-height="480"
     id="namedview5392" /><g
     id="g5398"
     inkscape:groupmode="layer"
     inkscape:label="2020-1214-1910-crop"
     transform="matrix(1.3333333,0,0,-1.3333333,0,150.66667)"><g
       id="g5400"
       transform="translate(-32,-19)"><g
         id="g5402"><g
           id="g5404"
           clip-path="url(#clipPath5408)"><g
             id="g5410"
             transform="matrix(0.7351,0,0,-0.7351,32.848,131)"><g
               id="g5412"><g
                 id="g5414"
                 clip-path="url(#clipPath5418)"><g
                   id="g5420"><g
                     id="g5422" /></g><g
                   id="g5424"><g
                     id="g5426"
                     clip-path="url(#clipPath5430)"><g
                       id="g5432"
                       transform="scale(0.68031)" /></g></g><g
                   id="g5434"
                   transform="scale(0.68031)"><g
                     id="g5436"
                     clip-path="url(#clipPath5440)"><path
                       d="M 0,0 H 365 V 222 H 0 Z"
                       style="fill:#ffffff;fill-opacity:1;fill-rule:nonzero;stroke:none"
                       id="path5442" /><path
                       d="M 117.79,2 V 222"
                       style="fill:none;stroke:#000000;stroke-width:1;stroke-linecap:butt;stroke-linejoin:miter;stroke-miterlimit:10;stroke-dasharray:none;stroke-opacity:1"
                       id="path5444" /><path
                       d="m 117.79,1 -4,4"
                       style="fill:none;stroke:#000000;stroke-width:1;stroke-linecap:butt;stroke-linejoin:miter;stroke-miterlimit:10;stroke-dasharray:none;stroke-opacity:1"
                       id="path5446" /><path
                       d="m 117.79,1 4,4"
                       style="fill:none;stroke:#000000;stroke-width:1;stroke-linecap:butt;stroke-linejoin:miter;stroke-miterlimit:10;stroke-dasharray:none;stroke-opacity:1"
                       id="path5448" /><path
                       d="m 347.12,146 3.04,-4.31 -2.82,-3.99 h 1.77 l 1.27,1.94 c 0.23,0.38 0.43,0.69 0.57,0.94 0.23,-0.35 0.45,-0.65 0.64,-0.92 l 1.39,-1.96 h 1.69 l -2.87,3.91 3.09,4.39 h -1.73 l -1.71,-2.58 -0.45,-0.7 -2.17,3.28 z"
                       style="fill:#000000;fill-opacity:1;fill-rule:nonzero;stroke:none"
                       id="path5450" /><path
                       d="M 0,150.71 H 363"
                       style="fill:none;stroke:#000000;stroke-width:1;stroke-linecap:butt;stroke-linejoin:miter;stroke-miterlimit:10;stroke-dasharray:none;stroke-opacity:1"
                       id="path5452" /><path
                       d="m 364,150.71 -4,-4"
                       style="fill:none;stroke:#000000;stroke-width:1;stroke-linecap:butt;stroke-linejoin:miter;stroke-miterlimit:10;stroke-dasharray:none;stroke-opacity:1"
                       id="path5454" /><path
                       d="m 364,150.71 -4,4"
                       style="fill:none;stroke:#000000;stroke-width:1;stroke-linecap:butt;stroke-linejoin:miter;stroke-miterlimit:10;stroke-dasharray:none;stroke-opacity:1"
                       id="path5456" /><path
                       d="m 123,24.203 -0.16,-1.328 c 0.31,0.083 0.57,0.125 0.8,0.125 0.31,0 0.56,-0.052 0.75,-0.156 0.19,-0.104 0.34,-0.25 0.47,-0.438 0.08,-0.135 0.22,-0.484 0.42,-1.047 0.03,-0.073 0.07,-0.187 0.13,-0.343 l -3.14,-8.313 h 1.51 l 1.72,4.797 c 0.23,0.615 0.43,1.255 0.61,1.922 0.16,-0.646 0.35,-1.276 0.58,-1.891 l 1.76,-4.828 h 1.41 l -3.16,8.438 c -0.33,0.916 -0.59,1.547 -0.78,1.89 -0.25,0.459 -0.53,0.797 -0.86,1.016 -0.32,0.219 -0.71,0.328 -1.15,0.328 -0.27,0 -0.58,-0.057 -0.91,-0.172 z"
                       style="fill:#000000;fill-opacity:1;fill-rule:nonzero;stroke:none"
                       id="path5458" /><path
                       d="M -6.3745,-97.618 C 76.4,233.48 159.18,233.48 241.95,-97.618"
                       style="fill:none;stroke:#0000ff;stroke-width:1.5;stroke-linecap:round;stroke-linejoin:round;stroke-miterlimit:10;stroke-dasharray:none;stroke-opacity:1"
                       id="path5460" /><path
                       d="m 255.4,222 -2.64,-1.73 -2.59,-1.74 -2.54,-1.73 -2.49,-1.74 -2.44,-1.73 -2.39,-1.74 -2.35,-1.73 -2.31,-1.74 -2.26,-1.73 -2.22,-1.73 -2.17,-1.74 -2.13,-1.73 -2.1,-1.74 -2.05,-1.73 -2.01,-1.74 -1.97,-1.73 -1.94,-1.73 -1.9,-1.74 -1.86,-1.73 -1.83,-1.74 -1.79,-1.73 -1.76,-1.74 -1.72,-1.73 -1.69,-1.73 -1.66,-1.74 -1.63,-1.73 -1.59,-1.74 -1.57,-1.73 -1.53,-1.74 -1.5,-1.73 -1.48,-1.74 -1.45,-1.73 -1.42,-1.73 -1.39,-1.74 -1.37,-1.73 -1.34,-1.74 -1.31,-1.73 -1.29,-1.74 -1.27,-1.73 -1.24,-1.74 -1.21,-1.73 -1.2,-1.73 -1.17,-1.74 -1.14,-1.73 -1.13,-1.74 -1.1,-1.73 -1.09,-1.74 -1.06,-1.73 -1.04,-1.73 -1.02,-1.74 -1,-1.73 -0.99,-1.74 -0.96,-1.73 -0.95,-1.74 -0.93,-1.73 -0.91,-1.73 -0.89,-1.74 -0.87,-1.73 -0.86,-1.74 -0.84,-1.73 -0.83,-1.74 -0.81,-1.73 -0.79,-1.74 -0.78,-1.73 -0.77,-1.73 -0.75,-1.74 -0.73,-1.73 -0.72,-1.74 -0.71,-1.73 -0.69,-1.74 -0.68,-1.731 -0.67,-1.734 -0.66,-1.734 -0.64,-1.735 -0.63,-1.734 -0.62,-1.734 -0.6,-1.735 -0.6,-1.734 -0.58,-1.735 -0.57,-1.734 -0.56,-1.734 -0.55,-1.735 -0.54,-1.734 -0.53,-1.735 -0.52,-1.734 -0.51,-1.734 -0.5,-1.735 -0.48,-1.734 -0.48,-1.734 -0.48,-1.735 -0.46,-1.734 -0.45,-1.734 -0.45,-1.735 -0.43,-1.734 -0.43,-1.735 -0.42,-1.734 -0.41,-1.734 -0.4,-1.735 -0.4,-1.734 -0.39,-1.735 -0.38,-1.734 -0.37,-1.734 -0.37,-1.735 -0.36,-1.734 -0.35,-1.734 -0.34,-1.735 -0.34,-1.734 -0.33,-1.734 -0.33,-1.735 -0.32,-1.734 -0.31,-1.735 -0.31,-1.734 -0.3,-1.734 -0.3,-1.735 -0.29,-1.734 -0.28,-1.735 -0.28,-1.734 -0.28,-1.734 -0.27,-1.735 -0.26,-1.734 L 131,12.141 130.75,10.406 130.5,8.6719 130.26,6.9375 130.02,5.2031 129.78,3.4688 129.55,1.7344 129.33,0"
                       style="fill:none;stroke:#9933ff;stroke-width:1.5;stroke-linecap:round;stroke-linejoin:round;stroke-miterlimit:10;stroke-dasharray:none;stroke-opacity:1"
                       id="path5462" /><path
                       d="m 120.79,150.71 c 0,1.65 -1.35,3 -3,3 -1.66,0 -3,-1.35 -3,-3 0,-1.66 1.34,-3 3,-3 1.65,0 3,1.34 3,3 z"
                       style="fill:#000000;fill-opacity:1;fill-rule:nonzero;stroke:none"
                       id="path5464" /><g
                       id="g5466"
                       transform="scale(19)"><g
                         id="g5468"
                         transform="matrix(0.01,0,0,0.01,5.2632,9.1041)"><path
                           d="m 74,-43.594 v 0 C 74,-33.26 70.333,-23.698 63,-14.906 56.396,-6.9062 48.661,-1.6354 39.797,0.90625 36.661,1.7708 33.562,2.2031 30.5,2.2031 22.167,2.2031 15.599,-0.72917 10.797,-6.5938 6.8698,-11.396 4.9062,-17.365 4.9062,-24.5 c 0,-10 3.5626,-19.469 10.6878,-28.406 6.604,-8.063 14.338,-13.427 23.203,-16.094 3.271,-1 6.505,-1.5 9.703,-1.5 8.469,0 15.104,3.068 19.906,9.203 3.729,4.802 5.594,10.703 5.594,17.703 z M 31.094,-0.40625 v 0 c 6.271,0 12.307,-2.79685 18.109,-8.39065 1.198,-1.1354 2.297,-2.3381 3.297,-3.6091 6.531,-8.125 10.562,-17.823 12.094,-29.094 0.333,-2.198 0.5,-4.198 0.5,-6 0,-9.135 -3.063,-15.333 -9.188,-18.594 -0.073,0 -0.14,-0.036 -0.203,-0.109 C 53.297,-67.401 50.698,-68 47.906,-68 c -6.271,0 -12.338,2.698 -18.203,8.094 -2.406,2.135 -4.542,4.635 -6.406,7.5 -5.063,7.666 -8.026,16.833 -8.891,27.5 -0.135,1.208 -0.203,2.276 -0.203,3.203 0,8.531 2.568,14.6665 7.703,18.4061 2.667,1.9271 5.729,2.89065 9.188,2.89065 z"
                           style="fill:#000000;fill-opacity:1;fill-rule:nonzero;stroke:none"
                           id="path5470" /><g
                           id="g5472"
                           transform="matrix(5.2632,0,0,5.2632,-526.32,-910.41)"><g
                             id="g5474"
                             transform="scale(19)"><g
                               id="g5476"
                               transform="matrix(0.01,0,0,0.01,10.842,3.6532)"><path
                                 d="m 47.094,-37.703 v 0 L 36,6.7031 C 35,10.703 32.401,14.068 28.203,16.797 24.339,19.266 19.87,20.5 14.797,20.5 6.599,20.5 2.1979,18.833 1.5938,15.5 1.5312,15.167 1.5,14.802 1.5,14.406 1.5,11.667 2.7344,9.8333 5.2031,8.9062 5.7969,8.6979 6.3646,8.5938 6.9062,8.5938 c 2.0626,0 3.2918,0.901 3.6878,2.7032 0.073,0.271 0.109,0.536 0.109,0.797 0,2.135 -0.9999,3.739 -2.9999,4.812 C 7.3698,17.031 7,17.161 6.5938,17.297 c 2.0729,0.667 4.7392,1 8.0002,1 6.541,0 11.344,-3.599 14.406,-10.797 l 3.297,-13.2031 -0.094,-0.0938 c -3,3.3334 -6.37,5.2344 -10.109,5.70315 C 21.562,-0.03125 21.062,0 20.594,0 15.927,0 12.328,-2.0312 9.7969,-6.0938 c -1.6667,-2.7395 -2.5,-5.9742 -2.5,-9.7032 0,-7.135 2.5364,-13.672 7.6091,-19.609 4.667,-5.459 9.698,-8.391 15.094,-8.797 h 1.094 c 3.604,0 6.505,1.703 8.703,5.109 l 0.609,1.188 c 0.594,-2.532 1.959,-3.964 4.094,-4.297 1.729,0 2.698,0.901 2.906,2.703 z m -13,24.906 v 0 l 4.812,-19.109 c 0.198,-0.792 0.297,-1.292 0.297,-1.5 0,-1.334 -0.568,-2.933 -1.703,-4.797 v 0 c -0.802,-1.333 -1.802,-2.333 -3,-3 -1,-0.531 -2.099,-0.797 -3.297,-0.797 -3.469,0 -6.771,2.234 -9.906,6.703 -0.469,0.729 -0.901,1.464 -1.297,2.203 -2.135,4 -3.833,9.563 -5.094,16.688 -0.333,2.073 -0.5,3.739 -0.5,5 0,4.406 1.266,7.2758 3.797,8.6091 0.729,0.3959 1.63,0.5938 2.703,0.5938 2.594,0 5.292,-1.1979 8.094,-3.5938 2.938,-2.5312 4.635,-4.8641 5.094,-7.0001 z"
                                 style="fill:#0000ff;fill-opacity:1;fill-rule:nonzero;stroke:none"
                                 id="path5478" /><g
                                 id="g5480"
                                 transform="translate(51.3)"><path
                                   d="m 33.094,24 v 0 c 0,0.667 -0.334,1 -1,1 -0.792,0 -2.558,-1.365 -5.297,-4.094 C 22.661,16.771 19.229,11.87 16.5,6.2031 12.104,-2.8698 9.9062,-13.271 9.9062,-25 c 0,-11.271 2.0988,-21.438 6.2968,-30.5 3.469,-7.396 7.87,-13.328 13.203,-17.797 1.396,-1.135 2.292,-1.703 2.688,-1.703 0.666,0 1,0.333 1,1 0,0.333 -0.433,0.901 -1.297,1.703 C 21.068,-61.37 15.703,-45.604 15.703,-25 c 0,20.5312 5.235,36.13 15.703,46.797 1.125,1.135 1.688,1.87 1.688,2.203 z"
                                   style="fill:#0000ff;fill-opacity:1;fill-rule:nonzero;stroke:none"
                                   id="path5482" /><g
                                   id="g5484"
                                   transform="translate(38.9)"><path
                                   d="M 33.406,-30.203 30,-16.5 c -1.135,4.531 -1.703,7.4635 -1.703,8.7969 0,3.4687 1.234,5.5677 3.703,6.2969 0.531,0.2083 1.13,0.3124 1.797,0.3124 3.333,0 6.37,-1.6666 9.109,-5 1.792,-2.1354 3.188,-4.8382 4.188,-8.1092 0.208,-0.729 0.646,-1.094 1.312,-1.094 0.792,0 1.188,0.333 1.188,1 0,1.667 -1.032,4.068 -3.094,7.2032 -3.604,5.4584 -7.906,8.1876 -12.906,8.1876 -4.532,0 -7.828,-1.89588 -9.891,-5.6876 -0.406,-0.6041 -0.708,-1.2395 -0.906,-1.9062 -1.594,3.1979 -3.792,5.4323 -6.594,6.70312 -1.271,0.59376 -2.573,0.89068 -3.906,0.89068 -4.0001,0 -6.797,-1.166717 -8.3908,-3.5 -0.6666,-0.8646 -1,-1.8959 -1,-3.0938 0,-2.4688 1.0626,-4.2031 3.1876,-5.203 0.7395,-0.396 1.5104,-0.594 2.3124,-0.594 1.9998,0 3.1978,0.833 3.5938,2.5001 0.062,0.3334 0.094,0.6667 0.094,1 0,2.2604 -1.13,3.9271 -3.3909,5 -0.4062,0.1979 -0.8385,0.3281 -1.2969,0.3907 1.3959,0.875 3.0628,1.3124 4.9998,1.3124 3.532,0 6.328,-2.3697 8.391,-7.1093 0.406,-1 0.776,-2.0989 1.109,-3.2969 3.594,-13.604 5.391,-21.536 5.391,-23.797 -0.396,-4.135 -2.193,-6.37 -5.391,-6.703 -3.468,0 -6.635,1.766 -9.5,5.297 v 0.109 c 0,0.063 -0.036,0.094 -0.109,0.094 -1,1.333 -1.901,2.865 -2.7032,4.594 -0.3334,0.802 -0.6303,1.604 -0.8907,2.406 L 8.5,-28.906 c -0.1354,0.739 -0.5677,1.109 -1.2969,1.109 -0.8021,0 -1.2031,-0.333 -1.2031,-1 0,-1.667 1.0677,-4.068 3.2031,-7.203 3.5939,-5.469 7.8909,-8.203 12.8909,-8.203 5.135,0 8.739,2.536 10.812,7.609 2.125,-4.135 4.959,-6.604 8.5,-7.406 0.667,-0.135 1.334,-0.203 2,-0.203 3.927,0 6.693,1.099 8.297,3.297 0.667,0.937 1,2.041 1,3.312 0,2.729 -1.234,4.563 -3.703,5.5 -0.604,0.198 -1.172,0.297 -1.703,0.297 -2.063,0 -3.297,-0.901 -3.703,-2.703 -0.063,-0.271 -0.094,-0.536 -0.094,-0.797 0,-2 0.969,-3.568 2.906,-4.703 0.594,-0.333 1.224,-0.568 1.891,-0.703 -1.396,-0.865 -3.063,-1.297 -5,-1.297 -4.531,0 -7.729,3.531 -9.594,10.594 -0.135,0.406 -0.234,0.807 -0.297,1.203 z"
                                   style="fill:#0000ff;fill-opacity:1;fill-rule:nonzero;stroke:none"
                                   id="path5486" /><g
                                   id="g5488"
                                   transform="translate(57.2)"><path
                                   d="m 28.906,-25 v 0 c 0,11.271 -2.104,21.4375 -6.312,30.5 C 19.135,12.896 14.74,18.828 9.4062,23.297 8,24.432 7.099,25 6.7031,25 c -0.6666,0 -1,-0.333 -1,-1 C 5.7031,23.667 6.1354,23.099 7,22.297 17.729,11.37 23.094,-4.3958 23.094,-25 c 0,-20.333 -5,-35.734 -15.0002,-46.203 l -0.5,-0.5 C 6.3333,-72.901 5.7031,-73.667 5.7031,-74 c 0,-0.667 0.3334,-1 1,-1 0.8021,0 2.5677,1.365 5.2969,4.094 4.135,4.135 7.568,9.036 10.297,14.703 4.406,9.073 6.609,19.474 6.609,31.203 z"
                                   style="fill:#0000ff;fill-opacity:1;fill-rule:nonzero;stroke:none"
                                   id="path5490" /><g
                                   id="g5492"
                                   transform="translate(66.7)"><path
                                   d="M 68.703,-32.703 H 9 c -2.1354,0 -3.2708,-0.667 -3.4062,-2 0,-1.333 1.1041,-2 3.3124,-2 H 68.797 c 2.135,0 3.234,0.667 3.297,2 0,1.333 -1.13,2 -3.391,2 z m 0.094,19.406 H 8.9062 c -2.1354,0 -3.2395,-0.667 -3.3124,-2 0,-1.333 1.1354,-2 3.4062,-2 h 59.703 c 2.136,0 3.266,0.667 3.391,2 0,1.333 -1.099,2 -3.297,2 z"
                                   style="fill:#0000ff;fill-opacity:1;fill-rule:nonzero;stroke:none"
                                   id="path5494" /><g
                                   id="g5496"
                                   transform="translate(105.6)"><path
                                   d="M 33.406,-30.203 30,-16.5 c -1.135,4.531 -1.703,7.4635 -1.703,8.7969 0,3.4687 1.234,5.5677 3.703,6.2969 0.531,0.2083 1.13,0.3124 1.797,0.3124 3.333,0 6.37,-1.6666 9.109,-5 1.792,-2.1354 3.188,-4.8382 4.188,-8.1092 0.208,-0.729 0.646,-1.094 1.312,-1.094 0.792,0 1.188,0.333 1.188,1 0,1.667 -1.032,4.068 -3.094,7.2032 -3.604,5.4584 -7.906,8.1876 -12.906,8.1876 -4.532,0 -7.828,-1.89588 -9.891,-5.6876 -0.406,-0.6041 -0.708,-1.2395 -0.906,-1.9062 -1.594,3.1979 -3.792,5.4323 -6.594,6.70312 -1.271,0.59376 -2.573,0.89068 -3.906,0.89068 -4.0001,0 -6.797,-1.166717 -8.3908,-3.5 -0.6666,-0.8646 -1,-1.8959 -1,-3.0938 0,-2.4688 1.0626,-4.2031 3.1876,-5.203 0.7395,-0.396 1.5104,-0.594 2.3124,-0.594 1.9998,0 3.1978,0.833 3.5938,2.5001 0.062,0.3334 0.094,0.6667 0.094,1 0,2.2604 -1.13,3.9271 -3.3909,5 -0.4062,0.1979 -0.8385,0.3281 -1.2969,0.3907 1.3959,0.875 3.0628,1.3124 4.9998,1.3124 3.532,0 6.328,-2.3697 8.391,-7.1093 0.406,-1 0.776,-2.0989 1.109,-3.2969 3.594,-13.604 5.391,-21.536 5.391,-23.797 -0.396,-4.135 -2.193,-6.37 -5.391,-6.703 -3.468,0 -6.635,1.766 -9.5,5.297 v 0.109 c 0,0.063 -0.036,0.094 -0.109,0.094 -1,1.333 -1.901,2.865 -2.7032,4.594 -0.3334,0.802 -0.6303,1.604 -0.8907,2.406 L 8.5,-28.906 c -0.1354,0.739 -0.5677,1.109 -1.2969,1.109 -0.8021,0 -1.2031,-0.333 -1.2031,-1 0,-1.667 1.0677,-4.068 3.2031,-7.203 3.5939,-5.469 7.8909,-8.203 12.8909,-8.203 5.135,0 8.739,2.536 10.812,7.609 2.125,-4.135 4.959,-6.604 8.5,-7.406 0.667,-0.135 1.334,-0.203 2,-0.203 3.927,0 6.693,1.099 8.297,3.297 0.667,0.937 1,2.041 1,3.312 0,2.729 -1.234,4.563 -3.703,5.5 -0.604,0.198 -1.172,0.297 -1.703,0.297 -2.063,0 -3.297,-0.901 -3.703,-2.703 -0.063,-0.271 -0.094,-0.536 -0.094,-0.797 0,-2 0.969,-3.568 2.906,-4.703 0.594,-0.333 1.224,-0.568 1.891,-0.703 -1.396,-0.865 -3.063,-1.297 -5,-1.297 -4.531,0 -7.729,3.531 -9.594,10.594 -0.135,0.406 -0.234,0.807 -0.297,1.203 z"
                                   style="fill:#0000ff;fill-opacity:1;fill-rule:nonzero;stroke:none"
                                   id="path5498" /><g
                                   id="g5500"
                                   transform="matrix(0.7,0,0,0.7,57.2,-41.29)"><path
                                   d="m 44.906,-17.406 v 0 L 42.094,0 H 5 c 0,-1.6667 0.1979,-2.7344 0.5938,-3.2031 l 0.5,-0.5 19.2032,-21.3909 c 7,-7.875 10.5,-15.245 10.5,-22.109 0,-5.927 -1.797,-10.427 -5.391,-13.5 l -0.109,-0.094 h -0.094 c -2.135,-1.802 -4.734,-2.703 -7.797,-2.703 -4.802,0 -8.635,2.068 -11.5,6.203 -0.802,1.198 -1.4685,2.531 -1.9998,4 0.198,-0.073 0.6303,-0.109 1.2968,-0.109 2.667,0 4.365,1.203 5.094,3.609 v 0.094 c 0.135,0.469 0.203,0.969 0.203,1.5 0,2.667 -1.266,4.37 -3.797,5.109 -0.531,0.125 -1,0.188 -1.406,0.188 -2.4689,0 -4.0991,-1.032 -4.8908,-3.094 C 5.1354,-46.729 5,-47.562 5,-48.5 c 0,-5.135 1.9688,-9.536 5.906,-13.203 3.532,-3.261 7.797,-4.891 12.797,-4.891 7.333,0 13.031,2.464 17.094,7.391 2.333,2.864 3.667,6.265 4,10.203 0.073,0.604 0.109,1.203 0.109,1.797 0,4.864 -1.833,9.5 -5.5,13.906 -1.937,2.261 -4.937,5.261 -9,9 l -6.109,5.391 -1,0.906 -10.594,10.2969 h 18 c 5.865,0 9.031,-0.2657 9.5,-0.7969 0.667,-0.9375 1.401,-3.906 2.203,-8.906 z"
                                   style="fill:#0000ff;fill-opacity:1;fill-rule:nonzero;stroke:none"
                                   id="path5502" /><g
                                   id="g5504"
                                   transform="matrix(7.5190075,0,0,7.5190075,-2087.2,-462.9)"><g
                                   id="g5506"
                                   transform="scale(19)"><g
                                   id="g5508"
                                   transform="matrix(0.01,0,0,0.01,11.737,9.3816)"><path
                                   d="M 28.703,-68.297 20.906,-36.5 c 4.125,-5.135 9.058,-7.703 14.797,-7.703 5.927,0 9.594,2.302 11,6.906 v 0.094 c 0.333,1.135 0.5,2.37 0.5,3.703 0,3.729 -2.036,11.062 -6.109,22 -1.198,2.9375 -1.797,5.3021 -1.797,7.0938 0,2.2083 0.802,3.3124 2.406,3.3124 4.136,0 7.401,-3.6666 9.797,-11.0002 l 0.406,-1.406 c 0.334,-1.062 0.667,-1.63 1,-1.703 v -0.094 h 0.5 c 0.792,0 1.188,0.333 1.188,1 0,1.136 -0.698,3.235 -2.094,6.297 -2.865,6.0625 -6.531,9.0938 -11,9.0938 -3.396,0 -5.828,-1.43234 -7.297,-4.2969 -0.604,-1.1979 -0.906,-2.4948 -0.906,-3.8907 0,-1.2083 0.432,-3.0412 1.297,-5.5002 4.135,-10.541 6.203,-18.01 6.203,-22.406 0,-4.667 -1.797,-7 -5.391,-7 -3.208,0 -6.411,1.167 -9.609,3.5 -2.469,1.938 -4.636,4.802 -6.5,8.594 L 19,-29.297 c -0.271,1.594 -0.635,3.094 -1.094,4.5 -0.333,1.531 -0.901,3.766 -1.703,6.703 L 14,-9.0938 12.094,-1.5 C 11.635,-0.10417 10.604,0.72917 9,1 8.8021,1.0625 8.6042,1.0938 8.4062,1.0938 6.8021,1.0938 5.8646,0.39583 5.5938,-1 5.5312,-1.2708 5.5,-1.5052 5.5,-1.7031 5.5,-2.2344 5.6354,-2.9688 5.9062,-3.9062 L 20.406,-61.5 l 0.297,-2 c 0,-0.729 -0.469,-1.198 -1.406,-1.406 v 0 c -0.802,-0.198 -2,-0.297 -3.594,-0.297 -1.469,0 -2.271,-0.401 -2.406,-1.203 0,-1.125 0.635,-1.792 1.906,-2 l 12.203,-1 c 0.865,0 1.297,0.37 1.297,1.109 z"
                                   style="fill:#9933ff;fill-opacity:1;fill-rule:nonzero;stroke:none"
                                   id="path5510" /><g
                                   id="g5512"
                                   transform="translate(57.6)"><path
                                   d="m 33.094,24 v 0 c 0,0.667 -0.334,1 -1,1 -0.792,0 -2.558,-1.365 -5.297,-4.094 C 22.661,16.771 19.229,11.87 16.5,6.2031 12.104,-2.8698 9.9062,-13.271 9.9062,-25 c 0,-11.271 2.0988,-21.438 6.2968,-30.5 3.469,-7.396 7.87,-13.328 13.203,-17.797 1.396,-1.135 2.292,-1.703 2.688,-1.703 0.666,0 1,0.333 1,1 0,0.333 -0.433,0.901 -1.297,1.703 C 21.068,-61.37 15.703,-45.604 15.703,-25 c 0,20.5312 5.235,36.13 15.703,46.797 1.125,1.135 1.688,1.87 1.688,2.203 z"
                                   style="fill:#9933ff;fill-opacity:1;fill-rule:nonzero;stroke:none"
                                   id="path5514" /><g
                                   id="g5516"
                                   transform="translate(38.9)"><path
                                   d="M 33.406,-30.203 30,-16.5 c -1.135,4.531 -1.703,7.4635 -1.703,8.7969 0,3.4687 1.234,5.5677 3.703,6.2969 0.531,0.2083 1.13,0.3124 1.797,0.3124 3.333,0 6.37,-1.6666 9.109,-5 1.792,-2.1354 3.188,-4.8382 4.188,-8.1092 0.208,-0.729 0.646,-1.094 1.312,-1.094 0.792,0 1.188,0.333 1.188,1 0,1.667 -1.032,4.068 -3.094,7.2032 -3.604,5.4584 -7.906,8.1876 -12.906,8.1876 -4.532,0 -7.828,-1.89588 -9.891,-5.6876 -0.406,-0.6041 -0.708,-1.2395 -0.906,-1.9062 -1.594,3.1979 -3.792,5.4323 -6.594,6.70312 -1.271,0.59376 -2.573,0.89068 -3.906,0.89068 -4.0001,0 -6.797,-1.166717 -8.3908,-3.5 -0.6666,-0.8646 -1,-1.8959 -1,-3.0938 0,-2.4688 1.0626,-4.2031 3.1876,-5.203 0.7395,-0.396 1.5104,-0.594 2.3124,-0.594 1.9998,0 3.1978,0.833 3.5938,2.5001 0.062,0.3334 0.094,0.6667 0.094,1 0,2.2604 -1.13,3.9271 -3.3909,5 -0.4062,0.1979 -0.8385,0.3281 -1.2969,0.3907 1.3959,0.875 3.0628,1.3124 4.9998,1.3124 3.532,0 6.328,-2.3697 8.391,-7.1093 0.406,-1 0.776,-2.0989 1.109,-3.2969 3.594,-13.604 5.391,-21.536 5.391,-23.797 -0.396,-4.135 -2.193,-6.37 -5.391,-6.703 -3.468,0 -6.635,1.766 -9.5,5.297 v 0.109 c 0,0.063 -0.036,0.094 -0.109,0.094 -1,1.333 -1.901,2.865 -2.7032,4.594 -0.3334,0.802 -0.6303,1.604 -0.8907,2.406 L 8.5,-28.906 c -0.1354,0.739 -0.5677,1.109 -1.2969,1.109 -0.8021,0 -1.2031,-0.333 -1.2031,-1 0,-1.667 1.0677,-4.068 3.2031,-7.203 3.5939,-5.469 7.8909,-8.203 12.8909,-8.203 5.135,0 8.739,2.536 10.812,7.609 2.125,-4.135 4.959,-6.604 8.5,-7.406 0.667,-0.135 1.334,-0.203 2,-0.203 3.927,0 6.693,1.099 8.297,3.297 0.667,0.937 1,2.041 1,3.312 0,2.729 -1.234,4.563 -3.703,5.5 -0.604,0.198 -1.172,0.297 -1.703,0.297 -2.063,0 -3.297,-0.901 -3.703,-2.703 -0.063,-0.271 -0.094,-0.536 -0.094,-0.797 0,-2 0.969,-3.568 2.906,-4.703 0.594,-0.333 1.224,-0.568 1.891,-0.703 -1.396,-0.865 -3.063,-1.297 -5,-1.297 -4.531,0 -7.729,3.531 -9.594,10.594 -0.135,0.406 -0.234,0.807 -0.297,1.203 z"
                                   style="fill:#9933ff;fill-opacity:1;fill-rule:nonzero;stroke:none"
                                   id="path5518" /><g
                                   id="g5520"
                                   transform="translate(57.2)"><path
                                   d="m 28.906,-25 v 0 c 0,11.271 -2.104,21.4375 -6.312,30.5 C 19.135,12.896 14.74,18.828 9.4062,23.297 8,24.432 7.099,25 6.7031,25 c -0.6666,0 -1,-0.333 -1,-1 C 5.7031,23.667 6.1354,23.099 7,22.297 17.729,11.37 23.094,-4.3958 23.094,-25 c 0,-20.333 -5,-35.734 -15.0002,-46.203 l -0.5,-0.5 C 6.3333,-72.901 5.7031,-73.667 5.7031,-74 c 0,-0.667 0.3334,-1 1,-1 0.8021,0 2.5677,1.365 5.2969,4.094 4.135,4.135 7.568,9.036 10.297,14.703 4.406,9.073 6.609,19.474 6.609,31.203 z"
                                   style="fill:#9933ff;fill-opacity:1;fill-rule:nonzero;stroke:none"
                                   id="path5522" /><g
                                   id="g5524"
                                   transform="translate(66.7)"><path
                                   d="M 68.703,-32.703 H 9 c -2.1354,0 -3.2708,-0.667 -3.4062,-2 0,-1.333 1.1041,-2 3.3124,-2 H 68.797 c 2.135,0 3.234,0.667 3.297,2 0,1.333 -1.13,2 -3.391,2 z m 0.094,19.406 H 8.9062 c -2.1354,0 -3.2395,-0.667 -3.3124,-2 0,-1.333 1.1354,-2 3.4062,-2 h 59.703 c 2.136,0 3.266,0.667 3.391,2 0,1.333 -1.099,2 -3.297,2 z"
                                   style="fill:#9933ff;fill-opacity:1;fill-rule:nonzero;stroke:none"
                                   id="path5526" /><g
                                   id="g5528"
                                   transform="translate(105.5)"><path
                                   d="m 17.703,-69.406 v 61.8122 c 0,2.2605 0.531,3.5938 1.594,4 0.739,0.3334 2.807,0.5 6.203,0.5 V 0 L 14.406,-0.29688 C 13.604,-0.29688 9.901,-0.19792 3.2969,0 v -3.0938 c 3.9375,0 6.2396,-0.302 6.9061,-0.9062 l 0.203,-0.2031 c 0.459,-0.5313 0.688,-1.6615 0.688,-3.3907 V -59.594 c 0,-2.604 -0.464,-4.208 -1.3909,-4.812 H 9.5938 C 8.8646,-64.802 7.599,-65.068 5.7969,-65.203 h -2.5 v -3.094 z"
                                   style="fill:#9933ff;fill-opacity:1;fill-rule:nonzero;stroke:none"
                                   id="path5530" /><g
                                   id="g5532"
                                   transform="translate(27.8)"><path
                                   d="m 47.094,-21.406 v 0 c 0,6.875 -2.532,12.5414 -7.594,16.9998 -4.198,3.66662 -9.062,5.5 -14.594,5.5 -6.406,0 -11.807,-2.3959 -16.2029,-7.1876 -3.9375,-4.3332 -5.9062,-9.4372 -5.9062,-15.3122 0,-6.792 2.4323,-12.521 7.2971,-17.188 4.208,-4.135 9.177,-6.203 14.906,-6.203 6.469,0 11.901,2.568 16.297,7.703 3.864,4.459 5.797,9.688 5.797,15.688 z M 25,-1.4062 v 0 c 4.469,0 8,-1.8646 10.594,-5.5938 l 1,-1.7969 c 1.468,-2.9371 2.203,-7.4061 2.203,-13.4061 0,-6.396 -0.865,-11.026 -2.594,-13.891 -2.864,-4.135 -6.63,-6.302 -11.297,-6.5 -4.135,0 -7.536,1.667 -10.203,5 -0.469,0.532 -0.87,1.094 -1.203,1.688 -1.604,2.937 -2.406,7.505 -2.406,13.703 0,6.469 0.833,11.172 2.5,14.1092 2.802,4.3334 6.604,6.5626 11.406,6.6876 z"
                                   style="fill:#9933ff;fill-opacity:1;fill-rule:nonzero;stroke:none"
                                   id="path5534" /><g
                                   id="g5536"
                                   transform="translate(50)"><path
                                   d="m 22.203,-17.203 c 2.927,0 5.292,-1.333 7.094,-4 1.073,-1.802 1.609,-4.599 1.609,-8.391 -0.271,-8 -3.172,-12.104 -8.703,-12.312 -2.937,0 -5.307,1.333 -7.109,4 -1.063,1.802 -1.594,4.604 -1.594,8.406 0.271,8 3.172,12.099 8.703,12.297 z M 12.297,-18 c -1.136,1.333 -1.703,2.901 -1.703,4.703 0,2.729 1.067,4.7293 3.203,6.0001 0.667,0.3959 1.37,0.6302 2.109,0.7031 0.459,0.0626 2.959,0.0938 7.5,0.0938 6.865,0 11.865,0.599 15,1.7969 0.729,0.2708 1.459,0.6041 2.188,1 4.073,2.6666 6.239,6.4687 6.5,11.4062 0,4.3329 -2.797,7.7349 -8.391,10.2029 -4,1.792 -8.599,2.688 -13.797,2.688 -7.739,0 -13.776,-1.797 -18.1091,-5.391 -2.6667,-2.135 -4,-4.568 -4,-7.2968 C 2.7969,4.5729 4.5,1.8385 7.9062,-0.29688 9.1042,-1.099 10.469,-1.6979 12,-2.0938 9.2708,-4.2292 7.8021,-7.1979 7.5938,-11 c 0,-3.135 1.0364,-5.901 3.1092,-8.297 C 7.7031,-22.161 6.1354,-25.594 6,-29.594 c 0,-4.604 2,-8.375 6,-11.312 2.938,-2.198 6.339,-3.297 10.203,-3.297 4,0 7.531,1.203 10.594,3.609 3.198,-3.135 6.734,-4.703 10.609,-4.703 2.594,0 4.224,1.198 4.891,3.594 0.135,0.406 0.203,0.838 0.203,1.297 -0.271,1.739 -1.24,2.739 -2.906,3 -1.459,0 -2.391,-0.698 -2.797,-2.094 -0.063,-0.271 -0.094,-0.536 -0.094,-0.797 0,-1.406 0.531,-2.307 1.594,-2.703 -0.198,-0.062 -0.531,-0.094 -1,-0.094 -3.261,0 -6.261,1.297 -9,3.891 2.739,2.531 4.109,5.765 4.109,9.703 0,4.604 -2,8.37 -6,11.297 -2.937,2.198 -6.338,3.297 -10.203,3.297 -3.739,0 -7.042,-1.032 -9.906,-3.094 z M 25,18.297 v 0 c 6.333,0 11.135,-1.667 14.406,-5 1.667,-1.667 2.5,-3.4637 2.5,-5.3908 0,-4.9374 -3.937,-7.73953 -11.812,-8.4062 v 0 H 30 C 28.271,-0.63542 25.635,-0.70312 22.094,-0.70312 H 16.203 C 13.068,-0.50521 10.698,0.99479 9.0938,3.7969 8.3646,5.0677 8,6.4375 8,7.9062 c 0,3.1248 1.9323,5.7238 5.797,7.7968 3.135,1.729 6.87,2.594 11.203,2.594 z"
                                   style="fill:#9933ff;fill-opacity:1;fill-rule:nonzero;stroke:none"
                                   id="path5538" /><g
                                   id="g5540"
                                   transform="matrix(0.5,0,0,0.5,57.7,-2.28)"><path
                                   d="m 29.406,-64 v 56.0938 c 0,2 0.396,3.2708 1.188,3.8124 1.135,0.6667 3.838,1 8.109,1 h 3.203 V 0 C 39.573,-0.19792 34.172,-0.29688 25.703,-0.29688 17.234,-0.29688 11.833,-0.19792 9.5,0 v -3.0938 h 3.203 c 5.136,0 8.068,-0.6041 8.797,-1.8124 L 21.594,-5 C 21.865,-5.5312 22,-6.5 22,-7.9062 V -59.703 c -3.469,1.739 -7.833,2.609 -13.0938,2.609 v -3.109 c 7.9998,0 14.0628,-2.13 18.1878,-6.391 1.271,0 2.005,0.229 2.203,0.688 v 0 0.109 c 0.073,0.198 0.109,0.797 0.109,1.797 z"
                                   style="fill:#9933ff;fill-opacity:1;fill-rule:nonzero;stroke:none"
                                   id="path5542" /><g
                                   id="g5544"
                                   transform="matrix(200,0,0,200,-3270.3,-1871.8)"><path
                                   d="m 16.351,9.4454 h 0.25 v 0.028 h -0.25 z"
                                   style="fill:#9933ff;fill-opacity:1;fill-rule:nonzero;stroke:none"
                                   id="path5546" /><g
                                   id="g5548"
                                   transform="matrix(0.005,0,0,0.005,16.351,9.8758)"><path
                                   d="m 44.906,-17.406 v 0 L 42.094,0 H 5 c 0,-1.6667 0.1979,-2.7344 0.5938,-3.2031 l 0.5,-0.5 19.2032,-21.3909 c 7,-7.875 10.5,-15.245 10.5,-22.109 0,-5.927 -1.797,-10.427 -5.391,-13.5 l -0.109,-0.094 h -0.094 c -2.135,-1.802 -4.734,-2.703 -7.797,-2.703 -4.802,0 -8.635,2.068 -11.5,6.203 -0.802,1.198 -1.4685,2.531 -1.9998,4 0.198,-0.073 0.6303,-0.109 1.2968,-0.109 2.667,0 4.365,1.203 5.094,3.609 v 0.094 c 0.135,0.469 0.203,0.969 0.203,1.5 0,2.667 -1.266,4.37 -3.797,5.109 -0.531,0.125 -1,0.188 -1.406,0.188 -2.4689,0 -4.0991,-1.032 -4.8908,-3.094 C 5.1354,-46.729 5,-47.562 5,-48.5 c 0,-5.135 1.9688,-9.536 5.906,-13.203 3.532,-3.261 7.797,-4.891 12.797,-4.891 7.333,0 13.031,2.464 17.094,7.391 2.333,2.864 3.667,6.265 4,10.203 0.073,0.604 0.109,1.203 0.109,1.797 0,4.864 -1.833,9.5 -5.5,13.906 -1.937,2.261 -4.937,5.261 -9,9 l -6.109,5.391 -1,0.906 -10.594,10.2969 h 18 c 5.865,0 9.031,-0.2657 9.5,-0.7969 0.667,-0.9375 1.401,-3.906 2.203,-8.906 z"
                                   style="fill:#9933ff;fill-opacity:1;fill-rule:nonzero;stroke:none"
                                   id="path5550" /><g
                                   id="g5552"
                                   transform="matrix(2,0,0,2,95.9,-98.88)"><path
                                   d="M 33.406,-30.203 30,-16.5 c -1.135,4.531 -1.703,7.4635 -1.703,8.7969 0,3.4687 1.234,5.5677 3.703,6.2969 0.531,0.2083 1.13,0.3124 1.797,0.3124 3.333,0 6.37,-1.6666 9.109,-5 1.792,-2.1354 3.188,-4.8382 4.188,-8.1092 0.208,-0.729 0.646,-1.094 1.312,-1.094 0.792,0 1.188,0.333 1.188,1 0,1.667 -1.032,4.068 -3.094,7.2032 -3.604,5.4584 -7.906,8.1876 -12.906,8.1876 -4.532,0 -7.828,-1.89588 -9.891,-5.6876 -0.406,-0.6041 -0.708,-1.2395 -0.906,-1.9062 -1.594,3.1979 -3.792,5.4323 -6.594,6.70312 -1.271,0.59376 -2.573,0.89068 -3.906,0.89068 -4.0001,0 -6.797,-1.166717 -8.3908,-3.5 -0.6666,-0.8646 -1,-1.8959 -1,-3.0938 0,-2.4688 1.0626,-4.2031 3.1876,-5.203 0.7395,-0.396 1.5104,-0.594 2.3124,-0.594 1.9998,0 3.1978,0.833 3.5938,2.5001 0.062,0.3334 0.094,0.6667 0.094,1 0,2.2604 -1.13,3.9271 -3.3909,5 -0.4062,0.1979 -0.8385,0.3281 -1.2969,0.3907 1.3959,0.875 3.0628,1.3124 4.9998,1.3124 3.532,0 6.328,-2.3697 8.391,-7.1093 0.406,-1 0.776,-2.0989 1.109,-3.2969 3.594,-13.604 5.391,-21.536 5.391,-23.797 -0.396,-4.135 -2.193,-6.37 -5.391,-6.703 -3.468,0 -6.635,1.766 -9.5,5.297 v 0.109 c 0,0.063 -0.036,0.094 -0.109,0.094 -1,1.333 -1.901,2.865 -2.7032,4.594 -0.3334,0.802 -0.6303,1.604 -0.8907,2.406 L 8.5,-28.906 c -0.1354,0.739 -0.5677,1.109 -1.2969,1.109 -0.8021,0 -1.2031,-0.333 -1.2031,-1 0,-1.667 1.0677,-4.068 3.2031,-7.203 3.5939,-5.469 7.8909,-8.203 12.8909,-8.203 5.135,0 8.739,2.536 10.812,7.609 2.125,-4.135 4.959,-6.604 8.5,-7.406 0.667,-0.135 1.334,-0.203 2,-0.203 3.927,0 6.693,1.099 8.297,3.297 0.667,0.937 1,2.041 1,3.312 0,2.729 -1.234,4.563 -3.703,5.5 -0.604,0.198 -1.172,0.297 -1.703,0.297 -2.063,0 -3.297,-0.901 -3.703,-2.703 -0.063,-0.271 -0.094,-0.536 -0.094,-0.797 0,-2 0.969,-3.568 2.906,-4.703 0.594,-0.333 1.224,-0.568 1.891,-0.703 -1.396,-0.865 -3.063,-1.297 -5,-1.297 -4.531,0 -7.729,3.531 -9.594,10.594 -0.135,0.406 -0.234,0.807 -0.297,1.203 z"
                                   style="fill:#9933ff;fill-opacity:1;fill-rule:nonzero;stroke:none"
                                   id="path5554" /><g
                                   id="g5556"
                                   transform="matrix(5.2632,0,0,5.2632,-1683.1,-938.16)" /></g></g></g></g></g></g></g></g></g></g></g></g></g></g></g></g></g></g></g></g></g></g></g></g></g></g></g><g
                   id="g5558"
                   transform="scale(0.68031)" /></g></g></g></g></g></g></g></svg>
