<?xml version="1.0" encoding="UTF-8" standalone="no"?>
<svg
   xmlns:dc="http://purl.org/dc/elements/1.1/"
   xmlns:cc="http://creativecommons.org/ns#"
   xmlns:rdf="http://www.w3.org/1999/02/22-rdf-syntax-ns#"
   xmlns:svg="http://www.w3.org/2000/svg"
   xmlns="http://www.w3.org/2000/svg"
   xmlns:sodipodi="http://sodipodi.sourceforge.net/DTD/sodipodi-0.dtd"
   xmlns:inkscape="http://www.inkscape.org/namespaces/inkscape"
   version="1.1"
   id="svg7888"
   xml:space="preserve"
   width="197.33333"
   height="164"
   viewBox="0 0 197.33333 164"
   sodipodi:docname="2020-1220-0920-crop.pdf"><metadata
     id="metadata7894"><rdf:RDF><cc:Work
         rdf:about=""><dc:format>image/svg+xml</dc:format><dc:type
           rdf:resource="http://purl.org/dc/dcmitype/StillImage" /></cc:Work></rdf:RDF></metadata><defs
     id="defs7892"><clipPath
       clipPathUnits="userSpaceOnUse"
       id="clipPath7906"><path
         d="M 0,0 H 194 V 162 H 0 Z"
         id="path7904" /></clipPath><clipPath
       clipPathUnits="userSpaceOnUse"
       id="clipPath7916"><path
         d="M 0,0 H 194 V 162 H 0 Z"
         id="path7914" /></clipPath><clipPath
       clipPathUnits="userSpaceOnUse"
       id="clipPath7928"><path
         d="M 0,0 V 162 H 194 V 0 Z"
         id="path7926" /></clipPath><clipPath
       clipPathUnits="userSpaceOnUse"
       id="clipPath7938"><path
         d="M 0,0 H 343 V 287 H 0 Z"
         id="path7936" /></clipPath></defs><sodipodi:namedview
     pagecolor="#ffffff"
     bordercolor="#666666"
     borderopacity="1"
     objecttolerance="10"
     gridtolerance="10"
     guidetolerance="10"
     inkscape:pageopacity="0"
     inkscape:pageshadow="2"
     inkscape:window-width="640"
     inkscape:window-height="480"
     id="namedview7890" /><g
     id="g7896"
     inkscape:groupmode="layer"
     inkscape:label="2020-1220-0920-crop"
     transform="matrix(1.3333333,0,0,-1.3333333,0,164)"><g
       id="g7898"
       transform="translate(-23,-19)"><g
         id="g7900"><g
           id="g7902"
           clip-path="url(#clipPath7906)"><g
             id="g7908"
             transform="matrix(0.75309,0,0,-0.75309,23.951,142)"><g
               id="g7910"><g
                 id="g7912"
                 clip-path="url(#clipPath7916)"><g
                   id="g7918"><g
                     id="g7920" /></g><g
                   id="g7922"><g
                     id="g7924"
                     clip-path="url(#clipPath7928)"><g
                       id="g7930"
                       transform="scale(0.56693)" /></g></g><g
                   id="g7932"
                   transform="scale(0.56693)"><g
                     id="g7934"
                     clip-path="url(#clipPath7938)"><path
                       d="M 0,0 H 343 V 287 H 0 Z"
                       style="fill:#ffffff;fill-opacity:1;fill-rule:nonzero;stroke:none"
                       id="path7940" /><path
                       d="M 169.12,2 V 287"
                       style="fill:none;stroke:#000000;stroke-width:1;stroke-linecap:butt;stroke-linejoin:miter;stroke-miterlimit:10;stroke-dasharray:none;stroke-opacity:1"
                       id="path7942" /><path
                       d="m 169.12,1 -4,4"
                       style="fill:none;stroke:#000000;stroke-width:1;stroke-linecap:butt;stroke-linejoin:miter;stroke-miterlimit:10;stroke-dasharray:none;stroke-opacity:1"
                       id="path7944" /><path
                       d="m 169.12,1 4,4"
                       style="fill:none;stroke:#000000;stroke-width:1;stroke-linecap:butt;stroke-linejoin:miter;stroke-miterlimit:10;stroke-dasharray:none;stroke-opacity:1"
                       id="path7946" /><path
                       d="m 325.12,143 3.04,-4.31 -2.82,-3.99 h 1.77 l 1.27,1.94 c 0.23,0.38 0.43,0.69 0.57,0.94 0.23,-0.35 0.45,-0.65 0.64,-0.92 l 1.39,-1.96 h 1.69 l -2.87,3.91 3.09,4.39 h -1.73 l -1.71,-2.58 -0.45,-0.7 -2.17,3.28 z"
                       style="fill:#000000;fill-opacity:1;fill-rule:nonzero;stroke:none"
                       id="path7948" /><path
                       d="M 0,147.1 H 341"
                       style="fill:none;stroke:#000000;stroke-width:1;stroke-linecap:butt;stroke-linejoin:miter;stroke-miterlimit:10;stroke-dasharray:none;stroke-opacity:1"
                       id="path7950" /><path
                       d="m 342,147.1 -4,-4"
                       style="fill:none;stroke:#000000;stroke-width:1;stroke-linecap:butt;stroke-linejoin:miter;stroke-miterlimit:10;stroke-dasharray:none;stroke-opacity:1"
                       id="path7952" /><path
                       d="m 342,147.1 -4,4"
                       style="fill:none;stroke:#000000;stroke-width:1;stroke-linecap:butt;stroke-linejoin:miter;stroke-miterlimit:10;stroke-dasharray:none;stroke-opacity:1"
                       id="path7954" /><path
                       d="m 175,24.203 -0.16,-1.328 c 0.31,0.083 0.57,0.125 0.8,0.125 0.31,0 0.56,-0.052 0.75,-0.156 0.19,-0.104 0.34,-0.25 0.47,-0.438 0.08,-0.135 0.22,-0.484 0.42,-1.047 0.03,-0.073 0.07,-0.187 0.13,-0.343 l -3.14,-8.313 h 1.51 l 1.72,4.797 c 0.23,0.615 0.43,1.255 0.61,1.922 0.16,-0.646 0.35,-1.276 0.58,-1.891 l 1.76,-4.828 h 1.41 l -3.16,8.438 c -0.33,0.916 -0.59,1.547 -0.78,1.89 -0.25,0.459 -0.53,0.797 -0.86,1.016 -0.32,0.219 -0.71,0.328 -1.15,0.328 -0.27,0 -0.58,-0.057 -0.91,-0.172 z"
                       style="fill:#000000;fill-opacity:1;fill-rule:nonzero;stroke:none"
                       id="path7956" /><path
                       d="M 169.12,147.1 H 290.46"
                       style="fill:none;stroke:#0000ff;stroke-width:2;stroke-linecap:round;stroke-linejoin:round;stroke-miterlimit:10;stroke-dasharray:none;stroke-opacity:1"
                       id="path7958" /><path
                       d="m 172.12,147.1 c 0,1.66 -1.35,3 -3,3 -1.66,0 -3,-1.34 -3,-3 0,-1.66 1.34,-3 3,-3 1.65,0 3,1.34 3,3 z"
                       style="fill:#000000;fill-opacity:1;fill-rule:nonzero;stroke:none"
                       id="path7960" /><g
                       id="g7962"
                       transform="scale(19)"><g
                         id="g7964"
                         transform="matrix(0.01,0,0,0.01,7.0526,8.7883)"><path
                           d="m 74,-43.594 v 0 C 74,-33.26 70.333,-23.698 63,-14.906 56.396,-6.9062 48.661,-1.6354 39.797,0.90625 36.661,1.7708 33.562,2.2031 30.5,2.2031 22.167,2.2031 15.599,-0.72917 10.797,-6.5938 6.8698,-11.396 4.9062,-17.365 4.9062,-24.5 c 0,-10 3.5626,-19.469 10.6878,-28.406 6.604,-8.063 14.338,-13.427 23.203,-16.094 3.271,-1 6.505,-1.5 9.703,-1.5 8.469,0 15.104,3.068 19.906,9.203 3.729,4.802 5.594,10.703 5.594,17.703 z M 31.094,-0.40625 v 0 c 6.271,0 12.307,-2.79685 18.109,-8.39065 1.198,-1.1354 2.297,-2.3381 3.297,-3.6091 6.531,-8.125 10.562,-17.823 12.094,-29.094 0.333,-2.198 0.5,-4.198 0.5,-6 0,-9.135 -3.063,-15.333 -9.188,-18.594 -0.073,0 -0.14,-0.036 -0.203,-0.109 C 53.297,-67.401 50.698,-68 47.906,-68 c -6.271,0 -12.338,2.698 -18.203,8.094 -2.406,2.135 -4.542,4.635 -6.406,7.5 -5.063,7.666 -8.026,16.833 -8.891,27.5 -0.135,1.208 -0.203,2.276 -0.203,3.203 0,8.531 2.568,14.6665 7.703,18.4061 2.667,1.9271 5.729,2.89065 9.188,2.89065 z"
                           style="fill:#000000;fill-opacity:1;fill-rule:nonzero;stroke:none"
                           id="path7966" /><g
                           id="g7968"
                           transform="matrix(5.2632,0,0,5.2632,-705.26,-878.83)"><path
                             d="m 169.12,147.1 85.8,-85.801"
                             style="fill:none;stroke:#0000ff;stroke-width:2;stroke-linecap:round;stroke-linejoin:round;stroke-miterlimit:10;stroke-dasharray:none;stroke-opacity:1"
                             id="path7970" /><path
                             d="M 169.12,147.1 V 25.759"
                             style="fill:none;stroke:#0000ff;stroke-width:2;stroke-linecap:round;stroke-linejoin:round;stroke-miterlimit:10;stroke-dasharray:none;stroke-opacity:1"
                             id="path7972" /><path
                             d="M 169.12,147.1 83.315,61.299"
                             style="fill:none;stroke:#0000ff;stroke-width:2;stroke-linecap:round;stroke-linejoin:round;stroke-miterlimit:10;stroke-dasharray:none;stroke-opacity:1"
                             id="path7974" /><path
                             d="M 169.12,147.1 H 47.775"
                             style="fill:none;stroke:#0000ff;stroke-width:2;stroke-linecap:round;stroke-linejoin:round;stroke-miterlimit:10;stroke-dasharray:none;stroke-opacity:1"
                             id="path7976" /><path
                             d="M 169.12,147.1 83.315,232.9"
                             style="fill:none;stroke:#0000ff;stroke-width:2;stroke-linecap:round;stroke-linejoin:round;stroke-miterlimit:10;stroke-dasharray:none;stroke-opacity:1"
                             id="path7978" /><path
                             d="M 169.12,147.1 V 268.44"
                             style="fill:none;stroke:#0000ff;stroke-width:2;stroke-linecap:round;stroke-linejoin:round;stroke-miterlimit:10;stroke-dasharray:none;stroke-opacity:1"
                             id="path7980" /><path
                             d="m 169.12,147.1 85.8,85.8"
                             style="fill:none;stroke:#0000ff;stroke-width:2;stroke-linecap:round;stroke-linejoin:round;stroke-miterlimit:10;stroke-dasharray:none;stroke-opacity:1"
                             id="path7982" /><g
                             id="g7984"
                             transform="scale(19)"><g
                               id="g7986"
                               transform="matrix(0.01,0,0,0.01,13.632,8.8816)"><path
                                 d="m 46,-32 c 0,9.729 -1.234,17.26 -3.703,22.5938 C 38.37,-1.9375 32.573,1.9323 24.906,2.2031 18.833,2.2031 13.964,-0.19792 10.297,-5 9.5677,-5.8646 8.9375,-6.8333 8.4062,-7.9062 c -3,-5.5318 -4.5,-13.5628 -4.5,-24.0938 0,-9.802 1.2292,-17.37 3.6876,-22.703 3.3332,-7.469 8.7342,-11.432 16.2032,-11.891 H 25 c 5.938,0 10.771,2.365 14.5,7.094 v 0.094 c 0.938,1.208 1.771,2.541 2.5,4 2.667,5.666 4,13.468 4,23.406 z M 24.906,0 v 0 c 4.198,0 7.427,-2.0312 9.688,-6.0938 0.937,-1.802 1.604,-3.9372 2,-6.4062 0.739,-4.271 1.109,-11.172 1.109,-20.703 0,-9.261 -0.333,-15.761 -1,-19.5 -1.198,-6.333 -4.265,-10.13 -9.203,-11.391 -0.865,-0.208 -1.729,-0.312 -2.594,-0.312 -4.666,0 -8.067,2.333 -10.203,7 -0.739,1.604 -1.307,3.541 -1.703,5.812 -0.531,3.594 -0.797,9.724 -0.797,18.391 0,10.073 0.365,17.109 1.094,21.109 1.198,6.3961 4.13,10.2919 8.797,11.68775 C 23.031,-0.13542 23.969,0 24.906,0 Z"
                                 style="fill:#ff0000;fill-opacity:1;fill-rule:nonzero;stroke:none"
                                 id="path7988" /><g
                                 id="g7990"
                                 transform="matrix(0.7,0,0,0.7,50,-41.29)"><path
                                   d="m 44.297,-25 v 0 c 0,5.938 -2.235,10.839 -6.703,14.703 -3.667,3.1355 -7.896,4.7032 -12.688,4.7032 -5.875,0 -10.745,-2.2708 -14.609,-6.8122 C 7.1615,-16.073 5.5938,-20.271 5.5938,-25 c 0,-5.938 2.2343,-10.839 6.7032,-14.703 3.667,-3.136 7.901,-4.703 12.703,-4.703 5.865,0 10.729,2.271 14.594,6.812 3.135,3.667 4.703,7.865 4.703,12.594 z M 25,-9.5938 v 0 c 5,0 9.031,-2.0002 12.094,-6.0002 2.135,-2.802 3.203,-5.937 3.203,-9.406 0,-5.062 -2,-9.13 -6,-12.203 -2.729,-2.136 -5.828,-3.203 -9.297,-3.203 -5.135,0 -9.271,2.067 -12.406,6.203 -2,2.739 -3.0002,5.807 -3.0002,9.203 0,5 1.9682,9.031 5.9062,12.094 2.802,2.208 5.969,3.3122 9.5,3.3122 z"
                                   style="fill:#ff0000;fill-opacity:1;fill-rule:nonzero;stroke:none"
                                   id="path7992" /><g
                                   id="g7994"
                                   transform="matrix(1.4286,0,0,1.4286,93.52796,59.025376)"><path
                                   d="M 68.703,-32.703 H 9 c -2.1354,0 -3.2708,-0.667 -3.4062,-2 0,-1.333 1.1041,-2 3.3124,-2 H 68.797 c 2.135,0 3.234,0.667 3.297,2 0,1.333 -1.13,2 -3.391,2 z m 0.094,19.406 H 8.9062 c -2.1354,0 -3.2395,-0.667 -3.3124,-2 0,-1.333 1.1354,-2 3.4062,-2 h 59.703 c 2.136,0 3.266,0.667 3.391,2 0,1.333 -1.099,2 -3.297,2 z"
                                   style="fill:#ff0000;fill-opacity:1;fill-rule:nonzero;stroke:none"
                                   id="path7996" /><g
                                   id="g7998"
                                   transform="translate(105.5)"><path
                                   d="m 46,-32 c 0,9.729 -1.234,17.26 -3.703,22.5938 C 38.37,-1.9375 32.573,1.9323 24.906,2.2031 18.833,2.2031 13.964,-0.19792 10.297,-5 9.5677,-5.8646 8.9375,-6.8333 8.4062,-7.9062 c -3,-5.5318 -4.5,-13.5628 -4.5,-24.0938 0,-9.802 1.2292,-17.37 3.6876,-22.703 3.3332,-7.469 8.7342,-11.432 16.2032,-11.891 H 25 c 5.938,0 10.771,2.365 14.5,7.094 v 0.094 c 0.938,1.208 1.771,2.541 2.5,4 2.667,5.666 4,13.468 4,23.406 z M 24.906,0 v 0 c 4.198,0 7.427,-2.0312 9.688,-6.0938 0.937,-1.802 1.604,-3.9372 2,-6.4062 0.739,-4.271 1.109,-11.172 1.109,-20.703 0,-9.261 -0.333,-15.761 -1,-19.5 -1.198,-6.333 -4.265,-10.13 -9.203,-11.391 -0.865,-0.208 -1.729,-0.312 -2.594,-0.312 -4.666,0 -8.067,2.333 -10.203,7 -0.739,1.604 -1.307,3.541 -1.703,5.812 -0.531,3.594 -0.797,9.724 -0.797,18.391 0,10.073 0.365,17.109 1.094,21.109 1.198,6.3961 4.13,10.2919 8.797,11.68775 C 23.031,-0.13542 23.969,0 24.906,0 Z"
                                   style="fill:#ff0000;fill-opacity:1;fill-rule:nonzero;stroke:none"
                                   id="path8000" /><g
                                   id="g8002"
                                   transform="matrix(1.000008,0,0,1.000008,-289.38964,-377.40591)"><path
                                   d="m 2.7969,-16.5 v -3.094 L 33.5,-66.5 c 0.531,-0.802 1.198,-1.203 2,-1.203 0.938,0 1.469,0.37 1.594,1.109 v 1.5 45.5 h 10 v 3.094 h -10 v 8.7031 c 0,2.0625 0.401,3.3281 1.203,3.7969 0.937,0.6042 3.073,0.9062 6.406,0.9062 h 2.094 V 0 c -2.729,-0.19792 -7.261,-0.29688 -13.594,-0.29688 -6.271,0 -10.771,0.09896 -13.5,0.29688 v -3.0938 h 2.094 c 4.135,0 6.536,-0.5677 7.203,-1.7031 0.271,-0.4687 0.406,-1.4687 0.406,-3 V -16.5 Z M 30,-19.594 V -56.906 L 5.5938,-19.594 Z"
                                   style="fill:#ff0000;fill-opacity:1;fill-rule:nonzero;stroke:none"
                                   id="path8004" /><g
                                   id="g8006"
                                   transform="translate(50)"><path
                                   d="m 44.906,-20.094 v 0 c 0,6.865 -2.567,12.5315 -7.703,17.0002 C 33.068,0.4375 28.365,2.2031 23.094,2.2031 16.969,2.2031 12.104,-0.36458 8.5,-5.5 6.1667,-8.7708 5,-12.302 5,-16.094 c 0,-3.073 1.3646,-4.807 4.0938,-5.203 0.2708,-0.073 0.5416,-0.109 0.8124,-0.109 2.4588,0 4.0578,1.104 4.7968,3.312 0.136,0.532 0.203,1.063 0.203,1.594 0,2.135 -0.937,3.604 -2.812,4.406 -0.667,0.334 -1.396,0.5 -2.1878,0.5 -0.7395,0 -1.3072,-0.067 -1.7031,-0.203 1.1979,4.198 3.7659,7.3282 7.7029,9.3908 2.198,1.2083 4.532,1.81245 7,1.81245 4.459,0 8.021,-2.16665 10.688,-6.50005 C 35.198,-9.8958 36,-14.464 36,-20.797 c 0,-5.604 -0.599,-9.807 -1.797,-12.609 -1.864,-4.261 -4.698,-6.391 -8.5,-6.391 -5.406,0 -9.708,2.333 -12.906,7 -0.396,0.594 -0.828,0.891 -1.297,0.891 -0.865,0 -1.333,-0.464 -1.406,-1.391 V -34.5 -64.094 c 0,-1.541 0.333,-2.344 1,-2.406 0.271,0 0.672,0.099 1.203,0.297 4.198,1.864 8.63,2.797 13.297,2.797 4.802,0 9.338,-0.964 13.609,-2.891 0.333,-0.198 0.599,-0.297 0.797,-0.297 0.667,0 1,0.365 1,1.094 0,0.865 -1.068,2.266 -3.203,4.203 -4.531,4.136 -9.896,6.203 -16.094,6.203 -2.802,0 -5.635,-0.437 -8.5,-1.312 v 19.5 C 16.672,-40.302 20.906,-42 25.906,-42 c 5.865,0 10.698,2.568 14.5,7.703 3,4.063 4.5,8.797 4.5,14.203 z"
                                   style="fill:#ff0000;fill-opacity:1;fill-rule:nonzero;stroke:none"
                                   id="path8008" /><g
                                   id="g8010"
                                   transform="matrix(0.7,0,0,0.7,50,-41.29)"><path
                                   d="m 44.297,-25 v 0 c 0,5.938 -2.235,10.839 -6.703,14.703 -3.667,3.1355 -7.896,4.7032 -12.688,4.7032 -5.875,0 -10.745,-2.2708 -14.609,-6.8122 C 7.1615,-16.073 5.5938,-20.271 5.5938,-25 c 0,-5.938 2.2343,-10.839 6.7032,-14.703 3.667,-3.136 7.901,-4.703 12.703,-4.703 5.865,0 10.729,2.271 14.594,6.812 3.135,3.667 4.703,7.865 4.703,12.594 z M 25,-9.5938 v 0 c 5,0 9.031,-2.0002 12.094,-6.0002 2.135,-2.802 3.203,-5.937 3.203,-9.406 0,-5.062 -2,-9.13 -6,-12.203 -2.729,-2.136 -5.828,-3.203 -9.297,-3.203 -5.135,0 -9.271,2.067 -12.406,6.203 -2,2.739 -3.0002,5.807 -3.0002,9.203 0,5 1.9682,9.031 5.9062,12.094 2.802,2.208 5.969,3.3122 9.5,3.3122 z"
                                   style="fill:#ff0000;fill-opacity:1;fill-rule:nonzero;stroke:none"
                                   id="path8012" /><g
                                   id="g8014"
                                   transform="matrix(1.4286,0,0,1.4286,93.39886,58.99745)"><path
                                   d="M 68.703,-32.703 H 9 c -2.1354,0 -3.2708,-0.667 -3.4062,-2 0,-1.333 1.1041,-2 3.3124,-2 H 68.797 c 2.135,0 3.234,0.667 3.297,2 0,1.333 -1.13,2 -3.391,2 z m 0.094,19.406 H 8.9062 c -2.1354,0 -3.2395,-0.667 -3.3124,-2 0,-1.333 1.1354,-2 3.4062,-2 h 59.703 c 2.136,0 3.266,0.667 3.391,2 0,1.333 -1.099,2 -3.297,2 z"
                                   style="fill:#ff0000;fill-opacity:1;fill-rule:nonzero;stroke:none"
                                   id="path8016" /><g
                                   id="g8018"
                                   transform="translate(111.9,-67.65)"><path
                                   d="m 26.5,-37.297 v 0 l -5.594,22.094 c -1.135,4.271 -2.036,7.5363 -2.703,9.7968 -1.073,3.2708 -2.073,5.23953 -3,5.9062 v 0.09375 c -0.604,0.33333 -1.271,0.50005 -2,0.50005 -1.531,0 -2.463,-0.66672 -2.797,-2.00005 C 10.333,-1.1042 10.297,-1.3333 10.297,-1.5938 10.297,-2.1979 10.562,-3 11.094,-4 17.365,-17.531 21.635,-28.63 23.906,-37.297 h -5.703 c -5.198,0 -9.4322,2.568 -12.703,7.703 -0.6042,0.792 -1.1354,1.188 -1.5938,1.188 -0.802,0 -1.2031,-0.334 -1.2031,-1 0,-0.729 1.1979,-2.729 3.5938,-6 0.4687,-0.532 0.901,-1.063 1.2969,-1.594 0.2083,-0.271 0.4427,-0.536 0.7031,-0.797 0.1354,-0.198 0.3021,-0.401 0.5,-0.609 2.9371,-3.125 6.4061,-4.688 10.4061,-4.688 h 33.5 c 2.261,0 3.557,0.5 3.891,1.5 v 0.094 c 0.073,0.198 0.109,0.464 0.109,0.797 0,2.271 -1.635,3.406 -4.906,3.406 H 40.406 c -1.208,5.667 -1.812,10.964 -1.812,15.891 0,6.208 0.968,11.7081 2.906,16.4998 0.396,0.9374 0.594,1.6718 0.594,2.2031 0,1.5312 -0.834,2.666642 -2.5,3.40622 C 39.062,0.96354 38.531,1.0938 38,1.0938 c -1.333,0 -2.333,-0.93234 -3,-2.7969 -0.198,-0.5938 -0.396,-1.3281 -0.594,-2.2031 -0.541,-2.2605 -0.812,-4.7917 -0.812,-7.5938 0,-4.396 0.901,-10.76 2.703,-19.094 l 1.5,-6.703 z"
                                   style="fill:#ff0000;fill-opacity:1;fill-rule:nonzero;stroke:none"
                                   id="path8020" /><g
                                   id="g8022"
                                   transform="matrix(100,0,0,100,-1572,-443.1)"><path
                                   d="m 15.72,4.8375 h 0.606 v 0.04 H 15.72 Z"
                                   style="fill:#ff0000;fill-opacity:1;fill-rule:nonzero;stroke:none"
                                   id="path8024" /><g
                                   id="g8026"
                                   transform="matrix(0.01,0,0,0.01,15.773,5.7935)"><path
                                   d="m 2.7969,-16.5 v -3.094 L 33.5,-66.5 c 0.531,-0.802 1.198,-1.203 2,-1.203 0.938,0 1.469,0.37 1.594,1.109 v 1.5 45.5 h 10 v 3.094 h -10 v 8.7031 c 0,2.0625 0.401,3.3281 1.203,3.7969 0.937,0.6042 3.073,0.9062 6.406,0.9062 h 2.094 V 0 c -2.729,-0.19792 -7.261,-0.29688 -13.594,-0.29688 -6.271,0 -10.771,0.09896 -13.5,0.29688 v -3.0938 h 2.094 c 4.135,0 6.536,-0.5677 7.203,-1.7031 0.271,-0.4687 0.406,-1.4687 0.406,-3 V -16.5 Z M 30,-19.594 V -56.906 L 5.5938,-19.594 Z"
                                   style="fill:#ff0000;fill-opacity:1;fill-rule:nonzero;stroke:none"
                                   id="path8028" /><g
                                   id="g8030"
                                   transform="matrix(1.000008,0,0,1.000008,-645.71255,-363.33827)"><path
                                   d="m 36.703,-31.797 c -2.667,6.667 -6.833,10 -12.5,10 -6.198,0 -11.265,-2.536 -15.203,-7.609 L 9,-29.5 c -3.1979,-4.135 -4.7969,-9.003 -4.7969,-14.602 0,-5.599 1.6302,-10.429 4.8907,-14.492 l 1.5002,-1.703 c 4,-4.198 8.901,-6.297 14.703,-6.297 6.667,0 11.833,3.229 15.5,9.688 3.271,5.802 4.906,13.802 4.906,24 0,11.406 -3.068,20.541 -9.203,27.406 -4.604,5.13542 -9.906,7.7031 -15.906,7.7031 -6.532,0 -10.8284,-2.03643 -12.8909,-6.1093 -0.6666,-1.3959 -1,-2.9584 -1,-4.6876 0,-2.6662 1.2344,-4.2342 3.7029,-4.7032 0.334,-0.073 0.63,-0.109 0.891,-0.109 2.135,0 3.568,0.937 4.297,2.812 0.208,0.532 0.312,1.1305 0.312,1.7971 0,2.6667 -1.333,4.1667 -4,4.5 -0.406,0.0625 -0.807,0.0938 -1.203,0.0938 1.927,2.4062 5.193,3.60935 9.797,3.60935 4.729,0 8.594,-2.36975 11.594,-7.10935 3.073,-4.8649 4.609,-11.8279 4.609,-20.8909 z m -12.406,7.703 c 5.198,0 8.833,-3.067 10.906,-9.203 0.865,-2.739 1.297,-5.672 1.297,-8.797 0,-6.541 -0.531,-11.245 -1.594,-14.109 -1.739,-4.667 -4.51,-7.266 -8.312,-7.797 -0.459,-0.062 -0.891,-0.094 -1.297,-0.094 -4.396,0 -7.729,2.099 -10,6.297 -1.396,2.469 -2.094,6.667 -2.094,12.594 V -44 c 0,6.604 0.599,11.135 1.797,13.594 2.062,4.208 5.161,6.312 9.297,6.312 z"
                                   style="fill:#ff0000;fill-opacity:1;fill-rule:nonzero;stroke:none"
                                   id="path8032" /><g
                                   id="g8034"
                                   transform="translate(50)"><path
                                   d="m 46,-32 c 0,9.729 -1.234,17.26 -3.703,22.5938 C 38.37,-1.9375 32.573,1.9323 24.906,2.2031 18.833,2.2031 13.964,-0.19792 10.297,-5 9.5677,-5.8646 8.9375,-6.8333 8.4062,-7.9062 c -3,-5.5318 -4.5,-13.5628 -4.5,-24.0938 0,-9.802 1.2292,-17.37 3.6876,-22.703 3.3332,-7.469 8.7342,-11.432 16.2032,-11.891 H 25 c 5.938,0 10.771,2.365 14.5,7.094 v 0.094 c 0.938,1.208 1.771,2.541 2.5,4 2.667,5.666 4,13.468 4,23.406 z M 24.906,0 v 0 c 4.198,0 7.427,-2.0312 9.688,-6.0938 0.937,-1.802 1.604,-3.9372 2,-6.4062 0.739,-4.271 1.109,-11.172 1.109,-20.703 0,-9.261 -0.333,-15.761 -1,-19.5 -1.198,-6.333 -4.265,-10.13 -9.203,-11.391 -0.865,-0.208 -1.729,-0.312 -2.594,-0.312 -4.666,0 -8.067,2.333 -10.203,7 -0.739,1.604 -1.307,3.541 -1.703,5.812 -0.531,3.594 -0.797,9.724 -0.797,18.391 0,10.073 0.365,17.109 1.094,21.109 1.198,6.3961 4.13,10.2919 8.797,11.68775 C 23.031,-0.13542 23.969,0 24.906,0 Z"
                                   style="fill:#ff0000;fill-opacity:1;fill-rule:nonzero;stroke:none"
                                   id="path8036" /><g
                                   id="g8038"
                                   transform="matrix(0.7,0,0,0.7,50.02,-41.29)"><path
                                   d="m 44.297,-25 v 0 c 0,5.938 -2.235,10.839 -6.703,14.703 -3.667,3.1355 -7.896,4.7032 -12.688,4.7032 -5.875,0 -10.745,-2.2708 -14.609,-6.8122 C 7.1615,-16.073 5.5938,-20.271 5.5938,-25 c 0,-5.938 2.2343,-10.839 6.7032,-14.703 3.667,-3.136 7.901,-4.703 12.703,-4.703 5.865,0 10.729,2.271 14.594,6.812 3.135,3.667 4.703,7.865 4.703,12.594 z M 25,-9.5938 v 0 c 5,0 9.031,-2.0002 12.094,-6.0002 2.135,-2.802 3.203,-5.937 3.203,-9.406 0,-5.062 -2,-9.13 -6,-12.203 -2.729,-2.136 -5.828,-3.203 -9.297,-3.203 -5.135,0 -9.271,2.067 -12.406,6.203 -2,2.739 -3.0002,5.807 -3.0002,9.203 0,5 1.9682,9.031 5.9062,12.094 2.802,2.208 5.969,3.3122 9.5,3.3122 z"
                                   style="fill:#ff0000;fill-opacity:1;fill-rule:nonzero;stroke:none"
                                   id="path8040" /><g
                                   id="g8042"
                                   transform="matrix(1.4286,0,0,1.4286,93.4742,58.981886)"><path
                                   d="M 68.703,-32.703 H 9 c -2.1354,0 -3.2708,-0.667 -3.4062,-2 0,-1.333 1.1041,-2 3.3124,-2 H 68.797 c 2.135,0 3.234,0.667 3.297,2 0,1.333 -1.13,2 -3.391,2 z m 0.094,19.406 H 8.9062 c -2.1354,0 -3.2395,-0.667 -3.3124,-2 0,-1.333 1.1354,-2 3.4062,-2 h 59.703 c 2.136,0 3.266,0.667 3.391,2 0,1.333 -1.099,2 -3.297,2 z"
                                   style="fill:#ff0000;fill-opacity:1;fill-rule:nonzero;stroke:none"
                                   id="path8044" /><g
                                   id="g8046"
                                   transform="translate(111.8,-67.65)"><path
                                   d="m 26.5,-37.297 v 0 l -5.594,22.094 c -1.135,4.271 -2.036,7.5363 -2.703,9.7968 -1.073,3.2708 -2.073,5.23953 -3,5.9062 v 0.09375 c -0.604,0.33333 -1.271,0.50005 -2,0.50005 -1.531,0 -2.463,-0.66672 -2.797,-2.00005 C 10.333,-1.1042 10.297,-1.3333 10.297,-1.5938 10.297,-2.1979 10.562,-3 11.094,-4 17.365,-17.531 21.635,-28.63 23.906,-37.297 h -5.703 c -5.198,0 -9.4322,2.568 -12.703,7.703 -0.6042,0.792 -1.1354,1.188 -1.5938,1.188 -0.802,0 -1.2031,-0.334 -1.2031,-1 0,-0.729 1.1979,-2.729 3.5938,-6 0.4687,-0.532 0.901,-1.063 1.2969,-1.594 0.2083,-0.271 0.4427,-0.536 0.7031,-0.797 0.1354,-0.198 0.3021,-0.401 0.5,-0.609 2.9371,-3.125 6.4061,-4.688 10.4061,-4.688 h 33.5 c 2.261,0 3.557,0.5 3.891,1.5 v 0.094 c 0.073,0.198 0.109,0.464 0.109,0.797 0,2.271 -1.635,3.406 -4.906,3.406 H 40.406 c -1.208,5.667 -1.812,10.964 -1.812,15.891 0,6.208 0.968,11.7081 2.906,16.4998 0.396,0.9374 0.594,1.6718 0.594,2.2031 0,1.5312 -0.834,2.666642 -2.5,3.40622 C 39.062,0.96354 38.531,1.0938 38,1.0938 c -1.333,0 -2.333,-0.93234 -3,-2.7969 -0.198,-0.5938 -0.396,-1.3281 -0.594,-2.2031 -0.541,-2.2605 -0.812,-4.7917 -0.812,-7.5938 0,-4.396 0.901,-10.76 2.703,-19.094 l 1.5,-6.703 z"
                                   style="fill:#ff0000;fill-opacity:1;fill-rule:nonzero;stroke:none"
                                   id="path8048" /><g
                                   id="g8050"
                                   transform="matrix(100,0,0,100,-1208.8,-148.36)"><path
                                   d="m 12.088,1.8901 h 0.606 v 0.04 h -0.606 z"
                                   style="fill:#ff0000;fill-opacity:1;fill-rule:nonzero;stroke:none"
                                   id="path8052" /><g
                                   id="g8054"
                                   transform="matrix(0.01,0,0,0.01,12.141,2.8461)"><path
                                   d="m 44.906,-17.406 v 0 L 42.094,0 H 5 c 0,-1.6667 0.1979,-2.7344 0.5938,-3.2031 l 0.5,-0.5 19.2032,-21.3909 c 7,-7.875 10.5,-15.245 10.5,-22.109 0,-5.927 -1.797,-10.427 -5.391,-13.5 l -0.109,-0.094 h -0.094 c -2.135,-1.802 -4.734,-2.703 -7.797,-2.703 -4.802,0 -8.635,2.068 -11.5,6.203 -0.802,1.198 -1.4685,2.531 -1.9998,4 0.198,-0.073 0.6303,-0.109 1.2968,-0.109 2.667,0 4.365,1.203 5.094,3.609 v 0.094 c 0.135,0.469 0.203,0.969 0.203,1.5 0,2.667 -1.266,4.37 -3.797,5.109 -0.531,0.125 -1,0.188 -1.406,0.188 -2.4689,0 -4.0991,-1.032 -4.8908,-3.094 C 5.1354,-46.729 5,-47.562 5,-48.5 c 0,-5.135 1.9688,-9.536 5.906,-13.203 3.532,-3.261 7.797,-4.891 12.797,-4.891 7.333,0 13.031,2.464 17.094,7.391 2.333,2.864 3.667,6.265 4,10.203 0.073,0.604 0.109,1.203 0.109,1.797 0,4.864 -1.833,9.5 -5.5,13.906 -1.937,2.261 -4.937,5.261 -9,9 l -6.109,5.391 -1,0.906 -10.594,10.2969 h 18 c 5.865,0 9.031,-0.2657 9.5,-0.7969 0.667,-0.9375 1.401,-3.906 2.203,-8.906 z"
                                   style="fill:#ff0000;fill-opacity:1;fill-rule:nonzero;stroke:none"
                                   id="path8056" /><g
                                   id="g8058"
                                   transform="matrix(1.000008,0,0,1.000008,-1056.2087,-36.768017)"><path
                                   d="m 29.406,-64 v 56.0938 c 0,2 0.396,3.2708 1.188,3.8124 1.135,0.6667 3.838,1 8.109,1 h 3.203 V 0 C 39.573,-0.19792 34.172,-0.29688 25.703,-0.29688 17.234,-0.29688 11.833,-0.19792 9.5,0 v -3.0938 h 3.203 c 5.136,0 8.068,-0.6041 8.797,-1.8124 L 21.594,-5 C 21.865,-5.5312 22,-6.5 22,-7.9062 V -59.703 c -3.469,1.739 -7.833,2.609 -13.0938,2.609 v -3.109 c 7.9998,0 14.0628,-2.13 18.1878,-6.391 1.271,0 2.005,0.229 2.203,0.688 v 0 0.109 c 0.073,0.198 0.109,0.797 0.109,1.797 z"
                                   style="fill:#ff0000;fill-opacity:1;fill-rule:nonzero;stroke:none"
                                   id="path8060" /><g
                                   id="g8062"
                                   transform="translate(50)"><path
                                   d="m 29,-35.203 v 0 c 6.667,1.333 11.469,4.599 14.406,9.797 1.532,2.604 2.297,5.375 2.297,8.312 0,5.667 -2.333,10.4325 -7,14.2971 -4.073,3.33336 -8.838,5 -14.297,5 C 17.802,2.2031 12.5,0.23438 8.5,-3.7031 5.6354,-6.5052 4.2031,-9.7708 4.2031,-13.5 c 0,-3.135 1.4011,-5 4.2031,-5.594 0.4584,-0.135 0.9219,-0.203 1.3907,-0.203 2.5311,0 4.2341,1.068 5.1091,3.203 0.261,0.865 0.427,1.662 0.5,2.391 0,2.667 -1.203,4.4009 -3.609,5.203 -0.927,0.3333 -1.9272,0.4323 -3.0001,0.2969 2.4691,4.1354 6.7341,6.6041 12.7971,7.40622 0.875,0.13542 1.708,0.20313 2.5,0.20313 4.271,0 7.406,-2.10415 9.406,-6.31245 1.271,-2.6667 1.906,-6.0628 1.906,-10.1878 0,-8.875 -2.666,-14.208 -8,-16 -1.208,-0.406 -2.51,-0.609 -3.906,-0.609 h -4.406 c -1.459,0 -2.255,-0.365 -2.391,-1.094 0,-0.667 0.5,-1.068 1.5,-1.203 1,0 2.297,-0.099 3.891,-0.297 3.406,-0.135 6.073,-1.437 8,-3.906 v -0.094 l 0.109,-0.109 0.094,-0.094 h 0.109 l 0.594,-1 c 1.865,-3.135 2.797,-6.938 2.797,-11.406 0,-6.198 -2.401,-9.828 -7.203,-10.891 -0.792,-0.198 -1.589,-0.297 -2.391,-0.297 -4.667,0 -8.469,1.334 -11.406,4 -0.729,0.667 -1.359,1.396 -1.891,2.188 4.125,0 6.188,1.666 6.188,5 0,2.406 -1.032,4.01 -3.094,4.812 -0.604,0.198 -1.271,0.297 -2,0.297 -2.6042,0 -4.2396,-1.167 -4.9062,-3.5 v 0 -0.109 C 6.9688,-51.938 6.9062,-52.469 6.9062,-53 c 0,-4.469 2.198,-8.036 6.5938,-10.703 3.198,-1.927 6.896,-2.891 11.094,-2.891 6.073,0 10.974,1.797 14.703,5.391 L 39.5,-61 c 2.333,2.396 3.5,5.13 3.5,8.203 0,5.531 -2.365,10.162 -7.094,13.891 -2.073,1.604 -4.375,2.838 -6.906,3.703 z"
                                   style="fill:#ff0000;fill-opacity:1;fill-rule:nonzero;stroke:none"
                                   id="path8064" /><g
                                   id="g8066"
                                   transform="translate(50)"><path
                                   d="m 44.906,-20.094 v 0 c 0,6.865 -2.567,12.5315 -7.703,17.0002 C 33.068,0.4375 28.365,2.2031 23.094,2.2031 16.969,2.2031 12.104,-0.36458 8.5,-5.5 6.1667,-8.7708 5,-12.302 5,-16.094 c 0,-3.073 1.3646,-4.807 4.0938,-5.203 0.2708,-0.073 0.5416,-0.109 0.8124,-0.109 2.4588,0 4.0578,1.104 4.7968,3.312 0.136,0.532 0.203,1.063 0.203,1.594 0,2.135 -0.937,3.604 -2.812,4.406 -0.667,0.334 -1.396,0.5 -2.1878,0.5 -0.7395,0 -1.3072,-0.067 -1.7031,-0.203 1.1979,4.198 3.7659,7.3282 7.7029,9.3908 2.198,1.2083 4.532,1.81245 7,1.81245 4.459,0 8.021,-2.16665 10.688,-6.50005 C 35.198,-9.8958 36,-14.464 36,-20.797 c 0,-5.604 -0.599,-9.807 -1.797,-12.609 -1.864,-4.261 -4.698,-6.391 -8.5,-6.391 -5.406,0 -9.708,2.333 -12.906,7 -0.396,0.594 -0.828,0.891 -1.297,0.891 -0.865,0 -1.333,-0.464 -1.406,-1.391 V -34.5 -64.094 c 0,-1.541 0.333,-2.344 1,-2.406 0.271,0 0.672,0.099 1.203,0.297 4.198,1.864 8.63,2.797 13.297,2.797 4.802,0 9.338,-0.964 13.609,-2.891 0.333,-0.198 0.599,-0.297 0.797,-0.297 0.667,0 1,0.365 1,1.094 0,0.865 -1.068,2.266 -3.203,4.203 -4.531,4.136 -9.896,6.203 -16.094,6.203 -2.802,0 -5.635,-0.437 -8.5,-1.312 v 19.5 C 16.672,-40.302 20.906,-42 25.906,-42 c 5.865,0 10.698,2.568 14.5,7.703 3,4.063 4.5,8.797 4.5,14.203 z"
                                   style="fill:#ff0000;fill-opacity:1;fill-rule:nonzero;stroke:none"
                                   id="path8068" /><g
                                   id="g8070"
                                   transform="matrix(0.7,0,0,0.7,50,-41.29)"><path
                                   d="m 44.297,-25 v 0 c 0,5.938 -2.235,10.839 -6.703,14.703 -3.667,3.1355 -7.896,4.7032 -12.688,4.7032 -5.875,0 -10.745,-2.2708 -14.609,-6.8122 C 7.1615,-16.073 5.5938,-20.271 5.5938,-25 c 0,-5.938 2.2343,-10.839 6.7032,-14.703 3.667,-3.136 7.901,-4.703 12.703,-4.703 5.865,0 10.729,2.271 14.594,6.812 3.135,3.667 4.703,7.865 4.703,12.594 z M 25,-9.5938 v 0 c 5,0 9.031,-2.0002 12.094,-6.0002 2.135,-2.802 3.203,-5.937 3.203,-9.406 0,-5.062 -2,-9.13 -6,-12.203 -2.729,-2.136 -5.828,-3.203 -9.297,-3.203 -5.135,0 -9.271,2.067 -12.406,6.203 -2,2.739 -3.0002,5.807 -3.0002,9.203 0,5 1.9682,9.031 5.9062,12.094 2.802,2.208 5.969,3.3122 9.5,3.3122 z"
                                   style="fill:#ff0000;fill-opacity:1;fill-rule:nonzero;stroke:none"
                                   id="path8072" /><g
                                   id="g8074"
                                   transform="matrix(1.4286,0,0,1.4286,93.432094,58.994224)"><path
                                   d="M 68.703,-32.703 H 9 c -2.1354,0 -3.2708,-0.667 -3.4062,-2 0,-1.333 1.1041,-2 3.3124,-2 H 68.797 c 2.135,0 3.234,0.667 3.297,2 0,1.333 -1.13,2 -3.391,2 z m 0.094,19.406 H 8.9062 c -2.1354,0 -3.2395,-0.667 -3.3124,-2 0,-1.333 1.1354,-2 3.4062,-2 h 59.703 c 2.136,0 3.266,0.667 3.391,2 0,1.333 -1.099,2 -3.297,2 z"
                                   style="fill:#ff0000;fill-opacity:1;fill-rule:nonzero;stroke:none"
                                   id="path8076" /><g
                                   id="g8078"
                                   transform="translate(111.87,-67.65)"><path
                                   d="m 29,-35.203 v 0 c 6.667,1.333 11.469,4.599 14.406,9.797 1.532,2.604 2.297,5.375 2.297,8.312 0,5.667 -2.333,10.4325 -7,14.2971 -4.073,3.33336 -8.838,5 -14.297,5 C 17.802,2.2031 12.5,0.23438 8.5,-3.7031 5.6354,-6.5052 4.2031,-9.7708 4.2031,-13.5 c 0,-3.135 1.4011,-5 4.2031,-5.594 0.4584,-0.135 0.9219,-0.203 1.3907,-0.203 2.5311,0 4.2341,1.068 5.1091,3.203 0.261,0.865 0.427,1.662 0.5,2.391 0,2.667 -1.203,4.4009 -3.609,5.203 -0.927,0.3333 -1.9272,0.4323 -3.0001,0.2969 2.4691,4.1354 6.7341,6.6041 12.7971,7.40622 0.875,0.13542 1.708,0.20313 2.5,0.20313 4.271,0 7.406,-2.10415 9.406,-6.31245 1.271,-2.6667 1.906,-6.0628 1.906,-10.1878 0,-8.875 -2.666,-14.208 -8,-16 -1.208,-0.406 -2.51,-0.609 -3.906,-0.609 h -4.406 c -1.459,0 -2.255,-0.365 -2.391,-1.094 0,-0.667 0.5,-1.068 1.5,-1.203 1,0 2.297,-0.099 3.891,-0.297 3.406,-0.135 6.073,-1.437 8,-3.906 v -0.094 l 0.109,-0.109 0.094,-0.094 h 0.109 l 0.594,-1 c 1.865,-3.135 2.797,-6.938 2.797,-11.406 0,-6.198 -2.401,-9.828 -7.203,-10.891 -0.792,-0.198 -1.589,-0.297 -2.391,-0.297 -4.667,0 -8.469,1.334 -11.406,4 -0.729,0.667 -1.359,1.396 -1.891,2.188 4.125,0 6.188,1.666 6.188,5 0,2.406 -1.032,4.01 -3.094,4.812 -0.604,0.198 -1.271,0.297 -2,0.297 -2.6042,0 -4.2396,-1.167 -4.9062,-3.5 v 0 -0.109 C 6.9688,-51.938 6.9062,-52.469 6.9062,-53 c 0,-4.469 2.198,-8.036 6.5938,-10.703 3.198,-1.927 6.896,-2.891 11.094,-2.891 6.073,0 10.974,1.797 14.703,5.391 L 39.5,-61 c 2.333,2.396 3.5,5.13 3.5,8.203 0,5.531 -2.365,10.162 -7.094,13.891 -2.073,1.604 -4.375,2.838 -6.906,3.703 z"
                                   style="fill:#ff0000;fill-opacity:1;fill-rule:nonzero;stroke:none"
                                   id="path8080" /><g
                                   id="g8082"
                                   transform="translate(50)"><path
                                   d="m 26.5,-37.297 v 0 l -5.594,22.094 c -1.135,4.271 -2.036,7.5363 -2.703,9.7968 -1.073,3.2708 -2.073,5.23953 -3,5.9062 v 0.09375 c -0.604,0.33333 -1.271,0.50005 -2,0.50005 -1.531,0 -2.463,-0.66672 -2.797,-2.00005 C 10.333,-1.1042 10.297,-1.3333 10.297,-1.5938 10.297,-2.1979 10.562,-3 11.094,-4 17.365,-17.531 21.635,-28.63 23.906,-37.297 h -5.703 c -5.198,0 -9.4322,2.568 -12.703,7.703 -0.6042,0.792 -1.1354,1.188 -1.5938,1.188 -0.802,0 -1.2031,-0.334 -1.2031,-1 0,-0.729 1.1979,-2.729 3.5938,-6 0.4687,-0.532 0.901,-1.063 1.2969,-1.594 0.2083,-0.271 0.4427,-0.536 0.7031,-0.797 0.1354,-0.198 0.3021,-0.401 0.5,-0.609 2.9371,-3.125 6.4061,-4.688 10.4061,-4.688 h 33.5 c 2.261,0 3.557,0.5 3.891,1.5 v 0.094 c 0.073,0.198 0.109,0.464 0.109,0.797 0,2.271 -1.635,3.406 -4.906,3.406 H 40.406 c -1.208,5.667 -1.812,10.964 -1.812,15.891 0,6.208 0.968,11.7081 2.906,16.4998 0.396,0.9374 0.594,1.6718 0.594,2.2031 0,1.5312 -0.834,2.666642 -2.5,3.40622 C 39.062,0.96354 38.531,1.0938 38,1.0938 c -1.333,0 -2.333,-0.93234 -3,-2.7969 -0.198,-0.5938 -0.396,-1.3281 -0.594,-2.2031 -0.541,-2.2605 -0.812,-4.7917 -0.812,-7.5938 0,-4.396 0.901,-10.76 2.703,-19.094 l 1.5,-6.703 z"
                                   style="fill:#ff0000;fill-opacity:1;fill-rule:nonzero;stroke:none"
                                   id="path8084" /><g
                                   id="g8086"
                                   transform="matrix(100,0,0,100,-535.16,-180.19)"><path
                                   d="m 4.8516,2.2084 h 1.106 v 0.04 h -1.106 z"
                                   style="fill:#ff0000;fill-opacity:1;fill-rule:nonzero;stroke:none"
                                   id="path8088" /><g
                                   id="g8090"
                                   transform="matrix(0.01,0,0,0.01,5.1546,3.1644)"><path
                                   d="m 2.7969,-16.5 v -3.094 L 33.5,-66.5 c 0.531,-0.802 1.198,-1.203 2,-1.203 0.938,0 1.469,0.37 1.594,1.109 v 1.5 45.5 h 10 v 3.094 h -10 v 8.7031 c 0,2.0625 0.401,3.3281 1.203,3.7969 0.937,0.6042 3.073,0.9062 6.406,0.9062 h 2.094 V 0 c -2.729,-0.19792 -7.261,-0.29688 -13.594,-0.29688 -6.271,0 -10.771,0.09896 -13.5,0.29688 v -3.0938 h 2.094 c 4.135,0 6.536,-0.5677 7.203,-1.7031 0.271,-0.4687 0.406,-1.4687 0.406,-3 V -16.5 Z M 30,-19.594 V -56.906 L 5.5938,-19.594 Z"
                                   style="fill:#ff0000;fill-opacity:1;fill-rule:nonzero;stroke:none"
                                   id="path8092" /><g
                                   id="g8094"
                                   transform="matrix(1.000008,0,0,1.000008,-447.03845,387.51563)"><path
                                   d="m 29.406,-64 v 56.0938 c 0,2 0.396,3.2708 1.188,3.8124 1.135,0.6667 3.838,1 8.109,1 h 3.203 V 0 C 39.573,-0.19792 34.172,-0.29688 25.703,-0.29688 17.234,-0.29688 11.833,-0.19792 9.5,0 v -3.0938 h 3.203 c 5.136,0 8.068,-0.6041 8.797,-1.8124 L 21.594,-5 C 21.865,-5.5312 22,-6.5 22,-7.9062 V -59.703 c -3.469,1.739 -7.833,2.609 -13.0938,2.609 v -3.109 c 7.9998,0 14.0628,-2.13 18.1878,-6.391 1.271,0 2.005,0.229 2.203,0.688 v 0 0.109 c 0.073,0.198 0.109,0.797 0.109,1.797 z"
                                   style="fill:#ff0000;fill-opacity:1;fill-rule:nonzero;stroke:none"
                                   id="path8096" /><g
                                   id="g8098"
                                   transform="translate(49.999)"><path
                                   d="m 16.297,-45.703 12.406,8 c 6.594,-3.865 9.891,-8.531 9.891,-14 0,-4.396 -2,-7.828 -6,-10.297 -2.334,-1.396 -4.896,-2.094 -7.688,-2.094 -4.802,0 -8.573,1.5 -11.312,4.5 v 0 L 13.5,-59.5 c -1.469,1.729 -2.203,3.63 -2.203,5.703 0,3.198 1.667,5.896 5,8.094 z m 14.609,9.5 v 0 c 5.125,3.198 8.255,5.401 9.391,6.609 0.198,0.125 0.364,0.292 0.5,0.5 3.271,3.594 4.906,7.693 4.906,12.297 0,5.927 -2.469,10.7605 -7.406,14.5001 -3.865,3.00002 -8.328,4.5 -13.391,4.5 -6.333,0 -11.567,-1.96872 -15.7029,-5.9062 -3.3333,-3.1979 -5,-6.9949 -5,-11.3909 0,-7.468 4.7969,-13.604 14.3909,-18.406 -4.125,-2.802 -6.558,-4.604 -7.297,-5.406 -2.9272,-3.261 -4.3908,-6.927 -4.3908,-11 0,-5.334 2.2292,-9.667 6.6878,-13 3.333,-2.459 7.135,-3.688 11.406,-3.688 5.802,0 10.5,1.834 14.094,5.5 2.604,2.667 3.906,5.797 3.906,9.391 0,6.198 -4.031,11.364 -12.094,15.5 z m -10,4.203 v 0 c -7.468,4.667 -11.3695,10.302 -11.7029,16.906 0,4.865 2.0989,8.7294 6.2969,11.594 2.802,1.9375 5.969,2.90625 9.5,2.90625 5.198,0 9.365,-1.63545 12.5,-4.90625 2.135,-2.2708 3.203,-4.839 3.203,-7.703 0,-3.865 -2.135,-7.297 -6.406,-10.297 -0.136,-0.062 -0.5,-0.297 -1.094,-0.703 z"
                                   style="fill:#ff0000;fill-opacity:1;fill-rule:nonzero;stroke:none"
                                   id="path8100" /><g
                                   id="g8102"
                                   transform="translate(50)"><path
                                   d="m 46,-32 c 0,9.729 -1.234,17.26 -3.703,22.5938 C 38.37,-1.9375 32.573,1.9323 24.906,2.2031 18.833,2.2031 13.964,-0.19792 10.297,-5 9.5677,-5.8646 8.9375,-6.8333 8.4062,-7.9062 c -3,-5.5318 -4.5,-13.5628 -4.5,-24.0938 0,-9.802 1.2292,-17.37 3.6876,-22.703 3.3332,-7.469 8.7342,-11.432 16.2032,-11.891 H 25 c 5.938,0 10.771,2.365 14.5,7.094 v 0.094 c 0.938,1.208 1.771,2.541 2.5,4 2.667,5.666 4,13.468 4,23.406 z M 24.906,0 v 0 c 4.198,0 7.427,-2.0312 9.688,-6.0938 0.937,-1.802 1.604,-3.9372 2,-6.4062 0.739,-4.271 1.109,-11.172 1.109,-20.703 0,-9.261 -0.333,-15.761 -1,-19.5 -1.198,-6.333 -4.265,-10.13 -9.203,-11.391 -0.865,-0.208 -1.729,-0.312 -2.594,-0.312 -4.666,0 -8.067,2.333 -10.203,7 -0.739,1.604 -1.307,3.541 -1.703,5.812 -0.531,3.594 -0.797,9.724 -0.797,18.391 0,10.073 0.365,17.109 1.094,21.109 1.198,6.3961 4.13,10.2919 8.797,11.68775 C 23.031,-0.13542 23.969,0 24.906,0 Z"
                                   style="fill:#ff0000;fill-opacity:1;fill-rule:nonzero;stroke:none"
                                   id="path8104" /><g
                                   id="g8106"
                                   transform="matrix(0.7,0,0,0.7,50,-41.29)"><path
                                   d="m 44.297,-25 v 0 c 0,5.938 -2.235,10.839 -6.703,14.703 -3.667,3.1355 -7.896,4.7032 -12.688,4.7032 -5.875,0 -10.745,-2.2708 -14.609,-6.8122 C 7.1615,-16.073 5.5938,-20.271 5.5938,-25 c 0,-5.938 2.2343,-10.839 6.7032,-14.703 3.667,-3.136 7.901,-4.703 12.703,-4.703 5.865,0 10.729,2.271 14.594,6.812 3.135,3.667 4.703,7.865 4.703,12.594 z M 25,-9.5938 v 0 c 5,0 9.031,-2.0002 12.094,-6.0002 2.135,-2.802 3.203,-5.937 3.203,-9.406 0,-5.062 -2,-9.13 -6,-12.203 -2.729,-2.136 -5.828,-3.203 -9.297,-3.203 -5.135,0 -9.271,2.067 -12.406,6.203 -2,2.739 -3.0002,5.807 -3.0002,9.203 0,5 1.9682,9.031 5.9062,12.094 2.802,2.208 5.969,3.3122 9.5,3.3122 z"
                                   style="fill:#ff0000;fill-opacity:1;fill-rule:nonzero;stroke:none"
                                   id="path8108" /><g
                                   id="g8110"
                                   transform="matrix(1.4286,0,0,1.4286,93.435252,59.00297)"><path
                                   d="M 68.703,-32.703 H 9 c -2.1354,0 -3.2708,-0.667 -3.4062,-2 0,-1.333 1.1041,-2 3.3124,-2 H 68.797 c 2.135,0 3.234,0.667 3.297,2 0,1.333 -1.13,2 -3.391,2 z m 0.094,19.406 H 8.9062 c -2.1354,0 -3.2395,-0.667 -3.3124,-2 0,-1.333 1.1354,-2 3.4062,-2 h 59.703 c 2.136,0 3.266,0.667 3.391,2 0,1.333 -1.099,2 -3.297,2 z"
                                   style="fill:#ff0000;fill-opacity:1;fill-rule:nonzero;stroke:none"
                                   id="path8112" /><g
                                   id="g8114"
                                   transform="translate(105.58)"><path
                                   d="m 26.5,-37.297 v 0 l -5.594,22.094 c -1.135,4.271 -2.036,7.5363 -2.703,9.7968 -1.073,3.2708 -2.073,5.23953 -3,5.9062 v 0.09375 c -0.604,0.33333 -1.271,0.50005 -2,0.50005 -1.531,0 -2.463,-0.66672 -2.797,-2.00005 C 10.333,-1.1042 10.297,-1.3333 10.297,-1.5938 10.297,-2.1979 10.562,-3 11.094,-4 17.365,-17.531 21.635,-28.63 23.906,-37.297 h -5.703 c -5.198,0 -9.4322,2.568 -12.703,7.703 -0.6042,0.792 -1.1354,1.188 -1.5938,1.188 -0.802,0 -1.2031,-0.334 -1.2031,-1 0,-0.729 1.1979,-2.729 3.5938,-6 0.4687,-0.532 0.901,-1.063 1.2969,-1.594 0.2083,-0.271 0.4427,-0.536 0.7031,-0.797 0.1354,-0.198 0.3021,-0.401 0.5,-0.609 2.9371,-3.125 6.4061,-4.688 10.4061,-4.688 h 33.5 c 2.261,0 3.557,0.5 3.891,1.5 v 0.094 c 0.073,0.198 0.109,0.464 0.109,0.797 0,2.271 -1.635,3.406 -4.906,3.406 H 40.406 c -1.208,5.667 -1.812,10.964 -1.812,15.891 0,6.208 0.968,11.7081 2.906,16.4998 0.396,0.9374 0.594,1.6718 0.594,2.2031 0,1.5312 -0.834,2.666642 -2.5,3.40622 C 39.062,0.96354 38.531,1.0938 38,1.0938 c -1.333,0 -2.333,-0.93234 -3,-2.7969 -0.198,-0.5938 -0.396,-1.3281 -0.594,-2.2031 -0.541,-2.2605 -0.812,-4.7917 -0.812,-7.5938 0,-4.396 0.901,-10.76 2.703,-19.094 l 1.5,-6.703 z"
                                   style="fill:#ff0000;fill-opacity:1;fill-rule:nonzero;stroke:none"
                                   id="path8116" /><g
                                   id="g8118"
                                   transform="matrix(1.000008,0,0,1.000008,-326.24149,391.25876)"><path
                                   d="m 44.906,-17.406 v 0 L 42.094,0 H 5 c 0,-1.6667 0.1979,-2.7344 0.5938,-3.2031 l 0.5,-0.5 19.2032,-21.3909 c 7,-7.875 10.5,-15.245 10.5,-22.109 0,-5.927 -1.797,-10.427 -5.391,-13.5 l -0.109,-0.094 h -0.094 c -2.135,-1.802 -4.734,-2.703 -7.797,-2.703 -4.802,0 -8.635,2.068 -11.5,6.203 -0.802,1.198 -1.4685,2.531 -1.9998,4 0.198,-0.073 0.6303,-0.109 1.2968,-0.109 2.667,0 4.365,1.203 5.094,3.609 v 0.094 c 0.135,0.469 0.203,0.969 0.203,1.5 0,2.667 -1.266,4.37 -3.797,5.109 -0.531,0.125 -1,0.188 -1.406,0.188 -2.4689,0 -4.0991,-1.032 -4.8908,-3.094 C 5.1354,-46.729 5,-47.562 5,-48.5 c 0,-5.135 1.9688,-9.536 5.906,-13.203 3.532,-3.261 7.797,-4.891 12.797,-4.891 7.333,0 13.031,2.464 17.094,7.391 2.333,2.864 3.667,6.265 4,10.203 0.073,0.604 0.109,1.203 0.109,1.797 0,4.864 -1.833,9.5 -5.5,13.906 -1.937,2.261 -4.937,5.261 -9,9 l -6.109,5.391 -1,0.906 -10.594,10.2969 h 18 c 5.865,0 9.031,-0.2657 9.5,-0.7969 0.667,-0.9375 1.401,-3.906 2.203,-8.906 z"
                                   style="fill:#ff0000;fill-opacity:1;fill-rule:nonzero;stroke:none"
                                   id="path8120" /><g
                                   id="g8122"
                                   transform="translate(50.002)"><path
                                   d="m 44.906,-17.406 v 0 L 42.094,0 H 5 c 0,-1.6667 0.1979,-2.7344 0.5938,-3.2031 l 0.5,-0.5 19.2032,-21.3909 c 7,-7.875 10.5,-15.245 10.5,-22.109 0,-5.927 -1.797,-10.427 -5.391,-13.5 l -0.109,-0.094 h -0.094 c -2.135,-1.802 -4.734,-2.703 -7.797,-2.703 -4.802,0 -8.635,2.068 -11.5,6.203 -0.802,1.198 -1.4685,2.531 -1.9998,4 0.198,-0.073 0.6303,-0.109 1.2968,-0.109 2.667,0 4.365,1.203 5.094,3.609 v 0.094 c 0.135,0.469 0.203,0.969 0.203,1.5 0,2.667 -1.266,4.37 -3.797,5.109 -0.531,0.125 -1,0.188 -1.406,0.188 -2.4689,0 -4.0991,-1.032 -4.8908,-3.094 C 5.1354,-46.729 5,-47.562 5,-48.5 c 0,-5.135 1.9688,-9.536 5.906,-13.203 3.532,-3.261 7.797,-4.891 12.797,-4.891 7.333,0 13.031,2.464 17.094,7.391 2.333,2.864 3.667,6.265 4,10.203 0.073,0.604 0.109,1.203 0.109,1.797 0,4.864 -1.833,9.5 -5.5,13.906 -1.937,2.261 -4.937,5.261 -9,9 l -6.109,5.391 -1,0.906 -10.594,10.2969 h 18 c 5.865,0 9.031,-0.2657 9.5,-0.7969 0.667,-0.9375 1.401,-3.906 2.203,-8.906 z"
                                   style="fill:#ff0000;fill-opacity:1;fill-rule:nonzero;stroke:none"
                                   id="path8124" /><g
                                   id="g8126"
                                   transform="translate(50)"><path
                                   d="m 44.906,-20.094 v 0 c 0,6.865 -2.567,12.5315 -7.703,17.0002 C 33.068,0.4375 28.365,2.2031 23.094,2.2031 16.969,2.2031 12.104,-0.36458 8.5,-5.5 6.1667,-8.7708 5,-12.302 5,-16.094 c 0,-3.073 1.3646,-4.807 4.0938,-5.203 0.2708,-0.073 0.5416,-0.109 0.8124,-0.109 2.4588,0 4.0578,1.104 4.7968,3.312 0.136,0.532 0.203,1.063 0.203,1.594 0,2.135 -0.937,3.604 -2.812,4.406 -0.667,0.334 -1.396,0.5 -2.1878,0.5 -0.7395,0 -1.3072,-0.067 -1.7031,-0.203 1.1979,4.198 3.7659,7.3282 7.7029,9.3908 2.198,1.2083 4.532,1.81245 7,1.81245 4.459,0 8.021,-2.16665 10.688,-6.50005 C 35.198,-9.8958 36,-14.464 36,-20.797 c 0,-5.604 -0.599,-9.807 -1.797,-12.609 -1.864,-4.261 -4.698,-6.391 -8.5,-6.391 -5.406,0 -9.708,2.333 -12.906,7 -0.396,0.594 -0.828,0.891 -1.297,0.891 -0.865,0 -1.333,-0.464 -1.406,-1.391 V -34.5 -64.094 c 0,-1.541 0.333,-2.344 1,-2.406 0.271,0 0.672,0.099 1.203,0.297 4.198,1.864 8.63,2.797 13.297,2.797 4.802,0 9.338,-0.964 13.609,-2.891 0.333,-0.198 0.599,-0.297 0.797,-0.297 0.667,0 1,0.365 1,1.094 0,0.865 -1.068,2.266 -3.203,4.203 -4.531,4.136 -9.896,6.203 -16.094,6.203 -2.802,0 -5.635,-0.437 -8.5,-1.312 v 19.5 C 16.672,-40.302 20.906,-42 25.906,-42 c 5.865,0 10.698,2.568 14.5,7.703 3,4.063 4.5,8.797 4.5,14.203 z"
                                   style="fill:#ff0000;fill-opacity:1;fill-rule:nonzero;stroke:none"
                                   id="path8128" /><g
                                   id="g8130"
                                   transform="matrix(0.7,0,0,0.7,50,-41.3)"><path
                                   d="m 44.297,-25 v 0 c 0,5.938 -2.235,10.839 -6.703,14.703 -3.667,3.1355 -7.896,4.7032 -12.688,4.7032 -5.875,0 -10.745,-2.2708 -14.609,-6.8122 C 7.1615,-16.073 5.5938,-20.271 5.5938,-25 c 0,-5.938 2.2343,-10.839 6.7032,-14.703 3.667,-3.136 7.901,-4.703 12.703,-4.703 5.865,0 10.729,2.271 14.594,6.812 3.135,3.667 4.703,7.865 4.703,12.594 z M 25,-9.5938 v 0 c 5,0 9.031,-2.0002 12.094,-6.0002 2.135,-2.802 3.203,-5.937 3.203,-9.406 0,-5.062 -2,-9.13 -6,-12.203 -2.729,-2.136 -5.828,-3.203 -9.297,-3.203 -5.135,0 -9.271,2.067 -12.406,6.203 -2,2.739 -3.0002,5.807 -3.0002,9.203 0,5 1.9682,9.031 5.9062,12.094 2.802,2.208 5.969,3.3122 9.5,3.3122 z"
                                   style="fill:#ff0000;fill-opacity:1;fill-rule:nonzero;stroke:none"
                                   id="path8132" /><g
                                   id="g8134"
                                   transform="matrix(1.4286,0,0,1.4286,93.440816,59.00272)"><path
                                   d="M 68.703,-32.703 H 9 c -2.1354,0 -3.2708,-0.667 -3.4062,-2 0,-1.333 1.1041,-2 3.3124,-2 H 68.797 c 2.135,0 3.234,0.667 3.297,2 0,1.333 -1.13,2 -3.391,2 z m 0.094,19.406 H 8.9062 c -2.1354,0 -3.2395,-0.667 -3.3124,-2 0,-1.333 1.1354,-2 3.4062,-2 h 59.703 c 2.136,0 3.266,0.667 3.391,2 0,1.333 -1.099,2 -3.297,2 z"
                                   style="fill:#ff0000;fill-opacity:1;fill-rule:nonzero;stroke:none"
                                   id="path8136" /><g
                                   id="g8138"
                                   transform="translate(111.87,-67.6)"><path
                                   d="m 44.906,-20.094 v 0 c 0,6.865 -2.567,12.5315 -7.703,17.0002 C 33.068,0.4375 28.365,2.2031 23.094,2.2031 16.969,2.2031 12.104,-0.36458 8.5,-5.5 6.1667,-8.7708 5,-12.302 5,-16.094 c 0,-3.073 1.3646,-4.807 4.0938,-5.203 0.2708,-0.073 0.5416,-0.109 0.8124,-0.109 2.4588,0 4.0578,1.104 4.7968,3.312 0.136,0.532 0.203,1.063 0.203,1.594 0,2.135 -0.937,3.604 -2.812,4.406 -0.667,0.334 -1.396,0.5 -2.1878,0.5 -0.7395,0 -1.3072,-0.067 -1.7031,-0.203 1.1979,4.198 3.7659,7.3282 7.7029,9.3908 2.198,1.2083 4.532,1.81245 7,1.81245 4.459,0 8.021,-2.16665 10.688,-6.50005 C 35.198,-9.8958 36,-14.464 36,-20.797 c 0,-5.604 -0.599,-9.807 -1.797,-12.609 -1.864,-4.261 -4.698,-6.391 -8.5,-6.391 -5.406,0 -9.708,2.333 -12.906,7 -0.396,0.594 -0.828,0.891 -1.297,0.891 -0.865,0 -1.333,-0.464 -1.406,-1.391 V -34.5 -64.094 c 0,-1.541 0.333,-2.344 1,-2.406 0.271,0 0.672,0.099 1.203,0.297 4.198,1.864 8.63,2.797 13.297,2.797 4.802,0 9.338,-0.964 13.609,-2.891 0.333,-0.198 0.599,-0.297 0.797,-0.297 0.667,0 1,0.365 1,1.094 0,0.865 -1.068,2.266 -3.203,4.203 -4.531,4.136 -9.896,6.203 -16.094,6.203 -2.802,0 -5.635,-0.437 -8.5,-1.312 v 19.5 C 16.672,-40.302 20.906,-42 25.906,-42 c 5.865,0 10.698,2.568 14.5,7.703 3,4.063 4.5,8.797 4.5,14.203 z"
                                   style="fill:#ff0000;fill-opacity:1;fill-rule:nonzero;stroke:none"
                                   id="path8140" /><g
                                   id="g8142"
                                   transform="translate(50)"><path
                                   d="m 26.5,-37.297 v 0 l -5.594,22.094 c -1.135,4.271 -2.036,7.5363 -2.703,9.7968 -1.073,3.2708 -2.073,5.23953 -3,5.9062 v 0.09375 c -0.604,0.33333 -1.271,0.50005 -2,0.50005 -1.531,0 -2.463,-0.66672 -2.797,-2.00005 C 10.333,-1.1042 10.297,-1.3333 10.297,-1.5938 10.297,-2.1979 10.562,-3 11.094,-4 17.365,-17.531 21.635,-28.63 23.906,-37.297 h -5.703 c -5.198,0 -9.4322,2.568 -12.703,7.703 -0.6042,0.792 -1.1354,1.188 -1.5938,1.188 -0.802,0 -1.2031,-0.334 -1.2031,-1 0,-0.729 1.1979,-2.729 3.5938,-6 0.4687,-0.532 0.901,-1.063 1.2969,-1.594 0.2083,-0.271 0.4427,-0.536 0.7031,-0.797 0.1354,-0.198 0.3021,-0.401 0.5,-0.609 2.9371,-3.125 6.4061,-4.688 10.4061,-4.688 h 33.5 c 2.261,0 3.557,0.5 3.891,1.5 v 0.094 c 0.073,0.198 0.109,0.464 0.109,0.797 0,2.271 -1.635,3.406 -4.906,3.406 H 40.406 c -1.208,5.667 -1.812,10.964 -1.812,15.891 0,6.208 0.968,11.7081 2.906,16.4998 0.396,0.9374 0.594,1.6718 0.594,2.2031 0,1.5312 -0.834,2.666642 -2.5,3.40622 C 39.062,0.96354 38.531,1.0938 38,1.0938 c -1.333,0 -2.333,-0.93234 -3,-2.7969 -0.198,-0.5938 -0.396,-1.3281 -0.594,-2.2031 -0.541,-2.2605 -0.812,-4.7917 -0.812,-7.5938 0,-4.396 0.901,-10.76 2.703,-19.094 l 1.5,-6.703 z"
                                   style="fill:#ff0000;fill-opacity:1;fill-rule:nonzero;stroke:none"
                                   id="path8144" /><g
                                   id="g8146"
                                   transform="matrix(100,0,0,100,-440.43,-1027.6)"><path
                                   d="m 3.9043,10.682 h 1.106 v 0.04 h -1.106 z"
                                   style="fill:#ff0000;fill-opacity:1;fill-rule:nonzero;stroke:none"
                                   id="path8148" /><g
                                   id="g8150"
                                   transform="matrix(0.01,0,0,0.01,4.2073,11.638)"><path
                                   d="m 2.7969,-16.5 v -3.094 L 33.5,-66.5 c 0.531,-0.802 1.198,-1.203 2,-1.203 0.938,0 1.469,0.37 1.594,1.109 v 1.5 45.5 h 10 v 3.094 h -10 v 8.7031 c 0,2.0625 0.401,3.3281 1.203,3.7969 0.937,0.6042 3.073,0.9062 6.406,0.9062 h 2.094 V 0 c -2.729,-0.19792 -7.261,-0.29688 -13.594,-0.29688 -6.271,0 -10.771,0.09896 -13.5,0.29688 v -3.0938 h 2.094 c 4.135,0 6.536,-0.5677 7.203,-1.7031 0.271,-0.4687 0.406,-1.4687 0.406,-3 V -16.5 Z M 30,-19.594 V -56.906 L 5.5938,-19.594 Z"
                                   style="fill:#ff0000;fill-opacity:1;fill-rule:nonzero;stroke:none"
                                   id="path8152" /><g
                                   id="g8154"
                                   transform="matrix(1.000008,0,0,1.000008,-4.9366737,257.71137)"><path
                                   d="m 44.906,-17.406 v 0 L 42.094,0 H 5 c 0,-1.6667 0.1979,-2.7344 0.5938,-3.2031 l 0.5,-0.5 19.2032,-21.3909 c 7,-7.875 10.5,-15.245 10.5,-22.109 0,-5.927 -1.797,-10.427 -5.391,-13.5 l -0.109,-0.094 h -0.094 c -2.135,-1.802 -4.734,-2.703 -7.797,-2.703 -4.802,0 -8.635,2.068 -11.5,6.203 -0.802,1.198 -1.4685,2.531 -1.9998,4 0.198,-0.073 0.6303,-0.109 1.2968,-0.109 2.667,0 4.365,1.203 5.094,3.609 v 0.094 c 0.135,0.469 0.203,0.969 0.203,1.5 0,2.667 -1.266,4.37 -3.797,5.109 -0.531,0.125 -1,0.188 -1.406,0.188 -2.4689,0 -4.0991,-1.032 -4.8908,-3.094 C 5.1354,-46.729 5,-47.562 5,-48.5 c 0,-5.135 1.9688,-9.536 5.906,-13.203 3.532,-3.261 7.797,-4.891 12.797,-4.891 7.333,0 13.031,2.464 17.094,7.391 2.333,2.864 3.667,6.265 4,10.203 0.073,0.604 0.109,1.203 0.109,1.797 0,4.864 -1.833,9.5 -5.5,13.906 -1.937,2.261 -4.937,5.261 -9,9 l -6.109,5.391 -1,0.906 -10.594,10.2969 h 18 c 5.865,0 9.031,-0.2657 9.5,-0.7969 0.667,-0.9375 1.401,-3.906 2.203,-8.906 z"
                                   style="fill:#ff0000;fill-opacity:1;fill-rule:nonzero;stroke:none"
                                   id="path8156" /><g
                                   id="g8158"
                                   transform="translate(50)"><path
                                   d="m 47.594,-60.906 -13.5,19 c -2.865,4 -4.927,9.703 -6.188,17.109 -0.739,4.927 -1.109,10.391 -1.109,16.3908 v 5.1093 c 0,3.66669 -1.531,5.5 -4.594,5.5 -3.073,0 -4.609,-1.83331 -4.609,-5.5 0,-11.1351 3.234,-22.3021 9.703,-33.5001 l 2.609,-4.109 11.188,-15.797 H 20.406 c -6.073,0 -9.344,0.203 -9.812,0.609 C 9.9271,-55.5 9.0938,-52.469 8.0938,-47 h -2.5 l 3.3124,-20.594 h 2.4998 c 0.261,1.125 0.86,1.891 1.797,2.297 h 0.094 v 0 c 1.739,0.594 5.375,0.891 10.906,0.891 H 48.5 c 0,1.541 -0.302,2.708 -0.906,3.5 z"
                                   style="fill:#ff0000;fill-opacity:1;fill-rule:nonzero;stroke:none"
                                   id="path8160" /><g
                                   id="g8162"
                                   transform="translate(50)"><path
                                   d="m 46,-32 c 0,9.729 -1.234,17.26 -3.703,22.5938 C 38.37,-1.9375 32.573,1.9323 24.906,2.2031 18.833,2.2031 13.964,-0.19792 10.297,-5 9.5677,-5.8646 8.9375,-6.8333 8.4062,-7.9062 c -3,-5.5318 -4.5,-13.5628 -4.5,-24.0938 0,-9.802 1.2292,-17.37 3.6876,-22.703 3.3332,-7.469 8.7342,-11.432 16.2032,-11.891 H 25 c 5.938,0 10.771,2.365 14.5,7.094 v 0.094 c 0.938,1.208 1.771,2.541 2.5,4 2.667,5.666 4,13.468 4,23.406 z M 24.906,0 v 0 c 4.198,0 7.427,-2.0312 9.688,-6.0938 0.937,-1.802 1.604,-3.9372 2,-6.4062 0.739,-4.271 1.109,-11.172 1.109,-20.703 0,-9.261 -0.333,-15.761 -1,-19.5 -1.198,-6.333 -4.265,-10.13 -9.203,-11.391 -0.865,-0.208 -1.729,-0.312 -2.594,-0.312 -4.666,0 -8.067,2.333 -10.203,7 -0.739,1.604 -1.307,3.541 -1.703,5.812 -0.531,3.594 -0.797,9.724 -0.797,18.391 0,10.073 0.365,17.109 1.094,21.109 1.198,6.3961 4.13,10.2919 8.797,11.68775 C 23.031,-0.13542 23.969,0 24.906,0 Z"
                                   style="fill:#ff0000;fill-opacity:1;fill-rule:nonzero;stroke:none"
                                   id="path8164" /><g
                                   id="g8166"
                                   transform="matrix(0.7,0,0,0.7,50,-41.3)"><path
                                   d="m 44.297,-25 v 0 c 0,5.938 -2.235,10.839 -6.703,14.703 -3.667,3.1355 -7.896,4.7032 -12.688,4.7032 -5.875,0 -10.745,-2.2708 -14.609,-6.8122 C 7.1615,-16.073 5.5938,-20.271 5.5938,-25 c 0,-5.938 2.2343,-10.839 6.7032,-14.703 3.667,-3.136 7.901,-4.703 12.703,-4.703 5.865,0 10.729,2.271 14.594,6.812 3.135,3.667 4.703,7.865 4.703,12.594 z M 25,-9.5938 v 0 c 5,0 9.031,-2.0002 12.094,-6.0002 2.135,-2.802 3.203,-5.937 3.203,-9.406 0,-5.062 -2,-9.13 -6,-12.203 -2.729,-2.136 -5.828,-3.203 -9.297,-3.203 -5.135,0 -9.271,2.067 -12.406,6.203 -2,2.739 -3.0002,5.807 -3.0002,9.203 0,5 1.9682,9.031 5.9062,12.094 2.802,2.208 5.969,3.3122 9.5,3.3122 z"
                                   style="fill:#ff0000;fill-opacity:1;fill-rule:nonzero;stroke:none"
                                   id="path8168" /><g
                                   id="g8170"
                                   transform="matrix(1.4286,0,0,1.4286,93.448034,58.9549)"><path
                                   d="M 68.703,-32.703 H 9 c -2.1354,0 -3.2708,-0.667 -3.4062,-2 0,-1.333 1.1041,-2 3.3124,-2 H 68.797 c 2.135,0 3.234,0.667 3.297,2 0,1.333 -1.13,2 -3.391,2 z m 0.094,19.406 H 8.9062 c -2.1354,0 -3.2395,-0.667 -3.3124,-2 0,-1.333 1.1354,-2 3.4062,-2 h 59.703 c 2.136,0 3.266,0.667 3.391,2 0,1.333 -1.099,2 -3.297,2 z"
                                   style="fill:#ff0000;fill-opacity:1;fill-rule:nonzero;stroke:none"
                                   id="path8172" /><g
                                   id="g8174"
                                   transform="translate(111.87,-67.6)"><path
                                   d="m 29,-35.203 v 0 c 6.667,1.333 11.469,4.599 14.406,9.797 1.532,2.604 2.297,5.375 2.297,8.312 0,5.667 -2.333,10.4325 -7,14.2971 -4.073,3.33336 -8.838,5 -14.297,5 C 17.802,2.2031 12.5,0.23438 8.5,-3.7031 5.6354,-6.5052 4.2031,-9.7708 4.2031,-13.5 c 0,-3.135 1.4011,-5 4.2031,-5.594 0.4584,-0.135 0.9219,-0.203 1.3907,-0.203 2.5311,0 4.2341,1.068 5.1091,3.203 0.261,0.865 0.427,1.662 0.5,2.391 0,2.667 -1.203,4.4009 -3.609,5.203 -0.927,0.3333 -1.9272,0.4323 -3.0001,0.2969 2.4691,4.1354 6.7341,6.6041 12.7971,7.40622 0.875,0.13542 1.708,0.20313 2.5,0.20313 4.271,0 7.406,-2.10415 9.406,-6.31245 1.271,-2.6667 1.906,-6.0628 1.906,-10.1878 0,-8.875 -2.666,-14.208 -8,-16 -1.208,-0.406 -2.51,-0.609 -3.906,-0.609 h -4.406 c -1.459,0 -2.255,-0.365 -2.391,-1.094 0,-0.667 0.5,-1.068 1.5,-1.203 1,0 2.297,-0.099 3.891,-0.297 3.406,-0.135 6.073,-1.437 8,-3.906 v -0.094 l 0.109,-0.109 0.094,-0.094 h 0.109 l 0.594,-1 c 1.865,-3.135 2.797,-6.938 2.797,-11.406 0,-6.198 -2.401,-9.828 -7.203,-10.891 -0.792,-0.198 -1.589,-0.297 -2.391,-0.297 -4.667,0 -8.469,1.334 -11.406,4 -0.729,0.667 -1.359,1.396 -1.891,2.188 4.125,0 6.188,1.666 6.188,5 0,2.406 -1.032,4.01 -3.094,4.812 -0.604,0.198 -1.271,0.297 -2,0.297 -2.6042,0 -4.2396,-1.167 -4.9062,-3.5 v 0 -0.109 C 6.9688,-51.938 6.9062,-52.469 6.9062,-53 c 0,-4.469 2.198,-8.036 6.5938,-10.703 3.198,-1.927 6.896,-2.891 11.094,-2.891 6.073,0 10.974,1.797 14.703,5.391 L 39.5,-61 c 2.333,2.396 3.5,5.13 3.5,8.203 0,5.531 -2.365,10.162 -7.094,13.891 -2.073,1.604 -4.375,2.838 -6.906,3.703 z"
                                   style="fill:#ff0000;fill-opacity:1;fill-rule:nonzero;stroke:none"
                                   id="path8176" /><g
                                   id="g8178"
                                   transform="translate(50)"><path
                                   d="m 26.5,-37.297 v 0 l -5.594,22.094 c -1.135,4.271 -2.036,7.5363 -2.703,9.7968 -1.073,3.2708 -2.073,5.23953 -3,5.9062 v 0.09375 c -0.604,0.33333 -1.271,0.50005 -2,0.50005 -1.531,0 -2.463,-0.66672 -2.797,-2.00005 C 10.333,-1.1042 10.297,-1.3333 10.297,-1.5938 10.297,-2.1979 10.562,-3 11.094,-4 17.365,-17.531 21.635,-28.63 23.906,-37.297 h -5.703 c -5.198,0 -9.4322,2.568 -12.703,7.703 -0.6042,0.792 -1.1354,1.188 -1.5938,1.188 -0.802,0 -1.2031,-0.334 -1.2031,-1 0,-0.729 1.1979,-2.729 3.5938,-6 0.4687,-0.532 0.901,-1.063 1.2969,-1.594 0.2083,-0.271 0.4427,-0.536 0.7031,-0.797 0.1354,-0.198 0.3021,-0.401 0.5,-0.609 2.9371,-3.125 6.4061,-4.688 10.4061,-4.688 h 33.5 c 2.261,0 3.557,0.5 3.891,1.5 v 0.094 c 0.073,0.198 0.109,0.464 0.109,0.797 0,2.271 -1.635,3.406 -4.906,3.406 H 40.406 c -1.208,5.667 -1.812,10.964 -1.812,15.891 0,6.208 0.968,11.7081 2.906,16.4998 0.396,0.9374 0.594,1.6718 0.594,2.2031 0,1.5312 -0.834,2.666642 -2.5,3.40622 C 39.062,0.96354 38.531,1.0938 38,1.0938 c -1.333,0 -2.333,-0.93234 -3,-2.7969 -0.198,-0.5938 -0.396,-1.3281 -0.594,-2.2031 -0.541,-2.2605 -0.812,-4.7917 -0.812,-7.5938 0,-4.396 0.901,-10.76 2.703,-19.094 l 1.5,-6.703 z"
                                   style="fill:#ff0000;fill-opacity:1;fill-rule:nonzero;stroke:none"
                                   id="path8180" /><g
                                   id="g8182"
                                   transform="matrix(100,0,0,100,-793.06,-1353.9)"><path
                                   d="m 7.4306,13.945 h 1.106 v 0.04 h -1.106 z"
                                   style="fill:#ff0000;fill-opacity:1;fill-rule:nonzero;stroke:none"
                                   id="path8184" /><g
                                   id="g8186"
                                   transform="matrix(0.01,0,0,0.01,7.7336,14.901)"><path
                                   d="m 44.906,-17.406 v 0 L 42.094,0 H 5 c 0,-1.6667 0.1979,-2.7344 0.5938,-3.2031 l 0.5,-0.5 19.2032,-21.3909 c 7,-7.875 10.5,-15.245 10.5,-22.109 0,-5.927 -1.797,-10.427 -5.391,-13.5 l -0.109,-0.094 h -0.094 c -2.135,-1.802 -4.734,-2.703 -7.797,-2.703 -4.802,0 -8.635,2.068 -11.5,6.203 -0.802,1.198 -1.4685,2.531 -1.9998,4 0.198,-0.073 0.6303,-0.109 1.2968,-0.109 2.667,0 4.365,1.203 5.094,3.609 v 0.094 c 0.135,0.469 0.203,0.969 0.203,1.5 0,2.667 -1.266,4.37 -3.797,5.109 -0.531,0.125 -1,0.188 -1.406,0.188 -2.4689,0 -4.0991,-1.032 -4.8908,-3.094 C 5.1354,-46.729 5,-47.562 5,-48.5 c 0,-5.135 1.9688,-9.536 5.906,-13.203 3.532,-3.261 7.797,-4.891 12.797,-4.891 7.333,0 13.031,2.464 17.094,7.391 2.333,2.864 3.667,6.265 4,10.203 0.073,0.604 0.109,1.203 0.109,1.797 0,4.864 -1.833,9.5 -5.5,13.906 -1.937,2.261 -4.937,5.261 -9,9 l -6.109,5.391 -1,0.906 -10.594,10.2969 h 18 c 5.865,0 9.031,-0.2657 9.5,-0.7969 0.667,-0.9375 1.401,-3.906 2.203,-8.906 z"
                                   style="fill:#ff0000;fill-opacity:1;fill-rule:nonzero;stroke:none"
                                   id="path8188" /><g
                                   id="g8190"
                                   transform="matrix(1.000008,0,0,1.000008,447.74977,-126.48909)"><path
                                   d="m 29,-35.203 v 0 c 6.667,1.333 11.469,4.599 14.406,9.797 1.532,2.604 2.297,5.375 2.297,8.312 0,5.667 -2.333,10.4325 -7,14.2971 -4.073,3.33336 -8.838,5 -14.297,5 C 17.802,2.2031 12.5,0.23438 8.5,-3.7031 5.6354,-6.5052 4.2031,-9.7708 4.2031,-13.5 c 0,-3.135 1.4011,-5 4.2031,-5.594 0.4584,-0.135 0.9219,-0.203 1.3907,-0.203 2.5311,0 4.2341,1.068 5.1091,3.203 0.261,0.865 0.427,1.662 0.5,2.391 0,2.667 -1.203,4.4009 -3.609,5.203 -0.927,0.3333 -1.9272,0.4323 -3.0001,0.2969 2.4691,4.1354 6.7341,6.6041 12.7971,7.40622 0.875,0.13542 1.708,0.20313 2.5,0.20313 4.271,0 7.406,-2.10415 9.406,-6.31245 1.271,-2.6667 1.906,-6.0628 1.906,-10.1878 0,-8.875 -2.666,-14.208 -8,-16 -1.208,-0.406 -2.51,-0.609 -3.906,-0.609 h -4.406 c -1.459,0 -2.255,-0.365 -2.391,-1.094 0,-0.667 0.5,-1.068 1.5,-1.203 1,0 2.297,-0.099 3.891,-0.297 3.406,-0.135 6.073,-1.437 8,-3.906 v -0.094 l 0.109,-0.109 0.094,-0.094 h 0.109 l 0.594,-1 c 1.865,-3.135 2.797,-6.938 2.797,-11.406 0,-6.198 -2.401,-9.828 -7.203,-10.891 -0.792,-0.198 -1.589,-0.297 -2.391,-0.297 -4.667,0 -8.469,1.334 -11.406,4 -0.729,0.667 -1.359,1.396 -1.891,2.188 4.125,0 6.188,1.666 6.188,5 0,2.406 -1.032,4.01 -3.094,4.812 -0.604,0.198 -1.271,0.297 -2,0.297 -2.6042,0 -4.2396,-1.167 -4.9062,-3.5 v 0 -0.109 C 6.9688,-51.938 6.9062,-52.469 6.9062,-53 c 0,-4.469 2.198,-8.036 6.5938,-10.703 3.198,-1.927 6.896,-2.891 11.094,-2.891 6.073,0 10.974,1.797 14.703,5.391 L 39.5,-61 c 2.333,2.396 3.5,5.13 3.5,8.203 0,5.531 -2.365,10.162 -7.094,13.891 -2.073,1.604 -4.375,2.838 -6.906,3.703 z"
                                   style="fill:#ff0000;fill-opacity:1;fill-rule:nonzero;stroke:none"
                                   id="path8192" /><g
                                   id="g8194"
                                   transform="translate(50)"><path
                                   d="m 29.406,-64 v 56.0938 c 0,2 0.396,3.2708 1.188,3.8124 1.135,0.6667 3.838,1 8.109,1 h 3.203 V 0 C 39.573,-0.19792 34.172,-0.29688 25.703,-0.29688 17.234,-0.29688 11.833,-0.19792 9.5,0 v -3.0938 h 3.203 c 5.136,0 8.068,-0.6041 8.797,-1.8124 L 21.594,-5 C 21.865,-5.5312 22,-6.5 22,-7.9062 V -59.703 c -3.469,1.739 -7.833,2.609 -13.0938,2.609 v -3.109 c 7.9998,0 14.0628,-2.13 18.1878,-6.391 1.271,0 2.005,0.229 2.203,0.688 v 0 0.109 c 0.073,0.198 0.109,0.797 0.109,1.797 z"
                                   style="fill:#ff0000;fill-opacity:1;fill-rule:nonzero;stroke:none"
                                   id="path8196" /><g
                                   id="g8198"
                                   transform="translate(50)"><path
                                   d="m 44.906,-20.094 v 0 c 0,6.865 -2.567,12.5315 -7.703,17.0002 C 33.068,0.4375 28.365,2.2031 23.094,2.2031 16.969,2.2031 12.104,-0.36458 8.5,-5.5 6.1667,-8.7708 5,-12.302 5,-16.094 c 0,-3.073 1.3646,-4.807 4.0938,-5.203 0.2708,-0.073 0.5416,-0.109 0.8124,-0.109 2.4588,0 4.0578,1.104 4.7968,3.312 0.136,0.532 0.203,1.063 0.203,1.594 0,2.135 -0.937,3.604 -2.812,4.406 -0.667,0.334 -1.396,0.5 -2.1878,0.5 -0.7395,0 -1.3072,-0.067 -1.7031,-0.203 1.1979,4.198 3.7659,7.3282 7.7029,9.3908 2.198,1.2083 4.532,1.81245 7,1.81245 4.459,0 8.021,-2.16665 10.688,-6.50005 C 35.198,-9.8958 36,-14.464 36,-20.797 c 0,-5.604 -0.599,-9.807 -1.797,-12.609 -1.864,-4.261 -4.698,-6.391 -8.5,-6.391 -5.406,0 -9.708,2.333 -12.906,7 -0.396,0.594 -0.828,0.891 -1.297,0.891 -0.865,0 -1.333,-0.464 -1.406,-1.391 V -34.5 -64.094 c 0,-1.541 0.333,-2.344 1,-2.406 0.271,0 0.672,0.099 1.203,0.297 4.198,1.864 8.63,2.797 13.297,2.797 4.802,0 9.338,-0.964 13.609,-2.891 0.333,-0.198 0.599,-0.297 0.797,-0.297 0.667,0 1,0.365 1,1.094 0,0.865 -1.068,2.266 -3.203,4.203 -4.531,4.136 -9.896,6.203 -16.094,6.203 -2.802,0 -5.635,-0.437 -8.5,-1.312 v 19.5 C 16.672,-40.302 20.906,-42 25.906,-42 c 5.865,0 10.698,2.568 14.5,7.703 3,4.063 4.5,8.797 4.5,14.203 z"
                                   style="fill:#ff0000;fill-opacity:1;fill-rule:nonzero;stroke:none"
                                   id="path8200" /><g
                                   id="g8202"
                                   transform="matrix(0.7,0,0,0.7,50,-41.3)"><path
                                   d="m 44.297,-25 v 0 c 0,5.938 -2.235,10.839 -6.703,14.703 -3.667,3.1355 -7.896,4.7032 -12.688,4.7032 -5.875,0 -10.745,-2.2708 -14.609,-6.8122 C 7.1615,-16.073 5.5938,-20.271 5.5938,-25 c 0,-5.938 2.2343,-10.839 6.7032,-14.703 3.667,-3.136 7.901,-4.703 12.703,-4.703 5.865,0 10.729,2.271 14.594,6.812 3.135,3.667 4.703,7.865 4.703,12.594 z M 25,-9.5938 v 0 c 5,0 9.031,-2.0002 12.094,-6.0002 2.135,-2.802 3.203,-5.937 3.203,-9.406 0,-5.062 -2,-9.13 -6,-12.203 -2.729,-2.136 -5.828,-3.203 -9.297,-3.203 -5.135,0 -9.271,2.067 -12.406,6.203 -2,2.739 -3.0002,5.807 -3.0002,9.203 0,5 1.9682,9.031 5.9062,12.094 2.802,2.208 5.969,3.3122 9.5,3.3122 z"
                                   style="fill:#ff0000;fill-opacity:1;fill-rule:nonzero;stroke:none"
                                   id="path8204" /><g
                                   id="g8206"
                                   transform="matrix(1.4286,0,0,1.4286,93.5839,58.93896)"><path
                                   d="M 68.703,-32.703 H 9 c -2.1354,0 -3.2708,-0.667 -3.4062,-2 0,-1.333 1.1041,-2 3.3124,-2 H 68.797 c 2.135,0 3.234,0.667 3.297,2 0,1.333 -1.13,2 -3.391,2 z m 0.094,19.406 H 8.9062 c -2.1354,0 -3.2395,-0.667 -3.3124,-2 0,-1.333 1.1354,-2 3.4062,-2 h 59.703 c 2.136,0 3.266,0.667 3.391,2 0,1.333 -1.099,2 -3.297,2 z"
                                   style="fill:#ff0000;fill-opacity:1;fill-rule:nonzero;stroke:none"
                                   id="path8208" /><g
                                   id="g8210"
                                   transform="translate(111.8,-67.6)"><path
                                   d="m 47.594,-60.906 -13.5,19 c -2.865,4 -4.927,9.703 -6.188,17.109 -0.739,4.927 -1.109,10.391 -1.109,16.3908 v 5.1093 c 0,3.66669 -1.531,5.5 -4.594,5.5 -3.073,0 -4.609,-1.83331 -4.609,-5.5 0,-11.1351 3.234,-22.3021 9.703,-33.5001 l 2.609,-4.109 11.188,-15.797 H 20.406 c -6.073,0 -9.344,0.203 -9.812,0.609 C 9.9271,-55.5 9.0938,-52.469 8.0938,-47 h -2.5 l 3.3124,-20.594 h 2.4998 c 0.261,1.125 0.86,1.891 1.797,2.297 h 0.094 v 0 c 1.739,0.594 5.375,0.891 10.906,0.891 H 48.5 c 0,1.541 -0.302,2.708 -0.906,3.5 z"
                                   style="fill:#ff0000;fill-opacity:1;fill-rule:nonzero;stroke:none"
                                   id="path8212" /><g
                                   id="g8214"
                                   transform="translate(50)"><path
                                   d="m 26.5,-37.297 v 0 l -5.594,22.094 c -1.135,4.271 -2.036,7.5363 -2.703,9.7968 -1.073,3.2708 -2.073,5.23953 -3,5.9062 v 0.09375 c -0.604,0.33333 -1.271,0.50005 -2,0.50005 -1.531,0 -2.463,-0.66672 -2.797,-2.00005 C 10.333,-1.1042 10.297,-1.3333 10.297,-1.5938 10.297,-2.1979 10.562,-3 11.094,-4 17.365,-17.531 21.635,-28.63 23.906,-37.297 h -5.703 c -5.198,0 -9.4322,2.568 -12.703,7.703 -0.6042,0.792 -1.1354,1.188 -1.5938,1.188 -0.802,0 -1.2031,-0.334 -1.2031,-1 0,-0.729 1.1979,-2.729 3.5938,-6 0.4687,-0.532 0.901,-1.063 1.2969,-1.594 0.2083,-0.271 0.4427,-0.536 0.7031,-0.797 0.1354,-0.198 0.3021,-0.401 0.5,-0.609 2.9371,-3.125 6.4061,-4.688 10.4061,-4.688 h 33.5 c 2.261,0 3.557,0.5 3.891,1.5 v 0.094 c 0.073,0.198 0.109,0.464 0.109,0.797 0,2.271 -1.635,3.406 -4.906,3.406 H 40.406 c -1.208,5.667 -1.812,10.964 -1.812,15.891 0,6.208 0.968,11.7081 2.906,16.4998 0.396,0.9374 0.594,1.6718 0.594,2.2031 0,1.5312 -0.834,2.666642 -2.5,3.40622 C 39.062,0.96354 38.531,1.0938 38,1.0938 c -1.333,0 -2.333,-0.93234 -3,-2.7969 -0.198,-0.5938 -0.396,-1.3281 -0.594,-2.2031 -0.541,-2.2605 -0.812,-4.7917 -0.812,-7.5938 0,-4.396 0.901,-10.76 2.703,-19.094 l 1.5,-6.703 z"
                                   style="fill:#ff0000;fill-opacity:1;fill-rule:nonzero;stroke:none"
                                   id="path8216" /><g
                                   id="g8218"
                                   transform="matrix(100,0,0,100,-1598.3,-1296)"><path
                                   d="m 15.483,13.366 h 1.106 v 0.04 h -1.106 z"
                                   style="fill:#ff0000;fill-opacity:1;fill-rule:nonzero;stroke:none"
                                   id="path8220" /><g
                                   id="g8222"
                                   transform="matrix(0.01,0,0,0.01,15.786,14.322)"><path
                                   d="m 2.7969,-16.5 v -3.094 L 33.5,-66.5 c 0.531,-0.802 1.198,-1.203 2,-1.203 0.938,0 1.469,0.37 1.594,1.109 v 1.5 45.5 h 10 v 3.094 h -10 v 8.7031 c 0,2.0625 0.401,3.3281 1.203,3.7969 0.937,0.6042 3.073,0.9062 6.406,0.9062 h 2.094 V 0 c -2.729,-0.19792 -7.261,-0.29688 -13.594,-0.29688 -6.271,0 -10.771,0.09896 -13.5,0.29688 v -3.0938 h 2.094 c 4.135,0 6.536,-0.5677 7.203,-1.7031 0.271,-0.4687 0.406,-1.4687 0.406,-3 V -16.5 Z M 30,-19.594 V -56.906 L 5.5938,-19.594 Z"
                                   style="fill:#ff0000;fill-opacity:1;fill-rule:nonzero;stroke:none"
                                   id="path8224" /><g
                                   id="g8226"
                                   transform="matrix(5.2632,0,0,5.2632,-1578.6,-1432.2)" /></g></g></g></g></g></g></g></g></g></g></g></g></g></g></g></g></g></g></g></g></g></g></g></g></g></g></g></g></g></g></g></g></g></g></g></g></g></g></g></g></g></g></g></g></g></g></g></g></g></g></g></g></g></g></g></g></g></g></g></g></g></g></g></g></g></g><g
                   id="g8228"
                   transform="scale(0.56693)" /></g></g></g></g></g></g></g></svg>
