<?xml version="1.0" encoding="UTF-8" standalone="no"?>
<svg
   xmlns:dc="http://purl.org/dc/elements/1.1/"
   xmlns:cc="http://creativecommons.org/ns#"
   xmlns:rdf="http://www.w3.org/1999/02/22-rdf-syntax-ns#"
   xmlns:svg="http://www.w3.org/2000/svg"
   xmlns="http://www.w3.org/2000/svg"
   xmlns:sodipodi="http://sodipodi.sourceforge.net/DTD/sodipodi-0.dtd"
   xmlns:inkscape="http://www.inkscape.org/namespaces/inkscape"
   version="1.1"
   id="svg6126"
   xml:space="preserve"
   width="192"
   height="149.33333"
   viewBox="0 0 192 149.33333"
   sodipodi:docname="2020-1215-1900-crop.pdf"><metadata
     id="metadata6132"><rdf:RDF><cc:Work
         rdf:about=""><dc:format>image/svg+xml</dc:format><dc:type
           rdf:resource="http://purl.org/dc/dcmitype/StillImage" /></cc:Work></rdf:RDF></metadata><defs
     id="defs6130"><clipPath
       clipPathUnits="userSpaceOnUse"
       id="clipPath6144"><path
         d="M 0,0 H 194 V 150 H 0 Z"
         id="path6142" /></clipPath><clipPath
       clipPathUnits="userSpaceOnUse"
       id="clipPath6154"><path
         d="M 0,0 H 194 V 150 H 0 Z"
         id="path6152" /></clipPath><clipPath
       clipPathUnits="userSpaceOnUse"
       id="clipPath6166"><path
         d="M 0,0 V 150 H 194 V 0 Z"
         id="path6164" /></clipPath><clipPath
       clipPathUnits="userSpaceOnUse"
       id="clipPath6176"><path
         d="M 0,0 H 343 V 266 H 0 Z"
         id="path6174" /></clipPath></defs><sodipodi:namedview
     pagecolor="#ffffff"
     bordercolor="#666666"
     borderopacity="1"
     objecttolerance="10"
     gridtolerance="10"
     guidetolerance="10"
     inkscape:pageopacity="0"
     inkscape:pageshadow="2"
     inkscape:window-width="640"
     inkscape:window-height="480"
     id="namedview6128" /><g
     id="g6134"
     inkscape:groupmode="layer"
     inkscape:label="2020-1215-1900-crop"
     transform="matrix(1.3333333,0,0,-1.3333333,0,149.33333)"><g
       id="g6136"
       transform="translate(-25,-19)"><g
         id="g6138"><g
           id="g6140"
           clip-path="url(#clipPath6144)"><g
             id="g6146"
             transform="matrix(0.73333,0,0,-0.73333,25.867,130)"><g
               id="g6148"><g
                 id="g6150"
                 clip-path="url(#clipPath6154)"><g
                   id="g6156"><g
                     id="g6158" /></g><g
                   id="g6160"><g
                     id="g6162"
                     clip-path="url(#clipPath6166)"><g
                       id="g6168"
                       transform="scale(0.56693)" /></g></g><g
                   id="g6170"
                   transform="scale(0.56693)"><g
                     id="g6172"
                     clip-path="url(#clipPath6176)"><path
                       d="M 0,0 H 343 V 266 H 0 Z"
                       style="fill:#ffffff;fill-opacity:1;fill-rule:nonzero;stroke:none"
                       id="path6178" /><path
                       d="m 325.12,190 3.04,-4.31 -2.82,-3.99 h 1.77 l 1.27,1.94 c 0.23,0.38 0.43,0.69 0.57,0.94 0.23,-0.35 0.45,-0.65 0.64,-0.92 l 1.39,-1.96 h 1.69 l -2.87,3.91 3.09,4.39 h -1.73 l -1.71,-2.58 -0.45,-0.7 -2.17,3.28 z"
                       style="fill:#000000;fill-opacity:1;fill-rule:nonzero;stroke:none"
                       id="path6180" /><path
                       d="M 0,194.71 H 341"
                       style="fill:none;stroke:#000000;stroke-width:1;stroke-linecap:butt;stroke-linejoin:miter;stroke-miterlimit:10;stroke-dasharray:none;stroke-opacity:1"
                       id="path6182" /><path
                       d="m 342,194.71 -4,-4"
                       style="fill:none;stroke:#000000;stroke-width:1;stroke-linecap:butt;stroke-linejoin:miter;stroke-miterlimit:10;stroke-dasharray:none;stroke-opacity:1"
                       id="path6184" /><path
                       d="m 342,194.71 -4,4"
                       style="fill:none;stroke:#000000;stroke-width:1;stroke-linecap:butt;stroke-linejoin:miter;stroke-miterlimit:10;stroke-dasharray:none;stroke-opacity:1"
                       id="path6186" /><path
                       d="m 62.973,276.74 1.339,-5.89 1.34,-5.68 1.34,-5.48 1.34,-5.28 1.34,-5.08 2.68,-9.58 2.679,-8.84 2.68,-8.13 2.68,-7.44 2.679,-6.79 2.68,-6.17 2.68,-5.58 2.679,-5.01 2.68,-4.48 2.68,-3.98 2.679,-3.5 2.682,-3.06 2.68,-2.65 2.68,-2.27 2.68,-1.91 2.68,-1.59 2.68,-1.29 2.68,-1.03 2.68,-0.8 2.68,-0.59 2.68,-0.42 2.67,-0.28 2.68,-0.17 2.68,-0.08 2.68,-0.02 h 2.68 l 2.68,-0.01 2.68,-0.05 2.68,-0.11 2.68,-0.21 2.68,-0.33 2.68,-0.49 2.68,-0.67 2.68,-0.89 2.68,-1.14 2.68,-1.41 2.68,-1.72 2.68,-2.06 2.68,-2.42 2.68,-2.81 2.68,-3.24 2.68,-3.7 2.68,-4.18 2.68,-4.7 2.68,-5.24 2.68,-5.82 2.68,-6.42 2.68,-7.06 2.68,-7.73 2.68,-8.417 2.68,-9.145 2.68,-9.9 1.34,-5.242 1.34,-5.442 1.34,-5.647 1.34,-5.853 1.33,-6.065 1.34,-6.28 1.34,-6.499 1.34,-6.721 1.34,-6.947 1.34,-7.177 1.34,-7.4114 1.34,-7.6485 1.34,-7.8901"
                       style="fill:none;stroke:#006400;stroke-width:1.5;stroke-linecap:round;stroke-linejoin:round;stroke-miterlimit:10;stroke-dasharray:none;stroke-opacity:1"
                       id="path6188" /><path
                       d="m 1.3398,274.74 1.3399,-5.82 1.3398,-5.61 1.3399,-5.41 1.3398,-5.21 1.3399,-5.01 2.6799,-9.46 2.679,-8.72 2.68,-8.01 2.68,-7.33 2.68,-6.69 2.679,-6.07 2.68,-5.48 2.68,-4.92 2.679,-4.39 2.68,-3.9 2.68,-3.43 2.679,-2.99 2.68,-2.58 2.68,-2.2 2.679,-1.86 2.68,-1.53 2.68,-1.25 2.679,-0.99 2.68,-0.76 2.68,-0.57 2.679,-0.39 2.68,-0.26 2.68,-0.14 2.68,-0.07 2.679,-0.02 h 2.68 l 2.68,-0.02 2.679,-0.05 2.68,-0.13 2.68,-0.22 2.679,-0.36 2.68,-0.52 2.68,-0.71 2.679,-0.93 2.682,-1.18 2.68,-1.46 2.68,-1.77 2.68,-2.12 2.68,-2.48 2.68,-2.88 2.68,-3.32 2.68,-3.77 2.68,-4.27 2.68,-4.79 2.67,-5.34 2.68,-5.91 2.68,-6.53 2.68,-7.17 2.68,-7.837 2.68,-8.539 2.68,-9.269 1.34,-4.918 1.34,-5.111 1.34,-5.309 1.34,-5.51 1.34,-5.715 1.34,-5.924 1.34,-6.137 1.34,-6.353 1.34,-6.572 1.34,-6.797 1.34,-7.024 1.34,-7.2546 1.34,-7.4901 1.34,-7.7288"
                       style="fill:none;stroke:#cc0000;stroke-width:1.5;stroke-linecap:butt;stroke-linejoin:round;stroke-miterlimit:10;stroke-dasharray:5.5, 4;stroke-dashoffset:0;stroke-opacity:1"
                       id="path6190" /><path
                       d="m 125.95,272.8 1.34,-5.76 1.33,-5.54 1.34,-5.34 1.34,-5.15 2.68,-9.71 2.68,-8.96 2.68,-8.25 2.68,-7.55 2.68,-6.9 2.68,-6.27 2.68,-5.68 2.68,-5.1 2.68,-4.57 2.68,-4.06 2.68,-3.58 2.68,-3.13 2.68,-2.72 2.68,-2.32 2.68,-1.97 2.68,-1.64 2.68,-1.34 2.68,-1.08 2.68,-0.83 2.68,-0.63 2.68,-0.44 2.68,-0.3 2.68,-0.18 2.68,-0.1 2.68,-0.03 h 2.68 l 2.68,-0.01 2.68,-0.04 2.68,-0.09 2.68,-0.19 2.68,-0.31 2.67,-0.46 2.68,-0.65 2.68,-0.85 2.68,-1.09 2.68,-1.37 2.68,-1.66 2.68,-2 2.68,-2.35 2.68,-2.75 2.68,-3.17 2.68,-3.62 2.68,-4.1 2.68,-4.61 2.68,-5.15 2.68,-5.72 2.68,-6.32 2.68,-6.95 2.68,-7.61 2.68,-8.299 2.68,-9.021 2.68,-9.771 1.34,-5.176 1.34,-5.375 1.34,-5.578 1.34,-5.784 1.34,-5.993 1.34,-6.208 1.34,-6.425 1.34,-6.646 1.34,-6.871 1.34,-7.1 1.34,-7.3327 1.34,-7.5686 1.34,-7.8085"
                       style="fill:none;stroke:#0000ff;stroke-width:1.5;stroke-linecap:butt;stroke-linejoin:round;stroke-miterlimit:10;stroke-dasharray:9.5, 4, 1.5, 4;stroke-dashoffset:0;stroke-opacity:1"
                       id="path6192" /><path
                       d="m 176.04,150.26 h 47.08"
                       style="fill:none;stroke:#000000;stroke-width:1.5;stroke-linecap:round;stroke-linejoin:round;stroke-miterlimit:10;stroke-dasharray:none;stroke-opacity:1"
                       id="path6194" /><path
                       d="m 238.12,150.26 -15,3.75 v -7.5 z"
                       style="fill:#000000;fill-opacity:1;fill-rule:evenodd;stroke:none"
                       id="path6196" /><path
                       d="M 176.04,150.26 H 128.96"
                       style="fill:none;stroke:#000000;stroke-width:1.5;stroke-linecap:round;stroke-linejoin:round;stroke-miterlimit:10;stroke-dasharray:none;stroke-opacity:1"
                       id="path6198" /><path
                       d="m 113.96,150.26 15,-3.75 v 7.5 z"
                       style="fill:#000000;fill-opacity:1;fill-rule:evenodd;stroke:none"
                       id="path6200" /><path
                       d="m 180.04,150.26 c 0,2.21 -1.79,4 -4,4 -2.21,0 -4,-1.79 -4,-4 0,-2.21 1.79,-4 4,-4 2.21,0 4,1.79 4,4 z"
                       style="fill:#006400;fill-opacity:1;fill-rule:nonzero;stroke:none"
                       id="path6202" /><path
                       d="m 117.96,150.26 c 0,2.21 -1.8,4 -4,4 -2.21,0 -4,-1.79 -4,-4 0,-2.21 1.79,-4 4,-4 2.2,0 4,1.79 4,4 z"
                       style="fill:#ff0000;fill-opacity:1;fill-rule:nonzero;stroke:none"
                       id="path6204" /><path
                       d="m 242.12,150.26 c 0,2.21 -1.79,4 -4,4 -2.21,0 -4,-1.79 -4,-4 0,-2.21 1.79,-4 4,-4 2.21,0 4,1.79 4,4 z"
                       style="fill:#0000ff;fill-opacity:1;fill-rule:nonzero;stroke:none"
                       id="path6206" /><g
                       id="g6208"
                       transform="scale(19)"><g
                         id="g6210"
                         transform="matrix(0.01,0,0,0.01,8,5.9605)"><path
                           d="m 36.703,-40 v 0 l -6,31.7031 c -0.604,4.1354 -1.807,8.86982 -3.609,14.2031 -0.667,1.9271 -1.334,3.5573 -2,4.8908 -2.334,4.937 -5.229,8.005 -8.688,9.203 -0.875,0.333 -1.745,0.5 -2.609,0.5 -3.333,0 -5.797,-1.135 -7.3908,-3.406 -0.7395,-1 -1.1093,-2.167 -1.1093,-3.5 0,-2.667 1.1354,-4.5002 3.4062,-5.5002 0.6667,-0.3334 1.3649,-0.5 2.0939,-0.5 1.937,0 3.141,0.8333 3.609,2.5002 0.063,0.333 0.094,0.666 0.094,1 0,2.271 -1,3.875 -3,4.812 -0.729,0.334 -1.5625,0.532 -2.5,0.594 1.271,1.198 2.87,1.797 4.797,1.797 2.937,0 5.239,-3.266 6.906,-9.797 0.333,-1.5312 0.735,-3.5312 1.203,-6 L 22.5,-0.5 30,-40 h -6.594 c -1.666,0 -2.567,-0.266 -2.703,-0.797 h -0.109 v -0.406 c 0,-1.136 0.567,-1.766 1.703,-1.891 v 0 h 1.297 6.906 c 1.604,-8.333 2.703,-13.567 3.297,-15.703 2,-6.667 5.536,-10.5 10.609,-11.5 0.729,-0.135 1.427,-0.203 2.094,-0.203 3.469,0 6,1.135 7.594,3.406 v 0 c 0.739,1 1.109,2.167 1.109,3.5 0,2.667 -1.135,4.5 -3.406,5.5 -0.667,0.334 -1.365,0.5 -2.094,0.5 -1.937,0 -3.141,-0.833 -3.609,-2.5 -0.063,-0.333 -0.094,-0.666 -0.094,-1 0,-2.073 0.932,-3.609 2.797,-4.609 0.739,-0.469 1.609,-0.735 2.609,-0.797 -1.271,-1.198 -2.906,-1.797 -4.906,-1.797 -2.062,0 -3.63,1.13 -4.703,3.391 -0.469,0.937 -1.266,4.406 -2.391,10.406 l -2.109,11.406 h 8.297 c 1.666,0 2.567,0.365 2.703,1.094 0,1.198 -0.531,1.865 -1.594,2 h -0.109 -1.297 z"
                           style="fill:#006400;fill-opacity:1;fill-rule:nonzero;stroke:none"
                           id="path6212" /><g
                           id="g6214"
                           transform="translate(59.8)"><path
                             d="m 33.094,24 v 0 c 0,0.667 -0.334,1 -1,1 -0.792,0 -2.558,-1.365 -5.297,-4.094 C 22.661,16.771 19.229,11.87 16.5,6.2031 12.104,-2.8698 9.9062,-13.271 9.9062,-25 c 0,-11.271 2.0988,-21.438 6.2968,-30.5 3.469,-7.396 7.87,-13.328 13.203,-17.797 1.396,-1.135 2.292,-1.703 2.688,-1.703 0.666,0 1,0.333 1,1 0,0.333 -0.433,0.901 -1.297,1.703 C 21.068,-61.37 15.703,-45.604 15.703,-25 c 0,20.5312 5.235,36.13 15.703,46.797 1.125,1.135 1.688,1.87 1.688,2.203 z"
                             style="fill:#006400;fill-opacity:1;fill-rule:nonzero;stroke:none"
                             id="path6216" /><g
                             id="g6218"
                             transform="translate(38.9)"><path
                               d="M 33.406,-30.203 30,-16.5 c -1.135,4.531 -1.703,7.4635 -1.703,8.7969 0,3.4687 1.234,5.5677 3.703,6.2969 0.531,0.2083 1.13,0.3124 1.797,0.3124 3.333,0 6.37,-1.6666 9.109,-5 1.792,-2.1354 3.188,-4.8382 4.188,-8.1092 0.208,-0.729 0.646,-1.094 1.312,-1.094 0.792,0 1.188,0.333 1.188,1 0,1.667 -1.032,4.068 -3.094,7.2032 -3.604,5.4584 -7.906,8.1876 -12.906,8.1876 -4.532,0 -7.828,-1.89588 -9.891,-5.6876 -0.406,-0.6041 -0.708,-1.2395 -0.906,-1.9062 -1.594,3.1979 -3.792,5.4323 -6.594,6.70312 -1.271,0.59376 -2.573,0.89068 -3.906,0.89068 -4.0001,0 -6.797,-1.166717 -8.3908,-3.5 -0.6666,-0.8646 -1,-1.8959 -1,-3.0938 0,-2.4688 1.0626,-4.2031 3.1876,-5.203 0.7395,-0.396 1.5104,-0.594 2.3124,-0.594 1.9998,0 3.1978,0.833 3.5938,2.5001 0.062,0.3334 0.094,0.6667 0.094,1 0,2.2604 -1.13,3.9271 -3.3909,5 -0.4062,0.1979 -0.8385,0.3281 -1.2969,0.3907 1.3959,0.875 3.0628,1.3124 4.9998,1.3124 3.532,0 6.328,-2.3697 8.391,-7.1093 0.406,-1 0.776,-2.0989 1.109,-3.2969 3.594,-13.604 5.391,-21.536 5.391,-23.797 -0.396,-4.135 -2.193,-6.37 -5.391,-6.703 -3.468,0 -6.635,1.766 -9.5,5.297 v 0.109 c 0,0.063 -0.036,0.094 -0.109,0.094 -1,1.333 -1.901,2.865 -2.7032,4.594 -0.3334,0.802 -0.6303,1.604 -0.8907,2.406 L 8.5,-28.906 c -0.1354,0.739 -0.5677,1.109 -1.2969,1.109 -0.8021,0 -1.2031,-0.333 -1.2031,-1 0,-1.667 1.0677,-4.068 3.2031,-7.203 3.5939,-5.469 7.8909,-8.203 12.8909,-8.203 5.135,0 8.739,2.536 10.812,7.609 2.125,-4.135 4.959,-6.604 8.5,-7.406 0.667,-0.135 1.334,-0.203 2,-0.203 3.927,0 6.693,1.099 8.297,3.297 0.667,0.937 1,2.041 1,3.312 0,2.729 -1.234,4.563 -3.703,5.5 -0.604,0.198 -1.172,0.297 -1.703,0.297 -2.063,0 -3.297,-0.901 -3.703,-2.703 -0.063,-0.271 -0.094,-0.536 -0.094,-0.797 0,-2 0.969,-3.568 2.906,-4.703 0.594,-0.333 1.224,-0.568 1.891,-0.703 -1.396,-0.865 -3.063,-1.297 -5,-1.297 -4.531,0 -7.729,3.531 -9.594,10.594 -0.135,0.406 -0.234,0.807 -0.297,1.203 z"
                               style="fill:#006400;fill-opacity:1;fill-rule:nonzero;stroke:none"
                               id="path6220" /><g
                               id="g6222"
                               transform="translate(57.2)"><path
                                 d="m 28.906,-25 v 0 c 0,11.271 -2.104,21.4375 -6.312,30.5 C 19.135,12.896 14.74,18.828 9.4062,23.297 8,24.432 7.099,25 6.7031,25 c -0.6666,0 -1,-0.333 -1,-1 C 5.7031,23.667 6.1354,23.099 7,22.297 17.729,11.37 23.094,-4.3958 23.094,-25 c 0,-20.333 -5,-35.734 -15.0002,-46.203 l -0.5,-0.5 C 6.3333,-72.901 5.7031,-73.667 5.7031,-74 c 0,-0.667 0.3334,-1 1,-1 0.8021,0 2.5677,1.365 5.2969,4.094 4.135,4.135 7.568,9.036 10.297,14.703 4.406,9.073 6.609,19.474 6.609,31.203 z"
                                 style="fill:#006400;fill-opacity:1;fill-rule:nonzero;stroke:none"
                                 id="path6224" /><g
                                 id="g6226"
                                 transform="matrix(5.2632,0,0,5.2632,-955.9,-596.05)"><g
                                   id="g6228"
                                   transform="scale(19)"><g
                                   id="g6230"
                                   transform="matrix(0.01,0,0,0.01,14.105,6.1184)"><path
                                   d="m 36.703,-40 v 0 l -6,31.7031 c -0.604,4.1354 -1.807,8.86982 -3.609,14.2031 -0.667,1.9271 -1.334,3.5573 -2,4.8908 -2.334,4.937 -5.229,8.005 -8.688,9.203 -0.875,0.333 -1.745,0.5 -2.609,0.5 -3.333,0 -5.797,-1.135 -7.3908,-3.406 -0.7395,-1 -1.1093,-2.167 -1.1093,-3.5 0,-2.667 1.1354,-4.5002 3.4062,-5.5002 0.6667,-0.3334 1.3649,-0.5 2.0939,-0.5 1.937,0 3.141,0.8333 3.609,2.5002 0.063,0.333 0.094,0.666 0.094,1 0,2.271 -1,3.875 -3,4.812 -0.729,0.334 -1.5625,0.532 -2.5,0.594 1.271,1.198 2.87,1.797 4.797,1.797 2.937,0 5.239,-3.266 6.906,-9.797 0.333,-1.5312 0.735,-3.5312 1.203,-6 L 22.5,-0.5 30,-40 h -6.594 c -1.666,0 -2.567,-0.266 -2.703,-0.797 h -0.109 v -0.406 c 0,-1.136 0.567,-1.766 1.703,-1.891 v 0 h 1.297 6.906 c 1.604,-8.333 2.703,-13.567 3.297,-15.703 2,-6.667 5.536,-10.5 10.609,-11.5 0.729,-0.135 1.427,-0.203 2.094,-0.203 3.469,0 6,1.135 7.594,3.406 v 0 c 0.739,1 1.109,2.167 1.109,3.5 0,2.667 -1.135,4.5 -3.406,5.5 -0.667,0.334 -1.365,0.5 -2.094,0.5 -1.937,0 -3.141,-0.833 -3.609,-2.5 -0.063,-0.333 -0.094,-0.666 -0.094,-1 0,-2.073 0.932,-3.609 2.797,-4.609 0.739,-0.469 1.609,-0.735 2.609,-0.797 -1.271,-1.198 -2.906,-1.797 -4.906,-1.797 -2.062,0 -3.63,1.13 -4.703,3.391 -0.469,0.937 -1.266,4.406 -2.391,10.406 l -2.109,11.406 h 8.297 c 1.666,0 2.567,0.365 2.703,1.094 0,1.198 -0.531,1.865 -1.594,2 h -0.109 -1.297 z"
                                   style="fill:#0000ff;fill-opacity:1;fill-rule:nonzero;stroke:none"
                                   id="path6232" /><g
                                   id="g6234"
                                   transform="translate(59.8)"><path
                                   d="m 33.094,24 v 0 c 0,0.667 -0.334,1 -1,1 -0.792,0 -2.558,-1.365 -5.297,-4.094 C 22.661,16.771 19.229,11.87 16.5,6.2031 12.104,-2.8698 9.9062,-13.271 9.9062,-25 c 0,-11.271 2.0988,-21.438 6.2968,-30.5 3.469,-7.396 7.87,-13.328 13.203,-17.797 1.396,-1.135 2.292,-1.703 2.688,-1.703 0.666,0 1,0.333 1,1 0,0.333 -0.433,0.901 -1.297,1.703 C 21.068,-61.37 15.703,-45.604 15.703,-25 c 0,20.5312 5.235,36.13 15.703,46.797 1.125,1.135 1.688,1.87 1.688,2.203 z"
                                   style="fill:#0000ff;fill-opacity:1;fill-rule:nonzero;stroke:none"
                                   id="path6236" /><g
                                   id="g6238"
                                   transform="translate(38.9)"><path
                                   d="M 33.406,-30.203 30,-16.5 c -1.135,4.531 -1.703,7.4635 -1.703,8.7969 0,3.4687 1.234,5.5677 3.703,6.2969 0.531,0.2083 1.13,0.3124 1.797,0.3124 3.333,0 6.37,-1.6666 9.109,-5 1.792,-2.1354 3.188,-4.8382 4.188,-8.1092 0.208,-0.729 0.646,-1.094 1.312,-1.094 0.792,0 1.188,0.333 1.188,1 0,1.667 -1.032,4.068 -3.094,7.2032 -3.604,5.4584 -7.906,8.1876 -12.906,8.1876 -4.532,0 -7.828,-1.89588 -9.891,-5.6876 -0.406,-0.6041 -0.708,-1.2395 -0.906,-1.9062 -1.594,3.1979 -3.792,5.4323 -6.594,6.70312 -1.271,0.59376 -2.573,0.89068 -3.906,0.89068 -4.0001,0 -6.797,-1.166717 -8.3908,-3.5 -0.6666,-0.8646 -1,-1.8959 -1,-3.0938 0,-2.4688 1.0626,-4.2031 3.1876,-5.203 0.7395,-0.396 1.5104,-0.594 2.3124,-0.594 1.9998,0 3.1978,0.833 3.5938,2.5001 0.062,0.3334 0.094,0.6667 0.094,1 0,2.2604 -1.13,3.9271 -3.3909,5 -0.4062,0.1979 -0.8385,0.3281 -1.2969,0.3907 1.3959,0.875 3.0628,1.3124 4.9998,1.3124 3.532,0 6.328,-2.3697 8.391,-7.1093 0.406,-1 0.776,-2.0989 1.109,-3.2969 3.594,-13.604 5.391,-21.536 5.391,-23.797 -0.396,-4.135 -2.193,-6.37 -5.391,-6.703 -3.468,0 -6.635,1.766 -9.5,5.297 v 0.109 c 0,0.063 -0.036,0.094 -0.109,0.094 -1,1.333 -1.901,2.865 -2.7032,4.594 -0.3334,0.802 -0.6303,1.604 -0.8907,2.406 L 8.5,-28.906 c -0.1354,0.739 -0.5677,1.109 -1.2969,1.109 -0.8021,0 -1.2031,-0.333 -1.2031,-1 0,-1.667 1.0677,-4.068 3.2031,-7.203 3.5939,-5.469 7.8909,-8.203 12.8909,-8.203 5.135,0 8.739,2.536 10.812,7.609 2.125,-4.135 4.959,-6.604 8.5,-7.406 0.667,-0.135 1.334,-0.203 2,-0.203 3.927,0 6.693,1.099 8.297,3.297 0.667,0.937 1,2.041 1,3.312 0,2.729 -1.234,4.563 -3.703,5.5 -0.604,0.198 -1.172,0.297 -1.703,0.297 -2.063,0 -3.297,-0.901 -3.703,-2.703 -0.063,-0.271 -0.094,-0.536 -0.094,-0.797 0,-2 0.969,-3.568 2.906,-4.703 0.594,-0.333 1.224,-0.568 1.891,-0.703 -1.396,-0.865 -3.063,-1.297 -5,-1.297 -4.531,0 -7.729,3.531 -9.594,10.594 -0.135,0.406 -0.234,0.807 -0.297,1.203 z"
                                   style="fill:#0000ff;fill-opacity:1;fill-rule:nonzero;stroke:none"
                                   id="path6240" /><g
                                   id="g6242"
                                   transform="translate(79.4)"><path
                                   d="m 66.094,-23 h -54.5 c -2.1252,0 -3.2242,-0.667 -3.2971,-2 0,-1.333 1.0989,-2 3.2971,-2 h 54.5 c 2.135,0 3.239,0.667 3.312,2 0,1.333 -1.104,2 -3.312,2 z"
                                   style="fill:#0000ff;fill-opacity:1;fill-rule:nonzero;stroke:none"
                                   id="path6244" /><g
                                   id="g6246"
                                   transform="translate(100.1)"><path
                                   d="m 37.297,-37.797 c 0.333,-2.271 1.37,-3.672 3.109,-4.203 0.334,-0.135 0.698,-0.203 1.094,-0.203 1.729,0 2.698,0.901 2.906,2.703 0,0.396 -0.234,1.531 -0.703,3.406 l -3.609,14 c -1,4.198 -1.729,7.198 -2.188,9 -0.875,3.4586 -1.312,5.9221 -1.312,7.3909 0,3.0729 1,4.6093 3,4.6093 2.541,0 4.677,-2.6666 6.406,-8 0.333,-1.1352 0.734,-2.6042 1.203,-4.4062 0.531,-1.135 0.995,-1.734 1.391,-1.797 0.802,0 1.203,0.333 1.203,1 0,1 -0.599,3.333 -1.797,7.0001 -0.396,1.1354 -0.797,2.099 -1.203,2.8907 -1.865,3.66662 -4.328,5.5 -7.391,5.5 -3.739,0 -6.442,-1.59901 -8.109,-4.7969 -0.469,-0.8021 -0.802,-1.7031 -1,-2.7031 -4.198,5 -8.531,7.5 -13,7.5 -5,0 -8.698,-2.2657 -11.0939,-6.7969 C 4.7344,-8.3698 4,-11.438 4,-14.906 c 0,-7.198 2.5,-13.865 7.5,-20 4.667,-5.594 9.734,-8.656 15.203,-9.188 0.469,-0.073 0.932,-0.109 1.391,-0.109 4.073,0 7.14,2.135 9.203,6.406 z m -6.5,25.891 v 0 l 5,-19.594 c 0.198,-1 0.297,-1.568 0.297,-1.703 0,-1.396 -0.599,-3.094 -1.797,-5.094 -1.469,-2.469 -3.5,-3.703 -6.094,-3.703 -3.469,0 -6.771,2.266 -9.906,6.797 -0.594,0.864 -1.162,1.797 -1.703,2.797 -1.927,3.875 -3.558,9.375 -4.891,16.5 -0.406,2.271 -0.609,4.073 -0.609,5.406 0,4.5312 1.271,7.4635 3.812,8.7969 0.729,0.4062 1.594,0.6093 2.594,0.6093 3.729,0 7.495,-2.3697 11.297,-7.1093 0.937,-1.0625 1.573,-2.1619 1.906,-3.2969 v -0.094 c 0.063,-0.135 0.094,-0.239 0.094,-0.312 z"
                                   style="fill:#0000ff;fill-opacity:1;fill-rule:nonzero;stroke:none"
                                   id="path6248" /><g
                                   id="g6250"
                                   transform="translate(52.9)"><path
                                   d="m 28.906,-25 v 0 c 0,11.271 -2.104,21.4375 -6.312,30.5 C 19.135,12.896 14.74,18.828 9.4062,23.297 8,24.432 7.099,25 6.7031,25 c -0.6666,0 -1,-0.333 -1,-1 C 5.7031,23.667 6.1354,23.099 7,22.297 17.729,11.37 23.094,-4.3958 23.094,-25 c 0,-20.333 -5,-35.734 -15.0002,-46.203 l -0.5,-0.5 C 6.3333,-72.901 5.7031,-73.667 5.7031,-74 c 0,-0.667 0.3334,-1 1,-1 0.8021,0 2.5677,1.365 5.2969,4.094 4.135,4.135 7.568,9.036 10.297,14.703 4.406,9.073 6.609,19.474 6.609,31.203 z"
                                   style="fill:#0000ff;fill-opacity:1;fill-rule:nonzero;stroke:none"
                                   id="path6252" /><g
                                   id="g6254"
                                   transform="matrix(5.2632,0,0,5.2632,-1741.6,-611.84)"><g
                                   id="g6256"
                                   transform="scale(19)"><g
                                   id="g6258"
                                   transform="matrix(0.01,0,0,0.01,2.8947,5.9605)"><path
                                   d="m 36.703,-40 v 0 l -6,31.7031 c -0.604,4.1354 -1.807,8.86982 -3.609,14.2031 -0.667,1.9271 -1.334,3.5573 -2,4.8908 -2.334,4.937 -5.229,8.005 -8.688,9.203 -0.875,0.333 -1.745,0.5 -2.609,0.5 -3.333,0 -5.797,-1.135 -7.3908,-3.406 -0.7395,-1 -1.1093,-2.167 -1.1093,-3.5 0,-2.667 1.1354,-4.5002 3.4062,-5.5002 0.6667,-0.3334 1.3649,-0.5 2.0939,-0.5 1.937,0 3.141,0.8333 3.609,2.5002 0.063,0.333 0.094,0.666 0.094,1 0,2.271 -1,3.875 -3,4.812 -0.729,0.334 -1.5625,0.532 -2.5,0.594 1.271,1.198 2.87,1.797 4.797,1.797 2.937,0 5.239,-3.266 6.906,-9.797 0.333,-1.5312 0.735,-3.5312 1.203,-6 L 22.5,-0.5 30,-40 h -6.594 c -1.666,0 -2.567,-0.266 -2.703,-0.797 h -0.109 v -0.406 c 0,-1.136 0.567,-1.766 1.703,-1.891 v 0 h 1.297 6.906 c 1.604,-8.333 2.703,-13.567 3.297,-15.703 2,-6.667 5.536,-10.5 10.609,-11.5 0.729,-0.135 1.427,-0.203 2.094,-0.203 3.469,0 6,1.135 7.594,3.406 v 0 c 0.739,1 1.109,2.167 1.109,3.5 0,2.667 -1.135,4.5 -3.406,5.5 -0.667,0.334 -1.365,0.5 -2.094,0.5 -1.937,0 -3.141,-0.833 -3.609,-2.5 -0.063,-0.333 -0.094,-0.666 -0.094,-1 0,-2.073 0.932,-3.609 2.797,-4.609 0.739,-0.469 1.609,-0.735 2.609,-0.797 -1.271,-1.198 -2.906,-1.797 -4.906,-1.797 -2.062,0 -3.63,1.13 -4.703,3.391 -0.469,0.937 -1.266,4.406 -2.391,10.406 l -2.109,11.406 h 8.297 c 1.666,0 2.567,0.365 2.703,1.094 0,1.198 -0.531,1.865 -1.594,2 h -0.109 -1.297 z"
                                   style="fill:#ff0000;fill-opacity:1;fill-rule:nonzero;stroke:none"
                                   id="path6260" /><g
                                   id="g6262"
                                   transform="translate(59.8)"><path
                                   d="m 33.094,24 v 0 c 0,0.667 -0.334,1 -1,1 -0.792,0 -2.558,-1.365 -5.297,-4.094 C 22.661,16.771 19.229,11.87 16.5,6.2031 12.104,-2.8698 9.9062,-13.271 9.9062,-25 c 0,-11.271 2.0988,-21.438 6.2968,-30.5 3.469,-7.396 7.87,-13.328 13.203,-17.797 1.396,-1.135 2.292,-1.703 2.688,-1.703 0.666,0 1,0.333 1,1 0,0.333 -0.433,0.901 -1.297,1.703 C 21.068,-61.37 15.703,-45.604 15.703,-25 c 0,20.5312 5.235,36.13 15.703,46.797 1.125,1.135 1.688,1.87 1.688,2.203 z"
                                   style="fill:#ff0000;fill-opacity:1;fill-rule:nonzero;stroke:none"
                                   id="path6264" /><g
                                   id="g6266"
                                   transform="translate(38.9)"><path
                                   d="M 33.406,-30.203 30,-16.5 c -1.135,4.531 -1.703,7.4635 -1.703,8.7969 0,3.4687 1.234,5.5677 3.703,6.2969 0.531,0.2083 1.13,0.3124 1.797,0.3124 3.333,0 6.37,-1.6666 9.109,-5 1.792,-2.1354 3.188,-4.8382 4.188,-8.1092 0.208,-0.729 0.646,-1.094 1.312,-1.094 0.792,0 1.188,0.333 1.188,1 0,1.667 -1.032,4.068 -3.094,7.2032 -3.604,5.4584 -7.906,8.1876 -12.906,8.1876 -4.532,0 -7.828,-1.89588 -9.891,-5.6876 -0.406,-0.6041 -0.708,-1.2395 -0.906,-1.9062 -1.594,3.1979 -3.792,5.4323 -6.594,6.70312 -1.271,0.59376 -2.573,0.89068 -3.906,0.89068 -4.0001,0 -6.797,-1.166717 -8.3908,-3.5 -0.6666,-0.8646 -1,-1.8959 -1,-3.0938 0,-2.4688 1.0626,-4.2031 3.1876,-5.203 0.7395,-0.396 1.5104,-0.594 2.3124,-0.594 1.9998,0 3.1978,0.833 3.5938,2.5001 0.062,0.3334 0.094,0.6667 0.094,1 0,2.2604 -1.13,3.9271 -3.3909,5 -0.4062,0.1979 -0.8385,0.3281 -1.2969,0.3907 1.3959,0.875 3.0628,1.3124 4.9998,1.3124 3.532,0 6.328,-2.3697 8.391,-7.1093 0.406,-1 0.776,-2.0989 1.109,-3.2969 3.594,-13.604 5.391,-21.536 5.391,-23.797 -0.396,-4.135 -2.193,-6.37 -5.391,-6.703 -3.468,0 -6.635,1.766 -9.5,5.297 v 0.109 c 0,0.063 -0.036,0.094 -0.109,0.094 -1,1.333 -1.901,2.865 -2.7032,4.594 -0.3334,0.802 -0.6303,1.604 -0.8907,2.406 L 8.5,-28.906 c -0.1354,0.739 -0.5677,1.109 -1.2969,1.109 -0.8021,0 -1.2031,-0.333 -1.2031,-1 0,-1.667 1.0677,-4.068 3.2031,-7.203 3.5939,-5.469 7.8909,-8.203 12.8909,-8.203 5.135,0 8.739,2.536 10.812,7.609 2.125,-4.135 4.959,-6.604 8.5,-7.406 0.667,-0.135 1.334,-0.203 2,-0.203 3.927,0 6.693,1.099 8.297,3.297 0.667,0.937 1,2.041 1,3.312 0,2.729 -1.234,4.563 -3.703,5.5 -0.604,0.198 -1.172,0.297 -1.703,0.297 -2.063,0 -3.297,-0.901 -3.703,-2.703 -0.063,-0.271 -0.094,-0.536 -0.094,-0.797 0,-2 0.969,-3.568 2.906,-4.703 0.594,-0.333 1.224,-0.568 1.891,-0.703 -1.396,-0.865 -3.063,-1.297 -5,-1.297 -4.531,0 -7.729,3.531 -9.594,10.594 -0.135,0.406 -0.234,0.807 -0.297,1.203 z"
                                   style="fill:#ff0000;fill-opacity:1;fill-rule:nonzero;stroke:none"
                                   id="path6268" /><g
                                   id="g6270"
                                   transform="translate(79.43)"><path
                                   d="M 40.906,-23 V 5 c 0,2.1354 -0.666,3.2344 -2,3.2969 -1.333,0 -2,-1.099 -2,-3.2969 V -23 H 8.9062 c -2.1354,0 -3.2395,-0.667 -3.3124,-2 0,-1.333 1.1041,-2 3.3124,-2 H 36.906 v -28 c 0,-2.135 0.667,-3.234 2,-3.297 1.334,0 2,1.099 2,3.297 v 28 h 27.891 c 2.135,0 3.234,0.667 3.297,2 0,1.333 -1.099,2 -3.297,2 z"
                                   style="fill:#ff0000;fill-opacity:1;fill-rule:nonzero;stroke:none"
                                   id="path6272" /><g
                                   id="g6274"
                                   transform="translate(100.02)"><path
                                   d="m 37.297,-37.797 c 0.333,-2.271 1.37,-3.672 3.109,-4.203 0.334,-0.135 0.698,-0.203 1.094,-0.203 1.729,0 2.698,0.901 2.906,2.703 0,0.396 -0.234,1.531 -0.703,3.406 l -3.609,14 c -1,4.198 -1.729,7.198 -2.188,9 -0.875,3.4586 -1.312,5.9221 -1.312,7.3909 0,3.0729 1,4.6093 3,4.6093 2.541,0 4.677,-2.6666 6.406,-8 0.333,-1.1352 0.734,-2.6042 1.203,-4.4062 0.531,-1.135 0.995,-1.734 1.391,-1.797 0.802,0 1.203,0.333 1.203,1 0,1 -0.599,3.333 -1.797,7.0001 -0.396,1.1354 -0.797,2.099 -1.203,2.8907 -1.865,3.66662 -4.328,5.5 -7.391,5.5 -3.739,0 -6.442,-1.59901 -8.109,-4.7969 -0.469,-0.8021 -0.802,-1.7031 -1,-2.7031 -4.198,5 -8.531,7.5 -13,7.5 -5,0 -8.698,-2.2657 -11.0939,-6.7969 C 4.7344,-8.3698 4,-11.438 4,-14.906 c 0,-7.198 2.5,-13.865 7.5,-20 4.667,-5.594 9.734,-8.656 15.203,-9.188 0.469,-0.073 0.932,-0.109 1.391,-0.109 4.073,0 7.14,2.135 9.203,6.406 z m -6.5,25.891 v 0 l 5,-19.594 c 0.198,-1 0.297,-1.568 0.297,-1.703 0,-1.396 -0.599,-3.094 -1.797,-5.094 -1.469,-2.469 -3.5,-3.703 -6.094,-3.703 -3.469,0 -6.771,2.266 -9.906,6.797 -0.594,0.864 -1.162,1.797 -1.703,2.797 -1.927,3.875 -3.558,9.375 -4.891,16.5 -0.406,2.271 -0.609,4.073 -0.609,5.406 0,4.5312 1.271,7.4635 3.812,8.7969 0.729,0.4062 1.594,0.6093 2.594,0.6093 3.729,0 7.495,-2.3697 11.297,-7.1093 0.937,-1.0625 1.573,-2.1619 1.906,-3.2969 v -0.094 c 0.063,-0.135 0.094,-0.239 0.094,-0.312 z"
                                   style="fill:#ff0000;fill-opacity:1;fill-rule:nonzero;stroke:none"
                                   id="path6276" /><g
                                   id="g6278"
                                   transform="translate(52.9)"><path
                                   d="m 28.906,-25 v 0 c 0,11.271 -2.104,21.4375 -6.312,30.5 C 19.135,12.896 14.74,18.828 9.4062,23.297 8,24.432 7.099,25 6.7031,25 c -0.6666,0 -1,-0.333 -1,-1 C 5.7031,23.667 6.1354,23.099 7,22.297 17.729,11.37 23.094,-4.3958 23.094,-25 c 0,-20.333 -5,-35.734 -15.0002,-46.203 l -0.5,-0.5 C 6.3333,-72.901 5.7031,-73.667 5.7031,-74 c 0,-0.667 0.3334,-1 1,-1 0.8021,0 2.5677,1.365 5.2969,4.094 4.135,4.135 7.568,9.036 10.297,14.703 4.406,9.073 6.609,19.474 6.609,31.203 z"
                                   style="fill:#ff0000;fill-opacity:1;fill-rule:nonzero;stroke:none"
                                   id="path6280" /><g
                                   id="g6282"
                                   transform="matrix(5.2632,0,0,5.2632,-620.52,-596.05)" /></g></g></g></g></g></g></g></g></g></g></g></g></g></g></g></g></g></g></g></g></g></g></g><g
                   id="g6284"
                   transform="scale(0.56693)" /></g></g></g></g></g></g></g></svg>
