<?xml version="1.0" encoding="UTF-8" standalone="no"?>
<svg
   xmlns:dc="http://purl.org/dc/elements/1.1/"
   xmlns:cc="http://creativecommons.org/ns#"
   xmlns:rdf="http://www.w3.org/1999/02/22-rdf-syntax-ns#"
   xmlns:svg="http://www.w3.org/2000/svg"
   xmlns="http://www.w3.org/2000/svg"
   xmlns:sodipodi="http://sodipodi.sourceforge.net/DTD/sodipodi-0.dtd"
   xmlns:inkscape="http://www.inkscape.org/namespaces/inkscape"
   version="1.1"
   id="svg2458"
   xml:space="preserve"
   width="214.66667"
   height="146.66667"
   viewBox="0 0 214.66667 146.66667"
   sodipodi:docname="2020-1126-1945-crop.pdf"><metadata
     id="metadata2464"><rdf:RDF><cc:Work
         rdf:about=""><dc:format>image/svg+xml</dc:format><dc:type
           rdf:resource="http://purl.org/dc/dcmitype/StillImage" /></cc:Work></rdf:RDF></metadata><defs
     id="defs2462"><clipPath
       clipPathUnits="userSpaceOnUse"
       id="clipPath2476"><path
         d="M 0,0 H 219 V 148 H 0 Z"
         id="path2474" /></clipPath><clipPath
       clipPathUnits="userSpaceOnUse"
       id="clipPath2486"><path
         d="M 0,0 H 219 V 148 H 0 Z"
         id="path2484" /></clipPath><clipPath
       clipPathUnits="userSpaceOnUse"
       id="clipPath2498"><path
         d="M 0,0 V 148 H 219 V 0 Z"
         id="path2496" /></clipPath><clipPath
       clipPathUnits="userSpaceOnUse"
       id="clipPath2508"><path
         d="M 0,0 H 427 V 288 H 0 Z"
         id="path2506" /></clipPath></defs><sodipodi:namedview
     pagecolor="#ffffff"
     bordercolor="#666666"
     borderopacity="1"
     objecttolerance="10"
     gridtolerance="10"
     guidetolerance="10"
     inkscape:pageopacity="0"
     inkscape:pageshadow="2"
     inkscape:window-width="640"
     inkscape:window-height="480"
     id="namedview2460" /><g
     id="g2466"
     inkscape:groupmode="layer"
     inkscape:label="2020-1126-1945-crop"
     transform="matrix(1.3333333,0,0,-1.3333333,0,146.66667)"><g
       id="g2468"
       transform="translate(-29,-19)"><g
         id="g2470"><g
           id="g2472"
           clip-path="url(#clipPath2476)"><g
             id="g2478"
             transform="matrix(0.72973,0,0,-0.72973,29.595,128)"><g
               id="g2480"><g
                 id="g2482"
                 clip-path="url(#clipPath2486)"><g
                   id="g2488"><g
                     id="g2490" /></g><g
                   id="g2492"><g
                     id="g2494"
                     clip-path="url(#clipPath2498)"><g
                       id="g2500"
                       transform="scale(0.51451)" /></g></g><g
                   id="g2502"
                   transform="scale(0.51451)"><g
                     id="g2504"
                     clip-path="url(#clipPath2508)"><path
                       d="M 0,0 H 427 V 288 H 0 Z"
                       style="fill:#ffffff;fill-opacity:1;fill-rule:nonzero;stroke:none"
                       id="path2510" /><path
                       d="M 189.99,2 V 288"
                       style="fill:none;stroke:#000000;stroke-width:1;stroke-linecap:butt;stroke-linejoin:miter;stroke-miterlimit:10;stroke-dasharray:none;stroke-opacity:1"
                       id="path2512" /><path
                       d="m 189.99,1 -4,4"
                       style="fill:none;stroke:#000000;stroke-width:1;stroke-linecap:butt;stroke-linejoin:miter;stroke-miterlimit:10;stroke-dasharray:none;stroke-opacity:1"
                       id="path2514" /><path
                       d="m 189.99,1 4,4"
                       style="fill:none;stroke:#000000;stroke-width:1;stroke-linecap:butt;stroke-linejoin:miter;stroke-miterlimit:10;stroke-dasharray:none;stroke-opacity:1"
                       id="path2516" /><path
                       d="m 409.12,127 3.04,-4.31 -2.82,-3.99 h 1.77 l 1.27,1.94 c 0.23,0.38 0.43,0.69 0.57,0.94 0.23,-0.35 0.45,-0.65 0.64,-0.92 l 1.39,-1.96 h 1.69 l -2.87,3.91 3.09,4.39 h -1.73 l -1.71,-2.58 -0.45,-0.7 -2.17,3.28 z"
                       style="fill:#000000;fill-opacity:1;fill-rule:nonzero;stroke:none"
                       id="path2518" /><path
                       d="M 0,131.88 H 425"
                       style="fill:none;stroke:#000000;stroke-width:1;stroke-linecap:butt;stroke-linejoin:miter;stroke-miterlimit:10;stroke-dasharray:none;stroke-opacity:1"
                       id="path2520" /><path
                       d="m 426,131.88 -4,-4"
                       style="fill:none;stroke:#000000;stroke-width:1;stroke-linecap:butt;stroke-linejoin:miter;stroke-miterlimit:10;stroke-dasharray:none;stroke-opacity:1"
                       id="path2522" /><path
                       d="m 426,131.88 -4,4"
                       style="fill:none;stroke:#000000;stroke-width:1;stroke-linecap:butt;stroke-linejoin:miter;stroke-miterlimit:10;stroke-dasharray:none;stroke-opacity:1"
                       id="path2524" /><path
                       d="m 195,24.203 -0.16,-1.328 c 0.31,0.083 0.57,0.125 0.8,0.125 0.31,0 0.56,-0.052 0.75,-0.156 0.19,-0.104 0.34,-0.25 0.47,-0.438 0.08,-0.135 0.22,-0.484 0.42,-1.047 0.03,-0.073 0.07,-0.187 0.13,-0.343 l -3.14,-8.313 h 1.51 l 1.72,4.797 c 0.23,0.615 0.43,1.255 0.61,1.922 0.16,-0.646 0.35,-1.276 0.58,-1.891 l 1.76,-4.828 h 1.41 l -3.16,8.438 c -0.33,0.916 -0.59,1.547 -0.78,1.89 -0.25,0.459 -0.53,0.797 -0.86,1.016 -0.32,0.219 -0.71,0.328 -1.15,0.328 -0.27,0 -0.58,-0.057 -0.91,-0.172 z"
                       style="fill:#000000;fill-opacity:1;fill-rule:nonzero;stroke:none"
                       id="path2526" /><path
                       d="m 96.742,-9.0173 1.668,7.2638 1.67,7.1629 1.67,7.0616 1.66,6.961 1.67,6.86 1.67,6.759 1.67,6.658 1.67,6.557 1.66,6.456 1.67,6.355 1.67,6.253 1.67,6.153 1.67,6.052 1.66,5.951 1.67,5.85 1.67,5.749 1.67,5.645 1.67,5.55 1.66,5.45 1.67,5.34 1.67,5.24 1.67,5.15 3.33,9.98 3.34,9.58 3.34,9.17 3.33,8.78 3.34,8.36 3.33,7.97 3.34,7.55 3.33,7.16 3.34,6.75 3.34,6.35 3.33,5.94 3.34,5.54 3.33,5.14 3.34,4.73 3.34,4.32 3.33,3.93 3.34,3.21 0.83,-0.86 0.84,-0.87 1.66,-1.83 3.34,-3.96 3.34,-4.37 3.33,-4.76 3.34,-5.18 3.33,-5.57 3.34,-5.98 3.34,-6.39 3.33,-6.79 3.34,-7.19 3.33,-7.6 3.34,-8 3.34,-8.4 3.33,-8.81 3.34,-9.21 3.33,-9.62 1.67,-4.96 1.67,-5.06 1.67,-5.16 1.67,-5.26 1.66,-5.37 1.67,-5.46 1.67,-5.567 1.67,-5.667 1.67,-5.768 1.66,-5.868 1.67,-5.97 1.67,-6.071 1.67,-6.171 1.67,-6.273 1.66,-6.374 1.67,-6.474 1.67,-6.576 1.67,-6.677 1.66,-6.777 1.67,-6.879 1.67,-6.979 1.67,-7.081 1.67,-7.1816 1.66,-7.2824"
                       style="fill:none;stroke:#006400;stroke-width:2.5;stroke-linecap:round;stroke-linejoin:round;stroke-miterlimit:10;stroke-dasharray:none;stroke-opacity:0.69804"
                       id="path2528" /><path
                       d="m 41.699,-8.7947 1.668,7.2608 1.668,7.1598 1.668,7.0591 1.668,6.957 1.668,6.857 1.668,6.756 1.668,6.655 1.668,6.554 1.668,6.453 1.668,6.351 1.668,6.251 1.668,6.15 1.668,6.049 1.668,5.948 1.668,5.847 1.668,5.745 1.668,5.642 1.668,5.55 1.668,5.44 1.668,5.34 1.668,5.24 1.668,5.14 1.667,5.04 3.336,9.78 3.336,9.37 3.336,8.96 3.336,8.57 3.336,8.16 3.338,7.75 3.33,7.35 3.34,6.95 3.34,6.54 3.33,6.14 3.34,5.74 3.33,5.33 3.34,4.92 3.34,4.53 3.33,4.12 3.34,3.71 3.33,3.31 3.34,2.91 3.34,2.5 3.33,2.1 3.34,1.7 3.33,1.29 3.34,0.88 3.33,0.49 3.34,0.08 3.34,-0.33 3.33,-0.73 3.34,-1.13 3.33,-1.54 3.34,-1.94 3.34,-2.34 3.33,-2.75 3.34,-2.84 0.83,0.81 0.84,0.79 1.66,1.51 3.34,2.71 3.34,2.31 3.33,1.9 3.34,1.5 3.33,1.1 3.34,0.69 3.34,0.29 3.33,-0.12 3.34,-0.52 3.33,-0.93 3.34,-1.32 3.34,-1.74 3.33,-2.13 3.34,-2.54 3.33,-2.95 3.34,-3.35 3.34,-3.75 3.33,-4.16 3.34,-4.56 3.33,-4.96 3.34,-5.37 3.34,-5.77 3.33,-6.18 3.34,-6.58 3.33,-6.98 3.34,-7.39 3.33,-7.79 3.34,-8.2 3.34,-8.6 3.33,-9.01 3.34,-9.4 3.33,-9.82 1.67,-5.05 1.67,-5.16 1.67,-5.26 1.67,-5.36 1.66,-5.46 1.67,-5.566 1.67,-5.664 1.67,-5.765 1.67,-5.865 1.66,-5.967 1.67,-6.067 1.67,-6.169 1.67,-6.27 1.67,-6.37 1.66,-6.472 1.67,-6.572 1.67,-6.674 1.67,-6.774 1.67,-6.876 1.66,-6.976 1.67,-7.078 1.67,-7.1785 1.67,-7.2795"
                       style="fill:none;stroke:#cc0000;stroke-width:2.5;stroke-linecap:butt;stroke-linejoin:round;stroke-miterlimit:10;stroke-dasharray:10.5, 8;stroke-dashoffset:0;stroke-opacity:0.69804"
                       id="path2530" /><path
                       d="m 192.99,242.07 c 0,1.66 -1.34,3 -3,3 -1.65,0 -3,-1.34 -3,-3 0,-1.66 1.35,-3 3,-3 1.66,0 3,1.34 3,3 z"
                       style="fill:#000000;fill-opacity:1;fill-rule:nonzero;stroke:none"
                       id="path2532" /><path
                       d="m 192.99,242.07 c 0,1.66 -1.34,3 -3,3 -1.65,0 -3,-1.34 -3,-3 0,-1.66 1.35,-3 3,-3 1.66,0 3,1.34 3,3 z"
                       style="fill:none;stroke:#000000;stroke-width:1;stroke-linecap:round;stroke-linejoin:round;stroke-miterlimit:10;stroke-dasharray:none;stroke-opacity:1"
                       id="path2534" /><g
                       id="g2536"
                       transform="scale(19)"><g
                         id="g2538"
                         transform="matrix(0.01,0,0,0.01,10.579,12.802)"><path
                           d="m 66.094,-23 h -54.5 c -2.1252,0 -3.2242,-0.667 -3.2971,-2 0,-1.333 1.0989,-2 3.2971,-2 h 54.5 c 2.135,0 3.239,0.667 3.312,2 0,1.333 -1.104,2 -3.312,2 z"
                           style="fill:#000000;fill-opacity:1;fill-rule:nonzero;stroke:none"
                           id="path2540" /><g
                           id="g2542"
                           transform="translate(77.8)"><path
                             d="m 44.906,-17.406 v 0 L 42.094,0 H 5 c 0,-1.6667 0.1979,-2.7344 0.5938,-3.2031 l 0.5,-0.5 19.2032,-21.3909 c 7,-7.875 10.5,-15.245 10.5,-22.109 0,-5.927 -1.797,-10.427 -5.391,-13.5 l -0.109,-0.094 h -0.094 c -2.135,-1.802 -4.734,-2.703 -7.797,-2.703 -4.802,0 -8.635,2.068 -11.5,6.203 -0.802,1.198 -1.4685,2.531 -1.9998,4 0.198,-0.073 0.6303,-0.109 1.2968,-0.109 2.667,0 4.365,1.203 5.094,3.609 v 0.094 c 0.135,0.469 0.203,0.969 0.203,1.5 0,2.667 -1.266,4.37 -3.797,5.109 -0.531,0.125 -1,0.188 -1.406,0.188 -2.4689,0 -4.0991,-1.032 -4.8908,-3.094 C 5.1354,-46.729 5,-47.562 5,-48.5 c 0,-5.135 1.9688,-9.536 5.906,-13.203 3.532,-3.261 7.797,-4.891 12.797,-4.891 7.333,0 13.031,2.464 17.094,7.391 2.333,2.864 3.667,6.265 4,10.203 0.073,0.604 0.109,1.203 0.109,1.797 0,4.864 -1.833,9.5 -5.5,13.906 -1.937,2.261 -4.937,5.261 -9,9 l -6.109,5.391 -1,0.906 -10.594,10.2969 h 18 c 5.865,0 9.031,-0.2657 9.5,-0.7969 0.667,-0.9375 1.401,-3.906 2.203,-8.906 z"
                             style="fill:#000000;fill-opacity:1;fill-rule:nonzero;stroke:none"
                             id="path2544" /><g
                             id="g2546"
                             transform="matrix(5.2632,0,0,5.2632,-1135.7,-1280.2)"><path
                               d="m 192.99,131.88 c 0,1.66 -1.34,3 -3,3 -1.65,0 -3,-1.34 -3,-3 0,-1.65 1.35,-3 3,-3 1.66,0 3,1.35 3,3 z"
                               style="fill:#000000;fill-opacity:1;fill-rule:nonzero;stroke:none"
                               id="path2548" /><path
                               d="m 192.99,131.88 c 0,1.66 -1.34,3 -3,3 -1.65,0 -3,-1.34 -3,-3 0,-1.65 1.35,-3 3,-3 1.66,0 3,1.35 3,3 z"
                               style="fill:none;stroke:#000000;stroke-width:1;stroke-linecap:round;stroke-linejoin:round;stroke-miterlimit:10;stroke-dasharray:none;stroke-opacity:1"
                               id="path2550" /><g
                               id="g2552"
                               transform="matrix(0.19,0,0,0.19,167.9999,152.9766)"><path
                                 d="m 74,-43.594 v 0 C 74,-33.26 70.333,-23.698 63,-14.906 56.396,-6.9062 48.661,-1.6354 39.797,0.90625 36.661,1.7708 33.562,2.2031 30.5,2.2031 22.167,2.2031 15.599,-0.72917 10.797,-6.5938 6.8698,-11.396 4.9062,-17.365 4.9062,-24.5 c 0,-10 3.5626,-19.469 10.6878,-28.406 6.604,-8.063 14.338,-13.427 23.203,-16.094 3.271,-1 6.505,-1.5 9.703,-1.5 8.469,0 15.104,3.068 19.906,9.203 3.729,4.802 5.594,10.703 5.594,17.703 z M 31.094,-0.40625 v 0 c 6.271,0 12.307,-2.79685 18.109,-8.39065 1.198,-1.1354 2.297,-2.3381 3.297,-3.6091 6.531,-8.125 10.562,-17.823 12.094,-29.094 0.333,-2.198 0.5,-4.198 0.5,-6 0,-9.135 -3.063,-15.333 -9.188,-18.594 -0.073,0 -0.14,-0.036 -0.203,-0.109 C 53.297,-67.401 50.698,-68 47.906,-68 c -6.271,0 -12.338,2.698 -18.203,8.094 -2.406,2.135 -4.542,4.635 -6.406,7.5 -5.063,7.666 -8.026,16.833 -8.891,27.5 -0.135,1.208 -0.203,2.276 -0.203,3.203 0,8.531 2.568,14.6665 7.703,18.4061 2.667,1.9271 5.729,2.89065 9.188,2.89065 z"
                                 style="fill:#000000;fill-opacity:1;fill-rule:nonzero;stroke:none"
                                 id="path2554" /><g
                                 id="g2556"
                                 transform="matrix(5.2632,0,0,5.2632,-884.21,-805.14)"><path
                                   d="m 82.806,131.88 c 0,1.66 -1.343,3 -3,3 -1.657,0 -3,-1.34 -3,-3 0,-1.65 1.343,-3 3,-3 1.657,0 3,1.35 3,3 z"
                                   style="fill:#000000;fill-opacity:1;fill-rule:nonzero;stroke:none"
                                   id="path2558" /><g
                                   id="g2560"
                                   transform="matrix(0.19,0,0,0.19,48.9991,154.2363)"><path
                                   d="m 66.094,-23 h -54.5 c -2.1252,0 -3.2242,-0.667 -3.2971,-2 0,-1.333 1.0989,-2 3.2971,-2 h 54.5 c 2.135,0 3.239,0.667 3.312,2 0,1.333 -1.104,2 -3.312,2 z"
                                   style="fill:#000000;fill-opacity:1;fill-rule:nonzero;stroke:none"
                                   id="path2562" /><g
                                   id="g2564"
                                   transform="translate(77.8)"><path
                                   d="m 44.906,-17.406 v 0 L 42.094,0 H 5 c 0,-1.6667 0.1979,-2.7344 0.5938,-3.2031 l 0.5,-0.5 19.2032,-21.3909 c 7,-7.875 10.5,-15.245 10.5,-22.109 0,-5.927 -1.797,-10.427 -5.391,-13.5 l -0.109,-0.094 h -0.094 c -2.135,-1.802 -4.734,-2.703 -7.797,-2.703 -4.802,0 -8.635,2.068 -11.5,6.203 -0.802,1.198 -1.4685,2.531 -1.9998,4 0.198,-0.073 0.6303,-0.109 1.2968,-0.109 2.667,0 4.365,1.203 5.094,3.609 v 0.094 c 0.135,0.469 0.203,0.969 0.203,1.5 0,2.667 -1.266,4.37 -3.797,5.109 -0.531,0.125 -1,0.188 -1.406,0.188 -2.4689,0 -4.0991,-1.032 -4.8908,-3.094 C 5.1354,-46.729 5,-47.562 5,-48.5 c 0,-5.135 1.9688,-9.536 5.906,-13.203 3.532,-3.261 7.797,-4.891 12.797,-4.891 7.333,0 13.031,2.464 17.094,7.391 2.333,2.864 3.667,6.265 4,10.203 0.073,0.604 0.109,1.203 0.109,1.797 0,4.864 -1.833,9.5 -5.5,13.906 -1.937,2.261 -4.937,5.261 -9,9 l -6.109,5.391 -1,0.906 -10.594,10.2969 h 18 c 5.865,0 9.031,-0.2657 9.5,-0.7969 0.667,-0.9375 1.401,-3.906 2.203,-8.906 z"
                                   style="fill:#000000;fill-opacity:1;fill-rule:nonzero;stroke:none"
                                   id="path2566" /><g
                                   id="g2568"
                                   transform="matrix(5.2632,0,0,5.2632,-335.69,-811.77)"><path
                                   d="m 137.9,131.88 c 0,1.66 -1.34,3 -3,3 -1.66,0 -3,-1.34 -3,-3 0,-1.65 1.34,-3 3,-3 1.66,0 3,1.35 3,3 z"
                                   style="fill:#000000;fill-opacity:1;fill-rule:nonzero;stroke:none"
                                   id="path2570" /><g
                                   id="g2572"
                                   transform="matrix(0.19,0,0,0.19,107.9998,155.2357)"><path
                                   d="m 66.094,-23 h -54.5 c -2.1252,0 -3.2242,-0.667 -3.2971,-2 0,-1.333 1.0989,-2 3.2971,-2 h 54.5 c 2.135,0 3.239,0.667 3.312,2 0,1.333 -1.104,2 -3.312,2 z"
                                   style="fill:#000000;fill-opacity:1;fill-rule:nonzero;stroke:none"
                                   id="path2574" /><g
                                   id="g2576"
                                   transform="translate(77.8)"><path
                                   d="m 29.406,-64 v 56.0938 c 0,2 0.396,3.2708 1.188,3.8124 1.135,0.6667 3.838,1 8.109,1 h 3.203 V 0 C 39.573,-0.19792 34.172,-0.29688 25.703,-0.29688 17.234,-0.29688 11.833,-0.19792 9.5,0 v -3.0938 h 3.203 c 5.136,0 8.068,-0.6041 8.797,-1.8124 L 21.594,-5 C 21.865,-5.5312 22,-6.5 22,-7.9062 V -59.703 c -3.469,1.739 -7.833,2.609 -13.0938,2.609 v -3.109 c 7.9998,0 14.0628,-2.13 18.1878,-6.391 1.271,0 2.005,0.229 2.203,0.688 v 0 0.109 c 0.073,0.198 0.109,0.797 0.109,1.797 z"
                                   style="fill:#000000;fill-opacity:1;fill-rule:nonzero;stroke:none"
                                   id="path2578" /><g
                                   id="g2580"
                                   transform="matrix(5.2632,0,0,5.2632,-646.22,-817.03)"><path
                                   d="m 248.09,131.88 c 0,1.66 -1.35,3 -3,3 -1.66,0 -3,-1.34 -3,-3 0,-1.65 1.34,-3 3,-3 1.65,0 3,1.35 3,3 z"
                                   style="fill:#000000;fill-opacity:1;fill-rule:nonzero;stroke:none"
                                   id="path2582" /><g
                                   id="g2584"
                                   transform="matrix(0.19,0,0,0.19,245.993,158.2358)"><path
                                   d="m 29.406,-64 v 56.0938 c 0,2 0.396,3.2708 1.188,3.8124 1.135,0.6667 3.838,1 8.109,1 h 3.203 V 0 C 39.573,-0.19792 34.172,-0.29688 25.703,-0.29688 17.234,-0.29688 11.833,-0.19792 9.5,0 v -3.0938 h 3.203 c 5.136,0 8.068,-0.6041 8.797,-1.8124 L 21.594,-5 C 21.865,-5.5312 22,-6.5 22,-7.9062 V -59.703 c -3.469,1.739 -7.833,2.609 -13.0938,2.609 v -3.109 c 7.9998,0 14.0628,-2.13 18.1878,-6.391 1.271,0 2.005,0.229 2.203,0.688 v 0 0.109 c 0.073,0.198 0.109,0.797 0.109,1.797 z"
                                   style="fill:#000000;fill-opacity:1;fill-rule:nonzero;stroke:none"
                                   id="path2586" /><g
                                   id="g2588"
                                   transform="matrix(5.2632,0,0,5.2632,-1294.7,-832.82)"><path
                                   d="m 303.18,131.88 c 0,1.66 -1.34,3 -3,3 -1.66,0 -3,-1.34 -3,-3 0,-1.65 1.34,-3 3,-3 1.66,0 3,1.35 3,3 z"
                                   style="fill:#000000;fill-opacity:1;fill-rule:nonzero;stroke:none"
                                   id="path2590" /><g
                                   id="g2592"
                                   transform="matrix(0.19,0,0,0.19,300.998,157.2364)"><path
                                   d="m 44.906,-17.406 v 0 L 42.094,0 H 5 c 0,-1.6667 0.1979,-2.7344 0.5938,-3.2031 l 0.5,-0.5 19.2032,-21.3909 c 7,-7.875 10.5,-15.245 10.5,-22.109 0,-5.927 -1.797,-10.427 -5.391,-13.5 l -0.109,-0.094 h -0.094 c -2.135,-1.802 -4.734,-2.703 -7.797,-2.703 -4.802,0 -8.635,2.068 -11.5,6.203 -0.802,1.198 -1.4685,2.531 -1.9998,4 0.198,-0.073 0.6303,-0.109 1.2968,-0.109 2.667,0 4.365,1.203 5.094,3.609 v 0.094 c 0.135,0.469 0.203,0.969 0.203,1.5 0,2.667 -1.266,4.37 -3.797,5.109 -0.531,0.125 -1,0.188 -1.406,0.188 -2.4689,0 -4.0991,-1.032 -4.8908,-3.094 C 5.1354,-46.729 5,-47.562 5,-48.5 c 0,-5.135 1.9688,-9.536 5.906,-13.203 3.532,-3.261 7.797,-4.891 12.797,-4.891 7.333,0 13.031,2.464 17.094,7.391 2.333,2.864 3.667,6.265 4,10.203 0.073,0.604 0.109,1.203 0.109,1.797 0,4.864 -1.833,9.5 -5.5,13.906 -1.937,2.261 -4.937,5.261 -9,9 l -6.109,5.391 -1,0.906 -10.594,10.2969 h 18 c 5.865,0 9.031,-0.2657 9.5,-0.7969 0.667,-0.9375 1.401,-3.906 2.203,-8.906 z"
                                   style="fill:#000000;fill-opacity:1;fill-rule:nonzero;stroke:none"
                                   id="path2594" /><g
                                   id="g2596"
                                   transform="matrix(5.2632,0,0,5.2632,-1584.2,-827.56)"><path
                                   d="m 277,64 h 145 v 36 H 277 Z"
                                   style="fill:#ffffff;fill-opacity:1;fill-rule:nonzero;stroke:none"
                                   id="path2598" /><g
                                   id="g2600"
                                   transform="scale(19)"><g
                                   id="g2602"
                                   transform="matrix(0.01,0,0,0.01,14.947,4.6005)"><path
                                   d="M 48.594,-38.094 39,0.09375 C 37.396,6.6354 33.828,11.938 28.297,16 24.234,19 20,20.5 15.594,20.5 11.135,20.5 7.9688,18.969 6.0938,15.906 5.3646,14.635 5,13.266 5,11.797 5,8.401 6.3646,6.3021 9.0938,5.5 9.6354,5.3646 10.135,5.2969 10.594,5.2969 c 2.135,0 3.338,0.9323 3.609,2.7969 0.063,0.2083 0.094,0.4427 0.094,0.7031 0,1.5311 -0.667,2.9011 -2,4.1091 -0.927,0.792 -2.3595,1.188 -4.297,1.188 1.1979,2.802 3.729,4.203 7.594,4.203 4.135,0 7.802,-2.099 11,-6.297 2.604,-3.4688 4.672,-8.1667 6.203,-14.0938 0.073,-0.2708 0.172,-0.7083 0.297,-1.3124 -3,2.99995 -6.365,4.5 -10.094,4.5 -5.333,0 -8.969,-1.96359 -10.906,-5.8907 -0.865,-1.7396 -1.297,-3.7396 -1.297,-6.0001 0,-3.667 1.765,-10.234 5.297,-19.703 0.135,-0.396 0.302,-0.828 0.5,-1.297 1.135,-3.073 1.703,-5.406 1.703,-7 0,-2.135 -0.833,-3.203 -2.5,-3.203 -3.667,0 -6.6668,3.031 -9.0001,9.094 v 0.109 c -0.3959,1 -0.7604,2.068 -1.0938,3.203 -0.7396,1.125 -1.276,1.724 -1.6093,1.797 -0.7917,0 -1.1876,-0.333 -1.1876,-1 0,-1.198 0.698,-3.297 2.0938,-6.297 2.9375,-6.073 6.635,-9.109 11.094,-9.109 3.541,0 6.01,1.5 7.406,4.5 0.531,1.135 0.797,2.37 0.797,3.703 0,1.396 -0.667,3.797 -2,7.203 -3.396,8.802 -5.094,15.333 -5.094,19.5939 0,5.4062 2.068,8.1093 6.203,8.1093 3.865,0 7.229,-2.0677 10.094,-6.2031 0.667,-1 1.068,-1.7656 1.203,-2.2969 l 4.5,-18.0002 c 0.469,-2.208 1.136,-4.875 2,-8 0.667,-2.875 1.13,-4.677 1.391,-5.406 0.875,-1.396 2.041,-2.094 3.5,-2.094 1.666,0.334 2.635,1.229 2.906,2.688 0,0.604 -0.135,1.375 -0.406,2.312 z"
                                   style="fill:#000000;fill-opacity:1;fill-rule:nonzero;stroke:none"
                                   id="path2604" /><g
                                   id="g2606"
                                   transform="translate(80.4)"><path
                                   d="M 68.703,-32.703 H 9 c -2.1354,0 -3.2708,-0.667 -3.4062,-2 0,-1.333 1.1041,-2 3.3124,-2 H 68.797 c 2.135,0 3.234,0.667 3.297,2 0,1.333 -1.13,2 -3.391,2 z m 0.094,19.406 H 8.9062 c -2.1354,0 -3.2395,-0.667 -3.3124,-2 0,-1.333 1.1354,-2 3.4062,-2 h 59.703 c 2.136,0 3.266,0.667 3.391,2 0,1.333 -1.099,2 -3.297,2 z"
                                   style="fill:#000000;fill-opacity:1;fill-rule:nonzero;stroke:none"
                                   id="path2608" /><g
                                   id="g2610"
                                   transform="translate(105.6)"><path
                                   d="M 33.406,-30.203 30,-16.5 c -1.135,4.531 -1.703,7.4635 -1.703,8.7969 0,3.4687 1.234,5.5677 3.703,6.2969 0.531,0.2083 1.13,0.3124 1.797,0.3124 3.333,0 6.37,-1.6666 9.109,-5 1.792,-2.1354 3.188,-4.8382 4.188,-8.1092 0.208,-0.729 0.646,-1.094 1.312,-1.094 0.792,0 1.188,0.333 1.188,1 0,1.667 -1.032,4.068 -3.094,7.2032 -3.604,5.4584 -7.906,8.1876 -12.906,8.1876 -4.532,0 -7.828,-1.89588 -9.891,-5.6876 -0.406,-0.6041 -0.708,-1.2395 -0.906,-1.9062 -1.594,3.1979 -3.792,5.4323 -6.594,6.70312 -1.271,0.59376 -2.573,0.89068 -3.906,0.89068 -4.0001,0 -6.797,-1.166717 -8.3908,-3.5 -0.6666,-0.8646 -1,-1.8959 -1,-3.0938 0,-2.4688 1.0626,-4.2031 3.1876,-5.203 0.7395,-0.396 1.5104,-0.594 2.3124,-0.594 1.9998,0 3.1978,0.833 3.5938,2.5001 0.062,0.3334 0.094,0.6667 0.094,1 0,2.2604 -1.13,3.9271 -3.3909,5 -0.4062,0.1979 -0.8385,0.3281 -1.2969,0.3907 1.3959,0.875 3.0628,1.3124 4.9998,1.3124 3.532,0 6.328,-2.3697 8.391,-7.1093 0.406,-1 0.776,-2.0989 1.109,-3.2969 3.594,-13.604 5.391,-21.536 5.391,-23.797 -0.396,-4.135 -2.193,-6.37 -5.391,-6.703 -3.468,0 -6.635,1.766 -9.5,5.297 v 0.109 c 0,0.063 -0.036,0.094 -0.109,0.094 -1,1.333 -1.901,2.865 -2.7032,4.594 -0.3334,0.802 -0.6303,1.604 -0.8907,2.406 L 8.5,-28.906 c -0.1354,0.739 -0.5677,1.109 -1.2969,1.109 -0.8021,0 -1.2031,-0.333 -1.2031,-1 0,-1.667 1.0677,-4.068 3.2031,-7.203 3.5939,-5.469 7.8909,-8.203 12.8909,-8.203 5.135,0 8.739,2.536 10.812,7.609 2.125,-4.135 4.959,-6.604 8.5,-7.406 0.667,-0.135 1.334,-0.203 2,-0.203 3.927,0 6.693,1.099 8.297,3.297 0.667,0.937 1,2.041 1,3.312 0,2.729 -1.234,4.563 -3.703,5.5 -0.604,0.198 -1.172,0.297 -1.703,0.297 -2.063,0 -3.297,-0.901 -3.703,-2.703 -0.063,-0.271 -0.094,-0.536 -0.094,-0.797 0,-2 0.969,-3.568 2.906,-4.703 0.594,-0.333 1.224,-0.568 1.891,-0.703 -1.396,-0.865 -3.063,-1.297 -5,-1.297 -4.531,0 -7.729,3.531 -9.594,10.594 -0.135,0.406 -0.234,0.807 -0.297,1.203 z"
                                   style="fill:#000000;fill-opacity:1;fill-rule:nonzero;stroke:none"
                                   id="path2612" /><g
                                   id="g2614"
                                   transform="matrix(0.7,0,0,0.7,57.2,-41.29)"><path
                                   d="m 44.906,-17.406 v 0 L 42.094,0 H 5 c 0,-1.6667 0.1979,-2.7344 0.5938,-3.2031 l 0.5,-0.5 19.2032,-21.3909 c 7,-7.875 10.5,-15.245 10.5,-22.109 0,-5.927 -1.797,-10.427 -5.391,-13.5 l -0.109,-0.094 h -0.094 c -2.135,-1.802 -4.734,-2.703 -7.797,-2.703 -4.802,0 -8.635,2.068 -11.5,6.203 -0.802,1.198 -1.4685,2.531 -1.9998,4 0.198,-0.073 0.6303,-0.109 1.2968,-0.109 2.667,0 4.365,1.203 5.094,3.609 v 0.094 c 0.135,0.469 0.203,0.969 0.203,1.5 0,2.667 -1.266,4.37 -3.797,5.109 -0.531,0.125 -1,0.188 -1.406,0.188 -2.4689,0 -4.0991,-1.032 -4.8908,-3.094 C 5.1354,-46.729 5,-47.562 5,-48.5 c 0,-5.135 1.9688,-9.536 5.906,-13.203 3.532,-3.261 7.797,-4.891 12.797,-4.891 7.333,0 13.031,2.464 17.094,7.391 2.333,2.864 3.667,6.265 4,10.203 0.073,0.604 0.109,1.203 0.109,1.797 0,4.864 -1.833,9.5 -5.5,13.906 -1.937,2.261 -4.937,5.261 -9,9 l -6.109,5.391 -1,0.906 -10.594,10.2969 h 18 c 5.865,0 9.031,-0.2657 9.5,-0.7969 0.667,-0.9375 1.401,-3.906 2.203,-8.906 z"
                                   style="fill:#000000;fill-opacity:1;fill-rule:nonzero;stroke:none"
                                   id="path2616" /><g
                                   id="g2618"
                                   transform="matrix(1.4286,0,0,1.4286,85.49422,58.99743)"><path
                                   d="M 40.906,-23 V 5 c 0,2.1354 -0.666,3.2344 -2,3.2969 -1.333,0 -2,-1.099 -2,-3.2969 V -23 H 8.9062 c -2.1354,0 -3.2395,-0.667 -3.3124,-2 0,-1.333 1.1041,-2 3.3124,-2 H 36.906 v -28 c 0,-2.135 0.667,-3.234 2,-3.297 1.334,0 2,1.099 2,3.297 v 28 h 27.891 c 2.135,0 3.234,0.667 3.297,2 0,1.333 -1.099,2 -3.297,2 z"
                                   style="fill:#000000;fill-opacity:1;fill-rule:nonzero;stroke:none"
                                   id="path2620" /><g
                                   id="g2622"
                                   transform="translate(100.1)"><path
                                   d="m 15.906,-71.703 v 93.406 c 0,2.136 -0.666,3.235 -2,3.297 -1.333,0 -2,-1.099 -2,-3.297 v -93.406 c 0,-2.136 0.667,-3.235 2,-3.297 1.334,0 2,1.099 2,3.297 z"
                                   style="fill:#000000;fill-opacity:1;fill-rule:nonzero;stroke:none"
                                   id="path2624" /><g
                                   id="g2626"
                                   transform="translate(27.8)"><path
                                   d="M 33.406,-30.203 30,-16.5 c -1.135,4.531 -1.703,7.4635 -1.703,8.7969 0,3.4687 1.234,5.5677 3.703,6.2969 0.531,0.2083 1.13,0.3124 1.797,0.3124 3.333,0 6.37,-1.6666 9.109,-5 1.792,-2.1354 3.188,-4.8382 4.188,-8.1092 0.208,-0.729 0.646,-1.094 1.312,-1.094 0.792,0 1.188,0.333 1.188,1 0,1.667 -1.032,4.068 -3.094,7.2032 -3.604,5.4584 -7.906,8.1876 -12.906,8.1876 -4.532,0 -7.828,-1.89588 -9.891,-5.6876 -0.406,-0.6041 -0.708,-1.2395 -0.906,-1.9062 -1.594,3.1979 -3.792,5.4323 -6.594,6.70312 -1.271,0.59376 -2.573,0.89068 -3.906,0.89068 -4.0001,0 -6.797,-1.166717 -8.3908,-3.5 -0.6666,-0.8646 -1,-1.8959 -1,-3.0938 0,-2.4688 1.0626,-4.2031 3.1876,-5.203 0.7395,-0.396 1.5104,-0.594 2.3124,-0.594 1.9998,0 3.1978,0.833 3.5938,2.5001 0.062,0.3334 0.094,0.6667 0.094,1 0,2.2604 -1.13,3.9271 -3.3909,5 -0.4062,0.1979 -0.8385,0.3281 -1.2969,0.3907 1.3959,0.875 3.0628,1.3124 4.9998,1.3124 3.532,0 6.328,-2.3697 8.391,-7.1093 0.406,-1 0.776,-2.0989 1.109,-3.2969 3.594,-13.604 5.391,-21.536 5.391,-23.797 -0.396,-4.135 -2.193,-6.37 -5.391,-6.703 -3.468,0 -6.635,1.766 -9.5,5.297 v 0.109 c 0,0.063 -0.036,0.094 -0.109,0.094 -1,1.333 -1.901,2.865 -2.7032,4.594 -0.3334,0.802 -0.6303,1.604 -0.8907,2.406 L 8.5,-28.906 c -0.1354,0.739 -0.5677,1.109 -1.2969,1.109 -0.8021,0 -1.2031,-0.333 -1.2031,-1 0,-1.667 1.0677,-4.068 3.2031,-7.203 3.5939,-5.469 7.8909,-8.203 12.8909,-8.203 5.135,0 8.739,2.536 10.812,7.609 2.125,-4.135 4.959,-6.604 8.5,-7.406 0.667,-0.135 1.334,-0.203 2,-0.203 3.927,0 6.693,1.099 8.297,3.297 0.667,0.937 1,2.041 1,3.312 0,2.729 -1.234,4.563 -3.703,5.5 -0.604,0.198 -1.172,0.297 -1.703,0.297 -2.063,0 -3.297,-0.901 -3.703,-2.703 -0.063,-0.271 -0.094,-0.536 -0.094,-0.797 0,-2 0.969,-3.568 2.906,-4.703 0.594,-0.333 1.224,-0.568 1.891,-0.703 -1.396,-0.865 -3.063,-1.297 -5,-1.297 -4.531,0 -7.729,3.531 -9.594,10.594 -0.135,0.406 -0.234,0.807 -0.297,1.203 z"
                                   style="fill:#000000;fill-opacity:1;fill-rule:nonzero;stroke:none"
                                   id="path2628" /><g
                                   id="g2630"
                                   transform="translate(57.2)"><path
                                   d="m 15.906,-71.703 v 93.406 c 0,2.136 -0.666,3.235 -2,3.297 -1.333,0 -2,-1.099 -2,-3.297 v -93.406 c 0,-2.136 0.667,-3.235 2,-3.297 1.334,0 2,1.099 2,3.297 z"
                                   style="fill:#000000;fill-opacity:1;fill-rule:nonzero;stroke:none"
                                   id="path2632" /><g
                                   id="g2634"
                                   transform="translate(50)"><path
                                   d="m 66.094,-23 h -54.5 c -2.1252,0 -3.2242,-0.667 -3.2971,-2 0,-1.333 1.0989,-2 3.2971,-2 h 54.5 c 2.135,0 3.239,0.667 3.312,2 0,1.333 -1.104,2 -3.312,2 z"
                                   style="fill:#000000;fill-opacity:1;fill-rule:nonzero;stroke:none"
                                   id="path2636" /><g
                                   id="g2638"
                                   transform="translate(100)"><path
                                   d="m 44.906,-17.406 v 0 L 42.094,0 H 5 c 0,-1.6667 0.1979,-2.7344 0.5938,-3.2031 l 0.5,-0.5 19.2032,-21.3909 c 7,-7.875 10.5,-15.245 10.5,-22.109 0,-5.927 -1.797,-10.427 -5.391,-13.5 l -0.109,-0.094 h -0.094 c -2.135,-1.802 -4.734,-2.703 -7.797,-2.703 -4.802,0 -8.635,2.068 -11.5,6.203 -0.802,1.198 -1.4685,2.531 -1.9998,4 0.198,-0.073 0.6303,-0.109 1.2968,-0.109 2.667,0 4.365,1.203 5.094,3.609 v 0.094 c 0.135,0.469 0.203,0.969 0.203,1.5 0,2.667 -1.266,4.37 -3.797,5.109 -0.531,0.125 -1,0.188 -1.406,0.188 -2.4689,0 -4.0991,-1.032 -4.8908,-3.094 C 5.1354,-46.729 5,-47.562 5,-48.5 c 0,-5.135 1.9688,-9.536 5.906,-13.203 3.532,-3.261 7.797,-4.891 12.797,-4.891 7.333,0 13.031,2.464 17.094,7.391 2.333,2.864 3.667,6.265 4,10.203 0.073,0.604 0.109,1.203 0.109,1.797 0,4.864 -1.833,9.5 -5.5,13.906 -1.937,2.261 -4.937,5.261 -9,9 l -6.109,5.391 -1,0.906 -10.594,10.2969 h 18 c 5.865,0 9.031,-0.2657 9.5,-0.7969 0.667,-0.9375 1.401,-3.906 2.203,-8.906 z"
                                   style="fill:#000000;fill-opacity:1;fill-rule:nonzero;stroke:none"
                                   id="path2640" /><g
                                   id="g2642"
                                   transform="matrix(5.2632,0,0,5.2632,-2132.8,-460.05)" /></g></g></g></g></g></g></g></g></g></g></g></g></g></g></g></g></g></g></g></g></g></g></g></g></g></g></g></g></g><g
                   id="g2644"
                   transform="scale(0.51451)" /></g></g></g></g></g></g></g></svg>
