<?xml version="1.0" encoding="UTF-8" standalone="no"?>
<svg
   xmlns:dc="http://purl.org/dc/elements/1.1/"
   xmlns:cc="http://creativecommons.org/ns#"
   xmlns:rdf="http://www.w3.org/1999/02/22-rdf-syntax-ns#"
   xmlns:svg="http://www.w3.org/2000/svg"
   xmlns="http://www.w3.org/2000/svg"
   xmlns:sodipodi="http://sodipodi.sourceforge.net/DTD/sodipodi-0.dtd"
   xmlns:inkscape="http://www.inkscape.org/namespaces/inkscape"
   version="1.1"
   id="svg7688"
   xml:space="preserve"
   width="197.33333"
   height="110.66667"
   viewBox="0 0 197.33333 110.66667"
   sodipodi:docname="2020-1218-1940-crop.pdf"><metadata
     id="metadata7694"><rdf:RDF><cc:Work
         rdf:about=""><dc:format>image/svg+xml</dc:format><dc:type
           rdf:resource="http://purl.org/dc/dcmitype/StillImage" /></cc:Work></rdf:RDF></metadata><defs
     id="defs7692"><clipPath
       clipPathUnits="userSpaceOnUse"
       id="clipPath7706"><path
         d="M 0,0 H 210 V 150 H 0 Z"
         id="path7704" /></clipPath><clipPath
       clipPathUnits="userSpaceOnUse"
       id="clipPath7716"><path
         d="M 0,0 H 210 V 150 H 0 Z"
         id="path7714" /></clipPath><clipPath
       clipPathUnits="userSpaceOnUse"
       id="clipPath7728"><path
         d="M 0,0 V 150 H 210 V 0 Z"
         id="path7726" /></clipPath><clipPath
       clipPathUnits="userSpaceOnUse"
       id="clipPath7738"><path
         d="M 0,0 H 371 V 266 H 0 Z"
         id="path7736" /></clipPath></defs><sodipodi:namedview
     pagecolor="#ffffff"
     bordercolor="#666666"
     borderopacity="1"
     objecttolerance="10"
     gridtolerance="10"
     guidetolerance="10"
     inkscape:pageopacity="0"
     inkscape:pageshadow="2"
     inkscape:window-width="640"
     inkscape:window-height="480"
     id="namedview7690" /><g
     id="g7696"
     inkscape:groupmode="layer"
     inkscape:label="2020-1218-1940-crop"
     transform="matrix(1.3333333,0,0,-1.3333333,0,110.66667)"><g
       id="g7698"
       transform="translate(-33,-33)"><g
         id="g7700"><g
           id="g7702"
           clip-path="url(#clipPath7706)"><g
             id="g7708"
             transform="matrix(0.73333,0,0,-0.73333,28,130)"><g
               id="g7710"><g
                 id="g7712"
                 clip-path="url(#clipPath7716)"><g
                   id="g7718"><g
                     id="g7720" /></g><g
                   id="g7722"><g
                     id="g7724"
                     clip-path="url(#clipPath7728)"><g
                       id="g7730"
                       transform="scale(0.56693)" /></g></g><g
                   id="g7732"
                   transform="scale(0.56693)"><g
                     id="g7734"
                     clip-path="url(#clipPath7738)"><path
                       d="M 0,0 H 371 V 266 H 0 Z"
                       style="fill:#ffffff;fill-opacity:1;fill-rule:nonzero;stroke:none"
                       id="path7740" /><path
                       d="m 161.9,134.24 c 0,27.05 -21.93,48.98 -48.98,48.98 -27.045,0 -48.972,-21.93 -48.972,-48.98 0,-27.05 21.927,-48.974 48.972,-48.974 27.05,0 48.98,21.924 48.98,48.974 z"
                       style="fill:none;stroke:#000000;stroke-width:1.5;stroke-linecap:round;stroke-linejoin:round;stroke-miterlimit:10;stroke-dasharray:none;stroke-opacity:1"
                       id="path7742" /><path
                       d="m 210.87,134.24 c 0,54.1 -43.85,97.95 -97.95,97.95 -54.093,0 -97.946,-43.85 -97.946,-97.95 0,-54.096 43.853,-97.949 97.946,-97.949 54.1,0 97.95,43.853 97.95,97.949 z"
                       style="fill:none;stroke:#000000;stroke-width:1.5;stroke-linecap:round;stroke-linejoin:round;stroke-miterlimit:10;stroke-dasharray:none;stroke-opacity:1"
                       id="path7744" /><path
                       d="M 161.9,134.35 C 161.95,112.76 147.84,93.675 127.18,87.387"
                       style="fill:none;stroke:#ff0000;stroke-width:1.5;stroke-linecap:round;stroke-linejoin:round;stroke-miterlimit:10;stroke-dasharray:none;stroke-opacity:1"
                       id="path7746" /><path
                       d="M 210.87,134.47 C 210.97,91.271 182.76,53.11 141.44,40.534"
                       style="fill:none;stroke:#ff0000;stroke-width:1.5;stroke-linecap:round;stroke-linejoin:round;stroke-miterlimit:10;stroke-dasharray:none;stroke-opacity:1"
                       id="path7748" /><path
                       d="m 112.92,134.24 97.95,0.23"
                       style="fill:none;stroke:#0000ff;stroke-width:1.5;stroke-linecap:round;stroke-linejoin:round;stroke-miterlimit:10;stroke-dasharray:none;stroke-opacity:1"
                       id="path7750" /><path
                       d="M 112.92,134.24 141.44,40.534"
                       style="fill:none;stroke:#0000ff;stroke-width:1.5;stroke-linecap:round;stroke-linejoin:round;stroke-miterlimit:10;stroke-dasharray:none;stroke-opacity:1"
                       id="path7752" /><path
                       d="m 115.92,134.24 c 0,1.66 -1.34,3 -3,3 -1.65,0 -3,-1.34 -3,-3 0,-1.66 1.35,-3 3,-3 1.66,0 3,1.34 3,3 z"
                       style="fill:#000000;fill-opacity:1;fill-rule:nonzero;stroke:none"
                       id="path7754" /><g
                       id="g7756"
                       transform="scale(19)"><g
                         id="g7758"
                         transform="matrix(0.01,0,0,0.01,5.1579,8.1567)"><path
                           d="m 74,-43.594 v 0 C 74,-33.26 70.333,-23.698 63,-14.906 56.396,-6.9062 48.661,-1.6354 39.797,0.90625 36.661,1.7708 33.562,2.2031 30.5,2.2031 22.167,2.2031 15.599,-0.72917 10.797,-6.5938 6.8698,-11.396 4.9062,-17.365 4.9062,-24.5 c 0,-10 3.5626,-19.469 10.6878,-28.406 6.604,-8.063 14.338,-13.427 23.203,-16.094 3.271,-1 6.505,-1.5 9.703,-1.5 8.469,0 15.104,3.068 19.906,9.203 3.729,4.802 5.594,10.703 5.594,17.703 z M 31.094,-0.40625 v 0 c 6.271,0 12.307,-2.79685 18.109,-8.39065 1.198,-1.1354 2.297,-2.3381 3.297,-3.6091 6.531,-8.125 10.562,-17.823 12.094,-29.094 0.333,-2.198 0.5,-4.198 0.5,-6 0,-9.135 -3.063,-15.333 -9.188,-18.594 -0.073,0 -0.14,-0.036 -0.203,-0.109 C 53.297,-67.401 50.698,-68 47.906,-68 c -6.271,0 -12.338,2.698 -18.203,8.094 -2.406,2.135 -4.542,4.635 -6.406,7.5 -5.063,7.666 -8.026,16.833 -8.891,27.5 -0.135,1.208 -0.203,2.276 -0.203,3.203 0,8.531 2.568,14.6665 7.703,18.4061 2.667,1.9271 5.729,2.89065 9.188,2.89065 z"
                           style="fill:#000000;fill-opacity:1;fill-rule:nonzero;stroke:none"
                           id="path7760" /><g
                           id="g7762"
                           transform="matrix(5.2632,0,0,5.2632,-515.79,-815.67)"><path
                             d="m 212.87,134.47 c 0,1.1 -0.89,2 -2,2 -1.1,0 -2,-0.9 -2,-2 0,-1.11 0.9,-2 2,-2 1.11,0 2,0.89 2,2 z"
                             style="fill:#000000;fill-opacity:1;fill-rule:nonzero;stroke:none"
                             id="path7764" /><path
                             d="m 143.44,40.534 c 0,1.105 -0.9,2 -2,2 -1.1,0 -2,-0.895 -2,-2 0,-1.104 0.9,-2 2,-2 1.1,0 2,0.896 2,2 z"
                             style="fill:#000000;fill-opacity:1;fill-rule:nonzero;stroke:none"
                             id="path7766" /><path
                             d="m 129.18,87.387 c 0,1.105 -0.89,2 -2,2 -1.1,0 -2,-0.895 -2,-2 0,-1.104 0.9,-2 2,-2 1.11,0 2,0.896 2,2 z"
                             style="fill:#000000;fill-opacity:1;fill-rule:nonzero;stroke:none"
                             id="path7768" /><path
                             d="m 163.9,134.35 c 0,1.11 -0.9,2 -2,2 -1.11,0 -2,-0.89 -2,-2 0,-1.1 0.89,-2 2,-2 1.1,0 2,0.9 2,2 z"
                             style="fill:#000000;fill-opacity:1;fill-rule:nonzero;stroke:none"
                             id="path7770" /><g
                             id="g7772"
                             transform="scale(19)"><g
                               id="g7774"
                               transform="matrix(0.01,0,0,0.01,8.3158,5.4835)"><path
                                 d="M 25.797,-68.297 11.406,-10.5 c -0.406,1.5312 -0.609,3.1302 -0.609,4.7969 0,3.0729 1,4.6093 3,4.6093 2.604,0 4.771,-2.8697 6.5,-8.6093 0.333,-0.9999 0.703,-2.2659 1.109,-3.7969 0.532,-1.135 0.995,-1.734 1.391,-1.797 0.802,0 1.203,0.333 1.203,1 0,1 -0.599,3.297 -1.797,6.8908 -0.406,1.1354 -0.807,2.1041 -1.203,2.9062 -1.729,3.72917 -4.229,5.5938 -7.5,5.5938 -3.469,0 -6.0677,-1.39588 -7.7969,-4.1876 -0.8646,-1.4687 -1.2969,-3.1354 -1.2969,-5 0,-1.0729 0.1667,-2.2082 0.5,-3.4062 l 12.5938,-50 0.297,-2 c 0,-0.729 -0.464,-1.198 -1.391,-1.406 -0.802,-0.198 -1.968,-0.297 -3.5,-0.297 -1.541,0 -2.375,-0.365 -2.5,-1.094 0,-1.198 0.63,-1.901 1.891,-2.109 l 12.203,-1 c 0.865,0 1.297,0.37 1.297,1.109 z"
                                 style="fill:#ff0000;fill-opacity:1;fill-rule:nonzero;stroke:none"
                                 id="path7776" /><g
                                 id="g7778"
                                 transform="matrix(0.7,0,0,0.7,29.8,15)"><path
                                   d="m 29.406,-64 v 56.0938 c 0,2 0.396,3.2708 1.188,3.8124 1.135,0.6667 3.838,1 8.109,1 h 3.203 V 0 C 39.573,-0.19792 34.172,-0.29688 25.703,-0.29688 17.234,-0.29688 11.833,-0.19792 9.5,0 v -3.0938 h 3.203 c 5.136,0 8.068,-0.6041 8.797,-1.8124 L 21.594,-5 C 21.865,-5.5312 22,-6.5 22,-7.9062 V -59.703 c -3.469,1.739 -7.833,2.609 -13.0938,2.609 v -3.109 c 7.9998,0 14.0628,-2.13 18.1878,-6.391 1.271,0 2.005,0.229 2.203,0.688 v 0 0.109 c 0.073,0.198 0.109,0.797 0.109,1.797 z"
                                   style="fill:#ff0000;fill-opacity:1;fill-rule:nonzero;stroke:none"
                                   id="path7780" /><g
                                   id="g7782"
                                   transform="matrix(1.4286114,0,0,1.4286114,258.25594,-284.56544)"><path
                                   d="M 25.797,-68.297 11.406,-10.5 c -0.406,1.5312 -0.609,3.1302 -0.609,4.7969 0,3.0729 1,4.6093 3,4.6093 2.604,0 4.771,-2.8697 6.5,-8.6093 0.333,-0.9999 0.703,-2.2659 1.109,-3.7969 0.532,-1.135 0.995,-1.734 1.391,-1.797 0.802,0 1.203,0.333 1.203,1 0,1 -0.599,3.297 -1.797,6.8908 -0.406,1.1354 -0.807,2.1041 -1.203,2.9062 -1.729,3.72917 -4.229,5.5938 -7.5,5.5938 -3.469,0 -6.0677,-1.39588 -7.7969,-4.1876 -0.8646,-1.4687 -1.2969,-3.1354 -1.2969,-5 0,-1.0729 0.1667,-2.2082 0.5,-3.4062 l 12.5938,-50 0.297,-2 c 0,-0.729 -0.464,-1.198 -1.391,-1.406 -0.802,-0.198 -1.968,-0.297 -3.5,-0.297 -1.541,0 -2.375,-0.365 -2.5,-1.094 0,-1.198 0.63,-1.901 1.891,-2.109 l 12.203,-1 c 0.865,0 1.297,0.37 1.297,1.109 z"
                                   style="fill:#ff0000;fill-opacity:1;fill-rule:nonzero;stroke:none"
                                   id="path7784" /><g
                                   id="g7786"
                                   transform="matrix(0.7,0,0,0.7,29.8,15)"><path
                                   d="m 44.906,-17.406 v 0 L 42.094,0 H 5 c 0,-1.6667 0.1979,-2.7344 0.5938,-3.2031 l 0.5,-0.5 19.2032,-21.3909 c 7,-7.875 10.5,-15.245 10.5,-22.109 0,-5.927 -1.797,-10.427 -5.391,-13.5 l -0.109,-0.094 h -0.094 c -2.135,-1.802 -4.734,-2.703 -7.797,-2.703 -4.802,0 -8.635,2.068 -11.5,6.203 -0.802,1.198 -1.4685,2.531 -1.9998,4 0.198,-0.073 0.6303,-0.109 1.2968,-0.109 2.667,0 4.365,1.203 5.094,3.609 v 0.094 c 0.135,0.469 0.203,0.969 0.203,1.5 0,2.667 -1.266,4.37 -3.797,5.109 -0.531,0.125 -1,0.188 -1.406,0.188 -2.4689,0 -4.0991,-1.032 -4.8908,-3.094 C 5.1354,-46.729 5,-47.562 5,-48.5 c 0,-5.135 1.9688,-9.536 5.906,-13.203 3.532,-3.261 7.797,-4.891 12.797,-4.891 7.333,0 13.031,2.464 17.094,7.391 2.333,2.864 3.667,6.265 4,10.203 0.073,0.604 0.109,1.203 0.109,1.797 0,4.864 -1.833,9.5 -5.5,13.906 -1.937,2.261 -4.937,5.261 -9,9 l -6.109,5.391 -1,0.906 -10.594,10.2969 h 18 c 5.865,0 9.031,-0.2657 9.5,-0.7969 0.667,-0.9375 1.401,-3.906 2.203,-8.906 z"
                                   style="fill:#ff0000;fill-opacity:1;fill-rule:nonzero;stroke:none"
                                   id="path7788" /><g
                                   id="g7790"
                                   transform="matrix(7.5190075,0,0,7.5190075,-1531.3,-541.62)"><g
                                   id="g7792"
                                   transform="scale(19)"><g
                                   id="g7794"
                                   transform="matrix(0.01,0,0,0.01,6.9474,7.9047)"><path
                                   d="m 8.7969,-5.9062 v 0 L 14.594,-29 c 1.073,-4.271 1.609,-7.073 1.609,-8.406 0,-3.063 -1.036,-4.594 -3.109,-4.594 -2.729,0 -4.9586,3.167 -6.6878,9.5 -0.2083,0.729 -0.4114,1.531 -0.6093,2.406 -0.7292,1.459 -1.2969,2.224 -1.7031,2.297 -0.7917,0 -1.1876,-0.333 -1.1876,-1 0,-1.073 0.599,-3.307 1.7969,-6.703 0.4688,-1.198 0.9011,-2.198 1.2969,-3 1.6042,-3.271 3.6042,-5.135 6,-5.594 0.469,-0.073 0.938,-0.109 1.406,-0.109 3.729,0 6.427,1.599 8.094,4.797 0.396,0.739 0.698,1.541 0.906,2.406 0.063,0.135 0.094,0.302 0.094,0.5 3.865,-4.802 8.13,-7.37 12.797,-7.703 3.739,0 6.276,1.302 7.609,3.906 0.459,0.802 0.688,1.667 0.688,2.594 0,2.604 -1.099,4.406 -3.297,5.406 -0.729,0.333 -1.464,0.5 -2.203,0.5 -2.063,0 -3.292,-0.901 -3.688,-2.703 -0.073,-0.271 -0.109,-0.536 -0.109,-0.797 0,-2.198 1.135,-3.833 3.406,-4.906 l 0.094,-0.094 c 0.531,-0.198 1.099,-0.364 1.703,-0.5 l -2,-0.906 c -0.865,-0.136 -1.599,-0.235 -2.203,-0.297 -2.802,0 -5.469,1.099 -8,3.297 -2.063,1.864 -3.828,4.333 -5.297,7.406 -0.135,0.333 -0.234,0.599 -0.297,0.797 l -3.203,13 -4,15.7969 C 13.896,0.036458 12.661,0.96875 10.797,1.0938 9.1302,0.76042 8.1667,-0.13542 7.9062,-1.5938 c 0,0.125 0.2969,-1.3124 0.8907,-4.3124 z"
                                   style="fill:#0000ff;fill-opacity:1;fill-rule:nonzero;stroke:none"
                                   id="path7796" /><g
                                   id="g7798"
                                   transform="matrix(0.7,0,0,0.7,45.1,15)"><path
                                   d="m 29.406,-64 v 56.0938 c 0,2 0.396,3.2708 1.188,3.8124 1.135,0.6667 3.838,1 8.109,1 h 3.203 V 0 C 39.573,-0.19792 34.172,-0.29688 25.703,-0.29688 17.234,-0.29688 11.833,-0.19792 9.5,0 v -3.0938 h 3.203 c 5.136,0 8.068,-0.6041 8.797,-1.8124 L 21.594,-5 C 21.865,-5.5312 22,-6.5 22,-7.9062 V -59.703 c -3.469,1.739 -7.833,2.609 -13.0938,2.609 v -3.109 c 7.9998,0 14.0628,-2.13 18.1878,-6.391 1.271,0 2.005,0.229 2.203,0.688 v 0 0.109 c 0.073,0.198 0.109,0.797 0.109,1.797 z"
                                   style="fill:#0000ff;fill-opacity:1;fill-rule:nonzero;stroke:none"
                                   id="path7800" /><g
                                   id="g7802"
                                   transform="matrix(7.5190075,0,0,7.5190075,-1056.9,-1150.7)"><g
                                   id="g7804"
                                   transform="scale(19)"><g
                                   id="g7806"
                                   transform="matrix(0.01,0,0,0.01,14.297,6.6414)"><path
                                   d="M 25.797,-68.297 11.406,-10.5 c -0.406,1.5312 -0.609,3.1302 -0.609,4.7969 0,3.0729 1,4.6093 3,4.6093 2.604,0 4.771,-2.8697 6.5,-8.6093 0.333,-0.9999 0.703,-2.2659 1.109,-3.7969 0.532,-1.135 0.995,-1.734 1.391,-1.797 0.802,0 1.203,0.333 1.203,1 0,1 -0.599,3.297 -1.797,6.8908 -0.406,1.1354 -0.807,2.1041 -1.203,2.9062 -1.729,3.72917 -4.229,5.5938 -7.5,5.5938 -3.469,0 -6.0677,-1.39588 -7.7969,-4.1876 -0.8646,-1.4687 -1.2969,-3.1354 -1.2969,-5 0,-1.0729 0.1667,-2.2082 0.5,-3.4062 l 12.5938,-50 0.297,-2 c 0,-0.729 -0.464,-1.198 -1.391,-1.406 -0.802,-0.198 -1.968,-0.297 -3.5,-0.297 -1.541,0 -2.375,-0.365 -2.5,-1.094 0,-1.198 0.63,-1.901 1.891,-2.109 l 12.203,-1 c 0.865,0 1.297,0.37 1.297,1.109 z"
                                   style="fill:#ff0000;fill-opacity:1;fill-rule:nonzero;stroke:none"
                                   id="path7808" /><g
                                   id="g7810"
                                   transform="matrix(0.7,0,0,0.7,29.8,15)"><path
                                   d="m 29.406,-64 v 56.0938 c 0,2 0.396,3.2708 1.188,3.8124 1.135,0.6667 3.838,1 8.109,1 h 3.203 V 0 C 39.573,-0.19792 34.172,-0.29688 25.703,-0.29688 17.234,-0.29688 11.833,-0.19792 9.5,0 v -3.0938 h 3.203 c 5.136,0 8.068,-0.6041 8.797,-1.8124 L 21.594,-5 C 21.865,-5.5312 22,-6.5 22,-7.9062 V -59.703 c -3.469,1.739 -7.833,2.609 -13.0938,2.609 v -3.109 c 7.9998,0 14.0628,-2.13 18.1878,-6.391 1.271,0 2.005,0.229 2.203,0.688 v 0 0.109 c 0.073,0.198 0.109,0.797 0.109,1.797 z"
                                   style="fill:#ff0000;fill-opacity:1;fill-rule:nonzero;stroke:none"
                                   id="path7812" /><g
                                   id="g7814"
                                   transform="matrix(142.86,0,0,142.86,-2085,-970.2)"><path
                                   d="m 14.221,7.0479 h 0.801 v 0.04 h -0.801 z"
                                   style="fill:#000000;fill-opacity:1;fill-rule:nonzero;stroke:none"
                                   id="path7816" /><g
                                   id="g7818"
                                   transform="matrix(0.01,0,0,0.01,14.221,8.0038)"><path
                                   d="m 8.7969,-5.9062 v 0 L 14.594,-29 c 1.073,-4.271 1.609,-7.073 1.609,-8.406 0,-3.063 -1.036,-4.594 -3.109,-4.594 -2.729,0 -4.9586,3.167 -6.6878,9.5 -0.2083,0.729 -0.4114,1.531 -0.6093,2.406 -0.7292,1.459 -1.2969,2.224 -1.7031,2.297 -0.7917,0 -1.1876,-0.333 -1.1876,-1 0,-1.073 0.599,-3.307 1.7969,-6.703 0.4688,-1.198 0.9011,-2.198 1.2969,-3 1.6042,-3.271 3.6042,-5.135 6,-5.594 0.469,-0.073 0.938,-0.109 1.406,-0.109 3.729,0 6.427,1.599 8.094,4.797 0.396,0.739 0.698,1.541 0.906,2.406 0.063,0.135 0.094,0.302 0.094,0.5 3.865,-4.802 8.13,-7.37 12.797,-7.703 3.739,0 6.276,1.302 7.609,3.906 0.459,0.802 0.688,1.667 0.688,2.594 0,2.604 -1.099,4.406 -3.297,5.406 -0.729,0.333 -1.464,0.5 -2.203,0.5 -2.063,0 -3.292,-0.901 -3.688,-2.703 -0.073,-0.271 -0.109,-0.536 -0.109,-0.797 0,-2.198 1.135,-3.833 3.406,-4.906 l 0.094,-0.094 c 0.531,-0.198 1.099,-0.364 1.703,-0.5 l -2,-0.906 c -0.865,-0.136 -1.599,-0.235 -2.203,-0.297 -2.802,0 -5.469,1.099 -8,3.297 -2.063,1.864 -3.828,4.333 -5.297,7.406 -0.135,0.333 -0.234,0.599 -0.297,0.797 l -3.203,13 -4,15.7969 C 13.896,0.036458 12.661,0.96875 10.797,1.0938 9.1302,0.76042 8.1667,-0.13542 7.9062,-1.5938 c 0,0.125 0.2969,-1.3124 0.8907,-4.3124 z"
                                   style="fill:#0000ff;fill-opacity:1;fill-rule:nonzero;stroke:none"
                                   id="path7820" /><g
                                   id="g7822"
                                   transform="matrix(0.7,0,0,0.7,45.1,15)"><path
                                   d="m 29.406,-64 v 56.0938 c 0,2 0.396,3.2708 1.188,3.8124 1.135,0.6667 3.838,1 8.109,1 h 3.203 V 0 C 39.573,-0.19792 34.172,-0.29688 25.703,-0.29688 17.234,-0.29688 11.833,-0.19792 9.5,0 v -3.0938 h 3.203 c 5.136,0 8.068,-0.6041 8.797,-1.8124 L 21.594,-5 C 21.865,-5.5312 22,-6.5 22,-7.9062 V -59.703 c -3.469,1.739 -7.833,2.609 -13.0938,2.609 v -3.109 c 7.9998,0 14.0628,-2.13 18.1878,-6.391 1.271,0 2.005,0.229 2.203,0.688 v 0 0.109 c 0.073,0.198 0.109,0.797 0.109,1.797 z"
                                   style="fill:#0000ff;fill-opacity:1;fill-rule:nonzero;stroke:none"
                                   id="path7824" /><g
                                   id="g7826"
                                   transform="matrix(142.86,0,0,142.86,-2096,-1164.8)"><g
                                   id="g7828"
                                   transform="matrix(0.01,0,0,0.01,15.363,7.3179)"><path
                                   d="M 68.703,-32.703 H 9 c -2.1354,0 -3.2708,-0.667 -3.4062,-2 0,-1.333 1.1041,-2 3.3124,-2 H 68.797 c 2.135,0 3.234,0.667 3.297,2 0,1.333 -1.13,2 -3.391,2 z m 0.094,19.406 H 8.9062 c -2.1354,0 -3.2395,-0.667 -3.3124,-2 0,-1.333 1.1354,-2 3.4062,-2 h 59.703 c 2.136,0 3.266,0.667 3.391,2 0,1.333 -1.099,2 -3.297,2 z"
                                   style="fill:#000000;fill-opacity:1;fill-rule:nonzero;stroke:none"
                                   id="path7830" /><g
                                   id="g7832"
                                   transform="matrix(100,0,0,100,-1536.3,-731.79)"><g
                                   id="g7834"
                                   transform="matrix(0.01,0,0,0.01,16.558,6.6414)"><path
                                   d="M 25.797,-68.297 11.406,-10.5 c -0.406,1.5312 -0.609,3.1302 -0.609,4.7969 0,3.0729 1,4.6093 3,4.6093 2.604,0 4.771,-2.8697 6.5,-8.6093 0.333,-0.9999 0.703,-2.2659 1.109,-3.7969 0.532,-1.135 0.995,-1.734 1.391,-1.797 0.802,0 1.203,0.333 1.203,1 0,1 -0.599,3.297 -1.797,6.8908 -0.406,1.1354 -0.807,2.1041 -1.203,2.9062 -1.729,3.72917 -4.229,5.5938 -7.5,5.5938 -3.469,0 -6.0677,-1.39588 -7.7969,-4.1876 -0.8646,-1.4687 -1.2969,-3.1354 -1.2969,-5 0,-1.0729 0.1667,-2.2082 0.5,-3.4062 l 12.5938,-50 0.297,-2 c 0,-0.729 -0.464,-1.198 -1.391,-1.406 -0.802,-0.198 -1.968,-0.297 -3.5,-0.297 -1.541,0 -2.375,-0.365 -2.5,-1.094 0,-1.198 0.63,-1.901 1.891,-2.109 l 12.203,-1 c 0.865,0 1.297,0.37 1.297,1.109 z"
                                   style="fill:#ff0000;fill-opacity:1;fill-rule:nonzero;stroke:none"
                                   id="path7836" /><g
                                   id="g7838"
                                   transform="matrix(0.7,0,0,0.7,29.8,15)"><path
                                   d="m 44.906,-17.406 v 0 L 42.094,0 H 5 c 0,-1.6667 0.1979,-2.7344 0.5938,-3.2031 l 0.5,-0.5 19.2032,-21.3909 c 7,-7.875 10.5,-15.245 10.5,-22.109 0,-5.927 -1.797,-10.427 -5.391,-13.5 l -0.109,-0.094 h -0.094 c -2.135,-1.802 -4.734,-2.703 -7.797,-2.703 -4.802,0 -8.635,2.068 -11.5,6.203 -0.802,1.198 -1.4685,2.531 -1.9998,4 0.198,-0.073 0.6303,-0.109 1.2968,-0.109 2.667,0 4.365,1.203 5.094,3.609 v 0.094 c 0.135,0.469 0.203,0.969 0.203,1.5 0,2.667 -1.266,4.37 -3.797,5.109 -0.531,0.125 -1,0.188 -1.406,0.188 -2.4689,0 -4.0991,-1.032 -4.8908,-3.094 C 5.1354,-46.729 5,-47.562 5,-48.5 c 0,-5.135 1.9688,-9.536 5.906,-13.203 3.532,-3.261 7.797,-4.891 12.797,-4.891 7.333,0 13.031,2.464 17.094,7.391 2.333,2.864 3.667,6.265 4,10.203 0.073,0.604 0.109,1.203 0.109,1.797 0,4.864 -1.833,9.5 -5.5,13.906 -1.937,2.261 -4.937,5.261 -9,9 l -6.109,5.391 -1,0.906 -10.594,10.2969 h 18 c 5.865,0 9.031,-0.2657 9.5,-0.7969 0.667,-0.9375 1.401,-3.906 2.203,-8.906 z"
                                   style="fill:#ff0000;fill-opacity:1;fill-rule:nonzero;stroke:none"
                                   id="path7840" /><g
                                   id="g7842"
                                   transform="matrix(142.86,0,0,142.86,-2408,-970.2)"><path
                                   d="m 16.481,7.0479 h 0.801 v 0.04 h -0.801 z"
                                   style="fill:#000000;fill-opacity:1;fill-rule:nonzero;stroke:none"
                                   id="path7844" /><g
                                   id="g7846"
                                   transform="matrix(0.01,0,0,0.01,16.481,8.0038)"><path
                                   d="m 8.7969,-5.9062 v 0 L 14.594,-29 c 1.073,-4.271 1.609,-7.073 1.609,-8.406 0,-3.063 -1.036,-4.594 -3.109,-4.594 -2.729,0 -4.9586,3.167 -6.6878,9.5 -0.2083,0.729 -0.4114,1.531 -0.6093,2.406 -0.7292,1.459 -1.2969,2.224 -1.7031,2.297 -0.7917,0 -1.1876,-0.333 -1.1876,-1 0,-1.073 0.599,-3.307 1.7969,-6.703 0.4688,-1.198 0.9011,-2.198 1.2969,-3 1.6042,-3.271 3.6042,-5.135 6,-5.594 0.469,-0.073 0.938,-0.109 1.406,-0.109 3.729,0 6.427,1.599 8.094,4.797 0.396,0.739 0.698,1.541 0.906,2.406 0.063,0.135 0.094,0.302 0.094,0.5 3.865,-4.802 8.13,-7.37 12.797,-7.703 3.739,0 6.276,1.302 7.609,3.906 0.459,0.802 0.688,1.667 0.688,2.594 0,2.604 -1.099,4.406 -3.297,5.406 -0.729,0.333 -1.464,0.5 -2.203,0.5 -2.063,0 -3.292,-0.901 -3.688,-2.703 -0.073,-0.271 -0.109,-0.536 -0.109,-0.797 0,-2.198 1.135,-3.833 3.406,-4.906 l 0.094,-0.094 c 0.531,-0.198 1.099,-0.364 1.703,-0.5 l -2,-0.906 c -0.865,-0.136 -1.599,-0.235 -2.203,-0.297 -2.802,0 -5.469,1.099 -8,3.297 -2.063,1.864 -3.828,4.333 -5.297,7.406 -0.135,0.333 -0.234,0.599 -0.297,0.797 l -3.203,13 -4,15.7969 C 13.896,0.036458 12.661,0.96875 10.797,1.0938 9.1302,0.76042 8.1667,-0.13542 7.9062,-1.5938 c 0,0.125 0.2969,-1.3124 0.8907,-4.3124 z"
                                   style="fill:#0000ff;fill-opacity:1;fill-rule:nonzero;stroke:none"
                                   id="path7848" /><g
                                   id="g7850"
                                   transform="matrix(0.7,0,0,0.7,45.1,15)"><path
                                   d="m 44.906,-17.406 v 0 L 42.094,0 H 5 c 0,-1.6667 0.1979,-2.7344 0.5938,-3.2031 l 0.5,-0.5 19.2032,-21.3909 c 7,-7.875 10.5,-15.245 10.5,-22.109 0,-5.927 -1.797,-10.427 -5.391,-13.5 l -0.109,-0.094 h -0.094 c -2.135,-1.802 -4.734,-2.703 -7.797,-2.703 -4.802,0 -8.635,2.068 -11.5,6.203 -0.802,1.198 -1.4685,2.531 -1.9998,4 0.198,-0.073 0.6303,-0.109 1.2968,-0.109 2.667,0 4.365,1.203 5.094,3.609 v 0.094 c 0.135,0.469 0.203,0.969 0.203,1.5 0,2.667 -1.266,4.37 -3.797,5.109 -0.531,0.125 -1,0.188 -1.406,0.188 -2.4689,0 -4.0991,-1.032 -4.8908,-3.094 C 5.1354,-46.729 5,-47.562 5,-48.5 c 0,-5.135 1.9688,-9.536 5.906,-13.203 3.532,-3.261 7.797,-4.891 12.797,-4.891 7.333,0 13.031,2.464 17.094,7.391 2.333,2.864 3.667,6.265 4,10.203 0.073,0.604 0.109,1.203 0.109,1.797 0,4.864 -1.833,9.5 -5.5,13.906 -1.937,2.261 -4.937,5.261 -9,9 l -6.109,5.391 -1,0.906 -10.594,10.2969 h 18 c 5.865,0 9.031,-0.2657 9.5,-0.7969 0.667,-0.9375 1.401,-3.906 2.203,-8.906 z"
                                   style="fill:#0000ff;fill-opacity:1;fill-rule:nonzero;stroke:none"
                                   id="path7852" /><g
                                   id="g7854"
                                   transform="matrix(142.86,0,0,142.86,-2418.9,-1164.8)"><g
                                   id="g7856"
                                   transform="matrix(0.01,0,0,0.01,17.623,7.3179)"><path
                                   d="M 68.703,-32.703 H 9 c -2.1354,0 -3.2708,-0.667 -3.4062,-2 0,-1.333 1.1041,-2 3.3124,-2 H 68.797 c 2.135,0 3.234,0.667 3.297,2 0,1.333 -1.13,2 -3.391,2 z m 0.094,19.406 H 8.9062 c -2.1354,0 -3.2395,-0.667 -3.3124,-2 0,-1.333 1.1354,-2 3.4062,-2 h 59.703 c 2.136,0 3.266,0.667 3.391,2 0,1.333 -1.099,2 -3.297,2 z"
                                   style="fill:#000000;fill-opacity:1;fill-rule:nonzero;stroke:none"
                                   id="path7858" /><g
                                   id="g7860"
                                   transform="translate(105.6)"><path
                                   d="m 47.703,-23.594 v 0 6.188 c 4.333,-5.396 7.599,-11.995 9.797,-19.797 0.667,-1.333 1.167,-2.031 1.5,-2.094 0.802,0 1.203,0.333 1.203,1 0,1.136 -0.765,3.667 -2.297,7.594 -2.271,5.739 -5.338,11.042 -9.203,15.906 -0.667,1.333 -1,2.5 -1,3.5 0,6.8022 1.034,10.2032 3.102,10.2032 2.067,0 3.731,-1.1666 4.992,-3.5 C 55.995,-5 56.198,-5.4688 56.406,-6 c 0.261,-0.6667 0.693,-1 1.297,-1 0.802,0 1.203,0.3333 1.203,1 0,1.2708 -0.833,2.7708 -2.5,4.5 -1.739,1.72917 -3.708,2.5938 -5.906,2.5938 -4.198,0 -7.099,-2.2969 -8.703,-6.8907 -0.136,-0.4687 -0.266,-0.9687 -0.391,-1.5 -7,5.5938 -14.036,8.3907 -21.109,8.3907 -6.261,0 -10.8595,-2.5 -13.797,-7.5 -1.6042,-2.7292 -2.4062,-5.8598 -2.4062,-9.3908 0,-6.802 2.6041,-13.104 7.8122,-18.906 5.125,-5.729 10.922,-8.859 17.391,-9.391 0.604,-0.073 1.172,-0.109 1.703,-0.109 5.604,0 9.938,2.203 13,6.609 0,0.063 0.031,0.094 0.094,0.094 2.406,3.531 3.609,8.167 3.609,13.906 z M 41,-9.9062 v 0 c -0.135,-1.1248 -0.203,-4.8538 -0.203,-11.1878 0,-8.208 -0.901,-13.812 -2.703,-16.812 -0.792,-1.334 -1.755,-2.334 -2.891,-3 L 35.094,-41 v 0 H 35 c -1.198,-0.667 -2.562,-1 -4.094,-1 -4.739,0 -9.01,2.667 -12.812,8 l -0.797,1.203 c -2.396,3.865 -4.162,9.266 -5.297,16.203 -0.333,1.865 -0.5,3.396 -0.5,4.594 0,5.6042 1.969,9.0729 5.906,10.4062 0.927,0.3334 1.959,0.5 3.094,0.5 6.938,0 13.771,-2.9374 20.5,-8.8124 z"
                                   style="fill:#000000;fill-opacity:1;fill-rule:nonzero;stroke:none"
                                   id="path7862" /><g
                                   id="g7864"
                                   transform="matrix(5.2632,0,0,5.2632,-1867.9,-731.79)"><g
                                   id="g7866"
                                   transform="scale(19)"><g
                                   id="g7868"
                                   transform="matrix(0.01,0,0,0.01,9.2632,8.0099)"><path
                                   d="m 8.7969,-5.9062 v 0 L 14.594,-29 c 1.073,-4.271 1.609,-7.073 1.609,-8.406 0,-3.063 -1.036,-4.594 -3.109,-4.594 -2.729,0 -4.9586,3.167 -6.6878,9.5 -0.2083,0.729 -0.4114,1.531 -0.6093,2.406 -0.7292,1.459 -1.2969,2.224 -1.7031,2.297 -0.7917,0 -1.1876,-0.333 -1.1876,-1 0,-1.073 0.599,-3.307 1.7969,-6.703 0.4688,-1.198 0.9011,-2.198 1.2969,-3 1.6042,-3.271 3.6042,-5.135 6,-5.594 0.469,-0.073 0.938,-0.109 1.406,-0.109 3.729,0 6.427,1.599 8.094,4.797 0.396,0.739 0.698,1.541 0.906,2.406 0.063,0.135 0.094,0.302 0.094,0.5 3.865,-4.802 8.13,-7.37 12.797,-7.703 3.739,0 6.276,1.302 7.609,3.906 0.459,0.802 0.688,1.667 0.688,2.594 0,2.604 -1.099,4.406 -3.297,5.406 -0.729,0.333 -1.464,0.5 -2.203,0.5 -2.063,0 -3.292,-0.901 -3.688,-2.703 -0.073,-0.271 -0.109,-0.536 -0.109,-0.797 0,-2.198 1.135,-3.833 3.406,-4.906 l 0.094,-0.094 c 0.531,-0.198 1.099,-0.364 1.703,-0.5 l -2,-0.906 c -0.865,-0.136 -1.599,-0.235 -2.203,-0.297 -2.802,0 -5.469,1.099 -8,3.297 -2.063,1.864 -3.828,4.333 -5.297,7.406 -0.135,0.333 -0.234,0.599 -0.297,0.797 l -3.203,13 -4,15.7969 C 13.896,0.036458 12.661,0.96875 10.797,1.0938 9.1302,0.76042 8.1667,-0.13542 7.9062,-1.5938 c 0,0.125 0.2969,-1.3124 0.8907,-4.3124 z"
                                   style="fill:#0000ff;fill-opacity:1;fill-rule:nonzero;stroke:none"
                                   id="path7870" /><g
                                   id="g7872"
                                   transform="matrix(0.7,0,0,0.7,45.1,15)"><path
                                   d="m 44.906,-17.406 v 0 L 42.094,0 H 5 c 0,-1.6667 0.1979,-2.7344 0.5938,-3.2031 l 0.5,-0.5 19.2032,-21.3909 c 7,-7.875 10.5,-15.245 10.5,-22.109 0,-5.927 -1.797,-10.427 -5.391,-13.5 l -0.109,-0.094 h -0.094 c -2.135,-1.802 -4.734,-2.703 -7.797,-2.703 -4.802,0 -8.635,2.068 -11.5,6.203 -0.802,1.198 -1.4685,2.531 -1.9998,4 0.198,-0.073 0.6303,-0.109 1.2968,-0.109 2.667,0 4.365,1.203 5.094,3.609 v 0.094 c 0.135,0.469 0.203,0.969 0.203,1.5 0,2.667 -1.266,4.37 -3.797,5.109 -0.531,0.125 -1,0.188 -1.406,0.188 -2.4689,0 -4.0991,-1.032 -4.8908,-3.094 C 5.1354,-46.729 5,-47.562 5,-48.5 c 0,-5.135 1.9688,-9.536 5.906,-13.203 3.532,-3.261 7.797,-4.891 12.797,-4.891 7.333,0 13.031,2.464 17.094,7.391 2.333,2.864 3.667,6.265 4,10.203 0.073,0.604 0.109,1.203 0.109,1.797 0,4.864 -1.833,9.5 -5.5,13.906 -1.937,2.261 -4.937,5.261 -9,9 l -6.109,5.391 -1,0.906 -10.594,10.2969 h 18 c 5.865,0 9.031,-0.2657 9.5,-0.7969 0.667,-0.9375 1.401,-3.906 2.203,-8.906 z"
                                   style="fill:#0000ff;fill-opacity:1;fill-rule:nonzero;stroke:none"
                                   id="path7874" /><g
                                   id="g7876"
                                   transform="matrix(7.5190075,0,0,7.5190075,-1387.7,-1165.7)"><g
                                   id="g7878"
                                   transform="scale(19)"><g
                                   id="g7880"
                                   transform="matrix(0.01,0,0,0.01,6.5789,6.5889)"><path
                                   d="m 47.703,-23.594 v 0 6.188 c 4.333,-5.396 7.599,-11.995 9.797,-19.797 0.667,-1.333 1.167,-2.031 1.5,-2.094 0.802,0 1.203,0.333 1.203,1 0,1.136 -0.765,3.667 -2.297,7.594 -2.271,5.739 -5.338,11.042 -9.203,15.906 -0.667,1.333 -1,2.5 -1,3.5 0,6.8022 1.034,10.2032 3.102,10.2032 2.067,0 3.731,-1.1666 4.992,-3.5 C 55.995,-5 56.198,-5.4688 56.406,-6 c 0.261,-0.6667 0.693,-1 1.297,-1 0.802,0 1.203,0.3333 1.203,1 0,1.2708 -0.833,2.7708 -2.5,4.5 -1.739,1.72917 -3.708,2.5938 -5.906,2.5938 -4.198,0 -7.099,-2.2969 -8.703,-6.8907 -0.136,-0.4687 -0.266,-0.9687 -0.391,-1.5 -7,5.5938 -14.036,8.3907 -21.109,8.3907 -6.261,0 -10.8595,-2.5 -13.797,-7.5 -1.6042,-2.7292 -2.4062,-5.8598 -2.4062,-9.3908 0,-6.802 2.6041,-13.104 7.8122,-18.906 5.125,-5.729 10.922,-8.859 17.391,-9.391 0.604,-0.073 1.172,-0.109 1.703,-0.109 5.604,0 9.938,2.203 13,6.609 0,0.063 0.031,0.094 0.094,0.094 2.406,3.531 3.609,8.167 3.609,13.906 z M 41,-9.9062 v 0 c -0.135,-1.1248 -0.203,-4.8538 -0.203,-11.1878 0,-8.208 -0.901,-13.812 -2.703,-16.812 -0.792,-1.334 -1.755,-2.334 -2.891,-3 L 35.094,-41 v 0 H 35 c -1.198,-0.667 -2.562,-1 -4.094,-1 -4.739,0 -9.01,2.667 -12.812,8 l -0.797,1.203 c -2.396,3.865 -4.162,9.266 -5.297,16.203 -0.333,1.865 -0.5,3.396 -0.5,4.594 0,5.6042 1.969,9.0729 5.906,10.4062 0.927,0.3334 1.959,0.5 3.094,0.5 6.938,0 13.771,-2.9374 20.5,-8.8124 z"
                                   style="fill:#000000;fill-opacity:1;fill-rule:nonzero;stroke:none"
                                   id="path7882" /><g
                                   id="g7884"
                                   transform="matrix(5.2632,0,0,5.2632,-657.89,-658.89)" /></g></g></g></g></g></g></g></g></g></g></g></g></g></g></g></g></g></g></g></g></g></g></g></g></g></g></g></g></g></g></g></g></g></g></g></g></g></g></g><g
                   id="g7886"
                   transform="scale(0.56693)" /></g></g></g></g></g></g></g></svg>
