<?xml version="1.0" encoding="UTF-8" standalone="no"?>
<svg
   xmlns:dc="http://purl.org/dc/elements/1.1/"
   xmlns:cc="http://creativecommons.org/ns#"
   xmlns:rdf="http://www.w3.org/1999/02/22-rdf-syntax-ns#"
   xmlns:svg="http://www.w3.org/2000/svg"
   xmlns="http://www.w3.org/2000/svg"
   xmlns:sodipodi="http://sodipodi.sourceforge.net/DTD/sodipodi-0.dtd"
   xmlns:inkscape="http://www.inkscape.org/namespaces/inkscape"
   version="1.1"
   id="svg4054"
   xml:space="preserve"
   width="153.33333"
   height="150.66667"
   viewBox="0 0 153.33333 150.66667"
   sodipodi:docname="2020-1206-1240-crop.pdf"><metadata
     id="metadata4060"><rdf:RDF><cc:Work
         rdf:about=""><dc:format>image/svg+xml</dc:format><dc:type
           rdf:resource="http://purl.org/dc/dcmitype/StillImage" /></cc:Work></rdf:RDF></metadata><defs
     id="defs4058"><clipPath
       clipPathUnits="userSpaceOnUse"
       id="clipPath4072"><path
         d="M 0,0 H 181 V 163 H 0 Z"
         id="path4070" /></clipPath><clipPath
       clipPathUnits="userSpaceOnUse"
       id="clipPath4082"><path
         d="M 0,0 H 181 V 163 H 0 Z"
         id="path4080" /></clipPath><clipPath
       clipPathUnits="userSpaceOnUse"
       id="clipPath4094"><path
         d="M 0,0 V 163 H 181 V 0 Z"
         id="path4092" /></clipPath><clipPath
       clipPathUnits="userSpaceOnUse"
       id="clipPath4104"><path
         d="M 0,0 H 320 V 288 H 0 Z"
         id="path4102" /></clipPath></defs><sodipodi:namedview
     pagecolor="#ffffff"
     bordercolor="#666666"
     borderopacity="1"
     objecttolerance="10"
     gridtolerance="10"
     guidetolerance="10"
     inkscape:pageopacity="0"
     inkscape:pageshadow="2"
     inkscape:window-width="640"
     inkscape:window-height="480"
     id="namedview4056" /><g
     id="g4062"
     inkscape:groupmode="layer"
     inkscape:label="2020-1206-1240-crop"
     transform="matrix(1.3333333,0,0,-1.3333333,0,150.66667)"><g
       id="g4064"
       transform="translate(-35,-24)"><g
         id="g4066"><g
           id="g4068"
           clip-path="url(#clipPath4072)"><g
             id="g4074"
             transform="matrix(0.7546,0,0,-0.7546,22.209,143)"><g
               id="g4076"><g
                 id="g4078"
                 clip-path="url(#clipPath4082)"><g
                   id="g4084"><g
                     id="g4086" /></g><g
                   id="g4088"><g
                     id="g4090"
                     clip-path="url(#clipPath4094)"><g
                       id="g4096"
                       transform="scale(0.56693)" /></g></g><g
                   id="g4098"
                   transform="scale(0.56693)"><g
                     id="g4100"
                     clip-path="url(#clipPath4104)"><path
                       d="M 0,0 H 320 V 288 H 0 Z"
                       style="fill:#ffffff;fill-opacity:1;fill-rule:nonzero;stroke:none"
                       id="path4106" /><path
                       d="M 56.246,255.75 H 271.77"
                       style="fill:none;stroke:#000000;stroke-width:1.5;stroke-linecap:round;stroke-linejoin:round;stroke-miterlimit:10;stroke-dasharray:none;stroke-opacity:0.69804"
                       id="path4108" /><path
                       d="M 271.77,255.75 V 40.219"
                       style="fill:none;stroke:#000000;stroke-width:1.5;stroke-linecap:round;stroke-linejoin:round;stroke-miterlimit:10;stroke-dasharray:none;stroke-opacity:0.69804"
                       id="path4110" /><path
                       d="M 271.77,40.219 H 56.246"
                       style="fill:none;stroke:#000000;stroke-width:1.5;stroke-linecap:round;stroke-linejoin:round;stroke-miterlimit:10;stroke-dasharray:none;stroke-opacity:0.69804"
                       id="path4112" /><path
                       d="M 56.246,40.219 V 255.75"
                       style="fill:none;stroke:#000000;stroke-width:1.5;stroke-linecap:round;stroke-linejoin:round;stroke-miterlimit:10;stroke-dasharray:none;stroke-opacity:0.69804"
                       id="path4114" /><path
                       d="M 271.77,94.101 164.01,40.219"
                       style="fill:none;stroke:#ff0000;stroke-width:2.5;stroke-linecap:round;stroke-linejoin:round;stroke-miterlimit:10;stroke-dasharray:none;stroke-opacity:0.69804"
                       id="path4116" /><path
                       d="m 57.246,255.75 c 0,0.55 -0.448,1 -1,1 -0.552,0 -1,-0.45 -1,-1 0,-0.56 0.448,-1 1,-1 0.552,0 1,0.44 1,1 z"
                       style="fill:#000000;fill-opacity:1;fill-rule:nonzero;stroke:none"
                       id="path4118" /><g
                       id="g4120"
                       transform="scale(19)"><g
                         id="g4122"
                         transform="matrix(0.01,0,0,0.01,2.2632,14.525)"><path
                           d="M 16,-7.7969 29.406,-61.5 c 0.261,-1.062 0.391,-1.698 0.391,-1.906 0,-0.792 -0.531,-1.292 -1.594,-1.5 H 28.094 28 c -0.198,0 -0.5,-0.032 -0.906,-0.094 -1.125,-0.135 -2.391,-0.203 -3.797,-0.203 -1.729,0 -2.662,-0.365 -2.797,-1.094 0,-1.198 0.5,-1.864 1.5,-2 h 0.094 0.109 1.203 H 57 c 7.667,0 13.135,2.266 16.406,6.797 1.459,2.135 2.188,4.469 2.188,7 0,5.396 -3,10.094 -9,14.094 -0.063,0 -0.125,0.036 -0.188,0.109 -3.541,2.261 -7.442,3.792 -11.703,4.594 6.802,0.802 11.469,3.469 14,8 1,1.864 1.5,3.901 1.5,6.109 0,4.865 -2.333,9.427 -7,13.6878 l -0.109,0.1093 C 57.365,-2.599 50.531,0 42.594,0 H 6.9062 C 5.2396,0 4.3385,-0.36458 4.2031,-1.0938 c 0,-1.2083 0.5,-1.875 1.5,-2 h 1.2031 c 4.3338,0 6.9328,-0.4687 7.7968,-1.4062 0.396,-0.4688 0.797,-1.401 1.203,-2.7969 0,-0.0729 0.032,-0.2396 0.094,-0.5 z M 31.094,-36.594 h 14.609 c 6.594,0 12.026,-2.401 16.297,-7.203 3,-3.406 4.5,-7.109 4.5,-11.109 0,-4.865 -2,-8.032 -6,-9.5 -1.396,-0.532 -3.031,-0.797 -4.906,-0.797 H 42.703 c -2.406,0 -3.875,0.333 -4.406,1 v 0 0.109 H 38.203 V -64 c -0.271,0.396 -0.573,1.26 -0.906,2.594 z m -4.5,33.5002 h 13.609 c 6.396,0 11.693,-2.401 15.891,-7.2032 3.208,-3.739 4.812,-7.875 4.812,-12.406 0,-4.865 -1.734,-8.297 -5.203,-10.297 -1.739,-0.938 -3.838,-1.406 -6.297,-1.406 H 30.5 L 23.594,-6.5 c -0.334,1.1979 -0.5,1.9635 -0.5,2.2969 0,0.5312 0.302,0.8646 0.906,1 v 0 0 h 0.406 c 0.396,0.0729 1.125,0.1093 2.188,0.1093 z"
                           style="fill:#000000;fill-opacity:1;fill-rule:nonzero;stroke:none"
                           id="path4124" /><g
                           id="g4126"
                           transform="matrix(5.2632,0,0,5.2632,-226.32,-1452.5)"><path
                             d="m 272.77,255.75 c 0,0.55 -0.45,1 -1,1 -0.55,0 -1,-0.45 -1,-1 0,-0.56 0.45,-1 1,-1 0.55,0 1,0.44 1,1 z"
                             style="fill:#000000;fill-opacity:1;fill-rule:nonzero;stroke:none"
                             id="path4128" /><g
                             id="g4130"
                             transform="matrix(0.19,0,0,0.19,262.998,275.975)"><path
                               d="M 76,-69.5 69.703,-44 c -0.333,1.198 -0.667,1.833 -1,1.906 L 68.594,-42 h -0.688 c -1,0 -1.5,-0.333 -1.5,-1 l 0.297,-4.906 v -0.188 c 0,-8.271 -2.599,-13.974 -7.797,-17.109 l -0.109,-0.094 c -2.333,-1.406 -5.068,-2.109 -8.203,-2.109 -7.063,0 -13.761,2.635 -20.094,7.906 -1.604,1.271 -3.036,2.672 -4.297,4.203 -6.333,7.396 -10.234,16.797 -11.703,28.203 -0.271,2.063 -0.406,3.86 -0.406,5.391 0,9.333 3.536,15.6353 10.609,18.9061 2.729,1.2604 5.729,1.89065 9,1.89065 6.261,0 12.391,-2.43225 18.391,-7.29685 C 56.76,-12.13 60.13,-17.396 62.203,-24 c 0.136,-0.667 0.568,-1 1.297,-1 0.802,0 1.203,0.333 1.203,1 0,1.198 -0.765,3.333 -2.297,6.406 -2.073,4.198 -4.974,7.9273 -8.703,11.1878 -6.604,5.73953 -13.807,8.6093 -21.609,8.6093 -8.532,0 -15.365,-2.93227 -20.5,-8.7969 C 7.1979,-11.594 5,-17.797 5,-25.203 c 0,-9.927 3.6354,-19.224 10.906,-27.891 6.729,-8.073 14.693,-13.406 23.891,-16 3.406,-0.937 6.739,-1.406 10,-1.406 7.271,0 12.807,2.969 16.609,8.906 l 7,-7.703 c 0.792,-0.802 1.292,-1.203 1.5,-1.203 0.729,0 1.094,0.333 1.094,1 z"
                               style="fill:#000000;fill-opacity:1;fill-rule:nonzero;stroke:none"
                               id="path4132" /><g
                               id="g4134"
                               transform="matrix(5.2632,0,0,5.2632,-1384.2,-1452.5)"><path
                                 d="m 272.77,40.219 c 0,0.553 -0.45,1 -1,1 -0.55,0 -1,-0.447 -1,-1 0,-0.552 0.45,-1 1,-1 0.55,0 1,0.448 1,1 z"
                                 style="fill:#000000;fill-opacity:1;fill-rule:nonzero;stroke:none"
                                 id="path4136" /><g
                                 id="g4138"
                                 transform="matrix(0.19,0,0,0.19,264.993,29.9763)"><path
                                   d="m 30.297,-32.5 -6.203,24.9062 c -0.261,1 -0.391,1.7657 -0.391,2.2969 0,0.9271 0.432,1.4948 1.297,1.7031 0.469,0.125 1.104,0.224 1.906,0.2969 1.667,0.1354 3.396,0.2031 5.188,0.2031 1.666,0 2.604,0.0313 2.812,0.0938 l 0.5,0.7031 C 35.469,-2.1615 35.5,-2.0312 35.5,-1.9062 35.5,-0.63542 34.802,0 33.406,0 L 18.594,-0.29688 H 18.5 L 5.4062,0 H 5.2969 c -1,0 -1.5,-0.40104 -1.5,-1.2031 0,-1.1354 0.5364,-1.7657 1.6093,-1.8907 h 1.1876 c 4.3332,0 6.9372,-0.4687 7.8122,-1.4062 0.396,-0.4688 0.792,-1.401 1.188,-2.7969 0,-0.0729 0.036,-0.2396 0.109,-0.5 L 28.906,-60.703 c 0.334,-1.198 0.5,-1.995 0.5,-2.391 0,-1.135 -1.536,-1.739 -4.609,-1.812 h -0.094 -1.797 c -1.739,0 -2.677,-0.365 -2.812,-1.094 0,-1.198 0.536,-1.865 1.609,-2 h 1.391 49 c 1.604,0 2.474,0.234 2.609,0.703 h 0.094 c 0.135,0.396 0.135,1.063 0,2 l -2,17.297 c -0.469,1.531 -0.932,2.365 -1.391,2.5 -0.802,0 -1.203,-0.401 -1.203,-1.203 0,-0.333 0.068,-0.932 0.203,-1.797 0.198,-1.802 0.297,-3.604 0.297,-5.406 0,-4.459 -1.135,-7.422 -3.406,-8.891 l -0.094,-0.109 c -2.135,-1.334 -5.838,-2 -11.109,-2 H 42.906 c -2.468,0 -3.937,0.37 -4.406,1.109 h -0.094 v 0.094 c -0.208,0.271 -0.375,0.672 -0.5,1.203 v 0.094 l -0.109,0.109 c -0.063,0.261 -0.162,0.693 -0.297,1.297 l -6.406,25.406 h 9.109 c 4.865,0 8.13,-0.901 9.797,-2.703 l 0.094,-0.109 c 1.135,-1.261 2.135,-3.526 3,-6.797 0.333,-1.261 0.833,-1.958 1.5,-2.094 0.739,0 1.14,0.365 1.203,1.094 0,0.333 -0.099,0.87 -0.297,1.609 L 50,-22.906 c -0.667,1.333 -1.167,2.036 -1.5,2.109 -0.802,0 -1.203,-0.401 -1.203,-1.203 0,-0.271 0.099,-0.635 0.297,-1.094 0.468,-2 0.703,-3.635 0.703,-4.906 0,-1.938 -0.735,-3.203 -2.203,-3.797 v 0 C 44.833,-32.266 42.802,-32.5 40,-32.5 Z"
                                   style="fill:#000000;fill-opacity:1;fill-rule:nonzero;stroke:none"
                                   id="path4140" /><g
                                   id="g4142"
                                   transform="matrix(5.2632,0,0,5.2632,-1394.7,-157.77)"><path
                                   d="m 57.246,40.219 c 0,0.553 -0.448,1 -1,1 -0.552,0 -1,-0.447 -1,-1 0,-0.552 0.448,-1 1,-1 0.552,0 1,0.448 1,1 z"
                                   style="fill:#000000;fill-opacity:1;fill-rule:nonzero;stroke:none"
                                   id="path4144" /><g
                                   id="g4146"
                                   transform="matrix(0.19,0,0,0.19,46.0009,29.9763)"><path
                                   d="m 17.906,-11.5 34.797,-58.406 c 0.667,-1.063 1.531,-1.625 2.594,-1.688 1,0 1.568,0.334 1.703,1 0.062,0.198 0.13,0.662 0.203,1.391 l 6.094,62.4999 c 0.198,1.6666 0.599,2.6666 1.203,3 h 0.094 v 0 0 0 0.1093 c 0.802,0.3334 2.536,0.5 5.203,0.5 1.469,0 2.234,0.3646 2.297,1.0938 0,1.33333 -0.599,2 -1.797,2 L 59.094,-0.29688 H 59 L 46.594,0 H 46.5 c -0.938,0 -1.406,-0.36458 -1.406,-1.0938 0.541,-1.2708 1.344,-1.9374 2.406,-2 4.802,0 7.203,-1.1041 7.203,-3.3124 0,0.0729 -0.536,-5.4898 -1.609,-16.6878 H 28 l -7.594,12.797 C 19.469,-8.6302 19,-7.3958 19,-6.5938 c 0,2.0626 1.568,3.2292 4.703,3.5 1.063,0 1.594,0.3959 1.594,1.1876 C 25.297,-0.63542 24.667,0 23.406,0 L 13.797,-0.29688 H 13.406 L 5,0 H 4.7969 C 3.9323,0 3.5,-0.36458 3.5,-1.0938 3.5,-2.3021 4,-2.9375 5,-3 V -3.0938 H 5.5938 C 9.8021,-3.3646 13.24,-5.1667 15.906,-8.5 c 0.667,-0.8646 1.334,-1.865 2,-3 z m 12,-14.703 h 22.891 l -3.203,-33 z"
                                   style="fill:#000000;fill-opacity:1;fill-rule:nonzero;stroke:none"
                                   id="path4148" /><g
                                   id="g4150"
                                   transform="matrix(5.2632,0,0,5.2632,-242.11,-157.77)"><path
                                   d="m 165.01,40.219 c 0,0.553 -0.45,1 -1,1 -0.55,0 -1,-0.447 -1,-1 0,-0.552 0.45,-1 1,-1 0.55,0 1,0.448 1,1 z"
                                   style="fill:#000000;fill-opacity:1;fill-rule:nonzero;stroke:none"
                                   id="path4152" /><g
                                   id="g4154"
                                   transform="matrix(0.19,0,0,0.19,158.0002,30.9776)"><path
                                   d="m 70.797,-23.297 v 0 l -9.203,21.5939 c -0.396,0.93748 -0.86,1.47393 -1.391,1.60935 v 0 H 60.094 C 59.833,-0.03125 59.302,0 58.5,0 H 6.5938 C 4.9271,0 4.0312,-0.26562 3.9062,-0.79688 3.8333,-0.86979 3.7969,-1.0052 3.7969,-1.2031 c 0,-1.1354 0.5364,-1.7657 1.6093,-1.8907 h 1.1876 c 4.3332,0 6.9372,-0.4687 7.8122,-1.4062 0.396,-0.4688 0.792,-1.401 1.188,-2.7969 0,-0.0729 0.036,-0.2396 0.109,-0.5 L 28.906,-60.703 c 0.334,-1.198 0.5,-1.995 0.5,-2.391 0,-1.135 -1.536,-1.739 -4.609,-1.812 h -0.094 -1.797 c -1.739,0 -2.677,-0.365 -2.812,-1.094 0,-1.198 0.536,-1.865 1.609,-2 h 1.391 50.5 c 1.604,0 2.474,0.234 2.609,0.703 h 0.094 c 0.135,0.396 0.135,1.063 0,2 l -2,17.297 c -0.469,1.531 -0.932,2.365 -1.391,2.5 -0.802,0 -1.203,-0.401 -1.203,-1.203 l 0.094,-1.703 V -48.5 c 0.271,-1.802 0.406,-3.568 0.406,-5.297 0,-4.667 -1.302,-7.734 -3.906,-9.203 C 66.099,-64.271 62.333,-64.906 57,-64.906 H 42.906 c -2.468,0 -3.937,0.37 -4.406,1.109 h -0.094 v 0.094 c -0.208,0.271 -0.375,0.672 -0.5,1.203 v 0.094 l -0.109,0.109 c -0.063,0.261 -0.162,0.693 -0.297,1.297 l -6,24.094 h 9.406 c 5.063,0 8.427,-1 10.094,-3 1.062,-1.261 2.062,-3.558 3,-6.891 0.271,-1.135 0.74,-1.734 1.406,-1.797 0.792,0 1.188,0.365 1.188,1.094 l -5.688,23.406 c -0.333,1.261 -0.833,1.927 -1.5,2 -0.875,0 -1.312,-0.37 -1.312,-1.109 0,-0.261 0.104,-0.625 0.312,-1.094 0.459,-2 0.688,-3.635 0.688,-4.906 0,-1.802 -0.5,-2.969 -1.5,-3.5 -1.261,-0.729 -3.594,-1.094 -7,-1.094 H 30.703 L 23.906,-6.5 c -0.333,1.1979 -0.5,1.9635 -0.5,2.2969 0,0.5312 0.297,0.8646 0.891,1 v 0 0 h 0.406 c 0.396,0.0729 1.13,0.1093 2.203,0.1093 H 41.5 c 8.135,0 14.135,-1.8697 18,-5.6093 2.531,-2.3959 5.297,-6.8959 8.297,-13.4999 0.271,-0.729 0.604,-1.526 1,-2.391 0.271,-0.802 0.703,-1.203 1.297,-1.203 0.802,0 1.203,0.365 1.203,1.094 0,0.073 -0.167,0.542 -0.5,1.406 z"
                                   style="fill:#000000;fill-opacity:1;fill-rule:nonzero;stroke:none"
                                   id="path4156" /><g
                                   id="g4158"
                                   transform="matrix(5.2632,0,0,5.2632,-831.58,-163.04)"><path
                                   d="m 272.77,94.101 c 0,0.552 -0.45,1 -1,1 -0.55,0 -1,-0.448 -1,-1 0,-0.552 0.45,-1 1,-1 0.55,0 1,0.448 1,1 z"
                                   style="fill:#000000;fill-opacity:1;fill-rule:nonzero;stroke:none"
                                   id="path4160" /><g
                                   id="g4162"
                                   transform="matrix(0.19,0,0,0.19,278.008,103.9775)"><path
                                   d="m 15.906,-7.7969 v 0 L 29.297,-61.5 c 0.271,-1.062 0.406,-1.698 0.406,-1.906 0,-0.792 -0.536,-1.292 -1.609,-1.5 H 28 v 0 C 27.865,-64.969 27.698,-65 27.5,-65 c -1.604,-0.135 -3.036,-0.203 -4.297,-0.203 -1.739,0 -2.672,-0.266 -2.797,-0.797 -0.073,-0.135 -0.109,-0.271 -0.109,-0.406 0,-1.125 0.568,-1.755 1.703,-1.891 v 0 h 1.297 33.609 c 8.667,0 15.13,3.365 19.391,10.094 2.739,4.271 4.109,9.338 4.109,15.203 0,9.667 -3.37,18.698 -10.109,27.094 C 63.901,-8.1042 56.37,-3.1354 47.703,-1 45.099,-0.33333 42.5,0 39.906,0 H 6.7969 C 5.1302,0 4.2292,-0.26562 4.0938,-0.79688 4.0312,-0.86979 4,-1.0052 4,-1.2031 4,-2.3385 4.5312,-2.9688 5.5938,-3.0938 h 1.2031 c 4.3331,0 6.9321,-0.4687 7.7971,-1.4062 0.406,-0.4688 0.807,-1.401 1.203,-2.7969 0,-0.0729 0.036,-0.2396 0.109,-0.5 z M 37.5,-61.406 23.797,-6.5 c -0.333,1.1979 -0.5,1.9635 -0.5,2.2969 0,0.5312 0.302,0.8646 0.906,1 v 0 0 h 0.391 c 0.406,0.0729 1.14,0.1093 2.203,0.1093 h 11.297 c 8.271,0 15.406,-3.1041 21.406,-9.3122 0.604,-0.667 1.172,-1.334 1.703,-2 5.333,-6.927 8.698,-15.99 10.094,-27.188 0.271,-2.073 0.406,-3.776 0.406,-5.109 0,-8.927 -3.5,-14.662 -10.5,-17.203 -2.271,-0.865 -4.807,-1.297 -7.609,-1.297 H 42.906 c -2.406,0 -3.875,0.333 -4.406,1 v 0 0.109 H 38.406 V -64 c -0.271,0.396 -0.573,1.26 -0.906,2.594 z"
                                   style="fill:#000000;fill-opacity:1;fill-rule:nonzero;stroke:none"
                                   id="path4164" /><g
                                   id="g4166"
                                   transform="matrix(5.2632,0,0,5.2632,-1463.2,-547.25)"><path
                                   d="m 227.71,71.572 c 0,0.552 -0.44,1 -1,1 -0.55,0 -1,-0.448 -1,-1 0,-0.553 0.45,-1 1,-1 0.56,0 1,0.447 1,1 z"
                                   style="fill:#000000;fill-opacity:1;fill-rule:nonzero;stroke:none"
                                   id="path4168" /><g
                                   id="g4170"
                                   transform="matrix(0.19,0,0,0.19,204.991,94.9772)"><path
                                   d="m 30.297,-31.594 v 0 l -6.203,25.0002 -0.297,1.6876 c 0,1.1354 1.536,1.7395 4.609,1.8124 v 0 0 h 1.891 c 1.739,0 2.672,0.3646 2.797,1.0938 0,1.33333 -0.667,2 -2,2 L 24.703,-0.20312 H 24.594 L 18.406,-0.29688 H 18.203 L 5.5938,0 H 5.5 C 4.5,0 4,-0.40104 4,-1.2031 4,-2.3385 4.5312,-2.9688 5.5938,-3.0938 h 1.2031 c 4.3331,0 6.9321,-0.4687 7.7971,-1.4062 0.406,-0.4688 0.807,-1.401 1.203,-2.7969 0,-0.0729 0.036,-0.2396 0.109,-0.5 L 29.297,-61.5 c 0.271,-1.062 0.406,-1.698 0.406,-1.906 0,-0.792 -0.536,-1.292 -1.609,-1.5 H 28 v 0 C 27.865,-64.969 27.698,-65 27.5,-65 c -1.604,-0.135 -3.036,-0.203 -4.297,-0.203 -1.739,0 -2.672,-0.266 -2.797,-0.797 -0.073,-0.135 -0.109,-0.271 -0.109,-0.406 0,-1.125 0.568,-1.755 1.703,-1.891 v 0 h 1.297 32.406 c 8.063,0 13.828,2.464 17.297,7.391 1.604,2.333 2.406,4.901 2.406,7.703 0,5.406 -2.771,10.307 -8.312,14.703 -5.865,4.604 -12.464,6.906 -19.797,6.906 z m 7.203,-29.812 -6.797,27.203 h 14.094 c 6.333,0 11.469,-1.766 15.406,-5.297 2.729,-2.531 4.594,-6.766 5.594,-12.703 v -0.094 c 0.198,-1.271 0.297,-2.37 0.297,-3.297 0,-6.406 -4.532,-9.609 -13.594,-9.609 h -9.594 c -2.406,0 -3.875,0.333 -4.406,1 v 0 0.109 H 38.406 V -64 c -0.271,0.396 -0.573,1.26 -0.906,2.594 z"
                                   style="fill:#000000;fill-opacity:1;fill-rule:nonzero;stroke:none"
                                   id="path4172" /><g
                                   id="g4174"
                                   transform="matrix(5.2632,0,0,5.2632,-1078.9,-499.88)"><path
                                   d="m 57.246,71.572 c 0,0.552 -0.448,1 -1,1 -0.552,0 -1,-0.448 -1,-1 0,-0.553 0.448,-1 1,-1 0.552,0 1,0.447 1,1 z"
                                   style="fill:#000000;fill-opacity:1;fill-rule:nonzero;stroke:none"
                                   id="path4176" /><g
                                   id="g4178"
                                   transform="matrix(0.19,0,0,0.19,29.9991,77.9779)"><path
                                   d="M 92.594,-60.594 79.297,-7.2969 c -0.333,1.1979 -0.5,1.9948 -0.5,2.3907 0,1.1354 1.568,1.7395 4.703,1.8124 h 0.094 1.703 c 1.739,0 2.672,0.3646 2.797,1.0938 0,1.33333 -0.63,2 -1.891,2 L 73.797,-0.29688 H 73.703 L 61.406,0 h -0.109 c -1,0 -1.5,-0.40104 -1.5,-1.2031 0,-1.1354 0.536,-1.7657 1.609,-1.8907 h 1.188 c 4.333,0 6.937,-0.4687 7.812,-1.4062 0.396,-0.4688 0.792,-1.401 1.188,-2.7969 0,-0.0729 0.036,-0.2396 0.109,-0.5 L 86,-65.094 H 85.906 L 45.5,-1.7969 C 44.698,-0.66146 43.964,-0.0625 43.297,0 42.568,0 42.068,-0.76562 41.797,-2.2969 L 33.203,-64.297 H 33.094 L 19.5,-9.7969 c -0.271,1 -0.406,1.7657 -0.406,2.2969 0,2.4688 1.604,3.901 4.812,4.2969 0.594,0.0729 1.261,0.1093 2,0.1093 1.198,0 1.797,0.3646 1.797,1.0938 0,1.33333 -0.599,2 -1.797,2 l -10,-0.29688 H 15.594 L 5.7031,0 H 5.5938 C 4.6667,0 4.2031,-0.40104 4.2031,-1.2031 c 0,-1.2604 0.599,-1.8907 1.7969,-1.8907 5.271,-0.2083 8.604,-1.875 10,-5 0.271,-0.6666 0.536,-1.5 0.797,-2.5002 L 29.5,-61.5 c 0.271,-1.062 0.406,-1.698 0.406,-1.906 0,-0.792 -0.536,-1.292 -1.609,-1.5 h -0.094 v 0 C 28.068,-64.969 27.901,-65 27.703,-65 c -1.604,-0.135 -3.036,-0.203 -4.297,-0.203 -1.739,0 -2.677,-0.266 -2.812,-0.797 -0.063,-0.135 -0.094,-0.271 -0.094,-0.406 0,-1.125 0.568,-1.755 1.703,-1.891 v 0 H 23.5 37.203 c 1.531,0 2.432,0.167 2.703,0.5 v 0.094 c 0.125,0.271 0.255,0.838 0.391,1.703 l 7.797,56.5938 36.5,-56.9998 c 0.739,-1.125 1.406,-1.724 2,-1.797 0.271,-0.063 0.906,-0.094 1.906,-0.094 h 13.2 c 1.67,0 2.57,0.365 2.71,1.094 0,1.135 -0.47,1.771 -1.41,1.906 -0.33,0.063 -0.93,0.094 -1.8,0.094 -4.195,0 -6.695,0.536 -7.497,1.609 l -0.109,0.094 v 0.094 c -0.334,0.468 -0.667,1.406 -1,2.812 z"
                                   style="fill:#000000;fill-opacity:1;fill-rule:nonzero;stroke:none"
                                   id="path4180" /><g
                                   id="g4182"
                                   transform="matrix(5.2632,0,0,5.2632,-157.89,-410.41)"><path
                                   d="m 227.71,40.219 c 0,0.553 -0.44,1 -1,1 -0.55,0 -1,-0.447 -1,-1 0,-0.552 0.45,-1 1,-1 0.56,0 1,0.448 1,1 z"
                                   style="fill:#000000;fill-opacity:1;fill-rule:nonzero;stroke:none"
                                   id="path4184" /><g
                                   id="g4186"
                                   transform="matrix(0.19,0,0,0.19,221.008,28.9769)"><path
                                   d="M 76,-69.5 69.703,-44 c -0.333,1.198 -0.667,1.833 -1,1.906 L 68.594,-42 h -0.688 c -1,0 -1.5,-0.333 -1.5,-1 l 0.297,-4.906 v -0.188 c 0,-8.271 -2.599,-13.974 -7.797,-17.109 l -0.109,-0.094 c -2.333,-1.406 -5.068,-2.109 -8.203,-2.109 -7.125,0 -13.891,2.703 -20.297,8.109 -1.802,1.469 -3.37,3.068 -4.703,4.797 -6.396,7.865 -10.162,17.531 -11.297,29 -0.136,1.396 -0.203,2.594 -0.203,3.594 0,9.135 3.468,15.406 10.406,18.8122 2.938,1.4584 6.172,2.18755 9.703,2.18755 5.667,0 10.365,-1.43225 14.094,-4.29685 2.667,-2 4.401,-4.599 5.203,-7.7969 1.396,-5.198 2.094,-8.232 2.094,-9.102 0,-0.869 -0.5,-1.434 -1.5,-1.695 C 53.76,-23.87 53.229,-23.938 52.5,-24 c -1.531,-0.135 -3.297,-0.203 -5.297,-0.203 -1.802,0 -2.771,-0.198 -2.906,-0.594 -0.063,-0.073 -0.094,-0.239 -0.094,-0.5 0,-1.333 0.698,-2 2.094,-2 L 60.203,-27 h 0.094 l 10.406,-0.297 h 0.094 c 0.864,0 1.297,0.365 1.297,1.094 0,1.333 -0.532,2 -1.594,2 -3.062,0.073 -4.896,0.406 -5.5,1 -0.396,0.469 -0.865,1.734 -1.406,3.797 0,-0.125 -0.334,1.177 -1,3.906 -0.125,0.469 -0.224,0.87 -0.297,1.203 l -1.891,7.7032 c -0.937,3.8646 -1.505,5.89588 -1.703,6.0938 0,0.27083 -0.234,0.40625 -0.703,0.40625 -0.729,0 -1.865,-1.27085 -3.406,-3.81245 -0.459,-0.8646 -0.823,-1.6615 -1.094,-2.3907 -2.271,2.5313 -4.839,4.4323 -7.703,5.70315 l -1,0.39063 C 40.932,1.401 36.766,2.2031 32.297,2.2031 c -9,0 -16.068,-3.13539 -21.203,-9.4062 C 7.0312,-12.13 5,-18.13 5,-25.203 c 0,-9.927 3.6354,-19.224 10.906,-27.891 6.729,-8.073 14.693,-13.406 23.891,-16 3.406,-0.937 6.739,-1.406 10,-1.406 7.271,0 12.807,2.969 16.609,8.906 l 7,-7.703 c 0.792,-0.802 1.292,-1.203 1.5,-1.203 0.729,0 1.094,0.333 1.094,1 z"
                                   style="fill:#000000;fill-opacity:1;fill-rule:nonzero;stroke:none"
                                   id="path4188" /><g
                                   id="g4190"
                                   transform="matrix(5.2632,0,0,5.2632,-1163.2,-152.51)"><path
                                   d="m 272.77,71.572 c 0,0.552 -0.45,1 -1,1 -0.55,0 -1,-0.448 -1,-1 0,-0.553 0.45,-1 1,-1 0.55,0 1,0.447 1,1 z"
                                   style="fill:#000000;fill-opacity:1;fill-rule:nonzero;stroke:none"
                                   id="path4192" /><g
                                   id="g4194"
                                   transform="matrix(0.19,0,0,0.19,280.003,76.9766)"><path
                                   d="m 76.297,-60.594 -13.5,54.0002 -0.297,1.6876 c 0,1.1354 1.568,1.7395 4.703,1.8124 H 67.297 69 c 1.729,0 2.661,0.3646 2.797,1.0938 0,1.33333 -0.667,2 -2,2 L 63.406,-0.20312 H 63.297 L 57.094,-0.29688 H 56.906 L 44.297,0 h -0.094 c -0.937,0 -1.406,-0.36458 -1.406,-1.0938 0,-1.2083 0.469,-1.875 1.406,-2 v 0 0 h 1 c 4.198,0 6.766,-0.3333 7.703,-1 L 53,-4.2031 c 0.531,-0.4688 0.964,-1.2031 1.297,-2.2031 L 61.203,-34 h -30.5 l -6.797,27.4062 -0.312,1.6876 c 0,1.1354 1.536,1.7395 4.609,1.8124 v 0 0 h 1.891 c 1.739,0 2.677,0.3646 2.812,1.0938 0,1.33333 -0.666,2 -2,2 L 24.5,-0.20312 H 24.406 L 18.203,-0.29688 H 18 L 5.4062,0 H 5.2969 C 4.3698,0 3.9062,-0.36458 3.9062,-1.0938 c 0,-1.2083 0.5,-1.875 1.5,-2 h 1.1876 c 4.3332,0 6.9372,-0.4687 7.8122,-1.4062 0.396,-0.4688 0.792,-1.401 1.188,-2.7969 0,-0.0729 0.036,-0.2396 0.109,-0.5 L 29.094,-61.5 c 0.271,-1.062 0.406,-1.698 0.406,-1.906 0,-0.792 -0.531,-1.292 -1.594,-1.5 h -0.109 -0.094 c -0.198,0 -0.5,-0.032 -0.906,-0.094 -1.136,-0.135 -2.401,-0.203 -3.797,-0.203 -1.729,0 -2.661,-0.365 -2.797,-1.094 0,-1.333 0.63,-2 1.891,-2 L 34.906,-68 H 35 l 12.703,-0.297 h 0.094 c 0.937,0 1.406,0.365 1.406,1.094 0,1.135 -0.469,1.771 -1.406,1.906 h -0.094 v 0 0 l -0.109,0.094 h -1.797 c -4.063,0 -6.495,0.568 -7.297,1.703 h -0.094 v 0.094 c -0.333,0.468 -0.666,1.406 -1,2.812 l -5.906,23.5 H 62 L 68,-61.5 c 0.271,-1.135 0.406,-1.771 0.406,-1.906 0,-0.792 -0.536,-1.292 -1.609,-1.5 -0.198,0 -0.563,-0.032 -1.094,-0.094 -1.135,-0.135 -2.401,-0.203 -3.797,-0.203 -1.739,0 -2.677,-0.365 -2.812,-1.094 0,-1.333 0.635,-2 1.906,-2 L 73.797,-68 h 0.109 l 12.688,-0.297 h 0.109 c 0.927,0 1.391,0.365 1.391,1.094 0,1.135 -0.464,1.771 -1.391,1.906 h -0.109 c -0.334,0.063 -0.964,0.094 -1.891,0.094 -4.073,0 -6.505,0.536 -7.297,1.609 -0.333,0.459 -0.703,1.459 -1.109,3 z"
                                   style="fill:#000000;fill-opacity:1;fill-rule:nonzero;stroke:none"
                                   id="path4196" /><g
                                   id="g4198"
                                   transform="matrix(5.2632,0,0,5.2632,-1473.7,-405.14)"><path
                                   d="m 227.71,255.75 c 0,0.55 -0.44,1 -1,1 -0.55,0 -1,-0.45 -1,-1 0,-0.56 0.45,-1 1,-1 0.56,0 1,0.44 1,1 z"
                                   style="fill:#000000;fill-opacity:1;fill-rule:nonzero;stroke:none"
                                   id="path4200" /><g
                                   id="g4202"
                                   transform="matrix(0.19,0,0,0.19,216.999,275.975)"><path
                                   d="m 75.594,-57.797 -14,55.7032 c -0.334,1.26047 -0.667,1.92713 -1,2.00005 L 60.5,0 H 60 C 59.333,0 58.802,-0.40104 58.406,-1.2031 58.333,-1.401 58.229,-1.6354 58.094,-1.9062 L 33.203,-60.797 32.297,-62.594 19.094,-9.7969 c -0.261,1 -0.391,1.7657 -0.391,2.2969 0,2.2708 1.432,3.6719 4.297,4.2031 0.667,0.1354 1.432,0.2031 2.297,0.2031 1.333,0 2,0.3646 2,1.0938 0,1.33333 -0.599,2 -1.797,2 l -10,-0.29688 H 15.203 L 5.2969,0 H 5.2031 C 4.3385,0 3.9062,-0.36458 3.9062,-1.0938 c 0,-1.3333 0.5626,-2 1.6876,-2 5.2712,-0.2083 8.6042,-1.875 10.0002,-5 0.271,-0.6666 0.541,-1.5 0.812,-2.5002 l 13.391,-53.703 c 0,-0.604 -2.266,-0.906 -6.797,-0.906 -1.729,0 -2.661,-0.365 -2.797,-1.094 0,-1.198 0.5,-1.864 1.5,-2 H 23.094 36.5 c 1.396,0 2.26,0.235 2.594,0.703 0.135,0.198 0.338,0.594 0.609,1.188 L 61.797,-14.203 73,-58.703 c 0.198,-0.594 0.297,-1.292 0.297,-2.094 0,-2.864 -2.266,-4.333 -6.797,-4.406 -1.198,0 -1.797,-0.365 -1.797,-1.094 0,-1.333 0.599,-2 1.797,-2 L 76.594,-68 h 0.109 l 10,-0.297 h 0.094 c 0.864,0 1.297,0.365 1.297,1.094 0,1.333 -0.563,2 -1.688,2 -5.208,0.198 -8.541,1.833 -10,4.906 v 0 c -0.271,0.667 -0.541,1.5 -0.812,2.5 z"
                                   style="fill:#000000;fill-opacity:1;fill-rule:nonzero;stroke:none"
                                   id="path4204" /><g
                                   id="g4206"
                                   transform="matrix(5.2632,0,0,5.2632,-1142.1,-1452.5)"><path
                                   d="m 230,51 c 0,4.418 -3.58,8 -8,8 -4.42,0 -8,-3.582 -8,-8 0,-4.418 3.58,-8 8,-8 4.42,0 8,3.582 8,8 z"
                                   style="fill:#00ff00;fill-opacity:1;fill-rule:nonzero;stroke:none"
                                   id="path4208" /><path
                                   d="m 265,67 c 0,4.971 -4.03,9 -9,9 -4.97,0 -9,-4.029 -9,-9 0,-4.971 4.03,-9 9,-9 4.97,0 9,4.029 9,9 z"
                                   style="fill:#00ff00;fill-opacity:1;fill-rule:nonzero;stroke:none"
                                   id="path4210" /><path
                                   d="m 255,56 c 0,2.761 -2.24,5 -5,5 -2.76,0 -5,-2.239 -5,-5 0,-2.761 2.24,-5 5,-5 2.76,0 5,2.239 5,5 z"
                                   style="fill:#00ff00;fill-opacity:1;fill-rule:nonzero;stroke:none"
                                   id="path4212" /><g
                                   id="g4214"
                                   transform="scale(19)"><g
                                   id="g4216"
                                   transform="matrix(0.01,0,0,0.01,7.1579,4.7468)"><path
                                   d="M 33.406,-30.203 30,-16.5 c -1.135,4.531 -1.703,7.4635 -1.703,8.7969 0,3.4687 1.234,5.5677 3.703,6.2969 0.531,0.2083 1.13,0.3124 1.797,0.3124 3.333,0 6.37,-1.6666 9.109,-5 1.792,-2.1354 3.188,-4.8382 4.188,-8.1092 0.208,-0.729 0.646,-1.094 1.312,-1.094 0.792,0 1.188,0.333 1.188,1 0,1.667 -1.032,4.068 -3.094,7.2032 -3.604,5.4584 -7.906,8.1876 -12.906,8.1876 -4.532,0 -7.828,-1.89588 -9.891,-5.6876 -0.406,-0.6041 -0.708,-1.2395 -0.906,-1.9062 -1.594,3.1979 -3.792,5.4323 -6.594,6.70312 -1.271,0.59376 -2.573,0.89068 -3.906,0.89068 -4.0001,0 -6.797,-1.166717 -8.3908,-3.5 -0.6666,-0.8646 -1,-1.8959 -1,-3.0938 0,-2.4688 1.0626,-4.2031 3.1876,-5.203 0.7395,-0.396 1.5104,-0.594 2.3124,-0.594 1.9998,0 3.1978,0.833 3.5938,2.5001 0.062,0.3334 0.094,0.6667 0.094,1 0,2.2604 -1.13,3.9271 -3.3909,5 -0.4062,0.1979 -0.8385,0.3281 -1.2969,0.3907 1.3959,0.875 3.0628,1.3124 4.9998,1.3124 3.532,0 6.328,-2.3697 8.391,-7.1093 0.406,-1 0.776,-2.0989 1.109,-3.2969 3.594,-13.604 5.391,-21.536 5.391,-23.797 -0.396,-4.135 -2.193,-6.37 -5.391,-6.703 -3.468,0 -6.635,1.766 -9.5,5.297 v 0.109 c 0,0.063 -0.036,0.094 -0.109,0.094 -1,1.333 -1.901,2.865 -2.7032,4.594 -0.3334,0.802 -0.6303,1.604 -0.8907,2.406 L 8.5,-28.906 c -0.1354,0.739 -0.5677,1.109 -1.2969,1.109 -0.8021,0 -1.2031,-0.333 -1.2031,-1 0,-1.667 1.0677,-4.068 3.2031,-7.203 3.5939,-5.469 7.8909,-8.203 12.8909,-8.203 5.135,0 8.739,2.536 10.812,7.609 2.125,-4.135 4.959,-6.604 8.5,-7.406 0.667,-0.135 1.334,-0.203 2,-0.203 3.927,0 6.693,1.099 8.297,3.297 0.667,0.937 1,2.041 1,3.312 0,2.729 -1.234,4.563 -3.703,5.5 -0.604,0.198 -1.172,0.297 -1.703,0.297 -2.063,0 -3.297,-0.901 -3.703,-2.703 -0.063,-0.271 -0.094,-0.536 -0.094,-0.797 0,-2 0.969,-3.568 2.906,-4.703 0.594,-0.333 1.224,-0.568 1.891,-0.703 -1.396,-0.865 -3.063,-1.297 -5,-1.297 -4.531,0 -7.729,3.531 -9.594,10.594 -0.135,0.406 -0.234,0.807 -0.297,1.203 z"
                                   style="fill:#000000;fill-opacity:1;fill-rule:nonzero;stroke:none"
                                   id="path4218" /><g
                                   id="g4220"
                                   transform="matrix(1.000008,0,0,1.000008,389.51884,463.1675)"><path
                                   d="M 48.594,-38.094 39,0.09375 C 37.396,6.6354 33.828,11.938 28.297,16 24.234,19 20,20.5 15.594,20.5 11.135,20.5 7.9688,18.969 6.0938,15.906 5.3646,14.635 5,13.266 5,11.797 5,8.401 6.3646,6.3021 9.0938,5.5 9.6354,5.3646 10.135,5.2969 10.594,5.2969 c 2.135,0 3.338,0.9323 3.609,2.7969 0.063,0.2083 0.094,0.4427 0.094,0.7031 0,1.5311 -0.667,2.9011 -2,4.1091 -0.927,0.792 -2.3595,1.188 -4.297,1.188 1.1979,2.802 3.729,4.203 7.594,4.203 4.135,0 7.802,-2.099 11,-6.297 2.604,-3.4688 4.672,-8.1667 6.203,-14.0938 0.073,-0.2708 0.172,-0.7083 0.297,-1.3124 -3,2.99995 -6.365,4.5 -10.094,4.5 -5.333,0 -8.969,-1.96359 -10.906,-5.8907 -0.865,-1.7396 -1.297,-3.7396 -1.297,-6.0001 0,-3.667 1.765,-10.234 5.297,-19.703 0.135,-0.396 0.302,-0.828 0.5,-1.297 1.135,-3.073 1.703,-5.406 1.703,-7 0,-2.135 -0.833,-3.203 -2.5,-3.203 -3.667,0 -6.6668,3.031 -9.0001,9.094 v 0.109 c -0.3959,1 -0.7604,2.068 -1.0938,3.203 -0.7396,1.125 -1.276,1.724 -1.6093,1.797 -0.7917,0 -1.1876,-0.333 -1.1876,-1 0,-1.198 0.698,-3.297 2.0938,-6.297 2.9375,-6.073 6.635,-9.109 11.094,-9.109 3.541,0 6.01,1.5 7.406,4.5 0.531,1.135 0.797,2.37 0.797,3.703 0,1.396 -0.667,3.797 -2,7.203 -3.396,8.802 -5.094,15.333 -5.094,19.5939 0,5.4062 2.068,8.1093 6.203,8.1093 3.865,0 7.229,-2.0677 10.094,-6.2031 0.667,-1 1.068,-1.7656 1.203,-2.2969 l 4.5,-18.0002 c 0.469,-2.208 1.136,-4.875 2,-8 0.667,-2.875 1.13,-4.677 1.391,-5.406 0.875,-1.396 2.041,-2.094 3.5,-2.094 1.666,0.334 2.635,1.229 2.906,2.688 0,0.604 -0.135,1.375 -0.406,2.312 z"
                                   style="fill:#000000;fill-opacity:1;fill-rule:nonzero;stroke:none"
                                   id="path4222" /><g
                                   id="g4224"
                                   transform="matrix(5.2632,0,0,5.2632,-1105.3,-937.84)"><path
                                   d="M 56.246,71.572 H 271.77"
                                   style="fill:none;stroke:#0000ff;stroke-width:1.5;stroke-linecap:butt;stroke-linejoin:round;stroke-miterlimit:10;stroke-dasharray:5.5, 4;stroke-dashoffset:0;stroke-opacity:0.74902"
                                   id="path4226" /><path
                                   d="M 226.71,40.219 V 255.75"
                                   style="fill:none;stroke:#0000ff;stroke-width:1.5;stroke-linecap:butt;stroke-linejoin:round;stroke-miterlimit:10;stroke-dasharray:5.5, 4;stroke-dashoffset:0;stroke-opacity:0.69804"
                                   id="path4228" /></g></g></g></g></g></g></g></g></g></g></g></g></g></g></g></g></g></g></g></g></g></g></g></g></g></g></g></g></g><g
                   id="g4230"
                   transform="scale(0.56693)" /></g></g></g></g></g></g></g></svg>
