<?xml version="1.0" encoding="UTF-8" standalone="no"?>
<svg
   xmlns:dc="http://purl.org/dc/elements/1.1/"
   xmlns:cc="http://creativecommons.org/ns#"
   xmlns:rdf="http://www.w3.org/1999/02/22-rdf-syntax-ns#"
   xmlns:svg="http://www.w3.org/2000/svg"
   xmlns="http://www.w3.org/2000/svg"
   xmlns:sodipodi="http://sodipodi.sourceforge.net/DTD/sodipodi-0.dtd"
   xmlns:inkscape="http://www.inkscape.org/namespaces/inkscape"
   version="1.1"
   id="svg4438"
   xml:space="preserve"
   width="185.33333"
   height="169.33333"
   viewBox="0 0 185.33333 169.33333"
   sodipodi:docname="2020-1206-1340-crop.pdf"><metadata
     id="metadata4444"><rdf:RDF><cc:Work
         rdf:about=""><dc:format>image/svg+xml</dc:format><dc:type
           rdf:resource="http://purl.org/dc/dcmitype/StillImage" /></cc:Work></rdf:RDF></metadata><defs
     id="defs4442"><clipPath
       clipPathUnits="userSpaceOnUse"
       id="clipPath4456"><path
         d="M 0,0 H 181 V 165 H 0 Z"
         id="path4454" /></clipPath><clipPath
       clipPathUnits="userSpaceOnUse"
       id="clipPath4466"><path
         d="M 0,0 H 181 V 165 H 0 Z"
         id="path4464" /></clipPath><clipPath
       clipPathUnits="userSpaceOnUse"
       id="clipPath4478"><path
         d="M 0,0 V 165 H 181 V 0 Z"
         id="path4476" /></clipPath><clipPath
       clipPathUnits="userSpaceOnUse"
       id="clipPath4488"><path
         d="M 0,0 H 320 V 292 H 0 Z"
         id="path4486" /></clipPath></defs><sodipodi:namedview
     pagecolor="#ffffff"
     bordercolor="#666666"
     borderopacity="1"
     objecttolerance="10"
     gridtolerance="10"
     guidetolerance="10"
     inkscape:pageopacity="0"
     inkscape:pageshadow="2"
     inkscape:window-width="640"
     inkscape:window-height="480"
     id="namedview4440" /><g
     id="g4446"
     inkscape:groupmode="layer"
     inkscape:label="2020-1206-1340-crop"
     transform="matrix(1.3333333,0,0,-1.3333333,0,169.33333)"><g
       id="g4448"
       transform="translate(-21,-19)"><g
         id="g4450"><g
           id="g4452"
           clip-path="url(#clipPath4456)"><g
             id="g4458"
             transform="matrix(0.75758,0,0,-0.75758,21.939,145)"><g
               id="g4460"><g
                 id="g4462"
                 clip-path="url(#clipPath4466)"><g
                   id="g4468"><g
                     id="g4470" /></g><g
                   id="g4472"><g
                     id="g4474"
                     clip-path="url(#clipPath4478)"><g
                       id="g4480"
                       transform="scale(0.56693)" /></g></g><g
                   id="g4482"
                   transform="scale(0.56693)"><g
                     id="g4484"
                     clip-path="url(#clipPath4488)"><path
                       d="M 0,0 H 320 V 292 H 0 Z"
                       style="fill:#ffffff;fill-opacity:1;fill-rule:nonzero;stroke:none"
                       id="path4490" /><path
                       d="M 64.149,2 V 292"
                       style="fill:none;stroke:#000000;stroke-width:1;stroke-linecap:butt;stroke-linejoin:miter;stroke-miterlimit:10;stroke-dasharray:none;stroke-opacity:1"
                       id="path4492" /><path
                       d="m 64.149,1 -4,4"
                       style="fill:none;stroke:#000000;stroke-width:1;stroke-linecap:butt;stroke-linejoin:miter;stroke-miterlimit:10;stroke-dasharray:none;stroke-opacity:1"
                       id="path4494" /><path
                       d="m 64.149,1 4,4"
                       style="fill:none;stroke:#000000;stroke-width:1;stroke-linecap:butt;stroke-linejoin:miter;stroke-miterlimit:10;stroke-dasharray:none;stroke-opacity:1"
                       id="path4496" /><path
                       d="m 302.12,246 3.04,-4.31 -2.82,-3.99 h 1.77 l 1.27,1.94 c 0.23,0.38 0.43,0.69 0.57,0.94 0.23,-0.35 0.45,-0.65 0.64,-0.92 l 1.39,-1.96 h 1.69 l -2.87,3.91 3.09,4.39 h -1.73 l -1.71,-2.58 -0.45,-0.7 -2.17,3.28 z"
                       style="fill:#000000;fill-opacity:1;fill-rule:nonzero;stroke:none"
                       id="path4498" /><path
                       d="M 0,250.3 H 318"
                       style="fill:none;stroke:#000000;stroke-width:1;stroke-linecap:butt;stroke-linejoin:miter;stroke-miterlimit:10;stroke-dasharray:none;stroke-opacity:1"
                       id="path4500" /><path
                       d="m 319,250.3 -4,-4"
                       style="fill:none;stroke:#000000;stroke-width:1;stroke-linecap:butt;stroke-linejoin:miter;stroke-miterlimit:10;stroke-dasharray:none;stroke-opacity:1"
                       id="path4502" /><path
                       d="m 319,250.3 -4,4"
                       style="fill:none;stroke:#000000;stroke-width:1;stroke-linecap:butt;stroke-linejoin:miter;stroke-miterlimit:10;stroke-dasharray:none;stroke-opacity:1"
                       id="path4504" /><path
                       d="m 70,24.203 -0.156,-1.328 c 0.302,0.083 0.567,0.125 0.797,0.125 0.312,0 0.562,-0.052 0.75,-0.156 0.187,-0.104 0.343,-0.25 0.468,-0.438 0.084,-0.135 0.224,-0.484 0.422,-1.047 0.031,-0.073 0.073,-0.187 0.125,-0.343 l -3.14,-8.313 h 1.515 L 72.5,17.5 c 0.229,0.615 0.432,1.255 0.609,1.922 0.157,-0.646 0.349,-1.276 0.579,-1.891 l 1.765,-4.828 h 1.406 l -3.156,8.438 c -0.333,0.916 -0.594,1.547 -0.781,1.89 -0.25,0.459 -0.537,0.797 -0.86,1.016 -0.322,0.219 -0.708,0.328 -1.156,0.328 -0.271,0 -0.573,-0.057 -0.906,-0.172 z"
                       style="fill:#000000;fill-opacity:1;fill-rule:nonzero;stroke:none"
                       id="path4506" /><path
                       d="m 75.938,-7.1215 0.312,6.0307 0.312,5.7114 0.313,5.4154 0.313,5.141 0.312,4.886 0.625,9.074 0.625,8.243 0.625,7.516 0.625,6.874 0.625,6.304 0.625,5.799 0.625,5.345 0.625,4.939 1.25,8.813 1.25,7.606 1.25,6.604 1.25,5.76 2.5,9.5 2.5,7.37 2.5,5.78 2.5,4.54 2.5,3.55 2.5,2.77 2.5,2.12 2.5,1.59 2.5,1.14 2.5,0.76 2.5,0.45 2.5,0.17 2.5,-0.07 2.5,-0.28 2.5,-0.46 2.5,-0.63 2.5,-0.76 2.5,-0.89 2.5,-1.01 2.5,-1.1 2.5,-1.2 2.5,-1.29 2.5,-1.35 2.5,-1.43 2.5,-1.49 2.5,-1.54 2.5,-1.6 2.5,-1.65 2.5,-1.69 2.5,-1.73 2.5,-1.77 2.5,-1.81 2.5,-1.83 2.5,-1.87 2.5,-1.9 2.5,-1.92 2.5,-1.95 2.5,-1.97 2.5,-2 2.5,-2.01 2.5,-2.04 2.5,-2.048 2.5,-2.069 2.5,-2.085 2.5,-2.1 2.5,-2.115 2.5,-2.129 2.5,-2.141 2.5,-2.154 2.5,-2.165 2.5,-2.177 2.5,-2.187 2.5,-2.197 2.5,-2.207 2.5,-2.215 2.5,-2.225 2.5,-2.233 2.5,-2.24 2.5,-2.249 2.5,-2.255 2.5,-2.263 2.5,-2.269 2.5,-2.276 2.5,-2.281 2.5,-2.288 2.5,-2.293 2.5,-2.299 2.5,-2.303 2.5,-2.309 2.5,-2.314 2.5,-2.318 2.5,-2.323 2.5,-2.327 2.5,-2.331 2.5,-2.335 2.5,-2.339 2.5,-2.343 2.5,-2.347 2.5,-2.349 2.5,-2.354 2.5,-2.356 2.5,-2.3598 2.5,-2.3627 2.5,-2.3656 2.5,-2.3685 2.5,-2.37118 2.5,-2.37392 2.5,-2.3765 2.5,-2.379"
                       style="fill:none;stroke:#666666;stroke-width:2.5;stroke-linecap:round;stroke-linejoin:round;stroke-miterlimit:10;stroke-dasharray:none;stroke-opacity:0.69804"
                       id="path4508" /><path
                       d="M -5,61.961 H 325"
                       style="fill:none;stroke:#0000ff;stroke-width:1.5;stroke-linecap:butt;stroke-linejoin:round;stroke-miterlimit:10;stroke-dasharray:5.5, 4;stroke-dashoffset:0;stroke-opacity:0.69804"
                       id="path4510" /><path
                       d="M -5,126.54 H 325"
                       style="fill:none;stroke:#0000ff;stroke-width:1.5;stroke-linecap:butt;stroke-linejoin:round;stroke-miterlimit:10;stroke-dasharray:5.5, 4;stroke-dashoffset:0;stroke-opacity:0.69804"
                       id="path4512" /><path
                       d="M 81.038,250.3 V 61.961"
                       style="fill:none;stroke:#000000;stroke-width:1.5;stroke-linecap:butt;stroke-linejoin:round;stroke-miterlimit:10;stroke-dasharray:5.5, 4;stroke-dashoffset:0;stroke-opacity:0.69804"
                       id="path4514" /><path
                       d="M 95.473,250.3 V 126.54"
                       style="fill:none;stroke:#000000;stroke-width:1.5;stroke-linecap:butt;stroke-linejoin:round;stroke-miterlimit:10;stroke-dasharray:5.5, 4;stroke-dashoffset:0;stroke-opacity:0.69804"
                       id="path4516" /><path
                       d="M 156.59,250.3 V 126.54"
                       style="fill:none;stroke:#000000;stroke-width:1.5;stroke-linecap:butt;stroke-linejoin:round;stroke-miterlimit:10;stroke-dasharray:5.5, 4;stroke-dashoffset:0;stroke-opacity:0.69804"
                       id="path4518" /><path
                       d="M 235.6,250.3 V 61.961"
                       style="fill:none;stroke:#000000;stroke-width:1.5;stroke-linecap:butt;stroke-linejoin:round;stroke-miterlimit:10;stroke-dasharray:5.5, 4;stroke-dashoffset:0;stroke-opacity:0.69804"
                       id="path4520" /><path
                       d="m 66.149,250.3 c 0,1.11 -0.896,2 -2,2 -1.105,0 -2,-0.89 -2,-2 0,-1.1 0.895,-2 2,-2 1.104,0 2,0.9 2,2 z"
                       style="fill:#000000;fill-opacity:1;fill-rule:nonzero;stroke:none"
                       id="path4522" /><path
                       d="m 66.149,250.3 c 0,1.11 -0.896,2 -2,2 -1.105,0 -2,-0.89 -2,-2 0,-1.1 0.895,-2 2,-2 1.104,0 2,0.9 2,2 z"
                       style="fill:none;stroke:#000000;stroke-width:1;stroke-linecap:round;stroke-linejoin:round;stroke-miterlimit:10;stroke-dasharray:none;stroke-opacity:1"
                       id="path4524" /><g
                       id="g4526"
                       transform="scale(19)"><g
                         id="g4528"
                         transform="matrix(0.01,0,0,0.01,2.0526,14.209)"><path
                           d="m 74,-43.594 v 0 C 74,-33.26 70.333,-23.698 63,-14.906 56.396,-6.9062 48.661,-1.6354 39.797,0.90625 36.661,1.7708 33.562,2.2031 30.5,2.2031 22.167,2.2031 15.599,-0.72917 10.797,-6.5938 6.8698,-11.396 4.9062,-17.365 4.9062,-24.5 c 0,-10 3.5626,-19.469 10.6878,-28.406 6.604,-8.063 14.338,-13.427 23.203,-16.094 3.271,-1 6.505,-1.5 9.703,-1.5 8.469,0 15.104,3.068 19.906,9.203 3.729,4.802 5.594,10.703 5.594,17.703 z M 31.094,-0.40625 v 0 c 6.271,0 12.307,-2.79685 18.109,-8.39065 1.198,-1.1354 2.297,-2.3381 3.297,-3.6091 6.531,-8.125 10.562,-17.823 12.094,-29.094 0.333,-2.198 0.5,-4.198 0.5,-6 0,-9.135 -3.063,-15.333 -9.188,-18.594 -0.073,0 -0.14,-0.036 -0.203,-0.109 C 53.297,-67.401 50.698,-68 47.906,-68 c -6.271,0 -12.338,2.698 -18.203,8.094 -2.406,2.135 -4.542,4.635 -6.406,7.5 -5.063,7.666 -8.026,16.833 -8.891,27.5 -0.135,1.208 -0.203,2.276 -0.203,3.203 0,8.531 2.568,14.6665 7.703,18.4061 2.667,1.9271 5.729,2.89065 9.188,2.89065 z"
                           style="fill:#000000;fill-opacity:1;fill-rule:nonzero;stroke:none"
                           id="path4530" /><g
                           id="g4532"
                           transform="matrix(5.2632,0,0,5.2632,-205.26,-1420.9)"><path
                             d="m 98.473,126.54 c 0,1.65 -1.343,3 -3,3 -1.656,0 -3,-1.35 -3,-3 0,-1.66 1.344,-3 3,-3 1.657,0 3,1.34 3,3 z"
                             style="fill:#ff0000;fill-opacity:1;fill-rule:nonzero;stroke:none"
                             id="path4534" /><path
                             d="m 98.473,126.54 c 0,1.65 -1.343,3 -3,3 -1.656,0 -3,-1.35 -3,-3 0,-1.66 1.344,-3 3,-3 1.657,0 3,1.34 3,3 z"
                             style="fill:none;stroke:#000000;stroke-width:1;stroke-linecap:round;stroke-linejoin:round;stroke-miterlimit:10;stroke-dasharray:none;stroke-opacity:1"
                             id="path4536" /><path
                             d="m 84.038,61.961 c 0,1.657 -1.343,3 -3,3 -1.657,0 -3,-1.343 -3,-3 0,-1.657 1.343,-3 3,-3 1.657,0 3,1.343 3,3 z"
                             style="fill:#ff0000;fill-opacity:1;fill-rule:nonzero;stroke:none"
                             id="path4538" /><path
                             d="m 84.038,61.961 c 0,1.657 -1.343,3 -3,3 -1.657,0 -3,-1.343 -3,-3 0,-1.657 1.343,-3 3,-3 1.657,0 3,1.343 3,3 z"
                             style="fill:none;stroke:#000000;stroke-width:1;stroke-linecap:round;stroke-linejoin:round;stroke-miterlimit:10;stroke-dasharray:none;stroke-opacity:1"
                             id="path4540" /><path
                             d="m 159.59,126.54 c 0,1.65 -1.34,3 -3,3 -1.65,0 -3,-1.35 -3,-3 0,-1.66 1.35,-3 3,-3 1.66,0 3,1.34 3,3 z"
                             style="fill:#ff0000;fill-opacity:1;fill-rule:nonzero;stroke:none"
                             id="path4542" /><path
                             d="m 159.59,126.54 c 0,1.65 -1.34,3 -3,3 -1.65,0 -3,-1.35 -3,-3 0,-1.66 1.35,-3 3,-3 1.66,0 3,1.34 3,3 z"
                             style="fill:none;stroke:#000000;stroke-width:1;stroke-linecap:round;stroke-linejoin:round;stroke-miterlimit:10;stroke-dasharray:none;stroke-opacity:1"
                             id="path4544" /><path
                             d="m 238.6,61.961 c 0,1.657 -1.34,3 -3,3 -1.65,0 -3,-1.343 -3,-3 0,-1.657 1.35,-3 3,-3 1.66,0 3,1.343 3,3 z"
                             style="fill:#ff0000;fill-opacity:1;fill-rule:nonzero;stroke:none"
                             id="path4546" /><path
                             d="m 238.6,61.961 c 0,1.657 -1.34,3 -3,3 -1.65,0 -3,-1.343 -3,-3 0,-1.657 1.35,-3 3,-3 1.66,0 3,1.343 3,3 z"
                             style="fill:none;stroke:#000000;stroke-width:1;stroke-linecap:round;stroke-linejoin:round;stroke-miterlimit:10;stroke-dasharray:none;stroke-opacity:1"
                             id="path4548" /><path
                             d="m 97.473,250.3 c 0,1.11 -0.895,2 -2,2 -1.104,0 -2,-0.89 -2,-2 0,-1.1 0.896,-2 2,-2 1.105,0 2,0.9 2,2 z"
                             style="fill:#000000;fill-opacity:1;fill-rule:nonzero;stroke:none"
                             id="path4550" /><path
                             d="m 97.473,250.3 c 0,1.11 -0.895,2 -2,2 -1.104,0 -2,-0.89 -2,-2 0,-1.1 0.896,-2 2,-2 1.105,0 2,0.9 2,2 z"
                             style="fill:none;stroke:#000000;stroke-width:1;stroke-linecap:round;stroke-linejoin:round;stroke-miterlimit:10;stroke-dasharray:none;stroke-opacity:1"
                             id="path4552" /><g
                             id="g4554"
                             transform="scale(19)"><g
                               id="g4556"
                               transform="matrix(0.01,0,0,0.01,4.8947,14.273)"><path
                                 d="M 23.906,-68.297 16.5,-38.203 c 3.865,-4 7.766,-6 11.703,-6 5,0 8.735,2.302 11.203,6.906 1.396,2.667 2.094,5.698 2.094,9.094 0,7.073 -2.469,13.672 -7.406,19.7968 C 29.5,-2.7396 24.438,0.39583 18.906,1 c -0.541,0.0625 -1.041,0.0938 -1.5,0.0938 -4.802,0 -8.3695,-2.2292 -10.7029,-6.6876 -1.3333,-2.5416 -2,-5.5412 -2,-9.0002 0,-2.271 0.5313,-5.64 1.5938,-10.109 L 14.5,-57.297 c 0.938,-3.937 1.406,-6.005 1.406,-6.203 0,-0.729 -0.468,-1.198 -1.406,-1.406 v 0 c -0.802,-0.198 -2,-0.297 -3.594,-0.297 -1.4685,0 -2.2706,-0.401 -2.406,-1.203 0,-1.125 0.6354,-1.792 1.906,-2 l 12.188,-1 c 0.875,0 1.312,0.37 1.312,1.109 z M 14.5,-30.5 l -2.203,9.203 c -1.063,4.198 -1.594,7.563 -1.594,10.094 0,5.7395 1.735,9.0415 5.203,9.9061 0.459,0.1354 0.959,0.2031 1.5,0.2031 3.532,0 6.828,-2.3333 9.891,-7 0.667,-1 1.302,-2.1042 1.906,-3.3122 1.802,-3.792 3.302,-8.922 4.5,-15.391 0.396,-2.333 0.594,-4.265 0.594,-5.797 0,-5.333 -1.63,-8.401 -4.891,-9.203 l -0.109,-0.109 C 28.901,-41.969 28.469,-42 28,-42 c -4,0 -8,2.667 -12,8 -0.531,0.667 -1.031,1.833 -1.5,3.5 z"
                                 style="fill:#000000;fill-opacity:1;fill-rule:nonzero;stroke:none"
                                 id="path4558" /><g
                                 id="g4560"
                                 transform="matrix(0.7,0,0,0.7,42.9,15)"><path
                                   d="m 29.406,-64 v 56.0938 c 0,2 0.396,3.2708 1.188,3.8124 1.135,0.6667 3.838,1 8.109,1 h 3.203 V 0 C 39.573,-0.19792 34.172,-0.29688 25.703,-0.29688 17.234,-0.29688 11.833,-0.19792 9.5,0 v -3.0938 h 3.203 c 5.136,0 8.068,-0.6041 8.797,-1.8124 L 21.594,-5 C 21.865,-5.5312 22,-6.5 22,-7.9062 V -59.703 c -3.469,1.739 -7.833,2.609 -13.0938,2.609 v -3.109 c 7.9998,0 14.0628,-2.13 18.1878,-6.391 1.271,0 2.005,0.229 2.203,0.688 v 0 0.109 c 0.073,0.198 0.109,0.797 0.109,1.797 z"
                                   style="fill:#000000;fill-opacity:1;fill-rule:nonzero;stroke:none"
                                   id="path4562" /><g
                                   id="g4564"
                                   transform="matrix(7.5190075,0,0,7.5190075,-760.53,-2060.4)"><path
                                   d="m 83.038,250.3 c 0,1.11 -0.895,2 -2,2 -1.104,0 -2,-0.89 -2,-2 0,-1.1 0.896,-2 2,-2 1.105,0 2,0.9 2,2 z"
                                   style="fill:#000000;fill-opacity:1;fill-rule:nonzero;stroke:none"
                                   id="path4566" /><path
                                   d="m 83.038,250.3 c 0,1.11 -0.895,2 -2,2 -1.104,0 -2,-0.89 -2,-2 0,-1.1 0.896,-2 2,-2 1.105,0 2,0.9 2,2 z"
                                   style="fill:none;stroke:#000000;stroke-width:1;stroke-linecap:round;stroke-linejoin:round;stroke-miterlimit:10;stroke-dasharray:none;stroke-opacity:1"
                                   id="path4568" /><g
                                   id="g4570"
                                   transform="matrix(0.19,0,0,0.19,75.0006,270.18)"><path
                                   d="m 37.297,-37.797 c 0.333,-2.271 1.37,-3.672 3.109,-4.203 0.334,-0.135 0.698,-0.203 1.094,-0.203 1.729,0 2.698,0.901 2.906,2.703 0,0.396 -0.234,1.531 -0.703,3.406 l -3.609,14 c -1,4.198 -1.729,7.198 -2.188,9 -0.875,3.4586 -1.312,5.9221 -1.312,7.3909 0,3.0729 1,4.6093 3,4.6093 2.541,0 4.677,-2.6666 6.406,-8 0.333,-1.1352 0.734,-2.6042 1.203,-4.4062 0.531,-1.135 0.995,-1.734 1.391,-1.797 0.802,0 1.203,0.333 1.203,1 0,1 -0.599,3.333 -1.797,7.0001 -0.396,1.1354 -0.797,2.099 -1.203,2.8907 -1.865,3.66662 -4.328,5.5 -7.391,5.5 -3.739,0 -6.442,-1.59901 -8.109,-4.7969 -0.469,-0.8021 -0.802,-1.7031 -1,-2.7031 -4.198,5 -8.531,7.5 -13,7.5 -5,0 -8.698,-2.2657 -11.0939,-6.7969 C 4.7344,-8.3698 4,-11.438 4,-14.906 c 0,-7.198 2.5,-13.865 7.5,-20 4.667,-5.594 9.734,-8.656 15.203,-9.188 0.469,-0.073 0.932,-0.109 1.391,-0.109 4.073,0 7.14,2.135 9.203,6.406 z m -6.5,25.891 v 0 l 5,-19.594 c 0.198,-1 0.297,-1.568 0.297,-1.703 0,-1.396 -0.599,-3.094 -1.797,-5.094 -1.469,-2.469 -3.5,-3.703 -6.094,-3.703 -3.469,0 -6.771,2.266 -9.906,6.797 -0.594,0.864 -1.162,1.797 -1.703,2.797 -1.927,3.875 -3.558,9.375 -4.891,16.5 -0.406,2.271 -0.609,4.073 -0.609,5.406 0,4.5312 1.271,7.4635 3.812,8.7969 0.729,0.4062 1.594,0.6093 2.594,0.6093 3.729,0 7.495,-2.3697 11.297,-7.1093 0.937,-1.0625 1.573,-2.1619 1.906,-3.2969 v -0.094 c 0.063,-0.135 0.094,-0.239 0.094,-0.312 z"
                                   style="fill:#000000;fill-opacity:1;fill-rule:nonzero;stroke:none"
                                   id="path4572" /><g
                                   id="g4574"
                                   transform="matrix(0.7,0,0,0.7,52.9,15)"><path
                                   d="m 29.406,-64 v 56.0938 c 0,2 0.396,3.2708 1.188,3.8124 1.135,0.6667 3.838,1 8.109,1 h 3.203 V 0 C 39.573,-0.19792 34.172,-0.29688 25.703,-0.29688 17.234,-0.29688 11.833,-0.19792 9.5,0 v -3.0938 h 3.203 c 5.136,0 8.068,-0.6041 8.797,-1.8124 L 21.594,-5 C 21.865,-5.5312 22,-6.5 22,-7.9062 V -59.703 c -3.469,1.739 -7.833,2.609 -13.0938,2.609 v -3.109 c 7.9998,0 14.0628,-2.13 18.1878,-6.391 1.271,0 2.005,0.229 2.203,0.688 v 0 0.109 c 0.073,0.198 0.109,0.797 0.109,1.797 z"
                                   style="fill:#000000;fill-opacity:1;fill-rule:nonzero;stroke:none"
                                   id="path4576" /><g
                                   id="g4578"
                                   transform="matrix(7.5190075,0,0,7.5190075,-639.48,-2052.9)"><path
                                   d="m 158.59,250.3 c 0,1.11 -0.89,2 -2,2 -1.1,0 -2,-0.89 -2,-2 0,-1.1 0.9,-2 2,-2 1.11,0 2,0.9 2,2 z"
                                   style="fill:#000000;fill-opacity:1;fill-rule:nonzero;stroke:none"
                                   id="path4580" /><path
                                   d="m 158.59,250.3 c 0,1.11 -0.89,2 -2,2 -1.1,0 -2,-0.89 -2,-2 0,-1.1 0.9,-2 2,-2 1.11,0 2,0.9 2,2 z"
                                   style="fill:none;stroke:#000000;stroke-width:1;stroke-linecap:round;stroke-linejoin:round;stroke-miterlimit:10;stroke-dasharray:none;stroke-opacity:1"
                                   id="path4582" /><g
                                   id="g4584"
                                   transform="matrix(0.19,0,0,0.19,148.9999,271.187)"><path
                                   d="M 23.906,-68.297 16.5,-38.203 c 3.865,-4 7.766,-6 11.703,-6 5,0 8.735,2.302 11.203,6.906 1.396,2.667 2.094,5.698 2.094,9.094 0,7.073 -2.469,13.672 -7.406,19.7968 C 29.5,-2.7396 24.438,0.39583 18.906,1 c -0.541,0.0625 -1.041,0.0938 -1.5,0.0938 -4.802,0 -8.3695,-2.2292 -10.7029,-6.6876 -1.3333,-2.5416 -2,-5.5412 -2,-9.0002 0,-2.271 0.5313,-5.64 1.5938,-10.109 L 14.5,-57.297 c 0.938,-3.937 1.406,-6.005 1.406,-6.203 0,-0.729 -0.468,-1.198 -1.406,-1.406 v 0 c -0.802,-0.198 -2,-0.297 -3.594,-0.297 -1.4685,0 -2.2706,-0.401 -2.406,-1.203 0,-1.125 0.6354,-1.792 1.906,-2 l 12.188,-1 c 0.875,0 1.312,0.37 1.312,1.109 z M 14.5,-30.5 l -2.203,9.203 c -1.063,4.198 -1.594,7.563 -1.594,10.094 0,5.7395 1.735,9.0415 5.203,9.9061 0.459,0.1354 0.959,0.2031 1.5,0.2031 3.532,0 6.828,-2.3333 9.891,-7 0.667,-1 1.302,-2.1042 1.906,-3.3122 1.802,-3.792 3.302,-8.922 4.5,-15.391 0.396,-2.333 0.594,-4.265 0.594,-5.797 0,-5.333 -1.63,-8.401 -4.891,-9.203 l -0.109,-0.109 C 28.901,-41.969 28.469,-42 28,-42 c -4,0 -8,2.667 -12,8 -0.531,0.667 -1.031,1.833 -1.5,3.5 z"
                                   style="fill:#000000;fill-opacity:1;fill-rule:nonzero;stroke:none"
                                   id="path4586" /><g
                                   id="g4588"
                                   transform="matrix(0.7,0,0,0.7,42.9,15)"><path
                                   d="m 44.906,-17.406 v 0 L 42.094,0 H 5 c 0,-1.6667 0.1979,-2.7344 0.5938,-3.2031 l 0.5,-0.5 19.2032,-21.3909 c 7,-7.875 10.5,-15.245 10.5,-22.109 0,-5.927 -1.797,-10.427 -5.391,-13.5 l -0.109,-0.094 h -0.094 c -2.135,-1.802 -4.734,-2.703 -7.797,-2.703 -4.802,0 -8.635,2.068 -11.5,6.203 -0.802,1.198 -1.4685,2.531 -1.9998,4 0.198,-0.073 0.6303,-0.109 1.2968,-0.109 2.667,0 4.365,1.203 5.094,3.609 v 0.094 c 0.135,0.469 0.203,0.969 0.203,1.5 0,2.667 -1.266,4.37 -3.797,5.109 -0.531,0.125 -1,0.188 -1.406,0.188 -2.4689,0 -4.0991,-1.032 -4.8908,-3.094 C 5.1354,-46.729 5,-47.562 5,-48.5 c 0,-5.135 1.9688,-9.536 5.906,-13.203 3.532,-3.261 7.797,-4.891 12.797,-4.891 7.333,0 13.031,2.464 17.094,7.391 2.333,2.864 3.667,6.265 4,10.203 0.073,0.604 0.109,1.203 0.109,1.797 0,4.864 -1.833,9.5 -5.5,13.906 -1.937,2.261 -4.937,5.261 -9,9 l -6.109,5.391 -1,0.906 -10.594,10.2969 h 18 c 5.865,0 9.031,-0.2657 9.5,-0.7969 0.667,-0.9375 1.401,-3.906 2.203,-8.906 z"
                                   style="fill:#000000;fill-opacity:1;fill-rule:nonzero;stroke:none"
                                   id="path4590" /><g
                                   id="g4592"
                                   transform="matrix(7.5190075,0,0,7.5190075,-1181.6,-2060.4)"><path
                                   d="m 237.6,250.3 c 0,1.11 -0.89,2 -2,2 -1.1,0 -2,-0.89 -2,-2 0,-1.1 0.9,-2 2,-2 1.11,0 2,0.9 2,2 z"
                                   style="fill:#000000;fill-opacity:1;fill-rule:nonzero;stroke:none"
                                   id="path4594" /><path
                                   d="m 237.6,250.3 c 0,1.11 -0.89,2 -2,2 -1.1,0 -2,-0.89 -2,-2 0,-1.1 0.9,-2 2,-2 1.11,0 2,0.9 2,2 z"
                                   style="fill:none;stroke:#000000;stroke-width:1;stroke-linecap:round;stroke-linejoin:round;stroke-miterlimit:10;stroke-dasharray:none;stroke-opacity:1"
                                   id="path4596" /><g
                                   id="g4598"
                                   transform="matrix(0.19,0,0,0.19,228,268.185)"><path
                                   d="m 37.297,-37.797 c 0.333,-2.271 1.37,-3.672 3.109,-4.203 0.334,-0.135 0.698,-0.203 1.094,-0.203 1.729,0 2.698,0.901 2.906,2.703 0,0.396 -0.234,1.531 -0.703,3.406 l -3.609,14 c -1,4.198 -1.729,7.198 -2.188,9 -0.875,3.4586 -1.312,5.9221 -1.312,7.3909 0,3.0729 1,4.6093 3,4.6093 2.541,0 4.677,-2.6666 6.406,-8 0.333,-1.1352 0.734,-2.6042 1.203,-4.4062 0.531,-1.135 0.995,-1.734 1.391,-1.797 0.802,0 1.203,0.333 1.203,1 0,1 -0.599,3.333 -1.797,7.0001 -0.396,1.1354 -0.797,2.099 -1.203,2.8907 -1.865,3.66662 -4.328,5.5 -7.391,5.5 -3.739,0 -6.442,-1.59901 -8.109,-4.7969 -0.469,-0.8021 -0.802,-1.7031 -1,-2.7031 -4.198,5 -8.531,7.5 -13,7.5 -5,0 -8.698,-2.2657 -11.0939,-6.7969 C 4.7344,-8.3698 4,-11.438 4,-14.906 c 0,-7.198 2.5,-13.865 7.5,-20 4.667,-5.594 9.734,-8.656 15.203,-9.188 0.469,-0.073 0.932,-0.109 1.391,-0.109 4.073,0 7.14,2.135 9.203,6.406 z m -6.5,25.891 v 0 l 5,-19.594 c 0.198,-1 0.297,-1.568 0.297,-1.703 0,-1.396 -0.599,-3.094 -1.797,-5.094 -1.469,-2.469 -3.5,-3.703 -6.094,-3.703 -3.469,0 -6.771,2.266 -9.906,6.797 -0.594,0.864 -1.162,1.797 -1.703,2.797 -1.927,3.875 -3.558,9.375 -4.891,16.5 -0.406,2.271 -0.609,4.073 -0.609,5.406 0,4.5312 1.271,7.4635 3.812,8.7969 0.729,0.4062 1.594,0.6093 2.594,0.6093 3.729,0 7.495,-2.3697 11.297,-7.1093 0.937,-1.0625 1.573,-2.1619 1.906,-3.2969 v -0.094 c 0.063,-0.135 0.094,-0.239 0.094,-0.312 z"
                                   style="fill:#000000;fill-opacity:1;fill-rule:nonzero;stroke:none"
                                   id="path4600" /><g
                                   id="g4602"
                                   transform="matrix(0.7,0,0,0.7,52.9,15)"><path
                                   d="m 44.906,-17.406 v 0 L 42.094,0 H 5 c 0,-1.6667 0.1979,-2.7344 0.5938,-3.2031 l 0.5,-0.5 19.2032,-21.3909 c 7,-7.875 10.5,-15.245 10.5,-22.109 0,-5.927 -1.797,-10.427 -5.391,-13.5 l -0.109,-0.094 h -0.094 c -2.135,-1.802 -4.734,-2.703 -7.797,-2.703 -4.802,0 -8.635,2.068 -11.5,6.203 -0.802,1.198 -1.4685,2.531 -1.9998,4 0.198,-0.073 0.6303,-0.109 1.2968,-0.109 2.667,0 4.365,1.203 5.094,3.609 v 0.094 c 0.135,0.469 0.203,0.969 0.203,1.5 0,2.667 -1.266,4.37 -3.797,5.109 -0.531,0.125 -1,0.188 -1.406,0.188 -2.4689,0 -4.0991,-1.032 -4.8908,-3.094 C 5.1354,-46.729 5,-47.562 5,-48.5 c 0,-5.135 1.9688,-9.536 5.906,-13.203 3.532,-3.261 7.797,-4.891 12.797,-4.891 7.333,0 13.031,2.464 17.094,7.391 2.333,2.864 3.667,6.265 4,10.203 0.073,0.604 0.109,1.203 0.109,1.797 0,4.864 -1.833,9.5 -5.5,13.906 -1.937,2.261 -4.937,5.261 -9,9 l -6.109,5.391 -1,0.906 -10.594,10.2969 h 18 c 5.865,0 9.031,-0.2657 9.5,-0.7969 0.667,-0.9375 1.401,-3.906 2.203,-8.906 z"
                                   style="fill:#000000;fill-opacity:1;fill-rule:nonzero;stroke:none"
                                   id="path4604" /><g
                                   id="g4606"
                                   transform="matrix(7.5190075,0,0,7.5190075,-1789.9,-2037.9)"><path
                                   d="m 66.149,61.961 c 0,1.105 -0.896,2 -2,2 -1.105,0 -2,-0.895 -2,-2 0,-1.105 0.895,-2 2,-2 1.104,0 2,0.895 2,2 z"
                                   style="fill:#444444;fill-opacity:1;fill-rule:nonzero;stroke:none"
                                   id="path4608" /><path
                                   d="m 66.149,61.961 c 0,1.105 -0.896,2 -2,2 -1.105,0 -2,-0.895 -2,-2 0,-1.105 0.895,-2 2,-2 1.104,0 2,0.895 2,2 z"
                                   style="fill:none;stroke:#000000;stroke-width:1;stroke-linecap:round;stroke-linejoin:round;stroke-miterlimit:10;stroke-dasharray:none;stroke-opacity:1"
                                   id="path4610" /><g
                                   id="g4612"
                                   transform="scale(19)"><g
                                   id="g4614"
                                   transform="matrix(0.01,0,0,0.01,1.2632,2.6447)"><path
                                   d="m 36.703,-40 v 0 l -6,31.7031 c -0.604,4.1354 -1.807,8.86982 -3.609,14.2031 -0.667,1.9271 -1.334,3.5573 -2,4.8908 -2.334,4.937 -5.229,8.005 -8.688,9.203 -0.875,0.333 -1.745,0.5 -2.609,0.5 -3.333,0 -5.797,-1.135 -7.3908,-3.406 -0.7395,-1 -1.1093,-2.167 -1.1093,-3.5 0,-2.667 1.1354,-4.5002 3.4062,-5.5002 0.6667,-0.3334 1.3649,-0.5 2.0939,-0.5 1.937,0 3.141,0.8333 3.609,2.5002 0.063,0.333 0.094,0.666 0.094,1 0,2.271 -1,3.875 -3,4.812 -0.729,0.334 -1.5625,0.532 -2.5,0.594 1.271,1.198 2.87,1.797 4.797,1.797 2.937,0 5.239,-3.266 6.906,-9.797 0.333,-1.5312 0.735,-3.5312 1.203,-6 L 22.5,-0.5 30,-40 h -6.594 c -1.666,0 -2.567,-0.266 -2.703,-0.797 h -0.109 v -0.406 c 0,-1.136 0.567,-1.766 1.703,-1.891 v 0 h 1.297 6.906 c 1.604,-8.333 2.703,-13.567 3.297,-15.703 2,-6.667 5.536,-10.5 10.609,-11.5 0.729,-0.135 1.427,-0.203 2.094,-0.203 3.469,0 6,1.135 7.594,3.406 v 0 c 0.739,1 1.109,2.167 1.109,3.5 0,2.667 -1.135,4.5 -3.406,5.5 -0.667,0.334 -1.365,0.5 -2.094,0.5 -1.937,0 -3.141,-0.833 -3.609,-2.5 -0.063,-0.333 -0.094,-0.666 -0.094,-1 0,-2.073 0.932,-3.609 2.797,-4.609 0.739,-0.469 1.609,-0.735 2.609,-0.797 -1.271,-1.198 -2.906,-1.797 -4.906,-1.797 -2.062,0 -3.63,1.13 -4.703,3.391 -0.469,0.937 -1.266,4.406 -2.391,10.406 l -2.109,11.406 h 8.297 c 1.666,0 2.567,0.365 2.703,1.094 0,1.198 -0.531,1.865 -1.594,2 h -0.109 -1.297 z"
                                   style="fill:#444444;fill-opacity:1;fill-rule:nonzero;stroke:none"
                                   id="path4616" /><g
                                   id="g4618"
                                   transform="translate(59.8)"><path
                                   d="m 33.094,24 v 0 c 0,0.667 -0.334,1 -1,1 -0.792,0 -2.558,-1.365 -5.297,-4.094 C 22.661,16.771 19.229,11.87 16.5,6.2031 12.104,-2.8698 9.9062,-13.271 9.9062,-25 c 0,-11.271 2.0988,-21.438 6.2968,-30.5 3.469,-7.396 7.87,-13.328 13.203,-17.797 1.396,-1.135 2.292,-1.703 2.688,-1.703 0.666,0 1,0.333 1,1 0,0.333 -0.433,0.901 -1.297,1.703 C 21.068,-61.37 15.703,-45.604 15.703,-25 c 0,20.5312 5.235,36.13 15.703,46.797 1.125,1.135 1.688,1.87 1.688,2.203 z"
                                   style="fill:#444444;fill-opacity:1;fill-rule:nonzero;stroke:none"
                                   id="path4620" /><g
                                   id="g4622"
                                   transform="translate(38.9)"><path
                                   d="m 37.297,-37.797 c 0.333,-2.271 1.37,-3.672 3.109,-4.203 0.334,-0.135 0.698,-0.203 1.094,-0.203 1.729,0 2.698,0.901 2.906,2.703 0,0.396 -0.234,1.531 -0.703,3.406 l -3.609,14 c -1,4.198 -1.729,7.198 -2.188,9 -0.875,3.4586 -1.312,5.9221 -1.312,7.3909 0,3.0729 1,4.6093 3,4.6093 2.541,0 4.677,-2.6666 6.406,-8 0.333,-1.1352 0.734,-2.6042 1.203,-4.4062 0.531,-1.135 0.995,-1.734 1.391,-1.797 0.802,0 1.203,0.333 1.203,1 0,1 -0.599,3.333 -1.797,7.0001 -0.396,1.1354 -0.797,2.099 -1.203,2.8907 -1.865,3.66662 -4.328,5.5 -7.391,5.5 -3.739,0 -6.442,-1.59901 -8.109,-4.7969 -0.469,-0.8021 -0.802,-1.7031 -1,-2.7031 -4.198,5 -8.531,7.5 -13,7.5 -5,0 -8.698,-2.2657 -11.0939,-6.7969 C 4.7344,-8.3698 4,-11.438 4,-14.906 c 0,-7.198 2.5,-13.865 7.5,-20 4.667,-5.594 9.734,-8.656 15.203,-9.188 0.469,-0.073 0.932,-0.109 1.391,-0.109 4.073,0 7.14,2.135 9.203,6.406 z m -6.5,25.891 v 0 l 5,-19.594 c 0.198,-1 0.297,-1.568 0.297,-1.703 0,-1.396 -0.599,-3.094 -1.797,-5.094 -1.469,-2.469 -3.5,-3.703 -6.094,-3.703 -3.469,0 -6.771,2.266 -9.906,6.797 -0.594,0.864 -1.162,1.797 -1.703,2.797 -1.927,3.875 -3.558,9.375 -4.891,16.5 -0.406,2.271 -0.609,4.073 -0.609,5.406 0,4.5312 1.271,7.4635 3.812,8.7969 0.729,0.4062 1.594,0.6093 2.594,0.6093 3.729,0 7.495,-2.3697 11.297,-7.1093 0.937,-1.0625 1.573,-2.1619 1.906,-3.2969 v -0.094 c 0.063,-0.135 0.094,-0.239 0.094,-0.312 z"
                                   style="fill:#444444;fill-opacity:1;fill-rule:nonzero;stroke:none"
                                   id="path4624" /><g
                                   id="g4626"
                                   transform="translate(52.9)"><path
                                   d="m 28.906,-25 v 0 c 0,11.271 -2.104,21.4375 -6.312,30.5 C 19.135,12.896 14.74,18.828 9.4062,23.297 8,24.432 7.099,25 6.7031,25 c -0.6666,0 -1,-0.333 -1,-1 C 5.7031,23.667 6.1354,23.099 7,22.297 17.729,11.37 23.094,-4.3958 23.094,-25 c 0,-20.333 -5,-35.734 -15.0002,-46.203 l -0.5,-0.5 C 6.3333,-72.901 5.7031,-73.667 5.7031,-74 c 0,-0.667 0.3334,-1 1,-1 0.8021,0 2.5677,1.365 5.2969,4.094 4.135,4.135 7.568,9.036 10.297,14.703 4.406,9.073 6.609,19.474 6.609,31.203 z"
                                   style="fill:#444444;fill-opacity:1;fill-rule:nonzero;stroke:none"
                                   id="path4628" /><g
                                   id="g4630"
                                   transform="matrix(5.2632,0,0,5.2632,-277.92,-264.47)"><path
                                   d="m 66.149,126.54 c 0,1.1 -0.896,2 -2,2 -1.105,0 -2,-0.9 -2,-2 0,-1.11 0.895,-2 2,-2 1.104,0 2,0.89 2,2 z"
                                   style="fill:#444444;fill-opacity:1;fill-rule:nonzero;stroke:none"
                                   id="path4632" /><path
                                   d="m 66.149,126.54 c 0,1.1 -0.896,2 -2,2 -1.105,0 -2,-0.9 -2,-2 0,-1.11 0.895,-2 2,-2 1.104,0 2,0.89 2,2 z"
                                   style="fill:none;stroke:#000000;stroke-width:1;stroke-linecap:round;stroke-linejoin:round;stroke-miterlimit:10;stroke-dasharray:none;stroke-opacity:1"
                                   id="path4634" /><g
                                   id="g4636"
                                   transform="scale(19)"><g
                                   id="g4638"
                                   transform="matrix(0.01,0,0,0.01,1.2632,6.0658)"><path
                                   d="m 36.703,-40 v 0 l -6,31.7031 c -0.604,4.1354 -1.807,8.86982 -3.609,14.2031 -0.667,1.9271 -1.334,3.5573 -2,4.8908 -2.334,4.937 -5.229,8.005 -8.688,9.203 -0.875,0.333 -1.745,0.5 -2.609,0.5 -3.333,0 -5.797,-1.135 -7.3908,-3.406 -0.7395,-1 -1.1093,-2.167 -1.1093,-3.5 0,-2.667 1.1354,-4.5002 3.4062,-5.5002 0.6667,-0.3334 1.3649,-0.5 2.0939,-0.5 1.937,0 3.141,0.8333 3.609,2.5002 0.063,0.333 0.094,0.666 0.094,1 0,2.271 -1,3.875 -3,4.812 -0.729,0.334 -1.5625,0.532 -2.5,0.594 1.271,1.198 2.87,1.797 4.797,1.797 2.937,0 5.239,-3.266 6.906,-9.797 0.333,-1.5312 0.735,-3.5312 1.203,-6 L 22.5,-0.5 30,-40 h -6.594 c -1.666,0 -2.567,-0.266 -2.703,-0.797 h -0.109 v -0.406 c 0,-1.136 0.567,-1.766 1.703,-1.891 v 0 h 1.297 6.906 c 1.604,-8.333 2.703,-13.567 3.297,-15.703 2,-6.667 5.536,-10.5 10.609,-11.5 0.729,-0.135 1.427,-0.203 2.094,-0.203 3.469,0 6,1.135 7.594,3.406 v 0 c 0.739,1 1.109,2.167 1.109,3.5 0,2.667 -1.135,4.5 -3.406,5.5 -0.667,0.334 -1.365,0.5 -2.094,0.5 -1.937,0 -3.141,-0.833 -3.609,-2.5 -0.063,-0.333 -0.094,-0.666 -0.094,-1 0,-2.073 0.932,-3.609 2.797,-4.609 0.739,-0.469 1.609,-0.735 2.609,-0.797 -1.271,-1.198 -2.906,-1.797 -4.906,-1.797 -2.062,0 -3.63,1.13 -4.703,3.391 -0.469,0.937 -1.266,4.406 -2.391,10.406 l -2.109,11.406 h 8.297 c 1.666,0 2.567,0.365 2.703,1.094 0,1.198 -0.531,1.865 -1.594,2 h -0.109 -1.297 z"
                                   style="fill:#444444;fill-opacity:1;fill-rule:nonzero;stroke:none"
                                   id="path4640" /><g
                                   id="g4642"
                                   transform="translate(59.8)"><path
                                   d="m 33.094,24 v 0 c 0,0.667 -0.334,1 -1,1 -0.792,0 -2.558,-1.365 -5.297,-4.094 C 22.661,16.771 19.229,11.87 16.5,6.2031 12.104,-2.8698 9.9062,-13.271 9.9062,-25 c 0,-11.271 2.0988,-21.438 6.2968,-30.5 3.469,-7.396 7.87,-13.328 13.203,-17.797 1.396,-1.135 2.292,-1.703 2.688,-1.703 0.666,0 1,0.333 1,1 0,0.333 -0.433,0.901 -1.297,1.703 C 21.068,-61.37 15.703,-45.604 15.703,-25 c 0,20.5312 5.235,36.13 15.703,46.797 1.125,1.135 1.688,1.87 1.688,2.203 z"
                                   style="fill:#444444;fill-opacity:1;fill-rule:nonzero;stroke:none"
                                   id="path4644" /><g
                                   id="g4646"
                                   transform="translate(38.9)"><path
                                   d="M 23.906,-68.297 16.5,-38.203 c 3.865,-4 7.766,-6 11.703,-6 5,0 8.735,2.302 11.203,6.906 1.396,2.667 2.094,5.698 2.094,9.094 0,7.073 -2.469,13.672 -7.406,19.7968 C 29.5,-2.7396 24.438,0.39583 18.906,1 c -0.541,0.0625 -1.041,0.0938 -1.5,0.0938 -4.802,0 -8.3695,-2.2292 -10.7029,-6.6876 -1.3333,-2.5416 -2,-5.5412 -2,-9.0002 0,-2.271 0.5313,-5.64 1.5938,-10.109 L 14.5,-57.297 c 0.938,-3.937 1.406,-6.005 1.406,-6.203 0,-0.729 -0.468,-1.198 -1.406,-1.406 v 0 c -0.802,-0.198 -2,-0.297 -3.594,-0.297 -1.4685,0 -2.2706,-0.401 -2.406,-1.203 0,-1.125 0.6354,-1.792 1.906,-2 l 12.188,-1 c 0.875,0 1.312,0.37 1.312,1.109 z M 14.5,-30.5 l -2.203,9.203 c -1.063,4.198 -1.594,7.563 -1.594,10.094 0,5.7395 1.735,9.0415 5.203,9.9061 0.459,0.1354 0.959,0.2031 1.5,0.2031 3.532,0 6.828,-2.3333 9.891,-7 0.667,-1 1.302,-2.1042 1.906,-3.3122 1.802,-3.792 3.302,-8.922 4.5,-15.391 0.396,-2.333 0.594,-4.265 0.594,-5.797 0,-5.333 -1.63,-8.401 -4.891,-9.203 l -0.109,-0.109 C 28.901,-41.969 28.469,-42 28,-42 c -4,0 -8,2.667 -12,8 -0.531,0.667 -1.031,1.833 -1.5,3.5 z"
                                   style="fill:#444444;fill-opacity:1;fill-rule:nonzero;stroke:none"
                                   id="path4648" /><g
                                   id="g4650"
                                   transform="translate(42.9)"><path
                                   d="m 28.906,-25 v 0 c 0,11.271 -2.104,21.4375 -6.312,30.5 C 19.135,12.896 14.74,18.828 9.4062,23.297 8,24.432 7.099,25 6.7031,25 c -0.6666,0 -1,-0.333 -1,-1 C 5.7031,23.667 6.1354,23.099 7,22.297 17.729,11.37 23.094,-4.3958 23.094,-25 c 0,-20.333 -5,-35.734 -15.0002,-46.203 l -0.5,-0.5 C 6.3333,-72.901 5.7031,-73.667 5.7031,-74 c 0,-0.667 0.3334,-1 1,-1 0.8021,0 2.5677,1.365 5.2969,4.094 4.135,4.135 7.568,9.036 10.297,14.703 4.406,9.073 6.609,19.474 6.609,31.203 z"
                                   style="fill:#444444;fill-opacity:1;fill-rule:nonzero;stroke:none"
                                   id="path4652" /><g
                                   id="g4654"
                                   transform="matrix(5.2632,0,0,5.2632,-267.92,-606.58)"><g
                                   id="g4656"
                                   transform="scale(19)"><g
                                   id="g4658"
                                   transform="matrix(0.01,0,0,0.01,7.8421,1.8468)"><path
                                   d="M 48.594,-38.094 39,0.09375 C 37.396,6.6354 33.828,11.938 28.297,16 24.234,19 20,20.5 15.594,20.5 11.135,20.5 7.9688,18.969 6.0938,15.906 5.3646,14.635 5,13.266 5,11.797 5,8.401 6.3646,6.3021 9.0938,5.5 9.6354,5.3646 10.135,5.2969 10.594,5.2969 c 2.135,0 3.338,0.9323 3.609,2.7969 0.063,0.2083 0.094,0.4427 0.094,0.7031 0,1.5311 -0.667,2.9011 -2,4.1091 -0.927,0.792 -2.3595,1.188 -4.297,1.188 1.1979,2.802 3.729,4.203 7.594,4.203 4.135,0 7.802,-2.099 11,-6.297 2.604,-3.4688 4.672,-8.1667 6.203,-14.0938 0.073,-0.2708 0.172,-0.7083 0.297,-1.3124 -3,2.99995 -6.365,4.5 -10.094,4.5 -5.333,0 -8.969,-1.96359 -10.906,-5.8907 -0.865,-1.7396 -1.297,-3.7396 -1.297,-6.0001 0,-3.667 1.765,-10.234 5.297,-19.703 0.135,-0.396 0.302,-0.828 0.5,-1.297 1.135,-3.073 1.703,-5.406 1.703,-7 0,-2.135 -0.833,-3.203 -2.5,-3.203 -3.667,0 -6.6668,3.031 -9.0001,9.094 v 0.109 c -0.3959,1 -0.7604,2.068 -1.0938,3.203 -0.7396,1.125 -1.276,1.724 -1.6093,1.797 -0.7917,0 -1.1876,-0.333 -1.1876,-1 0,-1.198 0.698,-3.297 2.0938,-6.297 2.9375,-6.073 6.635,-9.109 11.094,-9.109 3.541,0 6.01,1.5 7.406,4.5 0.531,1.135 0.797,2.37 0.797,3.703 0,1.396 -0.667,3.797 -2,7.203 -3.396,8.802 -5.094,15.333 -5.094,19.5939 0,5.4062 2.068,8.1093 6.203,8.1093 3.865,0 7.229,-2.0677 10.094,-6.2031 0.667,-1 1.068,-1.7656 1.203,-2.2969 l 4.5,-18.0002 c 0.469,-2.208 1.136,-4.875 2,-8 0.667,-2.875 1.13,-4.677 1.391,-5.406 0.875,-1.396 2.041,-2.094 3.5,-2.094 1.666,0.334 2.635,1.229 2.906,2.688 0,0.604 -0.135,1.375 -0.406,2.312 z"
                                   style="fill:#000000;fill-opacity:1;fill-rule:nonzero;stroke:none"
                                   id="path4660" /><g
                                   id="g4662"
                                   transform="translate(80.38)"><path
                                   d="M 68.703,-32.703 H 9 c -2.1354,0 -3.2708,-0.667 -3.4062,-2 0,-1.333 1.1041,-2 3.3124,-2 H 68.797 c 2.135,0 3.234,0.667 3.297,2 0,1.333 -1.13,2 -3.391,2 z m 0.094,19.406 H 8.9062 c -2.1354,0 -3.2395,-0.667 -3.3124,-2 0,-1.333 1.1354,-2 3.4062,-2 h 59.703 c 2.136,0 3.266,0.667 3.391,2 0,1.333 -1.099,2 -3.297,2 z"
                                   style="fill:#000000;fill-opacity:1;fill-rule:nonzero;stroke:none"
                                   id="path4664" /><g
                                   id="g4666"
                                   transform="translate(105.58)"><path
                                   d="M 33.406,-30.203 30,-16.5 c -1.135,4.531 -1.703,7.4635 -1.703,8.7969 0,3.4687 1.234,5.5677 3.703,6.2969 0.531,0.2083 1.13,0.3124 1.797,0.3124 3.333,0 6.37,-1.6666 9.109,-5 1.792,-2.1354 3.188,-4.8382 4.188,-8.1092 0.208,-0.729 0.646,-1.094 1.312,-1.094 0.792,0 1.188,0.333 1.188,1 0,1.667 -1.032,4.068 -3.094,7.2032 -3.604,5.4584 -7.906,8.1876 -12.906,8.1876 -4.532,0 -7.828,-1.89588 -9.891,-5.6876 -0.406,-0.6041 -0.708,-1.2395 -0.906,-1.9062 -1.594,3.1979 -3.792,5.4323 -6.594,6.70312 -1.271,0.59376 -2.573,0.89068 -3.906,0.89068 -4.0001,0 -6.797,-1.166717 -8.3908,-3.5 -0.6666,-0.8646 -1,-1.8959 -1,-3.0938 0,-2.4688 1.0626,-4.2031 3.1876,-5.203 0.7395,-0.396 1.5104,-0.594 2.3124,-0.594 1.9998,0 3.1978,0.833 3.5938,2.5001 0.062,0.3334 0.094,0.6667 0.094,1 0,2.2604 -1.13,3.9271 -3.3909,5 -0.4062,0.1979 -0.8385,0.3281 -1.2969,0.3907 1.3959,0.875 3.0628,1.3124 4.9998,1.3124 3.532,0 6.328,-2.3697 8.391,-7.1093 0.406,-1 0.776,-2.0989 1.109,-3.2969 3.594,-13.604 5.391,-21.536 5.391,-23.797 -0.396,-4.135 -2.193,-6.37 -5.391,-6.703 -3.468,0 -6.635,1.766 -9.5,5.297 v 0.109 c 0,0.063 -0.036,0.094 -0.109,0.094 -1,1.333 -1.901,2.865 -2.7032,4.594 -0.3334,0.802 -0.6303,1.604 -0.8907,2.406 L 8.5,-28.906 c -0.1354,0.739 -0.5677,1.109 -1.2969,1.109 -0.8021,0 -1.2031,-0.333 -1.2031,-1 0,-1.667 1.0677,-4.068 3.2031,-7.203 3.5939,-5.469 7.8909,-8.203 12.8909,-8.203 5.135,0 8.739,2.536 10.812,7.609 2.125,-4.135 4.959,-6.604 8.5,-7.406 0.667,-0.135 1.334,-0.203 2,-0.203 3.927,0 6.693,1.099 8.297,3.297 0.667,0.937 1,2.041 1,3.312 0,2.729 -1.234,4.563 -3.703,5.5 -0.604,0.198 -1.172,0.297 -1.703,0.297 -2.063,0 -3.297,-0.901 -3.703,-2.703 -0.063,-0.271 -0.094,-0.536 -0.094,-0.797 0,-2 0.969,-3.568 2.906,-4.703 0.594,-0.333 1.224,-0.568 1.891,-0.703 -1.396,-0.865 -3.063,-1.297 -5,-1.297 -4.531,0 -7.729,3.531 -9.594,10.594 -0.135,0.406 -0.234,0.807 -0.297,1.203 z"
                                   style="fill:#000000;fill-opacity:1;fill-rule:nonzero;stroke:none"
                                   id="path4668" /><g
                                   id="g4670"
                                   transform="translate(79.43)"><path
                                   d="M 40.906,-23 V 5 c 0,2.1354 -0.666,3.2344 -2,3.2969 -1.333,0 -2,-1.099 -2,-3.2969 V -23 H 8.9062 c -2.1354,0 -3.2395,-0.667 -3.3124,-2 0,-1.333 1.1041,-2 3.3124,-2 H 36.906 v -28 c 0,-2.135 0.667,-3.234 2,-3.297 1.334,0 2,1.099 2,3.297 v 28 h 27.891 c 2.135,0 3.234,0.667 3.297,2 0,1.333 -1.099,2 -3.297,2 z"
                                   style="fill:#000000;fill-opacity:1;fill-rule:nonzero;stroke:none"
                                   id="path4672" /><g
                                   id="g4674"
                                   transform="translate(109.9,-67.65)"><path
                                   d="m 29.406,-64 v 56.0938 c 0,2 0.396,3.2708 1.188,3.8124 1.135,0.6667 3.838,1 8.109,1 h 3.203 V 0 C 39.573,-0.19792 34.172,-0.29688 25.703,-0.29688 17.234,-0.29688 11.833,-0.19792 9.5,0 v -3.0938 h 3.203 c 5.136,0 8.068,-0.6041 8.797,-1.8124 L 21.594,-5 C 21.865,-5.5312 22,-6.5 22,-7.9062 V -59.703 c -3.469,1.739 -7.833,2.609 -13.0938,2.609 v -3.109 c 7.9998,0 14.0628,-2.13 18.1878,-6.391 1.271,0 2.005,0.229 2.203,0.688 v 0 0.109 c 0.073,0.198 0.109,0.797 0.109,1.797 z"
                                   style="fill:#000000;fill-opacity:1;fill-rule:nonzero;stroke:none"
                                   id="path4676" /><g
                                   id="g4678"
                                   transform="matrix(100,0,0,100,-1159.5,-117.03)"><path
                                   d="m 11.559,1.5768 h 0.572 v 0.04 h -0.572 z"
                                   style="fill:#000000;fill-opacity:1;fill-rule:nonzero;stroke:none"
                                   id="path4680" /><g
                                   id="g4682"
                                   transform="matrix(0.01,0,0,0.01,11.559,2.5328)"><path
                                   d="M 33.406,-30.203 30,-16.5 c -1.135,4.531 -1.703,7.4635 -1.703,8.7969 0,3.4687 1.234,5.5677 3.703,6.2969 0.531,0.2083 1.13,0.3124 1.797,0.3124 3.333,0 6.37,-1.6666 9.109,-5 1.792,-2.1354 3.188,-4.8382 4.188,-8.1092 0.208,-0.729 0.646,-1.094 1.312,-1.094 0.792,0 1.188,0.333 1.188,1 0,1.667 -1.032,4.068 -3.094,7.2032 -3.604,5.4584 -7.906,8.1876 -12.906,8.1876 -4.532,0 -7.828,-1.89588 -9.891,-5.6876 -0.406,-0.6041 -0.708,-1.2395 -0.906,-1.9062 -1.594,3.1979 -3.792,5.4323 -6.594,6.70312 -1.271,0.59376 -2.573,0.89068 -3.906,0.89068 -4.0001,0 -6.797,-1.166717 -8.3908,-3.5 -0.6666,-0.8646 -1,-1.8959 -1,-3.0938 0,-2.4688 1.0626,-4.2031 3.1876,-5.203 0.7395,-0.396 1.5104,-0.594 2.3124,-0.594 1.9998,0 3.1978,0.833 3.5938,2.5001 0.062,0.3334 0.094,0.6667 0.094,1 0,2.2604 -1.13,3.9271 -3.3909,5 -0.4062,0.1979 -0.8385,0.3281 -1.2969,0.3907 1.3959,0.875 3.0628,1.3124 4.9998,1.3124 3.532,0 6.328,-2.3697 8.391,-7.1093 0.406,-1 0.776,-2.0989 1.109,-3.2969 3.594,-13.604 5.391,-21.536 5.391,-23.797 -0.396,-4.135 -2.193,-6.37 -5.391,-6.703 -3.468,0 -6.635,1.766 -9.5,5.297 v 0.109 c 0,0.063 -0.036,0.094 -0.109,0.094 -1,1.333 -1.901,2.865 -2.7032,4.594 -0.3334,0.802 -0.6303,1.604 -0.8907,2.406 L 8.5,-28.906 c -0.1354,0.739 -0.5677,1.109 -1.2969,1.109 -0.8021,0 -1.2031,-0.333 -1.2031,-1 0,-1.667 1.0677,-4.068 3.2031,-7.203 3.5939,-5.469 7.8909,-8.203 12.8909,-8.203 5.135,0 8.739,2.536 10.812,7.609 2.125,-4.135 4.959,-6.604 8.5,-7.406 0.667,-0.135 1.334,-0.203 2,-0.203 3.927,0 6.693,1.099 8.297,3.297 0.667,0.937 1,2.041 1,3.312 0,2.729 -1.234,4.563 -3.703,5.5 -0.604,0.198 -1.172,0.297 -1.703,0.297 -2.063,0 -3.297,-0.901 -3.703,-2.703 -0.063,-0.271 -0.094,-0.536 -0.094,-0.797 0,-2 0.969,-3.568 2.906,-4.703 0.594,-0.333 1.224,-0.568 1.891,-0.703 -1.396,-0.865 -3.063,-1.297 -5,-1.297 -4.531,0 -7.729,3.531 -9.594,10.594 -0.135,0.406 -0.234,0.807 -0.297,1.203 z"
                                   style="fill:#000000;fill-opacity:1;fill-rule:nonzero;stroke:none"
                                   id="path4684" /><g
                                   id="g4686"
                                   transform="matrix(5.2632,0,0,5.2632,-1155.9,-253.28)" /></g></g></g></g></g></g></g></g></g></g></g></g></g></g></g></g></g></g></g></g></g></g></g></g></g></g></g></g></g></g></g></g></g></g></g></g></g></g><g
                   id="g4688"
                   transform="scale(0.56693)" /></g></g></g></g></g></g></g></svg>
