<?xml version="1.0" encoding="UTF-8" standalone="no"?>
<svg
   xmlns:dc="http://purl.org/dc/elements/1.1/"
   xmlns:cc="http://creativecommons.org/ns#"
   xmlns:rdf="http://www.w3.org/1999/02/22-rdf-syntax-ns#"
   xmlns:svg="http://www.w3.org/2000/svg"
   xmlns="http://www.w3.org/2000/svg"
   xmlns:sodipodi="http://sodipodi.sourceforge.net/DTD/sodipodi-0.dtd"
   xmlns:inkscape="http://www.inkscape.org/namespaces/inkscape"
   version="1.1"
   id="svg3562"
   xml:space="preserve"
   width="185.33333"
   height="177.33333"
   viewBox="0 0 185.33333 177.33333"
   sodipodi:docname="2020-1206-1050-crop.pdf"><metadata
     id="metadata3568"><rdf:RDF><cc:Work
         rdf:about=""><dc:format>image/svg+xml</dc:format><dc:type
           rdf:resource="http://purl.org/dc/dcmitype/StillImage" /></cc:Work></rdf:RDF></metadata><defs
     id="defs3566"><clipPath
       clipPathUnits="userSpaceOnUse"
       id="clipPath3580"><path
         d="M 0,0 H 181 V 171 H 0 Z"
         id="path3578" /></clipPath><clipPath
       clipPathUnits="userSpaceOnUse"
       id="clipPath3590"><path
         d="M 0,0 H 181 V 171 H 0 Z"
         id="path3588" /></clipPath><clipPath
       clipPathUnits="userSpaceOnUse"
       id="clipPath3602"><path
         d="M 0,0 V 171 H 181 V 0 Z"
         id="path3600" /></clipPath><clipPath
       clipPathUnits="userSpaceOnUse"
       id="clipPath3612"><path
         d="M 0,0 H 320 V 302 H 0 Z"
         id="path3610" /></clipPath></defs><sodipodi:namedview
     pagecolor="#ffffff"
     bordercolor="#666666"
     borderopacity="1"
     objecttolerance="10"
     gridtolerance="10"
     guidetolerance="10"
     inkscape:pageopacity="0"
     inkscape:pageshadow="2"
     inkscape:window-width="640"
     inkscape:window-height="480"
     id="namedview3564" /><g
     id="g3570"
     inkscape:groupmode="layer"
     inkscape:label="2020-1206-1050-crop"
     transform="matrix(1.3333333,0,0,-1.3333333,0,177.33333)"><g
       id="g3572"
       transform="translate(-21,-19)"><g
         id="g3574"><g
           id="g3576"
           clip-path="url(#clipPath3580)"><g
             id="g3582"
             transform="matrix(0.76608,0,0,-0.76608,21.17,151)"><g
               id="g3584"><g
                 id="g3586"
                 clip-path="url(#clipPath3590)"><g
                   id="g3592"><g
                     id="g3594" /></g><g
                   id="g3596"><g
                     id="g3598"
                     clip-path="url(#clipPath3602)"><g
                       id="g3604"
                       transform="scale(0.56693)" /></g></g><g
                   id="g3606"
                   transform="scale(0.56693)"><g
                     id="g3608"
                     clip-path="url(#clipPath3612)"><path
                       d="M 0,0 H 320 V 302 H 0 Z"
                       style="fill:#ffffff;fill-opacity:1;fill-rule:nonzero;stroke:none"
                       id="path3614" /><path
                       d="M 47,2 V 302"
                       style="fill:none;stroke:#000000;stroke-width:1;stroke-linecap:butt;stroke-linejoin:miter;stroke-miterlimit:10;stroke-dasharray:none;stroke-opacity:1"
                       id="path3616" /><path
                       d="M 47,1 43,5"
                       style="fill:none;stroke:#000000;stroke-width:1;stroke-linecap:butt;stroke-linejoin:miter;stroke-miterlimit:10;stroke-dasharray:none;stroke-opacity:1"
                       id="path3618" /><path
                       d="m 47,1 4,4"
                       style="fill:none;stroke:#000000;stroke-width:1;stroke-linecap:butt;stroke-linejoin:miter;stroke-miterlimit:10;stroke-dasharray:none;stroke-opacity:1"
                       id="path3620" /><path
                       d="m 302.12,147 3.04,-4.31 -2.82,-3.99 h 1.77 l 1.27,1.94 c 0.23,0.38 0.43,0.69 0.57,0.94 0.23,-0.35 0.45,-0.65 0.64,-0.92 l 1.39,-1.96 h 1.69 l -2.87,3.91 3.09,4.39 h -1.73 l -1.71,-2.58 -0.45,-0.7 -2.17,3.28 z"
                       style="fill:#000000;fill-opacity:1;fill-rule:nonzero;stroke:none"
                       id="path3622" /><path
                       d="M 0,152 H 318"
                       style="fill:none;stroke:#000000;stroke-width:1;stroke-linecap:butt;stroke-linejoin:miter;stroke-miterlimit:10;stroke-dasharray:none;stroke-opacity:1"
                       id="path3624" /><path
                       d="m 319,152 -4,-4"
                       style="fill:none;stroke:#000000;stroke-width:1;stroke-linecap:butt;stroke-linejoin:miter;stroke-miterlimit:10;stroke-dasharray:none;stroke-opacity:1"
                       id="path3626" /><path
                       d="m 319,152 -4,4"
                       style="fill:none;stroke:#000000;stroke-width:1;stroke-linecap:butt;stroke-linejoin:miter;stroke-miterlimit:10;stroke-dasharray:none;stroke-opacity:1"
                       id="path3628" /><path
                       d="m 53,24.203 -0.156,-1.328 c 0.302,0.083 0.567,0.125 0.797,0.125 0.312,0 0.562,-0.052 0.75,-0.156 0.187,-0.104 0.343,-0.25 0.468,-0.438 0.084,-0.135 0.224,-0.484 0.422,-1.047 0.031,-0.073 0.073,-0.187 0.125,-0.343 l -3.14,-8.313 h 1.515 L 55.5,17.5 c 0.229,0.615 0.432,1.255 0.609,1.922 0.157,-0.646 0.349,-1.276 0.579,-1.891 l 1.765,-4.828 h 1.406 l -3.156,8.438 c -0.333,0.916 -0.594,1.547 -0.781,1.89 -0.25,0.459 -0.537,0.797 -0.86,1.016 -0.322,0.219 -0.708,0.328 -1.156,0.328 -0.271,0 -0.573,-0.057 -0.906,-0.172 z"
                       style="fill:#000000;fill-opacity:1;fill-rule:nonzero;stroke:none"
                       id="path3630" /><path
                       d="m 326.13,276.05 -8.98,-2.36 -8.7,-2.36 -8.41,-2.36 -8.14,-2.36 -7.88,-2.36 -7.63,-2.36 -7.38,-2.36 -7.14,-2.36 -6.92,-2.36 -6.69,-2.36 -6.48,-2.36 -6.26,-2.36 -6.07,-2.35 -5.87,-2.36 -5.68,-2.36 -5.5,-2.36 -5.32,-2.36 -5.16,-2.36 -4.98,-2.36 -4.83,-2.36 -4.67,-2.36 -4.51,-2.36 -4.38,-2.36 -4.23,-2.36 -4.1,-2.36 -3.96,-2.36 -3.84,-2.36 -3.72,-2.36 -3.59,-2.36 -3.48,-2.35 -3.37,-2.36 -3.25,-2.36 -3.16,-2.36 -3.05,-2.36 -2.95,-2.36 -2.86,-2.36 -2.77,-2.36 -2.68,-2.36 -2.59,-2.36 -2.51,-2.36 -2.43,-2.36 -2.35,-2.36 -2.27,-2.36 -2.2,-2.36 -2.13,-2.35 -2.06,-2.36 -2,-2.36 -1.93,-2.36 -1.87,-2.36 -1.8,-2.36 -1.755,-2.36 -1.694,-2.36 -1.639,-2.36 -1.587,-2.36 -1.536,-2.36 -1.486,-2.36 -1.439,-2.36 -1.392,-2.36 -1.347,-2.36 -1.304,-2.36 -1.262,-2.36 -1.222,-2.35 -1.182,-2.36 -1.144,-2.36 -1.107,-2.36 -1.072,-2.36 -1.037,-2.36 -1.004,-2.36 -0.972,-2.36 -0.94,-2.36 -0.91,-2.36 -0.881,-2.36 -0.852,-2.36 -0.825,-2.36 -0.798,-2.356 -0.773,-2.36 -0.748,-2.359 -0.724,-2.359 -0.7,-2.36 -0.678,-2.359 -0.656,-2.359 -0.635,-2.36 -0.615,-2.359 -0.594,-2.36 -0.576,-2.359 -0.557,-2.359 -0.539,-2.36 -0.522,-2.359 -0.505,-2.36 -0.489,-2.359 -0.473,-2.359 -0.458,-2.36 -0.443,-2.359 -0.429,-2.359 -0.415,-2.36 -0.402,-2.359 -0.389,-2.359 -0.376,-2.36 -0.364,-2.359 -0.353,-2.36 -0.341,-2.359 -0.33,-2.359 -0.319,-2.36 -0.31,-2.359 -0.299,-2.36 -0.29,-2.359 -0.28,-2.359 -0.271,-2.36 -0.263,-2.359 -0.254,-2.359 -0.246,-2.36 L 54.159,11.797 53.929,9.4375 53.706,7.0781 53.49,4.7188 53.281,2.3594 53.079,0"
                       style="fill:none;stroke:#006400;stroke-width:2.5;stroke-linecap:round;stroke-linejoin:round;stroke-miterlimit:10;stroke-dasharray:none;stroke-opacity:0.69804"
                       id="path3632" /><path
                       d="m 50,152 c 0,1.66 -1.343,3 -3,3 -1.657,0 -3,-1.34 -3,-3 0,-1.66 1.343,-3 3,-3 1.657,0 3,1.34 3,3 z"
                       style="fill:#000000;fill-opacity:1;fill-rule:nonzero;stroke:none"
                       id="path3634" /><path
                       d="m 50,152 c 0,1.66 -1.343,3 -3,3 -1.657,0 -3,-1.34 -3,-3 0,-1.66 1.343,-3 3,-3 1.657,0 3,1.34 3,3 z"
                       style="fill:none;stroke:#000000;stroke-width:1;stroke-linecap:round;stroke-linejoin:round;stroke-miterlimit:10;stroke-dasharray:none;stroke-opacity:1"
                       id="path3636" /><g
                       id="g3638"
                       transform="scale(19)"><g
                         id="g3640"
                         transform="matrix(0.01,0,0,0.01,1.4211,9.1567)"><path
                           d="m 74,-43.594 v 0 C 74,-33.26 70.333,-23.698 63,-14.906 56.396,-6.9062 48.661,-1.6354 39.797,0.90625 36.661,1.7708 33.562,2.2031 30.5,2.2031 22.167,2.2031 15.599,-0.72917 10.797,-6.5938 6.8698,-11.396 4.9062,-17.365 4.9062,-24.5 c 0,-10 3.5626,-19.469 10.6878,-28.406 6.604,-8.063 14.338,-13.427 23.203,-16.094 3.271,-1 6.505,-1.5 9.703,-1.5 8.469,0 15.104,3.068 19.906,9.203 3.729,4.802 5.594,10.703 5.594,17.703 z M 31.094,-0.40625 v 0 c 6.271,0 12.307,-2.79685 18.109,-8.39065 1.198,-1.1354 2.297,-2.3381 3.297,-3.6091 6.531,-8.125 10.562,-17.823 12.094,-29.094 0.333,-2.198 0.5,-4.198 0.5,-6 0,-9.135 -3.063,-15.333 -9.188,-18.594 -0.073,0 -0.14,-0.036 -0.203,-0.109 C 53.297,-67.401 50.698,-68 47.906,-68 c -6.271,0 -12.338,2.698 -18.203,8.094 -2.406,2.135 -4.542,4.635 -6.406,7.5 -5.063,7.666 -8.026,16.833 -8.891,27.5 -0.135,1.208 -0.203,2.276 -0.203,3.203 0,8.531 2.568,14.6665 7.703,18.4061 2.667,1.9271 5.729,2.89065 9.188,2.89065 z"
                           style="fill:#000000;fill-opacity:1;fill-rule:nonzero;stroke:none"
                           id="path3642" /><g
                           id="g3644"
                           transform="matrix(5.2632,0,0,5.2632,-142.11,-915.67)"><path
                             d="m 100,152 c 0,1.66 -1.343,3 -3,3 -1.657,0 -3,-1.34 -3,-3 0,-1.66 1.343,-3 3,-3 1.657,0 3,1.34 3,3 z"
                             style="fill:#000000;fill-opacity:1;fill-rule:nonzero;stroke:none"
                             id="path3646" /><path
                             d="m 100,152 c 0,1.66 -1.343,3 -3,3 -1.657,0 -3,-1.34 -3,-3 0,-1.66 1.343,-3 3,-3 1.657,0 3,1.34 3,3 z"
                             style="fill:none;stroke:#000000;stroke-width:1;stroke-linecap:round;stroke-linejoin:round;stroke-miterlimit:10;stroke-dasharray:none;stroke-opacity:1"
                             id="path3648" /><g
                             id="g3650"
                             transform="matrix(0.19,0,0,0.19,91.9999,174.2357)"><path
                               d="m 29.406,-64 v 56.0938 c 0,2 0.396,3.2708 1.188,3.8124 1.135,0.6667 3.838,1 8.109,1 h 3.203 V 0 C 39.573,-0.19792 34.172,-0.29688 25.703,-0.29688 17.234,-0.29688 11.833,-0.19792 9.5,0 v -3.0938 h 3.203 c 5.136,0 8.068,-0.6041 8.797,-1.8124 L 21.594,-5 C 21.865,-5.5312 22,-6.5 22,-7.9062 V -59.703 c -3.469,1.739 -7.833,2.609 -13.0938,2.609 v -3.109 c 7.9998,0 14.0628,-2.13 18.1878,-6.391 1.271,0 2.005,0.229 2.203,0.688 v 0 0.109 c 0.073,0.198 0.109,0.797 0.109,1.797 z"
                               style="fill:#000000;fill-opacity:1;fill-rule:nonzero;stroke:none"
                               id="path3652" /><g
                               id="g3654"
                               transform="matrix(5.2632,0,0,5.2632,-484.21,-917.03)"><g
                                 id="g3656"
                                 transform="matrix(0.19,0,0,0.19,104.9997,110.2494)"><path
                                   d="M 48.594,-38.094 39,0.09375 C 37.396,6.6354 33.828,11.938 28.297,16 24.234,19 20,20.5 15.594,20.5 11.135,20.5 7.9688,18.969 6.0938,15.906 5.3646,14.635 5,13.266 5,11.797 5,8.401 6.3646,6.3021 9.0938,5.5 9.6354,5.3646 10.135,5.2969 10.594,5.2969 c 2.135,0 3.338,0.9323 3.609,2.7969 0.063,0.2083 0.094,0.4427 0.094,0.7031 0,1.5311 -0.667,2.9011 -2,4.1091 -0.927,0.792 -2.3595,1.188 -4.297,1.188 1.1979,2.802 3.729,4.203 7.594,4.203 4.135,0 7.802,-2.099 11,-6.297 2.604,-3.4688 4.672,-8.1667 6.203,-14.0938 0.073,-0.2708 0.172,-0.7083 0.297,-1.3124 -3,2.99995 -6.365,4.5 -10.094,4.5 -5.333,0 -8.969,-1.96359 -10.906,-5.8907 -0.865,-1.7396 -1.297,-3.7396 -1.297,-6.0001 0,-3.667 1.765,-10.234 5.297,-19.703 0.135,-0.396 0.302,-0.828 0.5,-1.297 1.135,-3.073 1.703,-5.406 1.703,-7 0,-2.135 -0.833,-3.203 -2.5,-3.203 -3.667,0 -6.6668,3.031 -9.0001,9.094 v 0.109 c -0.3959,1 -0.7604,2.068 -1.0938,3.203 -0.7396,1.125 -1.276,1.724 -1.6093,1.797 -0.7917,0 -1.1876,-0.333 -1.1876,-1 0,-1.198 0.698,-3.297 2.0938,-6.297 2.9375,-6.073 6.635,-9.109 11.094,-9.109 3.541,0 6.01,1.5 7.406,4.5 0.531,1.135 0.797,2.37 0.797,3.703 0,1.396 -0.667,3.797 -2,7.203 -3.396,8.802 -5.094,15.333 -5.094,19.5939 0,5.4062 2.068,8.1093 6.203,8.1093 3.865,0 7.229,-2.0677 10.094,-6.2031 0.667,-1 1.068,-1.7656 1.203,-2.2969 l 4.5,-18.0002 c 0.469,-2.208 1.136,-4.875 2,-8 0.667,-2.875 1.13,-4.677 1.391,-5.406 0.875,-1.396 2.041,-2.094 3.5,-2.094 1.666,0.334 2.635,1.229 2.906,2.688 0,0.604 -0.135,1.375 -0.406,2.312 z"
                                   style="fill:#000000;fill-opacity:1;fill-rule:nonzero;stroke:none"
                                   id="path3658" /><g
                                   id="g3660"
                                   transform="translate(80.38)"><path
                                   d="M 68.703,-32.703 H 9 c -2.1354,0 -3.2708,-0.667 -3.4062,-2 0,-1.333 1.1041,-2 3.3124,-2 H 68.797 c 2.135,0 3.234,0.667 3.297,2 0,1.333 -1.13,2 -3.391,2 z m 0.094,19.406 H 8.9062 c -2.1354,0 -3.2395,-0.667 -3.3124,-2 0,-1.333 1.1354,-2 3.4062,-2 h 59.703 c 2.136,0 3.266,0.667 3.391,2 0,1.333 -1.099,2 -3.297,2 z"
                                   style="fill:#000000;fill-opacity:1;fill-rule:nonzero;stroke:none"
                                   id="path3662" /><g
                                   id="g3664"
                                   transform="translate(105.58)"><path
                                   d="m 17.703,-69.406 v 61.8122 c 0,2.2605 0.531,3.5938 1.594,4 0.739,0.3334 2.807,0.5 6.203,0.5 V 0 L 14.406,-0.29688 C 13.604,-0.29688 9.901,-0.19792 3.2969,0 v -3.0938 c 3.9375,0 6.2396,-0.302 6.9061,-0.9062 l 0.203,-0.2031 c 0.459,-0.5313 0.688,-1.6615 0.688,-3.3907 V -59.594 c 0,-2.604 -0.464,-4.208 -1.3909,-4.812 H 9.5938 C 8.8646,-64.802 7.599,-65.068 5.7969,-65.203 h -2.5 v -3.094 z"
                                   style="fill:#000000;fill-opacity:1;fill-rule:nonzero;stroke:none"
                                   id="path3666" /><g
                                   id="g3668"
                                   transform="translate(27.8)"><path
                                   d="m 47.094,-21.406 v 0 c 0,6.875 -2.532,12.5414 -7.594,16.9998 -4.198,3.66662 -9.062,5.5 -14.594,5.5 -6.406,0 -11.807,-2.3959 -16.2029,-7.1876 -3.9375,-4.3332 -5.9062,-9.4372 -5.9062,-15.3122 0,-6.792 2.4323,-12.521 7.2971,-17.188 4.208,-4.135 9.177,-6.203 14.906,-6.203 6.469,0 11.901,2.568 16.297,7.703 3.864,4.459 5.797,9.688 5.797,15.688 z M 25,-1.4062 v 0 c 4.469,0 8,-1.8646 10.594,-5.5938 l 1,-1.7969 c 1.468,-2.9371 2.203,-7.4061 2.203,-13.4061 0,-6.396 -0.865,-11.026 -2.594,-13.891 -2.864,-4.135 -6.63,-6.302 -11.297,-6.5 -4.135,0 -7.536,1.667 -10.203,5 -0.469,0.532 -0.87,1.094 -1.203,1.688 -1.604,2.937 -2.406,7.505 -2.406,13.703 0,6.469 0.833,11.172 2.5,14.1092 2.802,4.3334 6.604,6.5626 11.406,6.6876 z"
                                   style="fill:#000000;fill-opacity:1;fill-rule:nonzero;stroke:none"
                                   id="path3670" /><g
                                   id="g3672"
                                   transform="translate(50)"><path
                                   d="m 22.203,-17.203 c 2.927,0 5.292,-1.333 7.094,-4 1.073,-1.802 1.609,-4.599 1.609,-8.391 -0.271,-8 -3.172,-12.104 -8.703,-12.312 -2.937,0 -5.307,1.333 -7.109,4 -1.063,1.802 -1.594,4.604 -1.594,8.406 0.271,8 3.172,12.099 8.703,12.297 z M 12.297,-18 c -1.136,1.333 -1.703,2.901 -1.703,4.703 0,2.729 1.067,4.7293 3.203,6.0001 0.667,0.3959 1.37,0.6302 2.109,0.7031 0.459,0.0626 2.959,0.0938 7.5,0.0938 6.865,0 11.865,0.599 15,1.7969 0.729,0.2708 1.459,0.6041 2.188,1 4.073,2.6666 6.239,6.4687 6.5,11.4062 0,4.3329 -2.797,7.7349 -8.391,10.2029 -4,1.792 -8.599,2.688 -13.797,2.688 -7.739,0 -13.776,-1.797 -18.1091,-5.391 -2.6667,-2.135 -4,-4.568 -4,-7.2968 C 2.7969,4.5729 4.5,1.8385 7.9062,-0.29688 9.1042,-1.099 10.469,-1.6979 12,-2.0938 9.2708,-4.2292 7.8021,-7.1979 7.5938,-11 c 0,-3.135 1.0364,-5.901 3.1092,-8.297 C 7.7031,-22.161 6.1354,-25.594 6,-29.594 c 0,-4.604 2,-8.375 6,-11.312 2.938,-2.198 6.339,-3.297 10.203,-3.297 4,0 7.531,1.203 10.594,3.609 3.198,-3.135 6.734,-4.703 10.609,-4.703 2.594,0 4.224,1.198 4.891,3.594 0.135,0.406 0.203,0.838 0.203,1.297 -0.271,1.739 -1.24,2.739 -2.906,3 -1.459,0 -2.391,-0.698 -2.797,-2.094 -0.063,-0.271 -0.094,-0.536 -0.094,-0.797 0,-1.406 0.531,-2.307 1.594,-2.703 -0.198,-0.062 -0.531,-0.094 -1,-0.094 -3.261,0 -6.261,1.297 -9,3.891 2.739,2.531 4.109,5.765 4.109,9.703 0,4.604 -2,8.37 -6,11.297 -2.937,2.198 -6.338,3.297 -10.203,3.297 -3.739,0 -7.042,-1.032 -9.906,-3.094 z M 25,18.297 v 0 c 6.333,0 11.135,-1.667 14.406,-5 1.667,-1.667 2.5,-3.4637 2.5,-5.3908 0,-4.9374 -3.937,-7.73953 -11.812,-8.4062 v 0 H 30 C 28.271,-0.63542 25.635,-0.70312 22.094,-0.70312 H 16.203 C 13.068,-0.50521 10.698,0.99479 9.0938,3.7969 8.3646,5.0677 8,6.4375 8,7.9062 c 0,3.1248 1.9323,5.7238 5.797,7.7968 3.135,1.729 6.87,2.594 11.203,2.594 z"
                                   style="fill:#000000;fill-opacity:1;fill-rule:nonzero;stroke:none"
                                   id="path3674" /><g
                                   id="g3676"
                                   transform="matrix(0.7,0,0,0.7,51.4,22.9)"><path
                                   d="m 37.297,-37.797 c 0.333,-2.271 1.37,-3.672 3.109,-4.203 0.334,-0.135 0.698,-0.203 1.094,-0.203 1.729,0 2.698,0.901 2.906,2.703 0,0.396 -0.234,1.531 -0.703,3.406 l -3.609,14 c -1,4.198 -1.729,7.198 -2.188,9 -0.875,3.4586 -1.312,5.9221 -1.312,7.3909 0,3.0729 1,4.6093 3,4.6093 2.541,0 4.677,-2.6666 6.406,-8 0.333,-1.1352 0.734,-2.6042 1.203,-4.4062 0.531,-1.135 0.995,-1.734 1.391,-1.797 0.802,0 1.203,0.333 1.203,1 0,1 -0.599,3.333 -1.797,7.0001 -0.396,1.1354 -0.797,2.099 -1.203,2.8907 -1.865,3.66662 -4.328,5.5 -7.391,5.5 -3.739,0 -6.442,-1.59901 -8.109,-4.7969 -0.469,-0.8021 -0.802,-1.7031 -1,-2.7031 -4.198,5 -8.531,7.5 -13,7.5 -5,0 -8.698,-2.2657 -11.0939,-6.7969 C 4.7344,-8.3698 4,-11.438 4,-14.906 c 0,-7.198 2.5,-13.865 7.5,-20 4.667,-5.594 9.734,-8.656 15.203,-9.188 0.469,-0.073 0.932,-0.109 1.391,-0.109 4.073,0 7.14,2.135 9.203,6.406 z m -6.5,25.891 v 0 l 5,-19.594 c 0.198,-1 0.297,-1.568 0.297,-1.703 0,-1.396 -0.599,-3.094 -1.797,-5.094 -1.469,-2.469 -3.5,-3.703 -6.094,-3.703 -3.469,0 -6.771,2.266 -9.906,6.797 -0.594,0.864 -1.162,1.797 -1.703,2.797 -1.927,3.875 -3.558,9.375 -4.891,16.5 -0.406,2.271 -0.609,4.073 -0.609,5.406 0,4.5312 1.271,7.4635 3.812,8.7969 0.729,0.4062 1.594,0.6093 2.594,0.6093 3.729,0 7.495,-2.3697 11.297,-7.1093 0.937,-1.0625 1.573,-2.1619 1.906,-3.2969 v -0.094 c 0.063,-0.135 0.094,-0.239 0.094,-0.312 z"
                                   style="fill:#000000;fill-opacity:1;fill-rule:nonzero;stroke:none"
                                   id="path3678" /><g
                                   id="g3680"
                                   transform="matrix(1.4286,0,0,1.4286,76.726328,-32.700564)"><path
                                   d="M 33.406,-30.203 30,-16.5 c -1.135,4.531 -1.703,7.4635 -1.703,8.7969 0,3.4687 1.234,5.5677 3.703,6.2969 0.531,0.2083 1.13,0.3124 1.797,0.3124 3.333,0 6.37,-1.6666 9.109,-5 1.792,-2.1354 3.188,-4.8382 4.188,-8.1092 0.208,-0.729 0.646,-1.094 1.312,-1.094 0.792,0 1.188,0.333 1.188,1 0,1.667 -1.032,4.068 -3.094,7.2032 -3.604,5.4584 -7.906,8.1876 -12.906,8.1876 -4.532,0 -7.828,-1.89588 -9.891,-5.6876 -0.406,-0.6041 -0.708,-1.2395 -0.906,-1.9062 -1.594,3.1979 -3.792,5.4323 -6.594,6.70312 -1.271,0.59376 -2.573,0.89068 -3.906,0.89068 -4.0001,0 -6.797,-1.166717 -8.3908,-3.5 -0.6666,-0.8646 -1,-1.8959 -1,-3.0938 0,-2.4688 1.0626,-4.2031 3.1876,-5.203 0.7395,-0.396 1.5104,-0.594 2.3124,-0.594 1.9998,0 3.1978,0.833 3.5938,2.5001 0.062,0.3334 0.094,0.6667 0.094,1 0,2.2604 -1.13,3.9271 -3.3909,5 -0.4062,0.1979 -0.8385,0.3281 -1.2969,0.3907 1.3959,0.875 3.0628,1.3124 4.9998,1.3124 3.532,0 6.328,-2.3697 8.391,-7.1093 0.406,-1 0.776,-2.0989 1.109,-3.2969 3.594,-13.604 5.391,-21.536 5.391,-23.797 -0.396,-4.135 -2.193,-6.37 -5.391,-6.703 -3.468,0 -6.635,1.766 -9.5,5.297 v 0.109 c 0,0.063 -0.036,0.094 -0.109,0.094 -1,1.333 -1.901,2.865 -2.7032,4.594 -0.3334,0.802 -0.6303,1.604 -0.8907,2.406 L 8.5,-28.906 c -0.1354,0.739 -0.5677,1.109 -1.2969,1.109 -0.8021,0 -1.2031,-0.333 -1.2031,-1 0,-1.667 1.0677,-4.068 3.2031,-7.203 3.5939,-5.469 7.8909,-8.203 12.8909,-8.203 5.135,0 8.739,2.536 10.812,7.609 2.125,-4.135 4.959,-6.604 8.5,-7.406 0.667,-0.135 1.334,-0.203 2,-0.203 3.927,0 6.693,1.099 8.297,3.297 0.667,0.937 1,2.041 1,3.312 0,2.729 -1.234,4.563 -3.703,5.5 -0.604,0.198 -1.172,0.297 -1.703,0.297 -2.063,0 -3.297,-0.901 -3.703,-2.703 -0.063,-0.271 -0.094,-0.536 -0.094,-0.797 0,-2 0.969,-3.568 2.906,-4.703 0.594,-0.333 1.224,-0.568 1.891,-0.703 -1.396,-0.865 -3.063,-1.297 -5,-1.297 -4.531,0 -7.729,3.531 -9.594,10.594 -0.135,0.406 -0.234,0.807 -0.297,1.203 z"
                                   style="fill:#000000;fill-opacity:1;fill-rule:nonzero;stroke:none"
                                   id="path3682" /><g
                                   id="g3684"
                                   transform="translate(90.52)"><path
                                   d="m 33.094,24 v 0 c 0,0.667 -0.334,1 -1,1 -0.792,0 -2.558,-1.365 -5.297,-4.094 C 22.661,16.771 19.229,11.87 16.5,6.2031 12.104,-2.8698 9.9062,-13.271 9.9062,-25 c 0,-11.271 2.0988,-21.438 6.2968,-30.5 3.469,-7.396 7.87,-13.328 13.203,-17.797 1.396,-1.135 2.292,-1.703 2.688,-1.703 0.666,0 1,0.333 1,1 0,0.333 -0.433,0.901 -1.297,1.703 C 21.068,-61.37 15.703,-45.604 15.703,-25 c 0,20.5312 5.235,36.13 15.703,46.797 1.125,1.135 1.688,1.87 1.688,2.203 z"
                                   style="fill:#000000;fill-opacity:1;fill-rule:nonzero;stroke:none"
                                   id="path3686" /><g
                                   id="g3688"
                                   transform="translate(38.9)"><path
                                   d="m 46,-32 c 0,9.729 -1.234,17.26 -3.703,22.5938 C 38.37,-1.9375 32.573,1.9323 24.906,2.2031 18.833,2.2031 13.964,-0.19792 10.297,-5 9.5677,-5.8646 8.9375,-6.8333 8.4062,-7.9062 c -3,-5.5318 -4.5,-13.5628 -4.5,-24.0938 0,-9.802 1.2292,-17.37 3.6876,-22.703 3.3332,-7.469 8.7342,-11.432 16.2032,-11.891 H 25 c 5.938,0 10.771,2.365 14.5,7.094 v 0.094 c 0.938,1.208 1.771,2.541 2.5,4 2.667,5.666 4,13.468 4,23.406 z M 24.906,0 v 0 c 4.198,0 7.427,-2.0312 9.688,-6.0938 0.937,-1.802 1.604,-3.9372 2,-6.4062 0.739,-4.271 1.109,-11.172 1.109,-20.703 0,-9.261 -0.333,-15.761 -1,-19.5 -1.198,-6.333 -4.265,-10.13 -9.203,-11.391 -0.865,-0.208 -1.729,-0.312 -2.594,-0.312 -4.666,0 -8.067,2.333 -10.203,7 -0.739,1.604 -1.307,3.541 -1.703,5.812 -0.531,3.594 -0.797,9.724 -0.797,18.391 0,10.073 0.365,17.109 1.094,21.109 1.198,6.3961 4.13,10.2919 8.797,11.68775 C 23.031,-0.13542 23.969,0 24.906,0 Z"
                                   style="fill:#000000;fill-opacity:1;fill-rule:nonzero;stroke:none"
                                   id="path3690" /><g
                                   id="g3692"
                                   transform="translate(77.8)"><path
                                   d="M 67.5,-49.797 15,-25 67.5,-0.20312 C 68.771,0.46354 69.406,1.1979 69.406,2 c 0,1.0625 -0.5,1.6979 -1.5,1.9062 C 67.698,3.9688 67.531,4 67.406,4 67.073,4 66.469,3.7656 65.594,3.2969 L 10.203,-22.797 C 8.9323,-23.401 8.2969,-24.135 8.2969,-25 c 0,-0.865 0.6354,-1.599 1.9061,-2.203 l 55.391,-26.094 c 0.875,-0.469 1.479,-0.703 1.812,-0.703 1.063,0 1.693,0.5 1.891,1.5 0.073,0.198 0.109,0.365 0.109,0.5 0,0.802 -0.635,1.536 -1.906,2.203 z"
                                   style="fill:#000000;fill-opacity:1;fill-rule:nonzero;stroke:none"
                                   id="path3694" /><g
                                   id="g3696"
                                   transform="translate(105.5)"><path
                                   d="m 37.297,-37.797 c 0.333,-2.271 1.37,-3.672 3.109,-4.203 0.334,-0.135 0.698,-0.203 1.094,-0.203 1.729,0 2.698,0.901 2.906,2.703 0,0.396 -0.234,1.531 -0.703,3.406 l -3.609,14 c -1,4.198 -1.729,7.198 -2.188,9 -0.875,3.4586 -1.312,5.9221 -1.312,7.3909 0,3.0729 1,4.6093 3,4.6093 2.541,0 4.677,-2.6666 6.406,-8 0.333,-1.1352 0.734,-2.6042 1.203,-4.4062 0.531,-1.135 0.995,-1.734 1.391,-1.797 0.802,0 1.203,0.333 1.203,1 0,1 -0.599,3.333 -1.797,7.0001 -0.396,1.1354 -0.797,2.099 -1.203,2.8907 -1.865,3.66662 -4.328,5.5 -7.391,5.5 -3.739,0 -6.442,-1.59901 -8.109,-4.7969 -0.469,-0.8021 -0.802,-1.7031 -1,-2.7031 -4.198,5 -8.531,7.5 -13,7.5 -5,0 -8.698,-2.2657 -11.0939,-6.7969 C 4.7344,-8.3698 4,-11.438 4,-14.906 c 0,-7.198 2.5,-13.865 7.5,-20 4.667,-5.594 9.734,-8.656 15.203,-9.188 0.469,-0.073 0.932,-0.109 1.391,-0.109 4.073,0 7.14,2.135 9.203,6.406 z m -6.5,25.891 v 0 l 5,-19.594 c 0.198,-1 0.297,-1.568 0.297,-1.703 0,-1.396 -0.599,-3.094 -1.797,-5.094 -1.469,-2.469 -3.5,-3.703 -6.094,-3.703 -3.469,0 -6.771,2.266 -9.906,6.797 -0.594,0.864 -1.162,1.797 -1.703,2.797 -1.927,3.875 -3.558,9.375 -4.891,16.5 -0.406,2.271 -0.609,4.073 -0.609,5.406 0,4.5312 1.271,7.4635 3.812,8.7969 0.729,0.4062 1.594,0.6093 2.594,0.6093 3.729,0 7.495,-2.3697 11.297,-7.1093 0.937,-1.0625 1.573,-2.1619 1.906,-3.2969 v -0.094 c 0.063,-0.135 0.094,-0.239 0.094,-0.312 z"
                                   style="fill:#000000;fill-opacity:1;fill-rule:nonzero;stroke:none"
                                   id="path3698" /><g
                                   id="g3700"
                                   transform="translate(80.7)"><path
                                   d="M 67.5,-49.797 15,-25 67.5,-0.20312 C 68.771,0.46354 69.406,1.1979 69.406,2 c 0,1.0625 -0.5,1.6979 -1.5,1.9062 C 67.698,3.9688 67.531,4 67.406,4 67.073,4 66.469,3.7656 65.594,3.2969 L 10.203,-22.797 C 8.9323,-23.401 8.2969,-24.135 8.2969,-25 c 0,-0.865 0.6354,-1.599 1.9061,-2.203 l 55.391,-26.094 c 0.875,-0.469 1.479,-0.703 1.812,-0.703 1.063,0 1.693,0.5 1.891,1.5 0.073,0.198 0.109,0.365 0.109,0.5 0,0.802 -0.635,1.536 -1.906,2.203 z"
                                   style="fill:#000000;fill-opacity:1;fill-rule:nonzero;stroke:none"
                                   id="path3702" /><g
                                   id="g3704"
                                   transform="translate(105.6)"><path
                                   d="m 29.406,-64 v 56.0938 c 0,2 0.396,3.2708 1.188,3.8124 1.135,0.6667 3.838,1 8.109,1 h 3.203 V 0 C 39.573,-0.19792 34.172,-0.29688 25.703,-0.29688 17.234,-0.29688 11.833,-0.19792 9.5,0 v -3.0938 h 3.203 c 5.136,0 8.068,-0.6041 8.797,-1.8124 L 21.594,-5 C 21.865,-5.5312 22,-6.5 22,-7.9062 V -59.703 c -3.469,1.739 -7.833,2.609 -13.0938,2.609 v -3.109 c 7.9998,0 14.0628,-2.13 18.1878,-6.391 1.271,0 2.005,0.229 2.203,0.688 v 0 0.109 c 0.073,0.198 0.109,0.797 0.109,1.797 z"
                                   style="fill:#000000;fill-opacity:1;fill-rule:nonzero;stroke:none"
                                   id="path3706" /><g
                                   id="g3708"
                                   transform="translate(50)"><path
                                   d="m 28.906,-25 v 0 c 0,11.271 -2.104,21.4375 -6.312,30.5 C 19.135,12.896 14.74,18.828 9.4062,23.297 8,24.432 7.099,25 6.7031,25 c -0.6666,0 -1,-0.333 -1,-1 C 5.7031,23.667 6.1354,23.099 7,22.297 17.729,11.37 23.094,-4.3958 23.094,-25 c 0,-20.333 -5,-35.734 -15.0002,-46.203 l -0.5,-0.5 C 6.3333,-72.901 5.7031,-73.667 5.7031,-74 c 0,-0.667 0.3334,-1 1,-1 0.8021,0 2.5677,1.365 5.2969,4.094 4.135,4.135 7.568,9.036 10.297,14.703 4.406,9.073 6.609,19.474 6.609,31.203 z"
                                   style="fill:#000000;fill-opacity:1;fill-rule:nonzero;stroke:none"
                                   id="path3710" /><g
                                   id="g3712"
                                   transform="matrix(5.2632,0,0,5.2632,-1470.5,-580.26)" /></g></g></g></g></g></g></g></g></g></g></g></g></g></g></g></g></g></g></g></g></g><g
                   id="g3714"
                   transform="scale(0.56693)" /></g></g></g></g></g></g></g></svg>
