<?xml version="1.0" encoding="UTF-8" standalone="no"?>
<svg
   xmlns:dc="http://purl.org/dc/elements/1.1/"
   xmlns:cc="http://creativecommons.org/ns#"
   xmlns:rdf="http://www.w3.org/1999/02/22-rdf-syntax-ns#"
   xmlns:svg="http://www.w3.org/2000/svg"
   xmlns="http://www.w3.org/2000/svg"
   xmlns:sodipodi="http://sodipodi.sourceforge.net/DTD/sodipodi-0.dtd"
   xmlns:inkscape="http://www.inkscape.org/namespaces/inkscape"
   version="1.1"
   id="svg10740"
   xml:space="preserve"
   width="132"
   height="125.33333"
   viewBox="0 0 132 125.33333"
   sodipodi:docname="2020-1227-1320-crop.pdf"><metadata
     id="metadata10746"><rdf:RDF><cc:Work
         rdf:about=""><dc:format>image/svg+xml</dc:format><dc:type
           rdf:resource="http://purl.org/dc/dcmitype/StillImage" /></cc:Work></rdf:RDF></metadata><defs
     id="defs10744"><clipPath
       clipPathUnits="userSpaceOnUse"
       id="clipPath10758"><path
         d="M 0,0 H 141 V 133 H 0 Z"
         id="path10756" /></clipPath><clipPath
       clipPathUnits="userSpaceOnUse"
       id="clipPath10768"><path
         d="M 0,0 H 141 V 133 H 0 Z"
         id="path10766" /></clipPath><clipPath
       clipPathUnits="userSpaceOnUse"
       id="clipPath10780"><path
         d="M 0,0 V 133 H 141 V 0 Z"
         id="path10778" /></clipPath><clipPath
       clipPathUnits="userSpaceOnUse"
       id="clipPath10790"><path
         d="M 0,0 H 249 V 236 H 0 Z"
         id="path10788" /></clipPath></defs><sodipodi:namedview
     pagecolor="#ffffff"
     bordercolor="#666666"
     borderopacity="1"
     objecttolerance="10"
     gridtolerance="10"
     guidetolerance="10"
     inkscape:pageopacity="0"
     inkscape:pageshadow="2"
     inkscape:window-width="640"
     inkscape:window-height="480"
     id="namedview10742" /><g
     id="g10748"
     inkscape:groupmode="layer"
     inkscape:label="2020-1227-1320-crop"
     transform="matrix(1.3333333,0,0,-1.3333333,0,125.33333)"><g
       id="g10750"
       transform="translate(-21,-19)"><g
         id="g10752"><g
           id="g10754"
           clip-path="url(#clipPath10758)"><g
             id="g10760"
             transform="matrix(0.69925,0,0,-0.69925,21.203,113)"><g
               id="g10762"><g
                 id="g10764"
                 clip-path="url(#clipPath10768)"><g
                   id="g10770"><g
                     id="g10772" /></g><g
                   id="g10774"><g
                     id="g10776"
                     clip-path="url(#clipPath10780)"><g
                       id="g10782"
                       transform="scale(0.56693)" /></g></g><g
                   id="g10784"
                   transform="scale(0.56693)"><g
                     id="g10786"
                     clip-path="url(#clipPath10790)"><path
                       d="M 0,0 H 249 V 236 H 0 Z"
                       style="fill:#ffffff;fill-opacity:1;fill-rule:nonzero;stroke:none"
                       id="path10792" /><path
                       d="M 118.79,2 V 236"
                       style="fill:none;stroke:#000000;stroke-width:1;stroke-linecap:butt;stroke-linejoin:miter;stroke-miterlimit:10;stroke-dasharray:none;stroke-opacity:1"
                       id="path10794" /><path
                       d="m 118.79,1 -4,4"
                       style="fill:none;stroke:#000000;stroke-width:1;stroke-linecap:butt;stroke-linejoin:miter;stroke-miterlimit:10;stroke-dasharray:none;stroke-opacity:1"
                       id="path10796" /><path
                       d="m 118.79,1 4,4"
                       style="fill:none;stroke:#000000;stroke-width:1;stroke-linecap:butt;stroke-linejoin:miter;stroke-miterlimit:10;stroke-dasharray:none;stroke-opacity:1"
                       id="path10798" /><path
                       d="m 231.12,120 3.04,-4.31 -2.82,-3.99 h 1.77 l 1.27,1.94 c 0.23,0.38 0.43,0.69 0.57,0.94 0.23,-0.35 0.45,-0.65 0.64,-0.92 l 1.39,-1.96 h 1.69 l -2.87,3.91 3.09,4.39 h -1.73 l -1.71,-2.58 -0.45,-0.7 -2.17,3.28 z"
                       style="fill:#000000;fill-opacity:1;fill-rule:nonzero;stroke:none"
                       id="path10800" /><path
                       d="M 0,124.71 H 247"
                       style="fill:none;stroke:#000000;stroke-width:1;stroke-linecap:butt;stroke-linejoin:miter;stroke-miterlimit:10;stroke-dasharray:none;stroke-opacity:1"
                       id="path10802" /><path
                       d="m 248,124.71 -4,-4"
                       style="fill:none;stroke:#000000;stroke-width:1;stroke-linecap:butt;stroke-linejoin:miter;stroke-miterlimit:10;stroke-dasharray:none;stroke-opacity:1"
                       id="path10804" /><path
                       d="m 248,124.71 -4,4"
                       style="fill:none;stroke:#000000;stroke-width:1;stroke-linecap:butt;stroke-linejoin:miter;stroke-miterlimit:10;stroke-dasharray:none;stroke-opacity:1"
                       id="path10806" /><path
                       d="m 124,24.203 -0.16,-1.328 c 0.31,0.083 0.57,0.125 0.8,0.125 0.31,0 0.56,-0.052 0.75,-0.156 0.19,-0.104 0.34,-0.25 0.47,-0.438 0.08,-0.135 0.22,-0.484 0.42,-1.047 0.03,-0.073 0.07,-0.187 0.13,-0.343 l -3.14,-8.313 h 1.51 l 1.72,4.797 c 0.23,0.615 0.43,1.255 0.61,1.922 0.16,-0.646 0.35,-1.276 0.58,-1.891 l 1.76,-4.828 h 1.41 l -3.16,8.438 c -0.33,0.916 -0.59,1.547 -0.78,1.89 -0.25,0.459 -0.53,0.797 -0.86,1.016 -0.32,0.219 -0.71,0.328 -1.15,0.328 -0.27,0 -0.58,-0.057 -0.91,-0.172 z"
                       style="fill:#000000;fill-opacity:1;fill-rule:nonzero;stroke:none"
                       id="path10808" /><path
                       d="m 206.58,124.71 c 0,48.49 -39.3,87.79 -87.79,87.79 -48.49,0 -87.798,-39.3 -87.798,-87.79 0,-48.492 39.308,-87.8 87.798,-87.8 48.49,0 87.79,39.308 87.79,87.8 z"
                       style="fill:none;stroke:#000000;stroke-width:2.5;stroke-linecap:round;stroke-linejoin:round;stroke-miterlimit:10;stroke-dasharray:none;stroke-opacity:0.69804"
                       id="path10810" /><path
                       d="M 56.707,186.79 V 124.71"
                       style="fill:none;stroke:#0000ff;stroke-width:1.5;stroke-linecap:round;stroke-linejoin:round;stroke-miterlimit:10;stroke-dasharray:none;stroke-opacity:1"
                       id="path10812" /><path
                       d="M 56.707,186.79 118.79,124.71"
                       style="fill:none;stroke:#000000;stroke-width:1.5;stroke-linecap:round;stroke-linejoin:round;stroke-miterlimit:10;stroke-dasharray:none;stroke-opacity:1"
                       id="path10814" /><path
                       d="M 56.707,124.71 H 118.79"
                       style="fill:none;stroke:#ff0000;stroke-width:1.5;stroke-linecap:round;stroke-linejoin:round;stroke-miterlimit:10;stroke-dasharray:none;stroke-opacity:1"
                       id="path10816" /><path
                       d="M 180.87,62.625 118.79,124.71"
                       style="fill:none;stroke:#000000;stroke-width:1.5;stroke-linecap:round;stroke-linejoin:round;stroke-miterlimit:10;stroke-dasharray:none;stroke-opacity:1"
                       id="path10818" /><path
                       d="M 180.87,62.625 V 124.71"
                       style="fill:none;stroke:#0000ff;stroke-width:1.5;stroke-linecap:round;stroke-linejoin:round;stroke-miterlimit:10;stroke-dasharray:none;stroke-opacity:1"
                       id="path10820" /><path
                       d="m 118.79,124.71 h 62.08"
                       style="fill:none;stroke:#ff0000;stroke-width:1.5;stroke-linecap:round;stroke-linejoin:round;stroke-miterlimit:10;stroke-dasharray:none;stroke-opacity:1"
                       id="path10822" /><path
                       d="m 183.87,62.625 c 0,1.657 -1.34,3 -3,3 -1.66,0 -3,-1.343 -3,-3 0,-1.656 1.34,-3 3,-3 1.66,0 3,1.344 3,3 z"
                       style="fill:#444444;fill-opacity:1;fill-rule:nonzero;stroke:none"
                       id="path10824" /><g
                       id="g10826"
                       transform="scale(19)"><g
                         id="g10828"
                         transform="matrix(0.01,0,0,0.01,9.9577,2.1152)"><path
                           d="m 26.5,-37.297 v 0 l -5.594,22.094 c -1.135,4.271 -2.036,7.5363 -2.703,9.7968 -1.073,3.2708 -2.073,5.23953 -3,5.9062 v 0.09375 c -0.604,0.33333 -1.271,0.50005 -2,0.50005 -1.531,0 -2.463,-0.66672 -2.797,-2.00005 C 10.333,-1.1042 10.297,-1.3333 10.297,-1.5938 10.297,-2.1979 10.562,-3 11.094,-4 17.365,-17.531 21.635,-28.63 23.906,-37.297 h -5.703 c -5.198,0 -9.4322,2.568 -12.703,7.703 -0.6042,0.792 -1.1354,1.188 -1.5938,1.188 -0.802,0 -1.2031,-0.334 -1.2031,-1 0,-0.729 1.1979,-2.729 3.5938,-6 0.4687,-0.532 0.901,-1.063 1.2969,-1.594 0.2083,-0.271 0.4427,-0.536 0.7031,-0.797 0.1354,-0.198 0.3021,-0.401 0.5,-0.609 2.9371,-3.125 6.4061,-4.688 10.4061,-4.688 h 33.5 c 2.261,0 3.557,0.5 3.891,1.5 v 0.094 c 0.073,0.198 0.109,0.464 0.109,0.797 0,2.271 -1.635,3.406 -4.906,3.406 H 40.406 c -1.208,5.667 -1.812,10.964 -1.812,15.891 0,6.208 0.968,11.7081 2.906,16.4998 0.396,0.9374 0.594,1.6718 0.594,2.2031 0,1.5312 -0.834,2.666642 -2.5,3.40622 C 39.062,0.96354 38.531,1.0938 38,1.0938 c -1.333,0 -2.333,-0.93234 -3,-2.7969 -0.198,-0.5938 -0.396,-1.3281 -0.594,-2.2031 -0.541,-2.2605 -0.812,-4.7917 -0.812,-7.5938 0,-4.396 0.901,-10.76 2.703,-19.094 l 1.5,-6.703 z"
                           style="fill:#444444;fill-opacity:1;fill-rule:nonzero;stroke:none"
                           id="path10830" /><g
                           id="g10832"
                           transform="matrix(100,0,0,100,-995.77,-211.52)"><path
                             d="m 9.9577,2.5217 h 0.6063 v 0.04 H 9.9577 Z"
                             style="fill:#444444;fill-opacity:1;fill-rule:nonzero;stroke:none"
                             id="path10834" /><g
                             id="g10836"
                             transform="matrix(0.01,0,0,0.01,10.011,3.4777)"><path
                               d="m 2.7969,-16.5 v -3.094 L 33.5,-66.5 c 0.531,-0.802 1.198,-1.203 2,-1.203 0.938,0 1.469,0.37 1.594,1.109 v 1.5 45.5 h 10 v 3.094 h -10 v 8.7031 c 0,2.0625 0.401,3.3281 1.203,3.7969 0.937,0.6042 3.073,0.9062 6.406,0.9062 h 2.094 V 0 c -2.729,-0.19792 -7.261,-0.29688 -13.594,-0.29688 -6.271,0 -10.771,0.09896 -13.5,0.29688 v -3.0938 h 2.094 c 4.135,0 6.536,-0.5677 7.203,-1.7031 0.271,-0.4687 0.406,-1.4687 0.406,-3 V -16.5 Z M 30,-19.594 V -56.906 L 5.5938,-19.594 Z"
                               style="fill:#444444;fill-opacity:1;fill-rule:nonzero;stroke:none"
                               id="path10838" /><g
                               id="g10840"
                               transform="matrix(5.2632,0,0,5.2632,-1001.1,-347.77)"><path
                                 d="m 59.707,186.79 c 0,1.65 -1.343,3 -3,3 -1.657,0 -3,-1.35 -3,-3 0,-1.66 1.343,-3 3,-3 1.657,0 3,1.34 3,3 z"
                                 style="fill:#444444;fill-opacity:1;fill-rule:nonzero;stroke:none"
                                 id="path10842" /><g
                                 id="g10844"
                                 transform="matrix(0.19,0,0,0.19,21.1964,190.228)"><path
                                   d="m 44.906,-20.094 v 0 c 0,6.865 -2.567,12.5315 -7.703,17.0002 C 33.068,0.4375 28.365,2.2031 23.094,2.2031 16.969,2.2031 12.104,-0.36458 8.5,-5.5 6.1667,-8.7708 5,-12.302 5,-16.094 c 0,-3.073 1.3646,-4.807 4.0938,-5.203 0.2708,-0.073 0.5416,-0.109 0.8124,-0.109 2.4588,0 4.0578,1.104 4.7968,3.312 0.136,0.532 0.203,1.063 0.203,1.594 0,2.135 -0.937,3.604 -2.812,4.406 -0.667,0.334 -1.396,0.5 -2.1878,0.5 -0.7395,0 -1.3072,-0.067 -1.7031,-0.203 1.1979,4.198 3.7659,7.3282 7.7029,9.3908 2.198,1.2083 4.532,1.81245 7,1.81245 4.459,0 8.021,-2.16665 10.688,-6.50005 C 35.198,-9.8958 36,-14.464 36,-20.797 c 0,-5.604 -0.599,-9.807 -1.797,-12.609 -1.864,-4.261 -4.698,-6.391 -8.5,-6.391 -5.406,0 -9.708,2.333 -12.906,7 -0.396,0.594 -0.828,0.891 -1.297,0.891 -0.865,0 -1.333,-0.464 -1.406,-1.391 V -34.5 -64.094 c 0,-1.541 0.333,-2.344 1,-2.406 0.271,0 0.672,0.099 1.203,0.297 4.198,1.864 8.63,2.797 13.297,2.797 4.802,0 9.338,-0.964 13.609,-2.891 0.333,-0.198 0.599,-0.297 0.797,-0.297 0.667,0 1,0.365 1,1.094 0,0.865 -1.068,2.266 -3.203,4.203 -4.531,4.136 -9.896,6.203 -16.094,6.203 -2.802,0 -5.635,-0.437 -8.5,-1.312 v 19.5 C 16.672,-40.302 20.906,-42 25.906,-42 c 5.865,0 10.698,2.568 14.5,7.703 3,4.063 4.5,8.797 4.5,14.203 z"
                                   style="fill:#444444;fill-opacity:1;fill-rule:nonzero;stroke:none"
                                   id="path10846" /><g
                                   id="g10848"
                                   transform="translate(50)"><path
                                   d="m 26.5,-37.297 v 0 l -5.594,22.094 c -1.135,4.271 -2.036,7.5363 -2.703,9.7968 -1.073,3.2708 -2.073,5.23953 -3,5.9062 v 0.09375 c -0.604,0.33333 -1.271,0.50005 -2,0.50005 -1.531,0 -2.463,-0.66672 -2.797,-2.00005 C 10.333,-1.1042 10.297,-1.3333 10.297,-1.5938 10.297,-2.1979 10.562,-3 11.094,-4 17.365,-17.531 21.635,-28.63 23.906,-37.297 h -5.703 c -5.198,0 -9.4322,2.568 -12.703,7.703 -0.6042,0.792 -1.1354,1.188 -1.5938,1.188 -0.802,0 -1.2031,-0.334 -1.2031,-1 0,-0.729 1.1979,-2.729 3.5938,-6 0.4687,-0.532 0.901,-1.063 1.2969,-1.594 0.2083,-0.271 0.4427,-0.536 0.7031,-0.797 0.1354,-0.198 0.3021,-0.401 0.5,-0.609 2.9371,-3.125 6.4061,-4.688 10.4061,-4.688 h 33.5 c 2.261,0 3.557,0.5 3.891,1.5 v 0.094 c 0.073,0.198 0.109,0.464 0.109,0.797 0,2.271 -1.635,3.406 -4.906,3.406 H 40.406 c -1.208,5.667 -1.812,10.964 -1.812,15.891 0,6.208 0.968,11.7081 2.906,16.4998 0.396,0.9374 0.594,1.6718 0.594,2.2031 0,1.5312 -0.834,2.666642 -2.5,3.40622 C 39.062,0.96354 38.531,1.0938 38,1.0938 c -1.333,0 -2.333,-0.93234 -3,-2.7969 -0.198,-0.5938 -0.396,-1.3281 -0.594,-2.2031 -0.541,-2.2605 -0.812,-4.7917 -0.812,-7.5938 0,-4.396 0.901,-10.76 2.703,-19.094 l 1.5,-6.703 z"
                                   style="fill:#444444;fill-opacity:1;fill-rule:nonzero;stroke:none"
                                   id="path10850" /><g
                                   id="g10852"
                                   transform="matrix(100,0,0,100,-161.56,-1001.2)"><path
                                   d="m 1.1156,10.419 h 1.106 v 0.04 h -1.106 z"
                                   style="fill:#444444;fill-opacity:1;fill-rule:nonzero;stroke:none"
                                   id="path10854" /><g
                                   id="g10856"
                                   transform="matrix(0.01,0,0,0.01,1.4186,11.375)"><path
                                   d="m 2.7969,-16.5 v -3.094 L 33.5,-66.5 c 0.531,-0.802 1.198,-1.203 2,-1.203 0.938,0 1.469,0.37 1.594,1.109 v 1.5 45.5 h 10 v 3.094 h -10 v 8.7031 c 0,2.0625 0.401,3.3281 1.203,3.7969 0.937,0.6042 3.073,0.9062 6.406,0.9062 h 2.094 V 0 c -2.729,-0.19792 -7.261,-0.29688 -13.594,-0.29688 -6.271,0 -10.771,0.09896 -13.5,0.29688 v -3.0938 h 2.094 c 4.135,0 6.536,-0.5677 7.203,-1.7031 0.271,-0.4687 0.406,-1.4687 0.406,-3 V -16.5 Z M 30,-19.594 V -56.906 L 5.5938,-19.594 Z"
                                   style="fill:#444444;fill-opacity:1;fill-rule:nonzero;stroke:none"
                                   id="path10858" /><g
                                   id="g10860"
                                   transform="matrix(5.2632,0,0,5.2632,-141.86,-1137.5)"><path
                                   d="m 183.87,124.71 c 0,1.65 -1.34,3 -3,3 -1.66,0 -3,-1.35 -3,-3 0,-1.66 1.34,-3 3,-3 1.66,0 3,1.34 3,3 z"
                                   style="fill:#444444;fill-opacity:1;fill-rule:nonzero;stroke:none"
                                   id="path10862" /><path
                                   d="m 59.707,124.71 c 0,1.65 -1.343,3 -3,3 -1.657,0 -3,-1.35 -3,-3 0,-1.66 1.343,-3 3,-3 1.657,0 3,1.34 3,3 z"
                                   style="fill:#444444;fill-opacity:1;fill-rule:nonzero;stroke:none"
                                   id="path10864" /><path
                                   d="m 121.79,124.71 c 0,1.65 -1.35,3 -3,3 -1.66,0 -3,-1.35 -3,-3 0,-1.66 1.34,-3 3,-3 1.65,0 3,1.34 3,3 z"
                                   style="fill:#000000;fill-opacity:1;fill-rule:nonzero;stroke:none"
                                   id="path10866" /><g
                                   id="g10868"
                                   transform="scale(19)"><g
                                   id="g10870"
                                   transform="matrix(0.01,0,0,0.01,6.5263,7.6304)"><path
                                   d="m 74,-43.594 v 0 C 74,-33.26 70.333,-23.698 63,-14.906 56.396,-6.9062 48.661,-1.6354 39.797,0.90625 36.661,1.7708 33.562,2.2031 30.5,2.2031 22.167,2.2031 15.599,-0.72917 10.797,-6.5938 6.8698,-11.396 4.9062,-17.365 4.9062,-24.5 c 0,-10 3.5626,-19.469 10.6878,-28.406 6.604,-8.063 14.338,-13.427 23.203,-16.094 3.271,-1 6.505,-1.5 9.703,-1.5 8.469,0 15.104,3.068 19.906,9.203 3.729,4.802 5.594,10.703 5.594,17.703 z M 31.094,-0.40625 v 0 c 6.271,0 12.307,-2.79685 18.109,-8.39065 1.198,-1.1354 2.297,-2.3381 3.297,-3.6091 6.531,-8.125 10.562,-17.823 12.094,-29.094 0.333,-2.198 0.5,-4.198 0.5,-6 0,-9.135 -3.063,-15.333 -9.188,-18.594 -0.073,0 -0.14,-0.036 -0.203,-0.109 C 53.297,-67.401 50.698,-68 47.906,-68 c -6.271,0 -12.338,2.698 -18.203,8.094 -2.406,2.135 -4.542,4.635 -6.406,7.5 -5.063,7.666 -8.026,16.833 -8.891,27.5 -0.135,1.208 -0.203,2.276 -0.203,3.203 0,8.531 2.568,14.6665 7.703,18.4061 2.667,1.9271 5.729,2.89065 9.188,2.89065 z"
                                   style="fill:#000000;fill-opacity:1;fill-rule:nonzero;stroke:none"
                                   id="path10872" /><g
                                   id="g10874"
                                   transform="matrix(5.2632,0,0,5.2632,-652.63,-763.04)"><path
                                   d="m 209.58,124.71 c 0,1.65 -1.34,3 -3,3 -1.65,0 -3,-1.35 -3,-3 0,-1.66 1.35,-3 3,-3 1.66,0 3,1.34 3,3 z"
                                   style="fill:#000000;fill-opacity:1;fill-rule:nonzero;stroke:none"
                                   id="path10876" /><g
                                   id="g10878"
                                   transform="matrix(0.19,0,0,0.19,210.007,145.236)"><path
                                   d="m 29.406,-64 v 56.0938 c 0,2 0.396,3.2708 1.188,3.8124 1.135,0.6667 3.838,1 8.109,1 h 3.203 V 0 C 39.573,-0.19792 34.172,-0.29688 25.703,-0.29688 17.234,-0.29688 11.833,-0.19792 9.5,0 v -3.0938 h 3.203 c 5.136,0 8.068,-0.6041 8.797,-1.8124 L 21.594,-5 C 21.865,-5.5312 22,-6.5 22,-7.9062 V -59.703 c -3.469,1.739 -7.833,2.609 -13.0938,2.609 v -3.109 c 7.9998,0 14.0628,-2.13 18.1878,-6.391 1.271,0 2.005,0.229 2.203,0.688 v 0 0.109 c 0.073,0.198 0.109,0.797 0.109,1.797 z"
                                   style="fill:#000000;fill-opacity:1;fill-rule:nonzero;stroke:none"
                                   id="path10880" /><g
                                   id="g10882"
                                   transform="matrix(5.2632,0,0,5.2632,-1105.3,-764.4)" /></g></g></g></g></g></g></g></g></g></g></g></g></g></g></g></g><g
                   id="g10884"
                   transform="scale(0.56693)" /></g></g></g></g></g></g></g></svg>
