<?xml version="1.0" encoding="UTF-8" standalone="no"?>
<svg
   xmlns:dc="http://purl.org/dc/elements/1.1/"
   xmlns:cc="http://creativecommons.org/ns#"
   xmlns:rdf="http://www.w3.org/1999/02/22-rdf-syntax-ns#"
   xmlns:svg="http://www.w3.org/2000/svg"
   xmlns="http://www.w3.org/2000/svg"
   xmlns:sodipodi="http://sodipodi.sourceforge.net/DTD/sodipodi-0.dtd"
   xmlns:inkscape="http://www.inkscape.org/namespaces/inkscape"
   version="1.1"
   id="svg4840"
   xml:space="preserve"
   width="202.66667"
   height="149.33333"
   viewBox="0 0 202.66667 149.33333"
   sodipodi:docname="2020-1209-2000-crop.pdf"><metadata
     id="metadata4846"><rdf:RDF><cc:Work
         rdf:about=""><dc:format>image/svg+xml</dc:format><dc:type
           rdf:resource="http://purl.org/dc/dcmitype/StillImage" /></cc:Work></rdf:RDF></metadata><defs
     id="defs4844"><clipPath
       clipPathUnits="userSpaceOnUse"
       id="clipPath4858"><path
         d="M 0,0 H 206 V 150 H 0 Z"
         id="path4856" /></clipPath><clipPath
       clipPathUnits="userSpaceOnUse"
       id="clipPath4868"><path
         d="M 0,0 H 206 V 150 H 0 Z"
         id="path4866" /></clipPath><clipPath
       clipPathUnits="userSpaceOnUse"
       id="clipPath4880"><path
         d="M 0,0 V 150 H 206 V 0 Z"
         id="path4878" /></clipPath><clipPath
       clipPathUnits="userSpaceOnUse"
       id="clipPath4890"><path
         d="M 0,0 H 365 V 266 H 0 Z"
         id="path4888" /></clipPath></defs><sodipodi:namedview
     pagecolor="#ffffff"
     bordercolor="#666666"
     borderopacity="1"
     objecttolerance="10"
     gridtolerance="10"
     guidetolerance="10"
     inkscape:pageopacity="0"
     inkscape:pageshadow="2"
     inkscape:window-width="640"
     inkscape:window-height="480"
     id="namedview4842" /><g
     id="g4848"
     inkscape:groupmode="layer"
     inkscape:label="2020-1209-2000-crop"
     transform="matrix(1.3333333,0,0,-1.3333333,0,149.33333)"><g
       id="g4850"
       transform="translate(-27,-19)"><g
         id="g4852"><g
           id="g4854"
           clip-path="url(#clipPath4858)"><g
             id="g4860"
             transform="matrix(0.73333,0,0,-0.73333,27.467,130)"><g
               id="g4862"><g
                 id="g4864"
                 clip-path="url(#clipPath4868)"><g
                   id="g4870"><g
                     id="g4872" /></g><g
                   id="g4874"><g
                     id="g4876"
                     clip-path="url(#clipPath4880)"><g
                       id="g4882"
                       transform="scale(0.56693)" /></g></g><g
                   id="g4884"
                   transform="scale(0.56693)"><g
                     id="g4886"
                     clip-path="url(#clipPath4890)"><path
                       d="M 0,0 H 365 V 266 H 0 Z"
                       style="fill:#ffffff;fill-opacity:1;fill-rule:nonzero;stroke:none"
                       id="path4892" /><path
                       d="M 117.79,2 V 266"
                       style="fill:none;stroke:#000000;stroke-width:1;stroke-linecap:butt;stroke-linejoin:miter;stroke-miterlimit:10;stroke-dasharray:none;stroke-opacity:1"
                       id="path4894" /><path
                       d="m 117.79,1 -4,4"
                       style="fill:none;stroke:#000000;stroke-width:1;stroke-linecap:butt;stroke-linejoin:miter;stroke-miterlimit:10;stroke-dasharray:none;stroke-opacity:1"
                       id="path4896" /><path
                       d="m 117.79,1 4,4"
                       style="fill:none;stroke:#000000;stroke-width:1;stroke-linecap:butt;stroke-linejoin:miter;stroke-miterlimit:10;stroke-dasharray:none;stroke-opacity:1"
                       id="path4898" /><path
                       d="m 347.12,196 3.04,-4.31 -2.82,-3.99 h 1.77 l 1.27,1.94 c 0.23,0.38 0.43,0.69 0.57,0.94 0.23,-0.35 0.45,-0.65 0.64,-0.92 l 1.39,-1.96 h 1.69 l -2.87,3.91 3.09,4.39 h -1.73 l -1.71,-2.58 -0.45,-0.7 -2.17,3.28 z"
                       style="fill:#000000;fill-opacity:1;fill-rule:nonzero;stroke:none"
                       id="path4900" /><path
                       d="M 0,200.71 H 363"
                       style="fill:none;stroke:#000000;stroke-width:1;stroke-linecap:butt;stroke-linejoin:miter;stroke-miterlimit:10;stroke-dasharray:none;stroke-opacity:1"
                       id="path4902" /><path
                       d="m 364,200.71 -4,-4"
                       style="fill:none;stroke:#000000;stroke-width:1;stroke-linecap:butt;stroke-linejoin:miter;stroke-miterlimit:10;stroke-dasharray:none;stroke-opacity:1"
                       id="path4904" /><path
                       d="m 364,200.71 -4,4"
                       style="fill:none;stroke:#000000;stroke-width:1;stroke-linecap:butt;stroke-linejoin:miter;stroke-miterlimit:10;stroke-dasharray:none;stroke-opacity:1"
                       id="path4906" /><path
                       d="m 123,24.203 -0.16,-1.328 c 0.31,0.083 0.57,0.125 0.8,0.125 0.31,0 0.56,-0.052 0.75,-0.156 0.19,-0.104 0.34,-0.25 0.47,-0.438 0.08,-0.135 0.22,-0.484 0.42,-1.047 0.03,-0.073 0.07,-0.187 0.13,-0.343 l -3.14,-8.313 h 1.51 l 1.72,4.797 c 0.23,0.615 0.43,1.255 0.61,1.922 0.16,-0.646 0.35,-1.276 0.58,-1.891 l 1.76,-4.828 h 1.41 l -3.16,8.438 c -0.33,0.916 -0.59,1.547 -0.78,1.89 -0.25,0.459 -0.53,0.797 -0.86,1.016 -0.32,0.219 -0.71,0.328 -1.15,0.328 -0.27,0 -0.58,-0.057 -0.91,-0.172 z"
                       style="fill:#000000;fill-opacity:1;fill-rule:nonzero;stroke:none"
                       id="path4908" /><path
                       d="m 8.5547,-9.4917 2.8513,6.5869 2.852,6.3805 2.851,6.1806 2.852,5.9867 2.851,5.799 2.852,5.618 2.852,5.441 2.851,5.271 2.852,5.106 2.851,4.946 2.852,4.791 2.851,4.641 2.852,4.495 2.852,4.354 2.851,4.218 2.852,4.086 2.851,3.958 2.852,3.833 2.851,3.714 2.852,3.597 2.852,3.485 2.851,3.375 2.852,3.27 2.851,3.169 2.852,3.07 2.851,2.97 2.852,2.88 2.851,2.78 2.852,2.71 2.852,2.61 2.851,2.54 2.852,2.45 2.855,2.38 2.85,2.3 2.85,2.23 2.85,2.16 2.85,2.1 2.85,2.03 2.86,1.96 2.85,1.9 2.85,1.85 2.85,1.78 2.85,1.73 2.85,1.68 2.86,1.62 2.85,1.57 2.85,1.53 2.85,1.47 2.85,1.43 2.85,1.38 2.85,1.34 2.86,1.3 2.85,1.26 2.85,1.22 2.85,1.18 2.85,1.14 2.85,1.11 2.86,1.07 2.85,1.04 2.85,1.01 2.85,0.97 2.85,0.95 2.85,0.91 2.85,0.89 2.86,0.86 2.85,0.83 2.85,0.81 2.85,0.78 2.85,0.75 2.85,0.73 2.86,0.71 2.85,0.69 2.85,0.67 2.85,0.64 2.85,0.62 2.85,0.61 2.85,0.59 2.86,0.56 2.85,0.55 2.85,0.54 2.85,0.51 2.85,0.5 2.85,0.49 2.86,0.46 2.85,0.46 2.85,0.44 2.85,0.42 2.85,0.42 2.85,0.4 2.86,0.38 2.85,0.38 2.85,0.36 2.85,0.35 2.85,0.35 2.85,0.33 2.85,0.32 2.86,0.31 2.85,0.3 2.85,0.29 2.85,0.28 2.85,0.27 2.85,0.27 2.86,0.25 2.85,0.25 2.85,0.24 2.85,0.23 2.85,0.23 2.85,0.22 2.86,0.21 2.85,0.2 2.85,0.2 2.85,0.19 2.85,0.19 2.85,0.18 2.85,0.18 2.86,0.16 2.85,0.17 2.85,0.16 2.85,0.15 2.85,0.15 2.85,0.14 2.86,0.14 2.85,0.14 2.85,0.13 2.85,0.13"
                       style="fill:none;stroke:#006400;stroke-width:1.5;stroke-linecap:round;stroke-linejoin:round;stroke-miterlimit:10;stroke-dasharray:none;stroke-opacity:0.69804"
                       id="path4910" /><path
                       d="m 123.69,-10.105 0.35,5.2555 0.72,9.6668 0.71,8.7247 m 0,0 0.71,7.949 0.71,7.301 0.72,6.751 0.71,6.277 0.71,5.866 0.72,5.505 0.71,5.186 0.71,4.903 1.43,9.066 1.42,8.233 1.43,7.539 1.43,6.953 m 0,0 1.42,6.449 1.43,6.02 1.42,5.64 1.43,5.31 2.85,9.75 2.85,8.79 2.85,8.01 2.85,7.35 2.86,6.79 2.85,6.31 2.85,5.9 2.85,5.53 2.85,5.21 2.85,4.93 2.86,4.66 2.85,4.44 2.85,4.23 2.85,4.03 m 0,0 2.85,3.87 2.85,3.7 2.85,3.55 2.86,3.42 2.85,3.3 2.85,3.17 2.85,3.07 2.85,2.97 2.85,2.87 2.86,2.78 2.85,2.7 2.85,2.62 2.85,2.55 2.85,2.47 2.85,2.41 2.85,2.34 2.86,2.29 2.85,2.23 2.85,2.17 2.85,2.13 2.85,2.07 2.85,2.03 2.86,1.98 2.85,1.94 2.85,1.89 2.85,1.86"
                       style="fill:none;stroke:#cc0000;stroke-width:1.5;stroke-linecap:round;stroke-linejoin:round;stroke-miterlimit:10;stroke-dasharray:none;stroke-opacity:0.69804"
                       id="path4912" /><path
                       d="M 16.454,271 292.45,-5"
                       style="fill:none;stroke:#000000;stroke-width:1.5;stroke-linecap:round;stroke-linejoin:round;stroke-miterlimit:10;stroke-dasharray:none;stroke-opacity:0.69804"
                       id="path4914" /><path
                       d="m 120.79,138.63 c 0,1.65 -1.35,3 -3,3 -1.66,0 -3,-1.35 -3,-3 0,-1.66 1.34,-3 3,-3 1.65,0 3,1.34 3,3 z"
                       style="fill:#000000;fill-opacity:1;fill-rule:nonzero;stroke:none"
                       id="path4916" /><g
                       id="g4918"
                       transform="scale(19)"><g
                         id="g4920"
                         transform="matrix(0.01,0,0,0.01,5.4211,7.9598)"><path
                           d="m 29.406,-64 v 56.0938 c 0,2 0.396,3.2708 1.188,3.8124 1.135,0.6667 3.838,1 8.109,1 h 3.203 V 0 C 39.573,-0.19792 34.172,-0.29688 25.703,-0.29688 17.234,-0.29688 11.833,-0.19792 9.5,0 v -3.0938 h 3.203 c 5.136,0 8.068,-0.6041 8.797,-1.8124 L 21.594,-5 C 21.865,-5.5312 22,-6.5 22,-7.9062 V -59.703 c -3.469,1.739 -7.833,2.609 -13.0938,2.609 v -3.109 c 7.9998,0 14.0628,-2.13 18.1878,-6.391 1.271,0 2.005,0.229 2.203,0.688 v 0 0.109 c 0.073,0.198 0.109,0.797 0.109,1.797 z"
                           style="fill:#000000;fill-opacity:1;fill-rule:nonzero;stroke:none"
                           id="path4922" /><g
                           id="g4924"
                           transform="matrix(5.2632,0,0,5.2632,-542.11,-795.98)"><path
                             d="m 182.87,200.71 c 0,1.65 -1.34,3 -3,3 -1.66,0 -3,-1.35 -3,-3 0,-1.66 1.34,-3 3,-3 1.66,0 3,1.34 3,3 z"
                             style="fill:#000000;fill-opacity:1;fill-rule:nonzero;stroke:none"
                             id="path4926" /><g
                             id="g4928"
                             transform="matrix(0.19,0,0,0.19,174.0001,220.229)"><path
                               d="m 29.406,-64 v 56.0938 c 0,2 0.396,3.2708 1.188,3.8124 1.135,0.6667 3.838,1 8.109,1 h 3.203 V 0 C 39.573,-0.19792 34.172,-0.29688 25.703,-0.29688 17.234,-0.29688 11.833,-0.19792 9.5,0 v -3.0938 h 3.203 c 5.136,0 8.068,-0.6041 8.797,-1.8124 L 21.594,-5 C 21.865,-5.5312 22,-6.5 22,-7.9062 V -59.703 c -3.469,1.739 -7.833,2.609 -13.0938,2.609 v -3.109 c 7.9998,0 14.0628,-2.13 18.1878,-6.391 1.271,0 2.005,0.229 2.203,0.688 v 0 0.109 c 0.073,0.198 0.109,0.797 0.109,1.797 z"
                               style="fill:#000000;fill-opacity:1;fill-rule:nonzero;stroke:none"
                               id="path4930" /><g
                               id="g4932"
                               transform="matrix(5.2632,0,0,5.2632,-915.79,-1159.1)"><path
                                 d="m 120.79,200.71 c 0,1.65 -1.35,3 -3,3 -1.66,0 -3,-1.35 -3,-3 0,-1.66 1.34,-3 3,-3 1.65,0 3,1.34 3,3 z"
                                 style="fill:#000000;fill-opacity:1;fill-rule:nonzero;stroke:none"
                                 id="path4934" /><g
                                 id="g4936"
                                 transform="matrix(0.19,0,0,0.19,98.0001,220.97)"><path
                                   d="m 74,-43.594 v 0 C 74,-33.26 70.333,-23.698 63,-14.906 56.396,-6.9062 48.661,-1.6354 39.797,0.90625 36.661,1.7708 33.562,2.2031 30.5,2.2031 22.167,2.2031 15.599,-0.72917 10.797,-6.5938 6.8698,-11.396 4.9062,-17.365 4.9062,-24.5 c 0,-10 3.5626,-19.469 10.6878,-28.406 6.604,-8.063 14.338,-13.427 23.203,-16.094 3.271,-1 6.505,-1.5 9.703,-1.5 8.469,0 15.104,3.068 19.906,9.203 3.729,4.802 5.594,10.703 5.594,17.703 z M 31.094,-0.40625 v 0 c 6.271,0 12.307,-2.79685 18.109,-8.39065 1.198,-1.1354 2.297,-2.3381 3.297,-3.6091 6.531,-8.125 10.562,-17.823 12.094,-29.094 0.333,-2.198 0.5,-4.198 0.5,-6 0,-9.135 -3.063,-15.333 -9.188,-18.594 -0.073,0 -0.14,-0.036 -0.203,-0.109 C 53.297,-67.401 50.698,-68 47.906,-68 c -6.271,0 -12.338,2.698 -18.203,8.094 -2.406,2.135 -4.542,4.635 -6.406,7.5 -5.063,7.666 -8.026,16.833 -8.891,27.5 -0.135,1.208 -0.203,2.276 -0.203,3.203 0,8.531 2.568,14.6665 7.703,18.4061 2.667,1.9271 5.729,2.89065 9.188,2.89065 z"
                                   style="fill:#000000;fill-opacity:1;fill-rule:nonzero;stroke:none"
                                   id="path4938" /><g
                                   id="g4940"
                                   transform="matrix(5.2632,0,0,5.2632,-515.79,-1163)"><g
                                   id="g4942"
                                   transform="scale(19)"><g
                                   id="g4944"
                                   transform="matrix(0.01,0,0,0.01,14.105,9.2935)"><path
                                   d="M 48.594,-38.094 39,0.09375 C 37.396,6.6354 33.828,11.938 28.297,16 24.234,19 20,20.5 15.594,20.5 11.135,20.5 7.9688,18.969 6.0938,15.906 5.3646,14.635 5,13.266 5,11.797 5,8.401 6.3646,6.3021 9.0938,5.5 9.6354,5.3646 10.135,5.2969 10.594,5.2969 c 2.135,0 3.338,0.9323 3.609,2.7969 0.063,0.2083 0.094,0.4427 0.094,0.7031 0,1.5311 -0.667,2.9011 -2,4.1091 -0.927,0.792 -2.3595,1.188 -4.297,1.188 1.1979,2.802 3.729,4.203 7.594,4.203 4.135,0 7.802,-2.099 11,-6.297 2.604,-3.4688 4.672,-8.1667 6.203,-14.0938 0.073,-0.2708 0.172,-0.7083 0.297,-1.3124 -3,2.99995 -6.365,4.5 -10.094,4.5 -5.333,0 -8.969,-1.96359 -10.906,-5.8907 -0.865,-1.7396 -1.297,-3.7396 -1.297,-6.0001 0,-3.667 1.765,-10.234 5.297,-19.703 0.135,-0.396 0.302,-0.828 0.5,-1.297 1.135,-3.073 1.703,-5.406 1.703,-7 0,-2.135 -0.833,-3.203 -2.5,-3.203 -3.667,0 -6.6668,3.031 -9.0001,9.094 v 0.109 c -0.3959,1 -0.7604,2.068 -1.0938,3.203 -0.7396,1.125 -1.276,1.724 -1.6093,1.797 -0.7917,0 -1.1876,-0.333 -1.1876,-1 0,-1.198 0.698,-3.297 2.0938,-6.297 2.9375,-6.073 6.635,-9.109 11.094,-9.109 3.541,0 6.01,1.5 7.406,4.5 0.531,1.135 0.797,2.37 0.797,3.703 0,1.396 -0.667,3.797 -2,7.203 -3.396,8.802 -5.094,15.333 -5.094,19.5939 0,5.4062 2.068,8.1093 6.203,8.1093 3.865,0 7.229,-2.0677 10.094,-6.2031 0.667,-1 1.068,-1.7656 1.203,-2.2969 l 4.5,-18.0002 c 0.469,-2.208 1.136,-4.875 2,-8 0.667,-2.875 1.13,-4.677 1.391,-5.406 0.875,-1.396 2.041,-2.094 3.5,-2.094 1.666,0.334 2.635,1.229 2.906,2.688 0,0.604 -0.135,1.375 -0.406,2.312 z"
                                   style="fill:#006400;fill-opacity:1;fill-rule:nonzero;stroke:none"
                                   id="path4946" /><g
                                   id="g4948"
                                   transform="translate(80.4)"><path
                                   d="M 68.703,-32.703 H 9 c -2.1354,0 -3.2708,-0.667 -3.4062,-2 0,-1.333 1.1041,-2 3.3124,-2 H 68.797 c 2.135,0 3.234,0.667 3.297,2 0,1.333 -1.13,2 -3.391,2 z m 0.094,19.406 H 8.9062 c -2.1354,0 -3.2395,-0.667 -3.3124,-2 0,-1.333 1.1354,-2 3.4062,-2 h 59.703 c 2.136,0 3.266,0.667 3.391,2 0,1.333 -1.099,2 -3.297,2 z"
                                   style="fill:#006400;fill-opacity:1;fill-rule:nonzero;stroke:none"
                                   id="path4950" /><g
                                   id="g4952"
                                   transform="translate(105.6)"><path
                                   d="m 37.297,-37.797 c 0.333,-2.271 1.37,-3.672 3.109,-4.203 0.334,-0.135 0.698,-0.203 1.094,-0.203 1.729,0 2.698,0.901 2.906,2.703 0,0.396 -0.234,1.531 -0.703,3.406 l -3.609,14 c -1,4.198 -1.729,7.198 -2.188,9 -0.875,3.4586 -1.312,5.9221 -1.312,7.3909 0,3.0729 1,4.6093 3,4.6093 2.541,0 4.677,-2.6666 6.406,-8 0.333,-1.1352 0.734,-2.6042 1.203,-4.4062 0.531,-1.135 0.995,-1.734 1.391,-1.797 0.802,0 1.203,0.333 1.203,1 0,1 -0.599,3.333 -1.797,7.0001 -0.396,1.1354 -0.797,2.099 -1.203,2.8907 -1.865,3.66662 -4.328,5.5 -7.391,5.5 -3.739,0 -6.442,-1.59901 -8.109,-4.7969 -0.469,-0.8021 -0.802,-1.7031 -1,-2.7031 -4.198,5 -8.531,7.5 -13,7.5 -5,0 -8.698,-2.2657 -11.0939,-6.7969 C 4.7344,-8.3698 4,-11.438 4,-14.906 c 0,-7.198 2.5,-13.865 7.5,-20 4.667,-5.594 9.734,-8.656 15.203,-9.188 0.469,-0.073 0.932,-0.109 1.391,-0.109 4.073,0 7.14,2.135 9.203,6.406 z m -6.5,25.891 v 0 l 5,-19.594 c 0.198,-1 0.297,-1.568 0.297,-1.703 0,-1.396 -0.599,-3.094 -1.797,-5.094 -1.469,-2.469 -3.5,-3.703 -6.094,-3.703 -3.469,0 -6.771,2.266 -9.906,6.797 -0.594,0.864 -1.162,1.797 -1.703,2.797 -1.927,3.875 -3.558,9.375 -4.891,16.5 -0.406,2.271 -0.609,4.073 -0.609,5.406 0,4.5312 1.271,7.4635 3.812,8.7969 0.729,0.4062 1.594,0.6093 2.594,0.6093 3.729,0 7.495,-2.3697 11.297,-7.1093 0.937,-1.0625 1.573,-2.1619 1.906,-3.2969 v -0.094 c 0.063,-0.135 0.094,-0.239 0.094,-0.312 z"
                                   style="fill:#006400;fill-opacity:1;fill-rule:nonzero;stroke:none"
                                   id="path4954" /><g
                                   id="g4956"
                                   transform="matrix(0.7,0,0,0.7,52.9,-41.29)"><path
                                   d="M 33.406,-30.203 30,-16.5 c -1.135,4.531 -1.703,7.4635 -1.703,8.7969 0,3.4687 1.234,5.5677 3.703,6.2969 0.531,0.2083 1.13,0.3124 1.797,0.3124 3.333,0 6.37,-1.6666 9.109,-5 1.792,-2.1354 3.188,-4.8382 4.188,-8.1092 0.208,-0.729 0.646,-1.094 1.312,-1.094 0.792,0 1.188,0.333 1.188,1 0,1.667 -1.032,4.068 -3.094,7.2032 -3.604,5.4584 -7.906,8.1876 -12.906,8.1876 -4.532,0 -7.828,-1.89588 -9.891,-5.6876 -0.406,-0.6041 -0.708,-1.2395 -0.906,-1.9062 -1.594,3.1979 -3.792,5.4323 -6.594,6.70312 -1.271,0.59376 -2.573,0.89068 -3.906,0.89068 -4.0001,0 -6.797,-1.166717 -8.3908,-3.5 -0.6666,-0.8646 -1,-1.8959 -1,-3.0938 0,-2.4688 1.0626,-4.2031 3.1876,-5.203 0.7395,-0.396 1.5104,-0.594 2.3124,-0.594 1.9998,0 3.1978,0.833 3.5938,2.5001 0.062,0.3334 0.094,0.6667 0.094,1 0,2.2604 -1.13,3.9271 -3.3909,5 -0.4062,0.1979 -0.8385,0.3281 -1.2969,0.3907 1.3959,0.875 3.0628,1.3124 4.9998,1.3124 3.532,0 6.328,-2.3697 8.391,-7.1093 0.406,-1 0.776,-2.0989 1.109,-3.2969 3.594,-13.604 5.391,-21.536 5.391,-23.797 -0.396,-4.135 -2.193,-6.37 -5.391,-6.703 -3.468,0 -6.635,1.766 -9.5,5.297 v 0.109 c 0,0.063 -0.036,0.094 -0.109,0.094 -1,1.333 -1.901,2.865 -2.7032,4.594 -0.3334,0.802 -0.6303,1.604 -0.8907,2.406 L 8.5,-28.906 c -0.1354,0.739 -0.5677,1.109 -1.2969,1.109 -0.8021,0 -1.2031,-0.333 -1.2031,-1 0,-1.667 1.0677,-4.068 3.2031,-7.203 3.5939,-5.469 7.8909,-8.203 12.8909,-8.203 5.135,0 8.739,2.536 10.812,7.609 2.125,-4.135 4.959,-6.604 8.5,-7.406 0.667,-0.135 1.334,-0.203 2,-0.203 3.927,0 6.693,1.099 8.297,3.297 0.667,0.937 1,2.041 1,3.312 0,2.729 -1.234,4.563 -3.703,5.5 -0.604,0.198 -1.172,0.297 -1.703,0.297 -2.063,0 -3.297,-0.901 -3.703,-2.703 -0.063,-0.271 -0.094,-0.536 -0.094,-0.797 0,-2 0.969,-3.568 2.906,-4.703 0.594,-0.333 1.224,-0.568 1.891,-0.703 -1.396,-0.865 -3.063,-1.297 -5,-1.297 -4.531,0 -7.729,3.531 -9.594,10.594 -0.135,0.406 -0.234,0.807 -0.297,1.203 z"
                                   style="fill:#006400;fill-opacity:1;fill-rule:nonzero;stroke:none"
                                   id="path4958" /><g
                                   id="g4960"
                                   transform="matrix(7.5190075,0,0,7.5190075,-2356.3,-1268.7)"><g
                                   id="g4962"
                                   transform="scale(19)"><g
                                   id="g4964"
                                   transform="matrix(0.01,0,0,0.01,12.105,12.694)"><path
                                   d="M 48.594,-38.094 39,0.09375 C 37.396,6.6354 33.828,11.938 28.297,16 24.234,19 20,20.5 15.594,20.5 11.135,20.5 7.9688,18.969 6.0938,15.906 5.3646,14.635 5,13.266 5,11.797 5,8.401 6.3646,6.3021 9.0938,5.5 9.6354,5.3646 10.135,5.2969 10.594,5.2969 c 2.135,0 3.338,0.9323 3.609,2.7969 0.063,0.2083 0.094,0.4427 0.094,0.7031 0,1.5311 -0.667,2.9011 -2,4.1091 -0.927,0.792 -2.3595,1.188 -4.297,1.188 1.1979,2.802 3.729,4.203 7.594,4.203 4.135,0 7.802,-2.099 11,-6.297 2.604,-3.4688 4.672,-8.1667 6.203,-14.0938 0.073,-0.2708 0.172,-0.7083 0.297,-1.3124 -3,2.99995 -6.365,4.5 -10.094,4.5 -5.333,0 -8.969,-1.96359 -10.906,-5.8907 -0.865,-1.7396 -1.297,-3.7396 -1.297,-6.0001 0,-3.667 1.765,-10.234 5.297,-19.703 0.135,-0.396 0.302,-0.828 0.5,-1.297 1.135,-3.073 1.703,-5.406 1.703,-7 0,-2.135 -0.833,-3.203 -2.5,-3.203 -3.667,0 -6.6668,3.031 -9.0001,9.094 v 0.109 c -0.3959,1 -0.7604,2.068 -1.0938,3.203 -0.7396,1.125 -1.276,1.724 -1.6093,1.797 -0.7917,0 -1.1876,-0.333 -1.1876,-1 0,-1.198 0.698,-3.297 2.0938,-6.297 2.9375,-6.073 6.635,-9.109 11.094,-9.109 3.541,0 6.01,1.5 7.406,4.5 0.531,1.135 0.797,2.37 0.797,3.703 0,1.396 -0.667,3.797 -2,7.203 -3.396,8.802 -5.094,15.333 -5.094,19.5939 0,5.4062 2.068,8.1093 6.203,8.1093 3.865,0 7.229,-2.0677 10.094,-6.2031 0.667,-1 1.068,-1.7656 1.203,-2.2969 l 4.5,-18.0002 c 0.469,-2.208 1.136,-4.875 2,-8 0.667,-2.875 1.13,-4.677 1.391,-5.406 0.875,-1.396 2.041,-2.094 3.5,-2.094 1.666,0.334 2.635,1.229 2.906,2.688 0,0.604 -0.135,1.375 -0.406,2.312 z"
                                   style="fill:#cc0000;fill-opacity:1;fill-rule:nonzero;stroke:none"
                                   id="path4966" /><g
                                   id="g4968"
                                   transform="translate(80.4)"><path
                                   d="M 68.703,-32.703 H 9 c -2.1354,0 -3.2708,-0.667 -3.4062,-2 0,-1.333 1.1041,-2 3.3124,-2 H 68.797 c 2.135,0 3.234,0.667 3.297,2 0,1.333 -1.13,2 -3.391,2 z m 0.094,19.406 H 8.9062 c -2.1354,0 -3.2395,-0.667 -3.3124,-2 0,-1.333 1.1354,-2 3.4062,-2 h 59.703 c 2.136,0 3.266,0.667 3.391,2 0,1.333 -1.099,2 -3.297,2 z"
                                   style="fill:#cc0000;fill-opacity:1;fill-rule:nonzero;stroke:none"
                                   id="path4970" /><g
                                   id="g4972"
                                   transform="translate(105.6)"><path
                                   d="m 17.703,-69.406 v 61.8122 c 0,2.2605 0.531,3.5938 1.594,4 0.739,0.3334 2.807,0.5 6.203,0.5 V 0 L 14.406,-0.29688 C 13.604,-0.29688 9.901,-0.19792 3.2969,0 v -3.0938 c 3.9375,0 6.2396,-0.302 6.9061,-0.9062 l 0.203,-0.2031 c 0.459,-0.5313 0.688,-1.6615 0.688,-3.3907 V -59.594 c 0,-2.604 -0.464,-4.208 -1.3909,-4.812 H 9.5938 C 8.8646,-64.802 7.599,-65.068 5.7969,-65.203 h -2.5 v -3.094 z"
                                   style="fill:#cc0000;fill-opacity:1;fill-rule:nonzero;stroke:none"
                                   id="path4974" /><g
                                   id="g4976"
                                   transform="translate(27.8)"><path
                                   d="m 47.094,-21.406 v 0 c 0,6.875 -2.532,12.5414 -7.594,16.9998 -4.198,3.66662 -9.062,5.5 -14.594,5.5 -6.406,0 -11.807,-2.3959 -16.2029,-7.1876 -3.9375,-4.3332 -5.9062,-9.4372 -5.9062,-15.3122 0,-6.792 2.4323,-12.521 7.2971,-17.188 4.208,-4.135 9.177,-6.203 14.906,-6.203 6.469,0 11.901,2.568 16.297,7.703 3.864,4.459 5.797,9.688 5.797,15.688 z M 25,-1.4062 v 0 c 4.469,0 8,-1.8646 10.594,-5.5938 l 1,-1.7969 c 1.468,-2.9371 2.203,-7.4061 2.203,-13.4061 0,-6.396 -0.865,-11.026 -2.594,-13.891 -2.864,-4.135 -6.63,-6.302 -11.297,-6.5 -4.135,0 -7.536,1.667 -10.203,5 -0.469,0.532 -0.87,1.094 -1.203,1.688 -1.604,2.937 -2.406,7.505 -2.406,13.703 0,6.469 0.833,11.172 2.5,14.1092 2.802,4.3334 6.604,6.5626 11.406,6.6876 z"
                                   style="fill:#cc0000;fill-opacity:1;fill-rule:nonzero;stroke:none"
                                   id="path4978" /><g
                                   id="g4980"
                                   transform="translate(50)"><path
                                   d="m 22.203,-17.203 c 2.927,0 5.292,-1.333 7.094,-4 1.073,-1.802 1.609,-4.599 1.609,-8.391 -0.271,-8 -3.172,-12.104 -8.703,-12.312 -2.937,0 -5.307,1.333 -7.109,4 -1.063,1.802 -1.594,4.604 -1.594,8.406 0.271,8 3.172,12.099 8.703,12.297 z M 12.297,-18 c -1.136,1.333 -1.703,2.901 -1.703,4.703 0,2.729 1.067,4.7293 3.203,6.0001 0.667,0.3959 1.37,0.6302 2.109,0.7031 0.459,0.0626 2.959,0.0938 7.5,0.0938 6.865,0 11.865,0.599 15,1.7969 0.729,0.2708 1.459,0.6041 2.188,1 4.073,2.6666 6.239,6.4687 6.5,11.4062 0,4.3329 -2.797,7.7349 -8.391,10.2029 -4,1.792 -8.599,2.688 -13.797,2.688 -7.739,0 -13.776,-1.797 -18.1091,-5.391 -2.6667,-2.135 -4,-4.568 -4,-7.2968 C 2.7969,4.5729 4.5,1.8385 7.9062,-0.29688 9.1042,-1.099 10.469,-1.6979 12,-2.0938 9.2708,-4.2292 7.8021,-7.1979 7.5938,-11 c 0,-3.135 1.0364,-5.901 3.1092,-8.297 C 7.7031,-22.161 6.1354,-25.594 6,-29.594 c 0,-4.604 2,-8.375 6,-11.312 2.938,-2.198 6.339,-3.297 10.203,-3.297 4,0 7.531,1.203 10.594,3.609 3.198,-3.135 6.734,-4.703 10.609,-4.703 2.594,0 4.224,1.198 4.891,3.594 0.135,0.406 0.203,0.838 0.203,1.297 -0.271,1.739 -1.24,2.739 -2.906,3 -1.459,0 -2.391,-0.698 -2.797,-2.094 -0.063,-0.271 -0.094,-0.536 -0.094,-0.797 0,-1.406 0.531,-2.307 1.594,-2.703 -0.198,-0.062 -0.531,-0.094 -1,-0.094 -3.261,0 -6.261,1.297 -9,3.891 2.739,2.531 4.109,5.765 4.109,9.703 0,4.604 -2,8.37 -6,11.297 -2.937,2.198 -6.338,3.297 -10.203,3.297 -3.739,0 -7.042,-1.032 -9.906,-3.094 z M 25,18.297 v 0 c 6.333,0 11.135,-1.667 14.406,-5 1.667,-1.667 2.5,-3.4637 2.5,-5.3908 0,-4.9374 -3.937,-7.73953 -11.812,-8.4062 v 0 H 30 C 28.271,-0.63542 25.635,-0.70312 22.094,-0.70312 H 16.203 C 13.068,-0.50521 10.698,0.99479 9.0938,3.7969 8.3646,5.0677 8,6.4375 8,7.9062 c 0,3.1248 1.9323,5.7238 5.797,7.7968 3.135,1.729 6.87,2.594 11.203,2.594 z"
                                   style="fill:#cc0000;fill-opacity:1;fill-rule:nonzero;stroke:none"
                                   id="path4982" /><g
                                   id="g4984"
                                   transform="matrix(0.7,0,0,0.7,51.4,22.9)"><path
                                   d="m 37.297,-37.797 c 0.333,-2.271 1.37,-3.672 3.109,-4.203 0.334,-0.135 0.698,-0.203 1.094,-0.203 1.729,0 2.698,0.901 2.906,2.703 0,0.396 -0.234,1.531 -0.703,3.406 l -3.609,14 c -1,4.198 -1.729,7.198 -2.188,9 -0.875,3.4586 -1.312,5.9221 -1.312,7.3909 0,3.0729 1,4.6093 3,4.6093 2.541,0 4.677,-2.6666 6.406,-8 0.333,-1.1352 0.734,-2.6042 1.203,-4.4062 0.531,-1.135 0.995,-1.734 1.391,-1.797 0.802,0 1.203,0.333 1.203,1 0,1 -0.599,3.333 -1.797,7.0001 -0.396,1.1354 -0.797,2.099 -1.203,2.8907 -1.865,3.66662 -4.328,5.5 -7.391,5.5 -3.739,0 -6.442,-1.59901 -8.109,-4.7969 -0.469,-0.8021 -0.802,-1.7031 -1,-2.7031 -4.198,5 -8.531,7.5 -13,7.5 -5,0 -8.698,-2.2657 -11.0939,-6.7969 C 4.7344,-8.3698 4,-11.438 4,-14.906 c 0,-7.198 2.5,-13.865 7.5,-20 4.667,-5.594 9.734,-8.656 15.203,-9.188 0.469,-0.073 0.932,-0.109 1.391,-0.109 4.073,0 7.14,2.135 9.203,6.406 z m -6.5,25.891 v 0 l 5,-19.594 c 0.198,-1 0.297,-1.568 0.297,-1.703 0,-1.396 -0.599,-3.094 -1.797,-5.094 -1.469,-2.469 -3.5,-3.703 -6.094,-3.703 -3.469,0 -6.771,2.266 -9.906,6.797 -0.594,0.864 -1.162,1.797 -1.703,2.797 -1.927,3.875 -3.558,9.375 -4.891,16.5 -0.406,2.271 -0.609,4.073 -0.609,5.406 0,4.5312 1.271,7.4635 3.812,8.7969 0.729,0.4062 1.594,0.6093 2.594,0.6093 3.729,0 7.495,-2.3697 11.297,-7.1093 0.937,-1.0625 1.573,-2.1619 1.906,-3.2969 v -0.094 c 0.063,-0.135 0.094,-0.239 0.094,-0.312 z"
                                   style="fill:#cc0000;fill-opacity:1;fill-rule:nonzero;stroke:none"
                                   id="path4986" /><g
                                   id="g4988"
                                   transform="matrix(1.4286,0,0,1.4286,76.83084,-32.63516)"><path
                                   d="M 33.406,-30.203 30,-16.5 c -1.135,4.531 -1.703,7.4635 -1.703,8.7969 0,3.4687 1.234,5.5677 3.703,6.2969 0.531,0.2083 1.13,0.3124 1.797,0.3124 3.333,0 6.37,-1.6666 9.109,-5 1.792,-2.1354 3.188,-4.8382 4.188,-8.1092 0.208,-0.729 0.646,-1.094 1.312,-1.094 0.792,0 1.188,0.333 1.188,1 0,1.667 -1.032,4.068 -3.094,7.2032 -3.604,5.4584 -7.906,8.1876 -12.906,8.1876 -4.532,0 -7.828,-1.89588 -9.891,-5.6876 -0.406,-0.6041 -0.708,-1.2395 -0.906,-1.9062 -1.594,3.1979 -3.792,5.4323 -6.594,6.70312 -1.271,0.59376 -2.573,0.89068 -3.906,0.89068 -4.0001,0 -6.797,-1.166717 -8.3908,-3.5 -0.6666,-0.8646 -1,-1.8959 -1,-3.0938 0,-2.4688 1.0626,-4.2031 3.1876,-5.203 0.7395,-0.396 1.5104,-0.594 2.3124,-0.594 1.9998,0 3.1978,0.833 3.5938,2.5001 0.062,0.3334 0.094,0.6667 0.094,1 0,2.2604 -1.13,3.9271 -3.3909,5 -0.4062,0.1979 -0.8385,0.3281 -1.2969,0.3907 1.3959,0.875 3.0628,1.3124 4.9998,1.3124 3.532,0 6.328,-2.3697 8.391,-7.1093 0.406,-1 0.776,-2.0989 1.109,-3.2969 3.594,-13.604 5.391,-21.536 5.391,-23.797 -0.396,-4.135 -2.193,-6.37 -5.391,-6.703 -3.468,0 -6.635,1.766 -9.5,5.297 v 0.109 c 0,0.063 -0.036,0.094 -0.109,0.094 -1,1.333 -1.901,2.865 -2.7032,4.594 -0.3334,0.802 -0.6303,1.604 -0.8907,2.406 L 8.5,-28.906 c -0.1354,0.739 -0.5677,1.109 -1.2969,1.109 -0.8021,0 -1.2031,-0.333 -1.2031,-1 0,-1.667 1.0677,-4.068 3.2031,-7.203 3.5939,-5.469 7.8909,-8.203 12.8909,-8.203 5.135,0 8.739,2.536 10.812,7.609 2.125,-4.135 4.959,-6.604 8.5,-7.406 0.667,-0.135 1.334,-0.203 2,-0.203 3.927,0 6.693,1.099 8.297,3.297 0.667,0.937 1,2.041 1,3.312 0,2.729 -1.234,4.563 -3.703,5.5 -0.604,0.198 -1.172,0.297 -1.703,0.297 -2.063,0 -3.297,-0.901 -3.703,-2.703 -0.063,-0.271 -0.094,-0.536 -0.094,-0.797 0,-2 0.969,-3.568 2.906,-4.703 0.594,-0.333 1.224,-0.568 1.891,-0.703 -1.396,-0.865 -3.063,-1.297 -5,-1.297 -4.531,0 -7.729,3.531 -9.594,10.594 -0.135,0.406 -0.234,0.807 -0.297,1.203 z"
                                   style="fill:#cc0000;fill-opacity:1;fill-rule:nonzero;stroke:none"
                                   id="path4990" /><g
                                   id="g4992"
                                   transform="matrix(5.2632,0,0,5.2632,-1579.4,-1269.4)"><g
                                   id="g4994"
                                   transform="scale(19)"><g
                                   id="g4996"
                                   transform="matrix(0.01,0,0,0.01,11,5.6883)"><path
                                   d="M 48.594,-38.094 39,0.09375 C 37.396,6.6354 33.828,11.938 28.297,16 24.234,19 20,20.5 15.594,20.5 11.135,20.5 7.9688,18.969 6.0938,15.906 5.3646,14.635 5,13.266 5,11.797 5,8.401 6.3646,6.3021 9.0938,5.5 9.6354,5.3646 10.135,5.2969 10.594,5.2969 c 2.135,0 3.338,0.9323 3.609,2.7969 0.063,0.2083 0.094,0.4427 0.094,0.7031 0,1.5311 -0.667,2.9011 -2,4.1091 -0.927,0.792 -2.3595,1.188 -4.297,1.188 1.1979,2.802 3.729,4.203 7.594,4.203 4.135,0 7.802,-2.099 11,-6.297 2.604,-3.4688 4.672,-8.1667 6.203,-14.0938 0.073,-0.2708 0.172,-0.7083 0.297,-1.3124 -3,2.99995 -6.365,4.5 -10.094,4.5 -5.333,0 -8.969,-1.96359 -10.906,-5.8907 -0.865,-1.7396 -1.297,-3.7396 -1.297,-6.0001 0,-3.667 1.765,-10.234 5.297,-19.703 0.135,-0.396 0.302,-0.828 0.5,-1.297 1.135,-3.073 1.703,-5.406 1.703,-7 0,-2.135 -0.833,-3.203 -2.5,-3.203 -3.667,0 -6.6668,3.031 -9.0001,9.094 v 0.109 c -0.3959,1 -0.7604,2.068 -1.0938,3.203 -0.7396,1.125 -1.276,1.724 -1.6093,1.797 -0.7917,0 -1.1876,-0.333 -1.1876,-1 0,-1.198 0.698,-3.297 2.0938,-6.297 2.9375,-6.073 6.635,-9.109 11.094,-9.109 3.541,0 6.01,1.5 7.406,4.5 0.531,1.135 0.797,2.37 0.797,3.703 0,1.396 -0.667,3.797 -2,7.203 -3.396,8.802 -5.094,15.333 -5.094,19.5939 0,5.4062 2.068,8.1093 6.203,8.1093 3.865,0 7.229,-2.0677 10.094,-6.2031 0.667,-1 1.068,-1.7656 1.203,-2.2969 l 4.5,-18.0002 c 0.469,-2.208 1.136,-4.875 2,-8 0.667,-2.875 1.13,-4.677 1.391,-5.406 0.875,-1.396 2.041,-2.094 3.5,-2.094 1.666,0.334 2.635,1.229 2.906,2.688 0,0.604 -0.135,1.375 -0.406,2.312 z"
                                   style="fill:#000000;fill-opacity:1;fill-rule:nonzero;stroke:none"
                                   id="path4998" /><g
                                   id="g5000"
                                   transform="translate(80.4)"><path
                                   d="M 68.703,-32.703 H 9 c -2.1354,0 -3.2708,-0.667 -3.4062,-2 0,-1.333 1.1041,-2 3.3124,-2 H 68.797 c 2.135,0 3.234,0.667 3.297,2 0,1.333 -1.13,2 -3.391,2 z m 0.094,19.406 H 8.9062 c -2.1354,0 -3.2395,-0.667 -3.3124,-2 0,-1.333 1.1354,-2 3.4062,-2 h 59.703 c 2.136,0 3.266,0.667 3.391,2 0,1.333 -1.099,2 -3.297,2 z"
                                   style="fill:#000000;fill-opacity:1;fill-rule:nonzero;stroke:none"
                                   id="path5002" /><g
                                   id="g5004"
                                   transform="translate(105.6)"><path
                                   d="M 33.406,-30.203 30,-16.5 c -1.135,4.531 -1.703,7.4635 -1.703,8.7969 0,3.4687 1.234,5.5677 3.703,6.2969 0.531,0.2083 1.13,0.3124 1.797,0.3124 3.333,0 6.37,-1.6666 9.109,-5 1.792,-2.1354 3.188,-4.8382 4.188,-8.1092 0.208,-0.729 0.646,-1.094 1.312,-1.094 0.792,0 1.188,0.333 1.188,1 0,1.667 -1.032,4.068 -3.094,7.2032 -3.604,5.4584 -7.906,8.1876 -12.906,8.1876 -4.532,0 -7.828,-1.89588 -9.891,-5.6876 -0.406,-0.6041 -0.708,-1.2395 -0.906,-1.9062 -1.594,3.1979 -3.792,5.4323 -6.594,6.70312 -1.271,0.59376 -2.573,0.89068 -3.906,0.89068 -4.0001,0 -6.797,-1.166717 -8.3908,-3.5 -0.6666,-0.8646 -1,-1.8959 -1,-3.0938 0,-2.4688 1.0626,-4.2031 3.1876,-5.203 0.7395,-0.396 1.5104,-0.594 2.3124,-0.594 1.9998,0 3.1978,0.833 3.5938,2.5001 0.062,0.3334 0.094,0.6667 0.094,1 0,2.2604 -1.13,3.9271 -3.3909,5 -0.4062,0.1979 -0.8385,0.3281 -1.2969,0.3907 1.3959,0.875 3.0628,1.3124 4.9998,1.3124 3.532,0 6.328,-2.3697 8.391,-7.1093 0.406,-1 0.776,-2.0989 1.109,-3.2969 3.594,-13.604 5.391,-21.536 5.391,-23.797 -0.396,-4.135 -2.193,-6.37 -5.391,-6.703 -3.468,0 -6.635,1.766 -9.5,5.297 v 0.109 c 0,0.063 -0.036,0.094 -0.109,0.094 -1,1.333 -1.901,2.865 -2.7032,4.594 -0.3334,0.802 -0.6303,1.604 -0.8907,2.406 L 8.5,-28.906 c -0.1354,0.739 -0.5677,1.109 -1.2969,1.109 -0.8021,0 -1.2031,-0.333 -1.2031,-1 0,-1.667 1.0677,-4.068 3.2031,-7.203 3.5939,-5.469 7.8909,-8.203 12.8909,-8.203 5.135,0 8.739,2.536 10.812,7.609 2.125,-4.135 4.959,-6.604 8.5,-7.406 0.667,-0.135 1.334,-0.203 2,-0.203 3.927,0 6.693,1.099 8.297,3.297 0.667,0.937 1,2.041 1,3.312 0,2.729 -1.234,4.563 -3.703,5.5 -0.604,0.198 -1.172,0.297 -1.703,0.297 -2.063,0 -3.297,-0.901 -3.703,-2.703 -0.063,-0.271 -0.094,-0.536 -0.094,-0.797 0,-2 0.969,-3.568 2.906,-4.703 0.594,-0.333 1.224,-0.568 1.891,-0.703 -1.396,-0.865 -3.063,-1.297 -5,-1.297 -4.531,0 -7.729,3.531 -9.594,10.594 -0.135,0.406 -0.234,0.807 -0.297,1.203 z"
                                   style="fill:#000000;fill-opacity:1;fill-rule:nonzero;stroke:none"
                                   id="path5006" /><g
                                   id="g5008"
                                   transform="translate(79.4)"><path
                                   d="M 40.906,-23 V 5 c 0,2.1354 -0.666,3.2344 -2,3.2969 -1.333,0 -2,-1.099 -2,-3.2969 V -23 H 8.9062 c -2.1354,0 -3.2395,-0.667 -3.3124,-2 0,-1.333 1.1041,-2 3.3124,-2 H 36.906 v -28 c 0,-2.135 0.667,-3.234 2,-3.297 1.334,0 2,1.099 2,3.297 v 28 h 27.891 c 2.135,0 3.234,0.667 3.297,2 0,1.333 -1.099,2 -3.297,2 z"
                                   style="fill:#000000;fill-opacity:1;fill-rule:nonzero;stroke:none"
                                   id="path5010" /><g
                                   id="g5012"
                                   transform="translate(100)"><path
                                   d="m 37.297,-37.797 c 0.333,-2.271 1.37,-3.672 3.109,-4.203 0.334,-0.135 0.698,-0.203 1.094,-0.203 1.729,0 2.698,0.901 2.906,2.703 0,0.396 -0.234,1.531 -0.703,3.406 l -3.609,14 c -1,4.198 -1.729,7.198 -2.188,9 -0.875,3.4586 -1.312,5.9221 -1.312,7.3909 0,3.0729 1,4.6093 3,4.6093 2.541,0 4.677,-2.6666 6.406,-8 0.333,-1.1352 0.734,-2.6042 1.203,-4.4062 0.531,-1.135 0.995,-1.734 1.391,-1.797 0.802,0 1.203,0.333 1.203,1 0,1 -0.599,3.333 -1.797,7.0001 -0.396,1.1354 -0.797,2.099 -1.203,2.8907 -1.865,3.66662 -4.328,5.5 -7.391,5.5 -3.739,0 -6.442,-1.59901 -8.109,-4.7969 -0.469,-0.8021 -0.802,-1.7031 -1,-2.7031 -4.198,5 -8.531,7.5 -13,7.5 -5,0 -8.698,-2.2657 -11.0939,-6.7969 C 4.7344,-8.3698 4,-11.438 4,-14.906 c 0,-7.198 2.5,-13.865 7.5,-20 4.667,-5.594 9.734,-8.656 15.203,-9.188 0.469,-0.073 0.932,-0.109 1.391,-0.109 4.073,0 7.14,2.135 9.203,6.406 z m -6.5,25.891 v 0 l 5,-19.594 c 0.198,-1 0.297,-1.568 0.297,-1.703 0,-1.396 -0.599,-3.094 -1.797,-5.094 -1.469,-2.469 -3.5,-3.703 -6.094,-3.703 -3.469,0 -6.771,2.266 -9.906,6.797 -0.594,0.864 -1.162,1.797 -1.703,2.797 -1.927,3.875 -3.558,9.375 -4.891,16.5 -0.406,2.271 -0.609,4.073 -0.609,5.406 0,4.5312 1.271,7.4635 3.812,8.7969 0.729,0.4062 1.594,0.6093 2.594,0.6093 3.729,0 7.495,-2.3697 11.297,-7.1093 0.937,-1.0625 1.573,-2.1619 1.906,-3.2969 v -0.094 c 0.063,-0.135 0.094,-0.239 0.094,-0.312 z"
                                   style="fill:#000000;fill-opacity:1;fill-rule:nonzero;stroke:none"
                                   id="path5014" /><g
                                   id="g5016"
                                   transform="matrix(1.000008,0,0,1.000008,18.811874,-362.31835)"><path
                                   d="m 46,-32 c 0,9.729 -1.234,17.26 -3.703,22.5938 C 38.37,-1.9375 32.573,1.9323 24.906,2.2031 18.833,2.2031 13.964,-0.19792 10.297,-5 9.5677,-5.8646 8.9375,-6.8333 8.4062,-7.9062 c -3,-5.5318 -4.5,-13.5628 -4.5,-24.0938 0,-9.802 1.2292,-17.37 3.6876,-22.703 3.3332,-7.469 8.7342,-11.432 16.2032,-11.891 H 25 c 5.938,0 10.771,2.365 14.5,7.094 v 0.094 c 0.938,1.208 1.771,2.541 2.5,4 2.667,5.666 4,13.468 4,23.406 z M 24.906,0 v 0 c 4.198,0 7.427,-2.0312 9.688,-6.0938 0.937,-1.802 1.604,-3.9372 2,-6.4062 0.739,-4.271 1.109,-11.172 1.109,-20.703 0,-9.261 -0.333,-15.761 -1,-19.5 -1.198,-6.333 -4.265,-10.13 -9.203,-11.391 -0.865,-0.208 -1.729,-0.312 -2.594,-0.312 -4.666,0 -8.067,2.333 -10.203,7 -0.739,1.604 -1.307,3.541 -1.703,5.812 -0.531,3.594 -0.797,9.724 -0.797,18.391 0,10.073 0.365,17.109 1.094,21.109 1.198,6.3961 4.13,10.2919 8.797,11.68775 C 23.031,-0.13542 23.969,0 24.906,0 Z"
                                   style="fill:#000000;fill-opacity:1;fill-rule:nonzero;stroke:none"
                                   id="path5018" /><g
                                   id="g5020"
                                   transform="translate(77.8)"><path
                                   d="M 67.5,-49.797 15,-25 67.5,-0.20312 C 68.771,0.46354 69.406,1.1979 69.406,2 c 0,1.0625 -0.5,1.6979 -1.5,1.9062 C 67.698,3.9688 67.531,4 67.406,4 67.073,4 66.469,3.7656 65.594,3.2969 L 10.203,-22.797 C 8.9323,-23.401 8.2969,-24.135 8.2969,-25 c 0,-0.865 0.6354,-1.599 1.9061,-2.203 l 55.391,-26.094 c 0.875,-0.469 1.479,-0.703 1.812,-0.703 1.063,0 1.693,0.5 1.891,1.5 0.073,0.198 0.109,0.365 0.109,0.5 0,0.802 -0.635,1.536 -1.906,2.203 z"
                                   style="fill:#000000;fill-opacity:1;fill-rule:nonzero;stroke:none"
                                   id="path5022" /><g
                                   id="g5024"
                                   transform="translate(105.6)"><path
                                   d="m 37.297,-37.797 c 0.333,-2.271 1.37,-3.672 3.109,-4.203 0.334,-0.135 0.698,-0.203 1.094,-0.203 1.729,0 2.698,0.901 2.906,2.703 0,0.396 -0.234,1.531 -0.703,3.406 l -3.609,14 c -1,4.198 -1.729,7.198 -2.188,9 -0.875,3.4586 -1.312,5.9221 -1.312,7.3909 0,3.0729 1,4.6093 3,4.6093 2.541,0 4.677,-2.6666 6.406,-8 0.333,-1.1352 0.734,-2.6042 1.203,-4.4062 0.531,-1.135 0.995,-1.734 1.391,-1.797 0.802,0 1.203,0.333 1.203,1 0,1 -0.599,3.333 -1.797,7.0001 -0.396,1.1354 -0.797,2.099 -1.203,2.8907 -1.865,3.66662 -4.328,5.5 -7.391,5.5 -3.739,0 -6.442,-1.59901 -8.109,-4.7969 -0.469,-0.8021 -0.802,-1.7031 -1,-2.7031 -4.198,5 -8.531,7.5 -13,7.5 -5,0 -8.698,-2.2657 -11.0939,-6.7969 C 4.7344,-8.3698 4,-11.438 4,-14.906 c 0,-7.198 2.5,-13.865 7.5,-20 4.667,-5.594 9.734,-8.656 15.203,-9.188 0.469,-0.073 0.932,-0.109 1.391,-0.109 4.073,0 7.14,2.135 9.203,6.406 z m -6.5,25.891 v 0 l 5,-19.594 c 0.198,-1 0.297,-1.568 0.297,-1.703 0,-1.396 -0.599,-3.094 -1.797,-5.094 -1.469,-2.469 -3.5,-3.703 -6.094,-3.703 -3.469,0 -6.771,2.266 -9.906,6.797 -0.594,0.864 -1.162,1.797 -1.703,2.797 -1.927,3.875 -3.558,9.375 -4.891,16.5 -0.406,2.271 -0.609,4.073 -0.609,5.406 0,4.5312 1.271,7.4635 3.812,8.7969 0.729,0.4062 1.594,0.6093 2.594,0.6093 3.729,0 7.495,-2.3697 11.297,-7.1093 0.937,-1.0625 1.573,-2.1619 1.906,-3.2969 v -0.094 c 0.063,-0.135 0.094,-0.239 0.094,-0.312 z"
                                   style="fill:#000000;fill-opacity:1;fill-rule:nonzero;stroke:none"
                                   id="path5026" /><g
                                   id="g5028"
                                   transform="translate(80.6)"><path
                                   d="M 67.5,-49.797 15,-25 67.5,-0.20312 C 68.771,0.46354 69.406,1.1979 69.406,2 c 0,1.0625 -0.5,1.6979 -1.5,1.9062 C 67.698,3.9688 67.531,4 67.406,4 67.073,4 66.469,3.7656 65.594,3.2969 L 10.203,-22.797 C 8.9323,-23.401 8.2969,-24.135 8.2969,-25 c 0,-0.865 0.6354,-1.599 1.9061,-2.203 l 55.391,-26.094 c 0.875,-0.469 1.479,-0.703 1.812,-0.703 1.063,0 1.693,0.5 1.891,1.5 0.073,0.198 0.109,0.365 0.109,0.5 0,0.802 -0.635,1.536 -1.906,2.203 z"
                                   style="fill:#000000;fill-opacity:1;fill-rule:nonzero;stroke:none"
                                   id="path5030" /><g
                                   id="g5032"
                                   transform="translate(105.6)"><path
                                   d="m 29.406,-64 v 56.0938 c 0,2 0.396,3.2708 1.188,3.8124 1.135,0.6667 3.838,1 8.109,1 h 3.203 V 0 C 39.573,-0.19792 34.172,-0.29688 25.703,-0.29688 17.234,-0.29688 11.833,-0.19792 9.5,0 v -3.0938 h 3.203 c 5.136,0 8.068,-0.6041 8.797,-1.8124 L 21.594,-5 C 21.865,-5.5312 22,-6.5 22,-7.9062 V -59.703 c -3.469,1.739 -7.833,2.609 -13.0938,2.609 v -3.109 c 7.9998,0 14.0628,-2.13 18.1878,-6.391 1.271,0 2.005,0.229 2.203,0.688 v 0 0.109 c 0.073,0.198 0.109,0.797 0.109,1.797 z"
                                   style="fill:#000000;fill-opacity:1;fill-rule:nonzero;stroke:none"
                                   id="path5034" /><g
                                   id="g5036"
                                   transform="matrix(5.2632,0,0,5.2632,-1853.8,-206.51)" /></g></g></g></g></g></g></g></g></g></g></g></g></g></g></g></g></g></g></g></g></g></g></g></g></g></g></g></g></g></g></g></g></g></g></g><g
                   id="g5038"
                   transform="scale(0.56693)" /></g></g></g></g></g></g></g></svg>
