<?xml version="1.0" encoding="UTF-8" standalone="no"?>
<svg
   xmlns:dc="http://purl.org/dc/elements/1.1/"
   xmlns:cc="http://creativecommons.org/ns#"
   xmlns:rdf="http://www.w3.org/1999/02/22-rdf-syntax-ns#"
   xmlns:svg="http://www.w3.org/2000/svg"
   xmlns="http://www.w3.org/2000/svg"
   xmlns:sodipodi="http://sodipodi.sourceforge.net/DTD/sodipodi-0.dtd"
   xmlns:inkscape="http://www.inkscape.org/namespaces/inkscape"
   version="1.1"
   id="svg954"
   xml:space="preserve"
   width="96"
   height="74.666664"
   viewBox="0 0 96 74.666664"
   sodipodi:docname="2020-1018-0900-crop.pdf"><metadata
     id="metadata960"><rdf:RDF><cc:Work
         rdf:about=""><dc:format>image/svg+xml</dc:format><dc:type
           rdf:resource="http://purl.org/dc/dcmitype/StillImage" /></cc:Work></rdf:RDF></metadata><defs
     id="defs958"><clipPath
       clipPathUnits="userSpaceOnUse"
       id="clipPath972"><path
         d="M 0,0 H 122 V 94 H 0 Z"
         id="path970" /></clipPath><clipPath
       clipPathUnits="userSpaceOnUse"
       id="clipPath982"><path
         d="M 0,0 H 122 V 94 H 0 Z"
         id="path980" /></clipPath><clipPath
       clipPathUnits="userSpaceOnUse"
       id="clipPath994"><path
         d="M 0,0 V 94 H 122 V 0 Z"
         id="path992" /></clipPath><clipPath
       clipPathUnits="userSpaceOnUse"
       id="clipPath1004"><path
         d="M 0,0 H 420 V 325 H 0 Z"
         id="path1002" /></clipPath></defs><sodipodi:namedview
     pagecolor="#ffffff"
     bordercolor="#666666"
     borderopacity="1"
     objecttolerance="10"
     gridtolerance="10"
     guidetolerance="10"
     inkscape:pageopacity="0"
     inkscape:pageshadow="2"
     inkscape:window-width="640"
     inkscape:window-height="480"
     id="namedview956" /><g
     id="g962"
     inkscape:groupmode="layer"
     inkscape:label="2020-1018-0900-crop"
     transform="matrix(1.3333333,0,0,-1.3333333,0,74.666667)"><g
       id="g964"
       transform="translate(-25,-19)"><g
         id="g966"><g
           id="g968"
           clip-path="url(#clipPath972)"><g
             id="g974"
             transform="matrix(0.57447,0,0,-0.57447,25.957,74)"><g
               id="g976"><g
                 id="g978"
                 clip-path="url(#clipPath982)"><g
                   id="g984"><g
                     id="g986" /></g><g
                   id="g988"><g
                     id="g990"
                     clip-path="url(#clipPath994)"><g
                       id="g996"
                       transform="scale(0.29092)" /></g></g><g
                   id="g998"
                   transform="scale(0.29092)"><g
                     id="g1000"
                     clip-path="url(#clipPath1004)"><path
                       d="M 0,0 H 420 V 325 H 0 Z"
                       style="fill:#ffffff;fill-opacity:1;fill-rule:nonzero;stroke:none"
                       id="path1006" /><path
                       d="M 0,276.72 H 418"
                       style="fill:none;stroke:#000000;stroke-width:1;stroke-linecap:butt;stroke-linejoin:miter;stroke-miterlimit:10;stroke-dasharray:none;stroke-opacity:1"
                       id="path1008" /><path
                       d="m 419,276.72 -4,-4"
                       style="fill:none;stroke:#000000;stroke-width:1;stroke-linecap:butt;stroke-linejoin:miter;stroke-miterlimit:10;stroke-dasharray:none;stroke-opacity:1"
                       id="path1010" /><path
                       d="m 419,276.72 -4,4"
                       style="fill:none;stroke:#000000;stroke-width:1;stroke-linecap:butt;stroke-linejoin:miter;stroke-miterlimit:10;stroke-dasharray:none;stroke-opacity:1"
                       id="path1012" /><path
                       d="m -32.145,-171.49 c 129.914,519.66 259.825,519.66 389.745,0"
                       style="fill:none;stroke:#000000;stroke-width:2.5;stroke-linecap:round;stroke-linejoin:round;stroke-miterlimit:10;stroke-dasharray:none;stroke-opacity:0.69804"
                       id="path1014" /><path
                       d="m 150,206.85 0.94,0.24 m 0,0 3.28,0.68 3.28,0.46 m 0,0 3.28,0.24 3.28,0.02 3.28,-0.2 3.28,-0.42 3.29,-0.64 3.28,-0.86 3.28,-1.09 3.28,-1.3 m 0,0 3.28,-1.53 3.28,-1.75 3.28,-1.97 3.29,-2.18 m 0,0 3.28,-2.42 3.28,-2.63 m 0,0 3.28,-2.85 m 0,0 1.74,-1.6"
                       style="fill:none;stroke:#9933ff;stroke-width:4;stroke-linecap:round;stroke-linejoin:round;stroke-miterlimit:10;stroke-dasharray:none;stroke-opacity:0.69804"
                       id="path1016" /><g
                       id="g1018"
                       transform="scale(19)"><g
                         id="g1020"
                         transform="matrix(0.01,0,0,0.01,8.9474,9.8553)"><path
                           d="m 33.094,24 v 0 c 0,0.667 -0.334,1 -1,1 -0.792,0 -2.558,-1.365 -5.297,-4.094 C 22.661,16.771 19.229,11.87 16.5,6.2031 12.104,-2.8698 9.9062,-13.271 9.9062,-25 c 0,-11.271 2.0988,-21.438 6.2968,-30.5 3.469,-7.396 7.87,-13.328 13.203,-17.797 1.396,-1.135 2.292,-1.703 2.688,-1.703 0.666,0 1,0.333 1,1 0,0.333 -0.433,0.901 -1.297,1.703 C 21.068,-61.37 15.703,-45.604 15.703,-25 c 0,20.5312 5.235,36.13 15.703,46.797 1.125,1.135 1.688,1.87 1.688,2.203 z"
                           style="fill:#9933ff;fill-opacity:1;fill-rule:nonzero;stroke:none"
                           id="path1022" /><g
                           id="g1024"
                           transform="translate(38.9)"><path
                             d="m 29,-35.203 v 0 c 6.667,1.333 11.469,4.599 14.406,9.797 1.532,2.604 2.297,5.375 2.297,8.312 0,5.667 -2.333,10.4325 -7,14.2971 -4.073,3.33336 -8.838,5 -14.297,5 C 17.802,2.2031 12.5,0.23438 8.5,-3.7031 5.6354,-6.5052 4.2031,-9.7708 4.2031,-13.5 c 0,-3.135 1.4011,-5 4.2031,-5.594 0.4584,-0.135 0.9219,-0.203 1.3907,-0.203 2.5311,0 4.2341,1.068 5.1091,3.203 0.261,0.865 0.427,1.662 0.5,2.391 0,2.667 -1.203,4.4009 -3.609,5.203 -0.927,0.3333 -1.9272,0.4323 -3.0001,0.2969 2.4691,4.1354 6.7341,6.6041 12.7971,7.40622 0.875,0.13542 1.708,0.20313 2.5,0.20313 4.271,0 7.406,-2.10415 9.406,-6.31245 1.271,-2.6667 1.906,-6.0628 1.906,-10.1878 0,-8.875 -2.666,-14.208 -8,-16 -1.208,-0.406 -2.51,-0.609 -3.906,-0.609 h -4.406 c -1.459,0 -2.255,-0.365 -2.391,-1.094 0,-0.667 0.5,-1.068 1.5,-1.203 1,0 2.297,-0.099 3.891,-0.297 3.406,-0.135 6.073,-1.437 8,-3.906 v -0.094 l 0.109,-0.109 0.094,-0.094 h 0.109 l 0.594,-1 c 1.865,-3.135 2.797,-6.938 2.797,-11.406 0,-6.198 -2.401,-9.828 -7.203,-10.891 -0.792,-0.198 -1.589,-0.297 -2.391,-0.297 -4.667,0 -8.469,1.334 -11.406,4 -0.729,0.667 -1.359,1.396 -1.891,2.188 4.125,0 6.188,1.666 6.188,5 0,2.406 -1.032,4.01 -3.094,4.812 -0.604,0.198 -1.271,0.297 -2,0.297 -2.6042,0 -4.2396,-1.167 -4.9062,-3.5 v 0 -0.109 C 6.9688,-51.938 6.9062,-52.469 6.9062,-53 c 0,-4.469 2.198,-8.036 6.5938,-10.703 3.198,-1.927 6.896,-2.891 11.094,-2.891 6.073,0 10.974,1.797 14.703,5.391 L 39.5,-61 c 2.333,2.396 3.5,5.13 3.5,8.203 0,5.531 -2.365,10.162 -7.094,13.891 -2.073,1.604 -4.375,2.838 -6.906,3.703 z"
                             style="fill:#9933ff;fill-opacity:1;fill-rule:nonzero;stroke:none"
                             id="path1026" /><g
                             id="g1028"
                             transform="translate(50)"><path
                               d="m 28.906,-25 v 0 c 0,11.271 -2.104,21.4375 -6.312,30.5 C 19.135,12.896 14.74,18.828 9.4062,23.297 8,24.432 7.099,25 6.7031,25 c -0.6666,0 -1,-0.333 -1,-1 C 5.7031,23.667 6.1354,23.099 7,22.297 17.729,11.37 23.094,-4.3958 23.094,-25 c 0,-20.333 -5,-35.734 -15.0002,-46.203 l -0.5,-0.5 C 6.3333,-72.901 5.7031,-73.667 5.7031,-74 c 0,-0.667 0.3334,-1 1,-1 0.8021,0 2.5677,1.365 5.2969,4.094 4.135,4.135 7.568,9.036 10.297,14.703 4.406,9.073 6.609,19.474 6.609,31.203 z"
                               style="fill:#9933ff;fill-opacity:1;fill-rule:nonzero;stroke:none"
                               id="path1030" /><g
                               id="g1032"
                               transform="matrix(5.2632,0,0,5.2632,-983.64,-985.53)"><path
                                 d="m 34.744,59.894 1.35,3.528 m 0,0 3.281,8.418 m 0,0 3.281,8.198 3.282,7.976 3.281,7.756 3.281,7.53 m 0,0 3.281,7.32 3.281,7.09 3.282,6.87 3.281,6.65 3.281,6.43 3.282,6.21 3.281,5.99 3.281,5.76 m 0,0 3.281,5.55 3.281,5.32 3.282,5.11 3.281,4.88 m 0,0 1.33,1.92"
                                 style="fill:none;stroke:#000000;stroke-width:4;stroke-linecap:round;stroke-linejoin:round;stroke-miterlimit:10;stroke-dasharray:none;stroke-opacity:0.69804"
                                 id="path1034" /><g
                                 id="g1036"
                                 transform="scale(19)"><g
                                   id="g1038"
                                   transform="matrix(0.01,0,0,0.01,1.9474,7.8553)"><path
                                   d="m 33.094,24 v 0 c 0,0.667 -0.334,1 -1,1 -0.792,0 -2.558,-1.365 -5.297,-4.094 C 22.661,16.771 19.229,11.87 16.5,6.2031 12.104,-2.8698 9.9062,-13.271 9.9062,-25 c 0,-11.271 2.0988,-21.438 6.2968,-30.5 3.469,-7.396 7.87,-13.328 13.203,-17.797 1.396,-1.135 2.292,-1.703 2.688,-1.703 0.666,0 1,0.333 1,1 0,0.333 -0.433,0.901 -1.297,1.703 C 21.068,-61.37 15.703,-45.604 15.703,-25 c 0,20.5312 5.235,36.13 15.703,46.797 1.125,1.135 1.688,1.87 1.688,2.203 z"
                                   style="fill:#000000;fill-opacity:1;fill-rule:nonzero;stroke:none"
                                   id="path1040" /><g
                                   id="g1042"
                                   transform="translate(38.9)"><path
                                   d="m 29.406,-64 v 56.0938 c 0,2 0.396,3.2708 1.188,3.8124 1.135,0.6667 3.838,1 8.109,1 h 3.203 V 0 C 39.573,-0.19792 34.172,-0.29688 25.703,-0.29688 17.234,-0.29688 11.833,-0.19792 9.5,0 v -3.0938 h 3.203 c 5.136,0 8.068,-0.6041 8.797,-1.8124 L 21.594,-5 C 21.865,-5.5312 22,-6.5 22,-7.9062 V -59.703 c -3.469,1.739 -7.833,2.609 -13.0938,2.609 v -3.109 c 7.9998,0 14.0628,-2.13 18.1878,-6.391 1.271,0 2.005,0.229 2.203,0.688 v 0 0.109 c 0.073,0.198 0.109,0.797 0.109,1.797 z"
                                   style="fill:#000000;fill-opacity:1;fill-rule:nonzero;stroke:none"
                                   id="path1044" /><g
                                   id="g1046"
                                   transform="translate(50)"><path
                                   d="m 28.906,-25 v 0 c 0,11.271 -2.104,21.4375 -6.312,30.5 C 19.135,12.896 14.74,18.828 9.4062,23.297 8,24.432 7.099,25 6.7031,25 c -0.6666,0 -1,-0.333 -1,-1 C 5.7031,23.667 6.1354,23.099 7,22.297 17.729,11.37 23.094,-4.3958 23.094,-25 c 0,-20.333 -5,-35.734 -15.0002,-46.203 l -0.5,-0.5 C 6.3333,-72.901 5.7031,-73.667 5.7031,-74 c 0,-0.667 0.3334,-1 1,-1 0.8021,0 2.5677,1.365 5.2969,4.094 4.135,4.135 7.568,9.036 10.297,14.703 4.406,9.073 6.609,19.474 6.609,31.203 z"
                                   style="fill:#000000;fill-opacity:1;fill-rule:nonzero;stroke:none"
                                   id="path1048" /><g
                                   id="g1050"
                                   transform="matrix(5.2632,0,0,5.2632,-283.64,-785.53)"><path
                                   d="m 118,207.47 0.12,0.11 m 0,0 3.29,2.9 3.28,2.67 3.28,2.45 3.28,2.23 m 0,0 3.28,2.01 3.28,1.79 3.28,1.57 3.29,1.34 3.28,1.13 3.28,0.9 3.28,0.69 3.28,0.46 m 0,0 3.28,0.24 3.28,0.02 3.28,-0.2 3.28,-0.42 m 0,0 3.29,-0.64 m 0,0 2.55,-0.66"
                                   style="fill:none;stroke:#0000ff;stroke-width:4;stroke-linecap:round;stroke-linejoin:round;stroke-miterlimit:10;stroke-dasharray:none;stroke-opacity:0.69804"
                                   id="path1052" /><g
                                   id="g1054"
                                   transform="scale(19)"><g
                                   id="g1056"
                                   transform="matrix(0.01,0,0,0.01,5.1579,12.645)"><path
                                   d="m 33.094,24 v 0 c 0,0.667 -0.334,1 -1,1 -0.792,0 -2.558,-1.365 -5.297,-4.094 C 22.661,16.771 19.229,11.87 16.5,6.2031 12.104,-2.8698 9.9062,-13.271 9.9062,-25 c 0,-11.271 2.0988,-21.438 6.2968,-30.5 3.469,-7.396 7.87,-13.328 13.203,-17.797 1.396,-1.135 2.292,-1.703 2.688,-1.703 0.666,0 1,0.333 1,1 0,0.333 -0.433,0.901 -1.297,1.703 C 21.068,-61.37 15.703,-45.604 15.703,-25 c 0,20.5312 5.235,36.13 15.703,46.797 1.125,1.135 1.688,1.87 1.688,2.203 z"
                                   style="fill:#0000ff;fill-opacity:1;fill-rule:nonzero;stroke:none"
                                   id="path1058" /><g
                                   id="g1060"
                                   transform="translate(38.9)"><path
                                   d="m 44.906,-17.406 v 0 L 42.094,0 H 5 c 0,-1.6667 0.1979,-2.7344 0.5938,-3.2031 l 0.5,-0.5 19.2032,-21.3909 c 7,-7.875 10.5,-15.245 10.5,-22.109 0,-5.927 -1.797,-10.427 -5.391,-13.5 l -0.109,-0.094 h -0.094 c -2.135,-1.802 -4.734,-2.703 -7.797,-2.703 -4.802,0 -8.635,2.068 -11.5,6.203 -0.802,1.198 -1.4685,2.531 -1.9998,4 0.198,-0.073 0.6303,-0.109 1.2968,-0.109 2.667,0 4.365,1.203 5.094,3.609 v 0.094 c 0.135,0.469 0.203,0.969 0.203,1.5 0,2.667 -1.266,4.37 -3.797,5.109 -0.531,0.125 -1,0.188 -1.406,0.188 -2.4689,0 -4.0991,-1.032 -4.8908,-3.094 C 5.1354,-46.729 5,-47.562 5,-48.5 c 0,-5.135 1.9688,-9.536 5.906,-13.203 3.532,-3.261 7.797,-4.891 12.797,-4.891 7.333,0 13.031,2.464 17.094,7.391 2.333,2.864 3.667,6.265 4,10.203 0.073,0.604 0.109,1.203 0.109,1.797 0,4.864 -1.833,9.5 -5.5,13.906 -1.937,2.261 -4.937,5.261 -9,9 l -6.109,5.391 -1,0.906 -10.594,10.2969 h 18 c 5.865,0 9.031,-0.2657 9.5,-0.7969 0.667,-0.9375 1.401,-3.906 2.203,-8.906 z"
                                   style="fill:#0000ff;fill-opacity:1;fill-rule:nonzero;stroke:none"
                                   id="path1062" /><g
                                   id="g1064"
                                   transform="translate(50)"><path
                                   d="m 28.906,-25 v 0 c 0,11.271 -2.104,21.4375 -6.312,30.5 C 19.135,12.896 14.74,18.828 9.4062,23.297 8,24.432 7.099,25 6.7031,25 c -0.6666,0 -1,-0.333 -1,-1 C 5.7031,23.667 6.1354,23.099 7,22.297 17.729,11.37 23.094,-4.3958 23.094,-25 c 0,-20.333 -5,-35.734 -15.0002,-46.203 l -0.5,-0.5 C 6.3333,-72.901 5.7031,-73.667 5.7031,-74 c 0,-0.667 0.3334,-1 1,-1 0.8021,0 2.5677,1.365 5.2969,4.094 4.135,4.135 7.568,9.036 10.297,14.703 4.406,9.073 6.609,19.474 6.609,31.203 z"
                                   style="fill:#0000ff;fill-opacity:1;fill-rule:nonzero;stroke:none"
                                   id="path1066" /><g
                                   id="g1068"
                                   transform="matrix(5.2632,0,0,5.2632,-604.69,-1264.5)"><path
                                   d="m 227.26,165.78 2.43,-3.28 m 0,0 3.28,-4.63 3.28,-4.84 m 0,0 3.28,-5.06 3.28,-5.28 3.28,-5.51 3.29,-5.72 3.28,-5.95 3.28,-6.17 3.28,-6.38 3.28,-6.61 m 0,0 3.28,-6.835 3.28,-7.051 3.28,-7.273 3.28,-7.493 m 0,0 3.29,-7.714 3.28,-7.936 m 0,0 3.28,-8.156 m 0,0 0.25,-0.629"
                                   style="fill:none;stroke:#993300;stroke-width:4;stroke-linecap:round;stroke-linejoin:round;stroke-miterlimit:10;stroke-dasharray:none;stroke-opacity:0.69804"
                                   id="path1070" /><g
                                   id="g1072"
                                   transform="scale(19)"><g
                                   id="g1074"
                                   transform="matrix(0.01,0,0,0.01,11.842,5.9605)"><path
                                   d="m 33.094,24 v 0 c 0,0.667 -0.334,1 -1,1 -0.792,0 -2.558,-1.365 -5.297,-4.094 C 22.661,16.771 19.229,11.87 16.5,6.2031 12.104,-2.8698 9.9062,-13.271 9.9062,-25 c 0,-11.271 2.0988,-21.438 6.2968,-30.5 3.469,-7.396 7.87,-13.328 13.203,-17.797 1.396,-1.135 2.292,-1.703 2.688,-1.703 0.666,0 1,0.333 1,1 0,0.333 -0.433,0.901 -1.297,1.703 C 21.068,-61.37 15.703,-45.604 15.703,-25 c 0,20.5312 5.235,36.13 15.703,46.797 1.125,1.135 1.688,1.87 1.688,2.203 z"
                                   style="fill:#993300;fill-opacity:1;fill-rule:nonzero;stroke:none"
                                   id="path1076" /><g
                                   id="g1078"
                                   transform="translate(38.9)"><path
                                   d="m 2.7969,-16.5 v -3.094 L 33.5,-66.5 c 0.531,-0.802 1.198,-1.203 2,-1.203 0.938,0 1.469,0.37 1.594,1.109 v 1.5 45.5 h 10 v 3.094 h -10 v 8.7031 c 0,2.0625 0.401,3.3281 1.203,3.7969 0.937,0.6042 3.073,0.9062 6.406,0.9062 h 2.094 V 0 c -2.729,-0.19792 -7.261,-0.29688 -13.594,-0.29688 -6.271,0 -10.771,0.09896 -13.5,0.29688 v -3.0938 h 2.094 c 4.135,0 6.536,-0.5677 7.203,-1.7031 0.271,-0.4687 0.406,-1.4687 0.406,-3 V -16.5 Z M 30,-19.594 V -56.906 L 5.5938,-19.594 Z"
                                   style="fill:#993300;fill-opacity:1;fill-rule:nonzero;stroke:none"
                                   id="path1080" /><g
                                   id="g1082"
                                   transform="translate(50)"><path
                                   d="m 28.906,-25 v 0 c 0,11.271 -2.104,21.4375 -6.312,30.5 C 19.135,12.896 14.74,18.828 9.4062,23.297 8,24.432 7.099,25 6.7031,25 c -0.6666,0 -1,-0.333 -1,-1 C 5.7031,23.667 6.1354,23.099 7,22.297 17.729,11.37 23.094,-4.3958 23.094,-25 c 0,-20.333 -5,-35.734 -15.0002,-46.203 l -0.5,-0.5 C 6.3333,-72.901 5.7031,-73.667 5.7031,-74 c 0,-0.667 0.3334,-1 1,-1 0.8021,0 2.5677,1.365 5.2969,4.094 4.135,4.135 7.568,9.036 10.297,14.703 4.406,9.073 6.609,19.474 6.609,31.203 z"
                                   style="fill:#993300;fill-opacity:1;fill-rule:nonzero;stroke:none"
                                   id="path1084" /><g
                                   id="g1086"
                                   transform="matrix(5.2632,0,0,5.2632,-1273.1,-596.05)"><path
                                   d="M 162.73,330 V -5"
                                   style="fill:none;stroke:#000000;stroke-width:2.5;stroke-linecap:butt;stroke-linejoin:round;stroke-miterlimit:10;stroke-dasharray:10.5, 8;stroke-dashoffset:0;stroke-opacity:0.69804"
                                   id="path1088" /><path
                                   d="M 34.744,276.72 H 93.205"
                                   style="fill:none;stroke:#000000;stroke-width:3;stroke-linecap:round;stroke-linejoin:round;stroke-miterlimit:10;stroke-dasharray:none;stroke-opacity:1"
                                   id="path1090" /><g
                                   id="g1092"
                                   transform="scale(19)"><g
                                   id="g1094"
                                   transform="matrix(0.01,0,0,0.01,2.5789,15.803)"><path
                                   d="m 33.094,24 v 0 c 0,0.667 -0.334,1 -1,1 -0.792,0 -2.558,-1.365 -5.297,-4.094 C 22.661,16.771 19.229,11.87 16.5,6.2031 12.104,-2.8698 9.9062,-13.271 9.9062,-25 c 0,-11.271 2.0988,-21.438 6.2968,-30.5 3.469,-7.396 7.87,-13.328 13.203,-17.797 1.396,-1.135 2.292,-1.703 2.688,-1.703 0.666,0 1,0.333 1,1 0,0.333 -0.433,0.901 -1.297,1.703 C 21.068,-61.37 15.703,-45.604 15.703,-25 c 0,20.5312 5.235,36.13 15.703,46.797 1.125,1.135 1.688,1.87 1.688,2.203 z"
                                   style="fill:#000000;fill-opacity:1;fill-rule:nonzero;stroke:none"
                                   id="path1096" /><g
                                   id="g1098"
                                   transform="translate(38.9)"><path
                                   d="m 29.406,-64 v 56.0938 c 0,2 0.396,3.2708 1.188,3.8124 1.135,0.6667 3.838,1 8.109,1 h 3.203 V 0 C 39.573,-0.19792 34.172,-0.29688 25.703,-0.29688 17.234,-0.29688 11.833,-0.19792 9.5,0 v -3.0938 h 3.203 c 5.136,0 8.068,-0.6041 8.797,-1.8124 L 21.594,-5 C 21.865,-5.5312 22,-6.5 22,-7.9062 V -59.703 c -3.469,1.739 -7.833,2.609 -13.0938,2.609 v -3.109 c 7.9998,0 14.0628,-2.13 18.1878,-6.391 1.271,0 2.005,0.229 2.203,0.688 v 0 0.109 c 0.073,0.198 0.109,0.797 0.109,1.797 z"
                                   style="fill:#000000;fill-opacity:1;fill-rule:nonzero;stroke:none"
                                   id="path1100" /><g
                                   id="g1102"
                                   transform="translate(50)"><path
                                   d="m 28.906,-25 v 0 c 0,11.271 -2.104,21.4375 -6.312,30.5 C 19.135,12.896 14.74,18.828 9.4062,23.297 8,24.432 7.099,25 6.7031,25 c -0.6666,0 -1,-0.333 -1,-1 C 5.7031,23.667 6.1354,23.099 7,22.297 17.729,11.37 23.094,-4.3958 23.094,-25 c 0,-20.333 -5,-35.734 -15.0002,-46.203 l -0.5,-0.5 C 6.3333,-72.901 5.7031,-73.667 5.7031,-74 c 0,-0.667 0.3334,-1 1,-1 0.8021,0 2.5677,1.365 5.2969,4.094 4.135,4.135 7.568,9.036 10.297,14.703 4.406,9.073 6.609,19.474 6.609,31.203 z"
                                   style="fill:#000000;fill-opacity:1;fill-rule:nonzero;stroke:none"
                                   id="path1104" /><g
                                   id="g1106"
                                   transform="matrix(5.2632,0,0,5.2632,-346.79,-1580.3)"><path
                                   d="m 118,276.72 h 58.46"
                                   style="fill:none;stroke:#0000ff;stroke-width:2.5;stroke-linecap:round;stroke-linejoin:round;stroke-miterlimit:10;stroke-dasharray:none;stroke-opacity:1"
                                   id="path1108" /><g
                                   id="g1110"
                                   transform="scale(19)"><g
                                   id="g1112"
                                   transform="matrix(0.01,0,0,0.01,7,15.908)"><path
                                   d="m 33.094,24 v 0 c 0,0.667 -0.334,1 -1,1 -0.792,0 -2.558,-1.365 -5.297,-4.094 C 22.661,16.771 19.229,11.87 16.5,6.2031 12.104,-2.8698 9.9062,-13.271 9.9062,-25 c 0,-11.271 2.0988,-21.438 6.2968,-30.5 3.469,-7.396 7.87,-13.328 13.203,-17.797 1.396,-1.135 2.292,-1.703 2.688,-1.703 0.666,0 1,0.333 1,1 0,0.333 -0.433,0.901 -1.297,1.703 C 21.068,-61.37 15.703,-45.604 15.703,-25 c 0,20.5312 5.235,36.13 15.703,46.797 1.125,1.135 1.688,1.87 1.688,2.203 z"
                                   style="fill:#0000ff;fill-opacity:1;fill-rule:nonzero;stroke:none"
                                   id="path1114" /><g
                                   id="g1116"
                                   transform="translate(38.9)"><path
                                   d="m 44.906,-17.406 v 0 L 42.094,0 H 5 c 0,-1.6667 0.1979,-2.7344 0.5938,-3.2031 l 0.5,-0.5 19.2032,-21.3909 c 7,-7.875 10.5,-15.245 10.5,-22.109 0,-5.927 -1.797,-10.427 -5.391,-13.5 l -0.109,-0.094 h -0.094 c -2.135,-1.802 -4.734,-2.703 -7.797,-2.703 -4.802,0 -8.635,2.068 -11.5,6.203 -0.802,1.198 -1.4685,2.531 -1.9998,4 0.198,-0.073 0.6303,-0.109 1.2968,-0.109 2.667,0 4.365,1.203 5.094,3.609 v 0.094 c 0.135,0.469 0.203,0.969 0.203,1.5 0,2.667 -1.266,4.37 -3.797,5.109 -0.531,0.125 -1,0.188 -1.406,0.188 -2.4689,0 -4.0991,-1.032 -4.8908,-3.094 C 5.1354,-46.729 5,-47.562 5,-48.5 c 0,-5.135 1.9688,-9.536 5.906,-13.203 3.532,-3.261 7.797,-4.891 12.797,-4.891 7.333,0 13.031,2.464 17.094,7.391 2.333,2.864 3.667,6.265 4,10.203 0.073,0.604 0.109,1.203 0.109,1.797 0,4.864 -1.833,9.5 -5.5,13.906 -1.937,2.261 -4.937,5.261 -9,9 l -6.109,5.391 -1,0.906 -10.594,10.2969 h 18 c 5.865,0 9.031,-0.2657 9.5,-0.7969 0.667,-0.9375 1.401,-3.906 2.203,-8.906 z"
                                   style="fill:#0000ff;fill-opacity:1;fill-rule:nonzero;stroke:none"
                                   id="path1118" /><g
                                   id="g1120"
                                   transform="translate(50)"><path
                                   d="m 28.906,-25 v 0 c 0,11.271 -2.104,21.4375 -6.312,30.5 C 19.135,12.896 14.74,18.828 9.4062,23.297 8,24.432 7.099,25 6.7031,25 c -0.6666,0 -1,-0.333 -1,-1 C 5.7031,23.667 6.1354,23.099 7,22.297 17.729,11.37 23.094,-4.3958 23.094,-25 c 0,-20.333 -5,-35.734 -15.0002,-46.203 l -0.5,-0.5 C 6.3333,-72.901 5.7031,-73.667 5.7031,-74 c 0,-0.667 0.3334,-1 1,-1 0.8021,0 2.5677,1.365 5.2969,4.094 4.135,4.135 7.568,9.036 10.297,14.703 4.406,9.073 6.609,19.474 6.609,31.203 z"
                                   style="fill:#0000ff;fill-opacity:1;fill-rule:nonzero;stroke:none"
                                   id="path1122" /><g
                                   id="g1124"
                                   transform="matrix(5.2632,0,0,5.2632,-788.9,-1590.8)"><path
                                   d="m 150,266.97 h 58.46"
                                   style="fill:none;stroke:#9933ff;stroke-width:2.5;stroke-linecap:round;stroke-linejoin:round;stroke-miterlimit:10;stroke-dasharray:none;stroke-opacity:1"
                                   id="path1126" /><g
                                   id="g1128"
                                   transform="scale(19)"><g
                                   id="g1130"
                                   transform="matrix(0.01,0,0,0.01,8.7368,13.434)"><path
                                   d="m 33.094,24 v 0 c 0,0.667 -0.334,1 -1,1 -0.792,0 -2.558,-1.365 -5.297,-4.094 C 22.661,16.771 19.229,11.87 16.5,6.2031 12.104,-2.8698 9.9062,-13.271 9.9062,-25 c 0,-11.271 2.0988,-21.438 6.2968,-30.5 3.469,-7.396 7.87,-13.328 13.203,-17.797 1.396,-1.135 2.292,-1.703 2.688,-1.703 0.666,0 1,0.333 1,1 0,0.333 -0.433,0.901 -1.297,1.703 C 21.068,-61.37 15.703,-45.604 15.703,-25 c 0,20.5312 5.235,36.13 15.703,46.797 1.125,1.135 1.688,1.87 1.688,2.203 z"
                                   style="fill:#9933ff;fill-opacity:1;fill-rule:nonzero;stroke:none"
                                   id="path1132" /><g
                                   id="g1134"
                                   transform="translate(38.9)"><path
                                   d="m 29,-35.203 v 0 c 6.667,1.333 11.469,4.599 14.406,9.797 1.532,2.604 2.297,5.375 2.297,8.312 0,5.667 -2.333,10.4325 -7,14.2971 -4.073,3.33336 -8.838,5 -14.297,5 C 17.802,2.2031 12.5,0.23438 8.5,-3.7031 5.6354,-6.5052 4.2031,-9.7708 4.2031,-13.5 c 0,-3.135 1.4011,-5 4.2031,-5.594 0.4584,-0.135 0.9219,-0.203 1.3907,-0.203 2.5311,0 4.2341,1.068 5.1091,3.203 0.261,0.865 0.427,1.662 0.5,2.391 0,2.667 -1.203,4.4009 -3.609,5.203 -0.927,0.3333 -1.9272,0.4323 -3.0001,0.2969 2.4691,4.1354 6.7341,6.6041 12.7971,7.40622 0.875,0.13542 1.708,0.20313 2.5,0.20313 4.271,0 7.406,-2.10415 9.406,-6.31245 1.271,-2.6667 1.906,-6.0628 1.906,-10.1878 0,-8.875 -2.666,-14.208 -8,-16 -1.208,-0.406 -2.51,-0.609 -3.906,-0.609 h -4.406 c -1.459,0 -2.255,-0.365 -2.391,-1.094 0,-0.667 0.5,-1.068 1.5,-1.203 1,0 2.297,-0.099 3.891,-0.297 3.406,-0.135 6.073,-1.437 8,-3.906 v -0.094 l 0.109,-0.109 0.094,-0.094 h 0.109 l 0.594,-1 c 1.865,-3.135 2.797,-6.938 2.797,-11.406 0,-6.198 -2.401,-9.828 -7.203,-10.891 -0.792,-0.198 -1.589,-0.297 -2.391,-0.297 -4.667,0 -8.469,1.334 -11.406,4 -0.729,0.667 -1.359,1.396 -1.891,2.188 4.125,0 6.188,1.666 6.188,5 0,2.406 -1.032,4.01 -3.094,4.812 -0.604,0.198 -1.271,0.297 -2,0.297 -2.6042,0 -4.2396,-1.167 -4.9062,-3.5 v 0 -0.109 C 6.9688,-51.938 6.9062,-52.469 6.9062,-53 c 0,-4.469 2.198,-8.036 6.5938,-10.703 3.198,-1.927 6.896,-2.891 11.094,-2.891 6.073,0 10.974,1.797 14.703,5.391 L 39.5,-61 c 2.333,2.396 3.5,5.13 3.5,8.203 0,5.531 -2.365,10.162 -7.094,13.891 -2.073,1.604 -4.375,2.838 -6.906,3.703 z"
                                   style="fill:#9933ff;fill-opacity:1;fill-rule:nonzero;stroke:none"
                                   id="path1136" /><g
                                   id="g1138"
                                   transform="translate(50)"><path
                                   d="m 28.906,-25 v 0 c 0,11.271 -2.104,21.4375 -6.312,30.5 C 19.135,12.896 14.74,18.828 9.4062,23.297 8,24.432 7.099,25 6.7031,25 c -0.6666,0 -1,-0.333 -1,-1 C 5.7031,23.667 6.1354,23.099 7,22.297 17.729,11.37 23.094,-4.3958 23.094,-25 c 0,-20.333 -5,-35.734 -15.0002,-46.203 l -0.5,-0.5 C 6.3333,-72.901 5.7031,-73.667 5.7031,-74 c 0,-0.667 0.3334,-1 1,-1 0.8021,0 2.5677,1.365 5.2969,4.094 4.135,4.135 7.568,9.036 10.297,14.703 4.406,9.073 6.609,19.474 6.609,31.203 z"
                                   style="fill:#9933ff;fill-opacity:1;fill-rule:nonzero;stroke:none"
                                   id="path1140" /><g
                                   id="g1142"
                                   transform="matrix(5.2632,0,0,5.2632,-962.58,-1343.4)"><path
                                   d="m 227.26,276.72 h 58.46"
                                   style="fill:none;stroke:#993300;stroke-width:2.5;stroke-linecap:round;stroke-linejoin:round;stroke-miterlimit:10;stroke-dasharray:none;stroke-opacity:1"
                                   id="path1144" /><g
                                   id="g1146"
                                   transform="scale(19)"><g
                                   id="g1148"
                                   transform="matrix(0.01,0,0,0.01,12.947,15.75)"><path
                                   d="m 33.094,24 v 0 c 0,0.667 -0.334,1 -1,1 -0.792,0 -2.558,-1.365 -5.297,-4.094 C 22.661,16.771 19.229,11.87 16.5,6.2031 12.104,-2.8698 9.9062,-13.271 9.9062,-25 c 0,-11.271 2.0988,-21.438 6.2968,-30.5 3.469,-7.396 7.87,-13.328 13.203,-17.797 1.396,-1.135 2.292,-1.703 2.688,-1.703 0.666,0 1,0.333 1,1 0,0.333 -0.433,0.901 -1.297,1.703 C 21.068,-61.37 15.703,-45.604 15.703,-25 c 0,20.5312 5.235,36.13 15.703,46.797 1.125,1.135 1.688,1.87 1.688,2.203 z"
                                   style="fill:#993300;fill-opacity:1;fill-rule:nonzero;stroke:none"
                                   id="path1150" /><g
                                   id="g1152"
                                   transform="translate(38.9)"><path
                                   d="m 2.7969,-16.5 v -3.094 L 33.5,-66.5 c 0.531,-0.802 1.198,-1.203 2,-1.203 0.938,0 1.469,0.37 1.594,1.109 v 1.5 45.5 h 10 v 3.094 h -10 v 8.7031 c 0,2.0625 0.401,3.3281 1.203,3.7969 0.937,0.6042 3.073,0.9062 6.406,0.9062 h 2.094 V 0 c -2.729,-0.19792 -7.261,-0.29688 -13.594,-0.29688 -6.271,0 -10.771,0.09896 -13.5,0.29688 v -3.0938 h 2.094 c 4.135,0 6.536,-0.5677 7.203,-1.7031 0.271,-0.4687 0.406,-1.4687 0.406,-3 V -16.5 Z M 30,-19.594 V -56.906 L 5.5938,-19.594 Z"
                                   style="fill:#993300;fill-opacity:1;fill-rule:nonzero;stroke:none"
                                   id="path1154" /><g
                                   id="g1156"
                                   transform="translate(50)"><path
                                   d="m 28.906,-25 v 0 c 0,11.271 -2.104,21.4375 -6.312,30.5 C 19.135,12.896 14.74,18.828 9.4062,23.297 8,24.432 7.099,25 6.7031,25 c -0.6666,0 -1,-0.333 -1,-1 C 5.7031,23.667 6.1354,23.099 7,22.297 17.729,11.37 23.094,-4.3958 23.094,-25 c 0,-20.333 -5,-35.734 -15.0002,-46.203 l -0.5,-0.5 C 6.3333,-72.901 5.7031,-73.667 5.7031,-74 c 0,-0.667 0.3334,-1 1,-1 0.8021,0 2.5677,1.365 5.2969,4.094 4.135,4.135 7.568,9.036 10.297,14.703 4.406,9.073 6.609,19.474 6.609,31.203 z"
                                   style="fill:#993300;fill-opacity:1;fill-rule:nonzero;stroke:none"
                                   id="path1158" /><g
                                   id="g1160"
                                   transform="matrix(5.2632,0,0,5.2632,-1383.6,-1575)"><path
                                   d="m 37.744,276.72 c 0,1.66 -1.344,3 -3,3 -1.657,0 -3,-1.34 -3,-3 0,-1.66 1.343,-3 3,-3 1.656,0 3,1.34 3,3 z"
                                   style="fill:#000000;fill-opacity:1;fill-rule:nonzero;stroke:none"
                                   id="path1162" /><path
                                   d="m 37.744,276.72 c 0,1.66 -1.344,3 -3,3 -1.657,0 -3,-1.34 -3,-3 0,-1.66 1.343,-3 3,-3 1.656,0 3,1.34 3,3 z"
                                   style="fill:none;stroke:#000000;stroke-width:1;stroke-linecap:round;stroke-linejoin:round;stroke-miterlimit:10;stroke-dasharray:none;stroke-opacity:1"
                                   id="path1164" /><g
                                   id="g1166"
                                   transform="scale(19)"><g
                                   id="g1168"
                                   transform="matrix(0.01,0,0,0.01,1.0526,15.642)"><path
                                   d="m 8.7969,-5.9062 v 0 L 14.594,-29 c 1.073,-4.271 1.609,-7.073 1.609,-8.406 0,-3.063 -1.036,-4.594 -3.109,-4.594 -2.729,0 -4.9586,3.167 -6.6878,9.5 -0.2083,0.729 -0.4114,1.531 -0.6093,2.406 -0.7292,1.459 -1.2969,2.224 -1.7031,2.297 -0.7917,0 -1.1876,-0.333 -1.1876,-1 0,-1.073 0.6303,-3.338 1.8907,-6.797 0.4062,-1.135 0.8073,-2.104 1.2031,-2.906 1.6042,-3.271 3.6042,-5.135 6,-5.594 0.469,-0.073 0.938,-0.109 1.406,-0.109 3.594,0 6.261,1.5 8,4.5 0.667,1.271 1.063,2.672 1.188,4.203 4.271,-5.802 9.474,-8.703 15.609,-8.703 3.396,0 6.13,0.87 8.203,2.609 1.865,1.594 2.927,3.959 3.188,7.094 4.541,-6.469 9.979,-9.703 16.312,-9.703 5.927,0 9.594,2.302 11,6.906 v 0.094 c 0.334,1.135 0.5,2.37 0.5,3.703 0,3.531 -2.036,10.865 -6.109,22 -1.198,2.9375 -1.797,5.3021 -1.797,7.0938 0,2.2083 0.802,3.3124 2.406,3.3124 4.125,0 7.391,-3.6666 9.797,-11.0002 l 0.391,-1.406 c 0.333,-1.062 0.666,-1.63 1,-1.703 v -0.094 h 0.5 c 0.802,0 1.203,0.333 1.203,1 0,1.136 -0.698,3.235 -2.094,6.297 -2.864,6.0625 -6.531,9.0938 -11,9.0938 -3.406,0 -5.838,-1.43234 -7.297,-4.2969 C 63.802,-4.401 63.5,-5.6979 63.5,-7.0938 63.5,-8.4271 63.932,-10.26 64.797,-12.594 68.932,-23.531 71,-31 71,-35 c 0,-4.667 -1.802,-7 -5.406,-7 -5.865,0 -10.729,3.167 -14.594,9.5 -1.062,1.667 -1.698,2.932 -1.906,3.797 -0.198,0.864 -2.198,8.901 -6,24.1092 C 42.365,-1.7292 41.531,0 40.594,0.59375 L 40.5,0.70312 H 40.406 C 39.938,0.96354 39.333,1.0938 38.594,1.0938 36.927,0.76042 35.964,-0.13542 35.703,-1.5938 L 37,-7.5 l 2,-7.594 2.797,-11.609 c 1,-3.729 1.5,-6.495 1.5,-8.297 0,-4.667 -1.797,-7 -5.391,-7 -6,0 -11.036,3.333 -15.109,10 -0.469,0.729 -0.87,1.464 -1.203,2.203 l -1.297,5 c -0.333,1.531 -0.901,3.766 -1.703,6.703 l -2.188,9.0002 C 15.271,-4.5 14.635,-2.0365 14.5,-1.7031 13.896,0.036458 12.661,0.96875 10.797,1.0938 9.1302,0.76042 8.1667,-0.13542 7.9062,-1.5938 c 0,0.125 0.2969,-1.3124 0.8907,-4.3124 z"
                                   style="fill:#000000;fill-opacity:1;fill-rule:nonzero;stroke:none"
                                   id="path1170" /><g
                                   id="g1172"
                                   transform="matrix(5.2632,0,0,5.2632,-105.26,-1564.2)"><path
                                   d="m 96.205,276.72 c 0,1.66 -1.343,3 -3,3 -1.657,0 -3,-1.34 -3,-3 0,-1.66 1.343,-3 3,-3 1.657,0 3,1.34 3,3 z"
                                   style="fill:#000000;fill-opacity:1;fill-rule:nonzero;stroke:none"
                                   id="path1174" /><path
                                   d="m 96.205,276.72 c 0,1.66 -1.343,3 -3,3 -1.657,0 -3,-1.34 -3,-3 0,-1.66 1.343,-3 3,-3 1.657,0 3,1.34 3,3 z"
                                   style="fill:none;stroke:#000000;stroke-width:1;stroke-linecap:round;stroke-linejoin:round;stroke-miterlimit:10;stroke-dasharray:none;stroke-opacity:1"
                                   id="path1176" /><g
                                   id="g1178"
                                   transform="matrix(0.19,0,0,0.19,86.9991,297.198)"><path
                                   d="m 8.7969,-5.9062 v 0 L 14.594,-29 c 1.073,-4.271 1.609,-7.073 1.609,-8.406 0,-3.063 -1.036,-4.594 -3.109,-4.594 -2.729,0 -4.9586,3.167 -6.6878,9.5 -0.2083,0.729 -0.4114,1.531 -0.6093,2.406 -0.7292,1.459 -1.2969,2.224 -1.7031,2.297 -0.7917,0 -1.1876,-0.333 -1.1876,-1 0,-1.073 0.6667,-3.474 2,-7.203 v -0.094 c 0,-0.073 0.0313,-0.109 0.0938,-0.109 v -0.094 -0.109 L 5.9062,-38.5 c 1.4584,-2.667 2.9584,-4.333 4.4998,-5 0.927,-0.469 1.927,-0.703 3,-0.703 3.729,0 6.427,1.568 8.094,4.703 0.604,1.198 0.969,2.531 1.094,4 4.271,-5.802 9.474,-8.703 15.609,-8.703 5.729,0 9.359,2.203 10.891,6.609 0.406,1.198 0.609,2.563 0.609,4.094 0,3.396 -2.036,10.729 -6.109,22 -1.198,2.9375 -1.797,5.3021 -1.797,7.0938 0,2.2083 0.802,3.3124 2.406,3.3124 4.396,0 7.797,-4.1354 10.203,-12.4062 0.334,-1.062 0.667,-1.63 1,-1.703 v -0.094 h 0.5 c 0.792,0 1.188,0.333 1.188,1 0,1.136 -0.698,3.235 -2.094,6.297 -2.865,6.0625 -6.531,9.0938 -11,9.0938 -3.396,0 -5.828,-1.43234 -7.297,-4.2969 -0.604,-1.1979 -0.906,-2.4948 -0.906,-3.8907 0,-1.3333 0.333,-2.8697 1,-4.6092 4.333,-11.667 6.5,-19.432 6.5,-23.297 0,-4.667 -1.797,-7 -5.391,-7 -6,0 -11.036,3.333 -15.109,10 -0.469,0.729 -0.87,1.464 -1.203,2.203 l -1.297,5 c -0.333,1.531 -0.901,3.766 -1.703,6.703 l -2.188,9.0002 C 15.271,-4.5 14.635,-2.0365 14.5,-1.7031 13.896,0.036458 12.661,0.96875 10.797,1.0938 9.1302,0.76042 8.1667,-0.13542 7.9062,-1.5938 c 0,0.125 0.2969,-1.3124 0.8907,-4.3124 z"
                                   style="fill:#000000;fill-opacity:1;fill-rule:nonzero;stroke:none"
                                   id="path1180" /><g
                                   id="g1182"
                                   transform="matrix(5.2632,0,0,5.2632,-457.89,-1564.2)"><path
                                   d="m 121,276.72 c 0,1.66 -1.34,3 -3,3 -1.66,0 -3,-1.34 -3,-3 0,-1.66 1.34,-3 3,-3 1.66,0 3,1.34 3,3 z"
                                   style="fill:#0000ff;fill-opacity:1;fill-rule:nonzero;stroke:none"
                                   id="path1184" /><path
                                   d="m 121,276.72 c 0,1.66 -1.34,3 -3,3 -1.66,0 -3,-1.34 -3,-3 0,-1.66 1.34,-3 3,-3 1.66,0 3,1.34 3,3 z"
                                   style="fill:none;stroke:#000000;stroke-width:1;stroke-linecap:round;stroke-linejoin:round;stroke-miterlimit:10;stroke-dasharray:none;stroke-opacity:1"
                                   id="path1186" /><g
                                   id="g1188"
                                   transform="scale(19)"><g
                                   id="g1190"
                                   transform="matrix(0.01,0,0,0.01,5.5263,15.589)"><path
                                   d="m 8.7969,-5.9062 v 0 L 14.594,-29 c 1.073,-4.271 1.609,-7.073 1.609,-8.406 0,-3.063 -1.036,-4.594 -3.109,-4.594 -2.729,0 -4.9586,3.167 -6.6878,9.5 -0.2083,0.729 -0.4114,1.531 -0.6093,2.406 -0.7292,1.459 -1.2969,2.224 -1.7031,2.297 -0.7917,0 -1.1876,-0.333 -1.1876,-1 0,-1.073 0.6303,-3.338 1.8907,-6.797 0.4062,-1.135 0.8073,-2.104 1.2031,-2.906 1.6042,-3.271 3.6042,-5.135 6,-5.594 0.469,-0.073 0.938,-0.109 1.406,-0.109 3.594,0 6.261,1.5 8,4.5 0.667,1.271 1.063,2.672 1.188,4.203 4.271,-5.802 9.474,-8.703 15.609,-8.703 3.396,0 6.13,0.87 8.203,2.609 1.865,1.594 2.927,3.959 3.188,7.094 4.541,-6.469 9.979,-9.703 16.312,-9.703 5.927,0 9.594,2.302 11,6.906 v 0.094 c 0.334,1.135 0.5,2.37 0.5,3.703 0,3.531 -2.036,10.865 -6.109,22 -1.198,2.9375 -1.797,5.3021 -1.797,7.0938 0,2.2083 0.802,3.3124 2.406,3.3124 4.125,0 7.391,-3.6666 9.797,-11.0002 l 0.391,-1.406 c 0.333,-1.062 0.666,-1.63 1,-1.703 v -0.094 h 0.5 c 0.802,0 1.203,0.333 1.203,1 0,1.136 -0.698,3.235 -2.094,6.297 -2.864,6.0625 -6.531,9.0938 -11,9.0938 -3.406,0 -5.838,-1.43234 -7.297,-4.2969 C 63.802,-4.401 63.5,-5.6979 63.5,-7.0938 63.5,-8.4271 63.932,-10.26 64.797,-12.594 68.932,-23.531 71,-31 71,-35 c 0,-4.667 -1.802,-7 -5.406,-7 -5.865,0 -10.729,3.167 -14.594,9.5 -1.062,1.667 -1.698,2.932 -1.906,3.797 -0.198,0.864 -2.198,8.901 -6,24.1092 C 42.365,-1.7292 41.531,0 40.594,0.59375 L 40.5,0.70312 H 40.406 C 39.938,0.96354 39.333,1.0938 38.594,1.0938 36.927,0.76042 35.964,-0.13542 35.703,-1.5938 L 37,-7.5 l 2,-7.594 2.797,-11.609 c 1,-3.729 1.5,-6.495 1.5,-8.297 0,-4.667 -1.797,-7 -5.391,-7 -6,0 -11.036,3.333 -15.109,10 -0.469,0.729 -0.87,1.464 -1.203,2.203 l -1.297,5 c -0.333,1.531 -0.901,3.766 -1.703,6.703 l -2.188,9.0002 C 15.271,-4.5 14.635,-2.0365 14.5,-1.7031 13.896,0.036458 12.661,0.96875 10.797,1.0938 9.1302,0.76042 8.1667,-0.13542 7.9062,-1.5938 c 0,0.125 0.2969,-1.3124 0.8907,-4.3124 z"
                                   style="fill:#0000ff;fill-opacity:1;fill-rule:nonzero;stroke:none"
                                   id="path1192" /><g
                                   id="g1194"
                                   transform="matrix(5.2632,0,0,5.2632,-552.63,-1558.9)"><path
                                   d="m 179.46,276.72 c 0,1.66 -1.34,3 -3,3 -1.66,0 -3,-1.34 -3,-3 0,-1.66 1.34,-3 3,-3 1.66,0 3,1.34 3,3 z"
                                   style="fill:#0000ff;fill-opacity:1;fill-rule:nonzero;stroke:none"
                                   id="path1196" /><path
                                   d="m 179.46,276.72 c 0,1.66 -1.34,3 -3,3 -1.66,0 -3,-1.34 -3,-3 0,-1.66 1.34,-3 3,-3 1.66,0 3,1.34 3,3 z"
                                   style="fill:none;stroke:#000000;stroke-width:1;stroke-linecap:round;stroke-linejoin:round;stroke-miterlimit:10;stroke-dasharray:none;stroke-opacity:1"
                                   id="path1198" /><g
                                   id="g1200"
                                   transform="scale(19)"><g
                                   id="g1202"
                                   transform="matrix(0.01,0,0,0.01,9,15.642)"><path
                                   d="m 8.7969,-5.9062 v 0 L 14.594,-29 c 1.073,-4.271 1.609,-7.073 1.609,-8.406 0,-3.063 -1.036,-4.594 -3.109,-4.594 -2.729,0 -4.9586,3.167 -6.6878,9.5 -0.2083,0.729 -0.4114,1.531 -0.6093,2.406 -0.7292,1.459 -1.2969,2.224 -1.7031,2.297 -0.7917,0 -1.1876,-0.333 -1.1876,-1 0,-1.073 0.6667,-3.474 2,-7.203 v -0.094 c 0,-0.073 0.0313,-0.109 0.0938,-0.109 v -0.094 -0.109 L 5.9062,-38.5 c 1.4584,-2.667 2.9584,-4.333 4.4998,-5 0.927,-0.469 1.927,-0.703 3,-0.703 3.729,0 6.427,1.568 8.094,4.703 0.604,1.198 0.969,2.531 1.094,4 4.271,-5.802 9.474,-8.703 15.609,-8.703 5.729,0 9.359,2.203 10.891,6.609 0.406,1.198 0.609,2.563 0.609,4.094 0,3.396 -2.036,10.729 -6.109,22 -1.198,2.9375 -1.797,5.3021 -1.797,7.0938 0,2.2083 0.802,3.3124 2.406,3.3124 4.396,0 7.797,-4.1354 10.203,-12.4062 0.334,-1.062 0.667,-1.63 1,-1.703 v -0.094 h 0.5 c 0.792,0 1.188,0.333 1.188,1 0,1.136 -0.698,3.235 -2.094,6.297 -2.865,6.0625 -6.531,9.0938 -11,9.0938 -3.396,0 -5.828,-1.43234 -7.297,-4.2969 -0.604,-1.1979 -0.906,-2.4948 -0.906,-3.8907 0,-1.3333 0.333,-2.8697 1,-4.6092 4.333,-11.667 6.5,-19.432 6.5,-23.297 0,-4.667 -1.797,-7 -5.391,-7 -6,0 -11.036,3.333 -15.109,10 -0.469,0.729 -0.87,1.464 -1.203,2.203 l -1.297,5 c -0.333,1.531 -0.901,3.766 -1.703,6.703 l -2.188,9.0002 C 15.271,-4.5 14.635,-2.0365 14.5,-1.7031 13.896,0.036458 12.661,0.96875 10.797,1.0938 9.1302,0.76042 8.1667,-0.13542 7.9062,-1.5938 c 0,0.125 0.2969,-1.3124 0.8907,-4.3124 z"
                                   style="fill:#0000ff;fill-opacity:1;fill-rule:nonzero;stroke:none"
                                   id="path1204" /><g
                                   id="g1206"
                                   transform="matrix(5.2632,0,0,5.2632,-900,-1564.2)"><path
                                   d="m 153,266.97 c 0,1.66 -1.34,3 -3,3 -1.66,0 -3,-1.34 -3,-3 0,-1.65 1.34,-3 3,-3 1.66,0 3,1.35 3,3 z"
                                   style="fill:#9933ff;fill-opacity:1;fill-rule:nonzero;stroke:none"
                                   id="path1208" /><path
                                   d="m 153,266.97 c 0,1.66 -1.34,3 -3,3 -1.66,0 -3,-1.34 -3,-3 0,-1.65 1.34,-3 3,-3 1.66,0 3,1.35 3,3 z"
                                   style="fill:none;stroke:#000000;stroke-width:1;stroke-linecap:round;stroke-linejoin:round;stroke-miterlimit:10;stroke-dasharray:none;stroke-opacity:1"
                                   id="path1210" /><g
                                   id="g1212"
                                   transform="scale(19)"><g
                                   id="g1214"
                                   transform="matrix(0.01,0,0,0.01,7.4211,13.484)"><path
                                   d="m 8.7969,-5.9062 v 0 L 14.594,-29 c 1.073,-4.271 1.609,-7.073 1.609,-8.406 0,-3.063 -1.036,-4.594 -3.109,-4.594 -2.729,0 -4.9586,3.167 -6.6878,9.5 -0.2083,0.729 -0.4114,1.531 -0.6093,2.406 -0.7292,1.459 -1.2969,2.224 -1.7031,2.297 -0.7917,0 -1.1876,-0.333 -1.1876,-1 0,-1.073 0.6303,-3.338 1.8907,-6.797 0.4062,-1.135 0.8073,-2.104 1.2031,-2.906 1.6042,-3.271 3.6042,-5.135 6,-5.594 0.469,-0.073 0.938,-0.109 1.406,-0.109 3.594,0 6.261,1.5 8,4.5 0.667,1.271 1.063,2.672 1.188,4.203 4.271,-5.802 9.474,-8.703 15.609,-8.703 3.396,0 6.13,0.87 8.203,2.609 1.865,1.594 2.927,3.959 3.188,7.094 4.541,-6.469 9.979,-9.703 16.312,-9.703 5.927,0 9.594,2.302 11,6.906 v 0.094 c 0.334,1.135 0.5,2.37 0.5,3.703 0,3.531 -2.036,10.865 -6.109,22 -1.198,2.9375 -1.797,5.3021 -1.797,7.0938 0,2.2083 0.802,3.3124 2.406,3.3124 4.125,0 7.391,-3.6666 9.797,-11.0002 l 0.391,-1.406 c 0.333,-1.062 0.666,-1.63 1,-1.703 v -0.094 h 0.5 c 0.802,0 1.203,0.333 1.203,1 0,1.136 -0.698,3.235 -2.094,6.297 -2.864,6.0625 -6.531,9.0938 -11,9.0938 -3.406,0 -5.838,-1.43234 -7.297,-4.2969 C 63.802,-4.401 63.5,-5.6979 63.5,-7.0938 63.5,-8.4271 63.932,-10.26 64.797,-12.594 68.932,-23.531 71,-31 71,-35 c 0,-4.667 -1.802,-7 -5.406,-7 -5.865,0 -10.729,3.167 -14.594,9.5 -1.062,1.667 -1.698,2.932 -1.906,3.797 -0.198,0.864 -2.198,8.901 -6,24.1092 C 42.365,-1.7292 41.531,0 40.594,0.59375 L 40.5,0.70312 H 40.406 C 39.938,0.96354 39.333,1.0938 38.594,1.0938 36.927,0.76042 35.964,-0.13542 35.703,-1.5938 L 37,-7.5 l 2,-7.594 2.797,-11.609 c 1,-3.729 1.5,-6.495 1.5,-8.297 0,-4.667 -1.797,-7 -5.391,-7 -6,0 -11.036,3.333 -15.109,10 -0.469,0.729 -0.87,1.464 -1.203,2.203 l -1.297,5 c -0.333,1.531 -0.901,3.766 -1.703,6.703 l -2.188,9.0002 C 15.271,-4.5 14.635,-2.0365 14.5,-1.7031 13.896,0.036458 12.661,0.96875 10.797,1.0938 9.1302,0.76042 8.1667,-0.13542 7.9062,-1.5938 c 0,0.125 0.2969,-1.3124 0.8907,-4.3124 z"
                                   style="fill:#9933ff;fill-opacity:1;fill-rule:nonzero;stroke:none"
                                   id="path1216" /><g
                                   id="g1218"
                                   transform="matrix(5.2632,0,0,5.2632,-742.11,-1348.4)"><path
                                   d="m 211.46,266.97 c 0,1.66 -1.34,3 -3,3 -1.66,0 -3,-1.34 -3,-3 0,-1.65 1.34,-3 3,-3 1.66,0 3,1.35 3,3 z"
                                   style="fill:#9933ff;fill-opacity:1;fill-rule:nonzero;stroke:none"
                                   id="path1220" /><path
                                   d="m 211.46,266.97 c 0,1.66 -1.34,3 -3,3 -1.66,0 -3,-1.34 -3,-3 0,-1.65 1.34,-3 3,-3 1.66,0 3,1.35 3,3 z"
                                   style="fill:none;stroke:#000000;stroke-width:1;stroke-linecap:round;stroke-linejoin:round;stroke-miterlimit:10;stroke-dasharray:none;stroke-opacity:1"
                                   id="path1222" /><g
                                   id="g1224"
                                   transform="scale(19)"><g
                                   id="g1226"
                                   transform="matrix(0.01,0,0,0.01,10.632,13.484)"><path
                                   d="m 8.7969,-5.9062 v 0 L 14.594,-29 c 1.073,-4.271 1.609,-7.073 1.609,-8.406 0,-3.063 -1.036,-4.594 -3.109,-4.594 -2.729,0 -4.9586,3.167 -6.6878,9.5 -0.2083,0.729 -0.4114,1.531 -0.6093,2.406 -0.7292,1.459 -1.2969,2.224 -1.7031,2.297 -0.7917,0 -1.1876,-0.333 -1.1876,-1 0,-1.073 0.6667,-3.474 2,-7.203 v -0.094 c 0,-0.073 0.0313,-0.109 0.0938,-0.109 v -0.094 -0.109 L 5.9062,-38.5 c 1.4584,-2.667 2.9584,-4.333 4.4998,-5 0.927,-0.469 1.927,-0.703 3,-0.703 3.729,0 6.427,1.568 8.094,4.703 0.604,1.198 0.969,2.531 1.094,4 4.271,-5.802 9.474,-8.703 15.609,-8.703 5.729,0 9.359,2.203 10.891,6.609 0.406,1.198 0.609,2.563 0.609,4.094 0,3.396 -2.036,10.729 -6.109,22 -1.198,2.9375 -1.797,5.3021 -1.797,7.0938 0,2.2083 0.802,3.3124 2.406,3.3124 4.396,0 7.797,-4.1354 10.203,-12.4062 0.334,-1.062 0.667,-1.63 1,-1.703 v -0.094 h 0.5 c 0.792,0 1.188,0.333 1.188,1 0,1.136 -0.698,3.235 -2.094,6.297 -2.865,6.0625 -6.531,9.0938 -11,9.0938 -3.396,0 -5.828,-1.43234 -7.297,-4.2969 -0.604,-1.1979 -0.906,-2.4948 -0.906,-3.8907 0,-1.3333 0.333,-2.8697 1,-4.6092 4.333,-11.667 6.5,-19.432 6.5,-23.297 0,-4.667 -1.797,-7 -5.391,-7 -6,0 -11.036,3.333 -15.109,10 -0.469,0.729 -0.87,1.464 -1.203,2.203 l -1.297,5 c -0.333,1.531 -0.901,3.766 -1.703,6.703 l -2.188,9.0002 C 15.271,-4.5 14.635,-2.0365 14.5,-1.7031 13.896,0.036458 12.661,0.96875 10.797,1.0938 9.1302,0.76042 8.1667,-0.13542 7.9062,-1.5938 c 0,0.125 0.2969,-1.3124 0.8907,-4.3124 z"
                                   style="fill:#9933ff;fill-opacity:1;fill-rule:nonzero;stroke:none"
                                   id="path1228" /><g
                                   id="g1230"
                                   transform="matrix(5.2632,0,0,5.2632,-1063.2,-1348.4)"><path
                                   d="m 230.26,276.72 c 0,1.66 -1.35,3 -3,3 -1.66,0 -3,-1.34 -3,-3 0,-1.66 1.34,-3 3,-3 1.65,0 3,1.34 3,3 z"
                                   style="fill:#993300;fill-opacity:1;fill-rule:nonzero;stroke:none"
                                   id="path1232" /><path
                                   d="m 230.26,276.72 c 0,1.66 -1.35,3 -3,3 -1.66,0 -3,-1.34 -3,-3 0,-1.66 1.34,-3 3,-3 1.65,0 3,1.34 3,3 z"
                                   style="fill:none;stroke:#000000;stroke-width:1;stroke-linecap:round;stroke-linejoin:round;stroke-miterlimit:10;stroke-dasharray:none;stroke-opacity:1"
                                   id="path1234" /><g
                                   id="g1236"
                                   transform="scale(19)"><g
                                   id="g1238"
                                   transform="matrix(0.01,0,0,0.01,11.368,15.694)"><path
                                   d="m 8.7969,-5.9062 v 0 L 14.594,-29 c 1.073,-4.271 1.609,-7.073 1.609,-8.406 0,-3.063 -1.036,-4.594 -3.109,-4.594 -2.729,0 -4.9586,3.167 -6.6878,9.5 -0.2083,0.729 -0.4114,1.531 -0.6093,2.406 -0.7292,1.459 -1.2969,2.224 -1.7031,2.297 -0.7917,0 -1.1876,-0.333 -1.1876,-1 0,-1.073 0.6303,-3.338 1.8907,-6.797 0.4062,-1.135 0.8073,-2.104 1.2031,-2.906 1.6042,-3.271 3.6042,-5.135 6,-5.594 0.469,-0.073 0.938,-0.109 1.406,-0.109 3.594,0 6.261,1.5 8,4.5 0.667,1.271 1.063,2.672 1.188,4.203 4.271,-5.802 9.474,-8.703 15.609,-8.703 3.396,0 6.13,0.87 8.203,2.609 1.865,1.594 2.927,3.959 3.188,7.094 4.541,-6.469 9.979,-9.703 16.312,-9.703 5.927,0 9.594,2.302 11,6.906 v 0.094 c 0.334,1.135 0.5,2.37 0.5,3.703 0,3.531 -2.036,10.865 -6.109,22 -1.198,2.9375 -1.797,5.3021 -1.797,7.0938 0,2.2083 0.802,3.3124 2.406,3.3124 4.125,0 7.391,-3.6666 9.797,-11.0002 l 0.391,-1.406 c 0.333,-1.062 0.666,-1.63 1,-1.703 v -0.094 h 0.5 c 0.802,0 1.203,0.333 1.203,1 0,1.136 -0.698,3.235 -2.094,6.297 -2.864,6.0625 -6.531,9.0938 -11,9.0938 -3.406,0 -5.838,-1.43234 -7.297,-4.2969 C 63.802,-4.401 63.5,-5.6979 63.5,-7.0938 63.5,-8.4271 63.932,-10.26 64.797,-12.594 68.932,-23.531 71,-31 71,-35 c 0,-4.667 -1.802,-7 -5.406,-7 -5.865,0 -10.729,3.167 -14.594,9.5 -1.062,1.667 -1.698,2.932 -1.906,3.797 -0.198,0.864 -2.198,8.901 -6,24.1092 C 42.365,-1.7292 41.531,0 40.594,0.59375 L 40.5,0.70312 H 40.406 C 39.938,0.96354 39.333,1.0938 38.594,1.0938 36.927,0.76042 35.964,-0.13542 35.703,-1.5938 L 37,-7.5 l 2,-7.594 2.797,-11.609 c 1,-3.729 1.5,-6.495 1.5,-8.297 0,-4.667 -1.797,-7 -5.391,-7 -6,0 -11.036,3.333 -15.109,10 -0.469,0.729 -0.87,1.464 -1.203,2.203 l -1.297,5 c -0.333,1.531 -0.901,3.766 -1.703,6.703 l -2.188,9.0002 C 15.271,-4.5 14.635,-2.0365 14.5,-1.7031 13.896,0.036458 12.661,0.96875 10.797,1.0938 9.1302,0.76042 8.1667,-0.13542 7.9062,-1.5938 c 0,0.125 0.2969,-1.3124 0.8907,-4.3124 z"
                                   style="fill:#993300;fill-opacity:1;fill-rule:nonzero;stroke:none"
                                   id="path1240" /><g
                                   id="g1242"
                                   transform="matrix(5.2632,0,0,5.2632,-1136.8,-1569.4)"><path
                                   d="m 288.72,276.72 c 0,1.66 -1.35,3 -3,3 -1.66,0 -3,-1.34 -3,-3 0,-1.66 1.34,-3 3,-3 1.65,0 3,1.34 3,3 z"
                                   style="fill:#993300;fill-opacity:1;fill-rule:nonzero;stroke:none"
                                   id="path1244" /><path
                                   d="m 288.72,276.72 c 0,1.66 -1.35,3 -3,3 -1.66,0 -3,-1.34 -3,-3 0,-1.66 1.34,-3 3,-3 1.65,0 3,1.34 3,3 z"
                                   style="fill:none;stroke:#000000;stroke-width:1;stroke-linecap:round;stroke-linejoin:round;stroke-miterlimit:10;stroke-dasharray:none;stroke-opacity:1"
                                   id="path1246" /><g
                                   id="g1248"
                                   transform="scale(19)"><g
                                   id="g1250"
                                   transform="matrix(0.01,0,0,0.01,14.684,15.694)"><path
                                   d="m 8.7969,-5.9062 v 0 L 14.594,-29 c 1.073,-4.271 1.609,-7.073 1.609,-8.406 0,-3.063 -1.036,-4.594 -3.109,-4.594 -2.729,0 -4.9586,3.167 -6.6878,9.5 -0.2083,0.729 -0.4114,1.531 -0.6093,2.406 -0.7292,1.459 -1.2969,2.224 -1.7031,2.297 -0.7917,0 -1.1876,-0.333 -1.1876,-1 0,-1.073 0.6667,-3.474 2,-7.203 v -0.094 c 0,-0.073 0.0313,-0.109 0.0938,-0.109 v -0.094 -0.109 L 5.9062,-38.5 c 1.4584,-2.667 2.9584,-4.333 4.4998,-5 0.927,-0.469 1.927,-0.703 3,-0.703 3.729,0 6.427,1.568 8.094,4.703 0.604,1.198 0.969,2.531 1.094,4 4.271,-5.802 9.474,-8.703 15.609,-8.703 5.729,0 9.359,2.203 10.891,6.609 0.406,1.198 0.609,2.563 0.609,4.094 0,3.396 -2.036,10.729 -6.109,22 -1.198,2.9375 -1.797,5.3021 -1.797,7.0938 0,2.2083 0.802,3.3124 2.406,3.3124 4.396,0 7.797,-4.1354 10.203,-12.4062 0.334,-1.062 0.667,-1.63 1,-1.703 v -0.094 h 0.5 c 0.792,0 1.188,0.333 1.188,1 0,1.136 -0.698,3.235 -2.094,6.297 -2.865,6.0625 -6.531,9.0938 -11,9.0938 -3.396,0 -5.828,-1.43234 -7.297,-4.2969 -0.604,-1.1979 -0.906,-2.4948 -0.906,-3.8907 0,-1.3333 0.333,-2.8697 1,-4.6092 4.333,-11.667 6.5,-19.432 6.5,-23.297 0,-4.667 -1.797,-7 -5.391,-7 -6,0 -11.036,3.333 -15.109,10 -0.469,0.729 -0.87,1.464 -1.203,2.203 l -1.297,5 c -0.333,1.531 -0.901,3.766 -1.703,6.703 l -2.188,9.0002 C 15.271,-4.5 14.635,-2.0365 14.5,-1.7031 13.896,0.036458 12.661,0.96875 10.797,1.0938 9.1302,0.76042 8.1667,-0.13542 7.9062,-1.5938 c 0,0.125 0.2969,-1.3124 0.8907,-4.3124 z"
                                   style="fill:#993300;fill-opacity:1;fill-rule:nonzero;stroke:none"
                                   id="path1252" /><g
                                   id="g1254"
                                   transform="matrix(5.2632,0,0,5.2632,-1468.4,-1569.4)"><g
                                   id="g1256"
                                   transform="scale(19)"><g
                                   id="g1258"
                                   transform="matrix(0.01,0,0,0.01,11.579,10.864)"><path
                                   d="m 36.703,-40 v 0 l -6,31.7031 c -0.604,4.1354 -1.807,8.86982 -3.609,14.2031 -0.667,1.9271 -1.334,3.5573 -2,4.8908 -2.334,4.937 -5.229,8.005 -8.688,9.203 -0.875,0.333 -1.745,0.5 -2.609,0.5 -3.333,0 -5.797,-1.135 -7.3908,-3.406 -0.7395,-1 -1.1093,-2.167 -1.1093,-3.5 0,-2.667 1.1354,-4.5002 3.4062,-5.5002 0.6667,-0.3334 1.3649,-0.5 2.0939,-0.5 1.937,0 3.141,0.8333 3.609,2.5002 0.063,0.333 0.094,0.666 0.094,1 0,2.271 -1,3.875 -3,4.812 -0.729,0.334 -1.5625,0.532 -2.5,0.594 1.271,1.198 2.87,1.797 4.797,1.797 2.937,0 5.239,-3.266 6.906,-9.797 0.333,-1.5312 0.735,-3.5312 1.203,-6 L 22.5,-0.5 30,-40 h -6.594 c -1.666,0 -2.567,-0.266 -2.703,-0.797 h -0.109 v -0.406 c 0,-1.136 0.567,-1.766 1.703,-1.891 v 0 h 1.297 6.906 c 1.604,-8.333 2.703,-13.567 3.297,-15.703 2,-6.667 5.536,-10.5 10.609,-11.5 0.729,-0.135 1.427,-0.203 2.094,-0.203 3.469,0 6,1.135 7.594,3.406 v 0 c 0.739,1 1.109,2.167 1.109,3.5 0,2.667 -1.135,4.5 -3.406,5.5 -0.667,0.334 -1.365,0.5 -2.094,0.5 -1.937,0 -3.141,-0.833 -3.609,-2.5 -0.063,-0.333 -0.094,-0.666 -0.094,-1 0,-2.073 0.932,-3.609 2.797,-4.609 0.739,-0.469 1.609,-0.735 2.609,-0.797 -1.271,-1.198 -2.906,-1.797 -4.906,-1.797 -2.062,0 -3.63,1.13 -4.703,3.391 -0.469,0.937 -1.266,4.406 -2.391,10.406 l -2.109,11.406 h 8.297 c 1.666,0 2.567,0.365 2.703,1.094 0,1.198 -0.531,1.865 -1.594,2 h -0.109 -1.297 z"
                                   style="fill:#000000;fill-opacity:1;fill-rule:nonzero;stroke:none"
                                   id="path1260" /><g
                                   id="g1262"
                                   transform="translate(59.8)"><path
                                   d="m 33.094,24 v 0 c 0,0.667 -0.334,1 -1,1 -0.792,0 -2.558,-1.365 -5.297,-4.094 C 22.661,16.771 19.229,11.87 16.5,6.2031 12.104,-2.8698 9.9062,-13.271 9.9062,-25 c 0,-11.271 2.0988,-21.438 6.2968,-30.5 3.469,-7.396 7.87,-13.328 13.203,-17.797 1.396,-1.135 2.292,-1.703 2.688,-1.703 0.666,0 1,0.333 1,1 0,0.333 -0.433,0.901 -1.297,1.703 C 21.068,-61.37 15.703,-45.604 15.703,-25 c 0,20.5312 5.235,36.13 15.703,46.797 1.125,1.135 1.688,1.87 1.688,2.203 z"
                                   style="fill:#000000;fill-opacity:1;fill-rule:nonzero;stroke:none"
                                   id="path1264" /><g
                                   id="g1266"
                                   transform="translate(38.9)"><path
                                   d="M 33.406,-30.203 30,-16.5 c -1.135,4.531 -1.703,7.4635 -1.703,8.7969 0,3.4687 1.234,5.5677 3.703,6.2969 0.531,0.2083 1.13,0.3124 1.797,0.3124 3.333,0 6.37,-1.6666 9.109,-5 1.792,-2.1354 3.188,-4.8382 4.188,-8.1092 0.208,-0.729 0.646,-1.094 1.312,-1.094 0.792,0 1.188,0.333 1.188,1 0,1.667 -1.032,4.068 -3.094,7.2032 -3.604,5.4584 -7.906,8.1876 -12.906,8.1876 -4.532,0 -7.828,-1.89588 -9.891,-5.6876 -0.406,-0.6041 -0.708,-1.2395 -0.906,-1.9062 -1.594,3.1979 -3.792,5.4323 -6.594,6.70312 -1.271,0.59376 -2.573,0.89068 -3.906,0.89068 -4.0001,0 -6.797,-1.166717 -8.3908,-3.5 -0.6666,-0.8646 -1,-1.8959 -1,-3.0938 0,-2.4688 1.0626,-4.2031 3.1876,-5.203 0.7395,-0.396 1.5104,-0.594 2.3124,-0.594 1.9998,0 3.1978,0.833 3.5938,2.5001 0.062,0.3334 0.094,0.6667 0.094,1 0,2.2604 -1.13,3.9271 -3.3909,5 -0.4062,0.1979 -0.8385,0.3281 -1.2969,0.3907 1.3959,0.875 3.0628,1.3124 4.9998,1.3124 3.532,0 6.328,-2.3697 8.391,-7.1093 0.406,-1 0.776,-2.0989 1.109,-3.2969 3.594,-13.604 5.391,-21.536 5.391,-23.797 -0.396,-4.135 -2.193,-6.37 -5.391,-6.703 -3.468,0 -6.635,1.766 -9.5,5.297 v 0.109 c 0,0.063 -0.036,0.094 -0.109,0.094 -1,1.333 -1.901,2.865 -2.7032,4.594 -0.3334,0.802 -0.6303,1.604 -0.8907,2.406 L 8.5,-28.906 c -0.1354,0.739 -0.5677,1.109 -1.2969,1.109 -0.8021,0 -1.2031,-0.333 -1.2031,-1 0,-1.667 1.0677,-4.068 3.2031,-7.203 3.5939,-5.469 7.8909,-8.203 12.8909,-8.203 5.135,0 8.739,2.536 10.812,7.609 2.125,-4.135 4.959,-6.604 8.5,-7.406 0.667,-0.135 1.334,-0.203 2,-0.203 3.927,0 6.693,1.099 8.297,3.297 0.667,0.937 1,2.041 1,3.312 0,2.729 -1.234,4.563 -3.703,5.5 -0.604,0.198 -1.172,0.297 -1.703,0.297 -2.063,0 -3.297,-0.901 -3.703,-2.703 -0.063,-0.271 -0.094,-0.536 -0.094,-0.797 0,-2 0.969,-3.568 2.906,-4.703 0.594,-0.333 1.224,-0.568 1.891,-0.703 -1.396,-0.865 -3.063,-1.297 -5,-1.297 -4.531,0 -7.729,3.531 -9.594,10.594 -0.135,0.406 -0.234,0.807 -0.297,1.203 z"
                                   style="fill:#000000;fill-opacity:1;fill-rule:nonzero;stroke:none"
                                   id="path1268" /><g
                                   id="g1270"
                                   transform="translate(57.2)"><path
                                   d="m 28.906,-25 v 0 c 0,11.271 -2.104,21.4375 -6.312,30.5 C 19.135,12.896 14.74,18.828 9.4062,23.297 8,24.432 7.099,25 6.7031,25 c -0.6666,0 -1,-0.333 -1,-1 C 5.7031,23.667 6.1354,23.099 7,22.297 17.729,11.37 23.094,-4.3958 23.094,-25 c 0,-20.333 -5,-35.734 -15.0002,-46.203 l -0.5,-0.5 C 6.3333,-72.901 5.7031,-73.667 5.7031,-74 c 0,-0.667 0.3334,-1 1,-1 0.8021,0 2.5677,1.365 5.2969,4.094 4.135,4.135 7.568,9.036 10.297,14.703 4.406,9.073 6.609,19.474 6.609,31.203 z"
                                   style="fill:#000000;fill-opacity:1;fill-rule:nonzero;stroke:none"
                                   id="path1272" /><g
                                   id="g1274"
                                   transform="translate(66.7)"><path
                                   d="M 68.703,-32.703 H 9 c -2.1354,0 -3.2708,-0.667 -3.4062,-2 0,-1.333 1.1041,-2 3.3124,-2 H 68.797 c 2.135,0 3.234,0.667 3.297,2 0,1.333 -1.13,2 -3.391,2 z m 0.094,19.406 H 8.9062 c -2.1354,0 -3.2395,-0.667 -3.3124,-2 0,-1.333 1.1354,-2 3.4062,-2 h 59.703 c 2.136,0 3.266,0.667 3.391,2 0,1.333 -1.099,2 -3.297,2 z"
                                   style="fill:#000000;fill-opacity:1;fill-rule:nonzero;stroke:none"
                                   id="path1276" /><g
                                   id="g1278"
                                   transform="translate(105.6)"><path
                                   d="m 17.906,-11.5 34.797,-58.406 c 0.667,-1.063 1.531,-1.625 2.594,-1.688 1,0 1.568,0.334 1.703,1 0.062,0.198 0.13,0.662 0.203,1.391 l 6.094,62.4999 c 0.198,1.6666 0.599,2.6666 1.203,3 h 0.094 v 0 0 0 0.1093 c 0.802,0.3334 2.536,0.5 5.203,0.5 1.469,0 2.234,0.3646 2.297,1.0938 0,1.33333 -0.599,2 -1.797,2 L 59.094,-0.29688 H 59 L 46.594,0 H 46.5 c -0.938,0 -1.406,-0.36458 -1.406,-1.0938 0.541,-1.2708 1.344,-1.9374 2.406,-2 4.802,0 7.203,-1.1041 7.203,-3.3124 0,0.0729 -0.536,-5.4898 -1.609,-16.6878 H 28 l -7.594,12.797 C 19.469,-8.6302 19,-7.3958 19,-6.5938 c 0,2.0626 1.568,3.2292 4.703,3.5 1.063,0 1.594,0.3959 1.594,1.1876 C 25.297,-0.63542 24.667,0 23.406,0 L 13.797,-0.29688 H 13.406 L 5,0 H 4.7969 C 3.9323,0 3.5,-0.36458 3.5,-1.0938 3.5,-2.3021 4,-2.9375 5,-3 V -3.0938 H 5.5938 C 9.8021,-3.3646 13.24,-5.1667 15.906,-8.5 c 0.667,-0.8646 1.334,-1.865 2,-3 z m 12,-14.703 h 22.891 l -3.203,-33 z"
                                   style="fill:#000000;fill-opacity:1;fill-rule:nonzero;stroke:none"
                                   id="path1280" /><g
                                   id="g1282"
                                   transform="translate(75)"><path
                                   d="M 33.406,-30.203 30,-16.5 c -1.135,4.531 -1.703,7.4635 -1.703,8.7969 0,3.4687 1.234,5.5677 3.703,6.2969 0.531,0.2083 1.13,0.3124 1.797,0.3124 3.333,0 6.37,-1.6666 9.109,-5 1.792,-2.1354 3.188,-4.8382 4.188,-8.1092 0.208,-0.729 0.646,-1.094 1.312,-1.094 0.792,0 1.188,0.333 1.188,1 0,1.667 -1.032,4.068 -3.094,7.2032 -3.604,5.4584 -7.906,8.1876 -12.906,8.1876 -4.532,0 -7.828,-1.89588 -9.891,-5.6876 -0.406,-0.6041 -0.708,-1.2395 -0.906,-1.9062 -1.594,3.1979 -3.792,5.4323 -6.594,6.70312 -1.271,0.59376 -2.573,0.89068 -3.906,0.89068 -4.0001,0 -6.797,-1.166717 -8.3908,-3.5 -0.6666,-0.8646 -1,-1.8959 -1,-3.0938 0,-2.4688 1.0626,-4.2031 3.1876,-5.203 0.7395,-0.396 1.5104,-0.594 2.3124,-0.594 1.9998,0 3.1978,0.833 3.5938,2.5001 0.062,0.3334 0.094,0.6667 0.094,1 0,2.2604 -1.13,3.9271 -3.3909,5 -0.4062,0.1979 -0.8385,0.3281 -1.2969,0.3907 1.3959,0.875 3.0628,1.3124 4.9998,1.3124 3.532,0 6.328,-2.3697 8.391,-7.1093 0.406,-1 0.776,-2.0989 1.109,-3.2969 3.594,-13.604 5.391,-21.536 5.391,-23.797 -0.396,-4.135 -2.193,-6.37 -5.391,-6.703 -3.468,0 -6.635,1.766 -9.5,5.297 v 0.109 c 0,0.063 -0.036,0.094 -0.109,0.094 -1,1.333 -1.901,2.865 -2.7032,4.594 -0.3334,0.802 -0.6303,1.604 -0.8907,2.406 L 8.5,-28.906 c -0.1354,0.739 -0.5677,1.109 -1.2969,1.109 -0.8021,0 -1.2031,-0.333 -1.2031,-1 0,-1.667 1.0677,-4.068 3.2031,-7.203 3.5939,-5.469 7.8909,-8.203 12.8909,-8.203 5.135,0 8.739,2.536 10.812,7.609 2.125,-4.135 4.959,-6.604 8.5,-7.406 0.667,-0.135 1.334,-0.203 2,-0.203 3.927,0 6.693,1.099 8.297,3.297 0.667,0.937 1,2.041 1,3.312 0,2.729 -1.234,4.563 -3.703,5.5 -0.604,0.198 -1.172,0.297 -1.703,0.297 -2.063,0 -3.297,-0.901 -3.703,-2.703 -0.063,-0.271 -0.094,-0.536 -0.094,-0.797 0,-2 0.969,-3.568 2.906,-4.703 0.594,-0.333 1.224,-0.568 1.891,-0.703 -1.396,-0.865 -3.063,-1.297 -5,-1.297 -4.531,0 -7.729,3.531 -9.594,10.594 -0.135,0.406 -0.234,0.807 -0.297,1.203 z"
                                   style="fill:#000000;fill-opacity:1;fill-rule:nonzero;stroke:none"
                                   id="path1284" /><g
                                   id="g1286"
                                   transform="matrix(0.7,0,0,0.7,57.2,-41.3)"><path
                                   d="m 44.906,-17.406 v 0 L 42.094,0 H 5 c 0,-1.6667 0.1979,-2.7344 0.5938,-3.2031 l 0.5,-0.5 19.2032,-21.3909 c 7,-7.875 10.5,-15.245 10.5,-22.109 0,-5.927 -1.797,-10.427 -5.391,-13.5 l -0.109,-0.094 h -0.094 c -2.135,-1.802 -4.734,-2.703 -7.797,-2.703 -4.802,0 -8.635,2.068 -11.5,6.203 -0.802,1.198 -1.4685,2.531 -1.9998,4 0.198,-0.073 0.6303,-0.109 1.2968,-0.109 2.667,0 4.365,1.203 5.094,3.609 v 0.094 c 0.135,0.469 0.203,0.969 0.203,1.5 0,2.667 -1.266,4.37 -3.797,5.109 -0.531,0.125 -1,0.188 -1.406,0.188 -2.4689,0 -4.0991,-1.032 -4.8908,-3.094 C 5.1354,-46.729 5,-47.562 5,-48.5 c 0,-5.135 1.9688,-9.536 5.906,-13.203 3.532,-3.261 7.797,-4.891 12.797,-4.891 7.333,0 13.031,2.464 17.094,7.391 2.333,2.864 3.667,6.265 4,10.203 0.073,0.604 0.109,1.203 0.109,1.797 0,4.864 -1.833,9.5 -5.5,13.906 -1.937,2.261 -4.937,5.261 -9,9 l -6.109,5.391 -1,0.906 -10.594,10.2969 h 18 c 5.865,0 9.031,-0.2657 9.5,-0.7969 0.667,-0.9375 1.401,-3.906 2.203,-8.906 z"
                                   style="fill:#000000;fill-opacity:1;fill-rule:nonzero;stroke:none"
                                   id="path1288" /><g
                                   id="g1290"
                                   transform="matrix(1.4286,0,0,1.4286,85.53366,59.03104)"><path
                                   d="M 40.906,-23 V 5 c 0,2.1354 -0.666,3.2344 -2,3.2969 -1.333,0 -2,-1.099 -2,-3.2969 V -23 H 8.9062 c -2.1354,0 -3.2395,-0.667 -3.3124,-2 0,-1.333 1.1041,-2 3.3124,-2 H 36.906 v -28 c 0,-2.135 0.667,-3.234 2,-3.297 1.334,0 2,1.099 2,3.297 v 28 h 27.891 c 2.135,0 3.234,0.667 3.297,2 0,1.333 -1.099,2 -3.297,2 z"
                                   style="fill:#000000;fill-opacity:1;fill-rule:nonzero;stroke:none"
                                   id="path1292" /><g
                                   id="g1294"
                                   transform="translate(100)"><path
                                   d="M 16,-7.7969 29.406,-61.5 c 0.261,-1.062 0.391,-1.698 0.391,-1.906 0,-0.792 -0.531,-1.292 -1.594,-1.5 H 28.094 28 c -0.198,0 -0.5,-0.032 -0.906,-0.094 -1.125,-0.135 -2.391,-0.203 -3.797,-0.203 -1.729,0 -2.662,-0.365 -2.797,-1.094 0,-1.198 0.5,-1.864 1.5,-2 h 0.094 0.109 1.203 H 57 c 7.667,0 13.135,2.266 16.406,6.797 1.459,2.135 2.188,4.469 2.188,7 0,5.396 -3,10.094 -9,14.094 -0.063,0 -0.125,0.036 -0.188,0.109 -3.541,2.261 -7.442,3.792 -11.703,4.594 6.802,0.802 11.469,3.469 14,8 1,1.864 1.5,3.901 1.5,6.109 0,4.865 -2.333,9.427 -7,13.6878 l -0.109,0.1093 C 57.365,-2.599 50.531,0 42.594,0 H 6.9062 C 5.2396,0 4.3385,-0.36458 4.2031,-1.0938 c 0,-1.2083 0.5,-1.875 1.5,-2 h 1.2031 c 4.3338,0 6.9328,-0.4687 7.7968,-1.4062 0.396,-0.4688 0.797,-1.401 1.203,-2.7969 0,-0.0729 0.032,-0.2396 0.094,-0.5 z M 31.094,-36.594 h 14.609 c 6.594,0 12.026,-2.401 16.297,-7.203 3,-3.406 4.5,-7.109 4.5,-11.109 0,-4.865 -2,-8.032 -6,-9.5 -1.396,-0.532 -3.031,-0.797 -4.906,-0.797 H 42.703 c -2.406,0 -3.875,0.333 -4.406,1 v 0 0.109 H 38.203 V -64 c -0.271,0.396 -0.573,1.26 -0.906,2.594 z m -4.5,33.5002 h 13.609 c 6.396,0 11.693,-2.401 15.891,-7.2032 3.208,-3.739 4.812,-7.875 4.812,-12.406 0,-4.865 -1.734,-8.297 -5.203,-10.297 -1.739,-0.938 -3.838,-1.406 -6.297,-1.406 H 30.5 L 23.594,-6.5 c -0.334,1.1979 -0.5,1.9635 -0.5,2.2969 0,0.5312 0.302,0.8646 0.906,1 v 0 0 h 0.406 c 0.396,0.0729 1.125,0.1093 2.188,0.1093 z"
                                   style="fill:#000000;fill-opacity:1;fill-rule:nonzero;stroke:none"
                                   id="path1296" /><g
                                   id="g1298"
                                   transform="translate(80.9)"><path
                                   d="M 33.406,-30.203 30,-16.5 c -1.135,4.531 -1.703,7.4635 -1.703,8.7969 0,3.4687 1.234,5.5677 3.703,6.2969 0.531,0.2083 1.13,0.3124 1.797,0.3124 3.333,0 6.37,-1.6666 9.109,-5 1.792,-2.1354 3.188,-4.8382 4.188,-8.1092 0.208,-0.729 0.646,-1.094 1.312,-1.094 0.792,0 1.188,0.333 1.188,1 0,1.667 -1.032,4.068 -3.094,7.2032 -3.604,5.4584 -7.906,8.1876 -12.906,8.1876 -4.532,0 -7.828,-1.89588 -9.891,-5.6876 -0.406,-0.6041 -0.708,-1.2395 -0.906,-1.9062 -1.594,3.1979 -3.792,5.4323 -6.594,6.70312 -1.271,0.59376 -2.573,0.89068 -3.906,0.89068 -4.0001,0 -6.797,-1.166717 -8.3908,-3.5 -0.6666,-0.8646 -1,-1.8959 -1,-3.0938 0,-2.4688 1.0626,-4.2031 3.1876,-5.203 0.7395,-0.396 1.5104,-0.594 2.3124,-0.594 1.9998,0 3.1978,0.833 3.5938,2.5001 0.062,0.3334 0.094,0.6667 0.094,1 0,2.2604 -1.13,3.9271 -3.3909,5 -0.4062,0.1979 -0.8385,0.3281 -1.2969,0.3907 1.3959,0.875 3.0628,1.3124 4.9998,1.3124 3.532,0 6.328,-2.3697 8.391,-7.1093 0.406,-1 0.776,-2.0989 1.109,-3.2969 3.594,-13.604 5.391,-21.536 5.391,-23.797 -0.396,-4.135 -2.193,-6.37 -5.391,-6.703 -3.468,0 -6.635,1.766 -9.5,5.297 v 0.109 c 0,0.063 -0.036,0.094 -0.109,0.094 -1,1.333 -1.901,2.865 -2.7032,4.594 -0.3334,0.802 -0.6303,1.604 -0.8907,2.406 L 8.5,-28.906 c -0.1354,0.739 -0.5677,1.109 -1.2969,1.109 -0.8021,0 -1.2031,-0.333 -1.2031,-1 0,-1.667 1.0677,-4.068 3.2031,-7.203 3.5939,-5.469 7.8909,-8.203 12.8909,-8.203 5.135,0 8.739,2.536 10.812,7.609 2.125,-4.135 4.959,-6.604 8.5,-7.406 0.667,-0.135 1.334,-0.203 2,-0.203 3.927,0 6.693,1.099 8.297,3.297 0.667,0.937 1,2.041 1,3.312 0,2.729 -1.234,4.563 -3.703,5.5 -0.604,0.198 -1.172,0.297 -1.703,0.297 -2.063,0 -3.297,-0.901 -3.703,-2.703 -0.063,-0.271 -0.094,-0.536 -0.094,-0.797 0,-2 0.969,-3.568 2.906,-4.703 0.594,-0.333 1.224,-0.568 1.891,-0.703 -1.396,-0.865 -3.063,-1.297 -5,-1.297 -4.531,0 -7.729,3.531 -9.594,10.594 -0.135,0.406 -0.234,0.807 -0.297,1.203 z"
                                   style="fill:#000000;fill-opacity:1;fill-rule:nonzero;stroke:none"
                                   id="path1300" /><g
                                   id="g1302"
                                   transform="translate(79.4)"><path
                                   d="M 40.906,-23 V 5 c 0,2.1354 -0.666,3.2344 -2,3.2969 -1.333,0 -2,-1.099 -2,-3.2969 V -23 H 8.9062 c -2.1354,0 -3.2395,-0.667 -3.3124,-2 0,-1.333 1.1041,-2 3.3124,-2 H 36.906 v -28 c 0,-2.135 0.667,-3.234 2,-3.297 1.334,0 2,1.099 2,3.297 v 28 h 27.891 c 2.135,0 3.234,0.667 3.297,2 0,1.333 -1.099,2 -3.297,2 z"
                                   style="fill:#000000;fill-opacity:1;fill-rule:nonzero;stroke:none"
                                   id="path1304" /><g
                                   id="g1306"
                                   transform="translate(100.1)"><path
                                   d="M 76,-69.5 69.703,-44 c -0.333,1.198 -0.667,1.833 -1,1.906 L 68.594,-42 h -0.688 c -1,0 -1.5,-0.333 -1.5,-1 l 0.297,-4.906 v -0.188 c 0,-8.271 -2.599,-13.974 -7.797,-17.109 l -0.109,-0.094 c -2.333,-1.406 -5.068,-2.109 -8.203,-2.109 -7.063,0 -13.761,2.635 -20.094,7.906 -1.604,1.271 -3.036,2.672 -4.297,4.203 -6.333,7.396 -10.234,16.797 -11.703,28.203 -0.271,2.063 -0.406,3.86 -0.406,5.391 0,9.333 3.536,15.6353 10.609,18.9061 2.729,1.2604 5.729,1.89065 9,1.89065 6.261,0 12.391,-2.43225 18.391,-7.29685 C 56.76,-12.13 60.13,-17.396 62.203,-24 c 0.136,-0.667 0.568,-1 1.297,-1 0.802,0 1.203,0.333 1.203,1 0,1.198 -0.765,3.333 -2.297,6.406 -2.073,4.198 -4.974,7.9273 -8.703,11.1878 -6.604,5.73953 -13.807,8.6093 -21.609,8.6093 -8.532,0 -15.365,-2.93227 -20.5,-8.7969 C 7.1979,-11.594 5,-17.797 5,-25.203 c 0,-9.927 3.6354,-19.224 10.906,-27.891 6.729,-8.073 14.693,-13.406 23.891,-16 3.406,-0.937 6.739,-1.406 10,-1.406 7.271,0 12.807,2.969 16.609,8.906 l 7,-7.703 c 0.792,-0.802 1.292,-1.203 1.5,-1.203 0.729,0 1.094,0.333 1.094,1 z"
                                   style="fill:#000000;fill-opacity:1;fill-rule:nonzero;stroke:none"
                                   id="path1308" /><g
                                   id="g1310"
                                   transform="translate(-880.6,143.1)"><path
                                   d="m 33.094,24 v 0 c 0,0.667 -0.334,1 -1,1 -0.792,0 -2.558,-1.365 -5.297,-4.094 C 22.661,16.771 19.229,11.87 16.5,6.2031 12.104,-2.8698 9.9062,-13.271 9.9062,-25 c 0,-11.271 2.0988,-21.438 6.2968,-30.5 3.469,-7.396 7.87,-13.328 13.203,-17.797 1.396,-1.135 2.292,-1.703 2.688,-1.703 0.666,0 1,0.333 1,1 0,0.333 -0.433,0.901 -1.297,1.703 C 21.068,-61.37 15.703,-45.604 15.703,-25 c 0,20.5312 5.235,36.13 15.703,46.797 1.125,1.135 1.688,1.87 1.688,2.203 z"
                                   style="fill:#000000;fill-opacity:1;fill-rule:nonzero;stroke:none"
                                   id="path1312" /><g
                                   id="g1314"
                                   transform="translate(38.9)"><path
                                   d="m 17.906,-11.5 34.797,-58.406 c 0.667,-1.063 1.531,-1.625 2.594,-1.688 1,0 1.568,0.334 1.703,1 0.062,0.198 0.13,0.662 0.203,1.391 l 6.094,62.4999 c 0.198,1.6666 0.599,2.6666 1.203,3 h 0.094 v 0 0 0 0.1093 c 0.802,0.3334 2.536,0.5 5.203,0.5 1.469,0 2.234,0.3646 2.297,1.0938 0,1.33333 -0.599,2 -1.797,2 L 59.094,-0.29688 H 59 L 46.594,0 H 46.5 c -0.938,0 -1.406,-0.36458 -1.406,-1.0938 0.541,-1.2708 1.344,-1.9374 2.406,-2 4.802,0 7.203,-1.1041 7.203,-3.3124 0,0.0729 -0.536,-5.4898 -1.609,-16.6878 H 28 l -7.594,12.797 C 19.469,-8.6302 19,-7.3958 19,-6.5938 c 0,2.0626 1.568,3.2292 4.703,3.5 1.063,0 1.594,0.3959 1.594,1.1876 C 25.297,-0.63542 24.667,0 23.406,0 L 13.797,-0.29688 H 13.406 L 5,0 H 4.7969 C 3.9323,0 3.5,-0.36458 3.5,-1.0938 3.5,-2.3021 4,-2.9375 5,-3 V -3.0938 H 5.5938 C 9.8021,-3.3646 13.24,-5.1667 15.906,-8.5 c 0.667,-0.8646 1.334,-1.865 2,-3 z m 12,-14.703 h 22.891 l -3.203,-33 z"
                                   style="fill:#000000;fill-opacity:1;fill-rule:nonzero;stroke:none"
                                   id="path1316" /><g
                                   id="g1318"
                                   transform="translate(75)"><path
                                   d="m 63.094,-67.797 -45,87.594 c -0.594,1.198 -1.323,1.797 -2.188,1.797 -1.073,0 -1.739,-0.667 -2,-2 0,-0.261 0.229,-0.86 0.688,-1.797 l 45,-87.594 c 0.604,-1.198 1.338,-1.797 2.203,-1.797 1.073,0 1.739,0.667 2,2 0,0.261 -0.235,0.86 -0.703,1.797 z"
                                   style="fill:#000000;fill-opacity:1;fill-rule:nonzero;stroke:none"
                                   id="path1320" /><g
                                   id="g1322"><path
                                   d="M 68.703,-32.703 H 9 c -2.1354,0 -3.2708,-0.667 -3.4062,-2 0,-1.333 1.1041,-2 3.3124,-2 H 68.797 c 2.135,0 3.234,0.667 3.297,2 0,1.333 -1.13,2 -3.391,2 z m 0.094,19.406 H 8.9062 c -2.1354,0 -3.2395,-0.667 -3.3124,-2 0,-1.333 1.1354,-2 3.4062,-2 h 59.703 c 2.136,0 3.266,0.667 3.391,2 0,1.333 -1.099,2 -3.297,2 z"
                                   style="fill:#000000;fill-opacity:1;fill-rule:nonzero;stroke:none"
                                   id="path1324" /><g
                                   id="g1326"
                                   transform="translate(77.8)"><path
                                   d="m 46,-32 c 0,9.729 -1.234,17.26 -3.703,22.5938 C 38.37,-1.9375 32.573,1.9323 24.906,2.2031 18.833,2.2031 13.964,-0.19792 10.297,-5 9.5677,-5.8646 8.9375,-6.8333 8.4062,-7.9062 c -3,-5.5318 -4.5,-13.5628 -4.5,-24.0938 0,-9.802 1.2292,-17.37 3.6876,-22.703 3.3332,-7.469 8.7342,-11.432 16.2032,-11.891 H 25 c 5.938,0 10.771,2.365 14.5,7.094 v 0.094 c 0.938,1.208 1.771,2.541 2.5,4 2.667,5.666 4,13.468 4,23.406 z M 24.906,0 v 0 c 4.198,0 7.427,-2.0312 9.688,-6.0938 0.937,-1.802 1.604,-3.9372 2,-6.4062 0.739,-4.271 1.109,-11.172 1.109,-20.703 0,-9.261 -0.333,-15.761 -1,-19.5 -1.198,-6.333 -4.265,-10.13 -9.203,-11.391 -0.865,-0.208 -1.729,-0.312 -2.594,-0.312 -4.666,0 -8.067,2.333 -10.203,7 -0.739,1.604 -1.307,3.541 -1.703,5.812 -0.531,3.594 -0.797,9.724 -0.797,18.391 0,10.073 0.365,17.109 1.094,21.109 1.198,6.3961 4.13,10.2919 8.797,11.68775 C 23.031,-0.13542 23.969,0 24.906,0 Z"
                                   style="fill:#000000;fill-opacity:1;fill-rule:nonzero;stroke:none"
                                   id="path1328" /><g
                                   id="g1330"
                                   transform="translate(50)"><path
                                   d="m 28.906,-25 v 0 c 0,11.271 -2.104,21.4375 -6.312,30.5 C 19.135,12.896 14.74,18.828 9.4062,23.297 8,24.432 7.099,25 6.7031,25 c -0.6666,0 -1,-0.333 -1,-1 C 5.7031,23.667 6.1354,23.099 7,22.297 17.729,11.37 23.094,-4.3958 23.094,-25 c 0,-20.333 -5,-35.734 -15.0002,-46.203 l -0.5,-0.5 C 6.3333,-72.901 5.7031,-73.667 5.7031,-74 c 0,-0.667 0.3334,-1 1,-1 0.8021,0 2.5677,1.365 5.2969,4.094 4.135,4.135 7.568,9.036 10.297,14.703 4.406,9.073 6.609,19.474 6.609,31.203 z"
                                   style="fill:#000000;fill-opacity:1;fill-rule:nonzero;stroke:none"
                                   id="path1332" /><g
                                   id="g1334"
                                   transform="matrix(1.000008,0,0,1.000008,-1010.1269,-746.17613)"><path
                                   d="M 33.406,-30.203 30,-16.5 c -1.135,4.531 -1.703,7.4635 -1.703,8.7969 0,3.4687 1.234,5.5677 3.703,6.2969 0.531,0.2083 1.13,0.3124 1.797,0.3124 3.333,0 6.37,-1.6666 9.109,-5 1.792,-2.1354 3.188,-4.8382 4.188,-8.1092 0.208,-0.729 0.646,-1.094 1.312,-1.094 0.792,0 1.188,0.333 1.188,1 0,1.667 -1.032,4.068 -3.094,7.2032 -3.604,5.4584 -7.906,8.1876 -12.906,8.1876 -4.532,0 -7.828,-1.89588 -9.891,-5.6876 -0.406,-0.6041 -0.708,-1.2395 -0.906,-1.9062 -1.594,3.1979 -3.792,5.4323 -6.594,6.70312 -1.271,0.59376 -2.573,0.89068 -3.906,0.89068 -4.0001,0 -6.797,-1.166717 -8.3908,-3.5 -0.6666,-0.8646 -1,-1.8959 -1,-3.0938 0,-2.4688 1.0626,-4.2031 3.1876,-5.203 0.7395,-0.396 1.5104,-0.594 2.3124,-0.594 1.9998,0 3.1978,0.833 3.5938,2.5001 0.062,0.3334 0.094,0.6667 0.094,1 0,2.2604 -1.13,3.9271 -3.3909,5 -0.4062,0.1979 -0.8385,0.3281 -1.2969,0.3907 1.3959,0.875 3.0628,1.3124 4.9998,1.3124 3.532,0 6.328,-2.3697 8.391,-7.1093 0.406,-1 0.776,-2.0989 1.109,-3.2969 3.594,-13.604 5.391,-21.536 5.391,-23.797 -0.396,-4.135 -2.193,-6.37 -5.391,-6.703 -3.468,0 -6.635,1.766 -9.5,5.297 v 0.109 c 0,0.063 -0.036,0.094 -0.109,0.094 -1,1.333 -1.901,2.865 -2.7032,4.594 -0.3334,0.802 -0.6303,1.604 -0.8907,2.406 L 8.5,-28.906 c -0.1354,0.739 -0.5677,1.109 -1.2969,1.109 -0.8021,0 -1.2031,-0.333 -1.2031,-1 0,-1.667 1.0677,-4.068 3.2031,-7.203 3.5939,-5.469 7.8909,-8.203 12.8909,-8.203 5.135,0 8.739,2.536 10.812,7.609 2.125,-4.135 4.959,-6.604 8.5,-7.406 0.667,-0.135 1.334,-0.203 2,-0.203 3.927,0 6.693,1.099 8.297,3.297 0.667,0.937 1,2.041 1,3.312 0,2.729 -1.234,4.563 -3.703,5.5 -0.604,0.198 -1.172,0.297 -1.703,0.297 -2.063,0 -3.297,-0.901 -3.703,-2.703 -0.063,-0.271 -0.094,-0.536 -0.094,-0.797 0,-2 0.969,-3.568 2.906,-4.703 0.594,-0.333 1.224,-0.568 1.891,-0.703 -1.396,-0.865 -3.063,-1.297 -5,-1.297 -4.531,0 -7.729,3.531 -9.594,10.594 -0.135,0.406 -0.234,0.807 -0.297,1.203 z"
                                   style="fill:#000000;fill-opacity:1;fill-rule:nonzero;stroke:none"
                                   id="path1336" /><g
                                   id="g1338"
                                   transform="translate(84.98)"><path
                                   d="M 68.703,-32.703 H 9 c -2.1354,0 -3.2708,-0.667 -3.4062,-2 0,-1.333 1.1041,-2 3.3124,-2 H 68.797 c 2.135,0 3.234,0.667 3.297,2 0,1.333 -1.13,2 -3.391,2 z m 0.094,19.406 H 8.9062 c -2.1354,0 -3.2395,-0.667 -3.3124,-2 0,-1.333 1.1354,-2 3.4062,-2 h 59.703 c 2.136,0 3.266,0.667 3.391,2 0,1.333 -1.099,2 -3.297,2 z"
                                   style="fill:#000000;fill-opacity:1;fill-rule:nonzero;stroke:none"
                                   id="path1340" /><g
                                   id="g1342"
                                   transform="translate(105.58)"><path
                                   d="m 66.094,-23 h -54.5 c -2.1252,0 -3.2242,-0.667 -3.2971,-2 0,-1.333 1.0989,-2 3.2971,-2 h 54.5 c 2.135,0 3.239,0.667 3.312,2 0,1.333 -1.104,2 -3.312,2 z"
                                   style="fill:#000000;fill-opacity:1;fill-rule:nonzero;stroke:none"
                                   id="path1344" /><g
                                   id="g1346"
                                   transform="translate(122.81,-67.65)"><path
                                   d="M 16,-7.7969 29.406,-61.5 c 0.261,-1.062 0.391,-1.698 0.391,-1.906 0,-0.792 -0.531,-1.292 -1.594,-1.5 H 28.094 28 c -0.198,0 -0.5,-0.032 -0.906,-0.094 -1.125,-0.135 -2.391,-0.203 -3.797,-0.203 -1.729,0 -2.662,-0.365 -2.797,-1.094 0,-1.198 0.5,-1.864 1.5,-2 h 0.094 0.109 1.203 H 57 c 7.667,0 13.135,2.266 16.406,6.797 1.459,2.135 2.188,4.469 2.188,7 0,5.396 -3,10.094 -9,14.094 -0.063,0 -0.125,0.036 -0.188,0.109 -3.541,2.261 -7.442,3.792 -11.703,4.594 6.802,0.802 11.469,3.469 14,8 1,1.864 1.5,3.901 1.5,6.109 0,4.865 -2.333,9.427 -7,13.6878 l -0.109,0.1093 C 57.365,-2.599 50.531,0 42.594,0 H 6.9062 C 5.2396,0 4.3385,-0.36458 4.2031,-1.0938 c 0,-1.2083 0.5,-1.875 1.5,-2 h 1.2031 c 4.3338,0 6.9328,-0.4687 7.7968,-1.4062 0.396,-0.4688 0.797,-1.401 1.203,-2.7969 0,-0.0729 0.032,-0.2396 0.094,-0.5 z M 31.094,-36.594 h 14.609 c 6.594,0 12.026,-2.401 16.297,-7.203 3,-3.406 4.5,-7.109 4.5,-11.109 0,-4.865 -2,-8.032 -6,-9.5 -1.396,-0.532 -3.031,-0.797 -4.906,-0.797 H 42.703 c -2.406,0 -3.875,0.333 -4.406,1 v 0 0.109 H 38.203 V -64 c -0.271,0.396 -0.573,1.26 -0.906,2.594 z m -4.5,33.5002 h 13.609 c 6.396,0 11.693,-2.401 15.891,-7.2032 3.208,-3.739 4.812,-7.875 4.812,-12.406 0,-4.865 -1.734,-8.297 -5.203,-10.297 -1.739,-0.938 -3.838,-1.406 -6.297,-1.406 H 30.5 L 23.594,-6.5 c -0.334,1.1979 -0.5,1.9635 -0.5,2.2969 0,0.5312 0.302,0.8646 0.906,1 v 0 0 h 0.406 c 0.396,0.0729 1.125,0.1093 2.188,0.1093 z"
                                   style="fill:#000000;fill-opacity:1;fill-rule:nonzero;stroke:none"
                                   id="path1348" /><g
                                   id="g1350"
                                   transform="matrix(100,0,0,100,-702.84,-415.67)"><path
                                   d="m 6.8079,4.5632 h 1.25 v 0.04 h -1.25 z"
                                   style="fill:#000000;fill-opacity:1;fill-rule:nonzero;stroke:none"
                                   id="path1352" /><g
                                   id="g1354"
                                   transform="matrix(0.01,0,0,0.01,6.8079,5.5191)"><path
                                   d="m 44.906,-17.406 v 0 L 42.094,0 H 5 c 0,-1.6667 0.1979,-2.7344 0.5938,-3.2031 l 0.5,-0.5 19.2032,-21.3909 c 7,-7.875 10.5,-15.245 10.5,-22.109 0,-5.927 -1.797,-10.427 -5.391,-13.5 l -0.109,-0.094 h -0.094 c -2.135,-1.802 -4.734,-2.703 -7.797,-2.703 -4.802,0 -8.635,2.068 -11.5,6.203 -0.802,1.198 -1.4685,2.531 -1.9998,4 0.198,-0.073 0.6303,-0.109 1.2968,-0.109 2.667,0 4.365,1.203 5.094,3.609 v 0.094 c 0.135,0.469 0.203,0.969 0.203,1.5 0,2.667 -1.266,4.37 -3.797,5.109 -0.531,0.125 -1,0.188 -1.406,0.188 -2.4689,0 -4.0991,-1.032 -4.8908,-3.094 C 5.1354,-46.729 5,-47.562 5,-48.5 c 0,-5.135 1.9688,-9.536 5.906,-13.203 3.532,-3.261 7.797,-4.891 12.797,-4.891 7.333,0 13.031,2.464 17.094,7.391 2.333,2.864 3.667,6.265 4,10.203 0.073,0.604 0.109,1.203 0.109,1.797 0,4.864 -1.833,9.5 -5.5,13.906 -1.937,2.261 -4.937,5.261 -9,9 l -6.109,5.391 -1,0.906 -10.594,10.2969 h 18 c 5.865,0 9.031,-0.2657 9.5,-0.7969 0.667,-0.9375 1.401,-3.906 2.203,-8.906 z"
                                   style="fill:#000000;fill-opacity:1;fill-rule:nonzero;stroke:none"
                                   id="path1356" /><g
                                   id="g1358"
                                   transform="translate(50)"><path
                                   d="m 17.906,-11.5 34.797,-58.406 c 0.667,-1.063 1.531,-1.625 2.594,-1.688 1,0 1.568,0.334 1.703,1 0.062,0.198 0.13,0.662 0.203,1.391 l 6.094,62.4999 c 0.198,1.6666 0.599,2.6666 1.203,3 h 0.094 v 0 0 0 0.1093 c 0.802,0.3334 2.536,0.5 5.203,0.5 1.469,0 2.234,0.3646 2.297,1.0938 0,1.33333 -0.599,2 -1.797,2 L 59.094,-0.29688 H 59 L 46.594,0 H 46.5 c -0.938,0 -1.406,-0.36458 -1.406,-1.0938 0.541,-1.2708 1.344,-1.9374 2.406,-2 4.802,0 7.203,-1.1041 7.203,-3.3124 0,0.0729 -0.536,-5.4898 -1.609,-16.6878 H 28 l -7.594,12.797 C 19.469,-8.6302 19,-7.3958 19,-6.5938 c 0,2.0626 1.568,3.2292 4.703,3.5 1.063,0 1.594,0.3959 1.594,1.1876 C 25.297,-0.63542 24.667,0 23.406,0 L 13.797,-0.29688 H 13.406 L 5,0 H 4.7969 C 3.9323,0 3.5,-0.36458 3.5,-1.0938 3.5,-2.3021 4,-2.9375 5,-3 V -3.0938 H 5.5938 C 9.8021,-3.3646 13.24,-5.1667 15.906,-8.5 c 0.667,-0.8646 1.334,-1.865 2,-3 z m 12,-14.703 h 22.891 l -3.203,-33 z"
                                   style="fill:#000000;fill-opacity:1;fill-rule:nonzero;stroke:none"
                                   id="path1360" /><g
                                   id="g1362"
                                   transform="matrix(5.2632,0,0,5.2632,-730.79,-551.91)" /></g></g></g></g></g></g></g></g></g></g></g></g></g></g></g></g></g></g></g></g></g></g></g></g></g></g></g></g></g></g></g></g></g></g></g></g></g></g></g></g></g></g></g></g></g></g></g></g></g></g></g></g></g></g></g></g></g></g></g></g></g></g></g></g></g></g></g></g></g></g></g></g></g></g></g></g></g></g></g></g></g></g></g></g></g></g></g></g></g></g></g></g><g
                   id="g1364"
                   transform="scale(0.29092)" /></g></g></g></g></g></g></g></svg>
