<?xml version="1.0" encoding="UTF-8" standalone="no"?>
<svg
   xmlns:dc="http://purl.org/dc/elements/1.1/"
   xmlns:cc="http://creativecommons.org/ns#"
   xmlns:rdf="http://www.w3.org/1999/02/22-rdf-syntax-ns#"
   xmlns:svg="http://www.w3.org/2000/svg"
   xmlns="http://www.w3.org/2000/svg"
   xmlns:sodipodi="http://sodipodi.sourceforge.net/DTD/sodipodi-0.dtd"
   xmlns:inkscape="http://www.inkscape.org/namespaces/inkscape"
   version="1.1"
   id="svg1748"
   xml:space="preserve"
   width="213.33333"
   height="176"
   viewBox="0 0 213.33333 176"
   sodipodi:docname="2020-1115-1130-1-crop.pdf"><metadata
     id="metadata1754"><rdf:RDF><cc:Work
         rdf:about=""><dc:format>image/svg+xml</dc:format><dc:type
           rdf:resource="http://purl.org/dc/dcmitype/StillImage" /></cc:Work></rdf:RDF></metadata><defs
     id="defs1752"><clipPath
       clipPathUnits="userSpaceOnUse"
       id="clipPath1766"><path
         d="M 0,0 H 208 V 170 H 0 Z"
         id="path1764" /></clipPath><clipPath
       clipPathUnits="userSpaceOnUse"
       id="clipPath1776"><path
         d="M 0,0 H 208 V 170 H 0 Z"
         id="path1774" /></clipPath><clipPath
       clipPathUnits="userSpaceOnUse"
       id="clipPath1788"><path
         d="M 0,0 V 170 H 208 V 0 Z"
         id="path1786" /></clipPath><clipPath
       clipPathUnits="userSpaceOnUse"
       id="clipPath1798"><path
         d="M 0,0 H 368 V 300 H 0 Z"
         id="path1796" /></clipPath></defs><sodipodi:namedview
     pagecolor="#ffffff"
     bordercolor="#666666"
     borderopacity="1"
     objecttolerance="10"
     gridtolerance="10"
     guidetolerance="10"
     inkscape:pageopacity="0"
     inkscape:pageshadow="2"
     inkscape:window-width="640"
     inkscape:window-height="480"
     id="namedview1750" /><g
     id="g1756"
     inkscape:groupmode="layer"
     inkscape:label="2020-1115-1130-1-crop"
     transform="matrix(1.3333333,0,0,-1.3333333,0,176)"><g
       id="g1758"
       transform="translate(-24,-19)"><g
         id="g1760"><g
           id="g1762"
           clip-path="url(#clipPath1766)"><g
             id="g1768"
             transform="matrix(0.76471,0,0,-0.76471,24.471,150)"><g
               id="g1770"><g
                 id="g1772"
                 clip-path="url(#clipPath1776)"><g
                   id="g1778"><g
                     id="g1780" /></g><g
                   id="g1782"><g
                     id="g1784"
                     clip-path="url(#clipPath1788)"><g
                       id="g1790"
                       transform="scale(0.56693)" /></g></g><g
                   id="g1792"
                   transform="scale(0.56693)"><g
                     id="g1794"
                     clip-path="url(#clipPath1798)"><path
                       d="M 0,0 H 368 V 300 H 0 Z"
                       style="fill:#ffffff;fill-opacity:1;fill-rule:nonzero;stroke:none"
                       id="path1800" /><path
                       d="m 350.12,255 3.04,-4.31 -2.82,-3.99 h 1.77 l 1.27,1.94 c 0.23,0.38 0.43,0.69 0.57,0.94 0.23,-0.35 0.45,-0.65 0.64,-0.92 l 1.39,-1.96 h 1.69 l -2.87,3.91 3.09,4.39 h -1.73 l -1.71,-2.58 -0.45,-0.7 -2.17,3.28 z"
                       style="fill:#000000;fill-opacity:1;fill-rule:nonzero;stroke:none"
                       id="path1802" /><path
                       d="M 0,259 H 366"
                       style="fill:none;stroke:#000000;stroke-width:1;stroke-linecap:butt;stroke-linejoin:miter;stroke-miterlimit:10;stroke-dasharray:none;stroke-opacity:1"
                       id="path1804" /><path
                       d="m 367,259 -4,-4"
                       style="fill:none;stroke:#000000;stroke-width:1;stroke-linecap:butt;stroke-linejoin:miter;stroke-miterlimit:10;stroke-dasharray:none;stroke-opacity:1"
                       id="path1806" /><path
                       d="m 367,259 -4,4"
                       style="fill:none;stroke:#000000;stroke-width:1;stroke-linecap:butt;stroke-linejoin:miter;stroke-miterlimit:10;stroke-dasharray:none;stroke-opacity:1"
                       id="path1808" /><path
                       d="M 20.125,-5.875 23,-3 25.875,-0.125 28.75,2.75 31.625,5.625 34.5,8.5 37.375,11.375 40.25,14.25 43.125,17.125 46,20 l 2.875,2.875 2.875,2.875 2.875,2.875 2.875,2.875 2.875,2.875 2.875,2.875 2.875,2.875 L 69,43 l 2.875,2.875 2.875,2.875 2.875,2.875 2.875,2.875 2.875,2.875 2.875,2.875 2.875,2.875 L 92,66 m 0,0 2.875,2.875 2.875,2.875 2.87,2.875 2.88,2.875 2.88,2.875 2.87,2.875 2.87,2.875 L 115,89 m 0,0 2.88,2.875 2.87,2.875 2.87,2.875 2.88,2.875 m 0,0 2.88,2.88 2.87,2.87 m 0,0 2.75,2.75"
                       style="fill:none;stroke:#ff5500;stroke-width:2.5;stroke-linecap:round;stroke-linejoin:round;stroke-miterlimit:10;stroke-dasharray:none;stroke-opacity:0.69804"
                       id="path1810" /><path
                       d="m 135,159 0.12,0.12 m 0,0 2.88,2.88 m 0,0 2.88,2.88 2.87,2.87 2.87,2.87 2.88,2.88 2.88,2.88 2.87,2.87 2.87,2.87 2.88,2.88 2.88,2.88 2.87,2.87 2.87,2.87 2.88,2.88 2.88,2.88 2.87,2.87 2.87,2.87 2.88,2.88 m 0,0 2.88,2.88 2.87,2.87 2.87,2.87 2.88,2.88 2.88,2.88 2.87,2.87 2.87,2.87 2.88,2.88 2.88,2.88 2.87,2.87 2.87,2.87 2.88,2.88 2.88,2.88 2.87,2.87 2.87,2.87 2.88,2.88 2.88,2.88 2.87,2.87 2.87,2.87 2.88,2.88 2.88,2.88 2.87,2.87 2.87,2.87 2.88,2.88 2.88,2.88 2.87,2.87 2.87,2.87 2.88,2.88 2.88,2.88 2.87,2.87 2.87,2.87 2.88,2.88 2.88,2.88 2.87,2.87"
                       style="fill:none;stroke:#006400;stroke-width:2.5;stroke-linecap:round;stroke-linejoin:round;stroke-miterlimit:10;stroke-dasharray:none;stroke-opacity:0.69804"
                       id="path1812" /><path
                       d="M 135,305 V -5"
                       style="fill:none;stroke:#000000;stroke-width:2.5;stroke-linecap:butt;stroke-linejoin:round;stroke-miterlimit:10;stroke-dasharray:10.5, 8;stroke-dashoffset:0;stroke-opacity:0.69804"
                       id="path1814" /><path
                       d="m 138,109 c 0,1.66 -1.34,3 -3,3 -1.66,0 -3,-1.34 -3,-3 0,-1.66 1.34,-3 3,-3 1.66,0 3,1.34 3,3 z"
                       style="fill:#000000;fill-opacity:1;fill-rule:nonzero;stroke:none"
                       id="path1816" /><path
                       d="m 138,109 c 0,1.66 -1.34,3 -3,3 -1.66,0 -3,-1.34 -3,-3 0,-1.66 1.34,-3 3,-3 1.66,0 3,1.34 3,3 z"
                       style="fill:none;stroke:#000000;stroke-width:1;stroke-linecap:round;stroke-linejoin:round;stroke-miterlimit:10;stroke-dasharray:none;stroke-opacity:1"
                       id="path1818" /><g
                       id="g1820"
                       transform="scale(19)"><g
                         id="g1822"
                         transform="matrix(0.01,0,0,0.01,8.1053,6.2237)"><path
                           d="m 47.094,-37.703 v 0 L 36,6.7031 C 35,10.703 32.401,14.068 28.203,16.797 24.339,19.266 19.87,20.5 14.797,20.5 6.599,20.5 2.1979,18.833 1.5938,15.5 1.5312,15.167 1.5,14.802 1.5,14.406 1.5,11.667 2.7344,9.8333 5.2031,8.9062 5.7969,8.6979 6.3646,8.5938 6.9062,8.5938 c 2.0626,0 3.2918,0.901 3.6878,2.7032 0.073,0.271 0.109,0.536 0.109,0.797 0,2.135 -0.9999,3.739 -2.9999,4.812 C 7.3698,17.031 7,17.161 6.5938,17.297 c 2.0729,0.667 4.7392,1 8.0002,1 6.541,0 11.344,-3.599 14.406,-10.797 l 3.297,-13.2031 -0.094,-0.0938 c -3,3.3334 -6.37,5.2344 -10.109,5.70315 C 21.562,-0.03125 21.062,0 20.594,0 15.927,0 12.328,-2.0312 9.7969,-6.0938 c -1.6667,-2.7395 -2.5,-5.9742 -2.5,-9.7032 0,-7.135 2.5364,-13.672 7.6091,-19.609 4.667,-5.459 9.698,-8.391 15.094,-8.797 h 1.094 c 3.604,0 6.505,1.703 8.703,5.109 l 0.609,1.188 c 0.594,-2.532 1.959,-3.964 4.094,-4.297 1.729,0 2.698,0.901 2.906,2.703 z m -13,24.906 v 0 l 4.812,-19.109 c 0.198,-0.792 0.297,-1.292 0.297,-1.5 0,-1.334 -0.568,-2.933 -1.703,-4.797 v 0 c -0.802,-1.333 -1.802,-2.333 -3,-3 -1,-0.531 -2.099,-0.797 -3.297,-0.797 -3.469,0 -6.771,2.234 -9.906,6.703 -0.469,0.729 -0.901,1.464 -1.297,2.203 -2.135,4 -3.833,9.563 -5.094,16.688 -0.333,2.073 -0.5,3.739 -0.5,5 0,4.406 1.266,7.2758 3.797,8.6091 0.729,0.3959 1.63,0.5938 2.703,0.5938 2.594,0 5.292,-1.1979 8.094,-3.5938 2.938,-2.5312 4.635,-4.8641 5.094,-7.0001 z"
                           style="fill:#000000;fill-opacity:1;fill-rule:nonzero;stroke:none"
                           id="path1824" /><g
                           id="g1826"
                           transform="translate(51.3)"><path
                             d="m 33.094,24 v 0 c 0,0.667 -0.334,1 -1,1 -0.792,0 -2.558,-1.365 -5.297,-4.094 C 22.661,16.771 19.229,11.87 16.5,6.2031 12.104,-2.8698 9.9062,-13.271 9.9062,-25 c 0,-11.271 2.0988,-21.438 6.2968,-30.5 3.469,-7.396 7.87,-13.328 13.203,-17.797 1.396,-1.135 2.292,-1.703 2.688,-1.703 0.666,0 1,0.333 1,1 0,0.333 -0.433,0.901 -1.297,1.703 C 21.068,-61.37 15.703,-45.604 15.703,-25 c 0,20.5312 5.235,36.13 15.703,46.797 1.125,1.135 1.688,1.87 1.688,2.203 z"
                             style="fill:#000000;fill-opacity:1;fill-rule:nonzero;stroke:none"
                             id="path1828" /><g
                             id="g1830"
                             transform="translate(38.9)"><path
                               d="m 37.297,-37.797 c 0.333,-2.271 1.37,-3.672 3.109,-4.203 0.334,-0.135 0.698,-0.203 1.094,-0.203 1.729,0 2.698,0.901 2.906,2.703 0,0.396 -0.234,1.531 -0.703,3.406 l -3.609,14 c -1,4.198 -1.729,7.198 -2.188,9 -0.875,3.4586 -1.312,5.9221 -1.312,7.3909 0,3.0729 1,4.6093 3,4.6093 2.541,0 4.677,-2.6666 6.406,-8 0.333,-1.1352 0.734,-2.6042 1.203,-4.4062 0.531,-1.135 0.995,-1.734 1.391,-1.797 0.802,0 1.203,0.333 1.203,1 0,1 -0.599,3.333 -1.797,7.0001 -0.396,1.1354 -0.797,2.099 -1.203,2.8907 -1.865,3.66662 -4.328,5.5 -7.391,5.5 -3.739,0 -6.442,-1.59901 -8.109,-4.7969 -0.469,-0.8021 -0.802,-1.7031 -1,-2.7031 -4.198,5 -8.531,7.5 -13,7.5 -5,0 -8.698,-2.2657 -11.0939,-6.7969 C 4.7344,-8.3698 4,-11.438 4,-14.906 c 0,-7.198 2.5,-13.865 7.5,-20 4.667,-5.594 9.734,-8.656 15.203,-9.188 0.469,-0.073 0.932,-0.109 1.391,-0.109 4.073,0 7.14,2.135 9.203,6.406 z m -6.5,25.891 v 0 l 5,-19.594 c 0.198,-1 0.297,-1.568 0.297,-1.703 0,-1.396 -0.599,-3.094 -1.797,-5.094 -1.469,-2.469 -3.5,-3.703 -6.094,-3.703 -3.469,0 -6.771,2.266 -9.906,6.797 -0.594,0.864 -1.162,1.797 -1.703,2.797 -1.927,3.875 -3.558,9.375 -4.891,16.5 -0.406,2.271 -0.609,4.073 -0.609,5.406 0,4.5312 1.271,7.4635 3.812,8.7969 0.729,0.4062 1.594,0.6093 2.594,0.6093 3.729,0 7.495,-2.3697 11.297,-7.1093 0.937,-1.0625 1.573,-2.1619 1.906,-3.2969 v -0.094 c 0.063,-0.135 0.094,-0.239 0.094,-0.312 z"
                               style="fill:#000000;fill-opacity:1;fill-rule:nonzero;stroke:none"
                               id="path1832" /><g
                               id="g1834"
                               transform="translate(52.9)"><path
                                 d="m 28.906,-25 v 0 c 0,11.271 -2.104,21.4375 -6.312,30.5 C 19.135,12.896 14.74,18.828 9.4062,23.297 8,24.432 7.099,25 6.7031,25 c -0.6666,0 -1,-0.333 -1,-1 C 5.7031,23.667 6.1354,23.099 7,22.297 17.729,11.37 23.094,-4.3958 23.094,-25 c 0,-20.333 -5,-35.734 -15.0002,-46.203 l -0.5,-0.5 C 6.3333,-72.901 5.7031,-73.667 5.7031,-74 c 0,-0.667 0.3334,-1 1,-1 0.8021,0 2.5677,1.365 5.2969,4.094 4.135,4.135 7.568,9.036 10.297,14.703 4.406,9.073 6.609,19.474 6.609,31.203 z"
                                 style="fill:#000000;fill-opacity:1;fill-rule:nonzero;stroke:none"
                                 id="path1836" /><g
                                 id="g1838"
                                 transform="matrix(5.2632,0,0,5.2632,-953.63,-622.37)"><path
                                   d="m 138,159 c 0,1.66 -1.34,3 -3,3 -1.66,0 -3,-1.34 -3,-3 0,-1.66 1.34,-3 3,-3 1.66,0 3,1.34 3,3 z"
                                   style="fill:#000000;fill-opacity:1;fill-rule:nonzero;stroke:none"
                                   id="path1840" /><path
                                   d="m 138,159 c 0,1.66 -1.34,3 -3,3 -1.66,0 -3,-1.34 -3,-3 0,-1.66 1.34,-3 3,-3 1.66,0 3,1.34 3,3 z"
                                   style="fill:none;stroke:#000000;stroke-width:1;stroke-linecap:round;stroke-linejoin:round;stroke-miterlimit:10;stroke-dasharray:none;stroke-opacity:1"
                                   id="path1842" /><g
                                   id="g1844"
                                   transform="matrix(0.19,0,0,0.19,88.0004,172.2502)"><path
                                   d="M 28.703,-68.297 20.906,-36.5 c 4.125,-5.135 9.058,-7.703 14.797,-7.703 5.927,0 9.594,2.302 11,6.906 v 0.094 c 0.333,1.135 0.5,2.37 0.5,3.703 0,3.729 -2.036,11.062 -6.109,22 -1.198,2.9375 -1.797,5.3021 -1.797,7.0938 0,2.2083 0.802,3.3124 2.406,3.3124 4.136,0 7.401,-3.6666 9.797,-11.0002 l 0.406,-1.406 c 0.334,-1.062 0.667,-1.63 1,-1.703 v -0.094 h 0.5 c 0.792,0 1.188,0.333 1.188,1 0,1.136 -0.698,3.235 -2.094,6.297 -2.865,6.0625 -6.531,9.0938 -11,9.0938 -3.396,0 -5.828,-1.43234 -7.297,-4.2969 -0.604,-1.1979 -0.906,-2.4948 -0.906,-3.8907 0,-1.2083 0.432,-3.0412 1.297,-5.5002 4.135,-10.541 6.203,-18.01 6.203,-22.406 0,-4.667 -1.797,-7 -5.391,-7 -3.208,0 -6.411,1.167 -9.609,3.5 -2.469,1.938 -4.636,4.802 -6.5,8.594 L 19,-29.297 c -0.271,1.594 -0.635,3.094 -1.094,4.5 -0.333,1.531 -0.901,3.766 -1.703,6.703 L 14,-9.0938 12.094,-1.5 C 11.635,-0.10417 10.604,0.72917 9,1 8.8021,1.0625 8.6042,1.0938 8.4062,1.0938 6.8021,1.0938 5.8646,0.39583 5.5938,-1 5.5312,-1.2708 5.5,-1.5052 5.5,-1.7031 5.5,-2.2344 5.6354,-2.9688 5.9062,-3.9062 L 20.406,-61.5 l 0.297,-2 c 0,-0.729 -0.469,-1.198 -1.406,-1.406 v 0 c -0.802,-0.198 -2,-0.297 -3.594,-0.297 -1.469,0 -2.271,-0.401 -2.406,-1.203 0,-1.125 0.635,-1.792 1.906,-2 l 12.203,-1 c 0.865,0 1.297,0.37 1.297,1.109 z"
                                   style="fill:#000000;fill-opacity:1;fill-rule:nonzero;stroke:none"
                                   id="path1846" /><g
                                   id="g1848"
                                   transform="translate(57.6)"><path
                                   d="m 33.094,24 v 0 c 0,0.667 -0.334,1 -1,1 -0.792,0 -2.558,-1.365 -5.297,-4.094 C 22.661,16.771 19.229,11.87 16.5,6.2031 12.104,-2.8698 9.9062,-13.271 9.9062,-25 c 0,-11.271 2.0988,-21.438 6.2968,-30.5 3.469,-7.396 7.87,-13.328 13.203,-17.797 1.396,-1.135 2.292,-1.703 2.688,-1.703 0.666,0 1,0.333 1,1 0,0.333 -0.433,0.901 -1.297,1.703 C 21.068,-61.37 15.703,-45.604 15.703,-25 c 0,20.5312 5.235,36.13 15.703,46.797 1.125,1.135 1.688,1.87 1.688,2.203 z"
                                   style="fill:#000000;fill-opacity:1;fill-rule:nonzero;stroke:none"
                                   id="path1850" /><g
                                   id="g1852"
                                   transform="translate(38.9)"><path
                                   d="m 37.297,-37.797 c 0.333,-2.271 1.37,-3.672 3.109,-4.203 0.334,-0.135 0.698,-0.203 1.094,-0.203 1.729,0 2.698,0.901 2.906,2.703 0,0.396 -0.234,1.531 -0.703,3.406 l -3.609,14 c -1,4.198 -1.729,7.198 -2.188,9 -0.875,3.4586 -1.312,5.9221 -1.312,7.3909 0,3.0729 1,4.6093 3,4.6093 2.541,0 4.677,-2.6666 6.406,-8 0.333,-1.1352 0.734,-2.6042 1.203,-4.4062 0.531,-1.135 0.995,-1.734 1.391,-1.797 0.802,0 1.203,0.333 1.203,1 0,1 -0.599,3.333 -1.797,7.0001 -0.396,1.1354 -0.797,2.099 -1.203,2.8907 -1.865,3.66662 -4.328,5.5 -7.391,5.5 -3.739,0 -6.442,-1.59901 -8.109,-4.7969 -0.469,-0.8021 -0.802,-1.7031 -1,-2.7031 -4.198,5 -8.531,7.5 -13,7.5 -5,0 -8.698,-2.2657 -11.0939,-6.7969 C 4.7344,-8.3698 4,-11.438 4,-14.906 c 0,-7.198 2.5,-13.865 7.5,-20 4.667,-5.594 9.734,-8.656 15.203,-9.188 0.469,-0.073 0.932,-0.109 1.391,-0.109 4.073,0 7.14,2.135 9.203,6.406 z m -6.5,25.891 v 0 l 5,-19.594 c 0.198,-1 0.297,-1.568 0.297,-1.703 0,-1.396 -0.599,-3.094 -1.797,-5.094 -1.469,-2.469 -3.5,-3.703 -6.094,-3.703 -3.469,0 -6.771,2.266 -9.906,6.797 -0.594,0.864 -1.162,1.797 -1.703,2.797 -1.927,3.875 -3.558,9.375 -4.891,16.5 -0.406,2.271 -0.609,4.073 -0.609,5.406 0,4.5312 1.271,7.4635 3.812,8.7969 0.729,0.4062 1.594,0.6093 2.594,0.6093 3.729,0 7.495,-2.3697 11.297,-7.1093 0.937,-1.0625 1.573,-2.1619 1.906,-3.2969 v -0.094 c 0.063,-0.135 0.094,-0.239 0.094,-0.312 z"
                                   style="fill:#000000;fill-opacity:1;fill-rule:nonzero;stroke:none"
                                   id="path1854" /><g
                                   id="g1856"
                                   transform="translate(52.9)"><path
                                   d="m 28.906,-25 v 0 c 0,11.271 -2.104,21.4375 -6.312,30.5 C 19.135,12.896 14.74,18.828 9.4062,23.297 8,24.432 7.099,25 6.7031,25 c -0.6666,0 -1,-0.333 -1,-1 C 5.7031,23.667 6.1354,23.099 7,22.297 17.729,11.37 23.094,-4.3958 23.094,-25 c 0,-20.333 -5,-35.734 -15.0002,-46.203 l -0.5,-0.5 C 6.3333,-72.901 5.7031,-73.667 5.7031,-74 c 0,-0.667 0.3334,-1 1,-1 0.8021,0 2.5677,1.365 5.2969,4.094 4.135,4.135 7.568,9.036 10.297,14.703 4.406,9.073 6.609,19.474 6.609,31.203 z"
                                   style="fill:#000000;fill-opacity:1;fill-rule:nonzero;stroke:none"
                                   id="path1858" /><g
                                   id="g1860"
                                   transform="matrix(5.2632,0,0,5.2632,-612.56,-906.58)"><path
                                   d="m 138,259 c 0,1.66 -1.34,3 -3,3 -1.66,0 -3,-1.34 -3,-3 0,-1.66 1.34,-3 3,-3 1.66,0 3,1.34 3,3 z"
                                   style="fill:#000000;fill-opacity:1;fill-rule:nonzero;stroke:none"
                                   id="path1862" /><path
                                   d="m 138,259 c 0,1.66 -1.34,3 -3,3 -1.66,0 -3,-1.34 -3,-3 0,-1.66 1.34,-3 3,-3 1.66,0 3,1.34 3,3 z"
                                   style="fill:none;stroke:#000000;stroke-width:1;stroke-linecap:round;stroke-linejoin:round;stroke-miterlimit:10;stroke-dasharray:none;stroke-opacity:1"
                                   id="path1864" /><g
                                   id="g1866"
                                   transform="matrix(0.19,0,0,0.19,114.9994,282.188)"><path
                                   d="m 37.297,-37.797 c 0.333,-2.271 1.37,-3.672 3.109,-4.203 0.334,-0.135 0.698,-0.203 1.094,-0.203 1.729,0 2.698,0.901 2.906,2.703 0,0.396 -0.234,1.531 -0.703,3.406 l -3.609,14 c -1,4.198 -1.729,7.198 -2.188,9 -0.875,3.4586 -1.312,5.9221 -1.312,7.3909 0,3.0729 1,4.6093 3,4.6093 2.541,0 4.677,-2.6666 6.406,-8 0.333,-1.1352 0.734,-2.6042 1.203,-4.4062 0.531,-1.135 0.995,-1.734 1.391,-1.797 0.802,0 1.203,0.333 1.203,1 0,1 -0.599,3.333 -1.797,7.0001 -0.396,1.1354 -0.797,2.099 -1.203,2.8907 -1.865,3.66662 -4.328,5.5 -7.391,5.5 -3.739,0 -6.442,-1.59901 -8.109,-4.7969 -0.469,-0.8021 -0.802,-1.7031 -1,-2.7031 -4.198,5 -8.531,7.5 -13,7.5 -5,0 -8.698,-2.2657 -11.0939,-6.7969 C 4.7344,-8.3698 4,-11.438 4,-14.906 c 0,-7.198 2.5,-13.865 7.5,-20 4.667,-5.594 9.734,-8.656 15.203,-9.188 0.469,-0.073 0.932,-0.109 1.391,-0.109 4.073,0 7.14,2.135 9.203,6.406 z m -6.5,25.891 v 0 l 5,-19.594 c 0.198,-1 0.297,-1.568 0.297,-1.703 0,-1.396 -0.599,-3.094 -1.797,-5.094 -1.469,-2.469 -3.5,-3.703 -6.094,-3.703 -3.469,0 -6.771,2.266 -9.906,6.797 -0.594,0.864 -1.162,1.797 -1.703,2.797 -1.927,3.875 -3.558,9.375 -4.891,16.5 -0.406,2.271 -0.609,4.073 -0.609,5.406 0,4.5312 1.271,7.4635 3.812,8.7969 0.729,0.4062 1.594,0.6093 2.594,0.6093 3.729,0 7.495,-2.3697 11.297,-7.1093 0.937,-1.0625 1.573,-2.1619 1.906,-3.2969 v -0.094 c 0.063,-0.135 0.094,-0.239 0.094,-0.312 z"
                                   style="fill:#000000;fill-opacity:1;fill-rule:nonzero;stroke:none"
                                   id="path1868" /><g
                                   id="g1870"
                                   transform="matrix(5.2632,0,0,5.2632,-605.26,-1485.2)"><g
                                   id="g1872"
                                   transform="matrix(0.19,0,0,0.19,50.0004,85.2492)"><path
                                   d="m 47.094,-37.703 v 0 L 36,6.7031 C 35,10.703 32.401,14.068 28.203,16.797 24.339,19.266 19.87,20.5 14.797,20.5 6.599,20.5 2.1979,18.833 1.5938,15.5 1.5312,15.167 1.5,14.802 1.5,14.406 1.5,11.667 2.7344,9.8333 5.2031,8.9062 5.7969,8.6979 6.3646,8.5938 6.9062,8.5938 c 2.0626,0 3.2918,0.901 3.6878,2.7032 0.073,0.271 0.109,0.536 0.109,0.797 0,2.135 -0.9999,3.739 -2.9999,4.812 C 7.3698,17.031 7,17.161 6.5938,17.297 c 2.0729,0.667 4.7392,1 8.0002,1 6.541,0 11.344,-3.599 14.406,-10.797 l 3.297,-13.2031 -0.094,-0.0938 c -3,3.3334 -6.37,5.2344 -10.109,5.70315 C 21.562,-0.03125 21.062,0 20.594,0 15.927,0 12.328,-2.0312 9.7969,-6.0938 c -1.6667,-2.7395 -2.5,-5.9742 -2.5,-9.7032 0,-7.135 2.5364,-13.672 7.6091,-19.609 4.667,-5.459 9.698,-8.391 15.094,-8.797 h 1.094 c 3.604,0 6.505,1.703 8.703,5.109 l 0.609,1.188 c 0.594,-2.532 1.959,-3.964 4.094,-4.297 1.729,0 2.698,0.901 2.906,2.703 z m -13,24.906 v 0 l 4.812,-19.109 c 0.198,-0.792 0.297,-1.292 0.297,-1.5 0,-1.334 -0.568,-2.933 -1.703,-4.797 v 0 c -0.802,-1.333 -1.802,-2.333 -3,-3 -1,-0.531 -2.099,-0.797 -3.297,-0.797 -3.469,0 -6.771,2.234 -9.906,6.703 -0.469,0.729 -0.901,1.464 -1.297,2.203 -2.135,4 -3.833,9.563 -5.094,16.688 -0.333,2.073 -0.5,3.739 -0.5,5 0,4.406 1.266,7.2758 3.797,8.6091 0.729,0.3959 1.63,0.5938 2.703,0.5938 2.594,0 5.292,-1.1979 8.094,-3.5938 2.938,-2.5312 4.635,-4.8641 5.094,-7.0001 z"
                                   style="fill:#000000;fill-opacity:1;fill-rule:nonzero;stroke:none"
                                   id="path1874" /><g
                                   id="g1876"
                                   transform="translate(51.3)"><path
                                   d="m 33.094,24 v 0 c 0,0.667 -0.334,1 -1,1 -0.792,0 -2.558,-1.365 -5.297,-4.094 C 22.661,16.771 19.229,11.87 16.5,6.2031 12.104,-2.8698 9.9062,-13.271 9.9062,-25 c 0,-11.271 2.0988,-21.438 6.2968,-30.5 3.469,-7.396 7.87,-13.328 13.203,-17.797 1.396,-1.135 2.292,-1.703 2.688,-1.703 0.666,0 1,0.333 1,1 0,0.333 -0.433,0.901 -1.297,1.703 C 21.068,-61.37 15.703,-45.604 15.703,-25 c 0,20.5312 5.235,36.13 15.703,46.797 1.125,1.135 1.688,1.87 1.688,2.203 z"
                                   style="fill:#000000;fill-opacity:1;fill-rule:nonzero;stroke:none"
                                   id="path1878" /><g
                                   id="g1880"
                                   transform="translate(38.9)"><path
                                   d="M 33.406,-30.203 30,-16.5 c -1.135,4.531 -1.703,7.4635 -1.703,8.7969 0,3.4687 1.234,5.5677 3.703,6.2969 0.531,0.2083 1.13,0.3124 1.797,0.3124 3.333,0 6.37,-1.6666 9.109,-5 1.792,-2.1354 3.188,-4.8382 4.188,-8.1092 0.208,-0.729 0.646,-1.094 1.312,-1.094 0.792,0 1.188,0.333 1.188,1 0,1.667 -1.032,4.068 -3.094,7.2032 -3.604,5.4584 -7.906,8.1876 -12.906,8.1876 -4.532,0 -7.828,-1.89588 -9.891,-5.6876 -0.406,-0.6041 -0.708,-1.2395 -0.906,-1.9062 -1.594,3.1979 -3.792,5.4323 -6.594,6.70312 -1.271,0.59376 -2.573,0.89068 -3.906,0.89068 -4.0001,0 -6.797,-1.166717 -8.3908,-3.5 -0.6666,-0.8646 -1,-1.8959 -1,-3.0938 0,-2.4688 1.0626,-4.2031 3.1876,-5.203 0.7395,-0.396 1.5104,-0.594 2.3124,-0.594 1.9998,0 3.1978,0.833 3.5938,2.5001 0.062,0.3334 0.094,0.6667 0.094,1 0,2.2604 -1.13,3.9271 -3.3909,5 -0.4062,0.1979 -0.8385,0.3281 -1.2969,0.3907 1.3959,0.875 3.0628,1.3124 4.9998,1.3124 3.532,0 6.328,-2.3697 8.391,-7.1093 0.406,-1 0.776,-2.0989 1.109,-3.2969 3.594,-13.604 5.391,-21.536 5.391,-23.797 -0.396,-4.135 -2.193,-6.37 -5.391,-6.703 -3.468,0 -6.635,1.766 -9.5,5.297 v 0.109 c 0,0.063 -0.036,0.094 -0.109,0.094 -1,1.333 -1.901,2.865 -2.7032,4.594 -0.3334,0.802 -0.6303,1.604 -0.8907,2.406 L 8.5,-28.906 c -0.1354,0.739 -0.5677,1.109 -1.2969,1.109 -0.8021,0 -1.2031,-0.333 -1.2031,-1 0,-1.667 1.0677,-4.068 3.2031,-7.203 3.5939,-5.469 7.8909,-8.203 12.8909,-8.203 5.135,0 8.739,2.536 10.812,7.609 2.125,-4.135 4.959,-6.604 8.5,-7.406 0.667,-0.135 1.334,-0.203 2,-0.203 3.927,0 6.693,1.099 8.297,3.297 0.667,0.937 1,2.041 1,3.312 0,2.729 -1.234,4.563 -3.703,5.5 -0.604,0.198 -1.172,0.297 -1.703,0.297 -2.063,0 -3.297,-0.901 -3.703,-2.703 -0.063,-0.271 -0.094,-0.536 -0.094,-0.797 0,-2 0.969,-3.568 2.906,-4.703 0.594,-0.333 1.224,-0.568 1.891,-0.703 -1.396,-0.865 -3.063,-1.297 -5,-1.297 -4.531,0 -7.729,3.531 -9.594,10.594 -0.135,0.406 -0.234,0.807 -0.297,1.203 z"
                                   style="fill:#000000;fill-opacity:1;fill-rule:nonzero;stroke:none"
                                   id="path1882" /><g
                                   id="g1884"
                                   transform="translate(57.2)"><path
                                   d="m 28.906,-25 v 0 c 0,11.271 -2.104,21.4375 -6.312,30.5 C 19.135,12.896 14.74,18.828 9.4062,23.297 8,24.432 7.099,25 6.7031,25 c -0.6666,0 -1,-0.333 -1,-1 C 5.7031,23.667 6.1354,23.099 7,22.297 17.729,11.37 23.094,-4.3958 23.094,-25 c 0,-20.333 -5,-35.734 -15.0002,-46.203 l -0.5,-0.5 C 6.3333,-72.901 5.7031,-73.667 5.7031,-74 c 0,-0.667 0.3334,-1 1,-1 0.8021,0 2.5677,1.365 5.2969,4.094 4.135,4.135 7.568,9.036 10.297,14.703 4.406,9.073 6.609,19.474 6.609,31.203 z"
                                   style="fill:#000000;fill-opacity:1;fill-rule:nonzero;stroke:none"
                                   id="path1886" /><g
                                   id="g1888"
                                   transform="matrix(1.000008,0,0,1.000008,610.54817,626.3286)"><path
                                   d="M 28.703,-68.297 20.906,-36.5 c 4.125,-5.135 9.058,-7.703 14.797,-7.703 5.927,0 9.594,2.302 11,6.906 v 0.094 c 0.333,1.135 0.5,2.37 0.5,3.703 0,3.729 -2.036,11.062 -6.109,22 -1.198,2.9375 -1.797,5.3021 -1.797,7.0938 0,2.2083 0.802,3.3124 2.406,3.3124 4.136,0 7.401,-3.6666 9.797,-11.0002 l 0.406,-1.406 c 0.334,-1.062 0.667,-1.63 1,-1.703 v -0.094 h 0.5 c 0.792,0 1.188,0.333 1.188,1 0,1.136 -0.698,3.235 -2.094,6.297 -2.865,6.0625 -6.531,9.0938 -11,9.0938 -3.396,0 -5.828,-1.43234 -7.297,-4.2969 -0.604,-1.1979 -0.906,-2.4948 -0.906,-3.8907 0,-1.2083 0.432,-3.0412 1.297,-5.5002 4.135,-10.541 6.203,-18.01 6.203,-22.406 0,-4.667 -1.797,-7 -5.391,-7 -3.208,0 -6.411,1.167 -9.609,3.5 -2.469,1.938 -4.636,4.802 -6.5,8.594 L 19,-29.297 c -0.271,1.594 -0.635,3.094 -1.094,4.5 -0.333,1.531 -0.901,3.766 -1.703,6.703 L 14,-9.0938 12.094,-1.5 C 11.635,-0.10417 10.604,0.72917 9,1 8.8021,1.0625 8.6042,1.0938 8.4062,1.0938 6.8021,1.0938 5.8646,0.39583 5.5938,-1 5.5312,-1.2708 5.5,-1.5052 5.5,-1.7031 5.5,-2.2344 5.6354,-2.9688 5.9062,-3.9062 L 20.406,-61.5 l 0.297,-2 c 0,-0.729 -0.469,-1.198 -1.406,-1.406 v 0 c -0.802,-0.198 -2,-0.297 -3.594,-0.297 -1.469,0 -2.271,-0.401 -2.406,-1.203 0,-1.125 0.635,-1.792 1.906,-2 l 12.203,-1 c 0.865,0 1.297,0.37 1.297,1.109 z"
                                   style="fill:#000000;fill-opacity:1;fill-rule:nonzero;stroke:none"
                                   id="path1890" /><g
                                   id="g1892"
                                   transform="translate(57.6)"><path
                                   d="m 33.094,24 v 0 c 0,0.667 -0.334,1 -1,1 -0.792,0 -2.558,-1.365 -5.297,-4.094 C 22.661,16.771 19.229,11.87 16.5,6.2031 12.104,-2.8698 9.9062,-13.271 9.9062,-25 c 0,-11.271 2.0988,-21.438 6.2968,-30.5 3.469,-7.396 7.87,-13.328 13.203,-17.797 1.396,-1.135 2.292,-1.703 2.688,-1.703 0.666,0 1,0.333 1,1 0,0.333 -0.433,0.901 -1.297,1.703 C 21.068,-61.37 15.703,-45.604 15.703,-25 c 0,20.5312 5.235,36.13 15.703,46.797 1.125,1.135 1.688,1.87 1.688,2.203 z"
                                   style="fill:#000000;fill-opacity:1;fill-rule:nonzero;stroke:none"
                                   id="path1894" /><g
                                   id="g1896"
                                   transform="translate(38.9)"><path
                                   d="M 33.406,-30.203 30,-16.5 c -1.135,4.531 -1.703,7.4635 -1.703,8.7969 0,3.4687 1.234,5.5677 3.703,6.2969 0.531,0.2083 1.13,0.3124 1.797,0.3124 3.333,0 6.37,-1.6666 9.109,-5 1.792,-2.1354 3.188,-4.8382 4.188,-8.1092 0.208,-0.729 0.646,-1.094 1.312,-1.094 0.792,0 1.188,0.333 1.188,1 0,1.667 -1.032,4.068 -3.094,7.2032 -3.604,5.4584 -7.906,8.1876 -12.906,8.1876 -4.532,0 -7.828,-1.89588 -9.891,-5.6876 -0.406,-0.6041 -0.708,-1.2395 -0.906,-1.9062 -1.594,3.1979 -3.792,5.4323 -6.594,6.70312 -1.271,0.59376 -2.573,0.89068 -3.906,0.89068 -4.0001,0 -6.797,-1.166717 -8.3908,-3.5 -0.6666,-0.8646 -1,-1.8959 -1,-3.0938 0,-2.4688 1.0626,-4.2031 3.1876,-5.203 0.7395,-0.396 1.5104,-0.594 2.3124,-0.594 1.9998,0 3.1978,0.833 3.5938,2.5001 0.062,0.3334 0.094,0.6667 0.094,1 0,2.2604 -1.13,3.9271 -3.3909,5 -0.4062,0.1979 -0.8385,0.3281 -1.2969,0.3907 1.3959,0.875 3.0628,1.3124 4.9998,1.3124 3.532,0 6.328,-2.3697 8.391,-7.1093 0.406,-1 0.776,-2.0989 1.109,-3.2969 3.594,-13.604 5.391,-21.536 5.391,-23.797 -0.396,-4.135 -2.193,-6.37 -5.391,-6.703 -3.468,0 -6.635,1.766 -9.5,5.297 v 0.109 c 0,0.063 -0.036,0.094 -0.109,0.094 -1,1.333 -1.901,2.865 -2.7032,4.594 -0.3334,0.802 -0.6303,1.604 -0.8907,2.406 L 8.5,-28.906 c -0.1354,0.739 -0.5677,1.109 -1.2969,1.109 -0.8021,0 -1.2031,-0.333 -1.2031,-1 0,-1.667 1.0677,-4.068 3.2031,-7.203 3.5939,-5.469 7.8909,-8.203 12.8909,-8.203 5.135,0 8.739,2.536 10.812,7.609 2.125,-4.135 4.959,-6.604 8.5,-7.406 0.667,-0.135 1.334,-0.203 2,-0.203 3.927,0 6.693,1.099 8.297,3.297 0.667,0.937 1,2.041 1,3.312 0,2.729 -1.234,4.563 -3.703,5.5 -0.604,0.198 -1.172,0.297 -1.703,0.297 -2.063,0 -3.297,-0.901 -3.703,-2.703 -0.063,-0.271 -0.094,-0.536 -0.094,-0.797 0,-2 0.969,-3.568 2.906,-4.703 0.594,-0.333 1.224,-0.568 1.891,-0.703 -1.396,-0.865 -3.063,-1.297 -5,-1.297 -4.531,0 -7.729,3.531 -9.594,10.594 -0.135,0.406 -0.234,0.807 -0.297,1.203 z"
                                   style="fill:#000000;fill-opacity:1;fill-rule:nonzero;stroke:none"
                                   id="path1898" /><g
                                   id="g1900"
                                   transform="translate(57.2)"><path
                                   d="m 28.906,-25 v 0 c 0,11.271 -2.104,21.4375 -6.312,30.5 C 19.135,12.896 14.74,18.828 9.4062,23.297 8,24.432 7.099,25 6.7031,25 c -0.6666,0 -1,-0.333 -1,-1 C 5.7031,23.667 6.1354,23.099 7,22.297 17.729,11.37 23.094,-4.3958 23.094,-25 c 0,-20.333 -5,-35.734 -15.0002,-46.203 l -0.5,-0.5 C 6.3333,-72.901 5.7031,-73.667 5.7031,-74 c 0,-0.667 0.3334,-1 1,-1 0.8021,0 2.5677,1.365 5.2969,4.094 4.135,4.135 7.568,9.036 10.297,14.703 4.406,9.073 6.609,19.474 6.609,31.203 z"
                                   style="fill:#000000;fill-opacity:1;fill-rule:nonzero;stroke:none"
                                   id="path1902" /><g
                                   id="g1904"
                                   transform="matrix(1.000008,0,0,1.000008,-348.47339,-778.94763)"><path
                                   d="m 36.703,-40 v 0 l -6,31.7031 c -0.604,4.1354 -1.807,8.86982 -3.609,14.2031 -0.667,1.9271 -1.334,3.5573 -2,4.8908 -2.334,4.937 -5.229,8.005 -8.688,9.203 -0.875,0.333 -1.745,0.5 -2.609,0.5 -3.333,0 -5.797,-1.135 -7.3908,-3.406 -0.7395,-1 -1.1093,-2.167 -1.1093,-3.5 0,-2.667 1.1354,-4.5002 3.4062,-5.5002 0.6667,-0.3334 1.3649,-0.5 2.0939,-0.5 1.937,0 3.141,0.8333 3.609,2.5002 0.063,0.333 0.094,0.666 0.094,1 0,2.271 -1,3.875 -3,4.812 -0.729,0.334 -1.5625,0.532 -2.5,0.594 1.271,1.198 2.87,1.797 4.797,1.797 2.937,0 5.239,-3.266 6.906,-9.797 0.333,-1.5312 0.735,-3.5312 1.203,-6 L 22.5,-0.5 30,-40 h -6.594 c -1.666,0 -2.567,-0.266 -2.703,-0.797 h -0.109 v -0.406 c 0,-1.136 0.567,-1.766 1.703,-1.891 v 0 h 1.297 6.906 c 1.604,-8.333 2.703,-13.567 3.297,-15.703 2,-6.667 5.536,-10.5 10.609,-11.5 0.729,-0.135 1.427,-0.203 2.094,-0.203 3.469,0 6,1.135 7.594,3.406 v 0 c 0.739,1 1.109,2.167 1.109,3.5 0,2.667 -1.135,4.5 -3.406,5.5 -0.667,0.334 -1.365,0.5 -2.094,0.5 -1.937,0 -3.141,-0.833 -3.609,-2.5 -0.063,-0.333 -0.094,-0.666 -0.094,-1 0,-2.073 0.932,-3.609 2.797,-4.609 0.739,-0.469 1.609,-0.735 2.609,-0.797 -1.271,-1.198 -2.906,-1.797 -4.906,-1.797 -2.062,0 -3.63,1.13 -4.703,3.391 -0.469,0.937 -1.266,4.406 -2.391,10.406 l -2.109,11.406 h 8.297 c 1.666,0 2.567,0.365 2.703,1.094 0,1.198 -0.531,1.865 -1.594,2 h -0.109 -1.297 z"
                                   style="fill:#000000;fill-opacity:1;fill-rule:nonzero;stroke:none"
                                   id="path1906" /><g
                                   id="g1908"
                                   transform="translate(59.8)"><path
                                   d="m 33.094,24 v 0 c 0,0.667 -0.334,1 -1,1 -0.792,0 -2.558,-1.365 -5.297,-4.094 C 22.661,16.771 19.229,11.87 16.5,6.2031 12.104,-2.8698 9.9062,-13.271 9.9062,-25 c 0,-11.271 2.0988,-21.438 6.2968,-30.5 3.469,-7.396 7.87,-13.328 13.203,-17.797 1.396,-1.135 2.292,-1.703 2.688,-1.703 0.666,0 1,0.333 1,1 0,0.333 -0.433,0.901 -1.297,1.703 C 21.068,-61.37 15.703,-45.604 15.703,-25 c 0,20.5312 5.235,36.13 15.703,46.797 1.125,1.135 1.688,1.87 1.688,2.203 z"
                                   style="fill:#000000;fill-opacity:1;fill-rule:nonzero;stroke:none"
                                   id="path1910" /><g
                                   id="g1912"
                                   transform="translate(38.9)"><path
                                   d="M 33.406,-30.203 30,-16.5 c -1.135,4.531 -1.703,7.4635 -1.703,8.7969 0,3.4687 1.234,5.5677 3.703,6.2969 0.531,0.2083 1.13,0.3124 1.797,0.3124 3.333,0 6.37,-1.6666 9.109,-5 1.792,-2.1354 3.188,-4.8382 4.188,-8.1092 0.208,-0.729 0.646,-1.094 1.312,-1.094 0.792,0 1.188,0.333 1.188,1 0,1.667 -1.032,4.068 -3.094,7.2032 -3.604,5.4584 -7.906,8.1876 -12.906,8.1876 -4.532,0 -7.828,-1.89588 -9.891,-5.6876 -0.406,-0.6041 -0.708,-1.2395 -0.906,-1.9062 -1.594,3.1979 -3.792,5.4323 -6.594,6.70312 -1.271,0.59376 -2.573,0.89068 -3.906,0.89068 -4.0001,0 -6.797,-1.166717 -8.3908,-3.5 -0.6666,-0.8646 -1,-1.8959 -1,-3.0938 0,-2.4688 1.0626,-4.2031 3.1876,-5.203 0.7395,-0.396 1.5104,-0.594 2.3124,-0.594 1.9998,0 3.1978,0.833 3.5938,2.5001 0.062,0.3334 0.094,0.6667 0.094,1 0,2.2604 -1.13,3.9271 -3.3909,5 -0.4062,0.1979 -0.8385,0.3281 -1.2969,0.3907 1.3959,0.875 3.0628,1.3124 4.9998,1.3124 3.532,0 6.328,-2.3697 8.391,-7.1093 0.406,-1 0.776,-2.0989 1.109,-3.2969 3.594,-13.604 5.391,-21.536 5.391,-23.797 -0.396,-4.135 -2.193,-6.37 -5.391,-6.703 -3.468,0 -6.635,1.766 -9.5,5.297 v 0.109 c 0,0.063 -0.036,0.094 -0.109,0.094 -1,1.333 -1.901,2.865 -2.7032,4.594 -0.3334,0.802 -0.6303,1.604 -0.8907,2.406 L 8.5,-28.906 c -0.1354,0.739 -0.5677,1.109 -1.2969,1.109 -0.8021,0 -1.2031,-0.333 -1.2031,-1 0,-1.667 1.0677,-4.068 3.2031,-7.203 3.5939,-5.469 7.8909,-8.203 12.8909,-8.203 5.135,0 8.739,2.536 10.812,7.609 2.125,-4.135 4.959,-6.604 8.5,-7.406 0.667,-0.135 1.334,-0.203 2,-0.203 3.927,0 6.693,1.099 8.297,3.297 0.667,0.937 1,2.041 1,3.312 0,2.729 -1.234,4.563 -3.703,5.5 -0.604,0.198 -1.172,0.297 -1.703,0.297 -2.063,0 -3.297,-0.901 -3.703,-2.703 -0.063,-0.271 -0.094,-0.536 -0.094,-0.797 0,-2 0.969,-3.568 2.906,-4.703 0.594,-0.333 1.224,-0.568 1.891,-0.703 -1.396,-0.865 -3.063,-1.297 -5,-1.297 -4.531,0 -7.729,3.531 -9.594,10.594 -0.135,0.406 -0.234,0.807 -0.297,1.203 z"
                                   style="fill:#000000;fill-opacity:1;fill-rule:nonzero;stroke:none"
                                   id="path1914" /><g
                                   id="g1916"
                                   transform="translate(57.2)"><path
                                   d="m 28.906,-25 v 0 c 0,11.271 -2.104,21.4375 -6.312,30.5 C 19.135,12.896 14.74,18.828 9.4062,23.297 8,24.432 7.099,25 6.7031,25 c -0.6666,0 -1,-0.333 -1,-1 C 5.7031,23.667 6.1354,23.099 7,22.297 17.729,11.37 23.094,-4.3958 23.094,-25 c 0,-20.333 -5,-35.734 -15.0002,-46.203 l -0.5,-0.5 C 6.3333,-72.901 5.7031,-73.667 5.7031,-74 c 0,-0.667 0.3334,-1 1,-1 0.8021,0 2.5677,1.365 5.2969,4.094 4.135,4.135 7.568,9.036 10.297,14.703 4.406,9.073 6.609,19.474 6.609,31.203 z"
                                   style="fill:#000000;fill-opacity:1;fill-rule:nonzero;stroke:none"
                                   id="path1918" /><g
                                   id="g1920"
                                   transform="translate(66.68)"><path
                                   d="M 68.703,-32.703 H 9 c -2.1354,0 -3.2708,-0.667 -3.4062,-2 0,-1.333 1.1041,-2 3.3124,-2 H 68.797 c 2.135,0 3.234,0.667 3.297,2 0,1.333 -1.13,2 -3.391,2 z m 0.094,19.406 H 8.9062 c -2.1354,0 -3.2395,-0.667 -3.3124,-2 0,-1.333 1.1354,-2 3.4062,-2 h 59.703 c 2.136,0 3.266,0.667 3.391,2 0,1.333 -1.099,2 -3.297,2 z"
                                   style="fill:#000000;fill-opacity:1;fill-rule:nonzero;stroke:none"
                                   id="path1922" /><g
                                   id="g1924"
                                   transform="translate(105.6,-171)"><path
                                   d="m 47.219,285.5 c -3.709,-3.71 -6.638,-7.93 -8.789,-12.67 -2.151,-4.74 -3.227,-9.65 -3.227,-14.72 v -73.83 c 0,-4.88 -0.812,-9.62 -2.437,-14.21 -1.625,-4.59 -3.993,-8.79 -7.102,-12.59 -3.109,-3.81 -6.732,-6.94 -10.867,-9.39 -0.261,-0.26 -0.391,-0.49 -0.391,-0.68 v -2.93 c 0,-0.26 0.13,-0.45 0.391,-0.59 3.219,-1.92 6.065,-4.16 8.539,-6.73 2.474,-2.58 4.615,-5.49 6.422,-8.75 1.807,-3.25 3.166,-6.63 4.078,-10.13 0.911,-3.5 1.367,-7.05 1.367,-10.66 V 33.797 c 0,-8.24 2.5,-15.615 7.5,-22.125 C 47.703,5.1615 54.24,-0.0625 62.312,-4 h 2.969 c 0.229,0 0.425,0.0807 0.586,0.2422 0.162,0.1614 0.242,0.3411 0.242,0.539 v 2.92192 c 0,0.260422 -0.093,0.48959 -0.281,0.6875 -3.062,1.65628 -5.857,3.68228 -8.383,6.07818 -2.526,2.3958 -4.682,5.0342 -6.468,7.9142 -1.787,2.88 -3.178,6.021 -4.172,9.422 -0.995,3.401 -1.493,6.794 -1.493,10.179 v 73.826 c 0,5.27 -1.091,10.36 -3.273,15.26 -2.182,4.9 -5.161,9.3 -8.937,13.19 -3.776,3.89 -8.102,7.14 -12.977,9.74 3.51,1.82 6.828,4.1 9.953,6.84 3.125,2.73 5.818,5.72 8.078,8.96 2.261,3.24 4.018,6.75 5.274,10.54 1.255,3.8 1.882,7.71 1.882,11.74 v 73.83 c 0,6.97 1.847,13.44 5.54,19.43 3.692,5.99 8.684,10.71 14.976,14.16 0.188,0.2 0.281,0.43 0.281,0.69 v 2.93 c 0,0.19 -0.08,0.37 -0.242,0.54 -0.161,0.16 -0.357,0.25 -0.586,0.25 h -2.875 c -1.729,-0.43 -4.172,-1.77 -7.328,-4.01 -3.156,-2.25 -5.776,-4.38 -7.859,-6.4 z"
                                   style="fill:#000000;fill-opacity:1;fill-rule:nonzero;stroke:none"
                                   id="path1926" /><g
                                   id="g1928"
                                   transform="translate(97.2,99.06)"><path
                                   d="m 47.094,-37.703 v 0 L 36,6.7031 C 35,10.703 32.401,14.068 28.203,16.797 24.339,19.266 19.87,20.5 14.797,20.5 6.599,20.5 2.1979,18.833 1.5938,15.5 1.5312,15.167 1.5,14.802 1.5,14.406 1.5,11.667 2.7344,9.8333 5.2031,8.9062 5.7969,8.6979 6.3646,8.5938 6.9062,8.5938 c 2.0626,0 3.2918,0.901 3.6878,2.7032 0.073,0.271 0.109,0.536 0.109,0.797 0,2.135 -0.9999,3.739 -2.9999,4.812 C 7.3698,17.031 7,17.161 6.5938,17.297 c 2.0729,0.667 4.7392,1 8.0002,1 6.541,0 11.344,-3.599 14.406,-10.797 l 3.297,-13.2031 -0.094,-0.0938 c -3,3.3334 -6.37,5.2344 -10.109,5.70315 C 21.562,-0.03125 21.062,0 20.594,0 15.927,0 12.328,-2.0312 9.7969,-6.0938 c -1.6667,-2.7395 -2.5,-5.9742 -2.5,-9.7032 0,-7.135 2.5364,-13.672 7.6091,-19.609 4.667,-5.459 9.698,-8.391 15.094,-8.797 h 1.094 c 3.604,0 6.505,1.703 8.703,5.109 l 0.609,1.188 c 0.594,-2.532 1.959,-3.964 4.094,-4.297 1.729,0 2.698,0.901 2.906,2.703 z m -13,24.906 v 0 l 4.812,-19.109 c 0.198,-0.792 0.297,-1.292 0.297,-1.5 0,-1.334 -0.568,-2.933 -1.703,-4.797 v 0 c -0.802,-1.333 -1.802,-2.333 -3,-3 -1,-0.531 -2.099,-0.797 -3.297,-0.797 -3.469,0 -6.771,2.234 -9.906,6.703 -0.469,0.729 -0.901,1.464 -1.297,2.203 -2.135,4 -3.833,9.563 -5.094,16.688 -0.333,2.073 -0.5,3.739 -0.5,5 0,4.406 1.266,7.2758 3.797,8.6091 0.729,0.3959 1.63,0.5938 2.703,0.5938 2.594,0 5.292,-1.1979 8.094,-3.5938 2.938,-2.5312 4.635,-4.8641 5.094,-7.0001 z"
                                   style="fill:#000000;fill-opacity:1;fill-rule:nonzero;stroke:none"
                                   id="path1930" /><g
                                   id="g1932"
                                   transform="translate(51.3)"><path
                                   d="m 33.094,24 v 0 c 0,0.667 -0.334,1 -1,1 -0.792,0 -2.558,-1.365 -5.297,-4.094 C 22.661,16.771 19.229,11.87 16.5,6.2031 12.104,-2.8698 9.9062,-13.271 9.9062,-25 c 0,-11.271 2.0988,-21.438 6.2968,-30.5 3.469,-7.396 7.87,-13.328 13.203,-17.797 1.396,-1.135 2.292,-1.703 2.688,-1.703 0.666,0 1,0.333 1,1 0,0.333 -0.433,0.901 -1.297,1.703 C 21.068,-61.37 15.703,-45.604 15.703,-25 c 0,20.5312 5.235,36.13 15.703,46.797 1.125,1.135 1.688,1.87 1.688,2.203 z"
                                   style="fill:#000000;fill-opacity:1;fill-rule:nonzero;stroke:none"
                                   id="path1934" /><g
                                   id="g1936"
                                   transform="translate(38.9)"><path
                                   d="M 33.406,-30.203 30,-16.5 c -1.135,4.531 -1.703,7.4635 -1.703,8.7969 0,3.4687 1.234,5.5677 3.703,6.2969 0.531,0.2083 1.13,0.3124 1.797,0.3124 3.333,0 6.37,-1.6666 9.109,-5 1.792,-2.1354 3.188,-4.8382 4.188,-8.1092 0.208,-0.729 0.646,-1.094 1.312,-1.094 0.792,0 1.188,0.333 1.188,1 0,1.667 -1.032,4.068 -3.094,7.2032 -3.604,5.4584 -7.906,8.1876 -12.906,8.1876 -4.532,0 -7.828,-1.89588 -9.891,-5.6876 -0.406,-0.6041 -0.708,-1.2395 -0.906,-1.9062 -1.594,3.1979 -3.792,5.4323 -6.594,6.70312 -1.271,0.59376 -2.573,0.89068 -3.906,0.89068 -4.0001,0 -6.797,-1.166717 -8.3908,-3.5 -0.6666,-0.8646 -1,-1.8959 -1,-3.0938 0,-2.4688 1.0626,-4.2031 3.1876,-5.203 0.7395,-0.396 1.5104,-0.594 2.3124,-0.594 1.9998,0 3.1978,0.833 3.5938,2.5001 0.062,0.3334 0.094,0.6667 0.094,1 0,2.2604 -1.13,3.9271 -3.3909,5 -0.4062,0.1979 -0.8385,0.3281 -1.2969,0.3907 1.3959,0.875 3.0628,1.3124 4.9998,1.3124 3.532,0 6.328,-2.3697 8.391,-7.1093 0.406,-1 0.776,-2.0989 1.109,-3.2969 3.594,-13.604 5.391,-21.536 5.391,-23.797 -0.396,-4.135 -2.193,-6.37 -5.391,-6.703 -3.468,0 -6.635,1.766 -9.5,5.297 v 0.109 c 0,0.063 -0.036,0.094 -0.109,0.094 -1,1.333 -1.901,2.865 -2.7032,4.594 -0.3334,0.802 -0.6303,1.604 -0.8907,2.406 L 8.5,-28.906 c -0.1354,0.739 -0.5677,1.109 -1.2969,1.109 -0.8021,0 -1.2031,-0.333 -1.2031,-1 0,-1.667 1.0677,-4.068 3.2031,-7.203 3.5939,-5.469 7.8909,-8.203 12.8909,-8.203 5.135,0 8.739,2.536 10.812,7.609 2.125,-4.135 4.959,-6.604 8.5,-7.406 0.667,-0.135 1.334,-0.203 2,-0.203 3.927,0 6.693,1.099 8.297,3.297 0.667,0.937 1,2.041 1,3.312 0,2.729 -1.234,4.563 -3.703,5.5 -0.604,0.198 -1.172,0.297 -1.703,0.297 -2.063,0 -3.297,-0.901 -3.703,-2.703 -0.063,-0.271 -0.094,-0.536 -0.094,-0.797 0,-2 0.969,-3.568 2.906,-4.703 0.594,-0.333 1.224,-0.568 1.891,-0.703 -1.396,-0.865 -3.063,-1.297 -5,-1.297 -4.531,0 -7.729,3.531 -9.594,10.594 -0.135,0.406 -0.234,0.807 -0.297,1.203 z"
                                   style="fill:#000000;fill-opacity:1;fill-rule:nonzero;stroke:none"
                                   id="path1938" /><g
                                   id="g1940"
                                   transform="translate(57.2)"><path
                                   d="m 28.906,-25 v 0 c 0,11.271 -2.104,21.4375 -6.312,30.5 C 19.135,12.896 14.74,18.828 9.4062,23.297 8,24.432 7.099,25 6.7031,25 c -0.6666,0 -1,-0.333 -1,-1 C 5.7031,23.667 6.1354,23.099 7,22.297 17.729,11.37 23.094,-4.3958 23.094,-25 c 0,-20.333 -5,-35.734 -15.0002,-46.203 l -0.5,-0.5 C 6.3333,-72.901 5.7031,-73.667 5.7031,-74 c 0,-0.667 0.3334,-1 1,-1 0.8021,0 2.5677,1.365 5.2969,4.094 4.135,4.135 7.568,9.036 10.297,14.703 4.406,9.073 6.609,19.474 6.609,31.203 z"
                                   style="fill:#000000;fill-opacity:1;fill-rule:nonzero;stroke:none"
                                   id="path1942" /><g
                                   id="g1944"
                                   transform="translate(38.9)"><path
                                   d="m 20.297,-0.09375 v 0 C 20.297,6.3646 18.198,12.031 14,16.906 c -1.135,1.334 -2.068,2.13 -2.797,2.391 -0.667,0 -1,-0.365 -1,-1.094 0,-0.333 0.365,-0.87 1.094,-1.609 4,-4 6.234,-8.8961 6.703,-14.6878 0.062,-0.6666 0.094,-1.33328 0.094,-1.99995 0,-1.00005 -0.063,-1.50005 -0.188,-1.50005 -0.073,0 -0.239,0.099 -0.5,0.2969 C 16.469,-0.43229 15.302,0 13.906,0 11.438,0 9.8021,-1.1354 9,-3.4062 8.7292,-4 8.5938,-4.6302 8.5938,-5.2969 c 0,-2.4062 1.0364,-4.0416 3.1092,-4.9061 0.667,-0.261 1.401,-0.391 2.203,-0.391 2.927,0 4.891,1.9325 5.891,5.7971 0.333,1.3959 0.5,2.9636 0.5,4.70315 z"
                                   style="fill:#000000;fill-opacity:1;fill-rule:nonzero;stroke:none"
                                   id="path1946" /><g
                                   id="g1948"
                                   transform="translate(117.5)"><path
                                   d="M 33.406,-30.203 30,-16.5 c -1.135,4.531 -1.703,7.4635 -1.703,8.7969 0,3.4687 1.234,5.5677 3.703,6.2969 0.531,0.2083 1.13,0.3124 1.797,0.3124 3.333,0 6.37,-1.6666 9.109,-5 1.792,-2.1354 3.188,-4.8382 4.188,-8.1092 0.208,-0.729 0.646,-1.094 1.312,-1.094 0.792,0 1.188,0.333 1.188,1 0,1.667 -1.032,4.068 -3.094,7.2032 -3.604,5.4584 -7.906,8.1876 -12.906,8.1876 -4.532,0 -7.828,-1.89588 -9.891,-5.6876 -0.406,-0.6041 -0.708,-1.2395 -0.906,-1.9062 -1.594,3.1979 -3.792,5.4323 -6.594,6.70312 -1.271,0.59376 -2.573,0.89068 -3.906,0.89068 -4.0001,0 -6.797,-1.166717 -8.3908,-3.5 -0.6666,-0.8646 -1,-1.8959 -1,-3.0938 0,-2.4688 1.0626,-4.2031 3.1876,-5.203 0.7395,-0.396 1.5104,-0.594 2.3124,-0.594 1.9998,0 3.1978,0.833 3.5938,2.5001 0.062,0.3334 0.094,0.6667 0.094,1 0,2.2604 -1.13,3.9271 -3.3909,5 -0.4062,0.1979 -0.8385,0.3281 -1.2969,0.3907 1.3959,0.875 3.0628,1.3124 4.9998,1.3124 3.532,0 6.328,-2.3697 8.391,-7.1093 0.406,-1 0.776,-2.0989 1.109,-3.2969 3.594,-13.604 5.391,-21.536 5.391,-23.797 -0.396,-4.135 -2.193,-6.37 -5.391,-6.703 -3.468,0 -6.635,1.766 -9.5,5.297 v 0.109 c 0,0.063 -0.036,0.094 -0.109,0.094 -1,1.333 -1.901,2.865 -2.7032,4.594 -0.3334,0.802 -0.6303,1.604 -0.8907,2.406 L 8.5,-28.906 c -0.1354,0.739 -0.5677,1.109 -1.2969,1.109 -0.8021,0 -1.2031,-0.333 -1.2031,-1 0,-1.667 1.0677,-4.068 3.2031,-7.203 3.5939,-5.469 7.8909,-8.203 12.8909,-8.203 5.135,0 8.739,2.536 10.812,7.609 2.125,-4.135 4.959,-6.604 8.5,-7.406 0.667,-0.135 1.334,-0.203 2,-0.203 3.927,0 6.693,1.099 8.297,3.297 0.667,0.937 1,2.041 1,3.312 0,2.729 -1.234,4.563 -3.703,5.5 -0.604,0.198 -1.172,0.297 -1.703,0.297 -2.063,0 -3.297,-0.901 -3.703,-2.703 -0.063,-0.271 -0.094,-0.536 -0.094,-0.797 0,-2 0.969,-3.568 2.906,-4.703 0.594,-0.333 1.224,-0.568 1.891,-0.703 -1.396,-0.865 -3.063,-1.297 -5,-1.297 -4.531,0 -7.729,3.531 -9.594,10.594 -0.135,0.406 -0.234,0.807 -0.297,1.203 z"
                                   style="fill:#000000;fill-opacity:1;fill-rule:nonzero;stroke:none"
                                   id="path1950" /><g
                                   id="g1952"
                                   transform="translate(84.9)"><path
                                   d="M 67.5,-59.406 15,-34.594 67.406,-9.9062 c 1.198,0.5416 1.865,1.276 2,2.2031 0,1.0729 -0.5,1.7083 -1.5,1.9062 -0.208,0.0625 -0.375,0.0938 -0.5,0.0938 -0.333,0 -0.937,-0.2344 -1.812,-0.7031 L 10.297,-32.406 C 8.9635,-33 8.2969,-33.729 8.2969,-34.594 c 0,-0.937 0.6666,-1.708 2.0001,-2.312 L 65.594,-63 c 0.802,-0.396 1.406,-0.594 1.812,-0.594 1.063,0 1.693,0.5 1.891,1.5 0.073,0.198 0.109,0.365 0.109,0.5 0,0.792 -0.635,1.521 -1.906,2.188 z M 65.594,13 v 0 L 10.297,-13 c -1.3335,-0.604 -2.0001,-1.339 -2.0001,-2.203 0,-1.136 0.6666,-1.802 2.0001,-2 0.406,0 1.042,0.234 1.906,0.703 l 55.203,26 c 1.198,0.531 1.865,1.266 2,2.203 0,1.063 -0.5,1.693 -1.5,1.891 -0.208,0.073 -0.375,0.109 -0.5,0.109 -0.333,0 -0.937,-0.234 -1.812,-0.703 z"
                                   style="fill:#000000;fill-opacity:1;fill-rule:nonzero;stroke:none"
                                   id="path1954" /><g
                                   id="g1956"
                                   transform="translate(105.6)"><path
                                   d="m 37.297,-37.797 c 0.333,-2.271 1.37,-3.672 3.109,-4.203 0.334,-0.135 0.698,-0.203 1.094,-0.203 1.729,0 2.698,0.901 2.906,2.703 0,0.396 -0.234,1.531 -0.703,3.406 l -3.609,14 c -1,4.198 -1.729,7.198 -2.188,9 -0.875,3.4586 -1.312,5.9221 -1.312,7.3909 0,3.0729 1,4.6093 3,4.6093 2.541,0 4.677,-2.6666 6.406,-8 0.333,-1.1352 0.734,-2.6042 1.203,-4.4062 0.531,-1.135 0.995,-1.734 1.391,-1.797 0.802,0 1.203,0.333 1.203,1 0,1 -0.599,3.333 -1.797,7.0001 -0.396,1.1354 -0.797,2.099 -1.203,2.8907 -1.865,3.66662 -4.328,5.5 -7.391,5.5 -3.739,0 -6.442,-1.59901 -8.109,-4.7969 -0.469,-0.8021 -0.802,-1.7031 -1,-2.7031 -4.198,5 -8.531,7.5 -13,7.5 -5,0 -8.698,-2.2657 -11.0939,-6.7969 C 4.7344,-8.3698 4,-11.438 4,-14.906 c 0,-7.198 2.5,-13.865 7.5,-20 4.667,-5.594 9.734,-8.656 15.203,-9.188 0.469,-0.073 0.932,-0.109 1.391,-0.109 4.073,0 7.14,2.135 9.203,6.406 z m -6.5,25.891 v 0 l 5,-19.594 c 0.198,-1 0.297,-1.568 0.297,-1.703 0,-1.396 -0.599,-3.094 -1.797,-5.094 -1.469,-2.469 -3.5,-3.703 -6.094,-3.703 -3.469,0 -6.771,2.266 -9.906,6.797 -0.594,0.864 -1.162,1.797 -1.703,2.797 -1.927,3.875 -3.558,9.375 -4.891,16.5 -0.406,2.271 -0.609,4.073 -0.609,5.406 0,4.5312 1.271,7.4635 3.812,8.7969 0.729,0.4062 1.594,0.6093 2.594,0.6093 3.729,0 7.495,-2.3697 11.297,-7.1093 0.937,-1.0625 1.573,-2.1619 1.906,-3.2969 v -0.094 c 0.063,-0.135 0.094,-0.239 0.094,-0.312 z"
                                   style="fill:#000000;fill-opacity:1;fill-rule:nonzero;stroke:none"
                                   id="path1958" /><g
                                   id="g1960"
                                   transform="translate(52.9)"><path
                                   d="m 20.297,-0.09375 v 0 C 20.297,6.3646 18.198,12.031 14,16.906 c -1.135,1.334 -2.068,2.13 -2.797,2.391 -0.667,0 -1,-0.365 -1,-1.094 0,-0.333 0.365,-0.87 1.094,-1.609 4,-4 6.234,-8.8961 6.703,-14.6878 0.062,-0.6666 0.094,-1.33328 0.094,-1.99995 0,-1.00005 -0.063,-1.50005 -0.188,-1.50005 -0.073,0 -0.239,0.099 -0.5,0.2969 C 16.469,-0.43229 15.302,0 13.906,0 11.438,0 9.8021,-1.1354 9,-3.4062 8.7292,-4 8.5938,-4.6302 8.5938,-5.2969 c 0,-2.4062 1.0364,-4.0416 3.1092,-4.9061 0.667,-0.261 1.401,-0.391 2.203,-0.391 2.927,0 4.891,1.9325 5.891,5.7971 0.333,1.3959 0.5,2.9636 0.5,4.70315 z"
                                   style="fill:#000000;fill-opacity:1;fill-rule:nonzero;stroke:none"
                                   id="path1962" /><g
                                   id="g1964"
                                   transform="translate(-547.2,144.4)"><path
                                   d="M 28.703,-68.297 20.906,-36.5 c 4.125,-5.135 9.058,-7.703 14.797,-7.703 5.927,0 9.594,2.302 11,6.906 v 0.094 c 0.333,1.135 0.5,2.37 0.5,3.703 0,3.729 -2.036,11.062 -6.109,22 -1.198,2.9375 -1.797,5.3021 -1.797,7.0938 0,2.2083 0.802,3.3124 2.406,3.3124 4.136,0 7.401,-3.6666 9.797,-11.0002 l 0.406,-1.406 c 0.334,-1.062 0.667,-1.63 1,-1.703 v -0.094 h 0.5 c 0.792,0 1.188,0.333 1.188,1 0,1.136 -0.698,3.235 -2.094,6.297 -2.865,6.0625 -6.531,9.0938 -11,9.0938 -3.396,0 -5.828,-1.43234 -7.297,-4.2969 -0.604,-1.1979 -0.906,-2.4948 -0.906,-3.8907 0,-1.2083 0.432,-3.0412 1.297,-5.5002 4.135,-10.541 6.203,-18.01 6.203,-22.406 0,-4.667 -1.797,-7 -5.391,-7 -3.208,0 -6.411,1.167 -9.609,3.5 -2.469,1.938 -4.636,4.802 -6.5,8.594 L 19,-29.297 c -0.271,1.594 -0.635,3.094 -1.094,4.5 -0.333,1.531 -0.901,3.766 -1.703,6.703 L 14,-9.0938 12.094,-1.5 C 11.635,-0.10417 10.604,0.72917 9,1 8.8021,1.0625 8.6042,1.0938 8.4062,1.0938 6.8021,1.0938 5.8646,0.39583 5.5938,-1 5.5312,-1.2708 5.5,-1.5052 5.5,-1.7031 5.5,-2.2344 5.6354,-2.9688 5.9062,-3.9062 L 20.406,-61.5 l 0.297,-2 c 0,-0.729 -0.469,-1.198 -1.406,-1.406 v 0 c -0.802,-0.198 -2,-0.297 -3.594,-0.297 -1.469,0 -2.271,-0.401 -2.406,-1.203 0,-1.125 0.635,-1.792 1.906,-2 l 12.203,-1 c 0.865,0 1.297,0.37 1.297,1.109 z"
                                   style="fill:#000000;fill-opacity:1;fill-rule:nonzero;stroke:none"
                                   id="path1966" /><g
                                   id="g1968"
                                   transform="translate(57.6)"><path
                                   d="m 33.094,24 v 0 c 0,0.667 -0.334,1 -1,1 -0.792,0 -2.558,-1.365 -5.297,-4.094 C 22.661,16.771 19.229,11.87 16.5,6.2031 12.104,-2.8698 9.9062,-13.271 9.9062,-25 c 0,-11.271 2.0988,-21.438 6.2968,-30.5 3.469,-7.396 7.87,-13.328 13.203,-17.797 1.396,-1.135 2.292,-1.703 2.688,-1.703 0.666,0 1,0.333 1,1 0,0.333 -0.433,0.901 -1.297,1.703 C 21.068,-61.37 15.703,-45.604 15.703,-25 c 0,20.5312 5.235,36.13 15.703,46.797 1.125,1.135 1.688,1.87 1.688,2.203 z"
                                   style="fill:#000000;fill-opacity:1;fill-rule:nonzero;stroke:none"
                                   id="path1970" /><g
                                   id="g1972"
                                   transform="translate(38.9)"><path
                                   d="M 33.406,-30.203 30,-16.5 c -1.135,4.531 -1.703,7.4635 -1.703,8.7969 0,3.4687 1.234,5.5677 3.703,6.2969 0.531,0.2083 1.13,0.3124 1.797,0.3124 3.333,0 6.37,-1.6666 9.109,-5 1.792,-2.1354 3.188,-4.8382 4.188,-8.1092 0.208,-0.729 0.646,-1.094 1.312,-1.094 0.792,0 1.188,0.333 1.188,1 0,1.667 -1.032,4.068 -3.094,7.2032 -3.604,5.4584 -7.906,8.1876 -12.906,8.1876 -4.532,0 -7.828,-1.89588 -9.891,-5.6876 -0.406,-0.6041 -0.708,-1.2395 -0.906,-1.9062 -1.594,3.1979 -3.792,5.4323 -6.594,6.70312 -1.271,0.59376 -2.573,0.89068 -3.906,0.89068 -4.0001,0 -6.797,-1.166717 -8.3908,-3.5 -0.6666,-0.8646 -1,-1.8959 -1,-3.0938 0,-2.4688 1.0626,-4.2031 3.1876,-5.203 0.7395,-0.396 1.5104,-0.594 2.3124,-0.594 1.9998,0 3.1978,0.833 3.5938,2.5001 0.062,0.3334 0.094,0.6667 0.094,1 0,2.2604 -1.13,3.9271 -3.3909,5 -0.4062,0.1979 -0.8385,0.3281 -1.2969,0.3907 1.3959,0.875 3.0628,1.3124 4.9998,1.3124 3.532,0 6.328,-2.3697 8.391,-7.1093 0.406,-1 0.776,-2.0989 1.109,-3.2969 3.594,-13.604 5.391,-21.536 5.391,-23.797 -0.396,-4.135 -2.193,-6.37 -5.391,-6.703 -3.468,0 -6.635,1.766 -9.5,5.297 v 0.109 c 0,0.063 -0.036,0.094 -0.109,0.094 -1,1.333 -1.901,2.865 -2.7032,4.594 -0.3334,0.802 -0.6303,1.604 -0.8907,2.406 L 8.5,-28.906 c -0.1354,0.739 -0.5677,1.109 -1.2969,1.109 -0.8021,0 -1.2031,-0.333 -1.2031,-1 0,-1.667 1.0677,-4.068 3.2031,-7.203 3.5939,-5.469 7.8909,-8.203 12.8909,-8.203 5.135,0 8.739,2.536 10.812,7.609 2.125,-4.135 4.959,-6.604 8.5,-7.406 0.667,-0.135 1.334,-0.203 2,-0.203 3.927,0 6.693,1.099 8.297,3.297 0.667,0.937 1,2.041 1,3.312 0,2.729 -1.234,4.563 -3.703,5.5 -0.604,0.198 -1.172,0.297 -1.703,0.297 -2.063,0 -3.297,-0.901 -3.703,-2.703 -0.063,-0.271 -0.094,-0.536 -0.094,-0.797 0,-2 0.969,-3.568 2.906,-4.703 0.594,-0.333 1.224,-0.568 1.891,-0.703 -1.396,-0.865 -3.063,-1.297 -5,-1.297 -4.531,0 -7.729,3.531 -9.594,10.594 -0.135,0.406 -0.234,0.807 -0.297,1.203 z"
                                   style="fill:#000000;fill-opacity:1;fill-rule:nonzero;stroke:none"
                                   id="path1974" /><g
                                   id="g1976"
                                   transform="translate(57.2)"><path
                                   d="m 28.906,-25 v 0 c 0,11.271 -2.104,21.4375 -6.312,30.5 C 19.135,12.896 14.74,18.828 9.4062,23.297 8,24.432 7.099,25 6.7031,25 c -0.6666,0 -1,-0.333 -1,-1 C 5.7031,23.667 6.1354,23.099 7,22.297 17.729,11.37 23.094,-4.3958 23.094,-25 c 0,-20.333 -5,-35.734 -15.0002,-46.203 l -0.5,-0.5 C 6.3333,-72.901 5.7031,-73.667 5.7031,-74 c 0,-0.667 0.3334,-1 1,-1 0.8021,0 2.5677,1.365 5.2969,4.094 4.135,4.135 7.568,9.036 10.297,14.703 4.406,9.073 6.609,19.474 6.609,31.203 z"
                                   style="fill:#000000;fill-opacity:1;fill-rule:nonzero;stroke:none"
                                   id="path1978" /><g
                                   id="g1980"
                                   transform="translate(38.9)"><path
                                   d="m 20.297,-0.09375 v 0 C 20.297,6.3646 18.198,12.031 14,16.906 c -1.135,1.334 -2.068,2.13 -2.797,2.391 -0.667,0 -1,-0.365 -1,-1.094 0,-0.333 0.365,-0.87 1.094,-1.609 4,-4 6.234,-8.8961 6.703,-14.6878 0.062,-0.6666 0.094,-1.33328 0.094,-1.99995 0,-1.00005 -0.063,-1.50005 -0.188,-1.50005 -0.073,0 -0.239,0.099 -0.5,0.2969 C 16.469,-0.43229 15.302,0 13.906,0 11.438,0 9.8021,-1.1354 9,-3.4062 8.7292,-4 8.5938,-4.6302 8.5938,-5.2969 c 0,-2.4062 1.0364,-4.0416 3.1092,-4.9061 0.667,-0.261 1.401,-0.391 2.203,-0.391 2.927,0 4.891,1.9325 5.891,5.7971 0.333,1.3959 0.5,2.9636 0.5,4.70315 z"
                                   style="fill:#000000;fill-opacity:1;fill-rule:nonzero;stroke:none"
                                   id="path1982" /><g
                                   id="g1984"
                                   transform="translate(111.2)"><path
                                   d="M 33.406,-30.203 30,-16.5 c -1.135,4.531 -1.703,7.4635 -1.703,8.7969 0,3.4687 1.234,5.5677 3.703,6.2969 0.531,0.2083 1.13,0.3124 1.797,0.3124 3.333,0 6.37,-1.6666 9.109,-5 1.792,-2.1354 3.188,-4.8382 4.188,-8.1092 0.208,-0.729 0.646,-1.094 1.312,-1.094 0.792,0 1.188,0.333 1.188,1 0,1.667 -1.032,4.068 -3.094,7.2032 -3.604,5.4584 -7.906,8.1876 -12.906,8.1876 -4.532,0 -7.828,-1.89588 -9.891,-5.6876 -0.406,-0.6041 -0.708,-1.2395 -0.906,-1.9062 -1.594,3.1979 -3.792,5.4323 -6.594,6.70312 -1.271,0.59376 -2.573,0.89068 -3.906,0.89068 -4.0001,0 -6.797,-1.166717 -8.3908,-3.5 -0.6666,-0.8646 -1,-1.8959 -1,-3.0938 0,-2.4688 1.0626,-4.2031 3.1876,-5.203 0.7395,-0.396 1.5104,-0.594 2.3124,-0.594 1.9998,0 3.1978,0.833 3.5938,2.5001 0.062,0.3334 0.094,0.6667 0.094,1 0,2.2604 -1.13,3.9271 -3.3909,5 -0.4062,0.1979 -0.8385,0.3281 -1.2969,0.3907 1.3959,0.875 3.0628,1.3124 4.9998,1.3124 3.532,0 6.328,-2.3697 8.391,-7.1093 0.406,-1 0.776,-2.0989 1.109,-3.2969 3.594,-13.604 5.391,-21.536 5.391,-23.797 -0.396,-4.135 -2.193,-6.37 -5.391,-6.703 -3.468,0 -6.635,1.766 -9.5,5.297 v 0.109 c 0,0.063 -0.036,0.094 -0.109,0.094 -1,1.333 -1.901,2.865 -2.7032,4.594 -0.3334,0.802 -0.6303,1.604 -0.8907,2.406 L 8.5,-28.906 c -0.1354,0.739 -0.5677,1.109 -1.2969,1.109 -0.8021,0 -1.2031,-0.333 -1.2031,-1 0,-1.667 1.0677,-4.068 3.2031,-7.203 3.5939,-5.469 7.8909,-8.203 12.8909,-8.203 5.135,0 8.739,2.536 10.812,7.609 2.125,-4.135 4.959,-6.604 8.5,-7.406 0.667,-0.135 1.334,-0.203 2,-0.203 3.927,0 6.693,1.099 8.297,3.297 0.667,0.937 1,2.041 1,3.312 0,2.729 -1.234,4.563 -3.703,5.5 -0.604,0.198 -1.172,0.297 -1.703,0.297 -2.063,0 -3.297,-0.901 -3.703,-2.703 -0.063,-0.271 -0.094,-0.536 -0.094,-0.797 0,-2 0.969,-3.568 2.906,-4.703 0.594,-0.333 1.224,-0.568 1.891,-0.703 -1.396,-0.865 -3.063,-1.297 -5,-1.297 -4.531,0 -7.729,3.531 -9.594,10.594 -0.135,0.406 -0.234,0.807 -0.297,1.203 z"
                                   style="fill:#000000;fill-opacity:1;fill-rule:nonzero;stroke:none"
                                   id="path1986" /><g
                                   id="g1988"
                                   transform="translate(84.9)"><path
                                   d="M 67.5,-22.797 12.094,3.2969 C 11.229,3.7656 10.63,4 10.297,4 9.2344,4 8.6042,3.5 8.4062,2.5 8.3333,2.3021 8.2969,2.1354 8.2969,2 c 0,-0.8021 0.6354,-1.53646 1.9061,-2.20312 L 62.703,-25 10.203,-49.797 C 8.9323,-50.464 8.2969,-51.198 8.2969,-52 c 0,-1.062 0.5,-1.698 1.5,-1.906 C 9.9948,-53.969 10.161,-54 10.297,-54 c 0.333,0 0.932,0.234 1.797,0.703 L 67.5,-27.203 c 1.271,0.604 1.906,1.338 1.906,2.203 0,0.865 -0.635,1.599 -1.906,2.203 z"
                                   style="fill:#000000;fill-opacity:1;fill-rule:nonzero;stroke:none"
                                   id="path1990" /><g
                                   id="g1992"
                                   transform="translate(105.6)"><path
                                   d="m 37.297,-37.797 c 0.333,-2.271 1.37,-3.672 3.109,-4.203 0.334,-0.135 0.698,-0.203 1.094,-0.203 1.729,0 2.698,0.901 2.906,2.703 0,0.396 -0.234,1.531 -0.703,3.406 l -3.609,14 c -1,4.198 -1.729,7.198 -2.188,9 -0.875,3.4586 -1.312,5.9221 -1.312,7.3909 0,3.0729 1,4.6093 3,4.6093 2.541,0 4.677,-2.6666 6.406,-8 0.333,-1.1352 0.734,-2.6042 1.203,-4.4062 0.531,-1.135 0.995,-1.734 1.391,-1.797 0.802,0 1.203,0.333 1.203,1 0,1 -0.599,3.333 -1.797,7.0001 -0.396,1.1354 -0.797,2.099 -1.203,2.8907 -1.865,3.66662 -4.328,5.5 -7.391,5.5 -3.739,0 -6.442,-1.59901 -8.109,-4.7969 -0.469,-0.8021 -0.802,-1.7031 -1,-2.7031 -4.198,5 -8.531,7.5 -13,7.5 -5,0 -8.698,-2.2657 -11.0939,-6.7969 C 4.7344,-8.3698 4,-11.438 4,-14.906 c 0,-7.198 2.5,-13.865 7.5,-20 4.667,-5.594 9.734,-8.656 15.203,-9.188 0.469,-0.073 0.932,-0.109 1.391,-0.109 4.073,0 7.14,2.135 9.203,6.406 z m -6.5,25.891 v 0 l 5,-19.594 c 0.198,-1 0.297,-1.568 0.297,-1.703 0,-1.396 -0.599,-3.094 -1.797,-5.094 -1.469,-2.469 -3.5,-3.703 -6.094,-3.703 -3.469,0 -6.771,2.266 -9.906,6.797 -0.594,0.864 -1.162,1.797 -1.703,2.797 -1.927,3.875 -3.558,9.375 -4.891,16.5 -0.406,2.271 -0.609,4.073 -0.609,5.406 0,4.5312 1.271,7.4635 3.812,8.7969 0.729,0.4062 1.594,0.6093 2.594,0.6093 3.729,0 7.495,-2.3697 11.297,-7.1093 0.937,-1.0625 1.573,-2.1619 1.906,-3.2969 v -0.094 c 0.063,-0.135 0.094,-0.239 0.094,-0.312 z"
                                   style="fill:#000000;fill-opacity:1;fill-rule:nonzero;stroke:none"
                                   id="path1994" /><g
                                   id="g1996"
                                   transform="translate(52.9)"><path
                                   d="M 18,-8.2969 V 0 H 9.7031 v -8.2969 z"
                                   style="fill:#000000;fill-opacity:1;fill-rule:nonzero;stroke:none"
                                   id="path1998" /><g
                                   id="g2000"
                                   transform="matrix(5.2632,0,0,5.2632,-1798.9,-368.51)" /></g></g></g></g></g></g></g></g></g></g></g></g></g></g></g></g></g></g></g></g></g></g></g></g></g></g></g></g></g></g></g></g></g></g></g></g></g></g></g></g></g></g></g></g></g></g></g><g
                   id="g2002"
                   transform="scale(0.56693)" /></g></g></g></g></g></g></g></svg>
