<?xml version="1.0" encoding="UTF-8" standalone="no"?>
<svg
   xmlns:dc="http://purl.org/dc/elements/1.1/"
   xmlns:cc="http://creativecommons.org/ns#"
   xmlns:rdf="http://www.w3.org/1999/02/22-rdf-syntax-ns#"
   xmlns:svg="http://www.w3.org/2000/svg"
   xmlns="http://www.w3.org/2000/svg"
   xmlns:sodipodi="http://sodipodi.sourceforge.net/DTD/sodipodi-0.dtd"
   xmlns:inkscape="http://www.inkscape.org/namespaces/inkscape"
   version="1.1"
   id="svg233"
   width="1241"
   height="1347"
   viewBox="0 0 1241 1347"
   sodipodi:docname="zhr.svg"
   inkscape:version="1.0.1 (3bc2e813f5, 2020-09-07)">
  <metadata
     id="metadata239">
    <rdf:RDF>
      <cc:Work
         rdf:about="">
        <dc:format>image/svg+xml</dc:format>
        <dc:type
           rdf:resource="http://purl.org/dc/dcmitype/StillImage" />
        <dc:title />
      </cc:Work>
    </rdf:RDF>
  </metadata>
  <defs
     id="defs237" />
  <sodipodi:namedview
     pagecolor="#ffffff"
     bordercolor="#666666"
     borderopacity="1"
     objecttolerance="10"
     gridtolerance="10"
     guidetolerance="10"
     inkscape:pageopacity="0"
     inkscape:pageshadow="2"
     inkscape:window-width="1920"
     inkscape:window-height="1007"
     id="namedview235"
     showgrid="false"
     inkscape:zoom="0.64"
     inkscape:cx="796.44585"
     inkscape:cy="593.88992"
     inkscape:window-x="0"
     inkscape:window-y="0"
     inkscape:window-maximized="1"
     inkscape:current-layer="g241"
     inkscape:document-rotation="0" />
  <g
     inkscape:groupmode="layer"
     inkscape:label="Image"
     id="g241">
    <path
       style="fill:#0066ff;stroke:#16d1fe;fill-opacity:1;stroke-opacity:1;stroke-width:3;stroke-miterlimit:4;stroke-dasharray:none"
       d="m 223.82388,239.24668 c 1.97815,15.93978 -22.14057,31.28076 -29.82317,47.4946 -19.07184,28.28113 -39.8107,55.49983 -56.17683,85.5054 -10.06439,-4.03959 -28.45591,62.5331 -42.817461,82.76893 -22.98959,59.56385 -32.465064,124.06515 -39.272039,186.23107 -6.385194,53.66989 6.965077,107.27176 10.640617,160.99178 11.156956,52.89745 21.248194,105.70747 51.258633,151.36709 46.86536,91.81615 108.4874,178.59075 195.19025,236.81115 52.18362,39.2724 100.57148,69.9444 164.34472,86.2248 62.06249,12.3546 124.47665,33.9758 188.39172,24.6842 92.11106,4.2211 181.66858,-25.9539 262.24089,-67.9324 35.9614,-27.2956 80.44699,-57.7067 117.66289,-91.8884 29.0073,-29.6023 82.1849,-74.7199 73.3598,-112.2582 -54.1481,31.5235 -121.84162,19.2728 -181.03977,12.135 C 880.5283,1034.497 831.20065,1001.0089 788.31114,964.08666 709.7202,900.03055 672.01742,799.00804 661.33886,700.88426 c -3.90831,-29.74761 4.49661,-55.50676 4.48502,-83.63758 7.44219,-41.06461 28.91631,-106.28219 59.6711,-149.29193 52.65352,-84.78997 140.60199,-150.16752 242.3289,-158.09807 57.24842,-9.65081 119.80842,-3.37433 171.00002,23.39 -5.6642,-32.85822 -40.461,-78.04815 -69.6504,-107.945 C 1021.2939,178.49867 968.80446,135.89251 909.66551,105.75238 820.79815,56.617075 716.23777,42.246071 616.02553,40.978863 557.47485,52.991373 496.53687,57.852263 439.82388,76.596982 363.29532,121.15414 284.93385,167.79393 229.10744,237.99749 Z"
       id="path245" />
    <path
       style="fill:#ffffff;stroke:none;opacity:1;fill-opacity:1"
       d="m 125.82388,413.24668 c 6.54158,22.70985 13.75748,45.73289 15.2906,68.93664 8.41984,20.7312 4.79214,45.14237 19.43929,64.05545 18.84663,36.07948 46.6121,70.61876 85.27011,95.83391 59.45064,38.4899 133.99721,17.00805 195.37098,46.15636 73.2018,25.81201 152.70269,78.56281 156.30482,164.12877 13.238,29.08837 11.18675,77.24309 0.58406,66.627 1.96987,23.86543 14.74294,-20.49091 2.52314,22.79475 -8.31543,22.05444 -22.82481,51.78452 -33.14662,56.29251 3.51705,23.19523 -1.98261,29.56233 14.36362,50.17463 -45.627,9.6725 -90.96676,6.8539 -131.3029,-6.9305 -48.69131,-10.7416 -126.17633,-34.5606 -86.08446,-96.83677 8.95191,-15.92265 0.26496,-33.5765 -7.46964,-51.31175 3.47311,55.45652 -7.83289,129.16372 -75.51667,142.22602 -58.06664,5.0761 -131.80302,-10.8516 -151.6492,-73.98019 -27.37114,-36.14941 -28.15271,-65.58349 20.17215,-36.17921 52.64192,26.70046 125.15069,13.75768 151.95595,-42.86851 16.81238,-39.10746 1.35997,-24.31391 -13.10523,-51.11911 11.99159,31.45861 -17.69113,7.83942 11.508,38.143 -12.64021,46.68273 -39.20333,15.01762 -44.1125,16.07325 7.87293,40.67819 -56.80772,-24.66529 -30.3799,-13.72405 -21.0452,-9.13565 13.91963,30.97809 -25.08015,1.64499 C 170.57986,845.66639 134.40698,818.18618 112.99605,767.62943 86.150113,699.26405 70.094313,626.21493 76.38488,558.24668 c 9.357551,-49.6159 20.789909,-102.83014 49.439,-145 z"
       id="path90" />
    <path
       style="fill:#0044aa;stroke:none"
       d="m 562.82388,1283.2467 c -24.72768,2.7858 -34.45952,-4.3439 0,0 z"
       id="path514" />
    <path
       style="fill:#0044aa;stroke:none"
       d="m 668.82388,1279.2467 c -5.4302,-0.1997 -11.13082,-5.273 0,0 z"
       id="path512" />
    <path
       style="fill:#0044aa;stroke:none"
       d="m 515.82388,1275.2467 c -4.43205,2.6364 -10.91577,0.165 0,0 z"
       id="path510" />
    <path
       style="fill:#0044aa;stroke:none"
       d="m 507.82388,1274.2467 c 1.23381,4.4458 -10.23195,-1.1798 0,0 z"
       id="path508" />
    <path
       style="fill:#0044aa;stroke:none"
       d="m 656.82388,1273.2467 c 3.27861,-1.3557 2.15449,6.205 0,0 z"
       id="path506" />
    <path
       style="fill:#0044aa;stroke:none"
       d="m 626.82388,1275.2467 c -8.27569,3.0943 -17.68539,-3.4622 0,0 z"
       id="path504" />
    <path
       style="fill:#0044aa;stroke:none"
       d="m 486.82388,1269.2467 c -1.25922,4.6888 -10.30283,-0.8304 0,0 z"
       id="path502" />
    <path
       style="fill:#0044aa;stroke:none"
       d="m 479.82388,1269.2467 c -4.21112,-2.8074 -3.52782,-2.3519 0,0 z"
       id="path500" />
    <path
       style="fill:#0044aa;stroke:none"
       d="m 718.82388,1261.2467 c 19.39591,1.7366 8.16482,11.6301 0,0 z"
       id="path498" />
    <path
       style="fill:#0044aa;stroke:none"
       d="m 583.82388,1258.2467 c -7.39053,3.1674 -10.27766,4.4047 0,0 z"
       id="path496" />
    <path
       style="fill:#0044aa;stroke:none"
       d="m 612.82388,1261.2467 c -11.33791,-1.6 -5.91532,-7.4587 0,0 z"
       id="path494" />
    <path
       style="fill:#0044aa;stroke:none"
       d="m 772.82388,1252.2467 c -5.90128,1.9607 -17.04147,-1.4963 0,0 z"
       id="path492" />
    <path
       style="fill:#0044aa;stroke:none"
       d="m 600.82388,1249.2467 c -5.51777,2.7589 -3.73918,1.8696 0,0 z"
       id="path490" />
    <path
       style="fill:#0044aa;stroke:none"
       d="m 619.82388,1247.2467 c -7.99312,-6.983 -3.16816,-11.3874 0,0 z"
       id="path488" />
    <path
       style="fill:#0044aa;stroke:none"
       d="m 699.82388,1226.2467 -1,1 z"
       id="path486" />
    <path
       style="fill:#0044aa;stroke:none"
       d="m 538.82388,1216.2467 c -4.74948,4.7495 -4.09832,4.0983 0,0 z"
       id="path484" />
    <path
       style="fill:#0044aa;stroke:none"
       d="m 622.82388,1215.2467 c -2.31191,11.2948 -9.72282,10.4017 0,0 z"
       id="path482" />
    <path
       style="fill:#0044aa;stroke:none"
       d="m 726.82388,1275.2467 c -33.57723,-8.9187 -35.45886,7.1458 -75.34964,-14.6137 -37.72519,-13.3393 -21.14821,-78.1946 11.21994,-30.0869 15.08584,23.2401 39.42031,35.0756 64.1297,44.7006 z"
       id="path480" />
    <path
       style="fill:#0044aa;stroke:none"
       d="m 419.82388,1225.2467 c 31.74948,2.1954 90.17108,-28.2736 106.72739,-4.1319 -25.63174,32.3103 -74.73525,16.2781 -106.72739,4.1319 z"
       id="path478" />
    <path
       style="fill:#0044aa;stroke:none"
       d="m 640.82388,1202.2467 c -4.21112,2.8074 -3.52782,2.3519 0,0 z"
       id="path476" />
    <path
       style="fill:#0044aa;stroke:none"
       d="m 626.82388,1198.2467 c 1.08379,3.3616 -8.14222,2.192 0,0 z"
       id="path474" />
    <path
       style="fill:#0044aa;stroke:none"
       d="m 520.82388,1255.2467 c 26.03357,-8.3022 77.05742,-95.7379 84.2725,-39.735 -9.75529,32.6031 -54.79377,41.3494 -84.2725,39.735 z"
       id="path472" />
    <path
       style="fill:#0044aa;stroke:none"
       d="m 636.82388,1186.2467 c -4.74948,4.7495 -4.09832,4.0983 0,0 z"
       id="path470" />
    <path
       style="fill:#0044aa;stroke:none"
       d="m 873.82388,1181.2467 c -10.16424,14.6728 -13.58138,7.7353 0,0 z"
       id="path468" />
    <path
       style="fill:#0044aa;stroke:none"
       d="m 845.82388,1224.2467 c -40.40433,31.5594 -113.55196,27.2581 -151.35938,-1.3594 -47.89961,-52.925 37.94014,-52.0326 63.54112,-18.6526 25.64544,16.6769 56.93186,30.7578 87.81826,20.012 z"
       id="path466" />
    <path
       style="fill:#0044aa;stroke:none"
       d="m 938.82388,1177.2467 c -1.23381,4.4458 10.23195,-1.1798 0,0 z"
       id="path464" />
    <path
       style="fill:#0044aa;stroke:none"
       d="m 919.82388,1175.5767 -0.333,0.34 z"
       id="path462" />
    <path
       style="fill:#0044aa;stroke:none"
       d="m 724.82388,1173.2467 c 7.08331,5.6666 6.18684,4.9495 0,0 z"
       id="path460" />
    <path
       style="fill:#0044aa;stroke:none"
       d="m 449.82388,1173.2467 c 1.02869,4.1429 -9.79191,-5.3623 0,0 z"
       id="path458" />
    <path
       style="fill:#0044aa;stroke:none"
       d="m 745.82388,1165.5767 0.333,0.34 z"
       id="path456" />
    <path
       style="fill:#0044aa;stroke:none"
       d="m 1000.1539,1162.9167 0.34,0.66 z"
       id="path454" />
    <path
       style="fill:#0044aa;stroke:none"
       d="m 858.82388,1161.2467 c 2.74755,3.6904 -6.63316,2.0809 0,0 z"
       id="path452" />
    <path
       style="fill:#0044aa;stroke:none"
       d="m 766.82388,1163.2467 c -7.23987,2.5578 -3.78903,-4.2377 0,0 z"
       id="path450" />
    <path
       style="fill:#0044aa;stroke:none"
       d="m 852.82388,1162.2467 c -8.0285,-2.0071 -12.91871,-3.2297 0,0 z"
       id="path448" />
    <path
       style="fill:#0044aa;stroke:none"
       d="m 1005.8239,1155.2467 c -4.5907,6.8861 -5.7126,8.5689 0,0 z"
       id="path446" />
    <path
       style="fill:#0044aa;stroke:none"
       d="m 871.82388,1169.2467 c -13.59078,49.0639 -142.40642,6.0822 -74.88922,-10.575 27.33293,-13.1634 46.86506,20.21 74.88922,10.575 z"
       id="path444" />
    <path
       style="fill:#0044aa;stroke:none"
       d="m 1007.8239,1151.2467 -1,3 z"
       id="path442" />
    <path
       style="fill:#0044aa;stroke:none"
       d="m 719.82388,1151.2467 c -2.46412,8.8155 -6.04168,-2.239 0,0 z"
       id="path440" />
    <path
       style="fill:#0044aa;stroke:none"
       d="m 426.82388,1179.2467 c -31.81877,35.0524 -99.70564,-10.6814 -135,-31 40.98868,25.1278 105.13378,5.9066 135,31 z"
       id="path438" />
    <path
       style="fill:#0044aa;stroke:none"
       d="m 394.82388,1146.5767 -0.333,0.34 z"
       id="path436" />
    <path
       style="fill:#0044aa;stroke:none"
       d="m 807.82388,1147.2467 c -20.57382,7.218 -33.55426,-6.2358 0,0 z"
       id="path434" />
    <path
       style="fill:#0044aa;stroke:none"
       d="m 1032.8239,1142.2467 c 1.0325,6.1424 -6.1424,-1.0325 0,0 z"
       id="path432" />
    <path
       style="fill:#0044aa;stroke:none"
       d="m 286.82388,1142.2467 c -2.07939,6.1395 -18.27929,-0.6757 0,0 z"
       id="path430" />
    <path
       style="fill:#0044aa;stroke:none"
       d="m 622.82388,1139.2467 c -2.08088,6.6332 -3.69036,-2.7475 0,0 z"
       id="path428" />
    <path
       style="fill:#0044aa;stroke:none"
       d="m 404.82388,1139.2467 c 25.59769,17.8523 96.15439,-3.095 93.84736,34.2675 -33.65756,2.523 -65.7931,-18.3784 -93.84736,-34.2675 z"
       id="path426" />
    <path
       style="fill:#0044aa;stroke:none"
       d="m 638.82388,1137.2467 c -4.77028,2.9482 4.77028,2.9482 0,0 z"
       id="path424" />
    <path
       style="fill:#0044aa;stroke:none"
       d="m 1040.8239,1135.2467 c -5.4304,7.4739 -6.2852,-0.5879 0,0 z"
       id="path422" />
    <path
       style="fill:#0044aa;stroke:none"
       d="m 499.82388,1133.2467 c 2.74755,3.6904 -6.63316,2.0809 0,0 z"
       id="path420" />
    <path
       style="fill:#0044aa;stroke:none"
       d="m 791.82388,1130.5767 0.333,0.34 z"
       id="path418" />
    <path
       style="fill:#0044aa;stroke:none"
       d="m 544.82388,1129.5667 c 42.36458,-6.6241 34.14799,58.3187 -4.59595,23.6075 -15.29874,-14.0669 -27.87311,-21.5556 4.59595,-23.6075 z"
       id="path416" />
    <path
       style="fill:#0044aa;stroke:none"
       d="m 342.82388,1127.2467 c 4.99716,5.5319 -7.02306,6.3758 0,0 z"
       id="path414" />
    <path
       style="fill:#0044aa;stroke:none"
       d="m 1019.8239,1123.2467 -1,1 z"
       id="path412" />
    <path
       style="fill:#0044aa;stroke:none"
       d="m 1052.8239,1122.2467 c -2.967,8.1255 -4.63,-0.7494 0,0 z"
       id="path410" />
    <path
       style="fill:#0044aa;stroke:none"
       d="m 542.82388,1122.2467 c -6.87668,4.0784 -11.71159,2.8296 0,0 z"
       id="path408" />
    <path
       style="fill:#0044aa;stroke:none"
       d="m 998.82388,1115.2467 1,1 z"
       id="path406" />
    <path
       style="fill:#0044aa;stroke:none"
       d="m 333.82388,1115.2467 c 4.77028,2.9482 -4.77028,2.9482 0,0 z"
       id="path404" />
    <path
       style="fill:#0044aa;stroke:none"
       d="m 625.82388,1152.2467 c -1.06199,-34.2533 86.66019,-50.4761 33.71583,-13.2553 -10.42683,6.205 -21.89292,10.5903 -33.71583,13.2553 z"
       id="path402" />
    <path
       style="fill:#0044aa;stroke:none"
       d="m 368.82388,1112.2467 c 1.03251,6.1424 -6.1424,-1.0325 0,0 z"
       id="path400" />
    <path
       style="fill:#0044aa;stroke:none"
       d="m 687.82388,1111.2467 c 2.74755,3.6904 -6.63316,2.0809 0,0 z"
       id="path398" />
    <path
       style="fill:#0044aa;stroke:none"
       d="m 1032.8239,1110.2467 c 1.2783,50.3481 -88.36983,109.3949 -109.86074,83.1825 18.47599,-27.3054 102.77824,-70.1268 93.67784,-61.8763 -14.9157,30.9207 6.3533,11.6768 10.8693,-10.8514 l 3.3136,-10.4548 z"
       id="path396" />
    <path
       style="fill:#0044aa;stroke:none"
       d="m 778.82388,1110.2467 -1,1 z"
       id="path394" />
    <path
       style="fill:#0044aa;stroke:none"
       d="m 764.82388,1127.2467 c -21.49145,46.9159 -113.70951,-15.8141 -41.286,-16.57 11.9629,9.8136 25.0227,18.1582 41.286,16.57 z"
       id="path392" />
    <path
       style="fill:#0044aa;stroke:none"
       d="m 433.82388,1108.2467 c 6.9248,5.7384 -7.45117,6.1421 0,0 z"
       id="path390" />
    <path
       style="fill:#0044aa;stroke:none"
       d="m 335.82388,1099.2467 c 1.77611,8.107 -6.98493,-0.7492 0,0 z"
       id="path388" />
    <path
       style="fill:#0044aa;stroke:none"
       d="m 434.82388,1098.2467 c 4.77028,2.9482 -4.77028,2.9482 0,0 z"
       id="path386" />
    <path
       style="fill:#0044aa;stroke:none"
       d="m 811.82388,1094.2467 c -3.96318,10.3043 50.49352,11.7139 34.25575,23.865 -25.7924,14.7531 -96.75044,-7.8648 -34.25575,-23.865 z"
       id="path384" />
    <path
       style="fill:#0044aa;stroke:none"
       d="m 1027.8239,1092.2467 c -17.544,42.8032 -89.20302,91.7321 -131.82257,66.8522 19.66022,-43.2008 98.07619,-32.4006 131.82257,-66.8522 z"
       id="path382" />
    <path
       style="fill:#0044aa;stroke:none"
       d="m 459.82388,1093.2467 c -7.97677,-3.9884 -8.154,-4.077 0,0 z"
       id="path380" />
    <path
       style="fill:#0044aa;stroke:none"
       d="m 722.82388,1089.2467 c 13.67621,5.1603 4.26755,9.9039 0,0 z"
       id="path378" />
    <path
       style="fill:#0044aa;stroke:none"
       d="m 1084.8239,1085.2467 c -2.0809,6.6332 -3.6904,-2.7475 0,0 z"
       id="path376" />
    <path
       style="fill:#0044aa;stroke:none"
       d="m 804.82388,1086.2467 c -7.516,5.2792 -15.26174,-1.4792 0,0 z"
       id="path374" />
    <path
       style="fill:#0044aa;stroke:none"
       d="m 548.82388,1085.2467 c 35.30321,0.6983 40.81631,63.9268 9.47963,15.9975 l -5.35083,-8.4141 z"
       id="path372" />
    <path
       style="fill:#0044aa;stroke:none"
       d="m 1087.8239,1082.2467 -1,1 z"
       id="path370" />
    <path
       style="fill:#0044aa;stroke:none"
       d="m 779.82388,1085.2467 c -8.9758,2.3008 -9.07662,-6.9907 0,0 z"
       id="path368" />
    <path
       style="fill:#0044aa;stroke:none"
       d="m 900.82388,1081.2467 c 7.96458,16.4053 -3.95116,24.0741 -2.86392,3.4367 l 2.13608,-2.5633 z"
       id="path366" />
    <path
       style="fill:#0044aa;stroke:none"
       d="m 321.82388,1079.2467 c 0.74923,6.9849 -8.10699,-1.7761 0,0 z"
       id="path364" />
    <path
       style="fill:#0044aa;stroke:none"
       d="m 1017.8239,1077.2467 c 4.4321,2.6364 10.9158,0.165 0,0 z"
       id="path362" />
    <path
       style="fill:#0044aa;stroke:none"
       d="m 654.82388,1076.2467 c 1.03251,6.1424 -6.1424,-1.0325 0,0 z"
       id="path360" />
    <path
       style="fill:#0044aa;stroke:none"
       d="m 545.82388,1075.5767 -0.333,0.34 z"
       id="path358" />
    <path
       style="fill:#0044aa;stroke:none"
       d="m 542.49088,1074.9167 -0.334,0.66 z"
       id="path356" />
    <path
       style="fill:#0044aa;stroke:none"
       d="m 421.82388,1070.2467 c 9.20638,1.6897 -3.70242,2.7914 0,0 z"
       id="path354" />
    <path
       style="fill:#0044aa;stroke:none"
       d="m 1049.8239,1067.2467 c -30.3352,27.5183 -136.00852,68.1066 -136.84814,7.2488 48.18243,13.5472 88.61834,-1.8907 136.84814,-7.2488 z"
       id="path352" />
    <path
       style="fill:#0044aa;stroke:none"
       d="m 326.82388,1066.2467 c 27.2098,8.0107 93.29481,16.1243 91.25083,45.5644 -31.28927,-3.8583 -65.26617,-26.8439 -91.25083,-45.5644 z"
       id="path350" />
    <path
       style="fill:#0044aa;stroke:none"
       d="m 906.82388,1064.2467 c -10.47383,7.3373 -16.30578,-2.8766 0,0 z"
       id="path348" />
    <path
       style="fill:#0044aa;stroke:none"
       d="m 554.82388,1063.2467 c -5.10773,-3.8308 -3.89617,-2.9221 0,0 z"
       id="path346" />
    <path
       style="fill:#0044aa;stroke:none"
       d="m 481.82388,1062.2467 c -7.23945,-2.7148 -13.46445,-5.0492 0,0 z"
       id="path344" />
    <path
       style="fill:#0044aa;stroke:none"
       d="m 1062.8239,1055.2467 c -26.7415,14.1052 -88.06603,4.6858 -29.0773,2.4642 9.6924,-0.8214 19.3849,-1.6428 29.0773,-2.4642 z"
       id="path342" />
    <path
       style="fill:#0044aa;stroke:none"
       d="m 677.82388,1051.2467 1,1 z"
       id="path340" />
    <path
       style="fill:#0044aa;stroke:none"
       d="m 955.82388,1051.2467 c -6.67286,2.5369 -11.96653,0.2477 0,0 z"
       id="path338" />
    <path
       style="fill:#0044aa;stroke:none"
       d="m 384.82388,1051.2467 c 24.98889,-12.3016 117.01794,11.1947 90.413,37.0313 -28.80754,-18.2865 -58.39569,-28.8116 -90.413,-37.0313 z"
       id="path336" />
    <path
       style="fill:#0044aa;stroke:none"
       d="m 783.82388,1045.2467 c 8.67632,4.4077 11.97985,15.403 0,0 z"
       id="path334" />
    <path
       style="fill:#0044aa;stroke:none"
       d="m 315.82388,1090.2467 c 33.3003,61.1332 -85.06062,19.4304 -92.35375,-17.8012 -25.09125,-31.7781 -16.11989,-29.6415 11.51441,-15.2394 27.82692,9.3289 55.73233,17.325 80.83934,33.0406 z"
       id="path332" />
    <path
       style="fill:#0044aa;stroke:none"
       d="m 419.82388,1043.2467 c -4.21112,-2.8074 -3.52782,-2.3519 0,0 z"
       id="path330" />
    <path
       style="fill:#0044aa;stroke:none"
       d="m 793.82388,1037.2467 c -4.77028,2.9482 4.77028,2.9482 0,0 z"
       id="path328" />
    <path
       style="fill:#003380;stroke:none"
       d="m 190.82388,1034.2467 -1,1 z"
       id="path326" />
    <path
       style="fill:#0044aa;stroke:none"
       d="m 873.82388,1030.2467 c -14.0332,4.4462 -20.11395,-9.7125 0,0 z"
       id="path324" />
    <path
       style="fill:#003380;stroke:none"
       d="m 207.49088,1023.5767 0.666,0.34 z"
       id="path322" />
    <path
       style="fill:#0044aa;stroke:none"
       d="m 423.82388,1022.2467 c 3.32083,7.1999 4.32421,-1.4785 0,0 z"
       id="path320" />
    <path
       style="fill:#0044aa;stroke:none"
       d="m 427.82388,1025.2467 c 14.4266,20.5974 40.49608,-7.9069 0,0 z"
       id="path318" />
    <path
       style="fill:#0044aa;stroke:none"
       d="m 577.82388,1019.2467 c 20.48411,29.5647 -1.54727,33.1547 0,0 z"
       id="path316" />
    <path
       style="fill:#003380;stroke:none"
       d="m 194.82388,1018.2467 c -1.08379,3.3616 8.14222,2.192 0,0 z"
       id="path314" />
    <path
       style="fill:#0044aa;stroke:none"
       d="m 730.82388,1014.2467 c 44.05637,1.2438 47.26611,105.3048 3.355,67 -2.2925,-23.3132 17.01688,-45.5753 -3.355,-67 z"
       id="path312" />
    <path
       style="fill:#0044aa;stroke:none"
       d="m 608.82388,1014.2467 c -14.72176,29.3656 62.74125,85.9159 9.71553,81.1944 -12.1852,-23.0114 -21.71842,-54.7422 -9.71553,-81.1944 z"
       id="path310" />
    <path
       style="fill:#0044aa;stroke:none"
       d="m 396.82388,1015.2467 c 9.75259,16.1862 22.37368,-14.7077 0,0 z"
       id="path308" />
    <path
       style="fill:#0044aa;stroke:none"
       d="m 388.42688,1009.2767 c -4.78032,14.736 14.53354,-1.6008 0,0 z"
       id="path306" />
    <path
       style="fill:#0044aa;stroke:none"
       d="m 378.01488,1006.2757 c -5.98776,13.4176 15.27271,-1.462 0,0 z"
       id="path304" />
    <path
       style="fill:#003380;stroke:none"
       d="m 345.82388,1003.2467 c -0.0199,8.0722 -5.43195,-1.7517 0,0 z"
       id="path302" />
    <path
       style="fill:#0044aa;stroke:none"
       d="m 399.82388,1002.2467 c 4.90454,6.0168 -9.1343,1.6551 0,0 z"
       id="path300" />
    <path
       style="fill:#0044aa;stroke:none"
       d="m 575.82388,999.2467 c 8.34286,30.9379 -8.48841,16.4266 0,0 z"
       id="path298" />
    <path
       style="fill:#0044aa;stroke:none"
       d="m 396.82388,995.24668 c -8.4819,30.77882 24.28384,4.19085 0,0 z"
       id="path296" />
    <path
       style="fill:#0044aa;stroke:none"
       d="m 364.82388,1001.2467 c 11.5804,1.1868 0.63292,-10.9086 0,0 z"
       id="path294" />
    <path
       style="fill:#0044aa;stroke:none"
       d="m 420.82388,1012.2467 c -8.34617,28.3408 21.98808,-24.21584 -7.88583,-15.43853 l 0.60321,5.54913 z"
       id="path292" />
    <path
       style="fill:#0044aa;stroke:none"
       d="m 360.82388,993.24668 c 12.81874,1.03573 -0.45731,-12.81027 0,0 z"
       id="path290" />
    <path
       style="fill:#003380;stroke:none"
       d="m 158.15688,986.91368 0.334,0.666 z"
       id="path288" />
    <path
       style="fill:#0044aa;stroke:none"
       d="m 894.82388,1042.2467 c -47.72625,33.9569 -136.20953,0.5954 -149,-61.00002 50.19802,17.36471 93.78842,58.30712 149,61.00002 z"
       id="path286" />
    <path
       style="fill:#0044aa;stroke:none"
       d="m 399.82388,980.24668 c -2.62783,26.16152 22.89768,15.04177 0,0 z"
       id="path284" />
    <path
       style="fill:#0044aa;stroke:none"
       d="m 559.82388,986.24668 c 15.42771,5.77456 1.48487,-15.32257 0,0 z"
       id="path282" />
    <path
       style="fill:#0044aa;stroke:none"
       d="m 383.96788,974.38368 c -9.30495,10.07551 14.14032,4.25789 0,0 z"
       id="path280" />
    <path
       style="fill:#0044aa;stroke:none"
       d="m 362.82388,973.24668 c 2.53694,23.90326 50.24677,35.22252 13.45913,10.82933 -2.96015,-10.45431 -3.66734,-10.31484 -13.45913,-10.82933 z"
       id="path278" />
    <path
       style="fill:#0044aa;stroke:none"
       d="m 562.99788,964.04768 c -10.39376,11.88105 13.4666,2.96221 0,0 z"
       id="path276" />
    <path
       style="fill:#0044aa;stroke:none"
       d="m 371.82388,968.24668 c 14.79394,3.38214 2.6169,-13.45074 0,0 z"
       id="path274" />
    <path
       style="fill:#0044aa;stroke:none"
       d="m 393.82388,979.24668 c 17.02112,-14.0686 -15.86247,-33.82854 0,0 z"
       id="path272" />
    <path
       style="fill:#0044aa;stroke:none"
       d="m 663.82388,955.24668 c -11.53079,40.73043 -2.84824,81.12912 36.473,99.00002 -16.87556,74.7869 -71.84824,-27.2598 -52.42446,-64.11964 2.25312,-12.35205 4.42339,-27.46422 15.95146,-34.88038 z"
       id="path270" />
    <path
       style="fill:#0044aa;stroke:none"
       d="m 573.82388,943.24668 c -13.04853,0.61954 0.36792,16.72022 0,0 z"
       id="path268" />
    <path
       style="fill:#003380;stroke:none"
       d="m 189.82388,942.24668 c 27.38097,17.2679 68.01161,-3.37537 18.32668,3.99 -6.48593,-0.56776 -13.85004,2.22475 -18.32668,-3.99 z"
       id="path266" />
    <path
       style="fill:#003380;stroke:none"
       d="m 186.15688,942.91368 0.334,0.666 z"
       id="path264" />
    <path
       style="fill:#0044aa;stroke:none"
       d="m 373.08388,942.30668 c -10.9,12.38231 14.01191,5.95872 0,0 z"
       id="path262" />
    <path
       style="fill:#003380;stroke:none"
       d="m 239.82388,944.24668 c 3.63462,4.67928 26.33876,-8.78728 0,0 z"
       id="path260" />
    <path
       style="fill:#003380;stroke:none"
       d="m 178.82388,939.24668 c 7.97677,3.98839 8.154,4.077 0,0 z"
       id="path258" />
    <path
       style="fill:#0044aa;stroke:none"
       d="m 386.82388,938.24668 c -13.83704,12.81736 12.30177,22.51929 0,0 z"
       id="path256" />
    <path
       style="fill:#003380;stroke:none"
       d="m 174.82388,938.24668 2,2 z"
       id="path254" />
    <path
       style="fill:#003380;stroke:none"
       d="m 258.82388,936.24668 c -10.55083,6.36245 -1.85447,7.58343 0,0 z"
       id="path252" />
    <path
       style="fill:#0044aa;stroke:none"
       d="m 571.82388,986.24668 c 14.98648,-16.72591 31.25847,-73.34981 4.92788,-28.33087 -2.75183,9.22189 -3.70954,18.82586 -4.92788,28.33087 z"
       id="path250" />
    <path
       style="fill:#003380;stroke:none"
       d="m 166.82388,935.24668 c 6.95574,6.1961 6.66274,3.39152 0,0 z"
       id="path248" />
    <path
       style="fill:#003380;stroke:none"
       d="m 260.82388,936.24668 c 6.14315,-1.79797 8.80515,-9.58908 0,0 z"
       id="path246" />
    <path
       style="fill:#003380;stroke:none"
       d="m 273.82388,925.24668 1,1 z"
       id="path244" />
    <path
       style="fill:#0044aa;stroke:none"
       d="m 574.58188,924.27468 c -3.18232,14.07612 15.74386,-2.53449 0,0 z"
       id="path242" />
    <path
       style="fill:#0044aa;stroke:none"
       d="m 538.82388,928.24668 c -13.19253,2.12658 -7.3441,-13.0582 0,0 z"
       id="path240" />
    <path
       style="fill:#003380;stroke:none"
       d="m 256.82388,919.24668 c -4.15926,3.40385 -8.32921,1.51321 0,0 z"
       id="path238" />
    <path
       style="fill:#003380;stroke:none"
       d="m 237.82388,918.24668 -1,1 z"
       id="path236" />
    <path
       style="fill:#003380;stroke:none"
       d="m 287.82388,914.24668 c 4.30871,-4.30871 2.75814,-2.75814 0,0 z"
       id="path234" />
    <path
       style="fill:#003380;stroke:none"
       d="m 230.82388,906.57968 0.333,0.334 z"
       id="path232" />
    <path
       style="fill:#0044aa;stroke:none"
       d="m 377.82388,905.24668 c -12.34256,32.66217 16.98886,49.94223 0,0 z"
       id="path230" />
    <path
       style="fill:#003380;stroke:none"
       d="m 191.82388,901.24668 c -0.13779,2.53168 -12.12112,0.4016 0,0 z"
       id="path228" />
    <path
       style="fill:#003380;stroke:none"
       d="m 297.82388,900.24668 c -4.77028,2.94819 4.77028,2.94819 0,0 z"
       id="path226" />
    <path
       style="fill:#003380;stroke:none"
       d="m 300.49088,898.57968 0.666,0.334 z"
       id="path224" />
    <path
       style="fill:#003380;stroke:none"
       d="m 278.82388,900.24668 c -16.57351,16.20625 -28.44434,-12.26302 0,0 z"
       id="path222" />
    <path
       style="fill:#0044aa;stroke:none"
       d="m 592.82388,894.24668 c -2.74186,17.47666 13.16769,11.51304 0,0 z"
       id="path220" />
    <path
       style="fill:#0044aa;stroke:none"
       d="m 666.82388,912.24668 c -45.13689,17.63319 -54.35663,-43.30504 -7.5102,-8.05322 z"
       id="path218" />
    <path
       style="fill:#0044aa;stroke:none"
       d="m 514.82388,902.24668 c -28.56469,9.81715 25.50811,93.56366 45.66863,30.25425 8.46186,-23.73257 -31.82048,-58.70724 -45.66863,-30.25425 z"
       id="path216" />
    <path
       style="fill:#003380;stroke:none"
       d="m 308.82388,883.24668 1,1 z"
       id="path214" />
    <path
       style="fill:#003380;stroke:none"
       d="m 243.82388,875.24668 c -14.01116,-14.63679 5.39404,40.22137 5.09363,4.93175 z"
       id="path212" />
    <path
       style="fill:#0044aa;stroke:none"
       d="m 582.82388,882.24668 c 2.5516,20.69012 18.30198,-1.97387 -0.82865,-11.50348 l -0.12235,5.92348 z"
       id="path210" />
    <path
       style="fill:#003380;stroke:none"
       d="m 260.13788,868.38368 c -7.9736,13.84369 15.18886,0.82935 0,0 z"
       id="path208" />
    <path
       style="fill:#003380;stroke:none"
       d="m 285.82388,862.24668 c -30.20619,14.36751 -3.12844,31.32326 10,5 -12.15054,10.73575 -3.12951,-3.04632 -10,-5 z"
       id="path206" />
    <path
       style="fill:#003380;stroke:none"
       d="m 200.82388,859.24668 c -3.24789,16.11378 18.59626,3.62852 0,0 z"
       id="path204" />
    <path
       style="fill:#003380;stroke:none"
       d="m 206.82388,856.24668 c 0.99942,-15.34207 -16.84782,0.51677 0,0 z"
       id="path202" />
    <path
       style="fill:#003380;stroke:none"
       d="m 184.82388,848.24668 c -2.40775,19.12239 19.37638,15.01118 0,0 z"
       id="path200" />
    <path
       style="fill:#0044aa;stroke:none"
       d="m 670.82388,847.24668 c 5.9527,16.29841 4.92976,19.99305 0,0 z"
       id="path198" />
    <path
       style="fill:#003380;stroke:none"
       d="m 178.82388,840.24668 c 4.21112,-2.80741 3.52782,-2.35188 0,0 z"
       id="path196" />
    <path
       style="fill:#003380;stroke:none"
       d="m 269.82388,832.24668 c 2.60534,10.68972 -15.74175,22.44476 -40.23112,12.50875 19.98084,22.36622 -41.90736,7.12178 2.6935,20.80525 11.17957,-27.01097 19.91294,27.19912 28.15787,-7.93812 23.02432,14.10656 8.55868,-13.14252 16.37975,-21.37588 10.67999,-2.89807 -4.48162,-11.68955 -7,-4 z"
       id="path194" />
    <path
       style="fill:#0044aa;stroke:none"
       d="m 259.56288,824.29368 c -5.5988,16.21647 15.88538,-0.47837 0,0 z"
       id="path192" />
    <path
       style="fill:#0044aa;stroke:none"
       d="m 212.82388,834.24668 c 22.90937,-4.94626 4.59586,-21.81513 0,0 z"
       id="path190" />
    <path
       style="fill:#0044aa;stroke:none"
       d="m 240.82388,832.24668 c -3.8901,50.1059 30.2855,-48.04652 0,0 z"
       id="path188" />
    <path
       style="fill:#0044aa;stroke:none"
       d="m 184.82388,826.24668 c 1.36133,24.39893 11.07691,16.176 40.98327,17.40361 -5.81296,-4.01352 -24.14498,-20.74464 -23.49768,-15.95596 -12.95453,11.68774 -16.15407,-23.14437 -17.48559,-1.44765 z"
       id="path186" />
    <path
       style="fill:#0044aa;stroke:none"
       d="m 171.82388,816.24668 c -21.07015,20.68956 15.17462,31.67837 0,0 z"
       id="path184" />
    <path
       style="fill:#0044aa;stroke:none"
       d="m 673.82388,881.24668 c -9.82702,-16.04666 -49.81743,-86.13664 -13.6625,-53.76237 0.46382,18.80421 7.74636,36.23057 13.6625,53.76237 z"
       id="path182" />
    <path
       style="fill:#0044aa;stroke:none"
       d="m 147.91388,807.50268 c -8.88214,7.49072 10.33744,4.7204 0,0 z"
       id="path180" />
    <path
       style="fill:#0044aa;stroke:none"
       d="m 159.43788,803.33268 c -7.98423,17.76835 17.00912,2.54595 0,0 z"
       id="path178" />
    <path
       style="fill:#0044aa;stroke:none"
       d="m 138.82388,795.24668 c -5.02592,13.62464 14.30553,3.86527 0,0 z"
       id="path176" />
    <path
       style="fill:#0044aa;stroke:none"
       d="m 590.82388,794.24668 c 4.30904,6.45493 -0.0574,4.75372 0,0 z"
       id="path174" />
    <path
       style="fill:#0044aa;stroke:none"
       d="m 150.82388,784.24668 c -12.52083,2.5961 5.82693,13.62056 0,0 z"
       id="path172" />
    <path
       style="fill:#0044aa;stroke:none"
       d="m 634.82388,776.24668 c 3.16737,7.39053 4.40471,10.27766 0,0 z"
       id="path170" />
    <path
       style="fill:#0044aa;stroke:none"
       d="m 138.82388,785.24668 c 0.21336,-19.78009 -23.02648,0.0967 0,0 z"
       id="path168" />
    <path
       style="fill:#0044aa;stroke:none"
       d="m 149.82388,774.24668 c 5.79003,21.53925 9.35313,0.93583 0,0 z"
       id="path166" />
    <path
       style="fill:#0044aa;stroke:none"
       d="m 658.82388,771.24668 -1,1 z"
       id="path164" />
    <path
       style="fill:#0044aa;stroke:none"
       d="m 122.82388,758.24668 c -3.21874,13.83218 12.21462,3.08491 0,0 z"
       id="path162" />
    <path
       style="fill:#0044aa;stroke:none"
       d="m 571.82388,757.24668 c 15.70416,15.10146 -14.86673,-2.13703 0,0 z"
       id="path160" />
    <path
       style="fill:#0044aa;stroke:none"
       d="m 660.82388,750.24668 c 5.2295,13.80731 -0.25451,17.98835 0,0 z"
       id="path158" />
    <path
       style="fill:#0044aa;stroke:none"
       d="m 621.82388,751.24668 c -7.08331,-5.66665 -6.18684,-4.94947 0,0 z"
       id="path156" />
    <path
       style="fill:#0044aa;stroke:none"
       d="m 585.82388,745.24668 c 25.1132,-1.42064 39.4764,21.46812 45.225,43 49.11555,38.53367 -53.13068,12.70754 -50.16662,-26.22825 -2.96276,-5.47517 -1.76073,-14.66684 4.94162,-16.77175 z"
       id="path154" />
    <path
       style="fill:#0044aa;stroke:none"
       d="m 114.82388,739.24668 c -2.27737,13.77577 12.64869,-1.77844 0,0 z"
       id="path152" />
    <path
       style="fill:#0044aa;stroke:none"
       d="m 104.15688,718.91368 0.334,0.666 z"
       id="path150" />
    <path
       style="fill:#0044aa;stroke:none"
       d="m 653.82388,703.24668 c 7.25089,24.28951 -11.13799,-1.73867 0,0 z"
       id="path148" />
    <path
       style="fill:#0044aa;stroke:none"
       d="m 622.82388,713.24668 c -10.06816,-10.0182 -6.8136,-16.05535 0,0 z"
       id="path146" />
    <path
       style="fill:#0044aa;stroke:none"
       d="m 99.82388,702.24668 1,1 z"
       id="path144" />
    <path
       style="fill:#0044aa;stroke:none"
       d="m 651.82388,740.24668 c -25.91002,-16.63866 -28.88327,-66.1694 -3.34951,-19.2564 l 1.85048,6.47026 z"
       id="path142" />
    <path
       style="fill:#0044aa;stroke:none"
       d="m 652.82388,695.24668 1,2 z"
       id="path140" />
    <path
       style="fill:#0044aa;stroke:none"
       d="m 575.82388,681.24668 c 3.16737,7.39053 4.40471,10.27766 0,0 z"
       id="path138" />
    <path
       style="fill:#0044aa;stroke:none"
       d="m 90.82388,665.24668 c 2.807414,4.21112 2.35188,3.52782 0,0 z"
       id="path136" />
    <path
       style="fill:#0044aa;stroke:none"
       d="m 623.82388,661.24668 c 19.24005,10.15586 6.43624,15.73499 0,0 z"
       id="path134" />
    <path
       style="fill:#0044aa;stroke:none"
       d="m 651.82388,659.24668 c 4.09508,11.75109 -3.95499,21.22079 0,0 z"
       id="path132" />
    <path
       style="fill:#0044aa;stroke:none"
       d="m 605.82388,647.24668 c 2.80741,4.21112 2.35188,3.52782 0,0 z"
       id="path130" />
    <path
       style="fill:#0044aa;stroke:none"
       d="m 522.82388,631.24668 c 40.83536,3.78306 50.77156,69.4346 66.83983,81.53227 -39.99769,-3.36158 -66.8867,-44.64 -66.83983,-81.53227 z"
       id="path128" />
    <path
       style="fill:#0044aa;stroke:none"
       d="m 667.15688,621.91368 0.334,0.666 z"
       id="path126" />
    <path
       style="fill:#0044aa;stroke:none"
       d="m 170.82388,566.24668 c -7.68571,3.97295 12.05978,22.03998 0,0 z"
       id="path124" />
    <path
       style="fill:#0044aa;stroke:none"
       d="m 163.82388,543.24668 c 6.49752,7.60998 1.86415,18.28614 0,0 z"
       id="path122" />
    <path
       style="fill:#0044aa;stroke:none"
       d="m 560.82388,539.24668 c 1.48059,8.37836 4.42508,-2.48102 0,0 z"
       id="path120" />
    <path
       style="fill:#0044aa;stroke:none"
       d="m 558.82388,535.24668 c 1.48059,8.37836 4.42508,-2.48102 0,0 z"
       id="path118" />
    <path
       style="fill:#0044aa;stroke:none"
       d="m 154.82388,520.24668 c -1.48059,8.37836 -4.42508,-2.48102 0,0 z"
       id="path116" />
    <path
       style="fill:#0044aa;stroke:none"
       d="m 438.82388,494.24668 c -56.37001,59.68017 -145.6809,73.43924 -224.40042,64.80111 -34.3108,8.83977 -44.12998,-19.73372 -52.286,-45.34757 -24.08926,-48.76325 47.67573,25.83345 70.68642,17.94146 57.08022,14.46256 116.60147,-3.15745 170.94809,-19.91292 11.8365,-5.52536 23.15928,-12.07129 35.05191,-17.48208 z"
       id="path114" />
    <path
       style="fill:#0044aa;stroke:none"
       d="m 551.82388,485.24668 c 0.40636,35.49316 9.53101,73.73185 0,0 z"
       id="path112" />
    <path
       style="fill:#0044aa;stroke:none"
       d="m 474.82388,469.24668 c -22.79053,67.75266 -84.11673,124.04383 -158.07952,126.53507 -44.84394,3.31865 -115.55805,30.31598 -132.92048,-30.53507 101.0114,16.30433 222.05145,-1.18293 284.46234,-91.22452 z"
       id="path110" />
    <path
       style="fill:#0044aa;stroke:none"
       d="m 513.82388,467.24668 -1,1 z"
       id="path108" />
    <path
       style="fill:#0044aa;stroke:none"
       d="m 717.82388,463.24668 c -26.58674,30.8701 -58.75761,138.96951 -55.96675,124.65 11.31666,-35.22425 3.49347,-132.5397 55.96675,-124.65 z"
       id="path106" />
    <path
       style="fill:#0044aa;stroke:none"
       d="m 494.82388,451.24668 c -9.12883,81.94403 -64.65613,160.71149 -147.26159,181.2147 -33.95204,30.13913 -116.93902,5.81499 -117.45741,-21.2414 75.22571,-2.15245 164.64174,-5.42533 213.51744,-72.19604 24.11454,-24.88339 35.47984,-58.13418 51.20156,-87.77726 z"
       id="path104" />
    <path
       style="fill:#0044aa;stroke:none"
       d="m 657.82388,449.24668 c -15.84125,21.94081 -14.68895,105.4875 -8.84056,35.26545 1.53134,-12.06044 11.49176,-22.71699 8.84056,-35.26545 z"
       id="path102" />
    <path
       style="fill:#0044aa;stroke:none"
       d="m 600.82388,445.24668 c -20.71675,19.60093 9.74398,112.09637 -1.18581,51.63695 -4.98223,-17.67112 -2.46535,-33.98482 1.18581,-51.63695 z"
       id="path100" />
    <path
       style="fill:#0044aa;stroke:none"
       d="m 517.82388,443.24668 c -30.42948,47.64421 13.95497,110.87915 -25.74012,159.10703 -44.60885,43.70696 -117.57825,65.62677 -179.25988,51.89297 59.51779,-20.2332 128.38516,-45.24644 157.5512,-107.74605 31.33922,-22.90597 14.83725,-101.42001 47.4488,-103.25395 z"
       id="path98" />
    <path
       style="fill:#0044aa;stroke:none"
       d="m 556.82388,435.24668 c -11.49129,37.08549 -1.05683,21.68639 0,0 z"
       id="path96" />
    <path
       style="fill:#0044aa;stroke:none"
       d="m 474.82388,445.24668 c -38.37609,47.22897 -104.19837,64.47883 -162.49944,69.9717 -50.66094,2.98412 -102.51059,-5.37939 -143.67456,-36.8757 -34.64972,-13.8943 -40.28228,-79.55439 4.10677,-37.62406 45.58571,22.8636 97.28383,27.76252 146.06723,40.51806 51.24622,-1.61686 108.04707,3.16621 149.57166,-33.12573 z"
       id="path94" />
    <path
       style="fill:#0044aa;stroke:none"
       d="m 592.82388,415.24668 c -36.24227,80.93593 4.30988,167.16941 43.51544,238.36835 -1.9378,7.06936 -44.4608,-56.64119 -54.60106,-81.17935 -28.10443,-40.61101 -13.99399,-123.65276 -12.73038,-143.438 -30.43685,48.8206 -5.95569,110.10369 11.086,158.249 12.47843,29.26176 70.5521,84.89198 11.77088,43.33475 -45.44372,-34.66809 -80.87103,-86.8214 -77.29075,-146.38912 -7.51467,-58.6549 37.06496,-48.07984 78.24987,-68.94563 z"
       id="path92" />
    <path
       style="fill:#0044aa;stroke:none"
       d="m 136.82388,403.24668 c -1.46954,5.87818 -0.91206,3.64824 0,0 z"
       id="path88" />
    <path
       style="fill:#0044aa;stroke:none"
       d="m 473.82388,398.24668 c -2.08088,6.63316 -3.69036,-2.74755 0,0 z"
       id="path86" />
    <path
       style="fill:#0044aa;stroke:none"
       d="m 633.82388,393.24668 c 11.19656,35.13087 63.77343,33.70799 47.23817,85.32425 -13.21561,33.40419 -25.91229,69.88341 -27.23817,104.67575 -24.41904,-41.81031 48.85035,-142.27079 -2.76162,-148.241 35.05217,48.09626 -35.65686,115.68736 0.39842,172.51042 -3.88603,41.69599 -16.56723,-50.23075 -16.22503,-70.28839 -0.84603,-34.16712 9.07483,-115.1162 -8.44777,-122.98003 4.26274,55.76825 -1.59665,115.89793 5.036,170.999 -24.09146,-55.62425 -26.32431,-122.79171 -11.152,-178.338 -27.75051,30.324 -15.65777,81.94608 -13.333,126.338 4.87384,36.93164 42.76432,96.14764 34.52625,115.12813 -29.68205,-61.70424 -68.83145,-126.69168 -52.78123,-198.34432 4.8983,-29.01748 12.10578,-50.06803 44.73998,-56.78381 z"
       id="path84" />
    <path
       style="fill:#0044aa;stroke:none"
       d="m 121.82388,393.24668 1,1 z"
       id="path82" />
    <path
       style="fill:#0044aa;stroke:none"
       d="m 123.82388,388.24668 c -1.03251,6.1424 6.1424,-1.03251 0,0 z"
       id="path80" />
    <path
       style="fill:#0044aa;stroke:none"
       d="m 674.82388,369.24668 c 12.72979,22.99716 32.7251,26.67466 38.27463,58.439 59.03158,24.14449 -52.221,49.41882 -32.84888,-7.94487 -21.24456,-5.66464 -73.06506,-23.18824 -5.42575,-50.49413 z"
       id="path78" />
    <path
       style="fill:#0044aa;stroke:none"
       d="m 154.82388,362.24668 c 44.43181,38.40877 103.0504,60.46282 159.33872,77.12685 35.1399,16.54334 122.16907,4.95105 125.96884,14.37442 -38.39202,15.15798 -80.01807,23.36557 -123.55533,16.66244 -59.42575,-13.87485 -122.68124,-21.62254 -174.99925,-54.92726 -27.39718,-4.77545 1.12726,-26.85035 7.74054,-44.10152 1.83549,-3.04498 3.67099,-6.08995 5.50648,-9.13493 z"
       id="path76" />
    <path
       style="fill:#0044aa;stroke:none"
       d="m 736.82388,371.24668 c -2.05604,25.96138 33.04705,60.58958 -5.32234,61.30211 -31.60071,-16.66392 -7.68939,-59.30437 -49.09958,-62.70158 11.52022,-30.79371 38.54418,-29.29442 54.42192,1.39947 z"
       id="path74" />
    <path
       style="fill:#0044aa;stroke:none"
       d="m 381.82388,321.24668 c 19.85058,6.82286 34.97818,-3.28798 0,0 z"
       id="path72" />
    <path
       style="fill:#0044aa;stroke:none"
       d="m 727.82388,315.24668 1,1 z"
       id="path70" />
    <path
       style="fill:#0044aa;stroke:none"
       d="m 184.82388,313.24668 c 46.46676,63.87833 127.01103,89.94914 193,126 -65.41154,0.61487 -129.87109,-27.43292 -185.25412,-60.67972 -49.51239,-14.60831 -34.86877,-32.27401 -7.74588,-65.32028 z"
       id="path68" />
    <path
       style="fill:#0044aa;stroke:none"
       d="m 635.82388,310.24668 1,1 z"
       id="path66" />
    <path
       style="fill:#0044aa;stroke:none"
       d="m 457.82388,305.24668 c -20.80172,6.52166 -71.87202,24.17769 -18.74703,10.80475 4.83104,-4.04718 18.61517,-1.91826 18.74703,-10.80475 z"
       id="path64" />
    <path
       style="fill:#0044aa;stroke:none"
       d="m 462.82388,302.24668 c -1.03251,6.1424 6.1424,-1.03251 0,0 z"
       id="path62" />
    <path
       style="fill:#0044aa;stroke:none"
       d="m 887.82388,291.24668 1,1 z"
       id="path60" />
    <path
       style="fill:#0044aa;stroke:none"
       d="m 879.82388,288.24668 c -0.74923,6.98493 8.10699,-1.77611 0,0 z"
       id="path58" />
    <path
       style="fill:#0044aa;stroke:none"
       d="m 890.82388,319.24668 c -53.15543,10.74377 -98.41808,67.67608 -137.20044,83.73583 -15.6527,-20.71327 4.14792,-41.92727 -26.54556,-50.18845 6.65154,-44.05047 89.38034,-78.46121 135.81605,-55.7179 10.69654,4.03913 25.43257,9.26945 27.92995,22.17052 z"
       id="path56" />
    <path
       style="fill:#0044aa;stroke:none"
       d="m 495.82388,280.24668 c -8.60252,6.88766 5.46736,1.5719 0,0 z"
       id="path54" />
    <path
       style="fill:#0044aa;stroke:none"
       d="m 303.82388,276.24668 c 0.86824,27.03622 103.91279,56.25552 55.86414,38.11632 -22.28528,-5.06871 -37.16663,-26.01812 -55.86414,-38.11632 z"
       id="path52" />
    <path
       style="fill:#0044aa;stroke:none"
       d="m 502.82388,274.24668 c -1.03251,6.1424 6.1424,-1.03251 0,0 z"
       id="path50" />
    <path
       style="fill:#0044aa;stroke:none"
       d="m 511.82388,268.24668 1,1 z"
       id="path48" />
    <path
       style="fill:#0044aa;stroke:none"
       d="m 878.82388,294.24668 c -67.18976,-43.90147 -129.40439,24.92909 -184,50 35.50264,-44.29249 94.11535,-62.17454 150.6464,-76.99578 28.16248,-17.08082 74.47592,31.08166 49.4676,37.81178 -2.88155,-2.41066 -8.80907,-17.76334 -16.114,-10.816 z"
       id="path46" />
    <path
       style="fill:#0044aa;stroke:none"
       d="m 226.82388,259.24668 c 17.98417,62.07559 72.59304,104.86491 118.49983,147.11633 40.01913,23.97471 16.66007,17.84672 -7.60157,4.02794 -53.32641,-28.26394 -108.27098,-56.35517 -149.89826,-101.14427 12.97521,-15.95658 23.55072,-38.47352 39,-50 z"
       id="path44" />
    <path
       style="fill:#0044aa;stroke:none"
       d="m 506.82388,215.24668 c -4.21112,2.80741 -3.52782,2.35188 0,0 z"
       id="path42" />
    <path
       style="fill:#0044aa;stroke:none"
       d="m 540.82388,211.24668 c -2.27614,5.49509 5.49509,-2.27614 0,0 z"
       id="path40" />
    <path
       style="fill:#0044aa;stroke:none"
       d="m 868.82388,225.24668 c -55.74243,2.25653 -114.00655,11.86982 -162,44.73 -56.00914,20.42812 -96.88559,64.6164 -129.54325,112.76038 -20.09983,34.50858 -100.05631,41.48872 -89.75698,46.64615 52.88812,10.51522 101.77523,-40.24014 132.27775,-86.12425 44.87743,-49.05031 108.93737,-77.03348 169.86729,-100.60272 27.69716,-12.52046 104.53887,-5.12808 96.67707,15.78282 -50.90963,-5.90842 -98.07548,18.15759 -144.37088,37.75575 -43.40252,16.32978 -80.88296,88.10662 -104.73449,81.20196 -12.8949,20.51246 -37.34309,15.16787 -49.30807,32.69418 -8.24039,-1.91374 13.7346,-12.62947 -11.46711,3.69665 -21.16713,11.4423 -46.60206,17.96967 -70.60533,20.73408 -19.59576,-4.9467 -40.5603,1.82568 -60.04205,-7.02004 -20.32452,-3.64646 -62.27684,-13.69609 -13.56628,-12.84008 54.25817,3.88796 93.77505,-38.90917 123.61133,-78.24488 44.79387,-39.18747 89.53308,-79.47289 138.961,-112.556 52.9375,-19.89983 116.4493,-23.63095 169.76458,-3.71595 z"
       id="path38" />
    <path
       style="fill:#0044aa;stroke:none"
       d="m 277.82388,203.24668 c -7.22332,75.45363 39.98794,142.61797 84.325,198.576 15.22687,23.6063 117.79651,43.80281 45.675,26.919 -68.27831,-23.00132 -116.00645,-82.47985 -159.24337,-137.20573 -33.22086,-34.8113 -3.67828,-68.81206 29.24337,-88.28927 z"
       id="path36" />
    <path
       style="fill:#0044aa;stroke:none"
       d="m 529.82388,202.24668 c -1.78815,3.57215 -8.02454,4.16027 0,0 z"
       id="path34" />
    <path
       style="fill:#0044aa;stroke:none"
       d="m 868.82388,184.24668 c 2.80741,4.21112 2.35188,3.52782 0,0 z"
       id="path32" />
    <path
       style="fill:#0044aa;stroke:none"
       d="m 819.82388,192.24668 c -58.32944,7.93028 -130.48175,4.63148 -173.23362,56.16802 -48.04651,39.36846 -94.67282,80.20215 -138.44083,123.96532 -47.19022,32.34073 -131.64112,62.38904 -163.83005,-5.56396 -34.15397,-45.42134 51.55073,23.00433 79.97802,-4.50472 49.38184,-11.32931 90.8225,-40.51804 124.69434,-77.32113 42.38829,-31.9725 83.27217,-68.10673 130.54526,-92.84031 44.99628,-11.8864 96.78994,-21.59484 140.28688,0.0968 z"
       id="path30" />
    <path
       style="fill:#0044aa;stroke:none"
       d="m 860.49088,171.91368 -0.334,0.666 z"
       id="path28" />
    <path
       style="fill:#0044aa;stroke:none"
       d="m 976.82388,299.24668 c 17.78672,-31.57669 11.51496,-69.6232 11.69028,-104.18022 -12.33526,-26.35711 -12.46564,-53.18576 9.88972,-11.81978 11.90832,29.5199 31.14122,119.30338 -21.58,116 z"
       id="path26" />
    <path
       style="fill:#0044aa;stroke:none"
       d="m 957.82388,144.24668 c 39.6293,34.29434 31.26952,163.47764 -5.3264,151.35367 16.18284,-48.87968 12.87948,-101.1928 5.3264,-151.35367 z"
       id="path24" />
    <path
       style="fill:#0044aa;stroke:none"
       d="m 939.82388,307.24668 c -13.30602,-22.91963 14.27063,-91.38971 0.379,-131.18525 -7.58382,-27.49287 -16.46347,-74.21712 10.37329,-24.6191 9.82483,51.30721 11.05757,107.43477 -10.75229,155.80435 z"
       id="path22" />
    <path
       style="fill:#0044aa;stroke:none"
       d="m 933.82388,235.24668 c -7.85648,-33.91607 -6.24605,-73.67744 -24.94197,-105.92088 -13.94515,-46.621209 37.71981,38.1911 26.75272,58.49938 1.58421,15.76203 1.77947,31.89752 -1.81075,47.4215 z"
       id="path20" />
    <path
       style="fill:#0044aa;stroke:none"
       d="m 742.82388,117.24668 c 4.32139,-12.10865 17.3302,1.87471 11.92494,3.60319 32.8077,-20.943734 120.26942,76.36593 62.07506,37.45081 -61.44052,-27.83206 -131.45005,-13.84325 -184.50457,25.10075 -69.37778,25.17511 -123.51037,85.43464 -196.49543,98.51125 -48.81788,17.24096 -99.59282,-8.52886 -139.639,-34.074 24.55942,40.42361 92.12529,52.57403 139.32373,44.26738 71.97922,-16.57221 125.17728,-73.1394 193.31527,-99.18238 45.04545,-29.58856 99.18831,-53.49248 153.60303,-35.88393 32.45075,-0.0963 104.89818,54.79506 37.8556,26.00818 -68.84847,-23.94724 -151.91164,-9.23068 -205.45863,41.39475 -47.23967,34.6296 -87.21487,74.91055 -135,109.427 -52.26522,30.8269 -132.71085,35.59239 -169.74572,-20.2928 -15.7385,-27.2194 -45.79178,-115.61136 -13.85609,-112.38093 33.44828,45.03769 91.03446,64.71891 146.41012,46.90368 78.51966,-16.92447 134.48365,-78.04276 205.83526,-110.49008 29.98802,-14.93878 60.04605,-36.03146 94.35643,-20.36287 z"
       id="path18" />
    <path
       style="fill:#0044aa;stroke:none"
       d="m 920.82388,205.24668 c -15.75103,-36.53379 -25.40429,-79.56841 -53,-110.999998 40.51981,13.649628 50.3167,73.856238 53,110.999998 z"
       id="path16" />
    <path
       style="fill:#0044aa;stroke:none"
       d="m 438.82388,91.246682 c 2.77047,1.023944 7.59964,-4.332483 0,0 z"
       id="path14" />
    <path
       style="fill:#0044aa;stroke:none"
       d="m 445.82388,88.246682 c 5.51777,-2.758883 3.73918,-1.86959 0,0 z"
       id="path12" />
    <path
       style="fill:#0044aa;stroke:none"
       d="m 860.82388,97.246682 c 38.56121,46.302608 51.06054,112.364868 61.8955,171.079128 3.5233,38.7719 -13.5162,63.51541 -9.81452,8.74284 -20.36801,-56.988 -38.30186,-127.88352 -96.25098,-159.10397 -56.46746,-28.536099 -129.00445,-28.501474 -184,4.475 -49.14687,17.91036 -77.76476,66.9606 -128.39153,83.64744 -54.83091,23.77661 -120.11437,55.79199 -173.43847,6.52956 -42.21774,-24.24528 -35.35891,-42.30616 5.56363,-62.17351 58.05247,-38.14546 116.2105,-82.242816 188.67643,-85.739966 69.39464,-17.087211 142.0037,-23.631469 212.24682,-7.067397 39.19463,12.772487 92.57893,14.718065 123.51312,39.610875 z"
       id="path10" />
  </g>
  <script
     id="mesh_polyfill"
     type="text/javascript">
!function(){const t=&quot;http://www.w3.org/2000/svg&quot;,e=&quot;http://www.w3.org/1999/xlink&quot;,s=&quot;http://www.w3.org/1999/xhtml&quot;,r=2;if(document.createElementNS(t,&quot;meshgradient&quot;).x)return;const n=(t,e,s,r)=&gt;{let n=new x(.5*(e.x+s.x),.5*(e.y+s.y)),o=new x(.5*(t.x+e.x),.5*(t.y+e.y)),i=new x(.5*(s.x+r.x),.5*(s.y+r.y)),a=new x(.5*(n.x+o.x),.5*(n.y+o.y)),h=new x(.5*(n.x+i.x),.5*(n.y+i.y)),l=new x(.5*(a.x+h.x),.5*(a.y+h.y));return[[t,o,a,l],[l,h,i,r]]},o=t=&gt;{let e=t[0].distSquared(t[1]),s=t[2].distSquared(t[3]),r=.25*t[0].distSquared(t[2]),n=.25*t[1].distSquared(t[3]),o=e&gt;s?e:s,i=r&gt;n?r:n;return 18*(o&gt;i?o:i)},i=(t,e)=&gt;Math.sqrt(t.distSquared(e)),a=(t,e)=&gt;t.scale(2/3).add(e.scale(1/3)),h=t=&gt;{let e,s,r,n,o,i,a,h=new g;return t.match(/(\w+\(\s*[^)]+\))+/g).forEach(t=&gt;{let l=t.match(/[\w.-]+/g),d=l.shift();switch(d){case&quot;translate&quot;:2===l.length?e=new g(1,0,0,1,l[0],l[1]):(console.error(&quot;mesh.js: translate does not have 2 arguments!&quot;),e=new g(1,0,0,1,0,0)),h=h.append(e);break;case&quot;scale&quot;:1===l.length?s=new g(l[0],0,0,l[0],0,0):2===l.length?s=new g(l[0],0,0,l[1],0,0):(console.error(&quot;mesh.js: scale does not have 1 or 2 arguments!&quot;),s=new g(1,0,0,1,0,0)),h=h.append(s);break;case&quot;rotate&quot;:if(3===l.length&amp;&amp;(e=new g(1,0,0,1,l[1],l[2]),h=h.append(e)),l[0]){r=l[0]*Math.PI/180;let t=Math.cos(r),e=Math.sin(r);Math.abs(t)&lt;1e-16&amp;&amp;(t=0),Math.abs(e)&lt;1e-16&amp;&amp;(e=0),a=new g(t,e,-e,t,0,0),h=h.append(a)}else console.error(&quot;math.js: No argument to rotate transform!&quot;);3===l.length&amp;&amp;(e=new g(1,0,0,1,-l[1],-l[2]),h=h.append(e));break;case&quot;skewX&quot;:l[0]?(r=l[0]*Math.PI/180,n=Math.tan(r),o=new g(1,0,n,1,0,0),h=h.append(o)):console.error(&quot;math.js: No argument to skewX transform!&quot;);break;case&quot;skewY&quot;:l[0]?(r=l[0]*Math.PI/180,n=Math.tan(r),i=new g(1,n,0,1,0,0),h=h.append(i)):console.error(&quot;math.js: No argument to skewY transform!&quot;);break;case&quot;matrix&quot;:6===l.length?h=h.append(new g(...l)):console.error(&quot;math.js: Incorrect number of arguments for matrix!&quot;);break;default:console.error(&quot;mesh.js: Unhandled transform type: &quot;+d)}}),h},l=t=&gt;{let e=[],s=t.split(/[ ,]+/);for(let t=0,r=s.length-1;t&lt;r;t+=2)e.push(new x(parseFloat(s[t]),parseFloat(s[t+1])));return e},d=(t,e)=&gt;{for(let s in e)t.setAttribute(s,e[s])},c=(t,e,s,r,n)=&gt;{let o,i,a=[0,0,0,0];for(let h=0;h&lt;3;++h)e[h]&lt;t[h]&amp;&amp;e[h]&lt;s[h]||t[h]&lt;e[h]&amp;&amp;s[h]&lt;e[h]?a[h]=0:(a[h]=.5*((e[h]-t[h])/r+(s[h]-e[h])/n),o=Math.abs(3*(e[h]-t[h])/r),i=Math.abs(3*(s[h]-e[h])/n),a[h]&gt;o?a[h]=o:a[h]&gt;i&amp;&amp;(a[h]=i));return a},u=[[1,0,0,0,0,0,0,0,0,0,0,0,0,0,0,0],[0,0,0,0,1,0,0,0,0,0,0,0,0,0,0,0],[-3,3,0,0,-2,-1,0,0,0,0,0,0,0,0,0,0],[2,-2,0,0,1,1,0,0,0,0,0,0,0,0,0,0],[0,0,0,0,0,0,0,0,1,0,0,0,0,0,0,0],[0,0,0,0,0,0,0,0,0,0,0,0,1,0,0,0],[0,0,0,0,0,0,0,0,-3,3,0,0,-2,-1,0,0],[0,0,0,0,0,0,0,0,2,-2,0,0,1,1,0,0],[-3,0,3,0,0,0,0,0,-2,0,-1,0,0,0,0,0],[0,0,0,0,-3,0,3,0,0,0,0,0,-2,0,-1,0],[9,-9,-9,9,6,3,-6,-3,6,-6,3,-3,4,2,2,1],[-6,6,6,-6,-3,-3,3,3,-4,4,-2,2,-2,-2,-1,-1],[2,0,-2,0,0,0,0,0,1,0,1,0,0,0,0,0],[0,0,0,0,2,0,-2,0,0,0,0,0,1,0,1,0],[-6,6,6,-6,-4,-2,4,2,-3,3,-3,3,-2,-1,-2,-1],[4,-4,-4,4,2,2,-2,-2,2,-2,2,-2,1,1,1,1]],f=t=&gt;{let e=[];for(let s=0;s&lt;16;++s){e[s]=0;for(let r=0;r&lt;16;++r)e[s]+=u[s][r]*t[r]}return e},p=(t,e,s)=&gt;{const r=e*e,n=s*s,o=e*e*e,i=s*s*s;return t[0]+t[1]*e+t[2]*r+t[3]*o+t[4]*s+t[5]*s*e+t[6]*s*r+t[7]*s*o+t[8]*n+t[9]*n*e+t[10]*n*r+t[11]*n*o+t[12]*i+t[13]*i*e+t[14]*i*r+t[15]*i*o},y=t=&gt;{let e=[],s=[],r=[];for(let s=0;s&lt;4;++s)e[s]=[],e[s][0]=n(t[0][s],t[1][s],t[2][s],t[3][s]),e[s][1]=[],e[s][1].push(...n(...e[s][0][0])),e[s][1].push(...n(...e[s][0][1])),e[s][2]=[],e[s][2].push(...n(...e[s][1][0])),e[s][2].push(...n(...e[s][1][1])),e[s][2].push(...n(...e[s][1][2])),e[s][2].push(...n(...e[s][1][3]));for(let t=0;t&lt;8;++t){s[t]=[];for(let r=0;r&lt;4;++r)s[t][r]=[],s[t][r][0]=n(e[0][2][t][r],e[1][2][t][r],e[2][2][t][r],e[3][2][t][r]),s[t][r][1]=[],s[t][r][1].push(...n(...s[t][r][0][0])),s[t][r][1].push(...n(...s[t][r][0][1])),s[t][r][2]=[],s[t][r][2].push(...n(...s[t][r][1][0])),s[t][r][2].push(...n(...s[t][r][1][1])),s[t][r][2].push(...n(...s[t][r][1][2])),s[t][r][2].push(...n(...s[t][r][1][3]))}for(let t=0;t&lt;8;++t){r[t]=[];for(let e=0;e&lt;8;++e)r[t][e]=[],r[t][e][0]=s[t][0][2][e],r[t][e][1]=s[t][1][2][e],r[t][e][2]=s[t][2][2][e],r[t][e][3]=s[t][3][2][e]}return r};class x{constructor(t,e){this.x=t||0,this.y=e||0}toString(){return`(x=${this.x}, y=${this.y})`}clone(){return new x(this.x,this.y)}add(t){return new x(this.x+t.x,this.y+t.y)}scale(t){return void 0===t.x?new x(this.x*t,this.y*t):new x(this.x*t.x,this.y*t.y)}distSquared(t){let e=this.x-t.x,s=this.y-t.y;return e*e+s*s}transform(t){let e=this.x*t.a+this.y*t.c+t.e,s=this.x*t.b+this.y*t.d+t.f;return new x(e,s)}}class g{constructor(t,e,s,r,n,o){void 0===t?(this.a=1,this.b=0,this.c=0,this.d=1,this.e=0,this.f=0):(this.a=t,this.b=e,this.c=s,this.d=r,this.e=n,this.f=o)}toString(){return`affine: ${this.a} ${this.c} ${this.e} \n       ${this.b} ${this.d} ${this.f}`}append(t){t instanceof g||console.error(&quot;mesh.js: argument to Affine.append is not affine!&quot;);let e=this.a*t.a+this.c*t.b,s=this.b*t.a+this.d*t.b,r=this.a*t.c+this.c*t.d,n=this.b*t.c+this.d*t.d,o=this.a*t.e+this.c*t.f+this.e,i=this.b*t.e+this.d*t.f+this.f;return new g(e,s,r,n,o,i)}}class w{constructor(t,e){this.nodes=t,this.colors=e}paintCurve(t,e){if(o(this.nodes)&gt;r){const s=n(...this.nodes);let r=[[],[]],o=[[],[]];for(let t=0;t&lt;4;++t)r[0][t]=this.colors[0][t],r[1][t]=(this.colors[0][t]+this.colors[1][t])/2,o[0][t]=r[1][t],o[1][t]=this.colors[1][t];let i=new w(s[0],r),a=new w(s[1],o);i.paintCurve(t,e),a.paintCurve(t,e)}else{let s=Math.round(this.nodes[0].x);if(s&gt;=0&amp;&amp;s&lt;e){let r=4*(~~this.nodes[0].y*e+s);t[r]=Math.round(this.colors[0][0]),t[r+1]=Math.round(this.colors[0][1]),t[r+2]=Math.round(this.colors[0][2]),t[r+3]=Math.round(this.colors[0][3])}}}}class m{constructor(t,e){this.nodes=t,this.colors=e}split(){let t=[[],[],[],[]],e=[[],[],[],[]],s=[[[],[]],[[],[]]],r=[[[],[]],[[],[]]];for(let s=0;s&lt;4;++s){const r=n(this.nodes[0][s],this.nodes[1][s],this.nodes[2][s],this.nodes[3][s]);t[0][s]=r[0][0],t[1][s]=r[0][1],t[2][s]=r[0][2],t[3][s]=r[0][3],e[0][s]=r[1][0],e[1][s]=r[1][1],e[2][s]=r[1][2],e[3][s]=r[1][3]}for(let t=0;t&lt;4;++t)s[0][0][t]=this.colors[0][0][t],s[0][1][t]=this.colors[0][1][t],s[1][0][t]=(this.colors[0][0][t]+this.colors[1][0][t])/2,s[1][1][t]=(this.colors[0][1][t]+this.colors[1][1][t])/2,r[0][0][t]=s[1][0][t],r[0][1][t]=s[1][1][t],r[1][0][t]=this.colors[1][0][t],r[1][1][t]=this.colors[1][1][t];return[new m(t,s),new m(e,r)]}paint(t,e){let s,n=!1;for(let t=0;t&lt;4;++t)if((s=o([this.nodes[0][t],this.nodes[1][t],this.nodes[2][t],this.nodes[3][t]]))&gt;r){n=!0;break}if(n){let s=this.split();s[0].paint(t,e),s[1].paint(t,e)}else{new w([...this.nodes[0]],[...this.colors[0]]).paintCurve(t,e)}}}class b{constructor(t){this.readMesh(t),this.type=t.getAttribute(&quot;type&quot;)||&quot;bilinear&quot;}readMesh(t){let e=[[]],s=[[]],r=Number(t.getAttribute(&quot;x&quot;)),n=Number(t.getAttribute(&quot;y&quot;));e[0][0]=new x(r,n);let o=t.children;for(let t=0,r=o.length;t&lt;r;++t){e[3*t+1]=[],e[3*t+2]=[],e[3*t+3]=[],s[t+1]=[];let r=o[t].children;for(let n=0,o=r.length;n&lt;o;++n){let o=r[n].children;for(let r=0,i=o.length;r&lt;i;++r){let i=r;0!==t&amp;&amp;++i;let h,d=o[r].getAttribute(&quot;path&quot;),c=&quot;l&quot;;null!=d&amp;&amp;(c=(h=d.match(/\s*([lLcC])\s*(.*)/))[1]);let u=l(h[2]);switch(c){case&quot;l&quot;:0===i?(e[3*t][3*n+3]=u[0].add(e[3*t][3*n]),e[3*t][3*n+1]=a(e[3*t][3*n],e[3*t][3*n+3]),e[3*t][3*n+2]=a(e[3*t][3*n+3],e[3*t][3*n])):1===i?(e[3*t+3][3*n+3]=u[0].add(e[3*t][3*n+3]),e[3*t+1][3*n+3]=a(e[3*t][3*n+3],e[3*t+3][3*n+3]),e[3*t+2][3*n+3]=a(e[3*t+3][3*n+3],e[3*t][3*n+3])):2===i?(0===n&amp;&amp;(e[3*t+3][3*n+0]=u[0].add(e[3*t+3][3*n+3])),e[3*t+3][3*n+1]=a(e[3*t+3][3*n],e[3*t+3][3*n+3]),e[3*t+3][3*n+2]=a(e[3*t+3][3*n+3],e[3*t+3][3*n])):(e[3*t+1][3*n]=a(e[3*t][3*n],e[3*t+3][3*n]),e[3*t+2][3*n]=a(e[3*t+3][3*n],e[3*t][3*n]));break;case&quot;L&quot;:0===i?(e[3*t][3*n+3]=u[0],e[3*t][3*n+1]=a(e[3*t][3*n],e[3*t][3*n+3]),e[3*t][3*n+2]=a(e[3*t][3*n+3],e[3*t][3*n])):1===i?(e[3*t+3][3*n+3]=u[0],e[3*t+1][3*n+3]=a(e[3*t][3*n+3],e[3*t+3][3*n+3]),e[3*t+2][3*n+3]=a(e[3*t+3][3*n+3],e[3*t][3*n+3])):2===i?(0===n&amp;&amp;(e[3*t+3][3*n+0]=u[0]),e[3*t+3][3*n+1]=a(e[3*t+3][3*n],e[3*t+3][3*n+3]),e[3*t+3][3*n+2]=a(e[3*t+3][3*n+3],e[3*t+3][3*n])):(e[3*t+1][3*n]=a(e[3*t][3*n],e[3*t+3][3*n]),e[3*t+2][3*n]=a(e[3*t+3][3*n],e[3*t][3*n]));break;case&quot;c&quot;:0===i?(e[3*t][3*n+1]=u[0].add(e[3*t][3*n]),e[3*t][3*n+2]=u[1].add(e[3*t][3*n]),e[3*t][3*n+3]=u[2].add(e[3*t][3*n])):1===i?(e[3*t+1][3*n+3]=u[0].add(e[3*t][3*n+3]),e[3*t+2][3*n+3]=u[1].add(e[3*t][3*n+3]),e[3*t+3][3*n+3]=u[2].add(e[3*t][3*n+3])):2===i?(e[3*t+3][3*n+2]=u[0].add(e[3*t+3][3*n+3]),e[3*t+3][3*n+1]=u[1].add(e[3*t+3][3*n+3]),0===n&amp;&amp;(e[3*t+3][3*n+0]=u[2].add(e[3*t+3][3*n+3]))):(e[3*t+2][3*n]=u[0].add(e[3*t+3][3*n]),e[3*t+1][3*n]=u[1].add(e[3*t+3][3*n]));break;case&quot;C&quot;:0===i?(e[3*t][3*n+1]=u[0],e[3*t][3*n+2]=u[1],e[3*t][3*n+3]=u[2]):1===i?(e[3*t+1][3*n+3]=u[0],e[3*t+2][3*n+3]=u[1],e[3*t+3][3*n+3]=u[2]):2===i?(e[3*t+3][3*n+2]=u[0],e[3*t+3][3*n+1]=u[1],0===n&amp;&amp;(e[3*t+3][3*n+0]=u[2])):(e[3*t+2][3*n]=u[0],e[3*t+1][3*n]=u[1]);break;default:console.error(&quot;mesh.js: &quot;+c+&quot; invalid path type.&quot;)}if(0===t&amp;&amp;0===n||r&gt;0){let e=window.getComputedStyle(o[r]).stopColor.match(/^rgb\s*\(\s*(\d+)\s*,\s*(\d+)\s*,\s*(\d+)\s*\)$/i),a=window.getComputedStyle(o[r]).stopOpacity,h=255;a&amp;&amp;(h=Math.floor(255*a)),e&amp;&amp;(0===i?(s[t][n]=[],s[t][n][0]=Math.floor(e[1]),s[t][n][1]=Math.floor(e[2]),s[t][n][2]=Math.floor(e[3]),s[t][n][3]=h):1===i?(s[t][n+1]=[],s[t][n+1][0]=Math.floor(e[1]),s[t][n+1][1]=Math.floor(e[2]),s[t][n+1][2]=Math.floor(e[3]),s[t][n+1][3]=h):2===i?(s[t+1][n+1]=[],s[t+1][n+1][0]=Math.floor(e[1]),s[t+1][n+1][1]=Math.floor(e[2]),s[t+1][n+1][2]=Math.floor(e[3]),s[t+1][n+1][3]=h):3===i&amp;&amp;(s[t+1][n]=[],s[t+1][n][0]=Math.floor(e[1]),s[t+1][n][1]=Math.floor(e[2]),s[t+1][n][2]=Math.floor(e[3]),s[t+1][n][3]=h))}}e[3*t+1][3*n+1]=new x,e[3*t+1][3*n+2]=new x,e[3*t+2][3*n+1]=new x,e[3*t+2][3*n+2]=new x,e[3*t+1][3*n+1].x=(-4*e[3*t][3*n].x+6*(e[3*t][3*n+1].x+e[3*t+1][3*n].x)+-2*(e[3*t][3*n+3].x+e[3*t+3][3*n].x)+3*(e[3*t+3][3*n+1].x+e[3*t+1][3*n+3].x)+-1*e[3*t+3][3*n+3].x)/9,e[3*t+1][3*n+2].x=(-4*e[3*t][3*n+3].x+6*(e[3*t][3*n+2].x+e[3*t+1][3*n+3].x)+-2*(e[3*t][3*n].x+e[3*t+3][3*n+3].x)+3*(e[3*t+3][3*n+2].x+e[3*t+1][3*n].x)+-1*e[3*t+3][3*n].x)/9,e[3*t+2][3*n+1].x=(-4*e[3*t+3][3*n].x+6*(e[3*t+3][3*n+1].x+e[3*t+2][3*n].x)+-2*(e[3*t+3][3*n+3].x+e[3*t][3*n].x)+3*(e[3*t][3*n+1].x+e[3*t+2][3*n+3].x)+-1*e[3*t][3*n+3].x)/9,e[3*t+2][3*n+2].x=(-4*e[3*t+3][3*n+3].x+6*(e[3*t+3][3*n+2].x+e[3*t+2][3*n+3].x)+-2*(e[3*t+3][3*n].x+e[3*t][3*n+3].x)+3*(e[3*t][3*n+2].x+e[3*t+2][3*n].x)+-1*e[3*t][3*n].x)/9,e[3*t+1][3*n+1].y=(-4*e[3*t][3*n].y+6*(e[3*t][3*n+1].y+e[3*t+1][3*n].y)+-2*(e[3*t][3*n+3].y+e[3*t+3][3*n].y)+3*(e[3*t+3][3*n+1].y+e[3*t+1][3*n+3].y)+-1*e[3*t+3][3*n+3].y)/9,e[3*t+1][3*n+2].y=(-4*e[3*t][3*n+3].y+6*(e[3*t][3*n+2].y+e[3*t+1][3*n+3].y)+-2*(e[3*t][3*n].y+e[3*t+3][3*n+3].y)+3*(e[3*t+3][3*n+2].y+e[3*t+1][3*n].y)+-1*e[3*t+3][3*n].y)/9,e[3*t+2][3*n+1].y=(-4*e[3*t+3][3*n].y+6*(e[3*t+3][3*n+1].y+e[3*t+2][3*n].y)+-2*(e[3*t+3][3*n+3].y+e[3*t][3*n].y)+3*(e[3*t][3*n+1].y+e[3*t+2][3*n+3].y)+-1*e[3*t][3*n+3].y)/9,e[3*t+2][3*n+2].y=(-4*e[3*t+3][3*n+3].y+6*(e[3*t+3][3*n+2].y+e[3*t+2][3*n+3].y)+-2*(e[3*t+3][3*n].y+e[3*t][3*n+3].y)+3*(e[3*t][3*n+2].y+e[3*t+2][3*n].y)+-1*e[3*t][3*n].y)/9}}this.nodes=e,this.colors=s}paintMesh(t,e){let s=(this.nodes.length-1)/3,r=(this.nodes[0].length-1)/3;if(&quot;bilinear&quot;===this.type||s&lt;2||r&lt;2){let n;for(let o=0;o&lt;s;++o)for(let s=0;s&lt;r;++s){let r=[];for(let t=3*o,e=3*o+4;t&lt;e;++t)r.push(this.nodes[t].slice(3*s,3*s+4));let i=[];i.push(this.colors[o].slice(s,s+2)),i.push(this.colors[o+1].slice(s,s+2)),(n=new m(r,i)).paint(t,e)}}else{let n,o,a,h,l,d,u;const x=s,g=r;s++,r++;let w=new Array(s);for(let t=0;t&lt;s;++t){w[t]=new Array(r);for(let e=0;e&lt;r;++e)w[t][e]=[],w[t][e][0]=this.nodes[3*t][3*e],w[t][e][1]=this.colors[t][e]}for(let t=0;t&lt;s;++t)for(let e=0;e&lt;r;++e)0!==t&amp;&amp;t!==x&amp;&amp;(n=i(w[t-1][e][0],w[t][e][0]),o=i(w[t+1][e][0],w[t][e][0]),w[t][e][2]=c(w[t-1][e][1],w[t][e][1],w[t+1][e][1],n,o)),0!==e&amp;&amp;e!==g&amp;&amp;(n=i(w[t][e-1][0],w[t][e][0]),o=i(w[t][e+1][0],w[t][e][0]),w[t][e][3]=c(w[t][e-1][1],w[t][e][1],w[t][e+1][1],n,o));for(let t=0;t&lt;r;++t){w[0][t][2]=[],w[x][t][2]=[];for(let e=0;e&lt;4;++e)n=i(w[1][t][0],w[0][t][0]),o=i(w[x][t][0],w[x-1][t][0]),w[0][t][2][e]=n&gt;0?2*(w[1][t][1][e]-w[0][t][1][e])/n-w[1][t][2][e]:0,w[x][t][2][e]=o&gt;0?2*(w[x][t][1][e]-w[x-1][t][1][e])/o-w[x-1][t][2][e]:0}for(let t=0;t&lt;s;++t){w[t][0][3]=[],w[t][g][3]=[];for(let e=0;e&lt;4;++e)n=i(w[t][1][0],w[t][0][0]),o=i(w[t][g][0],w[t][g-1][0]),w[t][0][3][e]=n&gt;0?2*(w[t][1][1][e]-w[t][0][1][e])/n-w[t][1][3][e]:0,w[t][g][3][e]=o&gt;0?2*(w[t][g][1][e]-w[t][g-1][1][e])/o-w[t][g-1][3][e]:0}for(let s=0;s&lt;x;++s)for(let r=0;r&lt;g;++r){let n=i(w[s][r][0],w[s+1][r][0]),o=i(w[s][r+1][0],w[s+1][r+1][0]),c=i(w[s][r][0],w[s][r+1][0]),x=i(w[s+1][r][0],w[s+1][r+1][0]),g=[[],[],[],[]];for(let t=0;t&lt;4;++t){(d=[])[0]=w[s][r][1][t],d[1]=w[s+1][r][1][t],d[2]=w[s][r+1][1][t],d[3]=w[s+1][r+1][1][t],d[4]=w[s][r][2][t]*n,d[5]=w[s+1][r][2][t]*n,d[6]=w[s][r+1][2][t]*o,d[7]=w[s+1][r+1][2][t]*o,d[8]=w[s][r][3][t]*c,d[9]=w[s+1][r][3][t]*x,d[10]=w[s][r+1][3][t]*c,d[11]=w[s+1][r+1][3][t]*x,d[12]=0,d[13]=0,d[14]=0,d[15]=0,u=f(d);for(let e=0;e&lt;9;++e){g[t][e]=[];for(let s=0;s&lt;9;++s)g[t][e][s]=p(u,e/8,s/8),g[t][e][s]&gt;255?g[t][e][s]=255:g[t][e][s]&lt;0&amp;&amp;(g[t][e][s]=0)}}h=[];for(let t=3*s,e=3*s+4;t&lt;e;++t)h.push(this.nodes[t].slice(3*r,3*r+4));l=y(h);for(let s=0;s&lt;8;++s)for(let r=0;r&lt;8;++r)(a=new m(l[s][r],[[[g[0][s][r],g[1][s][r],g[2][s][r],g[3][s][r]],[g[0][s][r+1],g[1][s][r+1],g[2][s][r+1],g[3][s][r+1]]],[[g[0][s+1][r],g[1][s+1][r],g[2][s+1][r],g[3][s+1][r]],[g[0][s+1][r+1],g[1][s+1][r+1],g[2][s+1][r+1],g[3][s+1][r+1]]]])).paint(t,e)}}}transform(t){if(t instanceof x)for(let e=0,s=this.nodes.length;e&lt;s;++e)for(let s=0,r=this.nodes[0].length;s&lt;r;++s)this.nodes[e][s]=this.nodes[e][s].add(t);else if(t instanceof g)for(let e=0,s=this.nodes.length;e&lt;s;++e)for(let s=0,r=this.nodes[0].length;s&lt;r;++s)this.nodes[e][s]=this.nodes[e][s].transform(t)}scale(t){for(let e=0,s=this.nodes.length;e&lt;s;++e)for(let s=0,r=this.nodes[0].length;s&lt;r;++s)this.nodes[e][s]=this.nodes[e][s].scale(t)}}document.querySelectorAll(&quot;rect,circle,ellipse,path,text&quot;).forEach((r,n)=&gt;{let o=r.getAttribute(&quot;id&quot;);o||(o=&quot;patchjs_shape&quot;+n,r.setAttribute(&quot;id&quot;,o));const i=r.style.fill.match(/^url\(\s*&quot;?\s*#([^\s&quot;]+)&quot;?\s*\)/),a=r.style.stroke.match(/^url\(\s*&quot;?\s*#([^\s&quot;]+)&quot;?\s*\)/);if(i&amp;&amp;i[1]){const a=document.getElementById(i[1]);if(a&amp;&amp;&quot;meshgradient&quot;===a.nodeName){const i=r.getBBox();let l=document.createElementNS(s,&quot;canvas&quot;);d(l,{width:i.width,height:i.height});const c=l.getContext(&quot;2d&quot;);let u=c.createImageData(i.width,i.height);const f=new b(a);&quot;objectBoundingBox&quot;===a.getAttribute(&quot;gradientUnits&quot;)&amp;&amp;f.scale(new x(i.width,i.height));const p=a.getAttribute(&quot;gradientTransform&quot;);null!=p&amp;&amp;f.transform(h(p)),&quot;userSpaceOnUse&quot;===a.getAttribute(&quot;gradientUnits&quot;)&amp;&amp;f.transform(new x(-i.x,-i.y)),f.paintMesh(u.data,l.width),c.putImageData(u,0,0);const y=document.createElementNS(t,&quot;image&quot;);d(y,{width:i.width,height:i.height,x:i.x,y:i.y});let g=l.toDataURL();y.setAttributeNS(e,&quot;xlink:href&quot;,g),r.parentNode.insertBefore(y,r),r.style.fill=&quot;none&quot;;const w=document.createElementNS(t,&quot;use&quot;);w.setAttributeNS(e,&quot;xlink:href&quot;,&quot;#&quot;+o);const m=&quot;patchjs_clip&quot;+n,M=document.createElementNS(t,&quot;clipPath&quot;);M.setAttribute(&quot;id&quot;,m),M.appendChild(w),r.parentElement.insertBefore(M,r),y.setAttribute(&quot;clip-path&quot;,&quot;url(#&quot;+m+&quot;)&quot;),u=null,l=null,g=null}}if(a&amp;&amp;a[1]){const o=document.getElementById(a[1]);if(o&amp;&amp;&quot;meshgradient&quot;===o.nodeName){const i=parseFloat(r.style.strokeWidth.slice(0,-2))*(parseFloat(r.style.strokeMiterlimit)||parseFloat(r.getAttribute(&quot;stroke-miterlimit&quot;))||1),a=r.getBBox(),l=Math.trunc(a.width+i),c=Math.trunc(a.height+i),u=Math.trunc(a.x-i/2),f=Math.trunc(a.y-i/2);let p=document.createElementNS(s,&quot;canvas&quot;);d(p,{width:l,height:c});const y=p.getContext(&quot;2d&quot;);let g=y.createImageData(l,c);const w=new b(o);&quot;objectBoundingBox&quot;===o.getAttribute(&quot;gradientUnits&quot;)&amp;&amp;w.scale(new x(l,c));const m=o.getAttribute(&quot;gradientTransform&quot;);null!=m&amp;&amp;w.transform(h(m)),&quot;userSpaceOnUse&quot;===o.getAttribute(&quot;gradientUnits&quot;)&amp;&amp;w.transform(new x(-u,-f)),w.paintMesh(g.data,p.width),y.putImageData(g,0,0);const M=document.createElementNS(t,&quot;image&quot;);d(M,{width:l,height:c,x:0,y:0});let S=p.toDataURL();M.setAttributeNS(e,&quot;xlink:href&quot;,S);const k=&quot;pattern_clip&quot;+n,A=document.createElementNS(t,&quot;pattern&quot;);d(A,{id:k,patternUnits:&quot;userSpaceOnUse&quot;,width:l,height:c,x:u,y:f}),A.appendChild(M),o.parentNode.appendChild(A),r.style.stroke=&quot;url(#&quot;+k+&quot;)&quot;,g=null,p=null,S=null}}})}();
</script>
</svg>
