<svg version="1.1" xmlns="http://www.w3.org/2000/svg" xmlns:xlink="http://www.w3.org/1999/xlink" width="138" height="124"><defs><clipPath id="TuhKnrvDkrOe"><path fill="none" stroke="none" d=" M 0 0 L 138 0 L 138 124 L 0 124 L 0 0 Z"/></clipPath></defs><g transform="scale(1,1)" clip-path="url(#TuhKnrvDkrOe)"><g><rect fill="rgb(255,255,255)" stroke="none" x="0" y="0" width="138" height="124" fill-opacity="0"/><path fill="rgb(102,102,102)" stroke="none" paint-order="stroke fill markers" d=" M 10.94 82.11 C 20.61 109.12 54.77 121.60 87.24 109.98 C 119.71 98.36 138.20 67.04 128.54 40.04 C 118.88 13.03 84.72 0.56 52.25 12.17 C 19.77 23.79 1.28 55.11 10.94 82.11 Z" fill-opacity="0.14"/><path fill="none" stroke="rgb(102,102,102)" paint-order="fill stroke markers" d=" M 10.94 82.11 C 20.61 109.12 54.77 121.60 87.24 109.98 C 119.71 98.36 138.20 67.04 128.54 40.04 C 118.88 13.03 84.72 0.56 52.25 12.17 C 19.77 23.79 1.28 55.11 10.94 82.11 Z" stroke-opacity="1" stroke-linecap="round" stroke-linejoin="round" stroke-miterlimit="10" stroke-width="6.5"/><path fill="rgb(153,153,255)" stroke="none" paint-order="stroke fill markers" d=" M 50.01 110.70 C 50.01 115.67 45.98 119.70 41.01 119.70 C 36.04 119.70 32.01 115.67 32.01 110.70 C 32.01 105.73 36.04 101.70 41.01 101.70 C 45.98 101.70 50.01 105.73 50.01 110.70 Z" fill-opacity="1"/><path fill="none" stroke="rgb(0,0,0)" paint-order="fill stroke markers" d=" M 50.01 110.70 C 50.01 115.67 45.98 119.70 41.01 119.70 C 36.04 119.70 32.01 115.67 32.01 110.70 C 32.01 105.73 36.04 101.70 41.01 101.70 C 45.98 101.70 50.01 105.73 50.01 110.70 Z" stroke-opacity="1" stroke-linecap="round" stroke-linejoin="round" stroke-miterlimit="10"/><path fill="rgb(153,153,255)" stroke="none" paint-order="stroke fill markers" d=" M 114.31 100.55 C 114.31 105.52 110.28 109.55 105.31 109.55 C 100.34 109.55 96.31 105.52 96.31 100.55 C 96.31 95.58 100.34 91.55 105.31 91.55 C 110.28 91.55 114.31 95.58 114.31 100.55 Z" fill-opacity="1"/><path fill="none" stroke="rgb(0,0,0)" paint-order="fill stroke markers" d=" M 114.31 100.55 C 114.31 105.52 110.28 109.55 105.31 109.55 C 100.34 109.55 96.31 105.52 96.31 100.55 C 96.31 95.58 100.34 91.55 105.31 91.55 C 110.28 91.55 114.31 95.58 114.31 100.55 Z" stroke-opacity="1" stroke-linecap="round" stroke-linejoin="round" stroke-miterlimit="10"/><path fill="rgb(153,153,255)" stroke="none" paint-order="stroke fill markers" d=" M 127.85 24.41 C 127.85 29.38 123.82 33.41 118.85 33.41 C 113.87 33.41 109.85 29.38 109.85 24.41 C 109.85 19.44 113.87 15.41 118.85 15.41 C 123.82 15.41 127.85 19.44 127.85 24.41 Z" fill-opacity="1"/><path fill="none" stroke="rgb(0,0,0)" paint-order="fill stroke markers" d=" M 127.85 24.41 C 127.85 29.38 123.82 33.41 118.85 33.41 C 113.87 33.41 109.85 29.38 109.85 24.41 C 109.85 19.44 113.87 15.41 118.85 15.41 C 123.82 15.41 127.85 19.44 127.85 24.41 Z" stroke-opacity="1" stroke-linecap="round" stroke-linejoin="round" stroke-miterlimit="10"/><path fill="rgb(153,153,255)" stroke="none" paint-order="stroke fill markers" d=" M 65.24 10.87 C 65.24 15.84 61.21 19.87 56.24 19.87 C 51.27 19.87 47.24 15.84 47.24 10.87 C 47.24 5.90 51.27 1.87 56.24 1.87 C 61.21 1.87 65.24 5.90 65.24 10.87 Z" fill-opacity="1"/><path fill="none" stroke="rgb(0,0,0)" paint-order="fill stroke markers" d=" M 65.24 10.87 C 65.24 15.84 61.21 19.87 56.24 19.87 C 51.27 19.87 47.24 15.84 47.24 10.87 C 47.24 5.90 51.27 1.87 56.24 1.87 C 61.21 1.87 65.24 5.90 65.24 10.87 Z" stroke-opacity="1" stroke-linecap="round" stroke-linejoin="round" stroke-miterlimit="10"/><path fill="rgb(153,153,255)" stroke="none" paint-order="stroke fill markers" d=" M 19.55 53.17 C 19.55 58.14 15.53 62.17 10.55 62.17 C 5.58 62.17 1.55 58.14 1.55 53.17 C 1.55 48.20 5.58 44.17 10.55 44.17 C 15.53 44.17 19.55 48.20 19.55 53.17 Z" fill-opacity="1"/><path fill="none" stroke="rgb(0,0,0)" paint-order="fill stroke markers" d=" M 19.55 53.17 C 19.55 58.14 15.53 62.17 10.55 62.17 C 5.58 62.17 1.55 58.14 1.55 53.17 C 1.55 48.20 5.58 44.17 10.55 44.17 C 15.53 44.17 19.55 48.20 19.55 53.17 Z" stroke-opacity="1" stroke-linecap="round" stroke-linejoin="round" stroke-miterlimit="10"/></g></g></svg>
